<svg width="144" height="32" viewBox="0 0 144 32" fill="none" xmlns="http://www.w3.org/2000/svg">
<g clip-path="url(#clip0_214_6401)">
<path d="M140.571 29.0285L138.286 25.8285C133.714 29.1428 127.314 28.6857 123.2 24.5714C118.629 20 118.629 12.5714 123.2 7.99995C125.371 5.82853 128.229 4.57138 131.543 4.57138H133.486V0.685669H131.429C127.086 0.685669 123.2 2.39995 120.343 5.2571C114.286 11.3142 114.286 21.2571 120.343 27.3142C125.943 32.8 134.514 33.3714 140.571 29.0285Z" fill="#537B90"/>
<path d="M78.9714 5.02853C80.6857 4.22853 82.6286 4.68567 83.7714 6.17139L86.8571 3.77139C84.6857 0.914246 80.6857 -0.114326 77.2571 1.48567C76.1143 2.0571 75.2 2.8571 74.5143 3.77139L77.6 6.17139C77.9429 5.59996 78.4 5.2571 78.9714 5.02853Z" fill="#537B90"/>
<path d="M100.229 0.571411H96.3429V18.2857H100.229V0.571411Z" fill="#537B90"/>
<path d="M143.086 14.2856H133.371V18.2856H139.2V24.1142H143.086V14.2856Z" fill="#00496F"/>
<path d="M90.5143 22.1714C90.5143 20.1143 89.8286 17.9429 88.6857 16.3429C87.5429 14.7429 85.6 13.0286 81.0286 12.5714C78.6286 12.4572 77.7143 11.2 77.2571 10.4C76.8 9.60001 76.8 8.68572 76.8 8.45715H72.9143C72.9143 8.68572 72.9143 10.5143 73.7143 12.1143C74.9714 14.6286 77.3714 16 80.6857 16.2286C86.6286 16.5714 86.5143 21.8286 86.5143 22.0572C86.5143 25.2572 83.8857 27.8857 80.6857 27.8857C77.4857 27.8857 74.8572 25.2572 74.8572 22.0572H70.9714C70.9714 27.4286 75.3143 31.7714 80.6857 31.7714C86.0571 31.8857 90.5143 27.5429 90.5143 22.1714Z" fill="#537B90"/>
<path d="M96.3429 22.1714C96.3429 27.5428 100.914 31.8857 106.286 31.8857H114.057V28.1142H106.286C103.086 28.1142 100.229 25.3714 100.229 22.1714H96.3429Z" fill="#537B90"/>
<path d="M0.571411 22.1714H4.6857C6.74284 22.1714 8.34284 23.5428 8.34284 25.3714C8.34284 27.2 6.74284 28.5714 4.6857 28.5714H2.05713V32H0.571411V22.1714ZM4.45712 27.2C5.82855 27.2 6.85713 26.5142 6.85713 25.3714C6.85713 24.2285 5.94284 23.5428 4.45712 23.5428H2.05713V27.2H4.45712Z" fill="#537B90"/>
<path d="M16.7999 29.9428H11.6571L10.8571 31.8857H9.25708L13.4857 22.1714H15.0857L19.3142 31.8857H17.7142L16.7999 29.9428ZM16.2285 28.5714L14.2857 24L12.2285 28.5714H16.2285Z" fill="#537B90"/>
<path d="M26.0571 28.3428L28.5714 31.8857H26.9714L24.5714 28.4571H22.2856V31.8857H20.7999V22.1714H24.9142C26.9714 22.1714 28.5714 23.5428 28.5714 25.3714C28.5714 26.8571 27.5428 28 26.0571 28.3428ZM22.2856 27.2H24.7999C26.1714 27.2 27.1999 26.5142 27.1999 25.3714C27.1999 24.2285 26.2856 23.5428 24.7999 23.5428H22.2856V27.2Z" fill="#537B90"/>
<path d="M33.0286 23.4286H29.8286V22.0571H37.7143V23.4286H34.5143V31.8857H33.0286V23.4286Z" fill="#537B90"/>
<path d="M43.2 26.9714C43.2 24.2286 45.4857 21.9429 48.2285 21.9429C50.9714 21.9429 53.2571 24.2286 53.2571 26.9714C53.2571 29.7143 50.9714 32 48.2285 32C45.6 32 43.2 29.7143 43.2 26.9714ZM51.8857 26.9714C51.8857 24.9143 50.2857 23.2 48.3428 23.2C46.4 23.2 44.8 24.9143 44.8 26.9714C44.8 29.0286 46.4 30.7429 48.3428 30.7429C50.2857 30.7429 51.8857 29.0286 51.8857 26.9714Z" fill="#537B90"/>
<path d="M56.6857 23.4285V26.2857H61.8285V27.6571H56.6857V31.8857H55.2V22.1714H62.3999V23.5428H56.6857V23.4285Z" fill="#537B90"/>
</g>
<defs>
<clipPath id="clip0_214_6401">
<rect width="144" height="32" fill="white"/>
</clipPath>
</defs>
</svg>
