<svg width="243" height="28" viewBox="0 0 243 28" fill="none" xmlns="http://www.w3.org/2000/svg">
<g clip-path="url(#clip0_817_1102)">
<path d="M80.1474 4.00155C81.3737 4.00155 82.4156 4.17984 83.276 4.53643C84.1365 4.89302 84.8357 5.36434 85.3753 5.95039C85.9148 6.53643 86.3086 7.20465 86.5551 7.95349C86.8032 8.70388 86.9257 9.48217 86.9257 10.2868C86.9257 11.0915 86.8032 11.8465 86.5551 12.6062C86.3086 13.3659 85.9148 14.0388 85.3753 14.6233C84.8357 15.2093 84.1365 15.6806 83.276 16.0372C82.4156 16.3938 81.3722 16.5721 80.1474 16.5721H75.6187V23.5984H71.3086V4H80.1474V4.00155ZM78.9675 13.2248C79.4621 13.2248 79.9365 13.1876 80.3954 13.1147C80.8528 13.0419 81.2559 12.8992 81.6032 12.6899C81.9505 12.4806 82.2295 12.1814 82.4404 11.7984C82.6512 11.414 82.7567 10.9101 82.7567 10.2884C82.7567 9.66667 82.6512 9.16279 82.4404 8.77829C82.2295 8.3938 81.9505 8.09767 81.6032 7.88682C81.2559 7.67597 80.8528 7.53488 80.3954 7.46202C79.9381 7.38915 79.4621 7.35194 78.9675 7.35194H75.6187V13.2264H78.9675V13.2248Z" fill="#0A436A"/>
<path d="M92.2683 10.31V12.7813H92.3194C92.4915 12.3689 92.7225 11.9875 93.0156 11.6356C93.307 11.2836 93.6419 10.9828 94.0202 10.7348C94.397 10.4867 94.8016 10.2929 95.2311 10.1549C95.6605 10.0185 96.107 9.94873 96.5706 9.94873C96.8109 9.94873 97.0776 9.99214 97.3691 10.0774V13.4774C97.197 13.4433 96.9908 13.4123 96.7504 13.3875C96.5101 13.3611 96.2776 13.3487 96.0543 13.3487C95.3846 13.3487 94.8187 13.4604 94.3551 13.6836C93.8915 13.9069 93.5179 14.2107 93.2357 14.5983C92.952 14.9844 92.7505 15.4356 92.6311 15.9503C92.5117 16.465 92.4512 17.0231 92.4512 17.6247V23.6247H88.7954V10.3131H92.2714L92.2683 10.31Z" fill="#0A436A"/>
<path d="M98.8852 14.0822C99.2108 13.2156 99.6743 12.4776 100.276 11.8683C100.877 11.259 101.597 10.7861 102.439 10.4528C103.281 10.1179 104.225 9.95044 105.271 9.95044C106.318 9.95044 107.267 10.1179 108.116 10.4528C108.966 10.7876 109.691 11.2605 110.291 11.8683C110.893 12.4776 111.356 13.2171 111.682 14.0822C112.008 14.9489 112.113 15.9148 112.113 16.9783C112.113 18.0419 112.009 19.0047 111.682 19.8621C111.356 20.721 110.893 21.4543 110.291 22.0636C109.691 22.6729 108.966 23.1411 108.116 23.4667C107.267 23.7923 106.318 23.9551 105.271 23.9551C104.225 23.9551 103.281 23.7923 102.439 23.4667C101.597 23.1411 100.877 22.6729 100.276 22.0636C99.6743 21.4543 99.2108 20.721 98.8852 19.8621C98.5581 19.0047 98.3953 18.0435 98.3953 16.9783C98.3953 15.9132 98.5581 14.9489 98.8852 14.0822ZM102.206 18.5365C102.308 19.0435 102.485 19.4977 102.735 19.9008C102.983 20.3039 103.315 20.6264 103.725 20.8667C104.138 21.107 104.653 21.228 105.271 21.228C105.89 21.228 106.409 21.1086 106.829 20.8667C107.25 20.6264 107.584 20.3055 107.834 19.9008C108.082 19.4977 108.259 19.0435 108.361 18.5365C108.463 18.0295 108.516 17.5117 108.516 16.9783C108.516 16.445 108.465 15.9225 108.361 15.4078C108.259 14.8931 108.082 14.4388 107.834 14.0435C107.584 13.6497 107.251 13.3272 106.829 13.0776C106.409 12.8295 105.89 12.7039 105.271 12.7039C104.653 12.7039 104.138 12.8295 103.725 13.0776C103.313 13.3272 102.983 13.6497 102.735 14.0435C102.485 14.4388 102.31 14.8931 102.206 15.4078C102.104 15.9225 102.051 16.4466 102.051 16.9783C102.051 17.5101 102.102 18.0295 102.206 18.5365Z" fill="#0A436A"/>
<path d="M8.85581 10.2218H6.05737V7.26056C6.05737 6.71793 5.75814 6.4187 5.2155 6.4187H3.25892C2.71628 6.4187 2.44496 6.71793 2.44496 7.26056V10.2218H0.815505C0.27287 10.2218 0 10.5195 0 11.0637V12.3675C0 12.9102 0.271319 13.1815 0.815505 13.1815H2.44496V19.4575C2.44496 22.6621 3.6124 23.5861 6.24806 23.5861C7.28062 23.5861 8.12248 23.4776 8.74729 23.3427C9.23721 23.2342 9.45426 22.8807 9.42636 22.3908L9.31783 20.9784C9.28992 20.4358 8.96434 20.2172 8.47597 20.3257C8.15039 20.4079 7.7969 20.4342 7.38915 20.4342C6.46512 20.4342 6.05737 20.0807 6.05737 18.9939V13.1815H8.85581C9.39845 13.1815 9.69767 12.9102 9.69767 12.3675V11.0637C9.69767 10.521 9.39845 10.2218 8.85581 10.2218Z" fill="#1AB258"/>
<path d="M19.7411 10.003C19.5504 9.97509 19.3333 9.94873 19.062 9.94873C17.7302 9.94873 16.6713 10.7906 15.9379 12.1487C15.448 10.7906 14.4449 9.97509 13.1395 9.97509C12.6511 9.97509 12.2697 10.003 11.9721 10.0836C11.4837 10.1921 11.2666 10.5177 11.2387 11.0061V12.2278C11.2108 12.7704 11.4558 13.0433 11.8914 13.0697C12.217 13.0976 12.4883 13.1239 12.7069 13.2045V22.4123C12.7069 22.9565 12.9783 23.2542 13.5209 23.2542H15.4775C16.0201 23.2542 16.3193 22.9565 16.3193 22.4123V17.0898C16.3193 14.6185 17.6232 13.3689 19.0077 13.3689H19.3612C19.9318 13.3968 20.231 13.2325 20.2573 12.6619L20.3659 10.896C20.3922 10.4076 20.2031 10.0542 19.7411 9.99989" fill="#1AB258"/>
<path d="M34.0403 20.5163C33.7953 20.4884 33.5783 20.4621 33.3612 20.4078V15.0838C33.3612 11.6342 31.3519 9.95044 27.3581 9.95044C23.8542 9.95044 22.4139 11.2001 21.7891 12.938C21.6263 13.4807 21.8697 13.8342 22.4418 13.9427L24.1519 14.2419C24.6682 14.3225 24.8852 14.0791 25.1566 13.6993C25.51 13.0466 26.1612 12.6931 27.3302 12.6931C28.9597 12.6931 29.8573 13.4543 29.8573 15.0559V15.7349C29.0697 15.5721 28.1457 15.4636 27.0589 15.4636C23.0387 15.4636 21.1643 17.121 21.1643 19.5923C21.1643 22.0636 22.8217 23.5845 25.6728 23.5845C27.71 23.5845 29.1504 22.9613 30.155 21.8745C30.5628 22.907 31.4589 23.5039 33.0077 23.5039C33.4961 23.5039 33.9038 23.4776 34.2031 23.4497C34.6914 23.3675 34.9364 23.0683 34.9628 22.552V21.3845C34.9907 20.8419 34.6635 20.5969 34.0387 20.5163M29.8558 17.9892C29.8558 19.9179 28.3348 21.0047 26.6232 21.0047C25.3736 21.0047 24.6403 20.5427 24.6403 19.4032C24.6403 18.2636 25.4558 17.583 27.3566 17.583C28.2263 17.583 29.0945 17.6652 29.8558 17.8001V17.9908V17.9892Z" fill="#1AB258"/>
<path d="M67.3768 4.06198L64.6063 4.04492C64.0357 4.04492 63.7644 4.34415 63.7644 4.88678V20.5333C63.7644 22.9783 64.9597 23.5752 67.0512 23.5752C67.1721 23.5752 67.2838 23.5736 67.3954 23.5705L67.3784 4.06043L67.3768 4.06198Z" fill="#1AB258"/>
<path d="M55.6449 10.0217C51.7612 10.0217 49.262 12.7644 49.262 16.6496C49.262 20.9675 51.5705 23.6574 56.1891 23.6574C58.3348 23.6574 60.0728 23.0341 61.0232 22.5163C61.403 22.2992 61.4852 21.9194 61.3488 21.5117L60.9147 20.1799C60.724 19.6915 60.3984 19.583 59.91 19.8279C59.1224 20.2357 57.8992 20.6698 56.4604 20.6698C54.2604 20.6698 53.0651 19.6636 52.7938 17.6822H61.0511C61.541 17.6822 61.8124 17.383 61.8124 16.8946V16.4605C61.8124 12.7938 59.7472 10.0233 55.6465 10.0233M52.8217 15.5644C53.1209 13.6093 54.2341 12.8481 55.6465 12.8481C57.0589 12.8481 58.0372 13.6357 58.172 15.5644H52.8217Z" fill="#1AB258"/>
<path d="M47.2169 14.5394V18.8495L40.7968 15.7751L37.1038 14.0061V9.94873L47.2169 14.5394Z" fill="#1AB258"/>
<path d="M47.2169 18.845V14.5349L37.1038 19.3783V23.4357L47.2169 18.845Z" fill="#0A436A"/>
</g>
<line x1="136.748" y1="2.18557e-08" x2="136.748" y2="28" stroke="#C5E5FB"/>
<g clip-path="url(#clip1_817_1102)">
<path d="M186.714 17.4944V15.1592H188.254V0H160.248V10.7632L161.379 9.5368L161.088 13.5912H160.248V28H188.248V19.8072C188.203 19.8296 186.753 19.8408 186.708 19.8632V17.4944H186.714Z" fill="#006FCF"/>
<path d="M188.259 19.8015V15.1591H171.09L170.642 15.7975L170.188 15.1591H165.204V20.0815H170.166L170.608 19.4319L171.067 20.0815H174.181V18.9951H174.086C174.494 18.9951 174.875 18.9167 175.2 18.7879V20.0759H177.451V19.4767L177.905 20.0759H187.178C187.582 20.0759 187.946 19.9751 188.248 19.7959L188.259 19.8015ZM184.81 13.5911H186.938V8.66869H184.63V9.35749L184.194 8.66869H182.183V9.55909L181.791 8.66869H178.56C178.42 8.66869 178.28 8.67989 178.14 8.69669C178.006 8.71349 177.871 8.74149 177.742 8.78069C177.647 8.80869 177.552 8.84229 177.457 8.88149C177.356 8.92629 177.266 8.97109 177.177 9.02709V8.66309H166.626L166.341 9.48629L166.055 8.66309H163.541V9.55349L163.149 8.66309H161.15L160.248 10.7743V13.5855H161.659L161.934 12.8743H162.415L162.69 13.5855H173.699V12.9863L174.153 13.5855H177.182V13.2495C177.266 13.2999 177.35 13.3447 177.44 13.3783C177.53 13.4175 177.619 13.4455 177.709 13.4735C177.832 13.5127 177.961 13.5351 178.084 13.5519C178.23 13.5743 178.375 13.5799 178.51 13.5799H180.302L180.576 12.8687H181.058L181.332 13.5799H184.418V12.9695L184.815 13.5799L184.81 13.5911Z" fill="white"/>
<path d="M168.659 16.6432V15.9712H166.055V19.2696H168.659V18.5976H166.811V17.9368H168.614V17.2816H166.811V16.6376H168.659V16.6432ZM171.448 19.2752H172.394L171.073 17.612L172.383 15.9768H171.465L170.636 17.052L169.807 15.9768H168.861L170.182 17.6288L168.866 19.2808H169.785L170.614 18.1944L171.448 19.2808V19.2752ZM172.607 15.9768V19.2752H173.363V18.172H174.366C175.082 18.172 175.525 17.7072 175.525 17.0744C175.525 16.4416 175.094 15.9768 174.394 15.9768H172.607ZM174.769 17.08C174.769 17.3152 174.618 17.5056 174.332 17.5056H173.363V16.6488H174.332C174.618 16.6488 174.769 16.8448 174.769 17.08ZM176.774 18.0768H177.154L178.168 19.2808H179.114L178.022 18.0488C178.582 17.9424 178.913 17.5504 178.913 17.0352C178.913 16.408 178.482 15.9768 177.782 15.9768H176.018V19.2752H176.774V18.0712V18.0768ZM177.714 16.6488C178 16.6488 178.151 16.8224 178.151 17.0408C178.151 17.2592 178 17.4328 177.714 17.4328H176.774V16.6488H177.714ZM181.982 16.6488V15.9768H179.378V19.2752H181.982V18.6032H180.134V17.9424H181.937V17.2872H180.134V16.6432H181.982V16.6488ZM184.154 18.6088H182.474V19.2808H184.115C184.826 19.2808 185.252 18.8496 185.252 18.2448C185.252 17.64 184.86 17.2984 184.227 17.2984H183.477C183.281 17.2984 183.135 17.1696 183.135 16.9736C183.135 16.7776 183.275 16.6544 183.477 16.6544H184.894L185.19 15.9824H183.522C182.81 15.9824 182.385 16.4136 182.385 17.0072C182.385 17.6008 182.788 17.9648 183.41 17.9648H184.16C184.356 17.9648 184.502 18.0936 184.502 18.2952C184.502 18.4968 184.362 18.6144 184.16 18.6144L184.154 18.6088ZM187.223 18.6088H185.543V19.2808H187.184C187.895 19.2808 188.321 18.8496 188.321 18.2448C188.321 17.64 187.929 17.2984 187.296 17.2984H186.546C186.35 17.2984 186.204 17.1696 186.204 16.9736C186.204 16.7776 186.344 16.6544 186.546 16.6544H187.962L188.259 15.9824H186.59C185.879 15.9824 185.454 16.4136 185.454 17.0072C185.454 17.6008 185.857 17.9648 186.478 17.9648H187.229C187.425 17.9648 187.57 18.0936 187.57 18.2952C187.57 18.4968 187.43 18.6144 187.229 18.6144L187.223 18.6088Z" fill="#006FCF"/>
<path d="M163.261 12.7791H164.095L162.684 9.4807H161.682L160.265 12.7791H161.082L161.368 12.0679H162.981L163.261 12.7791ZM161.917 10.6791L162.169 9.9847L162.421 10.6791L162.723 11.4407H161.614L161.917 10.6791ZM166.01 12.7791H166.666L167.618 10.1079V12.7791H168.362V9.4807H167.119L166.346 11.7095L165.574 9.4807H164.319V12.7791H165.064V10.1079L166.01 12.7791ZM171.655 10.1471V9.4751H169.051V12.7735H171.655V12.1015H169.807V11.4407H171.61V10.7855H169.807V10.1415H171.655V10.1471ZM173.01 11.5751H173.391L174.405 12.7791H175.351L174.259 11.5471C174.819 11.4407 175.15 11.0487 175.15 10.5335C175.15 9.9063 174.718 9.4751 174.018 9.4751H172.254V12.7735H173.01V11.5695V11.5751ZM173.951 10.1471C174.237 10.1471 174.388 10.3207 174.388 10.5391C174.388 10.7575 174.237 10.9311 173.951 10.9311H173.01V10.1471H173.951ZM175.614 12.7791H176.37V9.4807H175.614V12.7791ZM178.42 12.7791H178.448L178.762 12.1071H178.543C177.989 12.1071 177.664 11.7599 177.664 11.1607V11.1047C177.664 10.5727 177.961 10.1695 178.538 10.1695H179.372V9.4807H178.476C177.474 9.4807 176.914 10.1639 176.914 11.0991V11.1663C176.914 12.1239 177.474 12.7735 178.426 12.7847L178.42 12.7791ZM181.903 12.7791H182.738L181.326 9.4807H180.324L178.907 12.7791H179.725L180.005 12.0679H181.618L181.898 12.7791H181.903ZM180.559 10.6791L180.811 9.9847L181.063 10.6791L181.366 11.4407H180.257L180.559 10.6791ZM183.858 10.7631L185.151 12.7791H186.086V9.4807H185.336V11.6591L185.134 11.3399L183.936 9.4807H182.962V12.7791H183.712V10.5279L183.863 10.7631H183.858Z" fill="#006FCF"/>
<path d="M198.463 8.64079C199.499 8.64079 200.103 7.97439 200.255 7.56559H200.271V8.51199H201.487V5.07359H198.855V6.19359H200.053C199.913 6.95519 199.392 7.42559 198.642 7.42559C197.891 7.42559 196.984 6.94399 196.984 5.02319C196.984 3.10239 198.02 2.77199 198.58 2.77199C199.258 2.77199 199.695 3.14159 199.98 4.09919L201.363 3.71839C200.927 2.03839 199.891 1.52319 198.591 1.52319C196.665 1.52319 195.467 2.90639 195.467 5.05679C195.467 7.20719 196.396 8.64639 198.468 8.64639L198.463 8.64079Z" fill="#08436A"/>
<path d="M207.283 8.51208V7.28568H204.259V1.64648H202.747V8.51208H207.283Z" fill="#08436A"/>
<path d="M210.536 8.64078C212.188 8.64078 213.762 7.49278 213.762 5.07918C213.762 2.66558 212.188 1.51758 210.536 1.51758C208.884 1.51758 207.299 2.66558 207.299 5.07918C207.299 7.49278 208.873 8.64078 210.536 8.64078ZM210.536 7.42558C209.472 7.42558 208.811 6.51838 208.811 5.07918C208.811 3.63998 209.472 2.77198 210.536 2.77198C211.6 2.77198 212.261 3.64558 212.261 5.07918C212.261 6.51278 211.595 7.42558 210.536 7.42558Z" fill="#08436A"/>
<path d="M217.648 8.5121C218.925 8.5121 220.14 8.0025 220.14 6.6193C220.14 5.5273 219.479 5.0905 218.645 4.9393V4.9225C219.339 4.7825 219.95 4.3177 219.95 3.3489C219.95 1.9601 218.763 1.6521 217.503 1.6521H214.759V8.5121H217.643H217.648ZM216.248 2.8169H217.379C218.186 2.8169 218.511 3.1137 218.511 3.6513C218.511 4.1889 218.147 4.4745 217.363 4.4745H216.248V2.8169ZM216.248 5.5441H217.396C218.231 5.5441 218.667 5.8409 218.667 6.4457C218.667 7.0505 218.298 7.3641 217.463 7.3641H216.248V5.5441Z" fill="#08436A"/>
<path d="M223.556 3.55042H223.573L224.363 5.88562H222.75L223.556 3.55042ZM221.848 8.51202L222.375 6.98322H224.71L225.219 8.51202H226.748L224.318 1.62402H222.879L220.448 8.51202H221.837H221.848Z" fill="#08436A"/>
<path d="M232.04 8.51208V7.28568H229.016V1.64648H227.504V8.51208H232.04Z" fill="#08436A"/>
<path d="M199.011 17.4328C200.294 17.4328 201.503 16.9232 201.503 15.54C201.503 14.448 200.843 14.0112 200.008 13.86V13.8432C200.703 13.7032 201.313 13.2384 201.313 12.2696C201.313 10.8808 200.126 10.5728 198.866 10.5728H196.122V17.4328H199.006H199.011ZM197.611 11.7376H198.743C199.549 11.7376 199.874 12.0344 199.874 12.572C199.874 13.1096 199.51 13.3952 198.726 13.3952H197.611V11.7376ZM197.611 14.4648H198.759C199.594 14.4648 200.031 14.7616 200.031 15.3664C200.031 15.9712 199.661 16.2848 198.827 16.2848H197.611V14.4648Z" fill="#08436A"/>
<path d="M205.216 17.5448C207.126 17.5448 207.977 16.4864 207.977 14.8008V10.5728H206.493V14.7728C206.493 15.7752 206.123 16.324 205.233 16.324C204.342 16.324 203.956 15.7696 203.956 14.7728V10.5728H202.444V14.812C202.444 16.492 203.306 17.5448 205.216 17.5448Z" fill="#08436A"/>
<path d="M211.611 17.5617C213.521 17.5617 214.355 16.5761 214.355 15.4729C214.355 14.0561 213.073 13.6753 211.869 13.3505C210.967 13.0985 210.458 12.9081 210.458 12.3593C210.458 11.9505 210.811 11.6705 211.449 11.6705C212.087 11.6705 212.776 12.0625 213.135 12.6449L214.182 11.8497C213.7 11.1161 212.866 10.4385 211.455 10.4385C210.043 10.4385 208.979 11.2057 208.979 12.4881C208.979 13.9273 210.256 14.2409 211.483 14.5825C212.384 14.8345 212.871 15.0529 212.871 15.5737C212.871 16.0945 212.373 16.3633 211.673 16.3633C210.883 16.3633 210.2 15.9433 209.819 15.1929L208.677 15.8705C209.187 16.8561 210.116 17.5561 211.6 17.5561L211.611 17.5617Z" fill="#08436A"/>
<path d="M216.937 17.4327V13.9999V10.5671H216.181H215.431V13.9999V17.4327H216.047H216.937Z" fill="#08436A"/>
<path d="M219.714 17.4327V13.0143H219.731L222.727 17.4327H224.122V10.5671H222.727V14.9463H222.71L219.838 10.5671H218.326V17.4327H219.714Z" fill="#08436A"/>
<path d="M230.349 17.4327V16.2063H227.022V14.4983H229.313V13.3055H227.022V11.8327H230.181V10.5671H225.51V17.4327H230.349Z" fill="#08436A"/>
<path d="M233.714 17.5617C235.624 17.5617 236.458 16.5761 236.458 15.4729C236.458 14.0561 235.182 13.6753 233.972 13.3505C233.07 13.0985 232.561 12.9081 232.561 12.3593C232.561 11.9505 232.914 11.6705 233.552 11.6705C234.19 11.6705 234.879 12.0625 235.238 12.6449L236.285 11.8497C235.803 11.1161 234.969 10.4385 233.558 10.4385C232.146 10.4385 231.082 11.2057 231.082 12.4881C231.082 13.9273 232.365 14.2409 233.586 14.5825C234.487 14.8345 234.974 15.0529 234.974 15.5737C234.974 16.0945 234.476 16.3633 233.776 16.3633C232.986 16.3633 232.303 15.9433 231.922 15.1929L230.78 15.8705C231.29 16.8561 232.219 17.5561 233.703 17.5561L233.714 17.5617Z" fill="#08436A"/>
<path d="M239.947 17.5617C241.857 17.5617 242.691 16.5761 242.691 15.4729C242.691 14.0561 241.415 13.6753 240.205 13.3505C239.303 13.0985 238.794 12.9081 238.794 12.3593C238.794 11.9505 239.147 11.6705 239.785 11.6705C240.423 11.6705 241.112 12.0625 241.471 12.6449L242.518 11.8497C242.036 11.1161 241.202 10.4385 239.791 10.4385C238.379 10.4385 237.315 11.2057 237.315 12.4881C237.315 13.9273 238.598 14.2409 239.819 14.5825C240.72 14.8345 241.207 15.0529 241.207 15.5737C241.207 16.0945 240.709 16.3633 240.009 16.3633C239.219 16.3633 238.536 15.9433 238.155 15.1929L237.013 15.8705C237.523 16.8561 238.452 17.5561 239.936 17.5561L239.947 17.5617Z" fill="#08436A"/>
<path d="M199.538 26.3536V20.7536H201.587V19.488H195.987V20.7536H198.026V26.3536H199.538Z" fill="#08436A"/>
<path d="M203.889 20.7257H204.919C205.793 20.7257 206.207 20.9777 206.207 21.6553C206.207 22.3328 205.787 22.6017 204.919 22.6017H203.889V20.7313V20.7257ZM203.889 26.3537V23.7664H204.763L206.191 26.3537H207.787L206.258 23.5705C207.176 23.2905 207.686 22.6969 207.686 21.6161C207.686 20.0929 206.678 19.4937 204.987 19.4937H202.411V26.3537H203.895H203.889Z" fill="#08436A"/>
<path d="M211.247 21.392H211.264L212.054 23.7272H210.441L211.247 21.392ZM209.539 26.3536L210.066 24.8248H212.401L212.911 26.3536H214.439L212.009 19.4656H210.57L208.139 26.3536H209.528H209.539Z" fill="#08436A"/>
<path d="M217.721 26.3816L220.084 19.488H218.667L217.043 24.3936H217.026L215.458 19.488H213.93L216.293 26.3816H217.721Z" fill="#08436A"/>
<path d="M225.678 26.3536V25.1272H222.346V23.4248H224.637V22.2264H222.346V20.7536H225.51V19.488H220.834V26.3536H225.678Z" fill="#08436A"/>
<path d="M231.407 26.3536V25.1272H228.383V19.488H226.871V26.3536H231.407Z" fill="#08436A"/>
</g>
<defs>
<clipPath id="clip0_817_1102">
<rect width="112.248" height="20" fill="white" transform="translate(0 4)"/>
</clipPath>
<clipPath id="clip1_817_1102">
<rect width="82.4432" height="28" fill="white" transform="translate(160.248)"/>
</clipPath>
</defs>
</svg>
