<svg width="80" height="80" viewBox="0 0 80 80" fill="none" xmlns="http://www.w3.org/2000/svg">
<path d="M70.8062 5.90815C70.5464 4.84812 70.1099 3.5179 68.9668 2.67612C67.1689 1.3355 63.9784 2.22925 61.0997 3.27888C52.4949 6.41737 45.6982 11.4785 38.3612 20.1665C37.8312 20.8004 37.2804 21.4759 36.7296 22.1722C35.2955 22.2449 33.9757 22.3281 32.7286 22.4112C29.2159 22.6295 26.1606 22.8165 22.2323 22.8165C22.1699 22.8165 22.1491 22.8373 22.0556 22.8165C21.6087 22.8165 21.1826 23.0556 20.954 23.4401C18.7716 26.9943 12.4219 37.0125 9.30417 40.6914C8.98201 41.0759 8.90926 41.6163 9.11711 42.0736C9.33535 42.5309 9.79261 42.8218 10.2914 42.8322C11.6632 42.8322 13.5858 43.1752 15.6123 43.5285C17.9298 43.9338 20.2889 44.3495 22.2842 44.3495C23.3443 44.3495 24.3004 44.2248 25.1006 43.9234C24.7888 45.0562 24.5186 46.2097 24.3004 47.3737C24.2172 47.8206 24.3731 48.2778 24.716 48.5792C27.4285 50.9695 37.27 58.7014 38.621 58.7741C38.6626 58.7741 38.6938 58.7741 38.7354 58.7741C39.5148 58.7741 40.1383 58.3792 40.4397 58.1818C40.6995 58.0155 40.9697 57.8284 41.2399 57.6414C41.5309 59.8861 42.7988 62.6193 44.0562 65.3109C44.9292 67.1816 45.7502 68.9482 46.1139 70.2681C46.249 70.7565 46.6543 71.1203 47.1532 71.2034C47.2259 71.2138 47.2987 71.2242 47.3714 71.2242C47.7975 71.2242 48.1924 71.0163 48.4418 70.663C50.884 67.1296 58.0859 59.1275 62.0662 54.9186C62.378 54.586 62.4923 54.1183 62.378 53.6819C61.318 49.7951 60.6944 46.7709 59.9774 43.2583C59.7176 41.9905 59.437 40.6602 59.1356 39.1949C60.9958 36.6696 62.7625 34.0299 64.4149 31.2863C66.7636 27.3788 68.6238 23.3465 69.954 19.3039C71.5129 14.565 71.8143 9.94039 70.8374 5.90815H70.8062ZM61.9935 5.72108C66.1712 4.19341 67.2105 4.59871 67.4183 4.76499C67.886 5.11833 68.125 5.88736 68.2809 6.52129C69.1123 9.96117 68.8628 13.9518 67.5742 18.0776C65.662 17.8178 63.6874 17.5372 61.9311 16.8305C58.5848 15.4795 56.0075 12.3826 55.2073 8.85958C57.3585 7.63328 59.6032 6.59404 61.9831 5.72108H61.9935ZM24.716 41.0551C24.1445 42.375 19.073 41.4812 16.0488 40.9512C14.916 40.7538 13.8145 40.5563 12.7856 40.4212C15.9969 36.1084 20.6319 28.8337 22.7623 25.4042C26.5139 25.3834 29.4758 25.2068 32.8741 24.9989C33.4456 24.9677 34.0484 24.9262 34.6512 24.895C33.1547 26.9423 31.6685 29.2078 30.276 31.6396C27.9793 35.1211 25.6929 38.8 24.7057 41.0551H24.716ZM57.4104 43.7675C58.0963 47.1035 58.6887 50.0134 59.6552 53.6507C56.8908 56.6021 51.0815 62.9726 47.7559 67.2023C47.361 66.2462 46.883 65.2382 46.3945 64.1886C45.0955 61.4034 42.9131 56.7476 44.0355 55.8435C45.8126 54.4197 48.4626 51.6138 51.0399 48.7351C51.7778 47.9661 52.4325 47.2698 52.9417 46.7086C54.3447 45.1705 55.6957 43.5389 57.0155 41.8761C57.1506 42.5205 57.2753 43.1544 57.4001 43.7675H57.4104ZM62.1598 29.9353C60.3411 32.9595 58.3769 35.8486 56.2881 38.5921C55.2177 39.8912 52.2558 43.4662 49.1797 46.9164C46.4361 49.7536 42.0505 54.0352 39.016 55.9786C38.9432 56.0305 38.8809 56.0617 38.8393 56.0929C37.3012 55.1472 31.1178 50.6785 26.9816 47.1035C28.0104 42.0632 30.0577 37.2931 32.4688 33.053C35.4722 28.5115 38.5171 24.2611 38.5691 24.1779C38.6522 24.0636 38.7146 23.9285 38.7561 23.7934C39.2965 23.1075 39.8369 22.4528 40.3566 21.8293C44.5759 16.8305 48.5977 13.0997 52.9002 10.2626C54.0849 14.2324 57.1195 17.6619 60.9646 19.2208C62.8456 19.9794 64.789 20.2912 66.7012 20.5614C65.5165 23.7207 63.9992 26.8592 62.1598 29.9353Z" fill="#A0D5F8"/>
<path d="M51.4136 24.1362C48.4622 22.9722 45.8848 23.9387 44.4611 25.2274C42.341 27.15 41.7175 30.4651 43.0165 32.9385C44.0558 34.9338 46.259 36.1601 48.4414 36.1601C49.0857 36.1601 49.73 36.0562 50.3536 35.8276C51.185 35.5158 51.9956 34.9962 52.8373 34.2272C53.835 33.323 54.4378 32.4501 54.7495 31.4836C55.8615 28.0853 54.6456 25.404 51.4136 24.1258V24.1362ZM52.2762 30.6834C52.1099 31.203 51.7254 31.7226 51.081 32.315C50.4991 32.8554 49.9587 33.2087 49.439 33.3958C47.9841 33.9362 46.0615 33.1568 45.3133 31.733C44.565 30.2988 44.9495 28.2827 46.1966 27.15C46.6123 26.7758 48.1296 25.6327 50.4575 26.5472C52.3905 27.3058 52.9517 28.5841 52.2762 30.6834Z" fill="#9CFCD7"/>
<path d="M24.6957 59.4394C25.8285 58.9718 27.0132 58.5977 28.2499 58.3067C28.9462 58.1404 29.3827 57.4441 29.2164 56.7478C29.0501 56.0515 28.3538 55.6151 27.6575 55.7813C25.4128 56.3113 23.3031 57.1012 21.3702 58.1508C20.9649 58.369 20.705 58.7951 20.6843 59.2628C20.6739 59.7304 20.9129 60.1669 21.3078 60.4059C23.5837 61.7985 25.8493 63.2534 28.0732 64.7603C26.5456 64.6148 24.9867 64.3966 23.459 64.1784C19.6035 63.638 15.6128 63.0664 11.8923 63.7003C11.3831 63.7835 10.9778 64.168 10.8531 64.6668C10.7284 65.1656 10.9154 65.6956 11.3207 66.0074C12.9627 67.2753 14.8333 68.0028 16.6312 68.699C18.242 69.3226 19.7697 69.915 21.0584 70.8503C20.0088 70.975 18.9383 71.0373 17.8471 71.0165H17.3587C15.8206 70.9646 14.0851 70.923 12.7549 71.8791C11.0921 73.0534 10.8739 75.1735 10.718 76.5661C10.6452 77.2831 11.1545 77.9171 11.8715 78.0002C11.9131 78.0002 11.9651 78.0002 12.0066 78.0002C12.6613 78.0002 13.2225 77.5014 13.2953 76.8363C13.4304 75.5996 13.5967 74.446 14.2514 73.9888C14.8853 73.5419 16.1116 73.5731 17.286 73.5939H17.7952C19.406 73.6354 20.996 73.5107 22.5133 73.2509C22.8667 73.1885 23.6877 73.0431 24.1449 72.274C24.6957 71.3387 24.3112 70.154 23.1472 69.1875C21.4533 67.7741 19.4683 67.0051 17.5561 66.2672C17.3691 66.1945 17.182 66.1217 17.0054 66.049C18.9591 66.1529 20.996 66.4439 23.0953 66.7453C25.3816 67.0674 27.7407 67.4 30.0478 67.4831C30.6401 67.5039 32.0535 67.5559 32.8329 66.4959C33.0408 66.2153 33.1239 65.8619 33.0616 65.519C32.9992 65.176 32.8121 64.8746 32.5316 64.6668C29.975 62.8585 27.3562 61.1022 24.7061 59.429L24.6957 59.4394Z" fill="#9CFCD7"/>
</svg>
