<svg width="56" height="56" viewBox="0 0 56 56" fill="none" xmlns="http://www.w3.org/2000/svg">
<path d="M18.9868 50.4002C18.8368 50.4002 18.6797 50.3644 18.544 50.2855C17.4086 49.6334 16.4017 49.0314 15.402 48.4294C14.5522 47.9134 13.7024 47.4046 12.7669 46.8599C10.9031 47.9994 9.36062 48.7447 7.44681 49.6692L6.40422 50.1709C6.11858 50.307 5.78295 50.2855 5.51873 50.1064C5.25451 49.9272 5.10455 49.6262 5.12597 49.3037C5.21166 47.9636 5.54015 46.6808 5.85436 45.4481C6.11858 44.4018 6.37566 43.4128 6.48277 42.4023C4.86175 41.1984 3.9477 40.1377 2.71944 38.7188C2.39095 38.3318 2.03389 37.9233 1.62685 37.4646C1.40548 37.2138 1.34121 36.8626 1.45547 36.5473C1.56973 36.232 1.85537 36.017 2.18386 35.974C3.84772 35.7805 4.84033 35.7017 5.79723 35.6228C6.59703 35.5583 7.36112 35.4938 8.48941 35.372C9.46059 33.0715 10.4675 31.3731 11.76 29.431C11.9385 29.1658 12.2385 29.0081 12.5598 29.0368C12.8812 29.0583 13.1597 29.2518 13.3025 29.5384L13.481 29.9039C14.2665 31.5236 15.2234 33.4944 15.9232 35.4293C18.1441 35.458 22.8715 35.6587 23.3785 36.834C23.707 37.5865 23.1928 38.1454 21.4933 40.0159C20.6363 40.9547 19.5866 42.1085 18.9725 43.0043C19.001 43.2337 19.0867 43.6422 19.1581 44.0148C19.4081 45.312 19.7866 47.2756 19.8651 49.4614C19.8794 49.7839 19.7151 50.092 19.4366 50.2569C19.2938 50.3429 19.1367 50.3859 18.9725 50.3859L18.9868 50.4002ZM12.7526 44.9178C12.9026 44.9178 13.0597 44.9536 13.1954 45.0325C14.3308 45.6775 15.3305 46.2866 16.3303 46.8886C16.873 47.2183 17.4157 47.5479 17.9799 47.8776C17.8371 46.4944 17.5943 45.2618 17.4229 44.366C17.1729 43.0545 17.0944 42.6603 17.3586 42.2519C18.0227 41.1984 19.1796 39.9371 20.2007 38.8191C20.5435 38.4464 20.922 38.0236 21.2291 37.6724C19.9794 37.4503 17.5871 37.2281 15.3163 37.2281C14.9306 37.2281 14.5879 36.9845 14.4665 36.6118C13.9309 34.9922 13.1382 33.2722 12.417 31.7529C11.4958 33.2292 10.7246 34.6768 9.96761 36.5401C9.84621 36.8411 9.56771 37.0561 9.24636 37.092C7.78959 37.264 6.90409 37.3356 5.97576 37.4145C5.41161 37.4575 4.84033 37.5076 4.11908 37.5793C5.39733 39.0556 6.24712 40.0446 7.95383 41.2414C8.21091 41.4205 8.35373 41.7215 8.33231 42.0297C8.24661 43.3698 7.91812 44.6526 7.60392 45.8853C7.43253 46.5446 7.27543 47.1896 7.14689 47.8274C8.96072 46.9531 10.4603 46.2006 12.2956 45.0468C12.4384 44.9536 12.6027 44.9106 12.7669 44.9106L12.7526 44.9178Z" fill="#A0D5F8"/>
<path d="M50.1142 50.4002C49.9642 50.4002 49.8071 50.3644 49.6715 50.2855C48.536 49.6334 47.5291 49.0314 46.5294 48.4294C45.6796 47.9134 44.8298 47.4046 43.8943 46.8599C42.0305 47.9994 40.4881 48.7447 38.5743 49.6692L37.5317 50.1709C37.246 50.307 36.9104 50.2855 36.6462 50.1064C36.382 49.9272 36.232 49.6262 36.2534 49.3037C36.3391 47.9636 36.6676 46.6808 36.9818 45.4481C37.246 44.4018 37.5031 43.4128 37.6102 42.4023C35.9892 41.1984 35.0751 40.1377 33.8469 38.7188C33.5184 38.3318 33.1613 37.9233 32.7543 37.4646C32.5329 37.2138 32.4687 36.8626 32.5829 36.5473C32.6972 36.232 32.9828 36.017 33.3113 35.974C34.9752 35.7805 35.9678 35.7017 36.9247 35.6228C37.7245 35.5583 38.4886 35.4938 39.6168 35.372C40.588 33.0715 41.5949 31.3731 42.8875 29.431C43.066 29.1658 43.3659 29.0081 43.6873 29.0368C44.0086 29.0583 44.2871 29.2518 44.4299 29.5384L44.6084 29.9039C45.394 31.5236 46.3509 33.4944 47.0507 35.4293C49.2716 35.458 53.9989 35.6587 54.506 36.834C54.8344 37.5865 54.3203 38.1454 52.6207 40.0159C51.7638 40.9547 50.7141 42.1085 50.0999 43.0043C50.1285 43.2337 50.2142 43.6422 50.2856 44.0148C50.5355 45.312 50.914 47.2756 50.9926 49.4614C51.0068 49.7839 50.8426 50.092 50.5641 50.2569C50.4213 50.3429 50.2642 50.3859 50.0999 50.3859L50.1142 50.4002ZM43.8801 44.9178C44.03 44.9178 44.1871 44.9536 44.3228 45.0325C45.4582 45.6775 46.458 46.2866 47.4577 46.8886C48.0004 47.2183 48.5432 47.5479 49.1073 47.8776C48.9645 46.4944 48.7217 45.2618 48.5503 44.366C48.3004 43.0545 48.2218 42.6603 48.486 42.2519C49.1502 41.1984 50.307 39.9371 51.3282 38.8191C51.671 38.4464 52.0494 38.0236 52.3565 37.6724C51.1068 37.4503 48.7146 37.2281 46.4437 37.2281C46.0581 37.2281 45.7153 36.9845 45.5939 36.6118C45.0583 34.9922 44.2657 33.2722 43.5444 31.7529C42.6232 33.2292 41.852 34.6768 41.0951 36.5401C40.9737 36.8411 40.6951 37.0561 40.3738 37.092C38.917 37.264 38.0315 37.3356 37.1032 37.4145C36.5391 37.4575 35.9678 37.5076 35.2465 37.5793C36.5248 39.0556 37.3746 40.0446 39.0813 41.2414C39.3383 41.4205 39.4812 41.7215 39.4597 42.0297C39.3741 43.3698 39.0456 44.6526 38.7314 45.8853C38.56 46.5446 38.4029 47.1896 38.2743 47.8274C40.0882 46.9531 41.5878 46.2006 43.423 45.0468C43.5659 44.9536 43.7301 44.9106 43.8943 44.9106L43.8801 44.9178Z" fill="#A0D5F8"/>
<path d="M35.332 26.9654C35.182 26.9654 35.0249 26.9296 34.8892 26.8508C33.7538 26.1986 32.7469 25.5966 31.7472 24.9946C30.8974 24.4786 30.0476 23.9698 29.1121 23.4252C27.2483 24.5646 25.7058 25.31 23.7849 26.2416L22.7494 26.7433C22.4638 26.8794 22.1282 26.8579 21.8639 26.6788C21.5997 26.4996 21.4498 26.1986 21.4712 25.8761C21.5569 24.536 21.8854 23.2532 22.1996 22.0205C22.4638 20.9742 22.7209 19.9852 22.828 18.9748C21.207 17.7708 20.2929 16.7101 19.0647 15.2912C18.7362 14.9042 18.3791 14.4957 17.9721 14.037C17.7507 13.7862 17.6864 13.435 17.8007 13.1197C17.9149 12.8044 18.2006 12.5894 18.5291 12.5464C20.1929 12.3529 21.1855 12.2741 22.1424 12.1952C22.9422 12.1307 23.7063 12.0662 24.8346 11.9372C25.8058 9.63678 26.8127 7.93832 28.1052 5.99619C28.2838 5.73103 28.5765 5.58054 28.905 5.60204C29.2264 5.62354 29.5049 5.81703 29.6477 6.10369L29.8262 6.46918C30.6117 8.08882 31.5686 10.0596 32.2685 11.9946C34.4893 12.0232 39.2167 12.2239 39.7237 13.3992C40.0522 14.1517 39.5381 14.7107 37.8385 16.5811C36.9816 17.52 35.9318 18.6738 35.3177 19.5696C35.3463 19.7989 35.432 20.2074 35.5034 20.5801C35.7533 21.8772 36.1318 23.8408 36.2103 26.0266C36.2246 26.3491 36.0604 26.6573 35.7819 26.8221C35.639 26.9081 35.4819 26.9511 35.3177 26.9511L35.332 26.9654ZM29.0978 21.483C29.2478 21.483 29.4049 21.5189 29.5406 21.5977C30.676 22.2427 31.6758 22.8447 32.6755 23.4538C33.2182 23.7835 33.7609 24.1132 34.3251 24.4428C34.1823 23.0597 33.9395 21.827 33.7681 20.9312C33.5181 19.6197 33.4396 19.2256 33.7038 18.8171C34.3679 17.7636 35.5248 16.5023 36.546 15.3843C36.8887 15.0117 37.2672 14.5889 37.5743 14.2377C36.3246 14.0155 33.9323 13.7934 31.6615 13.7934C31.2759 13.7934 30.9331 13.5497 30.8117 13.177C30.2761 11.5574 29.4906 9.83744 28.7622 8.31814C27.841 9.79445 27.0698 11.2421 26.3128 13.1054C26.1914 13.4064 25.9129 13.6214 25.5916 13.6572C24.1348 13.8292 23.2493 13.9009 22.3138 13.9797C21.7497 14.0227 21.1784 14.0729 20.4572 14.1445C21.7354 15.6208 22.5852 16.6098 24.2919 17.8066C24.549 17.9858 24.6918 18.2868 24.6704 18.5949C24.5847 19.9351 24.2562 21.2179 23.942 22.4505C23.7706 23.1098 23.6135 23.7548 23.485 24.3927C25.2917 23.5183 26.7984 22.7658 28.6337 21.612C28.7765 21.5189 28.9407 21.4759 29.105 21.4759L29.0978 21.483Z" fill="#9CFCD7"/>
</svg>
