<svg width="127" height="28" viewBox="0 0 127 28" fill="none" xmlns="http://www.w3.org/2000/svg">
<path d="M123.692 25.4001L121.692 22.6001C117.692 25.5001 112.092 25.1001 108.492 21.5001C104.492 17.5001 104.492 11.0001 108.492 7.0001C110.392 5.1001 112.892 4.0001 115.792 4.0001H117.492V0.600098H115.692C111.892 0.600098 108.492 2.1001 105.992 4.6001C100.692 9.9001 100.692 18.6001 105.992 23.9001C110.892 28.7001 118.392 29.2001 123.692 25.4001Z" fill="white"/>
<path d="M69.7916 4.40003C71.2916 3.70003 72.9916 4.10003 73.9916 5.40003L76.6916 3.30003C74.7916 0.800026 71.2916 -0.0999739 68.2916 1.30003C67.2916 1.80003 66.4916 2.50003 65.8916 3.30003L68.5916 5.40003C68.8916 4.90003 69.2916 4.60003 69.7916 4.40003Z" fill="white"/>
<path d="M88.3914 0.5H84.9915V16H88.3914V0.5Z" fill="white"/>
<path d="M125.892 12.5H117.392V16H122.492V21.1H125.892V12.5Z" fill="white"/>
<path d="M79.8915 19.3999C79.8915 17.5999 79.2915 15.6999 78.2915 14.2999C77.2915 12.8999 75.5915 11.3999 71.5915 10.9999C69.4915 10.8999 68.6915 9.7999 68.2915 9.0999C67.8915 8.3999 67.8915 7.5999 67.8915 7.3999H64.4915C64.4915 7.5999 64.4915 9.1999 65.1915 10.5999C66.2915 12.7999 68.3915 13.9999 71.2915 14.1999C76.4915 14.4999 76.3915 19.0999 76.3915 19.2999C76.3915 22.0999 74.0915 24.3999 71.2915 24.3999C68.4915 24.3999 66.1915 22.0999 66.1915 19.2999H62.7915C62.7915 23.9999 66.5915 27.7999 71.2915 27.7999C75.9915 27.8999 79.8915 24.0999 79.8915 19.3999Z" fill="white"/>
<path d="M84.9915 19.3999C84.9915 24.0999 88.9915 27.8999 93.6915 27.8999H100.491V24.5999H93.6915C90.8915 24.5999 88.3914 22.1999 88.3914 19.3999H84.9915Z" fill="white"/>
<path d="M1.19141 19.3999H4.79141C6.59141 19.3999 7.99141 20.5999 7.99141 22.1999C7.99141 23.7999 6.59141 24.9999 4.79141 24.9999H2.49141V27.9999H1.19141V19.3999ZM4.59141 23.7999C5.79141 23.7999 6.69141 23.1999 6.69141 22.1999C6.69141 21.1999 5.89141 20.5999 4.59141 20.5999H2.49141V23.7999H4.59141Z" fill="white"/>
<path d="M15.3915 26.1999H10.8915L10.1915 27.8999H8.7915L12.4915 19.3999H13.8915L17.5915 27.8999H16.1915L15.3915 26.1999ZM14.8915 24.9999L13.1915 20.9999L11.3915 24.9999H14.8915Z" fill="white"/>
<path d="M23.4914 24.7999L25.6914 27.8999H24.2914L22.1914 24.8999H20.1914V27.8999H18.8914V19.3999H22.4914C24.2914 19.3999 25.6914 20.5999 25.6914 22.1999C25.6914 23.4999 24.7914 24.4999 23.4914 24.7999ZM20.1914 23.7999H22.3914C23.5914 23.7999 24.4914 23.1999 24.4914 22.1999C24.4914 21.1999 23.6914 20.5999 22.3914 20.5999H20.1914V23.7999Z" fill="white"/>
<path d="M29.5915 20.5H26.7915V19.3H33.6915V20.5H30.8915V27.9001H29.5915V20.5Z" fill="white"/>
<path d="M38.4915 23.6C38.4915 21.2 40.4915 19.2 42.8915 19.2C45.2915 19.2 47.2915 21.2 47.2915 23.6C47.2915 26 45.2915 28 42.8915 28C40.5915 28 38.4915 26 38.4915 23.6ZM46.0915 23.6C46.0915 21.8 44.6915 20.2999 42.9915 20.2999C41.2915 20.2999 39.8915 21.8 39.8915 23.6C39.8915 25.4 41.2915 26.9 42.9915 26.9C44.6915 26.9 46.0915 25.4 46.0915 23.6Z" fill="white"/>
<path d="M50.2915 20.4999V22.9999H54.7915V24.1999H50.2915V27.8999H48.9915V19.3999H55.2915V20.5999H50.2915V20.4999Z" fill="white"/>
</svg>
