<svg width="56" height="56" viewBox="0 0 56 56" fill="none" xmlns="http://www.w3.org/2000/svg">
<path d="M53.7194 32.0452C53.6336 31.9094 53.6122 31.8593 53.5908 31.7878C53.5908 31.7592 53.5908 31.7306 53.5908 31.702C53.5908 31.5589 53.5765 31.3515 53.4908 31.1155C53.2907 30.5505 52.8478 30.0641 52.2549 29.7423C51.1477 29.1487 50.0904 29.4634 49.2475 29.7137C49.1189 29.7495 48.9975 29.7852 48.876 29.821C48.7046 29.6636 48.4974 29.5492 48.2688 29.4705C47.1402 29.0915 45.69 29.7423 44.0399 30.5648C43.7541 30.7078 43.5041 30.8294 43.3184 30.9152C41.0967 31.8593 38.1893 32.975 35.3819 33.2611C34.5175 33.3469 32.6459 33.4399 30.6386 33.5114C31.8458 32.9893 32.8745 32.41 33.4603 31.8307C34.5818 30.7078 34.9319 29.5778 34.5032 28.4764C33.9532 27.0746 32.3673 26.4882 31.1601 26.6598C30.2671 26.7814 29.4027 27.0174 28.5741 27.2391C28.0169 27.3893 27.4954 27.5323 26.9597 27.6468C25.6524 27.9257 24.2951 28.0759 22.9807 28.2189C21.9592 28.3334 20.9019 28.4478 19.8518 28.6266L19.0518 28.7553C17.3516 29.0271 15.5943 29.3132 13.9584 29.9354C12.944 30.3145 12.3154 31.1512 11.7296 31.9308C11.3653 32.4028 11.051 32.9035 10.7367 33.3827C10.3724 33.9477 10.0295 34.4769 9.63658 34.9561C8.60791 36.2006 7.36494 37.2161 6.04338 38.2889C5.1433 39.0256 4.21464 39.7837 3.35742 40.6205C3.28598 40.692 3.2074 40.7707 3.11453 40.8565C2.39303 41.5359 1.30007 42.5658 1.40722 43.753C1.52152 44.9903 2.63592 45.913 3.37885 46.5209L3.54315 46.6568C5.48619 48.2803 7.06491 49.3817 8.67935 50.2327C10.1009 50.9765 11.5368 51.7061 12.8869 52.3783C13.0798 52.4713 13.2869 52.4999 13.4655 52.4999C13.6012 52.4999 13.7227 52.4856 13.8084 52.4642C13.8727 52.4499 13.937 52.4356 13.9941 52.407C15.1443 51.9063 16.0515 51.1339 16.9444 50.3686C17.6231 49.7893 18.0874 49.5676 18.8803 49.446C19.5375 49.3531 20.2019 49.3173 20.9019 49.2815C21.8306 49.2315 22.795 49.1814 23.7665 48.9811C26.8668 48.3375 29.9171 47.1431 32.6102 46.0917C35.6176 44.9117 38.5965 43.6386 41.1181 42.5444C42.0039 42.1582 42.8969 41.8006 43.7898 41.4358C45.1828 40.8708 46.6258 40.2843 48.0831 39.5834L49.8833 38.5536C50.8477 38.1173 53.4122 36.9587 54.1194 34.9704C54.4194 34.1336 54.348 33.2396 53.9265 32.4028C53.8622 32.267 53.7979 32.1597 53.7336 32.0524L53.7194 32.0452ZM52.4264 34.3696C51.9763 35.6427 49.8404 36.6082 49.1189 36.9301C49.0975 36.9372 49.0618 36.9587 49.0475 36.9658L47.2402 38.0029C45.89 38.6465 44.4756 39.2258 43.1041 39.7765C42.1968 40.1413 41.2896 40.5132 40.3895 40.9066C37.8821 41.9937 34.9176 43.2596 31.9387 44.4325C29.317 45.4624 26.3453 46.6282 23.3879 47.2361C22.545 47.4077 21.6949 47.4506 20.7876 47.5007C20.0804 47.5365 19.3447 47.5722 18.6017 47.6795C17.4802 47.844 16.6873 48.2159 15.7372 49.0312C14.9871 49.6749 14.2799 50.2828 13.4584 50.6833C12.1797 50.0396 10.8153 49.3602 9.47942 48.6522C7.98642 47.8654 6.50057 46.8284 4.65754 45.2907L4.48609 45.1477C4.00747 44.7543 3.2074 44.0892 3.1574 43.5957C3.14311 43.374 3.536 42.8948 4.3075 42.1653C4.40751 42.0723 4.50038 41.9794 4.57896 41.9078C5.37189 41.1283 6.22912 40.4274 7.13634 39.6907C8.4579 38.6108 9.82945 37.4951 10.9724 36.1076C11.4296 35.5497 11.8225 34.949 12.194 34.3696C12.5011 33.8976 12.7869 33.4542 13.1012 33.0394L13.1441 32.9822C13.587 32.3885 14.0084 31.8307 14.5371 31.6304C16.0086 31.0726 17.6802 30.8008 19.2875 30.5433L20.1019 30.4074C21.102 30.243 22.1306 30.1214 23.1307 30.0141C24.488 29.8639 25.8881 29.7066 27.2811 29.4133C27.8669 29.2917 28.4384 29.1344 28.9956 28.9842C29.8099 28.7625 30.5743 28.5551 31.3529 28.4478C31.4101 28.4406 31.4744 28.4335 31.5387 28.4335C32.0387 28.4335 32.6173 28.691 32.7959 29.1487C32.8531 29.2917 33.0174 29.7209 32.153 30.5862C30.8458 31.8951 25.3095 33.6401 23.2522 33.7474C22.9736 33.7617 22.7164 33.9048 22.5593 34.1408C22.4021 34.3768 22.3592 34.6629 22.4521 34.9275C22.5592 35.2565 22.6164 35.421 23.345 35.4854V35.5354C23.4593 35.5354 23.5879 35.5211 23.7165 35.5068C24.5452 35.5354 25.981 35.4854 28.517 35.3995C31.0101 35.3137 34.2461 35.1921 35.5248 35.0634C38.5751 34.7559 41.6468 33.5758 43.9756 32.5888C44.1899 32.4958 44.4756 32.3528 44.7971 32.1954C45.39 31.8951 47.2116 30.9939 47.6474 31.2013C47.7759 31.4445 47.9902 31.6233 48.2403 31.702C48.376 31.7449 48.5331 31.752 48.6832 31.7234C49.0475 31.6662 49.3904 31.5589 49.719 31.4659C50.4833 31.2371 50.9334 31.1226 51.3763 31.3587C51.5763 31.4659 51.7192 31.609 51.762 31.7306C51.762 31.7592 51.762 31.7878 51.762 31.8164C51.762 31.9451 51.7763 32.0667 51.8049 32.2097C51.8906 32.5888 52.0406 32.832 52.1478 33.0108C52.1835 33.068 52.2264 33.1323 52.2692 33.2253C52.4835 33.6473 52.5192 34.0264 52.3835 34.4054L52.4264 34.3696Z" fill="#A0D5F8"/>
<path d="M21.1664 22.4187C25.3954 22.5188 29.8672 22.5689 34.3748 22.5689C40.7683 22.5689 47.226 22.4688 53.1409 22.2757C53.5052 22.2614 53.8409 22.1112 54.091 21.8465C54.641 21.2529 54.6124 20.2731 54.591 19.7439L54.5696 5.54002C54.5696 5.17527 54.5696 4.49582 54.0481 3.98803C53.5338 3.48739 52.8265 3.49455 52.4837 3.5017C47.4546 3.58037 42.0969 3.63043 36.9179 3.6805C31.7317 3.72341 26.374 3.77347 21.3378 3.8593C20.8664 3.86645 20.4735 4.24551 20.4592 4.72469C20.202 11.9124 20.152 16.7901 20.2877 21.5605C20.302 22.0396 20.6806 22.4187 21.1592 22.4259L21.1664 22.4187ZM22.0165 17.8915C23.1094 17.9487 24.0452 18.3492 24.5953 19.0215C24.9739 19.4864 25.1453 20.0514 25.1239 20.7022C24.0952 20.6879 23.0666 20.6665 22.0593 20.645C22.0379 19.7367 22.0236 18.8284 22.0165 17.8843V17.8915ZM52.798 20.4948C51.7979 20.5306 50.7763 20.552 49.7548 20.5806C50.1263 18.3421 50.8335 17.6698 52.8123 17.5554V19.6223V19.8011C52.8265 20.1444 52.8123 20.3589 52.798 20.4948ZM52.5265 5.28969C52.6337 5.28969 52.7265 5.28969 52.7837 5.28969C52.7837 5.34691 52.7908 5.43274 52.7908 5.53286V8.32214C51.8479 8.20771 51.0335 7.82865 50.5335 7.22789C50.112 6.71294 49.9477 6.06926 50.0192 5.3183C50.8549 5.304 51.6979 5.29685 52.5194 5.28255L52.5265 5.28969ZM36.9465 5.46849C40.6754 5.43273 44.4972 5.39698 48.2261 5.35406C48.1547 6.50553 48.4761 7.54258 49.1619 8.37936C49.9906 9.38779 51.305 10.01 52.798 10.1459V15.7745C52.798 15.7745 52.798 15.7745 52.7837 15.7745C49.3262 15.9462 48.3404 17.8414 47.9332 20.6379C41.0969 20.7952 33.8247 20.831 26.9098 20.7451C26.9384 19.6652 26.6241 18.6925 25.9668 17.8986C25.081 16.8187 23.6381 16.175 22.0022 16.1107C22.0022 14.2368 22.0308 12.2486 22.0879 10.0243C22.2522 10.0315 22.4237 10.0386 22.5808 10.0386C25.6097 10.0386 26.7098 8.30783 27.4027 5.72597C27.417 5.6759 27.4027 5.62584 27.4098 5.57577C30.5816 5.54001 33.789 5.51141 36.9393 5.4828L36.9465 5.46849ZM25.5882 5.58293C24.9525 7.77144 24.1667 8.35075 22.1451 8.22201C22.1665 7.39238 22.1951 6.52699 22.2308 5.62584C23.338 5.61153 24.4596 5.59723 25.5882 5.58293Z" fill="#A0D5F8"/>
<path d="M33.0743 14.2297L33.1172 14.3942C33.3243 15.2953 34.0172 16.0892 35.1102 16.6828C35.5745 16.9331 35.996 17.1048 36.4103 17.1977C36.7104 17.2693 37.0175 17.305 37.3247 17.305C38.6177 17.305 39.8892 16.6899 40.6822 15.6386C41.6323 14.3799 41.7823 12.5704 41.0679 11.1472C40.2964 9.61663 38.7534 8.6082 37.2176 8.67972C35.6888 8.73694 34.4316 9.45213 33.6886 10.6894C32.6171 12.4703 32.9029 13.5788 33.0743 14.2368V14.2297ZM35.2174 11.6049C35.6531 10.8825 36.3532 10.4963 37.289 10.4606C37.3104 10.4606 37.3247 10.4606 37.3461 10.4606C38.1534 10.4606 39.0392 11.0756 39.4821 11.9482C39.8964 12.7707 39.8035 13.8435 39.2677 14.5658C38.7248 15.2882 37.6962 15.6672 36.8247 15.4598C36.5675 15.4026 36.2889 15.2882 35.9674 15.1094C35.5245 14.8733 34.9745 14.48 34.8602 13.9936L34.803 13.7791C34.6673 13.2713 34.5316 12.742 35.2174 11.6049Z" fill="#9CFCD7"/>
</svg>
