<svg width="132" height="126" viewBox="0 0 132 126" fill="none" xmlns="http://www.w3.org/2000/svg">
<g clip-path="url(#clip0_1248_13975)">
<mask id="mask0_1248_13975" style="mask-type:alpha" maskUnits="userSpaceOnUse" x="0" y="-62" width="208" height="188">
<path d="M204.226 6.60161C218.182 57.5639 184.172 111.772 134.502 122.508C32.5472 137.933 -5.64096 88.3604 1.06886 23.8386C6.61172 -29.4617 54.5559 -63.3939 108.044 -61.9056C154.119 -60.6236 192.036 -37.9157 204.226 6.60161Z" fill="#D9D9D9"/>
</mask>
<g mask="url(#mask0_1248_13975)">
<g opacity="0.7" filter="url(#filter0_f_1248_13975)">
<ellipse cx="18.0469" cy="178.156" rx="111.891" ry="112.057" fill="#FCFDFF"/>
</g>
<path d="M58.9382 58.2905C59.3011 58.6382 59.7903 58.8121 60.2795 58.8121C60.3111 58.8121 60.3427 58.8121 60.3742 58.8121C63.8462 58.6382 67.76 58.5592 70.9163 58.4802C75.03 58.3959 77.3077 58.1219 77.7496 57.6583C79.0753 56.2675 77.9548 44.2557 77.939 44.1293C77.8759 43.7341 77.7181 42.7858 76.787 42.3117C76.2031 41.9956 75.6665 41.9956 75.3666 41.9956H75.3509H75.3193C72.8258 42.0272 67.1129 42.3433 63.7041 42.533C62.2838 42.612 61.2264 42.6752 60.8793 42.691C60.5636 42.7068 59.743 42.7542 59.1433 43.418C58.8277 43.7341 58.4489 44.3031 58.4489 45.1092C58.2595 49.0288 58.2122 52.9801 58.3069 56.8839C58.3069 57.4212 58.5436 57.927 58.9382 58.2905ZM62.3312 46.579C62.773 46.5474 63.3096 46.5316 63.9093 46.4842C66.8289 46.3262 71.4213 46.0575 74.1673 45.9784C74.3251 48.1279 74.4198 52.1898 74.4198 54.4499C73.4413 54.4815 72.1157 54.5131 70.8216 54.5448C68.2492 54.608 65.156 54.6712 62.2049 54.7818C62.1733 52.0792 62.2049 49.3449 62.3154 46.579H62.3312Z" fill="#A0D5F8"/>
<path d="M39.1334 50.0551C39.307 50.0551 39.4964 50.0235 39.6858 49.9761C43.3313 48.9171 47.0872 48.4904 50.859 48.7274C51.9795 48.7907 52.8791 47.953 52.9422 46.8783C53.0053 45.7877 52.1689 44.8552 51.0958 44.792C46.8821 44.5391 42.6843 45.0133 38.6126 46.1987C37.5711 46.499 36.9556 47.5895 37.2554 48.6484C37.5079 49.5177 38.297 50.0709 39.1492 50.0709L39.1334 50.0551Z" fill="#9CFCD7"/>
<path d="M39.3536 58.2756C39.4483 58.2756 39.5272 58.2755 39.6219 58.2597C41.1211 58.0543 43.1885 57.9911 45.1927 57.9278C47.3232 57.8646 49.5169 57.7856 51.2371 57.5485C52.3102 57.4063 53.0677 56.4106 52.9256 55.32C52.7836 54.2453 51.7894 53.4708 50.7005 53.6289C49.1855 53.8344 47.0865 53.8976 45.0507 53.9766C42.9518 54.0398 40.7897 54.1188 39.1011 54.3401C38.028 54.4824 37.2547 55.4781 37.3967 56.5528C37.523 57.5485 38.3752 58.2756 39.3536 58.2756Z" fill="#9CFCD7"/>
<path d="M74.8456 67.8522C62.9779 67.6625 50.9998 68.2315 39.2426 69.5749C38.1537 69.7014 37.3804 70.6813 37.5067 71.756C37.6171 72.7675 38.4693 73.5104 39.4635 73.5104C39.5425 73.5104 39.6214 73.5104 39.6845 73.5104C51.2681 72.1827 63.0884 71.6296 74.7667 71.8192C75.8556 71.8034 76.7551 70.9658 76.7709 69.8752C76.7867 68.7847 75.9187 67.8838 74.8298 67.868L74.8456 67.8522Z" fill="#A0D5F8"/>
<path d="M96.0402 65.9415C96.0402 65.9415 96.0402 65.9099 96.0402 65.8941C95.9929 65.6729 95.914 65.4674 95.8035 65.2777C95.7877 65.2461 95.772 65.2145 95.7404 65.1829C95.5984 64.9775 95.4247 64.7878 95.2196 64.6297C93.9886 63.7447 92.4578 62.7806 90.9586 61.8323L86.5714 58.94C86.6503 51.4168 86.5713 43.6249 86.1452 35.8647C86.0821 34.8374 85.2457 34.0313 84.2199 33.9997C66.9077 33.5572 49.2798 33.8258 31.8255 34.7741C31.2731 34.8058 30.7523 35.0745 30.4052 35.5012C30.058 35.9279 29.9002 36.4969 29.9791 37.0343C30.3736 39.7211 30.3105 48.3822 30.1842 58.1813L25.8917 61.2159C25.4814 61.4846 25.0553 61.7532 24.6449 62.0219C24.6134 62.0377 24.5818 62.0693 24.5503 62.0851C23.3351 62.8912 22.1357 63.7131 21.1257 64.5981C21.0783 64.6298 21.0625 64.6771 21.031 64.7246C20.9205 64.8352 20.8258 64.9616 20.7469 65.1039C20.7154 65.1671 20.668 65.2303 20.6364 65.2935C20.5575 65.4832 20.4944 65.6729 20.4629 65.8783C18.5849 82.6 18.5691 102.973 20.4313 116.565C20.7627 119.015 22.8616 121.638 26.2073 121.923C26.2704 121.923 26.3178 121.923 26.3809 121.923C36.197 122.824 46.6285 123.282 58.3067 123.282C64.6667 123.282 71.3896 123.156 78.5859 122.887C79.0594 122.871 79.6275 122.855 80.2272 122.855C83.8412 122.792 87.1237 122.65 89.4909 121.812C92.6788 121.085 95.6772 120.089 96.1033 116.707C97.9024 102.562 97.8866 82.2049 96.0717 66.0364C96.0717 66.0048 96.056 65.9732 96.0402 65.9415ZM86.5082 63.6656C87.2341 64.1398 87.9917 64.6297 88.7492 65.1039L88.8281 65.1513L90.9744 66.5579L88.8754 68.5968C88.0074 69.4345 87.171 70.2563 86.3504 71.0624C86.4135 68.6442 86.4608 66.1628 86.5082 63.6656ZM82.2946 37.9035C82.9258 50.6898 82.5944 63.5866 82.2946 75.0452C80.606 76.7047 78.9489 78.3643 77.2761 80.0554C76.992 79.8815 76.6764 79.7709 76.3134 79.7709C64.4931 79.7551 52.3414 79.9448 40.1897 80.3399C40.0319 80.3399 39.9056 80.4031 39.7635 80.4347C37.8066 78.4433 35.8971 76.5309 33.9244 74.6027C33.956 70.4618 34.0191 66.2418 34.0665 62.18C34.2085 52.1122 34.319 43.1824 34.0665 38.5832C50.132 37.7613 66.3395 37.5242 82.2788 37.8877L82.2946 37.9035ZM69.0697 88.6059C66.5605 86.3616 63.1201 84.1963 57.5493 84.6072C53.7933 84.8917 50.4003 86.1877 47.244 88.2424C45.9183 86.8199 44.6558 85.4923 43.4091 84.1963C53.6039 83.896 63.7513 83.7221 73.6937 83.7221C72.2102 85.271 70.6636 86.8831 69.0697 88.5901V88.6059ZM28.0853 64.4875C28.4956 64.2188 28.9217 63.9501 29.332 63.6814C29.3636 63.6656 29.3952 63.634 29.4267 63.6182C29.6477 63.476 29.8844 63.3179 30.1053 63.1599C30.0737 65.6729 30.0422 68.2175 30.0106 70.7779C29.2531 70.035 28.4798 69.2764 27.6749 68.5019L25.4498 66.3367L28.0695 64.4875H28.0853ZM23.9505 70.3669L24.9448 71.331C31.7624 78.0007 37.2227 83.327 44.0719 90.6447C37.1281 96.6348 31.3047 106.466 25.3709 117.592C24.6607 117.118 24.3609 116.359 24.3135 116.028C22.6407 103.794 22.5302 85.9348 23.9505 70.3669ZM80.1483 118.904C79.5012 118.904 78.9173 118.92 78.4281 118.951C59.3957 119.647 43.7563 119.426 29.5056 118.256C39.5899 99.5903 47.3071 89.3487 57.8491 88.5585C63.1517 88.1633 65.7241 90.7554 68.2017 93.2525L85.0563 110.211C90.1222 115.332 89.4593 117.15 89.2857 117.466C89.1753 117.671 88.907 117.829 88.5598 117.987C88.1968 118.066 87.8023 118.161 87.3919 118.24C87.2341 118.272 87.1079 118.351 86.9816 118.414C84.7406 118.825 81.5371 118.888 80.1799 118.904H80.1483ZM92.4894 113.515C91.2269 110.843 88.907 108.489 87.8339 107.414L71.8946 91.3717C78.9331 83.8486 84.5513 78.3484 91.6214 71.4417L92.5525 70.5408C93.815 84.623 93.7993 101.06 92.4894 113.515Z" fill="#A0D5F8"/>
<path d="M13.5354 36.5115V36.4798L4.28747 33.8878V33.9194C3.35637 33.6666 2.36212 34.0775 1.9518 34.9784C1.50992 35.9741 1.95181 37.1436 2.94604 37.5862C6.07077 38.9928 9.38489 39.9253 12.7779 40.3363C12.8568 40.3363 12.9357 40.3363 13.0146 40.3363C13.9931 40.3363 14.8452 39.6092 14.9715 38.5977C15.0977 37.6178 14.4507 36.7485 13.5354 36.4956V36.5115Z" fill="#A0D5F8"/>
<path d="M6.26009 21.0855C5.29742 20.5797 4.09802 20.9274 3.59302 21.8915C3.10379 22.8082 3.41941 23.8988 4.27161 24.4519L15.6816 31.8645C16.013 32.0541 16.376 32.1806 16.7389 32.1806C17.3229 32.1806 17.9068 31.9119 18.3013 31.4219C18.9642 30.5527 18.8063 29.3199 17.9541 28.6561C14.3086 25.827 10.379 23.2824 6.26009 21.0855Z" fill="#A0D5F8"/>
<path d="M16.6129 17.8302L19.3273 23.6622H19.343C19.6744 24.3577 20.3531 24.8002 21.1106 24.8002C21.3 24.8002 21.5051 24.7686 21.6945 24.7054C22.7361 24.3893 23.32 23.2829 23.0043 22.2398C22.31 20.0113 21.3315 17.8934 20.069 15.9336C19.4851 15.0169 18.2541 14.7482 17.3388 15.3488C16.5024 15.8862 16.2499 16.9451 16.6444 17.8302H16.6129Z" fill="#A0D5F8"/>
<path d="M105.668 25.6063L110.308 21.3705H110.292C111.034 20.6751 111.176 19.5372 110.56 18.7153C109.897 17.846 108.666 17.6722 107.798 18.336C106.031 19.6636 104.39 21.1809 102.89 22.8246C102.164 23.6306 102.212 24.8792 103.017 25.6221C103.395 25.9698 103.869 26.1436 104.342 26.1436C104.816 26.1436 105.273 25.9382 105.652 25.6063H105.668Z" fill="#A0D5F8"/>
<path d="M117.771 32.4345C113.92 31.6601 110.022 31.4862 106.156 31.8972C105.067 32.0236 104.294 32.9877 104.404 34.0782C104.515 35.0581 105.335 35.7536 106.266 35.801V35.8326L117.282 36.3384C117.282 36.3384 117.345 36.3384 117.376 36.3384C118.292 36.3384 119.112 35.6904 119.302 34.7579C119.523 33.6831 118.828 32.64 117.755 32.4345H117.771Z" fill="#A0D5F8"/>
</g>
</g>
<defs>
<filter id="filter0_f_1248_13975" x="-161.844" y="-1.90161" width="359.781" height="360.115" filterUnits="userSpaceOnUse" color-interpolation-filters="sRGB">
<feFlood flood-opacity="0" result="BackgroundImageFix"/>
<feBlend mode="normal" in="SourceGraphic" in2="BackgroundImageFix" result="shape"/>
<feGaussianBlur stdDeviation="34" result="effect1_foregroundBlur_1248_13975"/>
</filter>
<clipPath id="clip0_1248_13975">
<rect width="132" height="126" fill="white"/>
</clipPath>
</defs>
</svg>
