<svg width="243" height="28" viewBox="0 0 243 28" fill="none" xmlns="http://www.w3.org/2000/svg">
<g clip-path="url(#clip0_128_330)">
<path d="M80.1472 4.00155C81.3736 4.00155 82.4155 4.17984 83.2759 4.53643C84.1364 4.89302 84.8356 5.36434 85.3751 5.95039C85.9147 6.53643 86.3085 7.20465 86.555 7.95349C86.8031 8.70388 86.9255 9.48217 86.9255 10.2868C86.9255 11.0915 86.8031 11.8465 86.555 12.6062C86.3085 13.3659 85.9147 14.0388 85.3751 14.6233C84.8356 15.2093 84.1364 15.6806 83.2759 16.0372C82.4155 16.3938 81.372 16.5721 80.1472 16.5721H75.6185V23.5984H71.3085V4H80.1472V4.00155ZM78.9674 13.2248C79.462 13.2248 79.9364 13.1876 80.3953 13.1147C80.8527 13.0419 81.2558 12.8992 81.6031 12.6899C81.9503 12.4806 82.2294 12.1814 82.4403 11.7984C82.6511 11.414 82.7565 10.9101 82.7565 10.2884C82.7565 9.66667 82.6511 9.16279 82.4403 8.77829C82.2294 8.3938 81.9503 8.09767 81.6031 7.88682C81.2558 7.67597 80.8527 7.53488 80.3953 7.46202C79.9379 7.38915 79.462 7.35194 78.9674 7.35194H75.6185V13.2264H78.9674V13.2248Z" fill="#0A436A"/>
<path d="M92.2683 10.3101V12.7814H92.3194C92.4915 12.369 92.7225 11.9876 93.0156 11.6357C93.307 11.2837 93.6419 10.983 94.0202 10.7349C94.397 10.4868 94.8016 10.293 95.2311 10.1551C95.6605 10.0186 96.107 9.94885 96.5706 9.94885C96.8109 9.94885 97.0776 9.99226 97.3691 10.0775V13.4775C97.197 13.4434 96.9908 13.4124 96.7504 13.3876C96.5101 13.3613 96.2776 13.3489 96.0543 13.3489C95.3846 13.3489 94.8187 13.4605 94.3551 13.6837C93.8915 13.907 93.5179 14.2109 93.2357 14.5985C92.952 14.9845 92.7505 15.4357 92.6311 15.9504C92.5117 16.4651 92.4512 17.0233 92.4512 17.6248V23.6248H88.7954V10.3132H92.2714L92.2683 10.3101Z" fill="#0A436A"/>
<path d="M98.8853 14.0822C99.2109 13.2155 99.6745 12.4775 100.276 11.8682C100.878 11.2589 101.597 10.786 102.439 10.4527C103.281 10.1178 104.225 9.95038 105.271 9.95038C106.318 9.95038 107.267 10.1178 108.116 10.4527C108.966 10.7876 109.692 11.2605 110.292 11.8682C110.893 12.4775 111.357 13.217 111.682 14.0822C112.008 14.9488 112.113 15.9147 112.113 16.9783C112.113 18.0419 112.009 19.0046 111.682 19.862C111.357 20.7209 110.893 21.4543 110.292 22.0636C109.692 22.6729 108.966 23.1411 108.116 23.4667C107.267 23.7922 106.318 23.955 105.271 23.955C104.225 23.955 103.281 23.7922 102.439 23.4667C101.597 23.1411 100.878 22.6729 100.276 22.0636C99.6745 21.4543 99.2109 20.7209 98.8853 19.862C98.5582 19.0046 98.3954 18.0434 98.3954 16.9783C98.3954 15.9132 98.5582 14.9488 98.8853 14.0822ZM102.206 18.5364C102.309 19.0434 102.485 19.4977 102.735 19.9008C102.983 20.3039 103.315 20.6263 103.726 20.8667C104.138 21.107 104.653 21.2279 105.271 21.2279C105.89 21.2279 106.409 21.1085 106.829 20.8667C107.25 20.6263 107.585 20.3054 107.834 19.9008C108.082 19.4977 108.259 19.0434 108.361 18.5364C108.464 18.0294 108.516 17.5116 108.516 16.9783C108.516 16.445 108.465 15.9225 108.361 15.4077C108.259 14.893 108.082 14.4387 107.834 14.0434C107.585 13.6496 107.251 13.3271 106.829 13.0775C106.409 12.8295 105.89 12.7039 105.271 12.7039C104.653 12.7039 104.138 12.8295 103.726 13.0775C103.313 13.3271 102.983 13.6496 102.735 14.0434C102.485 14.4387 102.31 14.893 102.206 15.4077C102.104 15.9225 102.051 16.4465 102.051 16.9783C102.051 17.5101 102.102 18.0294 102.206 18.5364Z" fill="#0A436A"/>
<path d="M8.85581 10.2217H6.05737V7.26044C6.05737 6.71781 5.75814 6.41858 5.2155 6.41858H3.25892C2.71628 6.41858 2.44496 6.71781 2.44496 7.26044V10.2217H0.815505C0.27287 10.2217 0 10.5194 0 11.0635V12.3674C0 12.9101 0.271319 13.1814 0.815505 13.1814H2.44496V19.4573C2.44496 22.662 3.6124 23.586 6.24806 23.586C7.28062 23.586 8.12248 23.4775 8.74729 23.3426C9.23721 23.2341 9.45426 22.8806 9.42636 22.3907L9.31783 20.9783C9.28992 20.4356 8.96434 20.217 8.47597 20.3256C8.15039 20.4077 7.7969 20.4341 7.38915 20.4341C6.46512 20.4341 6.05737 20.0806 6.05737 18.9938V13.1814H8.85581C9.39845 13.1814 9.69767 12.9101 9.69767 12.3674V11.0635C9.69767 10.5209 9.39845 10.2217 8.85581 10.2217Z" fill="#1AB258"/>
<path d="M19.7411 10.0031C19.5504 9.97521 19.3333 9.94885 19.062 9.94885C17.7302 9.94885 16.6713 10.7907 15.9379 12.1489C15.448 10.7907 14.4449 9.97521 13.1395 9.97521C12.6511 9.97521 12.2697 10.0031 11.9721 10.0837C11.4837 10.1923 11.2666 10.5178 11.2387 11.0062V12.2279C11.2108 12.7706 11.4558 13.0434 11.8914 13.0698C12.217 13.0977 12.4883 13.124 12.7069 13.2047V22.4124C12.7069 22.9566 12.9783 23.2543 13.5209 23.2543H15.4775C16.0201 23.2543 16.3193 22.9566 16.3193 22.4124V17.0899C16.3193 14.6186 17.6232 13.369 19.0077 13.369H19.3612C19.9318 13.3969 20.231 13.2326 20.2573 12.662L20.3659 10.8961C20.3922 10.4078 20.2031 10.0543 19.7411 10" fill="#1AB258"/>
<path d="M34.0403 20.5163C33.7953 20.4884 33.5783 20.462 33.3612 20.4077V15.0837C33.3612 11.6341 31.3519 9.95038 27.3581 9.95038C23.8542 9.95038 22.4139 11.2 21.7891 12.938C21.6263 13.4806 21.8697 13.8341 22.4418 13.9426L24.1519 14.2418C24.6682 14.3225 24.8852 14.0791 25.1566 13.6992C25.51 13.0465 26.1612 12.693 27.3302 12.693C28.9597 12.693 29.8573 13.4543 29.8573 15.0558V15.7349C29.0697 15.5721 28.1457 15.4636 27.0589 15.4636C23.0387 15.4636 21.1643 17.1209 21.1643 19.5922C21.1643 22.0636 22.8217 23.5845 25.6728 23.5845C27.71 23.5845 29.1504 22.9612 30.155 21.8744C30.5628 22.907 31.4589 23.5039 33.0077 23.5039C33.4961 23.5039 33.9038 23.4775 34.2031 23.4496C34.6914 23.3674 34.9364 23.0682 34.9628 22.5519V21.3845C34.9907 20.8419 34.6635 20.5969 34.0387 20.5163M29.8558 17.9891C29.8558 19.9178 28.3348 21.0046 26.6232 21.0046C25.3736 21.0046 24.6403 20.5426 24.6403 19.4031C24.6403 18.2636 25.4558 17.5829 27.3566 17.5829C28.2263 17.5829 29.0945 17.6651 29.8558 17.8V17.9907V17.9891Z" fill="#1AB258"/>
<path d="M67.3768 4.06204L64.6063 4.04498C64.0357 4.04498 63.7644 4.34421 63.7644 4.88684V20.5334C63.7644 22.9783 64.9597 23.5752 67.0512 23.5752C67.1721 23.5752 67.2838 23.5737 67.3954 23.5706L67.3784 4.06049L67.3768 4.06204Z" fill="#1AB258"/>
<path d="M55.6449 10.0217C51.7612 10.0217 49.262 12.7644 49.262 16.6496C49.262 20.9675 51.5705 23.6574 56.1891 23.6574C58.3348 23.6574 60.0728 23.0341 61.0232 22.5163C61.403 22.2992 61.4852 21.9194 61.3488 21.5117L60.9147 20.1799C60.724 19.6915 60.3984 19.583 59.91 19.8279C59.1224 20.2357 57.8992 20.6698 56.4604 20.6698C54.2604 20.6698 53.0651 19.6636 52.7938 17.6822H61.0511C61.541 17.6822 61.8124 17.383 61.8124 16.8946V16.4605C61.8124 12.7938 59.7472 10.0233 55.6465 10.0233M52.8217 15.5644C53.1209 13.6093 54.2341 12.8481 55.6465 12.8481C57.0589 12.8481 58.0372 13.6357 58.172 15.5644H52.8217Z" fill="#1AB258"/>
<path d="M47.2171 14.5396V18.8496L40.7969 15.7752L37.1039 14.0062V9.94885L47.2171 14.5396Z" fill="#1AB258"/>
<path d="M47.2171 18.845V14.5349L37.1039 19.3783V23.4357L47.2171 18.845Z" fill="#0A436A"/>
</g>
<line x1="136.748" y1="2.18557e-08" x2="136.748" y2="28" stroke="#C5E5FB"/>
<g clip-path="url(#clip1_128_330)">
<path d="M186.714 17.4944V15.1592H188.254V0H160.248V10.7632L161.379 9.5368L161.088 13.5912H160.248V28H188.248V19.8072C188.203 19.8296 186.753 19.8408 186.708 19.8632V17.4944H186.714Z" fill="#006FCF"/>
<path d="M188.259 19.8016V15.1592H171.09L170.642 15.7976L170.188 15.1592H165.204V20.0816H170.166L170.608 19.432L171.067 20.0816H174.181V18.9952H174.086C174.494 18.9952 174.875 18.9168 175.2 18.788V20.076H177.451V19.4768L177.905 20.076H187.178C187.582 20.076 187.946 19.9752 188.248 19.796L188.259 19.8016ZM184.81 13.5912H186.938V8.66881H184.63V9.35761L184.194 8.66881H182.183V9.55921L181.791 8.66881H178.56C178.42 8.66881 178.28 8.68001 178.14 8.69681C178.006 8.71361 177.871 8.74161 177.742 8.78081C177.647 8.80881 177.552 8.84241 177.457 8.88161C177.356 8.92641 177.266 8.97121 177.177 9.02721V8.66321H166.626L166.341 9.48641L166.055 8.66321H163.541V9.55361L163.149 8.66321H161.15L160.248 10.7744V13.5856H161.659L161.934 12.8744H162.415L162.69 13.5856H173.699V12.9864L174.153 13.5856H177.182V13.2496C177.266 13.3 177.35 13.3448 177.44 13.3784C177.53 13.4176 177.619 13.4456 177.709 13.4736C177.832 13.5128 177.961 13.5352 178.084 13.552C178.23 13.5744 178.375 13.58 178.51 13.58H180.302L180.576 12.8688H181.058L181.332 13.58H184.418V12.9696L184.815 13.58L184.81 13.5912Z" fill="white"/>
<path d="M168.659 16.6432V15.9712H166.055V19.2696H168.659V18.5976H166.811V17.9368H168.614V17.2816H166.811V16.6376H168.659V16.6432ZM171.448 19.2752H172.394L171.073 17.612L172.383 15.9768H171.465L170.636 17.052L169.807 15.9768H168.861L170.182 17.6288L168.866 19.2808H169.785L170.614 18.1944L171.448 19.2808V19.2752ZM172.607 15.9768V19.2752H173.363V18.172H174.366C175.082 18.172 175.525 17.7072 175.525 17.0744C175.525 16.4416 175.094 15.9768 174.394 15.9768H172.607ZM174.769 17.08C174.769 17.3152 174.618 17.5056 174.332 17.5056H173.363V16.6488H174.332C174.618 16.6488 174.769 16.8448 174.769 17.08ZM176.774 18.0768H177.154L178.168 19.2808H179.114L178.022 18.0488C178.582 17.9424 178.913 17.5504 178.913 17.0352C178.913 16.408 178.482 15.9768 177.782 15.9768H176.018V19.2752H176.774V18.0712V18.0768ZM177.714 16.6488C178 16.6488 178.151 16.8224 178.151 17.0408C178.151 17.2592 178 17.4328 177.714 17.4328H176.774V16.6488H177.714ZM181.982 16.6488V15.9768H179.378V19.2752H181.982V18.6032H180.134V17.9424H181.937V17.2872H180.134V16.6432H181.982V16.6488ZM184.154 18.6088H182.474V19.2808H184.115C184.826 19.2808 185.252 18.8496 185.252 18.2448C185.252 17.64 184.86 17.2984 184.227 17.2984H183.477C183.281 17.2984 183.135 17.1696 183.135 16.9736C183.135 16.7776 183.275 16.6544 183.477 16.6544H184.894L185.19 15.9824H183.522C182.81 15.9824 182.385 16.4136 182.385 17.0072C182.385 17.6008 182.788 17.9648 183.41 17.9648H184.16C184.356 17.9648 184.502 18.0936 184.502 18.2952C184.502 18.4968 184.362 18.6144 184.16 18.6144L184.154 18.6088ZM187.223 18.6088H185.543V19.2808H187.184C187.895 19.2808 188.321 18.8496 188.321 18.2448C188.321 17.64 187.929 17.2984 187.296 17.2984H186.546C186.35 17.2984 186.204 17.1696 186.204 16.9736C186.204 16.7776 186.344 16.6544 186.546 16.6544H187.962L188.259 15.9824H186.59C185.879 15.9824 185.454 16.4136 185.454 17.0072C185.454 17.6008 185.857 17.9648 186.478 17.9648H187.229C187.425 17.9648 187.57 18.0936 187.57 18.2952C187.57 18.4968 187.43 18.6144 187.229 18.6144L187.223 18.6088Z" fill="#006FCF"/>
<path d="M163.261 12.7792H164.095L162.684 9.48082H161.682L160.265 12.7792H161.082L161.368 12.068H162.981L163.261 12.7792ZM161.917 10.6792L162.169 9.98482L162.421 10.6792L162.723 11.4408H161.614L161.917 10.6792ZM166.01 12.7792H166.666L167.618 10.108V12.7792H168.362V9.48082H167.119L166.346 11.7096L165.574 9.48082H164.319V12.7792H165.064V10.108L166.01 12.7792ZM171.655 10.1472V9.47522H169.051V12.7736H171.655V12.1016H169.807V11.4408H171.61V10.7856H169.807V10.1416H171.655V10.1472ZM173.01 11.5752H173.391L174.405 12.7792H175.351L174.259 11.5472C174.819 11.4408 175.15 11.0488 175.15 10.5336C175.15 9.90642 174.718 9.47522 174.018 9.47522H172.254V12.7736H173.01V11.5696V11.5752ZM173.951 10.1472C174.237 10.1472 174.388 10.3208 174.388 10.5392C174.388 10.7576 174.237 10.9312 173.951 10.9312H173.01V10.1472H173.951ZM175.614 12.7792H176.37V9.48082H175.614V12.7792ZM178.42 12.7792H178.448L178.762 12.1072H178.543C177.989 12.1072 177.664 11.76 177.664 11.1608V11.1048C177.664 10.5728 177.961 10.1696 178.538 10.1696H179.372V9.48082H178.476C177.474 9.48082 176.914 10.164 176.914 11.0992V11.1664C176.914 12.124 177.474 12.7736 178.426 12.7848L178.42 12.7792ZM181.903 12.7792H182.738L181.326 9.48082H180.324L178.907 12.7792H179.725L180.005 12.068H181.618L181.898 12.7792H181.903ZM180.559 10.6792L180.811 9.98482L181.063 10.6792L181.366 11.4408H180.257L180.559 10.6792ZM183.858 10.7632L185.151 12.7792H186.086V9.48082H185.336V11.6592L185.134 11.34L183.936 9.48082H182.962V12.7792H183.712V10.528L183.863 10.7632H183.858Z" fill="#006FCF"/>
<path d="M198.462 8.64079C199.498 8.64079 200.103 7.97439 200.254 7.56559H200.271V8.51199H201.486V5.07359H198.854V6.19359H200.053C199.913 6.95519 199.392 7.42559 198.642 7.42559C197.891 7.42559 196.984 6.94399 196.984 5.02319C196.984 3.10239 198.02 2.77199 198.58 2.77199C199.258 2.77199 199.694 3.14159 199.98 4.09919L201.363 3.71839C200.926 2.03839 199.89 1.52319 198.591 1.52319C196.665 1.52319 195.466 2.90639 195.466 5.05679C195.466 7.20719 196.396 8.64639 198.468 8.64639L198.462 8.64079Z" fill="#08436A"/>
<path d="M207.282 8.51196V7.28556H204.258V1.64636H202.746V8.51196H207.282Z" fill="#08436A"/>
<path d="M210.536 8.64078C212.188 8.64078 213.762 7.49278 213.762 5.07918C213.762 2.66558 212.188 1.51758 210.536 1.51758C208.884 1.51758 207.299 2.66558 207.299 5.07918C207.299 7.49278 208.873 8.64078 210.536 8.64078ZM210.536 7.42558C209.472 7.42558 208.811 6.51838 208.811 5.07918C208.811 3.63998 209.472 2.77198 210.536 2.77198C211.6 2.77198 212.261 3.64558 212.261 5.07918C212.261 6.51278 211.594 7.42558 210.536 7.42558Z" fill="#08436A"/>
<path d="M217.648 8.51198C218.925 8.51198 220.14 8.00238 220.14 6.61918C220.14 5.52718 219.479 5.09038 218.645 4.93918V4.92238C219.339 4.78238 219.95 4.31758 219.95 3.34878C219.95 1.95998 218.762 1.65198 217.502 1.65198H214.758V8.51198H217.642H217.648ZM216.248 2.81678H217.379C218.186 2.81678 218.51 3.11358 218.51 3.65118C218.51 4.18878 218.146 4.47438 217.362 4.47438H216.248V2.81678ZM216.248 5.54398H217.396C218.23 5.54398 218.667 5.84078 218.667 6.44558C218.667 7.05038 218.298 7.36398 217.463 7.36398H216.248V5.54398Z" fill="#08436A"/>
<path d="M223.556 3.55036H223.573L224.362 5.88556H222.75L223.556 3.55036ZM221.848 8.51196L222.374 6.98316H224.71L225.219 8.51196H226.748L224.318 1.62396H222.878L220.448 8.51196H221.837H221.848Z" fill="#08436A"/>
<path d="M232.04 8.51196V7.28556H229.016V1.64636H227.504V8.51196H232.04Z" fill="#08436A"/>
<path d="M199.011 17.4328C200.294 17.4328 201.503 16.9232 201.503 15.54C201.503 14.448 200.842 14.0112 200.008 13.86V13.8432C200.702 13.7032 201.313 13.2384 201.313 12.2696C201.313 10.8808 200.126 10.5728 198.866 10.5728H196.122V17.4328H199.006H199.011ZM197.611 11.7376H198.742C199.549 11.7376 199.874 12.0344 199.874 12.572C199.874 13.1096 199.51 13.3952 198.726 13.3952H197.611V11.7376ZM197.611 14.4648H198.759C199.594 14.4648 200.03 14.7616 200.03 15.3664C200.03 15.9712 199.661 16.2848 198.826 16.2848H197.611V14.4648Z" fill="#08436A"/>
<path d="M205.216 17.5448C207.126 17.5448 207.977 16.4864 207.977 14.8008V10.5728H206.493V14.7728C206.493 15.7752 206.123 16.324 205.233 16.324C204.342 16.324 203.956 15.7696 203.956 14.7728V10.5728H202.444V14.812C202.444 16.492 203.306 17.5448 205.216 17.5448Z" fill="#08436A"/>
<path d="M211.611 17.5616C213.521 17.5616 214.355 16.576 214.355 15.4728C214.355 14.056 213.073 13.6752 211.869 13.3504C210.967 13.0984 210.458 12.908 210.458 12.3592C210.458 11.9504 210.81 11.6704 211.449 11.6704C212.087 11.6704 212.776 12.0624 213.134 12.6448L214.182 11.8496C213.7 11.116 212.866 10.4384 211.454 10.4384C210.043 10.4384 208.979 11.2056 208.979 12.488C208.979 13.9272 210.256 14.2408 211.482 14.5824C212.384 14.8344 212.871 15.0528 212.871 15.5736C212.871 16.0944 212.373 16.3632 211.673 16.3632C210.883 16.3632 210.2 15.9432 209.819 15.1928L208.677 15.8704C209.186 16.856 210.116 17.556 211.6 17.556L211.611 17.5616Z" fill="#08436A"/>
<path d="M216.937 17.4328V14V10.5672H216.181H215.43V14V17.4328H216.046H216.937Z" fill="#08436A"/>
<path d="M219.714 17.4328V13.0144H219.731L222.727 17.4328H224.122V10.5672H222.727V14.9464H222.71L219.838 10.5672H218.326V17.4328H219.714Z" fill="#08436A"/>
<path d="M230.349 17.4328V16.2064H227.022V14.4984H229.313V13.3056H227.022V11.8328H230.181V10.5672H225.51V17.4328H230.349Z" fill="#08436A"/>
<path d="M233.714 17.5616C235.624 17.5616 236.458 16.576 236.458 15.4728C236.458 14.056 235.182 13.6752 233.972 13.3504C233.07 13.0984 232.561 12.908 232.561 12.3592C232.561 11.9504 232.914 11.6704 233.552 11.6704C234.19 11.6704 234.879 12.0624 235.238 12.6448L236.285 11.8496C235.803 11.116 234.969 10.4384 233.558 10.4384C232.146 10.4384 231.082 11.2056 231.082 12.488C231.082 13.9272 232.365 14.2408 233.586 14.5824C234.487 14.8344 234.974 15.0528 234.974 15.5736C234.974 16.0944 234.476 16.3632 233.776 16.3632C232.986 16.3632 232.303 15.9432 231.922 15.1928L230.78 15.8704C231.29 16.856 232.219 17.556 233.703 17.556L233.714 17.5616Z" fill="#08436A"/>
<path d="M239.947 17.5616C241.857 17.5616 242.691 16.576 242.691 15.4728C242.691 14.056 241.414 13.6752 240.205 13.3504C239.303 13.0984 238.794 12.908 238.794 12.3592C238.794 11.9504 239.146 11.6704 239.785 11.6704C240.423 11.6704 241.112 12.0624 241.47 12.6448L242.518 11.8496C242.036 11.116 241.202 10.4384 239.79 10.4384C238.379 10.4384 237.315 11.2056 237.315 12.488C237.315 13.9272 238.598 14.2408 239.818 14.5824C240.72 14.8344 241.207 15.0528 241.207 15.5736C241.207 16.0944 240.709 16.3632 240.009 16.3632C239.219 16.3632 238.536 15.9432 238.155 15.1928L237.013 15.8704C237.522 16.856 238.452 17.556 239.936 17.556L239.947 17.5616Z" fill="#08436A"/>
<path d="M199.538 26.3536V20.7536H201.587V19.488H195.987V20.7536H198.026V26.3536H199.538Z" fill="#08436A"/>
<path d="M203.889 20.7256H204.919C205.793 20.7256 206.207 20.9776 206.207 21.6552C206.207 22.3328 205.787 22.6016 204.919 22.6016H203.889V20.7312V20.7256ZM203.889 26.3536V23.7664H204.762L206.19 26.3536H207.786L206.258 23.5704C207.176 23.2904 207.686 22.6968 207.686 21.616C207.686 20.0928 206.678 19.4936 204.986 19.4936H202.41V26.3536H203.894H203.889Z" fill="#08436A"/>
<path d="M211.247 21.392H211.264L212.054 23.7272H210.441L211.247 21.392ZM209.539 26.3536L210.066 24.8248H212.401L212.91 26.3536H214.439L212.009 19.4656H210.57L208.139 26.3536H209.528H209.539Z" fill="#08436A"/>
<path d="M217.721 26.3816L220.084 19.488H218.667L217.043 24.3936H217.026L215.458 19.488H213.93L216.293 26.3816H217.721Z" fill="#08436A"/>
<path d="M225.678 26.3536V25.1272H222.346V23.4248H224.637V22.2264H222.346V20.7536H225.51V19.488H220.834V26.3536H225.678Z" fill="#08436A"/>
<path d="M231.407 26.3536V25.1272H228.383V19.488H226.871V26.3536H231.407Z" fill="#08436A"/>
</g>
<defs>
<clipPath id="clip0_128_330">
<rect width="112.248" height="20" fill="white" transform="translate(0 4)"/>
</clipPath>
<clipPath id="clip1_128_330">
<rect width="82.4432" height="28" fill="white" transform="translate(160.248)"/>
</clipPath>
</defs>
</svg>
