<svg width="142" height="48" viewBox="0 0 142 48" fill="none" xmlns="http://www.w3.org/2000/svg">
<g clip-path="url(#clip0_214_6310)">
<path d="M45.5273 29.9904V25.9872H48.1673V0H0.157715V18.4512L2.09691 16.3488L1.59771 23.2992H0.157715V48H48.1577V33.9552C48.0809 33.9936 45.5945 34.0128 45.5177 34.0512V29.9904H45.5273Z" fill="#006FCF"/>
<path d="M48.1769 33.9455V25.9871H18.7433L17.9753 27.0815L17.1977 25.9871H8.65371V34.4255H17.1593L17.9177 33.3119L18.7049 34.4255H24.0425V32.5631H23.8793C24.5801 32.5631 25.2329 32.4287 25.7897 32.2079V34.4159H29.6489V33.3887L30.4265 34.4159H46.3241C47.0153 34.4159 47.6393 34.2431 48.1577 33.9359L48.1769 33.9455ZM42.2633 23.2991H45.9113V14.8607H41.9561V16.0415L41.2073 14.8607H37.7609V16.3871L37.0889 14.8607H31.5497C31.3097 14.8607 31.0697 14.8799 30.8297 14.9087C30.5993 14.9375 30.3689 14.9855 30.1481 15.0527C29.9849 15.1007 29.8217 15.1583 29.6585 15.2255C29.4857 15.3023 29.3321 15.3791 29.1785 15.4751V14.8511H11.0921L10.6025 16.2623L10.1129 14.8511H5.80251V16.3775L5.13051 14.8511H1.70331L0.157715 18.4703V23.2895H2.57691L3.04731 22.0703H3.87291L4.34331 23.2895H23.2169V22.2623L23.9945 23.2895H29.1881V22.7135C29.3321 22.7999 29.4761 22.8767 29.6297 22.9343C29.7833 23.0015 29.9369 23.0495 30.0905 23.0975C30.3017 23.1647 30.5225 23.2031 30.7337 23.2319C30.9833 23.2703 31.2329 23.2799 31.4633 23.2799H34.5353L35.0057 22.0607H35.8313L36.3017 23.2799H41.5913V22.2335L42.2729 23.2799L42.2633 23.2991Z" fill="white"/>
<path d="M14.5768 28.5311V27.3792H10.1128V33.0336H14.5768V31.8816H11.4088V30.7488H14.5V29.6256H11.4088V28.5215H14.5768V28.5311ZM19.3576 33.0432H20.98L18.7144 30.192L20.9608 27.3888H19.3864L17.9656 29.232L16.5448 27.3888H14.9224L17.188 30.2208L14.932 33.0528H16.5064L17.9272 31.1904L19.3576 33.0528V33.0432ZM21.3448 27.3888V33.0432H22.6408V31.152H24.3592C25.588 31.152 26.3464 30.3552 26.3464 29.2704C26.3464 28.1856 25.6072 27.3888 24.4072 27.3888H21.3448ZM25.0504 29.28C25.0504 29.6832 24.7912 30.0096 24.3016 30.0096H22.6408V28.5408H24.3016C24.7912 28.5408 25.0504 28.8768 25.0504 29.28ZM28.4872 30.9888H29.14L30.8776 33.0528H32.5L30.628 30.9408C31.588 30.7584 32.1544 30.0864 32.1544 29.2032C32.1544 28.128 31.4152 27.3888 30.2152 27.3888H27.1912V33.0432H28.4872V30.9792V30.9888ZM30.1 28.5408C30.5896 28.5408 30.8488 28.8384 30.8488 29.2128C30.8488 29.5872 30.5896 29.8848 30.1 29.8848H28.4872V28.5408H30.1ZM37.4152 28.5408V27.3888H32.9512V33.0432H37.4152V31.8912H34.2472V30.7584H37.3384V29.6352H34.2472V28.5311H37.4152V28.5408ZM41.14 31.9008H38.26V33.0528H41.0728C42.292 33.0528 43.0216 32.3136 43.0216 31.2768C43.0216 30.24 42.3496 29.6544 41.2648 29.6544H39.9784C39.6424 29.6544 39.3928 29.4336 39.3928 29.0976C39.3928 28.7616 39.6328 28.5504 39.9784 28.5504H42.4072L42.916 27.3984H40.0552C38.836 27.3984 38.1064 28.1376 38.1064 29.1552C38.1064 30.1728 38.7976 30.7968 39.8632 30.7968H41.1496C41.4856 30.7968 41.7352 31.0175 41.7352 31.3632C41.7352 31.7088 41.4952 31.9104 41.1496 31.9104L41.14 31.9008ZM46.4008 31.9008H43.5208V33.0528H46.3336C47.5528 33.0528 48.2824 32.3136 48.2824 31.2768C48.2824 30.24 47.6104 29.6544 46.5256 29.6544H45.2392C44.9032 29.6544 44.6536 29.4336 44.6536 29.0976C44.6536 28.7616 44.8936 28.5504 45.2392 28.5504H47.668L48.1768 27.3984H45.316C44.0968 27.3984 43.3672 28.1376 43.3672 29.1552C43.3672 30.1728 44.0584 30.7968 45.124 30.7968H46.4104C46.7464 30.7968 46.996 31.0175 46.996 31.3632C46.996 31.7088 46.756 31.9104 46.4104 31.9104L46.4008 31.9008Z" fill="#006FCF"/>
<path d="M5.32252 21.9072H6.75292L4.33372 16.2528H2.61532L0.186523 21.9072H1.58812L2.07772 20.688H4.84252L5.32252 21.9072ZM3.01852 18.3072L3.45052 17.1168L3.88252 18.3072L4.40092 19.6128H2.50012L3.01852 18.3072ZM10.0361 21.9072H11.1593L12.7913 17.328V21.9072H14.0681V16.2528H11.9369L10.6121 20.0736L9.28732 16.2528H7.13692V21.9072H8.41372V17.328L10.0361 21.9072ZM19.7129 17.3952V16.2432H15.2489V21.8976H19.7129V20.7456H16.5449V19.6128H19.6361V18.4896H16.5449V17.3856H19.7129V17.3952ZM22.0361 19.8432H22.6889L24.4265 21.9072H26.0489L24.1769 19.7952C25.1369 19.6128 25.7033 18.9408 25.7033 18.0576C25.7033 16.9824 24.9641 16.2432 23.7641 16.2432H20.7401V21.8976H22.0361V19.8336V19.8432ZM23.6489 17.3952C24.1385 17.3952 24.3977 17.6928 24.3977 18.0672C24.3977 18.4416 24.1385 18.7392 23.6489 18.7392H22.0361V17.3952H23.6489ZM26.5001 21.9072H27.7961V16.2528H26.5001V21.9072ZM31.3097 21.9072H31.3577L31.8953 20.7552H31.5209C30.5705 20.7552 30.0137 20.16 30.0137 19.1328V19.0368C30.0137 18.1248 30.5225 17.4336 31.5113 17.4336H32.9417V16.2528H31.4057C29.6873 16.2528 28.7273 17.424 28.7273 19.0272V19.1424C28.7273 20.784 29.6873 21.8976 31.3193 21.9168L31.3097 21.9072ZM37.2809 21.9072H38.7113L36.2921 16.2528H34.5737L32.1449 21.9072H33.5465L34.0265 20.688H36.7913L37.2713 21.9072H37.2809ZM34.9769 18.3072L35.4089 17.1168L35.8409 18.3072L36.3593 19.6128H34.4585L34.9769 18.3072ZM40.6313 18.4512L42.8489 21.9072H44.4521V16.2528H43.1657V19.9872L42.8201 19.44L40.7657 16.2528H39.0953V21.9072H40.3817V18.048L40.6409 18.4512H40.6313Z" fill="#006FCF"/>
<path d="M65.6682 14.8134C67.4442 14.8134 68.481 13.671 68.7402 12.9702H68.769V14.5926H70.8522V8.69822H66.3402V10.6182H68.3946C68.1546 11.9238 67.2618 12.7302 65.9754 12.7302C64.689 12.7302 63.1338 11.9046 63.1338 8.61181C63.1338 5.31902 64.9098 4.75262 65.8698 4.75262C67.0314 4.75262 67.7802 5.38622 68.2698 7.02782L70.641 6.37502C69.8922 3.49502 68.1162 2.61182 65.889 2.61182C62.5866 2.61182 60.5322 4.98302 60.5322 8.66941C60.5322 12.3558 62.1258 14.823 65.6778 14.823L65.6682 14.8134Z" fill="#08436A"/>
<path d="M80.7882 14.5919V12.4895H75.6042V2.82227H73.0122V14.5919H80.7882Z" fill="#08436A"/>
<path d="M86.3657 14.8128C89.1977 14.8128 91.8953 12.8448 91.8953 8.70716C91.8953 4.56956 89.1977 2.60156 86.3657 2.60156C83.5337 2.60156 80.8169 4.56956 80.8169 8.70716C80.8169 12.8448 83.5145 14.8128 86.3657 14.8128ZM86.3657 12.7296C84.5417 12.7296 83.4089 11.1744 83.4089 8.70716C83.4089 6.23996 84.5417 4.75196 86.3657 4.75196C88.1897 4.75196 89.3225 6.24956 89.3225 8.70716C89.3225 11.1648 88.1801 12.7296 86.3657 12.7296Z" fill="#08436A"/>
<path d="M98.5576 14.592C100.746 14.592 102.83 13.7184 102.83 11.3472C102.83 9.47523 101.697 8.72643 100.266 8.46723V8.43843C101.457 8.19843 102.503 7.40163 102.503 5.74083C102.503 3.36003 100.468 2.83203 98.308 2.83203H93.604V14.592H98.548H98.5576ZM96.1576 4.82883H98.0968C99.4792 4.82883 100.036 5.33763 100.036 6.25923C100.036 7.18083 99.412 7.67043 98.068 7.67043H96.1576V4.82883ZM96.1576 9.50403H98.1256C99.556 9.50403 100.305 10.0128 100.305 11.0496C100.305 12.0864 99.6712 12.624 98.2408 12.624H96.1576V9.50403Z" fill="#08436A"/>
<path d="M108.686 6.08633H108.715L110.068 10.0895H107.304L108.686 6.08633ZM105.758 14.5919L106.66 11.9711H110.664L111.537 14.5919H114.158L109.992 2.78394H107.524L103.358 14.5919H105.739H105.758Z" fill="#08436A"/>
<path d="M123.23 14.5919V12.4895H118.046V2.82227H115.454V14.5919H123.23Z" fill="#08436A"/>
<path d="M66.6089 29.8848C68.8073 29.8848 70.8809 29.0112 70.8809 26.64C70.8809 24.768 69.7481 24.0192 68.3177 23.76V23.7312C69.5081 23.4912 70.5545 22.6944 70.5545 21.0336C70.5545 18.6528 68.5193 18.1248 66.3593 18.1248H61.6553V29.8848H66.5993H66.6089ZM64.2089 20.1216H66.1481C67.5305 20.1216 68.0873 20.6304 68.0873 21.552C68.0873 22.4736 67.4633 22.9632 66.1193 22.9632H64.2089V20.1216ZM64.2089 24.7968H66.1769C67.6073 24.7968 68.3561 25.3056 68.3561 26.3424C68.3561 27.3792 67.7225 27.9168 66.2921 27.9168H64.2089V24.7968Z" fill="#08436A"/>
<path d="M77.2457 30.0768C80.5193 30.0768 81.9785 28.2624 81.9785 25.3728V18.1248H79.4345V25.3248C79.4345 27.0432 78.8009 27.984 77.2745 27.984C75.7481 27.984 75.0857 27.0336 75.0857 25.3248V18.1248H72.4937V25.392C72.4937 28.272 73.9721 30.0768 77.2457 30.0768Z" fill="#08436A"/>
<path d="M88.2091 30.1055C91.4827 30.1055 92.9131 28.4159 92.9131 26.5247C92.9131 24.0959 90.7147 23.4431 88.6507 22.8863C87.1051 22.4543 86.2315 22.1279 86.2315 21.1871C86.2315 20.4863 86.8363 20.0063 87.9307 20.0063C89.0251 20.0063 90.2059 20.6783 90.8203 21.6767L92.6155 20.3135C91.7899 19.0559 90.3595 17.8943 87.9403 17.8943C85.5211 17.8943 83.6971 19.2095 83.6971 21.4079C83.6971 23.8751 85.8859 24.4127 87.9883 24.9983C89.5339 25.4303 90.3691 25.8047 90.3691 26.6975C90.3691 27.5903 89.5147 28.0511 88.3147 28.0511C86.9611 28.0511 85.7899 27.3311 85.1371 26.0447L83.1787 27.2063C84.0523 28.8959 85.6459 30.0959 88.1899 30.0959L88.2091 30.1055Z" fill="#08436A"/>
<path d="M97.3387 29.8848V24V18.1152H96.0427H94.7563V24V29.8848H95.8123H97.3387Z" fill="#08436A"/>
<path d="M102.1 29.8848V22.3104H102.129L107.265 29.8848H109.655V18.1152H107.265V25.6224H107.236L102.311 18.1152H99.7192V29.8848H102.1Z" fill="#08436A"/>
<path d="M120.331 29.8848V27.7824H114.628V24.8544H118.555V22.8096H114.628V20.2848H120.043V18.1152H112.036V29.8848H120.331Z" fill="#08436A"/>
<path d="M126.1 30.1055C129.374 30.1055 130.804 28.4159 130.804 26.5247C130.804 24.0959 128.615 23.4431 126.542 22.8863C124.996 22.4543 124.123 22.1279 124.123 21.1871C124.123 20.4863 124.727 20.0063 125.822 20.0063C126.916 20.0063 128.097 20.6783 128.711 21.6767L130.507 20.3135C129.681 19.0559 128.251 17.8943 125.831 17.8943C123.412 17.8943 121.588 19.2095 121.588 21.4079C121.588 23.8751 123.787 24.4127 125.879 24.9983C127.425 25.4303 128.26 25.8047 128.26 26.6975C128.26 27.5903 127.406 28.0511 126.206 28.0511C124.852 28.0511 123.681 27.3311 123.028 26.0447L121.07 27.2063C121.943 28.8959 123.537 30.0959 126.081 30.0959L126.1 30.1055Z" fill="#08436A"/>
<path d="M136.785 30.1055C140.058 30.1055 141.489 28.4159 141.489 26.5247C141.489 24.0959 139.3 23.4431 137.226 22.8863C135.681 22.4543 134.807 22.1279 134.807 21.1871C134.807 20.4863 135.412 20.0063 136.506 20.0063C137.601 20.0063 138.782 20.6783 139.396 21.6767L141.191 20.3135C140.366 19.0559 138.935 17.8943 136.516 17.8943C134.097 17.8943 132.273 19.2095 132.273 21.4079C132.273 23.8751 134.471 24.4127 136.564 24.9983C138.11 25.4303 138.945 25.8047 138.945 26.6975C138.945 27.5903 138.09 28.0511 136.89 28.0511C135.537 28.0511 134.366 27.3311 133.713 26.0447L131.754 27.2063C132.628 28.8959 134.222 30.0959 136.766 30.0959L136.785 30.1055Z" fill="#08436A"/>
<path d="M67.5112 45.1776V35.5776H71.0248V33.408H61.4248V35.5776H64.9192V45.1776H67.5112Z" fill="#08436A"/>
<path d="M74.9704 35.5295H76.7368C78.2344 35.5295 78.9448 35.9615 78.9448 37.1231C78.9448 38.2847 78.2248 38.7455 76.7368 38.7455H74.9704V35.5391V35.5295ZM74.9704 45.1775V40.7423H76.468L78.916 45.1775H81.652L79.0312 40.4063C80.6056 39.9263 81.4792 38.9087 81.4792 37.0559C81.4792 34.4447 79.7512 33.4175 76.852 33.4175H72.436V45.1775H74.98H74.9704Z" fill="#08436A"/>
<path d="M87.5848 36.672H87.6136L88.9672 40.6752H86.2024L87.5848 36.672ZM84.6568 45.1776L85.5592 42.5568H89.5624L90.436 45.1776H93.0568L88.8904 33.3696H86.4232L82.2568 45.1776H84.6376H84.6568Z" fill="#08436A"/>
<path d="M98.6828 45.2256L102.734 33.408H100.305L97.5212 41.8176H97.4924L94.8044 33.408H92.1836L96.2348 45.2256H98.6828Z" fill="#08436A"/>
<path d="M112.324 45.1776V43.0752H106.612V40.1568H110.538V38.1024H106.612V35.5776H112.036V33.408H104.02V45.1776H112.324Z" fill="#08436A"/>
<path d="M122.145 45.1776V43.0752H116.961V33.408H114.369V45.1776H122.145Z" fill="#08436A"/>
</g>
<defs>
<clipPath id="clip0_214_6310">
<rect width="141.331" height="48" fill="white" transform="translate(0.157715)"/>
</clipPath>
</defs>
</svg>
