<svg width="456" height="220" viewBox="0 0 456 220" fill="none" xmlns="http://www.w3.org/2000/svg">
<mask id="mask0_758_5070" style="mask-type:alpha" maskUnits="userSpaceOnUse" x="0" y="0" width="456" height="220">
<rect width="456" height="220" fill="white"/>
</mask>
<g mask="url(#mask0_758_5070)">
<g clip-path="url(#clip0_758_5070)">
<path d="M245.92 23.44C245.29 21.1 243.87 18.89 241.65 17.89C240.72 17.47 239.79 17.33 238.88 17.41L238.84 17.37C239.21 16.06 239.33 14.69 239.09 13.29C238.64 10.66 236.92 8.53 234.8 7C230.34 3.78 223.69 3.01 218.71 5.38C216.62 6.37 214.98 8.02 213.96 10.02H213.88C211.86 8.7 209.32 8.61 207.01 10.19C205.73 11.07 204.7 12.27 204.03 13.64H203.96C203.27 12.75 202.46 11.98 201.48 11.46C199.57 10.46 197.44 10.93 195.98 12.47C193.16 15.43 192.76 20.49 194.06 24.36V24.43C191.96 24.51 189.94 25.32 188.28 27.23C183.94 32.2 185.47 39.92 188.32 45.27C189.95 48.34 192.01 50.93 194.34 53.23C194.48 55.97 194.92 58.66 195.64 61.18C197.19 66.59 200.15 71.72 204.71 75.12C206.48 76.45 208.42 77.38 210.45 77.96L210.09 78.94C209.75 79.85 209.34 80.77 209.09 81.72C208.85 82.61 208.66 83.73 209.38 84.46C209.7 84.78 210.13 84.93 210.55 85.01C213.04 85.51 215.68 85.62 218.21 85.59C219.84 85.58 221.52 85.48 223.1 85.06C223.99 84.82 224.44 83.9 224.24 83.03C223.83 81.13 223.42 79.23 223.01 77.33C231.23 73.22 235.02 64.03 235.31 55.15C235.36 53.67 235.31 52.15 235.18 50.61C238.29 48.54 240.85 45.84 241.87 42.27C242.78 39.1 242.07 35.9 240.64 33.04L240.69 32.97C242.37 32.74 243.91 32.01 244.99 30.49C246.42 28.48 246.55 25.77 245.92 23.42V23.44Z" fill="#08436A"/>
<path d="M136.71 115.75L132.96 114.36C137.37 102.5 149.16 102.62 162.81 102.76C168.15 102.82 174.2 102.88 180.42 102.26C197.19 100.61 198.75 95.33 200.13 90.68C200.68 88.83 201.24 86.92 202.68 85.44C205.83 82.19 212.68 82.45 220.61 82.74C222.27 82.8 223.94 82.86 225.57 82.89C229.5 82.95 230.67 86.35 231.69 89.35C233.13 93.55 234.61 97.89 242.58 98.29C246.3 98.47 251.5 97.8 257 97.09C271.19 95.24 287.28 93.15 292.13 103.41L288.51 105.12C284.91 97.5 269.72 99.47 257.51 101.06C251.82 101.8 246.44 102.5 242.37 102.29C231.7 101.75 229.41 95.07 227.9 90.65C226.85 87.58 226.42 86.91 225.5 86.9C223.84 86.87 222.14 86.81 220.45 86.75C214.35 86.52 207.45 86.27 205.54 88.24C204.79 89.02 204.4 90.32 203.95 91.83C202 98.43 198.76 104.49 180.79 106.26C174.35 106.89 168.18 106.83 162.75 106.78C149.13 106.65 140.12 106.55 136.69 115.78L136.71 115.75Z" fill="#A0D5F8"/>
<path fill-rule="evenodd" clip-rule="evenodd" d="M307.57 61.32C306.23 61.3 304.82 61.21 303.3 61.07C294.75 58.66 307.24 41.94 325.3 43.89C334.16 44.85 340.63 48.46 340.73 53.58C349.16 54.99 354.06 70.86 349.43 78.46C347.52 81.6 346.38 85.42 342.07 89.39C339.26 91.98 334.22 91.47 334.52 95.5C334.68 97.69 332.31 109.48 341.78 113.15C345.25 113.64 332.94 116.14 325.5 115.77C323.88 115.68 313.61 112.54 314.89 110.63C317.77 106.34 319.87 103.21 320.54 97.62C306.52 102.31 297 80.7 307.58 61.33H307.57V61.32Z" fill="#08436A"/>
<path d="M445.5 145C447.62 143.6 449.87 142.57 451.79 140.77C453.4 139.27 455.5 136.41 453.53 134.17C453.23 133.82 452.87 133.56 452.47 133.35V133.3C453.17 131.94 453.4 130.38 452.4 128.97C451.57 127.78 450.32 127.56 449.05 127.76L449.03 127.72C449.24 126.28 449.07 124.85 448.09 123.83C447.26 122.96 446.2 122.79 445.12 122.98V122.93C445.5 121.93 445.87 120.92 446.23 119.92C447.4 116.64 448.84 113.06 449.1 109.49C449.29 106.86 447.41 104.88 445.4 106.87C443.38 108.86 442.09 111.82 440.7 114.27C439.11 117.07 437.57 120.13 435.47 122.51C434.78 123.28 434.62 123.4 433.77 123.59C433.63 123.62 433.29 123.67 433.64 123.62C433.4 123.66 433.16 123.69 432.93 123.73C432.62 123.78 432.31 123.83 432 123.92C430.25 124.44 429.06 125.86 428.33 127.69C426.78 131.59 426.61 136.27 426.42 140.48C426.35 141.94 426.02 143.42 427.08 144.45C427.31 144.68 427.57 144.87 427.8 145.09L431.44 148.26L436.88 152.99L437.71 153.71C438.87 154.72 439.65 153.44 439.89 152.67C439.92 152.6 439.94 152.52 439.97 152.45C441.13 149.3 442.84 146.74 445.47 145.03L445.5 145Z" fill="#08436A"/>
<path d="M439.46 151.59C437.46 150.22 435.67 148.79 434.08 147.53C429.88 144.18 426.55 141.54 422.84 142.71C421.49 143.15 410.16 155.4 400.49 166.3C400.37 163.72 400.32 161.18 400.28 158.69C400.04 144.17 399.81 130.46 384.14 116.11C381.38 113.58 366.56 101.4 346.26 110.03C335.37 114.66 320.24 116.07 310.43 106.14C310.32 106.03 310.2 105.93 310.06 105.85C309.85 105.72 289.47 93.36 273.31 110.88C251.57 134.45 254.24 154.98 254.36 155.84C254.52 156.93 255.52 157.69 256.62 157.53C257.71 157.38 258.47 156.37 258.32 155.27C258.29 155.08 255.89 135.66 276.25 113.58C289.53 99.18 305.75 107.95 307.76 109.13C315.17 116.48 329.52 121.49 347.82 113.71C365.86 106.04 378.98 116.82 381.43 119.06C395.83 132.24 396.04 144.53 396.27 158.75C396.33 162.54 396.41 166.45 396.74 170.53C391.89 176.08 387.96 180.73 386.77 182.43C386.14 183.34 386.36 184.58 387.27 185.21C388.18 185.84 389.42 185.61 390.05 184.71C391.61 182.47 395.42 177.96 399.97 172.79C400.2 172.62 400.4 172.4 400.54 172.14C409.9 161.54 422.06 148.48 424.33 146.43C426.01 146.22 428.48 148.18 431.57 150.63C433.13 151.87 434.89 153.27 436.88 154.66C436.91 155.07 436.8 155.85 436.6 156.28C417.5 196.12 400.73 219.96 390.59 221.67C388.59 222.01 386.93 221.45 385.38 219.9C372.1 206.55 365.3 185.92 364.58 156.85C364.55 155.75 363.61 154.83 362.53 154.9C361.43 154.93 360.55 155.84 360.58 156.95C360.59 157.48 360.62 157.98 360.64 158.5C360.63 158.6 360.61 158.71 360.62 158.81C361.08 179.9 366.32 199.18 371.39 217.82C374.42 228.95 377.27 239.46 379.18 250.31C379.46 251.91 379.66 253.32 379.17 254.31C378.47 255.74 376.33 256.37 374.32 256.8C367.52 258.24 334.56 259.92 325.84 260.27C324.74 260.31 323.88 261.24 323.92 262.35C323.96 263.43 324.85 264.27 325.92 264.27C325.95 264.27 325.97 264.27 326 264.27C332.2 264.02 367.58 262.32 375.15 260.72C375.29 260.69 375.44 260.65 375.58 260.62C376.3 268.01 377.32 284.62 377.26 286.75C377.23 287.85 378.1 288.77 379.21 288.8C379.23 288.8 379.24 288.8 379.26 288.8C380.34 288.8 381.23 287.94 381.26 286.85C381.33 284.25 380.18 266.02 379.47 259.3C380.84 258.59 382.03 257.58 382.76 256.08C383.86 253.84 383.43 251.4 383.12 249.63C381.18 238.6 378.17 227.51 375.25 216.79C374.78 215.07 374.32 213.35 373.85 211.62C376.38 215.73 379.27 219.44 382.54 222.73C384.54 224.74 386.93 225.78 389.53 225.77C390.1 225.77 390.67 225.72 391.26 225.62C406.13 223.1 426.08 187.46 440.21 158.01C440.88 156.61 441.61 153.05 439.45 151.58L439.46 151.59Z" fill="#A0D5F8"/>
<path d="M377.38 125.82C377.5 126.85 378.68 127.31 379.61 127.26C380.98 127.19 382.17 126.12 383.09 125.18C384.45 123.79 385.6 122.22 386.81 120.69C387.95 119.26 390.35 116.42 388.83 114.48C388.49 114.04 387.99 113.76 387.45 113.61V113.57C387.99 112.51 388.21 111.27 387.65 110.2C386.79 108.54 385.18 108.08 383.63 108.38V108.33C383.9 107.5 383.96 106.61 383.69 105.73C383.37 104.7 382.62 103.76 381.57 103.45C379.98 102.98 378.27 103.71 376.88 104.71L376.85 104.56C376.71 102.19 375.67 99.85 372.8 100.33C367.89 101.17 365.49 107.03 364.18 111.44C364.13 111.61 363.86 112.46 363.74 112.87C363.13 115.19 362.29 119.13 364.71 120.52C365.93 121.22 367.23 120.68 368.33 119.81H368.36C368.24 121.01 368.34 122.35 369.28 123.2C370.67 124.46 372.39 123.89 373.79 122.83V122.86C373.71 123.94 373.95 124.96 374.97 125.45C375.72 125.8 376.55 125.66 377.34 125.31L377.38 125.35C377.37 125.51 377.37 125.66 377.38 125.82Z" fill="#08436A"/>
<path fill-rule="evenodd" clip-rule="evenodd" d="M134.6 70.96C135.92 71.19 137.32 71.39 138.83 71.55C147.69 70.86 151.42 60.59 141.86 54.37C137.17 51.04 132.48 51.86 129.05 52.46C127.68 52.71 126.51 52.9 125.64 52.79C124.5 52.48 123.28 52.11 122.03 51.73C113.36 49.12 103.07 46.01 103.58 56.85C89.34 52.63 82.95 70.45 86.02 78.81C87.28 82.25 90.84 92.42 94.75 95.03C97.93 97.15 102.56 95.28 101.48 99.17C100.89 101.29 100.9 113.32 90.92 115.05C87.42 114.85 97.29 117.42 104.65 118.51C106.26 118.74 118.67 119.96 117.79 117.85C115.8 113.07 114.36 109.6 114.79 103.98C127.62 111.32 141.17 92 134.6 70.94V70.96Z" fill="#08436A"/>
<path d="M59.4901 199.12C59.2901 199.12 59.0901 199.09 58.9001 199.03C57.8501 198.7 57.2601 197.58 57.5801 196.53L61.0601 185.35C63.0001 179.14 64.9301 172.92 66.8601 166.7C67.5701 164.43 68.2701 162.16 68.9801 159.89C69.7001 157.58 70.4201 155.27 71.1401 152.95C71.4701 151.9 72.5901 151.3 73.6401 151.63C74.6901 151.96 75.2801 153.08 74.9601 154.13C74.2401 156.45 73.5201 158.76 72.8001 161.07C72.0901 163.34 71.3801 165.61 70.6801 167.88C68.7501 174.1 66.8101 180.32 64.8801 186.53L61.4001 197.71C61.1301 198.57 60.3401 199.12 59.4901 199.12Z" fill="#A0D5F8"/>
<path d="M108.41 167.24C66.11 164.07 53.08 165.46 54.32 183.08C54.21 185.04 54.44 196.35 54.55 198.69C64.98 198.14 82.21 187.06 92.43 187.92C92.43 188.51 96.21 191.62 95.48 196.64C96.62 206.98 90.92 222.65 90.89 223.36C82.99 226.88 57.86 236.9 57.81 237.86C57.75 239.31 58.04 239.33 57.93 240.83C131.49 238.05 101.56 223.53 108.39 167.23H108.4L108.41 167.24Z" fill="#9CFCD7"/>
<path d="M96.26 194.49C94.3 188.5 91.01 189.18 91.23 189.17H91.35C93.48 189.02 95.66 188.88 97.69 188.16C100.23 187.26 102.5 185.76 104.89 184.56C105.9 184.06 106.97 183.65 108.03 183.28C109.01 182.92 110.09 182.47 111.13 182.41C112.11 182.35 113.18 182.8 113.71 183.67C113.98 184.1 114.09 184.59 114.03 185.1C113.99 185.43 113.86 185.73 113.75 186.04C113.47 186.85 113.7 187.16 114.3 187.66C116.04 189.1 115.93 191.88 114.27 193.28C114.27 193.28 114.25 193.32 114.27 193.33C115.06 194.29 115.77 195.36 115.85 196.62C115.92 197.67 115.58 198.65 114.86 199.33C114.86 199.35 114.84 199.39 114.86 199.4C117.19 203.74 114.01 209.52 108.9 209.32C108.67 209.32 108.5 209.14 108.42 208.93L108.2 208.13C108.2 208.13 108.08 207.52 107.97 207.54C107.1 207.75 106.2 207.87 105.43 208.08C103.71 208.55 99.43 209.26 98.24 208.43C95.22 206.3 96.35 196.18 96.24 194.5H96.25L96.26 194.49Z" fill="#08436A"/>
<path d="M146.22 204.58L146.08 201.81C145.75 195.25 145.41 188.7 145.08 182.15C144.75 175.6 144.41 169.04 144.08 162.49C144.02 161.39 143.08 160.53 141.98 160.59C140.88 160.65 140.03 161.59 140.08 162.69C140.41 169.25 140.75 175.8 141.08 182.35C141.41 188.9 141.75 195.46 142.08 202.01L142.22 204.77C142.97 220.01 145.24 266.38 147.8 274.94C148.06 275.81 148.85 276.37 149.72 276.37C149.91 276.37 150.1 276.34 150.29 276.29C151.35 275.97 151.95 274.86 151.63 273.8C150.02 268.43 148.2 245.15 146.21 204.59L146.22 204.58Z" fill="#A0D5F8"/>
<path d="M185.81 156.73C185.71 156.09 183.26 141.02 180.12 131.94C176.92 120.51 169.43 113.81 163.99 111.56C155.69 108.11 143.4 110.94 131.52 113.69C125.34 115.12 119.51 116.46 114.54 116.87C107.73 117.44 99.7501 115.49 91.2901 113.43C78.5901 110.34 65.4601 107.14 53.6901 111.6C53.6001 111.64 53.5001 111.68 53.4201 111.73C35.5601 121.83 10.4901 160.73 3.67005 197.66C-0.169945 218.48 2.63006 235.34 11.7901 246.42C12.9501 247.82 15.0301 249.16 19.9701 249.16C24.0601 249.16 30.1301 248.23 39.2301 245.64C38.7601 249.04 38.1401 251.78 37.4801 254.64C36.4201 259.23 35.3301 263.98 34.8101 271.87C34.7601 272.63 35.0601 273.37 35.6501 273.95C36.2201 274.51 37.3901 274.99 38.9901 275.39C39.0001 277.89 39.0401 279.6 39.0801 281.26C39.1201 283.14 39.1701 285.09 39.1701 288.23C39.1701 289.33 40.0701 290.23 41.1701 290.23C42.2701 290.23 43.1701 289.33 43.1701 288.23C43.1701 285.05 43.1201 283.07 43.0801 281.17C43.0501 279.71 43.0101 278.21 43.0001 276.16C50.0201 277.17 60.8101 277.52 71.1101 277.52C82.3701 277.52 93.0401 277.11 97.5501 276.69C98.6501 276.59 99.4601 275.62 99.3601 274.52C99.2601 273.42 98.2901 272.61 97.1901 272.71C77.7801 274.49 44.0301 273.31 38.8701 271.3C39.3901 264.23 40.4001 259.82 41.3801 255.56C42.1401 252.28 42.9101 248.87 43.4101 244.42C46.2401 243.55 49.3201 242.54 52.6901 241.36C70.3801 235.2 87.3701 227.58 90.1101 226.19C96.2101 223.1 98.9501 207.27 98.1501 197.73C97.6401 191.62 95.7501 187.88 92.6701 186.92C86.9701 185.14 48.2801 198.91 29.0701 207.9C28.0701 208.37 27.6401 209.56 28.1101 210.56C28.5801 211.56 29.7701 211.99 30.7701 211.52C53.5601 200.86 87.7101 189.92 91.4901 190.74C92.4701 191.05 93.7701 193.15 94.1801 198.06C95.0501 208.53 91.5601 220.98 88.3201 222.62C85.6201 223.99 68.8901 231.48 51.3901 237.58C21.3401 248.05 15.8601 245.06 14.8901 243.89C4.30006 231.09 5.09005 212.09 7.62005 198.41C14.1201 163.19 38.5301 124.9 55.2701 115.31C65.8501 111.36 78.3001 114.4 90.3601 117.33C99.1401 119.47 107.43 121.49 114.88 120.87C120.14 120.43 126.11 119.06 132.43 117.6C143.7 115 155.36 112.31 162.47 115.27C167.09 117.19 173.49 123.01 176.3 133.09C176.31 133.13 176.32 133.17 176.34 133.21C179.37 141.95 181.85 157.23 181.88 157.38C182.05 158.47 183.08 159.21 184.17 159.04C185.26 158.86 186 157.84 185.83 156.75L185.81 156.73Z" fill="#A0D5F8"/>
<path d="M264.07 94.11C263.85 91.16 262.61 87.91 260.52 85.81C258.43 83.7 255.63 82.49 252.76 82.11C250.05 81.74 247.15 82.12 244.89 83.78C243.27 84.98 241.8 86.4 240.84 88.19C240.15 89.48 239.74 90.87 239.59 92.28C236.25 91.5 230.51 91.8 227.61 92.24C213.27 94.42 214.09 104.43 213.6 110.08C211.86 130.25 226.87 150.78 237.85 142.8C238.79 147.88 236.32 154.1 231.32 155.55C230.72 157.57 241.4 160.62 242.9 160.62C251.3 160.56 259.31 153.57 256.13 154.1C246.85 153.52 248.49 143.82 249.13 141.91C250.97 136.39 253.96 135.1 255.21 132.63C261.7 119.82 260.02 109.77 257.53 103.65C261.07 101.69 264.38 98.48 264.06 94.11H264.07Z" fill="#08436A"/>
<path d="M281.41 200.55C281.21 189.69 281.07 181.85 280.7 179.3C280.54 178.21 279.52 177.45 278.43 177.61C277.34 177.77 276.58 178.78 276.74 179.88C277.08 182.18 277.23 190.32 277.41 200.63C277.77 220.37 278.27 247.4 280.45 265.26C280.57 266.27 281.44 267.02 282.43 267.02C282.51 267.02 282.59 267.02 282.68 267.01C283.78 266.88 284.56 265.88 284.42 264.78C282.26 247.12 281.75 219.1 281.41 200.56V200.55Z" fill="#A0D5F8"/>
<path d="M204.8 188.78C203.7 188.69 202.73 189.5 202.64 190.6C202.58 191.26 197.02 256.58 194.36 282.53C194.25 283.63 195.05 284.61 196.15 284.72C196.22 284.72 196.29 284.73 196.36 284.73C197.37 284.73 198.24 283.96 198.35 282.93C201.01 256.95 206.58 191.59 206.63 190.93C206.72 189.83 205.91 188.86 204.81 188.77L204.8 188.78Z" fill="#A0D5F8"/>
<path d="M295.31 146.69C287.92 140.69 275.72 137.96 263.64 148.3C260.61 150.9 250.1 159.28 242.13 158.07C235.86 157.12 232.88 155.58 229.44 153.8C227.34 152.72 224.96 151.49 221.65 150.3C207.91 145.37 196.09 146.42 186.52 153.41C165.69 168.62 156.38 211.76 158.84 281.61C158.88 282.69 159.77 283.54 160.84 283.54C160.86 283.54 160.89 283.54 160.91 283.54C162.01 283.5 162.88 282.57 162.84 281.47C160.43 213.02 169.19 171.02 188.88 156.64C197.31 150.48 207.89 149.62 220.3 154.07C223.36 155.17 225.52 156.28 227.61 157.36C231.22 159.22 234.62 160.98 241.54 162.03C250.93 163.44 261.95 155.03 266.25 151.34C272.95 145.61 283.44 142.2 292.8 149.8C312.89 166.13 317.29 240.53 317.29 267.83C317.29 268.93 318.19 269.83 319.29 269.83C320.39 269.83 321.29 268.93 321.29 267.83C321.29 266.83 320.99 167.56 295.32 146.7L295.31 146.69Z" fill="#A0D5F8"/>
<path d="M46.97 133.88C47.05 134.92 45.98 135.59 45.06 135.72C43.7 135.91 42.32 135.09 41.24 134.35C39.64 133.25 38.2 131.92 36.73 130.66C35.34 129.48 32.43 127.16 33.55 124.96C33.8 124.47 34.24 124.1 34.74 123.84V123.8C34 122.86 33.55 121.69 33.89 120.53C34.42 118.73 35.91 117.97 37.49 117.97V117.92C37.06 117.16 36.83 116.3 36.92 115.38C37.03 114.31 37.59 113.24 38.56 112.74C40.03 111.97 41.85 112.36 43.4 113.07V112.92C43.08 110.57 43.65 108.07 46.56 107.99C51.54 107.87 55.02 113.16 57.16 117.23C57.24 117.38 57.67 118.17 57.87 118.55C58.91 120.71 60.5 124.42 58.39 126.25C57.33 127.17 55.95 126.89 54.7 126.25H54.67C55.02 127.41 55.18 128.75 54.42 129.76C53.29 131.27 51.5 131.03 49.92 130.26V130.29C50.21 131.34 50.18 132.38 49.27 133.06C48.6 133.55 47.76 133.57 46.91 133.38L46.88 133.42C46.92 133.57 46.95 133.73 46.96 133.88H46.97Z" fill="#08436A"/>
</g>
</g>
<defs>
<clipPath id="clip0_758_5070">
<rect width="452.33" height="286.24" fill="white" transform="translate(2 4)"/>
</clipPath>
</defs>
</svg>
