<svg width="456" height="305" viewBox="0 0 456 305" fill="none" xmlns="http://www.w3.org/2000/svg">
<g clip-path="url(#clip0_1021_14017)">
<path fill-rule="evenodd" clip-rule="evenodd" d="M298.36 60.73C296.93 60.7 295.42 60.61 293.79 60.47C284.63 57.89 298.01 39.99 317.37 42.09C326.86 43.12 333.8 46.99 333.91 52.46C342.94 53.97 348.2 70.95 343.23 79.08C341.18 82.44 339.96 86.53 335.34 90.78C332.33 93.56 326.93 93 327.24 97.32C327.41 99.66 324.87 112.28 335.02 116.2C338.74 116.73 325.54 119.4 317.58 119C315.84 118.91 304.84 115.54 306.21 113.5C309.3 108.91 311.55 105.57 312.27 99.58C297.24 104.59 287.04 81.47 298.37 60.75H298.36V60.73Z" fill="#08436A"/>
<path d="M445.17 151C447.29 149.6 449.54 148.57 451.46 146.77C453.07 145.27 455.17 142.41 453.2 140.17C452.9 139.82 452.54 139.56 452.14 139.35V139.3C452.84 137.94 453.07 136.38 452.07 134.97C451.24 133.78 449.99 133.56 448.72 133.76L448.7 133.72C448.91 132.28 448.74 130.85 447.76 129.83C446.93 128.96 445.87 128.79 444.79 128.98V128.93C445.17 127.93 445.54 126.92 445.9 125.92C447.07 122.64 448.51 119.06 448.77 115.49C448.96 112.86 447.08 110.88 445.07 112.87C443.05 114.86 441.76 117.82 440.37 120.27C438.78 123.07 437.24 126.13 435.14 128.51C434.45 129.28 434.29 129.4 433.44 129.59C433.3 129.62 432.96 129.67 433.31 129.62C433.07 129.66 432.83 129.69 432.6 129.73C432.29 129.78 431.98 129.83 431.67 129.92C429.92 130.43 428.73 131.86 428 133.69C426.45 137.59 426.28 142.27 426.09 146.48C426.02 147.94 425.69 149.42 426.75 150.45C426.98 150.68 427.24 150.87 427.47 151.09L431.11 154.26L436.55 158.99L437.38 159.71C438.54 160.72 439.32 159.44 439.56 158.67C439.59 158.6 439.61 158.52 439.64 158.45C440.8 155.3 442.51 152.74 445.14 151.03L445.17 151Z" fill="#08436A"/>
<path d="M439.62 157.45C437.48 155.98 435.55 154.45 433.85 153.1C429.38 149.54 425.84 146.74 421.93 147.96C420.48 148.43 408.2 161.71 397.81 173.42C397.67 170.53 397.61 167.7 397.57 164.93C397.31 149.42 397.07 134.77 380.32 119.47C377.37 116.77 361.56 103.79 339.89 112.99C322.02 120.57 308.26 115.8 301.33 108.79C301.22 108.68 301.1 108.58 300.96 108.5C300.74 108.37 278.99 95.2 261.76 113.86C238.72 138.81 234.37 170.89 234.19 172.25C234.05 173.34 234.82 174.35 235.92 174.49C237.01 174.62 238.02 173.86 238.16 172.76C238.2 172.44 242.55 140.56 264.7 116.58C279.04 101.05 296.55 110.56 298.66 111.8C310.63 123.7 328.59 122.14 341.45 116.69C360.87 108.45 374.99 120.04 377.62 122.44C393.1 136.58 393.32 149.76 393.57 165.02C393.64 169.09 393.72 173.29 394.08 177.68C388.87 183.63 384.64 188.63 383.37 190.46C382.74 191.37 382.96 192.61 383.87 193.24C384.78 193.87 386.03 193.65 386.65 192.74C388.33 190.33 392.45 185.47 397.36 179.92C397.55 179.77 397.7 179.59 397.83 179.39C407.99 167.92 421.25 153.73 423.45 151.72C425.3 151.43 428 153.57 431.37 156.25C433.05 157.59 434.95 159.1 437.1 160.59C437.15 161.02 437.05 161.92 436.79 162.46C416.3 205.13 398.29 230.67 387.38 232.52C385.18 232.89 383.36 232.28 381.67 230.58C367.41 216.26 360.11 194.16 359.34 163.01C359.31 161.92 358.42 161.06 357.34 161.06C357.32 161.06 357.31 161.06 357.29 161.06C356.19 161.09 355.31 162 355.34 163.11C355.35 163.67 355.39 164.21 355.4 164.77C355.38 164.88 355.37 164.99 355.37 165.1C355.87 187.66 361.48 208.28 366.91 228.22C370.15 240.13 373.22 251.38 375.26 263C375.57 264.74 375.78 266.27 375.24 267.37C374.47 268.95 372.13 269.64 369.95 270.11C362.38 271.71 348 273.74 340.08 274.06C338.98 274.1 338.12 275.03 338.16 276.14C338.2 277.22 339.09 278.06 340.16 278.06C340.19 278.06 340.21 278.06 340.24 278.06C348.35 277.74 363.06 275.67 370.78 274.03C370.98 273.99 371.19 273.94 371.4 273.89C372.18 281.72 373.28 299.73 373.22 302.03C373.19 303.13 374.06 304.05 375.17 304.08C375.19 304.08 375.2 304.08 375.22 304.08C376.3 304.08 377.19 303.22 377.22 302.13C377.29 299.33 376.05 279.66 375.29 272.56C376.77 271.81 378.06 270.74 378.84 269.13C380 266.77 379.54 264.19 379.21 262.31C377.13 250.52 373.9 238.65 370.78 227.18C370.2 225.04 369.62 222.9 369.04 220.75C371.86 225.47 375.13 229.68 378.84 233.41C380.98 235.55 383.43 236.63 386.17 236.63C386.78 236.63 387.41 236.58 388.05 236.47C403.92 233.78 425.28 195.68 440.4 164.19C441.1 162.73 441.87 159.01 439.63 157.48L439.62 157.45Z" fill="#A0D5F8"/>
<path d="M373.04 128.82C373.16 129.85 374.34 130.31 375.27 130.26C376.64 130.19 377.83 129.12 378.75 128.18C380.11 126.79 381.26 125.22 382.47 123.69C383.61 122.26 386.01 119.42 384.49 117.48C384.15 117.04 383.65 116.76 383.11 116.61V116.57C383.65 115.51 383.87 114.27 383.31 113.2C382.45 111.54 380.84 111.08 379.29 111.38V111.33C379.56 110.5 379.62 109.61 379.35 108.73C379.03 107.7 378.28 106.76 377.23 106.45C375.64 105.98 373.93 106.71 372.54 107.71L372.51 107.56C372.37 105.19 371.33 102.85 368.46 103.33C363.55 104.17 361.15 110.03 359.84 114.44C359.79 114.61 359.52 115.46 359.4 115.87C358.79 118.19 357.95 122.13 360.37 123.52C361.59 124.22 362.89 123.68 363.99 122.81H364.02C363.9 124.01 364 125.35 364.94 126.2C366.33 127.46 368.05 126.89 369.45 125.83V125.86C369.37 126.94 369.61 127.96 370.63 128.45C371.38 128.8 372.21 128.66 373 128.31L373.04 128.35C373.03 128.51 373.03 128.66 373.04 128.82Z" fill="#08436A"/>
<path fill-rule="evenodd" clip-rule="evenodd" d="M142.6 68.76C144.02 69.01 145.52 69.22 147.14 69.39C156.63 68.65 160.63 57.66 150.39 51.01C145.37 47.44 140.33 48.33 136.67 48.97C135.2 49.23 133.95 49.44 133.02 49.33C131.8 49 130.5 48.61 129.16 48.2C119.87 45.41 108.84 42.08 109.39 53.67C94.1301 49.16 87.2801 68.22 90.5701 77.17C91.9201 80.85 95.7401 91.74 99.9301 94.53C103.33 96.79 108.3 94.79 107.15 98.96C106.52 101.22 106.53 114.11 95.8301 115.95C92.0801 115.74 102.65 118.49 110.54 119.65C112.26 119.9 125.57 121.2 124.62 118.94C122.49 113.82 120.94 110.11 121.4 104.1C135.15 111.96 149.68 91.28 142.63 68.74V68.77L142.6 68.76Z" fill="#08436A"/>
<path d="M62.11 205.77C61.91 205.77 61.71 205.74 61.51 205.68C60.46 205.35 59.87 204.23 60.2 203.18L64.31 190C66.26 183.75 68.21 177.51 70.15 171.26C70.94 168.71 71.73 166.17 72.53 163.63C73.27 161.27 74 158.91 74.74 156.55C75.07 155.49 76.19 154.9 77.24 155.23C78.29 155.56 78.88 156.68 78.56 157.73C77.82 160.09 77.09 162.46 76.35 164.82C75.56 167.36 74.76 169.9 73.97 172.45C72.03 178.7 70.08 184.95 68.13 191.2L64.02 204.38C63.75 205.24 62.96 205.79 62.11 205.79V205.77Z" fill="#A0D5F8"/>
<path d="M159.9 229.05C158.9 229.05 158.04 228.31 157.92 227.29C157.49 223.77 157.35 220.39 157.19 216.48C157.13 214.96 157.06 213.36 156.98 211.65C156.62 204.64 156.27 197.62 155.91 190.61C155.55 183.6 155.19 176.58 154.84 169.57C154.78 168.47 155.63 167.53 156.74 167.47C157.86 167.4 158.78 168.26 158.84 169.37C159.2 176.38 159.55 183.4 159.91 190.41C160.27 197.42 160.63 204.44 160.98 211.45C161.07 213.18 161.13 214.79 161.19 216.32C161.34 220.15 161.48 223.45 161.89 226.81C162.02 227.91 161.25 228.9 160.15 229.04C160.07 229.04 159.98 229.05 159.9 229.05Z" fill="#A0D5F8"/>
<path d="M60.3099 247.35C60.2399 248.9 60.5599 248.93 60.4399 250.53C73.1199 250.05 82.9299 249.25 90.4999 247.99L86.4999 236.56C75.6499 241.08 60.3499 246.63 60.3099 247.35Z" fill="#9CFCD7"/>
<path d="M114.52 171.78C69.1899 168.39 55.2399 169.88 56.5599 188.73C56.4399 190.82 56.6899 202.93 56.8099 205.43C67.9799 204.84 86.4499 192.98 97.3999 193.9C97.3999 194.53 101.45 197.86 100.67 203.23C101.47 210.49 100.21 221.51 98.4899 227.55H114.95C115.57 215.62 111.33 197.9 114.51 171.78H114.52Z" fill="#9CFCD7"/>
<path d="M101.52 200.95C99.42 194.54 95.89 195.27 96.13 195.25H96.26C98.55 195.09 100.87 194.93 103.06 194.17C105.78 193.21 108.21 191.6 110.78 190.31C111.86 189.77 113.02 189.34 114.14 188.94C115.19 188.56 116.35 188.07 117.47 188.01C118.52 187.94 119.66 188.43 120.23 189.35C120.52 189.81 120.64 190.34 120.57 190.88C120.53 191.23 120.39 191.55 120.27 191.88C119.97 192.75 120.22 193.08 120.86 193.62C122.73 195.16 122.61 198.13 120.83 199.63C120.83 199.63 120.8 199.67 120.83 199.68C121.67 200.71 122.43 201.85 122.53 203.21C122.61 204.33 122.24 205.38 121.46 206.1C121.46 206.13 121.43 206.17 121.46 206.18C123.96 210.83 120.55 217.01 115.07 216.8C114.82 216.8 114.64 216.6 114.56 216.38L114.32 215.53C114.32 215.53 114.19 214.87 114.07 214.9C113.14 215.12 112.18 215.26 111.35 215.48C109.51 215.98 104.92 216.74 103.65 215.85C100.42 213.57 101.63 202.74 101.51 200.94H101.52V200.95Z" fill="#08436A"/>
<path d="M200.68 175.39C198.48 158.79 196.89 153.39 193.99 143.58C193.2 140.89 192.3 137.84 191.26 134.13C187.85 121.9 179.85 114.75 174.04 112.34C165.2 108.66 152.04 111.69 139.33 114.63C132.71 116.16 126.45 117.6 121.11 118.04C113.79 118.65 105.23 116.56 96.15 114.36C82.56 111.05 68.51 107.64 55.95 112.4C55.86 112.44 55.76 112.48 55.68 112.53C36.56 123.33 9.71997 164.93 2.42997 204.43C-1.67003 226.65 1.32997 244.64 11.11 256.46C12.94 258.67 16.44 259.58 20.97 259.58C26.22 259.58 32.87 258.36 39.9 256.51C39.44 260.3 38.86 263.12 38.26 266.06C37.33 270.6 36.37 275.29 35.81 283.8C35.76 284.58 36.06 285.33 36.66 285.91C37.26 286.49 38.52 286.99 40.29 287.42C40.29 290.17 40.34 292.03 40.39 293.83C40.44 295.85 40.49 297.93 40.49 301.29C40.49 302.39 41.39 303.29 42.49 303.29C43.59 303.29 44.49 302.39 44.49 301.29C44.49 297.88 44.44 295.77 44.39 293.73C44.35 292.12 44.31 290.46 44.3 288.16C52 289.26 64.11 289.67 75.61 289.67C87.11 289.67 97.55 289.28 102.89 288.79C103.99 288.69 104.8 287.72 104.7 286.62C104.6 285.52 103.63 284.71 102.53 284.81C81.52 286.74 45.12 285.44 39.87 283.25C40.42 275.53 41.32 271.13 42.19 266.87C42.86 263.58 43.55 260.17 44.07 255.37C64.51 249.46 86.55 239.4 86.92 239.22C87.91 238.72 88.3 237.52 87.8 236.53C87.3 235.54 86.1 235.15 85.11 235.65C82.55 236.95 66.52 243.95 49.54 249.43C20.94 258.65 15.26 255.21 14.2 253.93C2.82997 240.2 3.65997 219.84 6.36997 205.18C13.34 167.43 39.54 126.39 57.52 116.11C68.9 111.87 82.28 115.12 95.22 118.27C104.62 120.56 113.5 122.72 121.46 122.05C127.09 121.59 133.48 120.11 140.25 118.55C152.35 115.76 164.87 112.88 172.53 116.06C177.52 118.13 184.41 124.38 187.43 135.23C188.47 138.97 189.38 142.03 190.18 144.74C193.01 154.36 194.58 159.66 196.74 175.95C196.89 177.05 197.9 177.82 198.99 177.67C200.08 177.53 200.86 176.52 200.71 175.42L200.68 175.39Z" fill="#A0D5F8"/>
<path d="M97.22 229.35C97.49 229.47 97.77 229.53 98.05 229.53C98.81 229.53 99.54 229.09 99.87 228.36C103.51 220.38 105.21 204.72 101.87 197.25C100.86 194.98 99.43 193.55 97.63 192.99C91.67 191.15 49.65 206.06 29.57 215.43C28.57 215.9 28.14 217.09 28.6 218.09C29.07 219.09 30.26 219.52 31.26 219.06C55.85 207.58 92.47 195.91 96.44 196.81C97.25 197.06 97.85 198.08 98.21 198.89C100.83 204.76 99.83 218.8 96.22 226.71C95.76 227.71 96.21 228.9 97.21 229.36L97.22 229.35Z" fill="#A0D5F8"/>
<path d="M49.64 135.88C49.72 136.92 48.65 137.59 47.73 137.72C46.37 137.91 44.99 137.09 43.91 136.35C42.31 135.25 40.87 133.92 39.4 132.66C38.01 131.48 35.1 129.15 36.22 126.96C36.47 126.47 36.91 126.1 37.41 125.84V125.8C36.67 124.86 36.22 123.69 36.56 122.53C37.09 120.73 38.58 119.97 40.16 119.97V119.92C39.73 119.16 39.5 118.3 39.59 117.38C39.7 116.31 40.26 115.24 41.23 114.74C42.7 113.97 44.52 114.36 46.07 115.07V114.92C45.75 112.57 46.32 110.07 49.23 109.99C54.21 109.87 57.69 115.16 59.83 119.23C59.91 119.38 60.34 120.17 60.54 120.55C61.58 122.71 63.17 126.42 61.06 128.25C60 129.17 58.62 128.89 57.37 128.25H57.34C57.69 129.41 57.85 130.75 57.09 131.76C55.96 133.27 54.17 133.03 52.59 132.26V132.29C52.88 133.34 52.85 134.38 51.94 135.06C51.27 135.55 50.43 135.57 49.58 135.38L49.55 135.42C49.59 135.57 49.62 135.73 49.63 135.88H49.64Z" fill="#08436A"/>
<path d="M245.59 19.44C244.96 17.1 243.54 14.89 241.32 13.89C240.39 13.47 239.46 13.33 238.55 13.41L238.51 13.37C238.88 12.06 239 10.69 238.76 9.29C238.31 6.66 236.59 4.53 234.47 3C230.01 -0.219999 223.36 -0.989999 218.38 1.38C216.28 2.37 214.65 4.02 213.63 6.02H213.55C211.53 4.7 208.99 4.61 206.68 6.19C205.4 7.07 204.37 8.27 203.7 9.64H203.63C202.94 8.75 202.13 7.98 201.15 7.46C199.24 6.46 197.11 6.93 195.66 8.47C192.84 11.43 192.44 16.49 193.74 20.36V20.43C191.64 20.51 189.62 21.32 187.96 23.23C183.62 28.2 185.15 35.92 188 41.27C189.63 44.34 191.69 46.93 194.02 49.23C194.16 51.97 194.6 54.66 195.32 57.18C196.87 62.59 199.83 67.72 204.39 71.12C206.16 72.45 208.1 73.38 210.13 73.96L209.77 74.94C209.43 75.85 209.02 76.77 208.77 77.72C208.53 78.61 208.34 79.73 209.06 80.46C209.38 80.78 209.81 80.93 210.23 81.01C212.71 81.51 215.36 81.62 217.89 81.59C219.52 81.58 221.2 81.48 222.78 81.06C223.67 80.82 224.12 79.9 223.92 79.03C223.51 77.13 223.1 75.23 222.69 73.33C230.91 69.22 234.7 60.03 234.99 51.15C235.04 49.67 234.99 48.15 234.86 46.61C237.97 44.54 240.53 41.84 241.55 38.27C242.46 35.1 241.75 31.9 240.32 29.04L240.37 28.97C242.05 28.74 243.59 28.01 244.67 26.49C246.1 24.48 246.23 21.77 245.6 19.42L245.59 19.44Z" fill="#08436A"/>
<path d="M134.42 118.42L130.5 117.61C134.57 97.87 149 98.2 164.27 98.55C169.4 98.67 174.69 98.79 180.08 98.26C196.85 96.61 198.41 91.33 199.79 86.67C200.34 84.82 200.9 82.91 202.34 81.43C205.49 78.18 212.34 78.44 220.27 78.73C221.93 78.79 223.6 78.85 225.23 78.88C229.16 78.94 230.33 82.34 231.35 85.34C232.79 89.54 234.27 93.88 242.24 94.28C245.32 94.44 249.64 93.85 254.21 93.23C268.95 91.24 289.13 88.51 295.85 106.29L292.11 107.7C286.52 92.89 268.9 95.27 254.75 97.19C249.77 97.86 245.48 98.44 242.04 98.27C231.37 97.73 229.08 91.05 227.57 86.63C226.52 83.56 226.09 82.89 225.17 82.88C223.51 82.85 221.81 82.79 220.12 82.73C214.02 82.5 207.11 82.25 205.2 84.22C204.45 85 204.06 86.3 203.61 87.81C201.66 94.41 198.42 100.47 180.45 102.24C174.82 102.79 169.4 102.67 164.15 102.55C148.84 102.2 137.78 101.95 134.39 118.42H134.42Z" fill="#A0D5F8"/>
<path d="M279.74 111.11C279.52 108.16 278.28 104.91 276.19 102.81C274.1 100.71 271.3 99.49 268.43 99.11C265.72 98.74 262.82 99.12 260.56 100.78C258.94 101.98 257.47 103.4 256.51 105.19C255.56 106.95 255.14 108.9 255.2 110.84C255.15 110.82 255.09 110.8 255.04 110.78C251.78 109.56 244.55 109.9 241.11 110.42C225.74 112.75 226.62 123.46 226.1 129.51C224.23 151.09 240.32 173.07 252.09 164.53C253.1 169.96 248.48 173.1 247.04 177.96C246.4 180.12 255.9 183.59 257.5 183.59C266.5 183.52 275.09 176.05 271.68 176.62C261.73 176 263.49 165.62 264.17 163.58C266.14 157.67 269.35 156.29 270.69 153.65C278.24 138.76 275.47 127.36 272.47 121.03C272.49 121.03 272.5 121.02 272.52 121.01C276.31 119.09 280.08 115.76 279.74 111.1V111.11Z" fill="#08436A"/>
<path d="M259.76 217.19L259.74 217.16C259.33 216.49 258.94 215.86 258.83 215.07C258.67 214.03 258.67 212.95 258.34 211.95C257.71 210.02 256.22 209.7 254.71 210.12L254.63 210.09C254.08 208.91 253.13 208 251.65 207.96C250.79 207.93 250.04 208.18 249.42 208.62L249.35 208.59C248.77 207.83 247.97 207.3 246.74 207.24C245.69 207.19 244.85 207.6 244.17 208.24H244.11C243.72 207.16 243.3 206.09 242.86 205.03C242.23 203.5 241.47 201.7 239.69 201.25C235.64 200.22 234.72 206.16 234.2 208.86C233.73 211.27 231.78 218.35 235.71 219.05C237.35 219.34 238.57 218.09 239.44 216.45L239.48 216.43C239.79 217.61 240.08 218.79 240.34 219.98C240.75 221.82 241.67 224.89 239.26 225.77C237.28 226.49 234.37 225.8 232.41 225.28C230.58 224.81 228.24 223.98 226.69 225.57C223.29 229.06 230.41 231.86 232.74 232.49C235.33 233.2 238.08 232.73 240.67 233.41C243.63 234.19 245.74 235.94 247.68 238.21C248.77 239.5 250.22 240.55 251.49 241.66C252.76 242.76 254.05 244.16 255.53 244.88C256.38 245.3 257.23 245.05 257.78 244.29C259.8 241.49 261.81 238.7 263.84 235.91L264.42 235.11C264.51 234.89 264.65 234.11 264.48 232.79C263.85 227.3 262.74 221.95 259.78 217.19H259.76Z" fill="#08436A"/>
<path d="M215.09 208.49C214.01 208.28 212.96 208.97 212.74 210.05C212.67 210.42 205.22 246.82 194.78 264.67C194.22 265.62 194.54 266.85 195.5 267.41C196.45 267.97 197.68 267.65 198.24 266.69C200.13 263.45 201.92 259.67 203.59 255.63C201.78 264.45 200 273 198.56 279.62C198.32 280.7 199.01 281.76 200.09 282C200.23 282.03 200.38 282.05 200.52 282.05C201.44 282.05 202.27 281.41 202.47 280.47C207.47 257.48 216.58 211.29 216.68 210.83C216.89 209.75 216.19 208.7 215.11 208.48L215.09 208.49Z" fill="#A0D5F8"/>
<path d="M338.13 223.27C333.87 202.09 325.18 176.1 313.56 166.67C305.69 160.29 292.69 157.38 279.81 168.39C279.38 168.76 278.81 169.28 278.13 169.89C273.8 173.84 263.67 183.08 256.29 181.97C248.26 180.76 243.88 177.2 240.36 174.34C238.4 172.75 236.7 171.37 234.72 170.59C220.48 164.98 211.55 167.01 200.95 172.42C185.16 180.49 175.04 206.2 171.18 225.77C170.97 226.85 171.67 227.91 172.75 228.12C173.84 228.34 174.88 227.63 175.1 226.55C178.07 211.5 187.24 183.92 202.77 175.99C212.58 170.98 220.35 169.24 233.26 174.32C234.67 174.87 236.14 176.07 237.85 177.45C241.54 180.45 246.6 184.55 255.7 185.93C264.97 187.33 275.69 177.55 280.84 172.85C281.48 172.27 282.01 171.78 282.42 171.43C289.64 165.26 300.96 161.59 311.05 169.78C320.08 177.11 328.96 197.91 334.22 224.06C339.39 249.76 339.52 274.01 334.57 285.84C332.09 291.76 328.62 294.37 323.99 293.86C297.04 290.84 272.25 274.14 255.78 247.95L268.12 234.95C277.25 241.45 286.78 245.94 295.23 249.93C295.74 250.17 296.24 250.41 296.75 250.65C296.92 250.77 297.11 250.85 297.3 250.91C308.5 256.21 317.24 260.66 320.58 268.03C321.04 269.04 322.22 269.49 323.23 269.03C324.24 268.57 324.68 267.39 324.23 266.38C320.32 257.74 310.55 252.76 299.04 247.31C286.19 233.88 285.73 214.23 285.58 207.74C285.55 206.64 284.64 205.72 283.54 205.79C282.44 205.82 281.56 206.73 281.59 207.83C281.73 213.72 282.1 229.81 290.93 243.45C283.82 240 276.25 236.01 269.08 230.7C268.27 230.1 267.13 230.2 266.44 230.93L251.84 246.33C251.22 246.99 251.11 247.98 251.59 248.75C265.55 271.58 285.57 287.69 308.02 294.6C308.64 296.44 309.33 298.62 310.01 301.24C310.24 302.14 311.05 302.74 311.94 302.74C312.11 302.74 312.27 302.72 312.44 302.68C313.51 302.4 314.15 301.31 313.87 300.24C313.45 298.63 313.03 297.19 312.62 295.88C316.21 296.77 319.86 297.43 323.55 297.84C324.05 297.9 324.58 297.93 325.12 297.93C329.42 297.93 334.71 295.87 338.26 287.39C344.62 272.2 342.37 244.31 338.15 223.27H338.13Z" fill="#A0D5F8"/>
<path d="M253.01 301.31C252.18 298.5 249.1 292.76 245.43 291.57C243.97 291.09 232.13 291.05 201.99 291.44C208.18 279.23 184.42 236.27 179.54 227.68C179.21 227.09 178.59 226.71 177.92 226.67C149.55 225.02 118.24 225.13 87.36 227C86.39 227.06 85.57 227.55 85.04 228.4C84.12 229.86 82.21 232.89 93.55 264.62C98.23 277.72 103.3 290.43 104.68 293.87C104.65 294 104.64 294.14 104.64 294.28C104.64 294.4 104.65 294.52 104.67 294.64L106.09 302.34C106.25 303.21 106.96 303.87 107.83 303.96C111.57 304.38 118.04 304.22 124.3 304.06C128.76 303.94 132.97 303.84 135.46 303.97C140.93 304.26 170.56 304.42 197 304.42H198.15C212.24 304.42 225.03 304.38 234.27 304.3C245.997 304.2 252.127 303.81 252.66 303.13C253.06 302.62 253.2 301.93 253.01 301.31ZM88.33 230.95C118.42 229.15 148.89 229.04 176.6 230.6C178.64 234.25 185.42 246.58 191.06 259.47C200.78 281.7 199.4 288.1 198.35 289.82C197.98 290.42 197.31 291.09 195.48 291.03C195.44 291.03 195.4 291.03 195.37 291.03C185.67 291.19 176.33 291.51 167.3 291.82C166.81 291.84 166.33 291.85 165.84 291.87C158.58 291.89 151.31 292.03 144.24 292.18C136.19 292.35 127.96 292.52 119.71 292.49C115.95 292.4 112.15 292.28 108.26 292.08C94.75 258.73 87.71 235.44 88.32 230.94L88.33 230.95ZM135.68 299.97C134.78 299.92 133.69 299.9 132.46 299.9C130.08 299.9 127.2 299.97 124.2 300.05C119.1 300.18 113.41 300.33 109.74 300.1L109.05 296.33C112.32 296.43 115.59 296.47 118.86 296.49C123.05 296.6 127.19 296.65 131.28 296.65C142.92 296.65 154.26 296.27 165.95 295.87C167.47 295.87 168.98 295.87 170.5 295.87C171.37 295.87 175.55 295.81 181.85 295.72C199.55 295.45 240.86 294.83 244.27 295.39C245.46 295.83 247.09 297.95 248.2 300.08C232.18 300.55 146.05 300.52 135.69 299.97H135.68Z" fill="#A0D5F8"/>
<path d="M141.44 272.26C139.86 272.26 138.26 271.8 136.9 270.89C134.31 269.16 133 266.19 133.3 262.74C133.61 259.22 135.85 256.93 139.15 256.76C143.04 256.59 148.21 259.58 149.01 263.78C149.04 263.92 149.05 264.06 149.05 264.2C148.98 267.47 147.5 270.11 144.99 271.42C143.9 271.99 142.68 272.27 141.45 272.27L141.44 272.26ZM137.28 263.09C137.11 265.07 137.76 266.66 139.12 267.56C140.33 268.36 141.94 268.49 143.13 267.86C144.29 267.25 144.95 266.04 145.04 264.34C144.52 262.51 141.57 260.62 139.35 260.75C138.43 260.8 137.46 261.11 137.28 263.09Z" fill="#FBC063"/>
</g>
<defs>
<clipPath id="clip0_1021_14017">
<rect width="456" height="305.05" fill="white"/>
</clipPath>
</defs>
</svg>
