<svg width="360" height="300" viewBox="0 0 360 300" fill="none" xmlns="http://www.w3.org/2000/svg">
<g clip-path="url(#clip0_657_10971)">
<mask id="mask0_657_10971" style="mask-type:alpha" maskUnits="userSpaceOnUse" x="-44" y="-87" width="408" height="368">
<path d="M356.888 47.6733C384.325 147.72 317.46 254.138 219.805 275.215C19.3538 305.495 -55.7269 208.178 -42.5349 81.512C-31.6372 -23.1243 62.6246 -89.7381 167.786 -86.8165C258.372 -84.2998 332.921 -39.7207 356.888 47.6733Z" fill="#D9D9D9"/>
</mask>
<g mask="url(#mask0_657_10971)">
<g opacity="0.7" filter="url(#filter0_f_657_10971)">
<circle cx="400" cy="232" r="119" fill="#0B5A8E"/>
</g>
<g opacity="0.7" filter="url(#filter1_f_657_10971)">
<circle cx="29" cy="309" r="119" fill="#0B5A8E"/>
</g>
<path fill-rule="evenodd" clip-rule="evenodd" d="M297.257 68.3782C296.228 68.1213 295.136 67.7909 293.981 67.3994C287.63 63.68 287.505 53.4028 296.165 51.3474C300.483 50.0994 303.733 52.4852 306.105 54.2103C307.059 54.9077 307.862 55.495 308.54 55.703C309.469 55.8375 310.448 55.9477 311.465 56.0578C318.531 56.8408 326.927 57.7829 323.764 67.0324C335.349 68.3904 331.496 73.7982 327.09 80.0012C325.27 82.5583 323.363 85.2499 322.396 87.8437C319.585 95.3926 317.752 95.3069 316.949 92.7621C316.924 92.7988 316.886 92.8477 316.861 92.8844C315.318 96.3714 314.64 100.874 314.427 104.654C314.314 106.71 314.276 108.79 314.803 110.772C315.33 112.754 316.359 114.919 318.305 115.702C320.94 116.767 323.877 117.232 321.982 119.556C318.907 123.337 308.402 122.994 302.001 122.236C291.659 121 293.592 120.633 293.592 120.633C295.061 118.418 297.671 116.914 298.863 115.372C301.562 111.91 302.252 109.181 303.382 104.14C292.023 106.012 286.99 84.369 297.27 68.3415L297.257 68.3782Z" fill="#052C46"/>
<path fill-rule="evenodd" clip-rule="evenodd" d="M325.294 74.7053C324.787 78.0788 324.157 81.5259 322.969 84.74L322.314 86.3102C322.512 86.3715 322.71 86.4574 322.895 86.5433C323.872 87.034 324.626 87.8436 325.059 88.8495C326.543 92.2599 324.317 96.9215 320.595 97.5226C320.026 97.6207 319.408 97.5962 318.802 97.4858C317.825 99.6571 316.303 101.399 314.25 102.282C310.615 103.828 306.397 102.798 302.687 101.89H302.663C302.267 101.792 301.871 101.693 301.475 101.595C300.548 101.362 299.608 101.129 298.668 100.933C298.445 100.884 298.309 101.068 298.272 101.166C297.345 102.699 295.576 103.362 293.944 103.239C293.09 103.178 292.2 102.822 291.545 102.16C290.691 101.313 290.419 100.185 290.444 98.9701C290.444 98.4794 290.864 97.9396 291.26 97.8047C293.128 97.13 295.131 97.2281 297.073 97.5348C298.767 97.8047 300.449 98.2218 302.118 98.6389C304.233 99.1664 306.348 99.6939 308.5 99.9147C310.033 100.074 311.827 100.013 313.199 99.424C313.978 99.0928 314.436 98.8106 315.104 98.0991C315.104 98.0991 315.116 98.0869 315.129 98.0746C315.153 98.0501 315.153 98.0378 315.252 97.9274C315.314 97.8538 315.376 97.7679 315.438 97.6943C315.574 97.5103 315.71 97.3017 315.833 97.1055C316.007 96.8233 316.143 96.578 316.266 96.2836C315.871 95.9278 315.5 95.523 315.203 95.1427C314.77 94.5907 314.424 93.9528 314.238 93.2781C313.842 91.7446 314.164 90.2603 315.116 88.9845C315.957 87.8559 317.256 87.034 318.567 86.4819L319.272 85.2307C319.482 84.8136 319.68 84.4088 319.853 83.9794C320.038 83.5255 320.199 83.0594 320.36 82.5932C320.385 82.5196 320.483 82.2006 320.508 82.1393C320.582 81.894 320.644 81.6486 320.718 81.4155C321.015 80.336 321.25 79.2442 321.473 78.1524C321.968 75.6621 322.339 73.1351 322.623 70.608C322.87 68.3508 323.056 66.0813 323.118 63.8119C323.118 63.9959 323.118 63.7506 323.118 63.5297C323.118 63.4316 323.118 63.3335 323.118 63.3089C323.118 63.1495 323.118 63.0022 323.118 62.8428C323.118 62.7692 323.118 62.6956 323.118 62.622C323.118 62.2539 323.118 61.8859 323.081 61.5179C323.068 61.1989 323.043 60.88 322.994 60.561L322.87 60.4384C321.052 59.322 319.111 58.8436 317.045 58.3284C316.452 58.1812 315.858 58.034 315.252 57.8622C314.275 57.5923 313.41 57.4083 312.569 57.2243C311.233 56.9299 309.971 56.66 308.45 56.108C308.017 55.9485 307.238 55.421 307.238 55.421L306.014 54.4642L307.857 53.6177C307.857 53.6177 309.304 52.9921 309.502 53.0534C309.502 53.0534 309.588 53.078 309.662 53.1025C309.662 53.1025 309.737 53.127 309.749 53.127C309.811 53.1393 309.873 53.1638 309.934 53.1761C310.429 53.3233 310.936 53.446 311.431 53.5809C311.839 53.6913 312.247 53.7895 312.655 53.8999C313.471 54.1084 314.288 54.317 315.104 54.5378C317.837 55.2738 320.607 56.0467 323.192 57.2243C323.291 57.2734 323.402 57.3225 323.513 57.3715C324.429 57.7764 325.603 58.2916 325.95 59.1871C326.11 59.641 326.172 60.1562 326.222 60.6346C326.333 61.9105 326.308 63.2108 326.271 64.4743C326.172 67.8969 325.814 71.3318 325.307 74.7176L325.294 74.7053Z" fill="#9CFCD7"/>
<path d="M216.968 133.361C218.035 123.562 211.434 121.54 209.642 115.359C208.134 110.146 212.928 112.567 212.928 112.567C212.928 112.567 211.506 109.192 213.383 108.209C214.877 107.425 217.096 110.687 217.096 110.687C217.096 110.687 217.039 106.471 218.874 106.015C220.638 105.574 222.444 109.191 222.444 109.191C222.444 109.191 223.981 94.6924 225.047 91.9008C226.114 89.1093 224.464 109.006 225.09 114.191C225.275 115.757 225.318 117.267 227.807 129.858L216.982 133.361H216.968Z" fill="#052C46" stroke="#052C46" stroke-width="4" stroke-miterlimit="10"/>
<path d="M243.938 157.859C245.929 139.372 248.533 132.308 254.265 126.112C259.87 120.073 274.279 113.65 290.524 119.29C305.702 124.56 317.636 122.936 326.612 118.321C335.531 113.749 352.857 106.201 370.524 125.314C395.275 152.119 386.484 261.703 386.484 261.703" stroke="#A0D5F8" stroke-width="4" stroke-linecap="round" stroke-linejoin="round"/>
<path d="M249.77 181.573C247.693 171.332 238.376 137.107 235.26 132.079C232.814 128.12 219.997 133.447 212.501 135.768C211.32 136.139 210.552 138.517 210.609 139.899C211.69 166.461 231.249 278.324 258.689 228.873" stroke="#A0D5F8" stroke-width="4" stroke-linecap="round" stroke-linejoin="round"/>
<path d="M271.733 154.797C270.894 193.11 252.928 244.953 246.911 279.235" stroke="#A0D5F8" stroke-width="4" stroke-linecap="round" stroke-linejoin="round"/>
<path d="M341.348 154.697C335.032 192.497 343.254 227.691 342.799 262.486" stroke="#A0D5F8" stroke-width="4" stroke-linecap="round" stroke-linejoin="round"/>
<path d="M168.866 186.492C169.962 186.981 171.069 187.445 172.177 187.898C172.25 187.934 172.398 187.898 172.46 187.898C173.223 187.493 173.801 186.897 174.416 186.277H174.429C174.982 185.705 175.45 185.419 176.188 185.252C177.406 184.978 178.649 184.966 179.843 184.621C182.07 183.965 184.212 182.928 186.316 181.892C188.432 180.855 190.512 179.758 192.592 178.65C194.278 177.744 196.025 176.946 197.686 175.98L199.052 175.039C199.901 174.562 202.719 173.001 201.538 170.975C201.415 170.748 201.279 170.641 201.193 170.367C201.156 170.224 201.169 170.081 201.107 169.938C200.984 169.64 200.713 169.425 200.443 169.306C199.569 168.913 198.806 169.509 197.969 169.711C197.957 169.711 197.92 169.723 197.883 169.664C197.292 168.639 195.791 169.282 194.868 169.533C193.145 170.021 191.41 170.498 189.688 170.998C188.063 171.463 186.488 172.047 184.913 172.691C183.879 173.108 182.624 173.501 181.541 173.227C181.406 173.203 181.43 173.144 181.467 173.12C183.129 172.905 184.888 172.214 185.984 170.927C186.414 170.426 186.833 169.735 186.5 169.02C186.168 168.305 185.282 168.031 184.605 168.186C183.547 168.412 182.538 168.877 181.504 169.187C179.732 169.711 177.899 169.926 176.114 170.379C174.687 170.736 173.161 171.058 171.807 171.702C171.229 171.976 170.872 172.536 170.528 173.084L170.503 173.132C169.986 173.93 169.605 174.848 169.063 175.623C167.783 177.446 165.987 178.781 164.547 180.449C164.166 180.89 163.28 181.749 163.39 182.416C163.513 183.143 164.387 183.727 164.904 184.096C166.159 185.014 167.476 185.872 168.891 186.492H168.866Z" fill="#052C46"/>
<path fill-rule="evenodd" clip-rule="evenodd" d="M78.8959 93.9599C75.6409 93.7253 71.831 93.1698 68.5884 93.6389C61.018 94.7129 56.8876 99.4782 56.8876 99.4782C56.8876 99.4782 41.4633 112.589 58.0342 135.304C59.6741 137.551 62.5715 138.748 64.8525 144.131C65.6416 145.995 64.8525 156.021 58.774 156.871C55.7697 157.291 49.5876 156.773 50.8002 157.71C52.5844 159.088 63.2863 162.02 65.6279 162.652C68.661 163.467 85.0396 163.529 84.2998 161.554C77.1605 157.71 75.3203 149.55 76.2327 144.143C86.7498 143.933 97.6122 130.798 94.2955 110.737C93.3708 105.12 93.4078 95.0216 78.8712 93.9722L78.8959 93.9599Z" fill="#052C46"/>
<path d="M62.6317 98.9266C61.0936 96.1847 58.9117 93.9773 55.8614 93.0504C51.8194 91.8163 46.8223 93.2116 44.2489 96.5918C42.5723 98.7868 41.6553 101.362 41.4947 104.113C41.331 107.041 42.5001 109.52 44.2641 111.782C45.5795 113.47 47.2284 114.869 49.4094 115.289C51.5903 115.709 53.6625 115.292 55.6175 114.455C61.6907 111.865 66.7612 107.115 71.7139 102.87C72.9801 101.784 72.7122 99.5661 71.5921 98.5063C70.2746 97.261 68.5022 97.5322 67.2332 98.6306L62.6317 98.9266Z" fill="#052C46"/>
<path d="M85.3813 118.058C85.4553 118.144 85.5169 118.231 85.5909 118.305C85.5292 118.243 85.1717 117.725 85.4059 118.07C85.5416 118.268 85.6895 118.478 85.8251 118.688C86.0841 119.095 86.3183 119.527 86.5403 119.959C87.0088 120.885 87.4157 121.848 87.8225 122.799C88.7103 124.91 89.6103 127.021 90.8556 128.946L91.9653 124.724C91.842 124.798 91.5954 124.897 91.4968 124.996C91.6447 124.848 92.1502 124.761 91.6447 124.91C91.5214 124.947 91.3241 124.947 91.2008 125.008C91.694 124.947 91.8173 124.934 91.5707 124.947C91.4844 124.947 91.3858 124.947 91.2995 124.947C91.1392 124.947 90.8926 124.897 90.7446 124.922C90.9666 124.885 91.4474 125.045 90.9173 124.934C90.5844 124.873 90.2515 124.774 89.9309 124.663C89.8323 124.626 89.2528 124.44 89.7213 124.589C90.1898 124.737 89.6227 124.539 89.5117 124.49C89.1295 124.317 88.7596 124.119 88.3897 123.934C87.5266 123.49 86.6636 123.095 85.7635 122.724C85.073 122.441 84.0004 122.675 83.3839 123.033C82.7674 123.391 82.1386 124.144 81.966 124.872C81.781 125.663 81.8304 126.551 82.2742 127.255C82.7181 127.959 83.3346 128.354 84.1113 128.675C83.3346 128.354 83.9634 128.613 84.136 128.699C84.3579 128.798 84.5799 128.909 84.7895 129.02C85.1593 129.206 85.5292 129.403 85.9114 129.588C86.8362 130.045 87.7979 130.502 88.8089 130.773C90.8803 131.329 93.2476 131.243 95.0723 130.033C96.4163 129.144 97.119 127.28 96.182 125.811C93.6914 121.947 92.7667 117.231 89.7583 113.675C88.7103 112.441 86.4663 112.515 85.3936 113.675C84.1853 114.996 84.2839 116.725 85.3936 118.046L85.3813 118.058Z" fill="#052C46"/>
<path d="M140.246 217.329C143.525 198.335 152.232 181.464 153.467 181.357C164.995 180.426 176.294 191.953 175.105 194.381C162.555 219.97 145.034 301.227 126.354 282.463C105.387 261.408 99.2875 225.91 98.6318 199.267" stroke="#A0D5F8" stroke-width="4" stroke-linecap="round" stroke-linejoin="round"/>
<path d="M98.6316 199.282C96.3443 240.292 107.914 278.528 118.272 319.809" stroke="#A0D5F8" stroke-width="4" stroke-linecap="round" stroke-linejoin="round"/>
<path d="M23.0429 186.319C13.7715 226.337 24.5678 271.241 21.7467 308.434" stroke="#A0D5F8" stroke-width="4" stroke-linecap="round" stroke-linejoin="round"/>
<path d="M143.646 233.284C131.447 201.618 144.317 177.647 127.376 163.05C121.596 158.073 113.149 155.92 100.096 159.325C83.4285 163.661 63.3304 165.615 48.417 156.76C41.555 152.683 24.9947 149.981 16.5621 158.302C0.520212 174.135 -1.91961 236.612 11.3164 257.377C17.5837 267.21 20.7555 259.866 20.7555 259.866" stroke="#A0D5F8" stroke-width="4" stroke-linecap="round" stroke-linejoin="round"/>
</g>
</g>
<defs>
<filter id="filter0_f_657_10971" x="213" y="45" width="374" height="374" filterUnits="userSpaceOnUse" color-interpolation-filters="sRGB">
<feFlood flood-opacity="0" result="BackgroundImageFix"/>
<feBlend mode="normal" in="SourceGraphic" in2="BackgroundImageFix" result="shape"/>
<feGaussianBlur stdDeviation="34" result="effect1_foregroundBlur_657_10971"/>
</filter>
<filter id="filter1_f_657_10971" x="-158" y="122" width="374" height="374" filterUnits="userSpaceOnUse" color-interpolation-filters="sRGB">
<feFlood flood-opacity="0" result="BackgroundImageFix"/>
<feBlend mode="normal" in="SourceGraphic" in2="BackgroundImageFix" result="shape"/>
<feGaussianBlur stdDeviation="34" result="effect1_foregroundBlur_657_10971"/>
</filter>
<clipPath id="clip0_657_10971">
<rect width="360" height="300" fill="white"/>
</clipPath>
</defs>
</svg>
