<svg width="360" height="244" viewBox="0 0 360 244" fill="none" xmlns="http://www.w3.org/2000/svg">
<g clip-path="url(#clip0_1641_9201)">
<mask id="mask0_1641_9201" style="mask-type:alpha" maskUnits="userSpaceOnUse" x="-45" y="-126" width="405" height="366">
<path d="M353.564 8.01956C380.811 107.374 314.409 213.056 217.429 233.987C18.3646 264.058 -56.1967 167.414 -43.0959 41.6242C-32.2736 -62.2883 61.3361 -128.441 165.77 -125.54C255.73 -123.041 329.762 -78.7699 353.564 8.01956Z" fill="#D9D9D9"/>
</mask>
<g mask="url(#mask0_1641_9201)">
<g opacity="0.7" filter="url(#filter0_f_1641_9201)">
<circle cx="326" cy="195" r="119" fill="#FCFDFF"/>
</g>
<g clip-path="url(#clip1_1641_9201)">
<path d="M249.919 142.497C300.183 154.841 310.305 159.102 305.814 176.616C305.226 178.931 304.397 181.395 303.396 184.067C291.5 179.472 273.963 177.1 253.719 176.616C253.512 177.296 255.585 179.656 254.571 185.736C253.385 192.899 249.09 203.93 248.848 204.771C256.713 211.841 290.107 225.74 289.808 226.857C289.347 228.561 283.854 239.397 283.417 241.182C189.442 225.798 237.045 210.287 249.908 142.508L249.919 142.497Z" fill="#9CFCD7"/>
<path d="M131.209 107.859C133.144 107.249 134.963 106.351 136.725 105.372C137.439 104.969 138.66 104.37 138.902 103.495C139.12 102.689 138.038 101.572 137.589 100.996C135.873 98.843 133.639 97.0582 132.154 94.7206C131.52 93.7188 131.117 92.5903 130.519 91.5655L130.484 91.5079C130.092 90.817 129.678 90.0915 128.952 89.7115C127.248 88.8018 125.268 88.2606 123.425 87.6849C121.122 86.9594 118.727 86.5218 116.447 85.7043C115.111 85.2321 113.833 84.5643 112.463 84.1843C111.588 83.9309 110.39 84.1843 109.872 85.0018C109.354 85.8194 109.826 86.7061 110.332 87.3509C111.657 89.0437 113.994 90.0685 116.205 90.483L115.837 90.5752C114.397 90.7479 112.831 90.1721 111.542 89.5618C109.538 88.6406 107.534 87.777 105.439 87.04C103.228 86.257 100.994 85.52 98.7713 84.7485C97.6082 84.357 95.7543 83.4703 94.8446 84.5067C94.81 84.5527 94.764 84.5988 94.7294 84.6564C94.6604 84.6333 94.6028 84.6103 94.5337 84.5873C93.5088 84.2303 92.5876 83.5164 91.4476 83.8849C91.0676 84.0115 90.6991 84.2418 90.4919 84.5873C90.3882 84.76 90.3997 84.9212 90.3307 85.094C90.1925 85.4164 90.0082 85.5315 89.8125 85.7964C88.4076 87.6273 90.4343 89.2279 91.8391 90.3333H91.8622C92.2422 90.6443 92.5761 90.9091 92.7834 91.1394L94.3494 92.2103C96.4337 93.5461 98.6446 94.6861 100.763 95.9412C103.377 97.4958 106.003 99.0273 108.686 100.49C111.357 101.952 114.063 103.415 116.931 104.428C118.474 104.969 120.12 105.119 121.686 105.568C122.654 105.844 123.229 106.236 123.897 106.973L123.92 106.996C124.623 107.767 125.291 108.504 126.177 109.057C126.223 109.092 126.281 109.115 126.327 109.149C126.408 109.172 126.626 109.207 126.937 109.115C128.365 108.7 129.793 108.274 131.209 107.825V107.859Z" fill="#08436A"/>
<path d="M232.348 195.904C239.764 199.14 241.56 200.211 249.091 201.858C249.218 201.282 249.667 200.096 250.761 197.781C253.789 191.356 252.591 180.301 252.591 180.301C246.569 178.678 246.005 178.205 239.798 173.024L239.671 172.92C238.612 172.033 235.273 169.972 234.018 169.488C232.774 168.993 231.035 169.696 231.001 171.101C231.001 171.78 231.346 172.494 231.093 173.104C230.851 173.668 230.195 173.841 229.688 174.129C228.018 175.085 227.857 178.033 229.423 179.265C228.513 179.99 227.569 180.75 227.074 181.844C226.567 182.938 226.659 184.447 227.581 185.195C225.991 186.784 225.393 189.398 226.107 191.644C226.821 193.878 228.801 195.616 230.989 195.904H232.359H232.348Z" fill="#08436A"/>
<path fill-rule="evenodd" clip-rule="evenodd" d="M267.399 30.0975C266.225 29.6369 265.004 29.1072 263.703 28.4739C256.736 23.0963 257.934 10.6254 268.343 9.31268C273.56 8.39147 277.072 11.7078 279.617 14.1375C280.641 15.1048 281.505 15.9339 282.277 16.2793C283.336 16.5672 284.488 16.8321 285.662 17.1084C293.838 19.02 303.568 21.2884 298.651 32.0781C312.055 35.2909 306.838 41.3363 300.862 48.2569C298.398 51.1127 295.807 54.1066 294.333 57.1236C290.038 65.9096 287.919 65.5412 287.297 62.3284C286.917 62.789 286.537 63.2266 286.169 63.6642L286.698 63.3648C284.407 67.3836 283.371 72.0127 282.622 76.6072C282.219 79.083 281.908 81.5933 282.265 84.069C282.622 86.5448 283.555 89.2969 285.731 90.5175C286.745 91.0818 288.437 91.5309 290.13 91.9684C293.377 92.8206 296.601 93.6612 294.943 95.3539C292.191 98.1636 272.097 95.423 264.705 93.6381C252.752 90.7478 251.969 88.94 251.969 88.94C265.983 88.94 267.33 83.8618 269.633 75.1793C269.702 74.9145 269.771 74.6612 269.84 74.3848C256.298 75.0642 253.235 48.1187 267.399 30.086V30.0975Z" fill="#08436A"/>
<path fill-rule="evenodd" clip-rule="evenodd" d="M300.619 42.2345C299.571 46.2533 298.374 50.3412 296.531 54.0721L295.507 55.9606C295.725 56.0642 295.944 56.1794 296.14 56.3061C297.257 57.0315 298.04 58.1139 298.443 59.3921C299.767 63.7333 296.508 69.0533 291.948 69.2721C291.257 69.3067 290.509 69.203 289.807 68.9958C288.344 71.5176 286.26 73.4406 283.646 74.2121C279.063 75.5709 274.123 73.763 269.77 72.1624H269.736C269.275 71.9782 268.814 71.8055 268.354 71.6442C267.191 71.2182 266.028 70.7806 264.853 70.3891C264.761 70.3545 264.692 70.4812 264.669 70.5388C263.368 72.3697 261.088 72.957 259.073 72.577C258.048 72.3927 257.034 71.84 256.332 70.9648C255.422 69.8248 255.238 68.443 255.434 66.9921C255.514 66.4048 256.079 65.8176 256.574 65.7024C258.911 65.1497 261.307 65.5412 263.61 66.1745C265.613 66.7273 267.582 67.4527 269.54 68.1897C272.016 69.1109 274.491 70.0321 277.059 70.5964C278.89 70.9994 281.044 71.1606 282.782 70.6424C283.773 70.3545 284.348 70.0667 285.247 69.3067C285.258 69.3067 285.27 69.2836 285.281 69.2836C285.304 69.2606 285.316 69.2491 285.454 69.1224C285.534 69.0418 285.627 68.9497 285.707 68.8691C285.903 68.6618 286.087 68.443 286.271 68.2242C286.548 67.8788 286.744 67.5794 286.962 67.1994C286.525 66.7158 286.145 66.1745 285.822 65.6679C285.373 64.9424 285.039 64.1133 284.913 63.2727C284.636 61.3727 285.212 59.6109 286.525 58.1945C287.699 56.9279 289.392 56.1103 291.05 55.6267L292.087 54.1642C292.397 53.6921 292.685 53.22 292.95 52.7248C293.238 52.1951 293.48 51.6539 293.733 51.1127C293.768 51.0206 293.929 50.6521 293.964 50.5715C294.079 50.2836 294.194 50.0073 294.309 49.7194C294.804 48.4527 295.23 47.163 295.633 45.8618C296.554 42.9024 297.326 39.9085 297.982 36.88C298.57 34.1739 299.088 31.4564 299.456 28.7158C299.422 28.9345 299.456 28.6351 299.491 28.3818C299.502 28.2551 299.514 28.1515 299.525 28.1055C299.548 27.9212 299.571 27.7255 299.583 27.5412C299.583 27.4491 299.594 27.3685 299.606 27.2764C299.652 26.8273 299.687 26.3782 299.71 25.9291C299.733 25.5376 299.744 25.1461 299.733 24.7545L299.606 24.5933C297.568 22.9812 295.311 22.1406 292.904 21.2309C292.213 20.9776 291.522 20.7127 290.808 20.4248C289.668 19.9642 288.655 19.6188 287.676 19.2848C286.11 18.7436 284.636 18.237 282.886 17.3733C282.391 17.1315 281.527 16.3715 281.527 16.3715L280.111 14.7364L282.494 14.2758C282.494 14.2758 284.314 13.723 284.544 13.8267C284.556 13.8267 284.648 13.8727 284.728 13.9073C284.728 13.9073 284.821 13.9418 284.832 13.9533C284.901 13.9879 284.97 14.0109 285.051 14.0455C285.627 14.2873 286.214 14.5176 286.79 14.7364C287.262 14.9206 287.745 15.1048 288.217 15.2891C289.173 15.6576 290.117 16.0261 291.073 16.3945C294.251 17.6612 297.476 18.9739 300.412 20.7703C300.527 20.8394 300.654 20.9085 300.781 20.9891C301.817 21.5994 303.164 22.3939 303.452 23.5224C303.59 24.0867 303.59 24.7315 303.59 25.3073C303.567 26.8733 303.348 28.4394 303.141 29.9709C302.565 34.1048 301.702 38.2158 300.654 42.2576L300.619 42.2345Z" fill="#FBC063"/>
<path d="M360.097 116.323C360.074 116.231 359.878 115.759 359.844 115.667C359.82 115.609 359.59 115.125 359.567 115.068C350.793 99.0157 336.514 91.3121 316.742 91.3121C310.098 91.3121 304.133 91.9685 298.376 92.5903C281.713 94.4097 265.96 96.137 235.411 82.2267C218.622 74.5921 203.951 84.0921 195.799 95.5267C183.282 113.087 179.597 121.965 171.398 142.347C165.353 127.596 159.388 115.598 146.583 99.1654C146.191 98.6703 145.616 98.3479 144.982 98.2903C144.349 98.2327 143.727 98.4285 143.244 98.8545C137.083 104.255 130.98 106.547 123.138 108.47C122.862 108.539 122.539 108.596 122.205 108.665C120.11 109.091 117.242 109.679 116.148 112.074C115.538 113.421 115.722 114.826 115.826 115.575C119.442 144.028 132.684 171.055 153.112 191.667C161.564 200.176 174.219 211.496 186.564 211.507C187.577 211.507 188.049 211.335 191.008 207.799C192.402 206.141 194.613 203.366 197.25 199.555C200.508 194.845 204.78 188.051 208.661 179.841C209.836 196.63 212.68 223.518 221.063 233.697C232.083 247.066 253.121 258.685 277.648 258.685C293.056 258.685 309.822 254.102 326.346 242.495C326.979 242.045 327.325 241.343 327.325 240.618C329.513 240.859 331.631 240.986 333.67 240.986C337.573 240.986 341.143 240.514 344.252 239.443C362.216 233.282 371.416 215.307 371.612 186.036C371.796 158.146 363.655 128.103 360.074 116.311L360.097 116.323ZM342.778 235.102C318.711 243.358 260.836 211.139 249.62 204.679C252.004 199.981 257.301 188.143 255.205 179.012C263.98 178.896 290.718 179.887 321.556 194.304C322.776 199.796 324.273 204.713 326.024 208.709C326.404 209.573 327.244 210.091 328.131 210.091C328.442 210.091 328.753 210.033 329.052 209.895C330.215 209.388 330.745 208.03 330.238 206.855C322.765 189.87 320.151 153.54 324.849 132.099C325.125 130.855 324.331 129.623 323.099 129.358C321.855 129.082 320.623 129.876 320.358 131.108C316.857 147.057 317.18 170.179 320.462 188.73C283.164 172.148 253.133 174.405 251.831 174.521C251.071 174.578 250.392 175.016 250.024 175.672C249.644 176.328 249.62 177.135 249.954 177.814C253.662 185.437 247.317 199.578 244.554 204.379C243.932 205.473 244.289 206.855 245.371 207.5C247.628 208.847 290.188 234.1 322.062 239.823C282.162 266.642 241.214 250.878 224.644 230.749C215.467 219.614 213.417 182.742 212.737 170.628L212.703 169.915L214.511 131.742C214.568 130.498 213.636 129.439 212.392 129.335C211.183 129.232 210.054 130.141 209.916 131.373C208.546 143.51 207.383 156.522 208.062 169.558C200.474 189.387 188.567 203.873 185.723 206.844C174.081 206.21 161.288 193.313 156.405 188.396C136.68 168.498 123.898 142.416 120.409 114.953C120.34 114.469 120.328 114.147 120.351 113.997C120.789 113.628 122.367 113.306 123.138 113.156C123.541 113.076 123.91 112.995 124.244 112.915C131.982 111.015 138.188 108.769 144.407 103.852C158.8 122.725 163.959 135.83 171.64 155.336C173.206 159.309 174.876 163.547 176.741 168.153C177.225 169.327 178.56 169.903 179.747 169.419C180.921 168.936 181.497 167.6 181.013 166.414C179.148 161.819 177.49 157.593 175.924 153.644C175.221 151.859 174.542 150.143 173.874 148.45C173.908 148.381 173.943 148.324 173.977 148.255L175.106 145.445C183.811 123.785 187.082 115.678 199.564 98.1521C203.007 93.3273 215.616 78.2194 233.511 86.3721C265.223 100.812 282.335 98.9351 298.894 97.1273C304.536 96.5054 310.363 95.8721 316.765 95.8721C334.487 95.8721 347.488 103.011 355.422 117.095C355.491 117.21 355.56 117.359 355.617 117.486C355.71 117.716 355.767 117.924 355.848 118.188C361.582 137.396 383.899 220.95 342.801 235.056L342.778 235.102Z" fill="#A0D5F8"/>
</g>
</g>
</g>
<defs>
<filter id="filter0_f_1641_9201" x="139" y="8" width="374" height="374" filterUnits="userSpaceOnUse" color-interpolation-filters="sRGB">
<feFlood flood-opacity="0" result="BackgroundImageFix"/>
<feBlend mode="normal" in="SourceGraphic" in2="BackgroundImageFix" result="shape"/>
<feGaussianBlur stdDeviation="34" result="effect1_foregroundBlur_1641_9201"/>
</filter>
<clipPath id="clip0_1641_9201">
<rect width="360" height="244" fill="white"/>
</clipPath>
<clipPath id="clip1_1641_9201">
<rect width="282.282" height="249.545" fill="white" transform="translate(89.3633 9.15149)"/>
</clipPath>
</defs>
</svg>
