<svg width="360" height="180" viewBox="0 0 360 180" fill="none" xmlns="http://www.w3.org/2000/svg">
<mask id="mask0_944_1032" style="mask-type:alpha" maskUnits="userSpaceOnUse" x="0" y="0" width="360" height="180">
<rect width="360" height="180" fill="white"/>
</mask>
<g mask="url(#mask0_944_1032)">
<g clip-path="url(#clip0_944_1032)">
<path fill-rule="evenodd" clip-rule="evenodd" d="M266.087 16.0514C265.14 15.8148 264.126 15.5119 263.056 15.1428C257.182 11.7073 257.068 2.2146 265.074 0.312275C269.062 -0.842368 272.075 1.36281 274.263 2.95281C275.144 3.59638 275.883 4.13585 276.518 4.3346C277.38 4.45763 278.28 4.56174 279.218 4.66585C285.755 5.38513 293.514 6.25585 290.596 14.8021C301.311 16.0608 297.748 21.0485 293.675 26.7839C291.988 29.1499 290.226 31.6296 289.336 34.0241C286.74 40.9992 285.044 40.9141 284.296 38.5669C284.277 38.6048 284.239 38.6426 284.22 38.6805C282.79 41.8983 282.164 46.0626 281.965 49.555C281.861 51.4573 281.823 53.3785 282.316 55.2051C282.799 57.0317 283.756 59.0382 285.556 59.7574C287.991 60.7417 290.71 61.1676 288.957 63.316C286.115 66.8083 276.395 66.496 270.483 65.7957C260.924 64.6505 262.705 64.3192 262.705 64.3192C264.06 62.2749 266.476 60.8837 267.575 59.4641C270.066 56.2651 270.711 53.7476 271.753 49.0912C261.246 50.8232 256.595 30.8251 266.106 16.023V16.0608L266.087 16.0514Z" fill="#052C46"/>
<path fill-rule="evenodd" clip-rule="evenodd" d="M292.017 21.9003C291.553 25.014 290.965 28.2035 289.866 31.1658L289.26 32.6138C289.44 32.6706 289.629 32.7463 289.8 32.8315C290.7 33.2858 291.401 34.0335 291.799 34.961C293.173 38.1126 291.117 42.4188 287.668 42.9772C287.147 43.0719 286.569 43.0435 286.011 42.9394C285.111 44.9458 283.699 46.5547 281.804 47.3687C278.441 48.7978 274.538 47.8419 271.108 47.009H271.089C270.72 46.9144 270.36 46.8292 269.991 46.7345C269.138 46.5169 268.266 46.3087 267.395 46.1194C267.186 46.072 267.063 46.2424 267.025 46.337C266.173 47.7567 264.534 48.3624 263.018 48.2488C262.232 48.192 261.407 47.8608 260.801 47.2551C260.015 46.4695 259.759 45.4285 259.787 44.3117C259.787 43.8574 260.176 43.3558 260.545 43.2328C262.269 42.6081 264.126 42.7028 265.917 42.9867C267.48 43.2328 269.034 43.6208 270.578 44.0088C272.529 44.4915 274.491 44.9837 276.48 45.1919C277.901 45.3433 279.559 45.2865 280.828 44.7376C281.548 44.4347 281.975 44.1697 282.591 43.5167C282.591 43.5167 282.6 43.5072 282.609 43.4978C282.628 43.4788 282.628 43.4599 282.723 43.3653C282.78 43.299 282.837 43.2138 282.894 43.1476C283.017 42.9772 283.149 42.7879 283.263 42.6081C283.424 42.3431 283.547 42.1254 283.661 41.851C283.292 41.5197 282.951 41.1506 282.676 40.8004C282.278 40.2894 281.956 39.7026 281.785 39.0779C281.416 37.6583 281.719 36.286 282.6 35.1124C283.377 34.0713 284.58 33.3142 285.793 32.8031L286.446 31.6485C286.636 31.2604 286.825 30.8913 286.986 30.4938C287.157 30.0774 287.308 29.6421 287.46 29.2162C287.479 29.1499 287.574 28.8565 287.593 28.7997C287.659 28.5726 287.716 28.3454 287.782 28.1278C288.057 27.134 288.275 26.1213 288.483 25.1181C288.938 22.8183 289.288 20.4806 289.544 18.1524C289.772 16.0703 289.942 13.9692 289.999 11.8776C289.999 12.0479 289.999 11.8208 289.999 11.6126V10.7703C289.999 10.4296 289.999 10.0888 289.961 9.74812C289.952 9.45473 289.923 9.16134 289.885 8.86794L289.772 8.75437C288.095 7.72277 286.295 7.27794 284.391 6.80473C283.841 6.67223 283.292 6.53027 282.733 6.37884C281.833 6.13277 281.027 5.96241 280.251 5.79205C279.019 5.51759 277.854 5.27152 276.442 4.76044C276.044 4.60902 275.324 4.12634 275.324 4.12634L274.187 3.24616L275.893 2.46062C275.893 2.46062 277.228 1.8833 277.408 1.94009C277.408 1.94009 277.484 1.95902 277.56 1.98741C277.56 1.98741 277.626 2.00634 277.636 2.00634C277.693 2.0158 277.749 2.04419 277.806 2.05366C278.261 2.18616 278.735 2.29973 279.189 2.43223C279.568 2.53634 279.947 2.62152 280.326 2.72562C281.084 2.91491 281.833 3.11366 282.591 3.31241C285.12 3.99384 287.678 4.70366 290.065 5.79205C290.16 5.83937 290.264 5.88669 290.359 5.92455C291.202 6.30312 292.292 6.77634 292.614 7.59973C292.765 8.01616 292.822 8.49884 292.86 8.93419C292.964 10.1172 292.945 11.3097 292.907 12.4833C292.813 15.6444 292.481 18.8149 292.017 21.9476H292.007L292.017 21.9003Z" fill="#9CFCD7"/>
<path d="M188.261 67.1964C191.293 70.2249 190.629 75.4019 190.156 77.6071L203.419 73.8214C203.258 72.8749 202.756 69.941 201.998 65.7767C201.051 60.5714 200.577 54.8928 200.577 52.5267C200.577 50.1607 201.051 38.3303 201.051 37.8571C201.051 35.491 199.156 35.0178 198.208 36.9107C197.451 38.4249 196.314 46.3749 195.84 50.1607C192.808 48.2678 191.416 50.6339 191.103 52.0535C187.314 50.1607 186.366 53.1608 186.366 54.8928C184.472 54.8928 183.685 56.1515 183.524 56.7857C183.051 58.6785 184.472 63.4107 188.261 67.1964Z" fill="#052C46"/>
<path d="M351.692 140.866C350.583 102.706 345.041 77.9762 335.226 67.3573C317.141 47.8135 299.141 57.0317 292.367 60.4956C283.235 65.1899 272.51 65.4549 260.488 61.2812C244.279 55.6594 230.353 62.2655 224.953 68.086C220.206 73.2156 217.762 78.8564 216.028 89.8255C213.783 82.3014 211.633 75.9035 210.382 73.8876C207.72 69.5814 199.26 72.4396 191.084 75.1937C189.682 75.6669 188.356 76.1117 187.162 76.4808C184.85 77.2096 184.017 80.5505 184.083 82.1783C184.453 91.3303 187.427 113.799 192.875 135.103C199.544 161.215 207.189 175.458 215.593 177.446C216.294 177.616 216.995 177.692 217.686 177.692C220.945 177.692 224.147 175.865 227.274 172.259C225.436 180.067 223.749 187.667 222.404 195.333C222.073 197.207 221.627 199.763 222.764 202.081C224.27 205.167 227.653 206.255 230.76 206.918C238.49 208.555 253.194 210.618 261.303 210.94C261.332 210.94 261.35 210.94 261.379 210.94C262.393 210.94 263.226 210.145 263.274 209.123C263.312 208.082 262.506 207.202 261.455 207.154C253.525 206.842 239.125 204.807 231.546 203.208C229.339 202.734 226.97 202.044 226.175 200.406C225.625 199.289 225.834 197.737 226.146 195.977C228.032 185.263 230.589 174.607 233.308 163.335C238.5 141.756 243.872 119.439 244.393 95.8921C244.412 94.851 243.587 93.9803 242.536 93.9614C242.517 93.9614 242.507 93.9614 242.498 93.9614C241.475 93.9614 240.632 94.7848 240.603 95.8164C240.092 118.966 234.777 141.075 229.623 162.454C229.614 162.502 229.604 162.54 229.595 162.587C229.263 162.748 228.969 163.013 228.78 163.363C224.441 171.171 220.301 174.673 216.474 173.755C209.842 172.184 202.585 157.751 196.55 134.156C191.169 113.117 188.242 90.999 187.873 82.008C187.844 81.3455 188.195 80.3423 188.45 80.0299C189.625 79.6608 190.923 79.2255 192.297 78.7617C196.067 77.4935 206.09 74.1148 207.161 75.8562C209.814 80.1246 218.349 111.196 220.329 120.954C220.538 121.976 221.542 122.638 222.565 122.43C223.588 122.222 224.252 121.228 224.043 120.196C223.209 116.098 221.068 107.599 218.662 98.9396C218.662 98.9112 218.672 98.8923 218.681 98.8639C220.595 81.0899 223.134 75.6006 227.738 70.6224C232.285 65.7294 244.857 59.8331 259.257 64.8208C272.293 69.3448 284.021 69.004 294.11 63.8271C304.456 58.5271 318.155 54.429 332.46 69.8842C354.524 93.7531 346.803 193.431 346.718 194.434C346.633 195.475 347.409 196.384 348.452 196.469C348.499 196.469 348.556 196.469 348.603 196.469C349.579 196.469 350.413 195.721 350.488 194.728C350.507 194.472 352.516 168.994 351.701 140.81L351.692 140.866Z" fill="#A0D5F8"/>
<path d="M308.728 96.1003C308.899 95.0687 308.207 94.0939 307.175 93.9235C306.133 93.7531 305.166 94.444 304.996 95.4756C301.273 117.717 302.959 139.011 304.579 159.606C305.545 171.909 306.464 183.531 306.313 195.333C306.303 196.374 307.137 197.236 308.179 197.255H308.207C309.24 197.255 310.083 196.422 310.102 195.39C310.263 183.418 309.297 171.171 308.359 159.322C306.748 138.955 305.091 117.897 308.738 96.1098L308.728 96.1003Z" fill="#A0D5F8"/>
<path d="M152.735 137.904C153.682 138.321 154.639 138.728 155.586 139.116C155.652 139.144 155.776 139.116 155.832 139.116C156.486 138.765 156.988 138.254 157.519 137.715H157.528C158.011 137.223 158.409 136.977 159.044 136.835C160.096 136.598 161.166 136.589 162.199 136.295C164.122 135.727 165.969 134.838 167.779 133.939C169.607 133.049 171.398 132.103 173.188 131.147C174.647 130.371 176.153 129.68 177.584 128.847L178.759 128.033C179.488 127.626 181.923 126.282 180.9 124.531C180.796 124.332 180.672 124.247 180.606 124.011C180.578 123.888 180.587 123.764 180.53 123.641C180.426 123.386 180.189 123.197 179.952 123.102C179.204 122.761 178.541 123.272 177.821 123.452C177.811 123.452 177.783 123.462 177.745 123.414C177.233 122.534 175.945 123.083 175.149 123.301C173.662 123.717 172.165 124.134 170.678 124.559C169.276 124.957 167.921 125.468 166.557 126.017C165.666 126.377 164.586 126.717 163.648 126.481C163.535 126.462 163.553 126.405 163.582 126.386C165.012 126.206 166.538 125.61 167.476 124.493C167.845 124.058 168.205 123.471 167.921 122.846C167.637 122.231 166.869 121.995 166.291 122.127C165.382 122.326 164.51 122.723 163.62 122.988C162.095 123.443 160.512 123.623 158.968 124.02C157.737 124.323 156.42 124.607 155.255 125.156C154.752 125.392 154.449 125.875 154.156 126.348L154.137 126.386C153.691 127.077 153.36 127.863 152.896 128.534C151.787 130.106 150.243 131.26 149.002 132.689C148.67 133.068 147.912 133.806 148.007 134.383C148.111 135.008 148.869 135.51 149.315 135.831C150.395 136.626 151.531 137.365 152.753 137.895H152.735V137.904Z" fill="#052C46"/>
<path fill-rule="evenodd" clip-rule="evenodd" d="M88.4083 72.6195C87.6125 67.7832 87.6409 59.0761 75.1072 58.177H75.1262C72.322 57.9687 69.0346 57.4861 66.2399 57.893C63.4546 58.2905 61.2188 59.2653 59.5609 60.2496C58.4146 58.9341 57.0125 57.9214 55.2693 57.3914C51.783 56.3314 47.4725 57.5334 45.2557 60.4389C43.8062 62.3318 43.0199 64.5464 42.8778 66.922C42.7357 69.4489 43.7493 71.5784 45.2651 73.528C46.402 74.9855 47.823 76.1875 49.6988 76.5471C49.9736 76.6039 50.2483 76.6323 50.523 76.6607C50.5704 81.3077 52.2283 87.062 57.1451 93.8005C58.5567 95.7407 61.0578 96.7723 63.0283 101.41C63.7104 103.019 63.0283 111.66 57.7893 112.388C55.1936 112.748 49.8693 112.303 50.9114 113.108C52.4462 114.3 61.683 116.827 63.7009 117.367C66.3157 118.067 80.4409 118.124 79.8062 116.42C73.6483 113.108 72.0567 106.076 72.8525 101.419C81.9283 101.239 91.2978 89.9202 88.4367 72.6384L88.4083 72.6195Z" fill="#052C46"/>
<path d="M158.93 141.349C155.975 137.014 147.666 130.91 139.282 131.582C138.524 131.648 136.951 131.781 132.65 142.135C131.457 145.002 129.581 149.933 127.999 155.877C127.696 152.205 127.582 148.693 127.478 145.343C127.118 133.721 126.815 123.689 118.175 116.25C112.064 110.988 103.803 109.805 92.9272 112.644C80.3177 115.919 62.6019 118.237 49.7935 110.637C43.4935 106.89 28.1461 104.23 20.0177 112.246C13.263 118.9 8.66823 134.734 7.72086 154.599C7.00086 169.723 8.59244 189.598 15.224 199.99C17.4882 203.548 19.7145 205.28 22.0167 205.28C22.1398 205.28 22.263 205.28 22.3861 205.261C22.6988 205.233 22.9924 205.176 23.2672 205.091C24.1198 218.398 24.8303 231.004 23.9398 242.816C23.864 243.857 24.6409 244.765 25.683 244.851C25.7303 244.851 25.7777 244.851 25.8251 244.851C26.8103 244.851 27.6345 244.093 27.7103 243.1C28.6956 230.181 27.8051 216.477 26.8577 201.977C26.8482 201.797 26.8388 201.627 26.8198 201.447C26.8767 201.144 26.8482 200.832 26.763 200.539C25.4082 179.661 24.1482 158.139 28.7809 138.15C29.0177 137.128 28.383 136.115 27.3598 135.879C26.3461 135.642 25.323 136.276 25.0861 137.298C20.3303 157.817 21.6093 179.613 22.9735 200.756C22.7461 201.078 22.4051 201.447 22.0735 201.476C21.9598 201.485 20.6809 201.476 18.4167 197.936C7.19034 180.332 9.89034 127.579 22.6893 114.953C29.2451 108.489 42.7545 110.874 47.8703 113.903C59.0493 120.537 74.5388 121.351 93.8935 116.316C103.481 113.817 110.605 114.745 115.711 119.127C123.091 125.477 123.357 134.298 123.698 145.466C124.001 155.214 124.332 166.259 129.211 178.894C129.59 179.869 130.689 180.351 131.656 179.982C132.631 179.604 133.115 178.515 132.745 177.541C131.182 173.48 130.111 169.581 129.363 165.824C129.638 165.559 129.837 165.199 129.912 164.792C132.413 150.312 138.505 137.8 140.258 135.32C147.941 135.131 155.435 142.002 156.249 144.207C153.17 150.596 149.769 160.675 146.16 171.341C139.358 191.481 130.036 219.07 121.765 221.001C120.856 221.209 119.416 221.266 117.417 219.25C109.137 210.94 95.0872 190.753 94.0545 148.845C94.0545 148.807 94.0451 148.76 94.0356 148.722C94.0356 148.665 94.0261 148.618 94.0166 148.561C94.0072 148.485 93.9788 148.409 93.9598 148.334C93.9503 148.296 93.9314 148.258 93.9219 148.22C93.8935 148.135 93.8461 148.05 93.8082 147.974C93.7988 147.955 93.7798 147.927 93.7703 147.908C93.7135 147.813 93.6472 147.728 93.5714 147.643C93.2114 147.226 92.6809 146.971 92.1124 146.999C91.383 147.018 90.7767 147.444 90.4735 148.05C90.4735 148.059 90.4545 148.078 90.4545 148.088C90.4167 148.173 90.3788 148.258 90.3598 148.353C90.3503 148.391 90.3409 148.428 90.3314 148.466C90.3124 148.532 90.303 148.608 90.2935 148.684C90.2935 148.722 90.2745 148.76 90.2745 148.797C89.0714 170.319 94.3388 192.078 99.4261 213.126C102.808 227.105 106.001 240.317 107.223 252.942C107.393 254.712 107.488 256.274 106.844 257.353C105.935 258.914 103.528 259.416 101.283 259.709C93.6377 260.722 79.1335 261.631 71.1567 261.337C70.0861 261.309 69.2335 262.113 69.1956 263.164C69.1577 264.205 69.9724 265.085 71.024 265.123C72.0756 265.161 73.2409 265.18 74.4819 265.18C82.8851 265.18 95.0019 264.356 101.785 263.467C104.93 263.06 108.379 262.236 110.112 259.284C111.439 257.059 111.183 254.466 111.003 252.583C109.752 239.692 106.531 226.357 103.121 212.246C102.098 207.997 101.065 203.719 100.08 199.422C103.604 207.684 108.35 215.502 114.755 221.919C116.716 223.887 118.8 224.881 120.96 224.881C121.519 224.881 122.078 224.815 122.646 224.682C132.972 222.278 141.518 196.999 149.769 172.553C153.398 161.811 156.827 151.656 159.84 145.523C160.389 144.397 160.105 143.024 158.959 141.349H158.93Z" fill="#A0D5F8"/>
</g>
</g>
<defs>
<clipPath id="clip0_944_1032">
<rect width="344.312" height="265.199" fill="white" transform="translate(7.57886)"/>
</clipPath>
</defs>
</svg>
