<svg width="360" height="244" viewBox="0 0 360 244" fill="none" xmlns="http://www.w3.org/2000/svg">
<g clip-path="url(#clip0_1189_7141)">
<mask id="mask0_1189_7141" style="mask-type:alpha" maskUnits="userSpaceOnUse" x="-45" y="-126" width="405" height="366">
<path d="M353.563 8.01956C380.81 107.374 314.408 213.056 217.428 233.987C18.3636 264.058 -56.1977 167.414 -43.0969 41.6242C-32.2746 -62.2883 61.3352 -128.441 165.769 -125.54C255.729 -123.041 329.761 -78.7699 353.563 8.01956Z" fill="#D9D9D9"/>
</mask>
<g mask="url(#mask0_1189_7141)">
<g opacity="0.7" filter="url(#filter0_f_1189_7141)">
<ellipse cx="316.51" cy="224.01" rx="111.49" ry="112.99" fill="#E9F5FD"/>
</g>
<g clip-path="url(#clip1_1189_7141)">
<path d="M275.757 94.8596C275.652 94.1003 275.134 93.457 274.425 93.1828C271.762 92.1598 271.92 86.4015 272.079 80.2952C272.385 68.6416 272.808 52.6851 254.216 48.2768C243.752 45.4082 231.226 47.3382 225.697 52.6851C223.213 55.0897 222.262 58.0954 223.012 61.1749C223.403 62.7674 224.598 64.2227 226.649 65.5727L224.873 70.2974C224.585 71.1241 224.325 71.9054 224.09 72.6519C223.854 73.3984 231.983 72.5525 232.001 78.3595C229.704 80.0221 226.026 81.7579 223.425 83.3472C221.031 84.8094 221.987 87.9884 222.103 89.5818C222.295 92.2294 222.77 96.0729 223.425 97.7387C223.921 98.9937 224.704 100.228 225.814 101.514C226.955 102.833 228.266 104.003 229.703 105.005C232.293 106.787 235.232 107.947 238.223 108.348C239.027 108.454 239.83 108.506 240.633 108.506C240.771 108.506 240.898 108.496 241.035 108.485C241.405 109.835 241.638 111.238 241.701 112.651C241.817 115.035 241.722 116.23 241.003 118.456C240.739 119.289 241.003 120.206 241.701 120.755C242.071 121.04 243.223 121.767 245.549 121.767C248.382 121.767 249.906 123.664 253.857 120.755C254.46 120.386 258.619 116.474 258.65 115.767C258.703 114.565 259.999 114.085 259.29 113.569C257.874 112.535 254.375 110.004 253.857 105.321C254.449 105.374 255.041 105.395 255.612 105.395C262.8 105.395 269.637 101.282 272.279 99.2679C275.99 96.4415 275.863 95.5873 275.757 94.8385V94.8596Z" fill="#08436A"/>
<path d="M93.154 112.595C75.2369 112.595 60.3431 108.503 51.7281 97.2717C42.0561 84.6584 39.0858 65.9388 44.1385 49.6026C48.2081 36.4304 56.8125 27.0758 68.3555 23.2686C93.5662 15.9496 116.842 27.7086 139.347 39.0775C143.808 41.3344 148.026 43.4647 152.254 45.4474C172.317 54.6016 194.018 60.7922 215.011 66.7825C220.899 68.4593 226.987 70.1995 232.949 71.9712C233.626 72.1716 234.154 72.6989 234.366 73.3739C234.577 74.0489 234.429 74.7765 233.985 75.325C232.695 76.8963 232.399 79.2798 233.266 81.1254C233.509 81.6422 233.53 82.2433 233.319 82.7812C233.108 83.319 232.695 83.7514 232.156 83.9623L231.86 84.0889C231.659 84.1733 231.448 84.226 231.237 84.2471C219.778 85.2701 202.897 89.8893 183.363 95.2468C153.903 103.325 120.109 112.585 93.154 112.585V112.595ZM84.317 25.2303C79.4546 25.2303 74.5499 25.863 69.6029 27.2973C59.4657 30.6405 51.8233 39.0142 48.1659 50.8471C43.5677 65.6962 46.3477 83.319 55.079 94.709C74.9304 120.611 134.432 104.296 182.232 91.1865C200.772 86.1032 216.935 81.6738 228.636 80.2817C228.393 78.6048 228.583 76.8542 229.197 75.2722C224.07 73.7641 218.88 72.2876 213.838 70.8428C192.697 64.8103 170.837 58.5775 150.467 49.2757C146.155 47.2508 141.715 45.015 137.434 42.8425C120.236 34.1524 102.583 25.2303 84.317 25.2303Z" fill="#A0D5F8"/>
<path d="M87.7931 101.626C76.1775 101.626 66.0174 97.2166 60.2707 89.2237C52.5332 78.4633 51.1435 62.4492 56.8902 50.291C61.8952 39.7088 71.3604 33.442 83.5394 32.6446C83.5675 32.6446 83.6051 32.6446 83.6333 32.6446C87.7461 32.5883 98.357 32.8885 108.085 36.9506C117.334 40.8158 122.724 46.9324 123.663 54.6533C125.917 73.2378 120.818 94.9463 99.7655 100.144C95.6902 101.147 91.6618 101.635 87.7931 101.635V101.626ZM83.7366 36.3878C73.0037 37.1101 64.6746 42.617 60.2894 51.8952C55.0967 62.8808 56.3456 77.3281 63.3225 87.0285C70.0833 96.4286 84.0277 100.134 98.864 96.4755C117.541 91.8693 121.992 72.0745 119.935 55.0849C118.095 39.9245 95.4836 36.2377 83.7366 36.3784V36.3878Z" fill="#FCD089"/>
<path d="M173.878 66.1374C172.652 66.4749 171.257 66.1796 170.421 65.1461C169.586 64.1126 169.608 62.8576 169.861 61.6025L169.755 61.5182C168.952 61.3178 168.519 60.6112 168.286 59.873C167.768 58.2383 167.536 56.34 167.483 54.6315C167.409 52.1953 167.398 49.5693 169.164 47.692C170.464 46.3105 172.314 46.6585 173.635 47.7131C173.635 47.7131 173.698 47.7764 173.719 47.7764C173.741 47.7764 173.793 47.7131 173.793 47.7131C174.576 46.9749 175.622 46.6585 176.827 46.8062C177.895 46.9327 179.036 47.4389 179.723 48.2932C179.723 48.2932 179.723 48.3143 179.745 48.3143L179.776 48.2932C180.104 48.1139 180.442 47.9557 180.833 47.8819C181.605 47.7342 182.408 47.8397 183.148 48.0928C184.036 48.4092 184.892 49.0841 185.358 49.9489C185.358 49.9489 185.379 49.9806 185.4 49.9911C185.421 49.9911 185.474 49.9806 185.474 49.9806C187.059 49.622 188.835 50.3075 189.903 51.5836C191.499 53.4925 190.22 56.224 189.776 58.3227C189.67 58.7972 189.068 59.1875 188.582 59.0504H188.518C188.37 59.3351 188.201 59.5777 188.032 59.8413C187.567 60.5585 187.144 61.3073 186.711 62.056C185.897 63.4903 185.051 64.9457 183.983 66.2113C183.074 67.2975 181.668 68.31 180.167 68.0463C179.417 67.9198 178.92 67.4979 178.603 66.9389L178.518 66.9179C177.895 67.3292 177.155 67.5612 176.362 67.519C175.4 67.4663 174.533 66.9706 173.984 66.2218L173.899 66.1585L173.878 66.1374Z" fill="#08436A"/>
<path d="M311.752 198.719C310.843 198.719 310.008 198.129 309.733 197.222C306.827 187.646 302.334 166.753 300.696 156.376C300.516 155.226 301.298 154.14 302.45 153.961C303.603 153.782 304.691 154.562 304.871 155.711C306.488 165.962 310.917 186.559 313.782 195.988C314.12 197.106 313.486 198.276 312.376 198.614C312.175 198.677 311.964 198.709 311.763 198.709L311.752 198.719Z" fill="#A0D5F8"/>
<path d="M258.221 227.99C242.196 227.99 234.469 225.058 234.015 224.879C233.782 224.784 233.56 224.647 233.37 224.478C229.934 221.37 227.107 215.807 224.918 207.868C224.331 205.74 222.957 200.947 222.463 198.479C221.885 195.594 221.37 192.478 220.92 189.132C220.508 186.074 220.191 183.1 219.937 180.337C218.616 185.578 217.009 190.83 214.757 195.281C212.379 200.512 208.32 204.119 203.362 205.374C199.493 206.354 195.234 205.764 192.781 203.908C174.114 189.786 161.227 150.034 158.299 100.804C158.225 99.6439 159.124 98.642 160.286 98.5787C161.439 98.4944 162.453 99.3908 162.517 100.561C165.329 147.861 177.898 187.371 195.329 200.554C196.534 201.461 199.388 202.031 202.316 201.292C204.927 200.638 208.531 198.74 210.941 193.467C214.144 187.139 215.931 179.198 217.654 171.52C218.15 169.295 218.647 167.112 219.155 165.055C219.408 164.022 220.391 163.347 221.448 163.463C222.505 163.589 223.309 164.475 223.319 165.53C223.404 172.277 224.23 185.705 226.635 197.648C227.174 200.329 228.626 205.429 229.335 207.868C230.995 213.585 233.145 218.383 235.907 221.072C238.37 221.884 253.919 226.366 284.203 221.546C285.345 221.356 286.444 222.147 286.624 223.297C286.804 224.446 286.021 225.533 284.869 225.712C274.256 227.399 265.398 227.99 258.21 227.99H258.221Z" fill="#A0D5F8"/>
<path d="M337.724 209.054C336.604 209.054 335.673 208.179 335.61 207.051C332.883 153.222 323.56 127.711 316.224 115.783C311.742 108.506 303.772 103.444 294.903 102.252C287.292 101.229 275.485 102.558 262.483 114.687C261.997 115.14 261.468 115.678 260.897 116.247C257.917 119.253 253.836 123.377 248.435 123.777C243.731 124.146 238.435 120.529 234.175 117.639C232.632 116.595 231.163 115.604 230.074 115.045C227.156 113.548 218.679 112.419 212.136 115.499C208.309 117.302 205.941 120.202 205.085 124.136C204.187 128.27 204.081 134.682 204.176 139.839C204.303 142.497 204.419 145.292 204.535 148.255C204.578 149.405 203.69 150.375 202.538 150.438C201.375 150.491 200.392 149.637 200.307 148.487C200.286 148.171 200.032 144.564 199.937 139.934C198.553 111.227 197.856 103.713 194.11 93.3225C193.614 91.9479 193.338 90.457 194.11 89.5817C194.881 88.7063 196.146 89.6432 197.024 90.413C197.996 91.2673 200.794 94.617 202.813 118.378C204.483 115.509 207.02 113.242 210.318 111.681C217.96 108.085 227.812 109.15 231.987 111.291C233.308 111.966 234.873 113.031 236.532 114.149C240.052 116.532 244.873 119.801 248.107 119.569C251.923 119.285 255.221 115.952 257.874 113.284C258.477 112.672 259.048 112.103 259.576 111.607C273.794 98.3398 286.933 96.9266 295.453 98.0762C305.568 99.4366 314.67 105.237 319.807 113.59C330.705 131.297 337.618 163.547 339.817 206.85C339.88 208.01 338.982 209.002 337.809 209.065C337.777 209.065 337.735 209.065 337.703 209.065L337.724 209.054Z" fill="#A0D5F8"/>
</g>
</g>
</g>
<defs>
<filter id="filter0_f_1189_7141" x="137.021" y="43.0205" width="358.979" height="361.98" filterUnits="userSpaceOnUse" color-interpolation-filters="sRGB">
<feFlood flood-opacity="0" result="BackgroundImageFix"/>
<feBlend mode="normal" in="SourceGraphic" in2="BackgroundImageFix" result="shape"/>
<feGaussianBlur stdDeviation="34" result="effect1_foregroundBlur_1189_7141"/>
</filter>
<clipPath id="clip0_1189_7141">
<rect width="360" height="244" fill="white"/>
</clipPath>
<clipPath id="clip1_1189_7141">
<rect width="298.141" height="206.99" fill="white" transform="translate(41.707 21)"/>
</clipPath>
</defs>
</svg>
