<svg width="24" height="24" viewBox="0 0 24 24" fill="none" xmlns="http://www.w3.org/2000/svg">
<path d="M22 9.66667C22 10.2208 21.5542 10.6667 21 10.6667H16.3333H15C14.4458 10.6667 14 10.2208 14 9.66667C14 9.1125 14.4458 8.66667 15 8.66667H16.3333H18.5875L16.4167 6.49584C15.2417 5.32501 13.6542 4.66667 12 4.66667C8.97083 4.66667 6.36667 6.50417 5.25 9.12917C5.03333 9.63751 4.44583 9.875 3.9375 9.65834C3.42917 9.44167 3.19167 8.85417 3.40833 8.34584C4.82917 5.00834 8.14167 2.66667 12 2.66667C14.1875 2.66667 16.2833 3.53334 17.8292 5.07917L20 7.25417V5.00001V4.98334V3.66667C20 3.11251 20.4458 2.66667 21 2.66667C21.5542 2.66667 22 3.11251 22 3.66667V9.66667ZM3 13.3333H7.66667C8.22083 13.3333 8.66667 13.7792 8.66667 14.3333C8.66667 14.8875 8.22083 15.3333 7.66667 15.3333H5.4125L7.58333 17.5042C8.75833 18.675 10.3458 19.3333 12 19.3333C15.025 19.3333 17.625 17.5042 18.7458 14.8833C18.9625 14.375 19.55 14.1417 20.0583 14.3583C20.5667 14.575 20.8 15.1625 20.5833 15.6708C19.1583 19 15.8542 21.3333 12 21.3333C9.8125 21.3333 7.71667 20.4667 6.17083 18.9208L4 16.7458V19C4 19.5542 3.55417 20 3 20C2.44583 20 2 19.5542 2 19V14.3333C2 13.7792 2.44583 13.3333 3 13.3333Z" fill="black"/>
</svg>
