<svg width="24" height="24" viewBox="0 0 24 24" fill="none" xmlns="http://www.w3.org/2000/svg">
<path d="M2.27889 16.8817L6.152 20.7548C6.53124 21.1341 7.14449 21.1341 7.51969 20.7548L11.3928 16.8817C11.7721 16.5025 11.7721 15.8892 11.3928 15.514C11.0136 15.1388 10.4003 15.1348 10.0251 15.514L7.80614 17.733V3.931C7.80614 3.39442 7.37445 2.96273 6.83786 2.96273C6.30128 2.96273 5.86959 3.39442 5.86959 3.931V17.733L3.65061 15.51C3.27137 15.1308 2.65813 15.1308 2.28292 15.51C1.90771 15.8892 1.90368 16.5025 2.28292 16.8777L2.27889 16.8817ZM16.4803 3.24514L12.6072 7.11826C12.2279 7.4975 12.2279 8.11074 12.6072 8.48595C12.9864 8.86116 13.5997 8.86519 13.9749 8.48595L16.1939 6.26698V20.069C16.1939 20.6056 16.6255 21.0373 17.1621 21.0373C17.6987 21.0373 18.1304 20.6056 18.1304 20.069V6.26698L20.3494 8.48595C20.7286 8.86519 21.3419 8.86519 21.7171 8.48595C22.0923 8.10671 22.0963 7.49346 21.7171 7.11826L17.852 3.24514C17.4728 2.8659 16.8595 2.8659 16.4843 3.24514H16.4803Z" fill="black"/>
</svg>
