<svg width="24" height="24" viewBox="0 0 24 24" fill="none" xmlns="http://www.w3.org/2000/svg">
<path d="M13.8773 2.93573C13.8773 3.45536 14.2954 3.87341 14.815 3.87341H18.8041L10.0875 12.5861C9.72026 12.9533 9.72026 13.5472 10.0875 13.9105C10.4548 14.2739 11.0486 14.2778 11.412 13.9105L20.1246 5.19789V9.18695C20.1246 9.70658 20.5427 10.1246 21.0623 10.1246C21.582 10.1246 22 9.70658 22 9.18695V2.93573C22 2.4161 21.582 1.99805 21.0623 1.99805H14.815C14.2954 1.99805 13.8773 2.4161 13.8773 2.93573ZM4.81305 3.24829C3.25806 3.24829 2 4.50635 2 6.06134V19.1889C2 20.7439 3.25806 22.002 4.81305 22.002H17.9406C19.4956 22.002 20.7537 20.7439 20.7537 19.1889V14.1879C20.7537 13.6683 20.3356 13.2502 19.816 13.2502C19.2963 13.2502 18.8783 13.6683 18.8783 14.1879V19.1889C18.8783 19.7085 18.4602 20.1266 17.9406 20.1266H4.81305C4.29342 20.1266 3.87537 19.7085 3.87537 19.1889V6.06134C3.87537 5.54171 4.29342 5.12366 4.81305 5.12366H9.81403C10.3337 5.12366 10.7517 4.70561 10.7517 4.18597C10.7517 3.66634 10.3337 3.24829 9.81403 3.24829H4.81305Z" fill="black"/>
</svg>
