<svg width="24" height="24" viewBox="0 0 24 24" fill="none" xmlns="http://www.w3.org/2000/svg">
<path d="M19.5 22C20.0938 22 20.5714 21.5223 20.5714 20.9286C20.5714 20.3348 20.0938 19.8571 19.5 19.8571H4.50002C3.90627 19.8571 3.42859 20.3348 3.42859 20.9286C3.42859 21.5223 3.90627 22 4.50002 22H19.5ZM11.2188 15.9464C11.4197 16.1607 11.7054 16.2857 12 16.2857C12.2947 16.2857 12.5759 16.1652 12.7813 15.9464L18.4956 9.875C18.9018 9.44196 18.8795 8.76786 18.4509 8.36161C18.0223 7.95536 17.3438 7.97768 16.9375 8.40625L13.0714 12.5134V8.78571V3.07143C13.0714 2.47768 12.5938 2 12 2C11.4063 2 10.9286 2.47768 10.9286 3.07143V8.78571V12.5134L7.06698 8.41071C6.66073 7.97768 5.98216 7.95982 5.55359 8.36607C5.12502 8.77232 5.1027 9.45089 5.50895 9.87946L11.2232 15.9509L11.2188 15.9464Z" fill="black"/>
</svg>
