<svg width="24" height="24" viewBox="0 0 24 24" fill="none" xmlns="http://www.w3.org/2000/svg">
<path d="M7.12193 21.7158C7.50089 22.0947 8.11367 22.0947 8.48859 21.7158C8.86352 21.3368 8.86755 20.724 8.48859 20.3491L6.2713 18.1318L20.0629 18.1278C20.5991 18.1278 21.0304 17.6964 21.0304 17.1602C21.0304 16.6241 20.5991 16.1927 20.0629 16.1927H6.2713L8.48859 13.9754C8.86755 13.5965 8.86755 12.9837 8.48859 12.6087C8.10964 12.2338 7.49686 12.2298 7.12193 12.6087L3.25175 16.4749C2.87279 16.8539 2.87279 17.4666 3.25175 17.8416L7.12193 21.7118V21.7158ZM20.7482 7.5251C21.1272 7.14614 21.1272 6.53336 20.7482 6.15844L16.878 2.28422C16.4991 1.90526 15.8863 1.90526 15.5114 2.28422C15.1364 2.66317 15.1324 3.27595 15.5114 3.65088L17.7287 5.86817L3.93709 5.8722C3.40091 5.8722 2.96955 6.30357 2.96955 6.83975C2.96955 7.37593 3.40091 7.8073 3.93709 7.8073H17.7287L15.5114 10.0246C15.1324 10.4035 15.1324 11.0163 15.5114 11.3913C15.8903 11.7662 16.5031 11.7702 16.878 11.3913L20.7482 7.52106V7.5251Z" fill="black"/>
</svg>
