<svg width="24" height="24" viewBox="0 0 24 24" fill="none" xmlns="http://www.w3.org/2000/svg">
<path d="M2 4.85715C2 4.2634 2.47768 3.78572 3.07143 3.78572H20.9286C21.5223 3.78572 22 4.2634 22 4.85715C22 5.4509 21.5223 5.92858 20.9286 5.92858H3.07143C2.47768 5.92858 2 5.4509 2 4.85715ZM2 12C2 11.4063 2.47768 10.9286 3.07143 10.9286H20.9286C21.5223 10.9286 22 11.4063 22 12C22 12.5938 21.5223 13.0714 20.9286 13.0714H3.07143C2.47768 13.0714 2 12.5938 2 12ZM22 19.1429C22 19.7366 21.5223 20.2143 20.9286 20.2143H3.07143C2.47768 20.2143 2 19.7366 2 19.1429C2 18.5491 2.47768 18.0714 3.07143 18.0714H20.9286C21.5223 18.0714 22 18.5491 22 19.1429Z" fill="black"/>
</svg>
