<svg width="24" height="24" viewBox="0 0 24 24" fill="none" xmlns="http://www.w3.org/2000/svg">
<path d="M12 2C11.3086 2 10.75 2.55859 10.75 3.25V3.94922C7.91795 4.39844 5.74998 6.85156 5.74998 9.8125V11.1172C5.74998 12.8906 5.14451 14.6133 4.03904 15.9961L3.45701 16.7266C3.23045 17.0078 3.18748 17.3945 3.34373 17.7188C3.49998 18.043 3.82811 18.25 4.18748 18.25H19.8125C20.1719 18.25 20.5 18.043 20.6562 17.7188C20.8125 17.3945 20.7695 17.0078 20.5429 16.7266L19.9609 16C18.8554 14.6133 18.25 12.8906 18.25 11.1172V9.8125C18.25 6.85156 16.082 4.39844 13.25 3.94922V3.25C13.25 2.55859 12.6914 2 12 2ZM12 5.75H12.3125C14.5547 5.75 16.375 7.57031 16.375 9.8125V11.1172C16.375 12.9883 16.9179 14.8125 17.9258 16.375H6.0742C7.08201 14.8125 7.62498 12.9883 7.62498 11.1172V9.8125C7.62498 7.57031 9.44529 5.75 11.6875 5.75H12ZM14.5 19.5H12H9.49998C9.49998 20.1641 9.7617 20.8008 10.2304 21.2695C10.6992 21.7383 11.3359 22 12 22C12.664 22 13.3008 21.7383 13.7695 21.2695C14.2383 20.8008 14.5 20.1641 14.5 19.5Z" fill="black"/>
</svg>
