<svg width="24" height="24" viewBox="0 0 24 24" fill="none" xmlns="http://www.w3.org/2000/svg">
<path d="M3.875 3.9375C3.875 3.41797 3.45703 3 2.9375 3C2.41797 3 2 3.41797 2 3.9375V17.6875C2 19.2422 3.25781 20.5 4.8125 20.5H21.0625C21.582 20.5 22 20.082 22 19.5625C22 19.043 21.582 18.625 21.0625 18.625H4.8125C4.29297 18.625 3.875 18.207 3.875 17.6875V3.9375ZM14.5 7.6875C14.5 8.20703 14.918 8.625 15.4375 8.625H17.5508L13.875 12.3008L10.7891 9.21484C10.4219 8.84766 9.82813 8.84766 9.46484 9.21484L6.33984 12.3398C5.97266 12.707 5.97266 13.3008 6.33984 13.6641C6.70703 14.0273 7.30078 14.0312 7.66406 13.6641L10.125 11.2031L13.2109 14.2891C13.5781 14.6562 14.1719 14.6562 14.5352 14.2891L18.8711 9.95312V12.0625C18.8711 12.582 19.2891 13 19.8086 13C20.3281 13 20.7461 12.582 20.7461 12.0625V7.6875C20.7461 7.16797 20.3281 6.75 19.8086 6.75H15.4375C14.918 6.75 14.5 7.16797 14.5 7.6875Z" fill="black"/>
</svg>
