<svg width="24" height="24" viewBox="0 0 24 24" fill="none" xmlns="http://www.w3.org/2000/svg">
<path d="M12 3.875C14.1549 3.875 16.2215 4.73102 17.7452 6.25476C19.269 7.77849 20.125 9.84512 20.125 12C20.125 14.1549 19.269 16.2215 17.7452 17.7452C16.2215 19.269 14.1549 20.125 12 20.125C9.84512 20.125 7.77849 19.269 6.25476 17.7452C4.73102 16.2215 3.875 14.1549 3.875 12C3.875 9.84512 4.73102 7.77849 6.25476 6.25476C7.77849 4.73102 9.84512 3.875 12 3.875ZM12 22C14.6522 22 17.1957 20.9464 19.0711 19.0711C20.9464 17.1957 22 14.6522 22 12C22 9.34784 20.9464 6.8043 19.0711 4.92893C17.1957 3.05357 14.6522 2 12 2C9.34784 2 6.8043 3.05357 4.92893 4.92893C3.05357 6.8043 2 9.34784 2 12C2 14.6522 3.05357 17.1957 4.92893 19.0711C6.8043 20.9464 9.34784 22 12 22ZM9.1875 11.0625C8.66797 11.0625 8.25 11.4805 8.25 12C8.25 12.5195 8.66797 12.9375 9.1875 12.9375H14.8125C15.332 12.9375 15.75 12.5195 15.75 12C15.75 11.4805 15.332 11.0625 14.8125 11.0625H9.1875Z" fill="black"/>
</svg>
