<svg width="24" height="24" viewBox="0 0 24 24" fill="none" xmlns="http://www.w3.org/2000/svg">
<path d="M12 3.875C14.1549 3.875 16.2215 4.73102 17.7452 6.25476C19.269 7.77849 20.125 9.84512 20.125 12C20.125 14.1549 19.269 16.2215 17.7452 17.7452C16.2215 19.269 14.1549 20.125 12 20.125C9.84512 20.125 7.77849 19.269 6.25476 17.7452C4.73102 16.2215 3.875 14.1549 3.875 12C3.875 9.84512 4.73102 7.77849 6.25476 6.25476C7.77849 4.73102 9.84512 3.875 12 3.875ZM12 22C14.6522 22 17.1957 20.9464 19.0711 19.0711C20.9464 17.1957 22 14.6522 22 12C22 9.34784 20.9464 6.8043 19.0711 4.92893C17.1957 3.05357 14.6522 2 12 2C9.34784 2 6.8043 3.05357 4.92893 4.92893C3.05357 6.8043 2 9.34784 2 12C2 14.6522 3.05357 17.1957 4.92893 19.0711C6.8043 20.9464 9.34784 22 12 22ZM10.4375 15.125C9.91797 15.125 9.5 15.543 9.5 16.0625C9.5 16.582 9.91797 17 10.4375 17H13.5625C14.082 17 14.5 16.582 14.5 16.0625C14.5 15.543 14.082 15.125 13.5625 15.125H13.25V11.6875C13.25 11.168 12.832 10.75 12.3125 10.75H10.4375C9.91797 10.75 9.5 11.168 9.5 11.6875C9.5 12.207 9.91797 12.625 10.4375 12.625H11.375V15.125H10.4375ZM12 9.5C12.3315 9.5 12.6495 9.3683 12.8839 9.13388C13.1183 8.89946 13.25 8.58152 13.25 8.25C13.25 7.91848 13.1183 7.60054 12.8839 7.36612C12.6495 7.1317 12.3315 7 12 7C11.6685 7 11.3505 7.1317 11.1161 7.36612C10.8817 7.60054 10.75 7.91848 10.75 8.25C10.75 8.58152 10.8817 8.89946 11.1161 9.13388C11.3505 9.3683 11.6685 9.5 12 9.5Z" fill="black"/>
</svg>
