<svg width="24" height="24" viewBox="0 0 24 24" fill="none" xmlns="http://www.w3.org/2000/svg">
<path d="M12 3.875C14.1549 3.875 16.2215 4.73102 17.7452 6.25476C19.269 7.77849 20.125 9.84512 20.125 12C20.125 14.1549 19.269 16.2215 17.7452 17.7452C16.2215 19.269 14.1549 20.125 12 20.125C9.84512 20.125 7.77849 19.269 6.25476 17.7452C4.73102 16.2215 3.875 14.1549 3.875 12C3.875 9.84512 4.73102 7.77849 6.25476 6.25476C7.77849 4.73102 9.84512 3.875 12 3.875ZM12 22C14.6522 22 17.1957 20.9464 19.0711 19.0711C20.9464 17.1957 22 14.6522 22 12C22 9.34784 20.9464 6.8043 19.0711 4.92893C17.1957 3.05357 14.6522 2 12 2C9.34784 2 6.8043 3.05357 4.92893 4.92893C3.05357 6.8043 2 9.34784 2 12C2 14.6522 3.05357 17.1957 4.92893 19.0711C6.8043 20.9464 9.34784 22 12 22ZM8.83594 8.83594C8.46875 9.20312 8.46875 9.79687 8.83594 10.1602L10.6719 11.9961L8.83594 13.832C8.46875 14.1992 8.46875 14.793 8.83594 15.1562C9.20312 15.5195 9.79687 15.5234 10.1602 15.1562L11.9961 13.3203L13.832 15.1562C14.1992 15.5234 14.793 15.5234 15.1562 15.1562C15.5195 14.7891 15.5234 14.1953 15.1562 13.832L13.3203 11.9961L15.1562 10.1602C15.5234 9.79297 15.5234 9.19922 15.1562 8.83594C14.7891 8.47266 14.1953 8.46875 13.832 8.83594L11.9961 10.6719L10.1602 8.83594C9.79297 8.46875 9.19922 8.46875 8.83594 8.83594Z" fill="black"/>
</svg>
