<svg width="24" height="24" viewBox="0 0 24 24" fill="none" xmlns="http://www.w3.org/2000/svg">
<path d="M12 3.875C14.1549 3.875 16.2215 4.73102 17.7452 6.25476C19.269 7.77849 20.125 9.84512 20.125 12C20.125 14.1549 19.269 16.2215 17.7452 17.7452C16.2215 19.269 14.1549 20.125 12 20.125C9.84512 20.125 7.77849 19.269 6.25476 17.7452C4.73102 16.2215 3.875 14.1549 3.875 12C3.875 9.84512 4.73102 7.77849 6.25476 6.25476C7.77849 4.73102 9.84512 3.875 12 3.875ZM12 22C14.6522 22 17.1957 20.9464 19.0711 19.0711C20.9464 17.1957 22 14.6522 22 12C22 9.34784 20.9464 6.8043 19.0711 4.92893C17.1957 3.05357 14.6522 2 12 2C9.34784 2 6.8043 3.05357 4.92893 4.92893C3.05357 6.8043 2 9.34784 2 12C2 14.6522 3.05357 17.1957 4.92893 19.0711C6.8043 20.9464 9.34784 22 12 22ZM11.0625 15.4375C11.0625 15.957 11.4805 16.375 12 16.375C12.5195 16.375 12.9375 15.957 12.9375 15.4375V12.9375H15.4375C15.957 12.9375 16.375 12.5195 16.375 12C16.375 11.4805 15.957 11.0625 15.4375 11.0625H12.9375V8.5625C12.9375 8.04297 12.5195 7.625 12 7.625C11.4805 7.625 11.0625 8.04297 11.0625 8.5625V11.0625H8.5625C8.04297 11.0625 7.625 11.4805 7.625 12C7.625 12.5195 8.04297 12.9375 8.5625 12.9375H11.0625V15.4375Z" fill="black"/>
</svg>
