<svg width="24" height="24" viewBox="0 0 24 24" fill="none" xmlns="http://www.w3.org/2000/svg">
<path d="M4.5 20.125H13.25C13.5938 20.125 13.875 19.8438 13.875 19.5V17H15.75V19.5C15.75 20.8789 14.6289 22 13.25 22H4.5C3.12109 22 2 20.8789 2 19.5V10.75C2 9.37109 3.12109 8.25 4.5 8.25H7V10.125H4.5C4.15625 10.125 3.875 10.4062 3.875 10.75V19.5C3.875 19.8438 4.15625 20.125 4.5 20.125ZM10.75 15.75C9.37109 15.75 8.25 14.6289 8.25 13.25V4.5C8.25 3.12109 9.37109 2 10.75 2H19.5C20.8789 2 22 3.12109 22 4.5V13.25C22 14.6289 20.8789 15.75 19.5 15.75H10.75Z" fill="black"/>
</svg>
