<svg width="24" height="24" viewBox="0 0 24 24" fill="none" xmlns="http://www.w3.org/2000/svg">
<path d="M6.83197 17.0316C7.33574 16.6645 7.98792 16.5708 8.57371 16.7817C9.60861 17.1566 10.7685 17.3714 12.0025 17.3714C16.8724 17.3714 20.1255 14.2276 20.1255 11.1229C20.1255 8.01826 16.8724 4.87453 12.0025 4.87453C7.13267 4.87453 3.87959 8.01826 3.87959 11.1229C3.87959 12.3726 4.36384 13.5754 5.27377 14.6064C5.60962 14.9852 5.77364 15.4851 5.73459 15.9928C5.67991 16.6997 5.51199 17.3479 5.29329 17.922C5.95719 17.6135 6.50783 17.2698 6.83197 17.0355V17.0316ZM2.83298 18.6171C2.90327 18.5117 2.96966 18.4063 3.03215 18.3008C3.42267 17.6525 3.79367 16.8012 3.86787 15.8444C2.69629 14.5127 2.00506 12.8842 2.00506 11.1229C2.00506 6.6358 6.48049 3 12.0025 3C17.5246 3 22 6.6358 22 11.1229C22 15.6101 17.5246 19.2459 12.0025 19.2459C10.5537 19.2459 9.17903 18.996 7.93716 18.5468C7.47243 18.8866 6.71481 19.3513 5.8166 19.7419C5.2269 19.9996 4.5552 20.2339 3.86006 20.3706C3.82882 20.3784 3.79758 20.3823 3.76634 20.3901C3.5945 20.4214 3.42658 20.4487 3.25084 20.4643C3.24303 20.4643 3.23132 20.4682 3.2235 20.4682C3.02434 20.4878 2.82517 20.4995 2.626 20.4995C2.37216 20.4995 2.14565 20.3472 2.04802 20.1129C1.95039 19.8785 2.00506 19.613 2.1808 19.4333C2.34092 19.2693 2.48541 19.0936 2.62209 18.9061C2.68848 18.8163 2.75097 18.7265 2.80955 18.6367C2.81345 18.6289 2.81736 18.625 2.82126 18.6171H2.83298Z" fill="black"/>
</svg>
