<svg width="24" height="24" viewBox="0 0 24 24" fill="none" xmlns="http://www.w3.org/2000/svg">
<path d="M3.83218 2.31299C3.41263 1.89791 2.73421 1.89791 2.31466 2.31299C1.89511 2.72808 1.89958 3.41096 2.31466 3.83051L10.4825 11.9983L2.31466 20.1662C1.89511 20.5857 1.89511 21.2641 2.31466 21.6792C2.73421 22.0943 3.41263 22.0988 3.82772 21.6792L11.9955 13.5114L20.1678 21.6837C20.5874 22.1032 21.2658 22.1032 21.6809 21.6837C22.096 21.2641 22.1004 20.5857 21.6809 20.1706L13.5131 12.0028L21.6853 3.83051C22.1049 3.41096 22.1049 2.73254 21.6853 2.31746C21.2658 1.90237 20.5874 1.89791 20.1723 2.31746L12.0045 10.4853L3.83218 2.31299Z" fill="black"/>
</svg>
