<svg width="24" height="24" viewBox="0 0 24 24" fill="none" xmlns="http://www.w3.org/2000/svg">
<path d="M4.5 6.375C4.15625 6.375 3.875 6.65625 3.875 7V7.86328L10.6133 13.3945C11.4219 14.0586 12.582 14.0586 13.3906 13.3945L20.125 7.86328V7C20.125 6.65625 19.8438 6.375 19.5 6.375H4.5ZM3.875 10.2891V17C3.875 17.3438 4.15625 17.625 4.5 17.625H19.5C19.8438 17.625 20.125 17.3438 20.125 17V10.2891L14.5781 14.8438C13.0781 16.0742 10.918 16.0742 9.42188 14.8438L3.875 10.2891ZM2 7C2 5.62109 3.12109 4.5 4.5 4.5H19.5C20.8789 4.5 22 5.62109 22 7V17C22 18.3789 20.8789 19.5 19.5 19.5H4.5C3.12109 19.5 2 18.3789 2 17V7Z" fill="black"/>
</svg>
