<svg width="24" height="24" viewBox="0 0 24 24" fill="none" xmlns="http://www.w3.org/2000/svg">
<path d="M16.3736 10.1269C16.3736 8.46945 15.7152 6.87989 14.5432 5.7079C13.3712 4.53592 11.7816 3.8775 10.1242 3.8775C8.46677 3.8775 6.87721 4.53592 5.70522 5.7079C4.53323 6.87989 3.87482 8.46945 3.87482 10.1269C3.87482 11.7843 4.53323 13.3739 5.70522 14.5459C6.87721 15.7179 8.46677 16.3763 10.1242 16.3763C11.7816 16.3763 13.3712 15.7179 14.5432 14.5459C15.7152 13.3739 16.3736 11.7843 16.3736 10.1269ZM15.1667 16.4974C13.784 17.5949 12.0303 18.2511 10.1242 18.2511C5.63636 18.2511 2 14.6147 2 10.1269C2 5.63905 5.63636 2.00268 10.1242 2.00268C14.612 2.00268 18.2484 5.63905 18.2484 10.1269C18.2484 12.033 17.5922 13.7867 16.4947 15.1694L21.7246 20.3993C22.0918 20.7665 22.0918 21.3602 21.7246 21.7234C21.3575 22.0867 20.7638 22.0906 20.4005 21.7234L15.1667 16.4974Z" fill="black"/>
</svg>
