<svg width="24" height="24" viewBox="0 0 24 24" fill="none" xmlns="http://www.w3.org/2000/svg">
<path d="M12.0023 6.87225C9.16393 6.87225 6.87452 9.16166 6.87452 12C6.87452 14.8383 9.16393 17.1277 12.0023 17.1277C14.8406 17.1277 17.13 14.8383 17.13 12C17.13 9.16166 14.8406 6.87225 12.0023 6.87225ZM12.0023 15.3337C10.1681 15.3337 8.66856 13.8387 8.66856 12C8.66856 10.1613 10.1636 8.6663 12.0023 8.6663C13.8409 8.6663 15.336 10.1613 15.336 12C15.336 13.8387 13.8365 15.3337 12.0023 15.3337ZM18.5358 6.6625C18.5358 7.32746 18.0003 7.85853 17.3398 7.85853C16.6748 7.85853 16.1437 7.32299 16.1437 6.6625C16.1437 6.00201 16.6793 5.46647 17.3398 5.46647C18.0003 5.46647 18.5358 6.00201 18.5358 6.6625ZM21.932 7.87638C21.8561 6.27424 21.4902 4.85507 20.3164 3.68582C19.1472 2.51657 17.728 2.15062 16.1259 2.07029C14.4747 1.97657 9.52542 1.97657 7.87418 2.07029C6.2765 2.14616 4.85734 2.51211 3.68362 3.68136C2.50991 4.85061 2.14842 6.26978 2.06809 7.87192C1.97437 9.52315 1.97437 14.4724 2.06809 16.1236C2.14396 17.7258 2.50991 19.1449 3.68362 20.3142C4.85734 21.4834 6.27204 21.8494 7.87418 21.9297C9.52542 22.0234 14.4747 22.0234 16.1259 21.9297C17.728 21.8538 19.1472 21.4879 20.3164 20.3142C21.4857 19.1449 21.8516 17.7258 21.932 16.1236C22.0257 14.4724 22.0257 9.52761 21.932 7.87638ZM19.7988 17.8953C19.4507 18.7701 18.7768 19.4439 17.8976 19.7965C16.5811 20.3186 13.4571 20.1981 12.0023 20.1981C10.5474 20.1981 7.41898 20.3142 6.10692 19.7965C5.23221 19.4484 4.55833 18.7745 4.20577 17.8953C3.68362 16.5788 3.80412 13.4549 3.80412 12C3.80412 10.5451 3.68809 7.41671 4.20577 6.10465C4.55387 5.22995 5.22775 4.55606 6.10692 4.2035C7.42344 3.68136 10.5474 3.80185 12.0023 3.80185C13.4571 3.80185 16.5856 3.68582 17.8976 4.2035C18.7723 4.5516 19.4462 5.22548 19.7988 6.10465C20.3209 7.42118 20.2004 10.5451 20.2004 12C20.2004 13.4549 20.3209 16.5833 19.7988 17.8953Z" fill="black"/>
</svg>
