<svg width="24" height="24" viewBox="0 0 24 24" fill="none" xmlns="http://www.w3.org/2000/svg">
<path d="M8.5625 5.125C8.04297 5.125 7.625 5.54297 7.625 6.0625V17.9375C7.625 18.2656 7.57031 18.582 7.46484 18.875H19.1875C19.707 18.875 20.125 18.457 20.125 17.9375V6.0625C20.125 5.54297 19.707 5.125 19.1875 5.125H8.5625ZM4.8125 20.75C3.25781 20.75 2 19.4922 2 17.9375V6.375C2 5.85547 2.41797 5.4375 2.9375 5.4375C3.45703 5.4375 3.875 5.85547 3.875 6.375V17.9375C3.875 18.457 4.29297 18.875 4.8125 18.875C5.33203 18.875 5.75 18.457 5.75 17.9375V6.0625C5.75 4.50781 7.00781 3.25 8.5625 3.25H19.1875C20.7422 3.25 22 4.50781 22 6.0625V17.9375C22 19.4922 20.7422 20.75 19.1875 20.75H4.8125ZM8.875 7.3125C8.875 6.79297 9.29297 6.375 9.8125 6.375H13.5625C14.082 6.375 14.5 6.79297 14.5 7.3125V10.4375C14.5 10.957 14.082 11.375 13.5625 11.375H9.8125C9.29297 11.375 8.875 10.957 8.875 10.4375V7.3125ZM16.6875 6.375H17.9375C18.457 6.375 18.875 6.79297 18.875 7.3125C18.875 7.83203 18.457 8.25 17.9375 8.25H16.6875C16.168 8.25 15.75 7.83203 15.75 7.3125C15.75 6.79297 16.168 6.375 16.6875 6.375ZM16.6875 9.5H17.9375C18.457 9.5 18.875 9.91797 18.875 10.4375C18.875 10.957 18.457 11.375 17.9375 11.375H16.6875C16.168 11.375 15.75 10.957 15.75 10.4375C15.75 9.91797 16.168 9.5 16.6875 9.5ZM9.8125 12.625H17.9375C18.457 12.625 18.875 13.043 18.875 13.5625C18.875 14.082 18.457 14.5 17.9375 14.5H9.8125C9.29297 14.5 8.875 14.082 8.875 13.5625C8.875 13.043 9.29297 12.625 9.8125 12.625ZM9.8125 15.75H17.9375C18.457 15.75 18.875 16.168 18.875 16.6875C18.875 17.207 18.457 17.625 17.9375 17.625H9.8125C9.29297 17.625 8.875 17.207 8.875 16.6875C8.875 16.168 9.29297 15.75 9.8125 15.75Z" fill="black"/>
</svg>
