<svg width="24" height="24" viewBox="0 0 24 24" fill="none" xmlns="http://www.w3.org/2000/svg">
<path d="M13.1538 3.15385C13.1538 2.51442 12.6394 2 12 2C11.3606 2 10.8462 2.51442 10.8462 3.15385V10.8462H3.15385C2.51442 10.8462 2 11.3606 2 12C2 12.6394 2.51442 13.1538 3.15385 13.1538H10.8462V20.8462C10.8462 21.4856 11.3606 22 12 22C12.6394 22 13.1538 21.4856 13.1538 20.8462V13.1538H20.8462C21.4856 13.1538 22 12.6394 22 12C22 11.3606 21.4856 10.8462 20.8462 10.8462H13.1538V3.15385Z" fill="black"/>
</svg>
