<svg width="24" height="24" viewBox="0 0 24 24" fill="none" xmlns="http://www.w3.org/2000/svg">
<path d="M2 18.25C2 18.7695 2.41797 19.1875 2.9375 19.1875H5.26953C5.66797 20.457 6.85156 21.375 8.25 21.375C9.64844 21.375 10.832 20.457 11.2305 19.1875H21.0625C21.582 19.1875 22 18.7695 22 18.25C22 17.7305 21.582 17.3125 21.0625 17.3125H11.2305C10.832 16.043 9.64844 15.125 8.25 15.125C6.85156 15.125 5.66797 16.043 5.26953 17.3125H2.9375C2.41797 17.3125 2 17.7305 2 18.25ZM7 18.25C7 17.9185 7.1317 17.6005 7.36612 17.3661C7.60054 17.1317 7.91848 17 8.25 17C8.58152 17 8.89946 17.1317 9.13388 17.3661C9.3683 17.6005 9.5 17.9185 9.5 18.25C9.5 18.5815 9.3683 18.8995 9.13388 19.1339C8.89946 19.3683 8.58152 19.5 8.25 19.5C7.91848 19.5 7.60054 19.3683 7.36612 19.1339C7.1317 18.8995 7 18.5815 7 18.25ZM14.5 12C14.5 11.6685 14.6317 11.3505 14.8661 11.1161C15.1005 10.8817 15.4185 10.75 15.75 10.75C16.0815 10.75 16.3995 10.8817 16.6339 11.1161C16.8683 11.3505 17 11.6685 17 12C17 12.3315 16.8683 12.6495 16.6339 12.8839C16.3995 13.1183 16.0815 13.25 15.75 13.25C15.4185 13.25 15.1005 13.1183 14.8661 12.8839C14.6317 12.6495 14.5 12.3315 14.5 12ZM15.75 8.875C14.3516 8.875 13.168 9.79297 12.7695 11.0625H2.9375C2.41797 11.0625 2 11.4805 2 12C2 12.5195 2.41797 12.9375 2.9375 12.9375H12.7695C13.168 14.207 14.3516 15.125 15.75 15.125C17.1484 15.125 18.332 14.207 18.7305 12.9375H21.0625C21.582 12.9375 22 12.5195 22 12C22 11.4805 21.582 11.0625 21.0625 11.0625H18.7305C18.332 9.79297 17.1484 8.875 15.75 8.875ZM9.5 7C9.16848 7 8.85054 6.8683 8.61612 6.63388C8.3817 6.39946 8.25 6.08152 8.25 5.75C8.25 5.41848 8.3817 5.10054 8.61612 4.86612C8.85054 4.6317 9.16848 4.5 9.5 4.5C9.83152 4.5 10.1495 4.6317 10.3839 4.86612C10.6183 5.10054 10.75 5.41848 10.75 5.75C10.75 6.08152 10.6183 6.39946 10.3839 6.63388C10.1495 6.8683 9.83152 7 9.5 7ZM12.4805 4.8125C12.082 3.54297 10.8984 2.625 9.5 2.625C8.10156 2.625 6.91797 3.54297 6.51953 4.8125H2.9375C2.41797 4.8125 2 5.23047 2 5.75C2 6.26953 2.41797 6.6875 2.9375 6.6875H6.51953C6.91797 7.95703 8.10156 8.875 9.5 8.875C10.8984 8.875 12.082 7.95703 12.4805 6.6875H21.0625C21.582 6.6875 22 6.26953 22 5.75C22 5.23047 21.582 4.8125 21.0625 4.8125H12.4805Z" fill="black"/>
</svg>
