<svg width="24" height="24" viewBox="0 0 24 24" fill="none" xmlns="http://www.w3.org/2000/svg">
<path d="M12 2C11.4805 2 11.0625 2.41797 11.0625 2.9375V6.0625C11.0625 6.58203 11.4805 7 12 7C12.5195 7 12.9375 6.58203 12.9375 6.0625V3.92969C16.9844 4.39453 20.125 7.82812 20.125 12C20.125 16.4883 16.4883 20.125 12 20.125C7.51172 20.125 3.875 16.4883 3.875 12C3.875 10.3086 4.39062 8.73828 5.27344 7.4375C5.56641 7.00781 5.45312 6.42578 5.02344 6.13672C4.59375 5.84766 4.01172 5.95703 3.72266 6.38672C2.63672 7.98438 2 9.91797 2 12C2 17.5234 6.47656 22 12 22C17.5234 22 22 17.5234 22 12C22 6.47656 17.5234 2 12 2ZM9.53906 8.21094C9.17188 7.84375 8.57813 7.84375 8.21484 8.21094C7.85156 8.57812 7.84766 9.17187 8.21484 9.53516L11.3398 12.6602C11.707 13.0273 12.3008 13.0273 12.6641 12.6602C13.0273 12.293 13.0312 11.6992 12.6641 11.3359L9.53906 8.21094Z" fill="black"/>
</svg>
