<svg width="24" height="24" viewBox="0 0 24 24" fill="none" xmlns="http://www.w3.org/2000/svg">
<path d="M10.168 3.875H13.8281C13.9336 3.875 14.0312 3.92578 14.0898 4.01562L14.832 5.125H9.16797L9.91016 4.01562C9.96875 3.92969 10.0664 3.875 10.1719 3.875H10.168ZM17.0859 5.125L15.6523 2.97266C15.2461 2.36719 14.5625 2 13.832 2H10.168C9.4375 2 8.75391 2.36719 8.34766 2.97266L6.91406 5.125H6.37891H4.5H4.1875C3.66797 5.125 3.25 5.54297 3.25 6.0625C3.25 6.58203 3.66797 7 4.1875 7H4.64062L5.57812 19.6836C5.67578 20.9883 6.76172 22 8.07031 22H15.9297C17.2383 22 18.3242 20.9883 18.4219 19.6836L19.3594 7H19.8125C20.332 7 20.75 6.58203 20.75 6.0625C20.75 5.54297 20.332 5.125 19.8125 5.125H19.5H17.6211H17.0859ZM17.4805 7L16.5508 19.5469C16.5273 19.875 16.2539 20.125 15.9258 20.125H8.07031C7.74219 20.125 7.47266 19.8711 7.44531 19.5469L6.51953 7H17.4805Z" fill="black"/>
</svg>
