<svg width="80" height="80" viewBox="0 0 80 80" fill="none" xmlns="http://www.w3.org/2000/svg">
<path d="M41.1797 3.26375C31.8585 4.45825 22.1362 6.00159 14.6095 11.4455C4.25382 18.9297 0.242427 32.8091 2.70204 45.0818C3.40932 48.6019 4.58107 52.0268 5.8795 55.3883C7.4735 59.5109 9.29974 63.623 12.1183 67.0796C14.8418 70.42 18.4521 73.0627 22.5162 74.6906C27.0871 76.5299 32.1224 77.0584 37.0839 76.995C46.9118 76.8682 56.9614 74.31 64.6042 68.3481C72.7747 61.9739 77.6306 51.9422 77.979 41.7943C78.3273 31.6463 74.3265 21.5089 67.4755 13.8134C64.2347 10.1771 60.3183 7.01638 55.7897 5.06079C51.2504 3.10519 46.0884 2.62951 41.1797 3.26375Z" stroke="#A0D5F8" stroke-width="2.5" stroke-linecap="round" stroke-linejoin="round"/>
<path d="M51.937 4.61743C52.3382 6.49903 52.7499 8.45463 52.296 10.3151C51.842 12.1755 50.2797 13.9303 48.3584 13.9092C47.0917 13.8986 45.8672 13.1375 44.6321 13.4123C43.1542 13.74 42.4047 15.3468 41.423 16.499C40.4835 17.5984 39.2273 18.37 38.14 19.3214C37.0527 20.2728 36.092 21.5518 36.092 22.9895C36.092 23.4334 36.1976 23.8986 36.4721 24.2368C36.7888 24.6279 37.2849 24.8076 37.7599 24.9345C40.9479 25.759 44.2626 24.4905 47.2711 23.1586C49.2029 22.2918 51.6942 21.4778 53.2249 22.9366C53.7527 23.4334 54.0483 24.1311 54.2911 24.8182C54.7239 26.0233 55.0511 27.2918 54.9245 28.5603C54.7978 29.8288 54.1644 31.1078 53.056 31.7421C51.6837 32.5137 49.9947 32.1755 48.4323 32.0909C45.6877 31.9429 42.9008 32.6617 40.209 32.0803C39.1006 31.8372 38.0344 31.3721 36.8943 31.2347C34.5931 30.9598 32.2918 32.1438 30.7928 33.9091C29.2938 35.6744 28.5232 37.9577 28.1537 40.241C27.7315 42.8414 28.0376 45.9915 30.2755 47.3657C31.5951 48.1691 33.2524 48.1268 34.7831 47.926C36.3137 47.7251 37.876 47.408 39.3856 47.7357C40.8951 48.0634 42.3519 49.2896 42.3414 50.8435C42.3414 51.4989 42.0774 52.1226 42.0563 52.778C42.0352 53.4333 42.3625 54.1944 43.017 54.2896C43.3442 54.3319 43.7031 54.1944 43.9987 54.3424C44.3999 54.5327 44.4209 55.0824 44.3998 55.5264C44.2204 58.1373 43.9354 60.7589 44.2521 63.3487C44.4949 65.3678 45.3393 67.5982 47.2395 68.3276C48.5168 68.8138 49.9736 68.4861 51.1664 67.8202C54.5444 65.928 55.959 61.8688 56.9618 58.1162C57.9647 54.3636 59.0203 50.2938 62.0816 47.926C62.5567 47.556 63.0845 47.2283 63.3695 46.6997C63.9712 45.611 63.2428 44.1945 62.2189 43.4968C61.1949 42.7991 59.9282 42.5349 58.8092 41.9852C57.6902 41.4355 56.624 40.4101 56.6979 39.1628C56.8035 37.3975 59.147 36.5835 60.8149 37.1543C62.3139 37.6617 64.0979 38.8351 65.2485 37.7463C66.2302 36.8161 65.618 35.1882 64.9529 34.0254C64.2879 32.8626 63.6334 31.2558 64.5729 30.2939C65.2591 29.5856 66.4519 29.7019 67.3387 30.1459C68.2254 30.5899 68.9643 31.2875 69.8722 31.6892C71.994 32.6089 74.7703 31.3404 75.4776 29.1311" stroke="#A0D5F8" stroke-width="2.5" stroke-linecap="round" stroke-linejoin="round"/>
<path d="M19.6237 9.57495C20.5948 11.6891 21.5871 13.9935 21.1016 16.2663C20.6476 18.391 18.927 20.0823 16.9424 20.9597C15.6123 21.5517 14.0816 21.8688 13.0999 22.947C12.3293 23.8032 12.0231 24.9977 11.2631 25.854C10.1019 27.1542 7.11447 28.3698 5.12988 25.5791" stroke="#A0D5F8" stroke-width="2.5" stroke-linecap="round" stroke-linejoin="round"/>
<path d="M2.79688 35.5691C5.28816 35.5268 8.25446 35.7171 9.54233 37.8524C10.4607 39.364 10.144 41.2879 10.1018 43.0638C10.0596 44.8397 10.5557 46.9538 12.2236 47.5564C12.9204 47.8101 13.7121 47.7466 14.4088 48.0003C15.1477 48.2752 15.7178 48.8883 16.1506 49.5542C17.0268 50.9179 17.4279 52.5881 17.259 54.2054C16.9951 56.7741 15.3905 59.0891 15.3272 61.6578C15.2955 62.9474 15.6544 64.2582 15.2955 65.495C14.9366 66.7318 13.3532 67.7254 12.382 66.8903" stroke="#A0D5F8" stroke-width="2.5" stroke-linecap="round" stroke-linejoin="round"/>
<path d="M43.4115 15.4991C42.5564 16.2707 42.2714 17.6555 42.7992 18.7126C43.3271 19.7697 44.636 20.3722 45.7128 19.9916C46.1033 19.8542 46.4517 19.6005 46.7684 19.3257C47.1062 19.0191 47.4229 18.6492 47.5707 18.2052C48.0457 16.7464 47.5707 15.7105 46.2722 15.1502C44.826 14.5266 43.7915 15.1714 43.4115 15.5202V15.4991Z" fill="#8BFBD2"/>
</svg>
