<svg width="80" height="80" viewBox="0 0 80 80" fill="none" xmlns="http://www.w3.org/2000/svg">
<path d="M36.6247 19.8015C36.0244 19.8015 35.5099 19.3442 35.4432 18.7344C35.3765 18.0769 35.8434 17.4957 36.5009 17.4195C46.0576 16.3904 55.8335 16.5905 65.2854 16.7906C66.6193 16.8192 67.9533 16.8478 69.2872 16.8668C69.9447 16.8764 70.4687 17.4195 70.4592 18.0769C70.4497 18.7248 69.9161 19.2489 69.2682 19.2489H69.2491C67.9152 19.2203 66.5717 19.2012 65.2378 19.1727C55.8621 18.9821 46.1624 18.782 36.7581 19.792C36.7105 19.792 36.6724 19.792 36.6247 19.792V19.8015Z" fill="#9CFCD7"/>
<path d="M68.9925 28.5671C68.9353 28.5671 68.8686 28.5671 68.8114 28.5575C58.2447 26.9473 47.4493 26.5185 36.7206 27.2903C36.0346 27.3379 35.4915 26.8425 35.4438 26.185C35.3962 25.5276 35.8917 24.9559 36.5491 24.9083C47.4493 24.1269 58.4257 24.5557 69.1735 26.1946C69.8214 26.2898 70.2692 26.8996 70.174 27.5476C70.0882 28.1383 69.5737 28.5575 69.002 28.5575L68.9925 28.5671Z" fill="#9CFCD7"/>
<path d="M42.6757 46.4712C42.6757 46.4712 42.5899 46.4712 42.5423 46.4712C42.0087 46.4331 41.5609 46.0615 41.4084 45.5279C40.7796 43.2983 38.0926 38.1245 36.7873 37.8196C32.2519 36.7525 29.2315 34.885 27.5545 32.1218C25.6012 28.9108 25.4488 24.6327 27.0686 18.2297C28.05 14.3518 31.7278 9.21612 37.5019 7.09134C40.2079 6.09089 44.8481 5.59542 46.2106 5.46203C59.6453 4.18525 68.4874 5.54778 73.242 9.63536C77.5011 13.2942 77.7964 18.6013 77.987 22.1077C78.149 25.0424 76.815 30.7974 73.3373 34.4181C71.1553 36.6953 68.4684 37.8101 65.4194 37.772C63.2469 37.7339 61.5414 37.6577 59.893 37.5814C57.2823 37.4671 55.0242 37.3623 51.6131 37.4671H51.4511C50.0695 37.5147 48.1829 37.5624 46.9824 39.2203C46.4393 39.973 45.6675 41.7357 45.0577 43.1554C43.9524 45.7089 43.619 46.4807 42.6852 46.4807L42.6757 46.4712ZM55.2528 7.37719C52.5945 7.37719 49.6598 7.52964 46.4298 7.83454C43.7809 8.08227 40.2651 8.60632 38.3213 9.32093C33.3571 11.1503 30.2033 15.5238 29.3744 18.811C27.9452 24.4612 28.0214 28.2915 29.584 30.8831C30.9179 33.0746 33.4524 34.5801 37.3304 35.4948C39.5123 36.0093 41.5895 39.8205 42.7519 42.4503C42.79 42.3646 42.8281 42.2788 42.8567 42.2026C43.5523 40.6019 44.3431 38.782 45.0387 37.8196C46.9252 35.2184 49.8123 35.1327 51.3653 35.0946H51.5178C55.0146 34.9802 57.4253 35.0946 59.9788 35.2089C61.6081 35.2851 63.2946 35.3614 65.4384 35.39C67.8586 35.4566 69.8976 34.5419 71.6031 32.7697C74.5473 29.7016 75.7193 24.6708 75.5859 22.2411C75.3572 18.1345 74.8808 14.2184 71.6603 11.4457C68.497 8.73018 63.085 7.37719 55.2338 7.37719H55.2528Z" fill="#A0D5F8"/>
<path d="M24.3914 75.9793C23.41 75.9793 22.5429 75.9508 21.895 75.9222C15.9304 75.6363 10.3469 74.4548 7.30738 72.8351C2.93396 70.5102 1.06644 65.7556 2.44802 60.4294C4.27743 53.3595 9.61319 49.9294 17.4644 50.7583C26.7734 51.7397 29.0316 49.1385 30.0892 46.1753C30.2893 45.6227 30.8514 45.2987 31.4231 45.4035C31.9948 45.5083 32.4141 46.0038 32.4045 46.585C32.3855 48.6907 33.9005 51.8541 35.6441 53.35C35.9681 53.6263 36.4159 53.9407 36.8828 54.2742C39.5792 56.1798 44.0956 59.3813 41.9136 66.6513C40.9132 69.9861 38.331 72.2634 36.3492 73.5973C33.3573 75.5982 28.0311 75.9793 24.4009 75.9793H24.3914ZM15.1586 53.0165C9.62272 53.0165 6.12589 55.7034 4.74431 61.0297C3.63904 65.2983 5.0111 68.9285 8.42217 70.7389C14.1962 73.8069 30.2512 74.8074 35.0248 71.625C36.6827 70.5102 38.836 68.6331 39.6364 65.9748C41.3324 60.3532 38.1024 58.0664 35.5107 56.237C34.9962 55.8654 34.5007 55.5224 34.091 55.1699C32.6332 53.9217 31.385 51.9494 30.6704 49.958C28.2121 52.8545 23.9149 53.8455 17.2167 53.1404C16.502 53.0641 15.8255 53.026 15.1681 53.026L15.1586 53.0165Z" fill="#A0D5F8"/>
</svg>
