<svg width="56" height="56" viewBox="0 0 56 56" fill="none" xmlns="http://www.w3.org/2000/svg">
<path d="M54.5964 44.7895C54.4536 44.097 54.2108 42.7189 53.968 41.348C53.7252 39.9557 53.4753 38.5634 53.3325 37.8565C53.2825 37.6209 53.1397 37.4067 52.9326 37.2782C52.7255 37.1497 52.4756 37.1068 52.2399 37.1639C50.569 37.5781 49.248 37.5852 48.2054 37.1925C47.1914 36.8141 46.1775 35.7859 46.2917 34.6292C46.4631 32.8656 48.9552 32.016 51.0117 31.6161C51.2617 31.5661 51.4759 31.4162 51.6044 31.202C51.7329 30.9878 51.7687 30.7236 51.6972 30.488L49.7907 24.0405C49.655 23.5907 49.2051 23.3194 48.7481 23.4193C46.3131 23.9477 43.8425 24.476 41.3718 25.0115C41.8573 24.6474 42.3358 24.2833 42.8142 23.9263C44.5708 22.6053 46.2346 21.3558 48.0698 19.8636C48.4339 19.5637 48.5054 19.0282 48.2269 18.6497C47.8127 18.0714 47.0201 16.9218 46.2275 15.7723C45.4205 14.6013 44.6208 13.4304 44.1923 12.852C44.0495 12.6592 43.8353 12.5236 43.5925 12.495C43.3569 12.4593 43.107 12.5236 42.9213 12.6735C41.5717 13.7302 40.3721 14.2729 39.2581 14.3443C38.1656 14.4085 36.816 13.8873 36.4375 12.7877C35.8591 11.1098 37.7729 9.32482 39.4795 8.11814C39.6866 7.97534 39.8222 7.74686 39.8508 7.49696C39.8794 7.24706 39.8008 6.99715 39.6366 6.80437L35.2165 1.70636C34.9094 1.3565 34.3882 1.29938 34.0097 1.5707C23.5771 9.26056 12.7875 17.2217 1.76936 25.1829C1.39091 25.4542 1.29094 25.9683 1.52658 26.3682C3.91158 30.3452 6.61077 34.2151 9.56702 37.8637C10.4739 43.1902 11.9377 49.4306 13.6301 54.0145C13.7586 54.3715 14.1014 54.6 14.4656 54.6C14.5155 54.6 14.5727 54.6 14.6227 54.5857C27.7901 52.2295 41.0147 49.2878 53.9394 45.8248C54.3964 45.7035 54.6749 45.2465 54.5821 44.7824L54.5964 44.7895ZM3.49742 26.1611C14.0585 18.5212 24.4054 10.8956 34.4238 3.50566L37.68 7.2542C35.0594 9.31768 34.0811 11.374 34.7666 13.3732C35.4378 15.3296 37.5943 16.2364 39.3867 16.1293C40.6434 16.0508 41.9216 15.5581 43.2855 14.637C43.7068 15.2368 44.2423 16.0151 44.7779 16.7933C45.3349 17.6002 45.8847 18.3998 46.3131 19.0139C44.7565 20.2634 43.2998 21.3558 41.7645 22.5125C40.6648 23.3336 39.5509 24.169 38.3798 25.0829C38.1656 25.2472 38.0585 25.4971 38.0442 25.747C28.7184 27.7533 19.1999 29.7811 9.55989 31.7732C9.11002 31.866 8.80297 32.2873 8.85295 32.7442C8.91008 33.2298 8.97435 33.751 9.04575 34.2794C7.06064 31.659 5.20405 28.9457 3.5117 26.1682L3.49742 26.1611ZM15.0654 52.7007C13.0445 46.9601 11.3951 38.9133 10.7095 33.3511C18.8357 31.6732 26.8547 29.9668 34.7523 28.2746C34.5881 28.4673 34.4953 28.7244 34.5381 28.9957L34.7952 30.6094C34.8666 31.052 35.245 31.3591 35.6735 31.3591C35.7235 31.3591 35.7663 31.3591 35.8163 31.3448C36.3019 31.2662 36.6375 30.8093 36.5589 30.3238L36.3019 28.7101C36.2519 28.4031 36.0448 28.1746 35.7806 28.0532C40.0007 27.1464 44.1924 26.2468 48.3268 25.3543L49.7264 30.0881C46.4774 30.9021 44.7279 32.373 44.528 34.465C44.328 36.5285 45.9133 38.2421 47.5913 38.8704C48.7696 39.3131 50.1406 39.3916 51.7615 39.0989C51.89 39.8129 52.0543 40.734 52.2185 41.655C52.3899 42.619 52.5613 43.5829 52.6969 44.3183C40.3221 47.6099 27.6759 50.4231 15.0725 52.6936L15.0654 52.7007Z" fill="#A0D5F8"/>
<path d="M38.2371 38.2708L37.5444 35.1717C37.4373 34.6933 36.966 34.3862 36.4805 34.4933C36.002 34.6004 35.695 35.0789 35.8021 35.5573L36.4947 38.6564C36.5876 39.0705 36.9589 39.3562 37.3659 39.3562C37.4302 39.3562 37.4945 39.349 37.5587 39.3347C38.0372 39.2276 38.3442 38.7492 38.2371 38.2708Z" fill="#A0D5F8"/>
<path d="M39.301 42.9185C39.1653 42.4472 38.6654 42.1758 38.1942 42.3115C37.7229 42.4472 37.4515 42.947 37.5872 43.4183L38.544 46.6673C38.6583 47.0529 39.0153 47.31 39.4009 47.31C39.4866 47.31 39.5723 47.2957 39.6509 47.2743C40.1222 47.1386 40.3935 46.6388 40.2578 46.1675L39.301 42.9185Z" fill="#A0D5F8"/>
<path d="M28.0901 39.0274C26.6406 39.2487 25.1981 39.52 23.7486 39.8128C23.4629 38.5062 23.1702 37.1781 22.8345 35.8643C22.7132 35.3859 22.2276 35.1003 21.7492 35.2217C21.2707 35.3431 20.9851 35.8286 21.0994 36.307C21.4207 37.5851 21.7135 38.8917 21.9919 40.1769C20.7066 40.4483 19.407 40.7339 18.0717 41.0337L17.7646 41.1051C17.2862 41.2122 16.9792 41.6906 17.0863 42.169C17.1791 42.5831 17.5504 42.8687 17.9574 42.8687C18.0217 42.8687 18.086 42.8687 18.1502 42.8473L18.4573 42.7759C19.7855 42.4832 21.0851 42.1976 22.3704 41.9191C22.6632 43.2757 22.9702 44.6538 23.313 46.0175C23.4129 46.4245 23.7771 46.6887 24.177 46.6887C24.2484 46.6887 24.327 46.6815 24.3984 46.6601C24.8768 46.5387 25.1624 46.0532 25.041 45.5748C24.7054 44.2468 24.4055 42.8902 24.1127 41.555C25.5337 41.2694 26.9405 41.0052 28.3472 40.791C28.8327 40.7124 29.1684 40.2626 29.0898 39.7699C29.0113 39.2844 28.5471 38.9488 28.0687 39.0274H28.0901Z" fill="#9CFCD7"/>
</svg>
