<svg width="80" height="80" viewBox="0 0 80 80" fill="none" xmlns="http://www.w3.org/2000/svg">
<path d="M42.2847 35.7275C43.1967 36.2274 44.0983 36.717 45.2383 37.3903C45.6424 37.6351 46.1503 37.6351 46.5648 37.3903C46.969 37.1557 47.2177 36.717 47.2073 36.2478C47.1452 34.1464 46.9275 32.3612 46.7824 31.1881C46.7306 30.7699 46.6788 30.3007 46.6581 30.0354C47.2799 29.097 48.3266 27.8933 49.1868 26.9038C50.9589 24.8738 51.5497 24.1903 51.1662 23.2314C50.5444 21.7115 45.8186 21.5075 43.5905 21.4973C42.9997 19.2021 41.8079 16.7845 40.7716 15.2544C40.5332 14.8973 40.1498 14.6933 39.673 14.6831C39.2378 14.6831 38.8232 14.9177 38.5952 15.285C37.3101 17.3047 36.2945 19.0797 35.3411 21.4055C34.056 21.4565 33.1129 21.6299 32.0351 21.8237C31.1438 21.9869 30.1386 22.1604 28.7498 22.3032C28.3042 22.344 27.9104 22.6194 27.7135 23.0172C27.5166 23.4151 27.5477 23.8843 27.786 24.2617C29.3406 26.6793 31.0713 27.9443 33.0818 29.4132L33.1233 29.4438C32.9989 30.4435 32.7606 31.4432 32.5015 32.4938C32.1802 33.8302 31.8382 35.1971 31.7553 36.666C31.7242 37.125 31.9522 37.5637 32.346 37.8085C32.5636 37.9411 32.802 38.0125 33.0507 38.0125C33.258 38.0125 33.4653 37.9615 33.6518 37.8697L34.8333 37.2679C36.6054 36.3702 38.16 35.5745 39.9529 34.4422C40.813 34.9421 41.5488 35.3399 42.2847 35.7479V35.7275ZM39.1963 31.8614C37.5796 32.9223 36.2323 33.6567 34.6985 34.4422C34.7918 33.9934 34.9058 33.5343 35.0198 33.0753C35.3411 31.739 35.6831 30.3721 35.766 28.9031C35.7867 28.4747 35.6002 28.0667 35.2478 27.8116L34.6156 27.3526C33.2787 26.3835 32.2009 25.5981 31.2475 24.5474C31.6931 24.476 32.1076 24.4045 32.4911 24.3331C33.7244 24.1087 34.6882 23.9353 36.222 23.9353C36.7609 23.9353 37.248 23.6089 37.4345 23.109C38.1185 21.3341 38.8336 19.906 39.6627 18.4778C40.4296 19.9978 41.041 21.6707 41.2587 22.9968C41.3727 23.6497 41.9841 24.0985 42.637 24.0577C44.2745 23.9251 46.5441 24.1393 47.9535 24.3943C47.7048 24.68 47.4457 24.986 47.2073 25.2512C46.1606 26.4549 44.9688 27.8218 44.2745 28.9643C43.9532 29.4744 44.0154 29.9844 44.2019 31.4942C44.2848 32.1878 44.3885 33.0243 44.4714 34.0036C44.1501 33.8302 43.8496 33.6568 43.5386 33.4935C42.6266 32.9937 41.725 32.504 40.585 31.8308C40.1601 31.5758 39.6212 31.586 39.1963 31.8614Z" fill="#9CFCD7"/>
<path d="M56.6174 53.8035C55.1458 51.8143 53.6327 49.7639 52.0678 47.1321C52.7622 46.7445 53.4462 46.3364 54.0991 45.8774C62.0894 40.3791 66.3281 30.5761 64.6285 21.4769C62.9081 12.2247 55.0836 4.41081 45.601 2.46245C35.994 0.493675 26.273 5.11468 20.8943 10.5823C20.8528 10.6232 20.8217 10.664 20.7906 10.7048C15.3394 16.3458 13.9403 27.4444 15.7436 34.9829C16.666 38.8388 18.0754 41.7563 20.0548 43.9086C21.6404 45.6428 23.7442 47.0811 26.501 48.295C27.0709 48.5398 27.6513 48.7643 28.2317 48.9785C28.2317 49.0091 28.2006 49.0295 28.1902 49.0601C26.9673 53.4261 25.5061 57.384 24.0862 61.2093C22.4488 65.6263 20.7596 70.1963 19.4537 75.3784C19.319 75.9292 19.5574 76.5005 20.0548 76.7861C20.5523 77.0717 21.1845 77.0003 21.599 76.6127C24.791 73.6238 28.1902 70.8288 31.7138 68.299C34.056 70.7472 35.9836 73.736 37.4552 77.2145C37.6625 77.694 38.1289 78 38.647 78C38.6885 78 38.7196 78 38.761 78C39.3207 77.949 39.787 77.5614 39.9114 77.0207C41.4245 70.6146 42.2017 64.596 42.6992 57.9247C44.1086 63.1067 45.5492 67.9317 47.6944 73.2566C47.8913 73.7462 48.3681 74.0625 48.8966 74.0625C48.9381 74.0625 48.9795 74.0625 49.021 74.0625C49.591 74.0115 50.0573 73.5932 50.1713 73.0322C50.876 69.4517 51.8088 65.9017 52.9591 62.464C55.7469 63.0353 58.5347 64.1574 61.2396 65.8099C61.7267 66.1058 62.3589 66.0548 62.7838 65.6773C63.2087 65.2999 63.333 64.6878 63.0843 64.1778C60.8872 59.6282 58.7005 56.6801 56.5864 53.8239L56.6174 53.8035ZM21.9928 42.2051C20.3139 40.3791 19.091 37.8289 18.2827 34.4014C16.6245 27.4852 17.8474 17.3557 22.7701 12.3777C22.8012 12.3471 22.8426 12.3063 22.8634 12.2655C27.7653 7.34867 36.5018 3.20711 45.0828 4.96166C53.5602 6.70601 60.5452 13.6834 62.0894 21.9359C63.6025 30.066 59.7991 38.849 52.6275 43.7862C45.6321 48.601 35.5691 49.4783 27.5891 45.9692C25.1744 44.9083 23.3401 43.674 22.0032 42.2051H21.9928ZM38.2014 72.8078C36.6883 70.0943 34.8747 67.7175 32.7916 65.7079C32.346 65.2795 31.6413 65.2183 31.1335 65.5855C28.3975 67.5135 25.7341 69.5843 23.1743 71.7877C24.2003 68.4418 25.3506 65.3305 26.5528 62.0866C27.9829 58.2205 29.4649 54.2115 30.7189 49.7537C33.1336 50.3862 35.6312 50.6922 38.1289 50.6922C38.9476 50.6922 39.7663 50.6514 40.585 50.58C40.1912 58.8325 39.6212 65.7079 38.2221 72.7975L38.2014 72.8078ZM52.3062 59.7404C51.6844 59.6486 51.0833 60.0056 50.8864 60.5871C50.0159 63.0965 49.249 65.6671 48.6064 68.2786C46.8653 63.3821 45.6321 58.7815 44.1605 53.273C43.891 52.2836 43.6215 51.2635 43.3417 50.223C45.5595 49.8251 47.7152 49.1825 49.7568 48.2848C51.4149 51.0901 53.0006 53.2424 54.5344 55.3132C56.0164 57.3126 57.4362 59.2304 58.8663 61.6582C56.7107 60.7197 54.5136 60.077 52.3166 59.7404H52.3062Z" fill="#A0D5F8"/>
</svg>
