<svg width="24" height="24" viewBox="0 0 24 24" fill="none" xmlns="http://www.w3.org/2000/svg">
<path d="M19.7778 5.8889C20.0833 5.8889 20.3333 6.1389 20.3333 6.44445V17.5556C20.3333 17.8611 20.0833 18.1111 19.7778 18.1111H4.22222C3.91667 18.1111 3.66667 17.8611 3.66667 17.5556V6.44445C3.66667 6.1389 3.91667 5.8889 4.22222 5.8889H19.7778ZM4.22222 4.22223C2.99653 4.22223 2 5.21876 2 6.44445V17.5556C2 18.7813 2.99653 19.7778 4.22222 19.7778H19.7778C21.0035 19.7778 22 18.7813 22 17.5556V6.44445C22 5.21876 21.0035 4.22223 19.7778 4.22223H4.22222ZM9.22222 12C9.81159 12 10.3768 11.7659 10.7936 11.3491C11.2103 10.9324 11.4444 10.3672 11.4444 9.77778C11.4444 9.18841 11.2103 8.62318 10.7936 8.20644C10.3768 7.78969 9.81159 7.55556 9.22222 7.55556C8.63285 7.55556 8.06762 7.78969 7.65087 8.20644C7.23413 8.62318 7 9.18841 7 9.77778C7 10.3672 7.23413 10.9324 7.65087 11.3491C8.06762 11.7659 8.63285 12 9.22222 12ZM8.11111 13.1111C6.57639 13.1111 5.33333 14.3542 5.33333 15.8889C5.33333 16.1945 5.58333 16.4445 5.88889 16.4445H12.5556C12.8611 16.4445 13.1111 16.1945 13.1111 15.8889C13.1111 14.3542 11.8681 13.1111 10.3333 13.1111H8.11111ZM15.0556 8.11112C14.5938 8.11112 14.2222 8.48265 14.2222 8.94445C14.2222 9.40626 14.5938 9.77778 15.0556 9.77778H17.8333C18.2951 9.77778 18.6667 9.40626 18.6667 8.94445C18.6667 8.48265 18.2951 8.11112 17.8333 8.11112H15.0556ZM15.0556 11.4445C14.5938 11.4445 14.2222 11.816 14.2222 12.2778C14.2222 12.7396 14.5938 13.1111 15.0556 13.1111H17.8333C18.2951 13.1111 18.6667 12.7396 18.6667 12.2778C18.6667 11.816 18.2951 11.4445 17.8333 11.4445H15.0556Z" fill="black"/>
</svg>
