<svg width="24" height="24" viewBox="0 0 24 24" fill="none" xmlns="http://www.w3.org/2000/svg">
<path d="M21.7063 3.70531C22.0979 3.3135 22.0979 2.67994 21.7063 2.2923C21.3147 1.90465 20.6815 1.90049 20.2941 2.2923L14.6703 7.91935V4.33054C14.6703 3.77617 14.2245 3.33017 13.6705 3.33017C13.1164 3.33017 12.6707 3.77617 12.6707 4.33054V10.3327C12.6707 10.8871 13.1164 11.3331 13.6705 11.3331H19.6651C20.2191 11.3331 20.6649 10.8871 20.6649 10.3327C20.6649 9.77836 20.2191 9.33236 19.6651 9.33236H16.0783L21.7063 3.70531ZM2.29369 20.2947C1.9021 20.6865 1.9021 21.3201 2.29369 21.7077C2.68527 22.0953 3.31848 22.0995 3.70589 21.7077L9.32972 16.0807V19.6695C9.32972 20.2238 9.77546 20.6698 10.3295 20.6698C10.8836 20.6698 11.3293 20.2238 11.3293 19.6695V13.6673C11.3293 13.1129 10.8836 12.6669 10.3295 12.6669H4.33493C3.78088 12.6669 3.33514 13.1129 3.33514 13.6673C3.33514 14.2216 3.78088 14.6676 4.33493 14.6676H7.92168L2.29369 20.2947Z" fill="black"/>
</svg>
