<svg width="24" height="24" viewBox="0 0 24 24" fill="none" xmlns="http://www.w3.org/2000/svg">
<path d="M4.49927 3.87518C4.49927 2.83993 5.33919 2 6.37445 2V3.87518V19.2439L11.457 15.6146C11.7812 15.3802 12.2227 15.3802 12.5469 15.6146L17.6255 19.2439V3.87518H6.37445V2H17.6255C18.6608 2 19.5007 2.83993 19.5007 3.87518V21.0643C19.5007 21.4159 19.3054 21.7363 18.9929 21.8965C18.6803 22.0566 18.3053 22.0293 18.0201 21.8261L12 17.5288L5.97988 21.8261C5.6947 22.0293 5.31966 22.0566 5.00713 21.8965C4.6946 21.7363 4.49927 21.4159 4.49927 21.0643V3.87518Z" fill="black"/>
</svg>
