<svg width="24" height="24" viewBox="0 0 24 24" fill="none" xmlns="http://www.w3.org/2000/svg">
<path d="M7.5 5.75V7H12.5V5.75C12.5 5.6125 12.3875 5.5 12.25 5.5H7.75C7.6125 5.5 7.5 5.6125 7.5 5.75ZM6 7V5.75C6 4.78438 6.78438 4 7.75 4H12.25C13.2156 4 14 4.78438 14 5.75V7H16C17.1031 7 18 7.89687 18 9V10.0219C17.8344 10.0062 17.6687 10 17.5 10C17.1594 10 16.825 10.0312 16.5 10.0906V9C16.5 8.725 16.275 8.5 16 8.5H13.25H6.75H4C3.725 8.5 3.5 8.725 3.5 9V12H8H13H13.2563C12.5719 12.8313 12.125 13.8656 12.0219 15H12H9C8.44688 15 8 14.5531 8 14V13.5H3.5V17C3.5 17.275 3.725 17.5 4 17.5H12.375C12.5906 18.0469 12.8875 18.5531 13.2563 19H4C2.89688 19 2 18.1031 2 17V12.75V9C2 7.89687 2.89688 7 4 7H6ZM13 15.5C13 14.3065 13.4741 13.1619 14.318 12.318C15.1619 11.4741 16.3065 11 17.5 11C18.6935 11 19.8381 11.4741 20.682 12.318C21.5259 13.1619 22 14.3065 22 15.5C22 16.6935 21.5259 17.8381 20.682 18.682C19.8381 19.5259 18.6935 20 17.5 20C16.3065 20 15.1619 19.5259 14.318 18.682C13.4741 17.8381 13 16.6935 13 15.5ZM17.5 13C17.225 13 17 13.225 17 13.5V15.5C17 15.775 17.225 16 17.5 16H19C19.275 16 19.5 15.775 19.5 15.5C19.5 15.225 19.275 15 19 15H18V13.5C18 13.225 17.775 13 17.5 13Z" fill="black"/>
</svg>
