<svg width="24" height="24" viewBox="0 0 24 24" fill="none" xmlns="http://www.w3.org/2000/svg">
<path d="M2.9375 3.25C3.45703 3.25 3.875 3.66797 3.875 4.1875V17.9375C3.875 18.457 4.29297 18.875 4.8125 18.875H21.0625C21.582 18.875 22 19.293 22 19.8125C22 20.332 21.582 20.75 21.0625 20.75H4.8125C3.25781 20.75 2 19.4922 2 17.9375V4.1875C2 3.66797 2.41797 3.25 2.9375 3.25ZM8.5625 10.75C9.08203 10.75 9.5 11.168 9.5 11.6875V14.8125C9.5 15.332 9.08203 15.75 8.5625 15.75C8.04297 15.75 7.625 15.332 7.625 14.8125V11.6875C7.625 11.168 8.04297 10.75 8.5625 10.75ZM13.25 7.9375V14.8125C13.25 15.332 12.832 15.75 12.3125 15.75C11.793 15.75 11.375 15.332 11.375 14.8125V7.9375C11.375 7.41797 11.793 7 12.3125 7C12.832 7 13.25 7.41797 13.25 7.9375ZM16.0625 9.5C16.582 9.5 17 9.91797 17 10.4375V14.8125C17 15.332 16.582 15.75 16.0625 15.75C15.543 15.75 15.125 15.332 15.125 14.8125V10.4375C15.125 9.91797 15.543 9.5 16.0625 9.5ZM20.75 5.4375V14.8125C20.75 15.332 20.332 15.75 19.8125 15.75C19.293 15.75 18.875 15.332 18.875 14.8125V5.4375C18.875 4.91797 19.293 4.5 19.8125 4.5C20.332 4.5 20.75 4.91797 20.75 5.4375Z" fill="black"/>
</svg>
