<svg width="24" height="24" viewBox="0 0 24 24" fill="none" xmlns="http://www.w3.org/2000/svg">
<path d="M12 3.875C14.1549 3.875 16.2215 4.73102 17.7452 6.25476C19.269 7.77849 20.125 9.84512 20.125 12C20.125 14.1549 19.269 16.2215 17.7452 17.7452C16.2215 19.269 14.1549 20.125 12 20.125C9.84512 20.125 7.77849 19.269 6.25476 17.7452C4.73102 16.2215 3.875 14.1549 3.875 12C3.875 9.84512 4.73102 7.77849 6.25476 6.25476C7.77849 4.73102 9.84512 3.875 12 3.875ZM12 22C14.6522 22 17.1957 20.9464 19.0711 19.0711C20.9464 17.1957 22 14.6522 22 12C22 9.34784 20.9464 6.8043 19.0711 4.92893C17.1957 3.05357 14.6522 2 12 2C9.34784 2 6.8043 3.05357 4.92893 4.92893C3.05357 6.8043 2 9.34784 2 12C2 14.6522 3.05357 17.1957 4.92893 19.0711C6.8043 20.9464 9.34784 22 12 22ZM16.4141 10.1641C16.7812 9.79688 16.7812 9.20313 16.4141 8.83984C16.0469 8.47656 15.4531 8.47266 15.0898 8.83984L10.7539 13.1758L8.91797 11.3398C8.55078 10.9727 7.95703 10.9727 7.59375 11.3398C7.23047 11.707 7.22656 12.3008 7.59375 12.6641L10.0938 15.1641C10.4609 15.5312 11.0547 15.5312 11.418 15.1641L16.4141 10.1641Z" fill="black"/>
</svg>
