<svg width="24" height="24" viewBox="0 0 24 24" fill="none" xmlns="http://www.w3.org/2000/svg">
<path d="M12 3.875C14.1549 3.875 16.2215 4.73102 17.7452 6.25476C19.269 7.77849 20.125 9.84512 20.125 12C20.125 14.1549 19.269 16.2215 17.7452 17.7452C16.2215 19.269 14.1549 20.125 12 20.125C9.84512 20.125 7.77849 19.269 6.25476 17.7452C4.73102 16.2215 3.875 14.1549 3.875 12C3.875 9.84512 4.73102 7.77849 6.25476 6.25476C7.77849 4.73102 9.84512 3.875 12 3.875ZM12 22C14.6522 22 17.1957 20.9464 19.0711 19.0711C20.9464 17.1957 22 14.6522 22 12C22 9.34784 20.9464 6.8043 19.0711 4.92893C17.1957 3.05357 14.6522 2 12 2C9.34784 2 6.8043 3.05357 4.92893 4.92893C3.05357 6.8043 2 9.34784 2 12C2 14.6522 3.05357 17.1957 4.92893 19.0711C6.8043 20.9464 9.34784 22 12 22ZM12 7C11.4805 7 11.0625 7.41797 11.0625 7.9375V12.3125C11.0625 12.832 11.4805 13.25 12 13.25C12.5195 13.25 12.9375 12.832 12.9375 12.3125V7.9375C12.9375 7.41797 12.5195 7 12 7ZM13.25 15.75C13.25 15.4185 13.1183 15.1005 12.8839 14.8661C12.6495 14.6317 12.3315 14.5 12 14.5C11.6685 14.5 11.3505 14.6317 11.1161 14.8661C10.8817 15.1005 10.75 15.4185 10.75 15.75C10.75 16.0815 10.8817 16.3995 11.1161 16.6339C11.3505 16.8683 11.6685 17 12 17C12.3315 17 12.6495 16.8683 12.8839 16.6339C13.1183 16.3995 13.25 16.0815 13.25 15.75Z" fill="black"/>
</svg>
