<svg width="16" height="16" viewBox="0 0 16 16" fill="none" xmlns="http://www.w3.org/2000/svg">
<path d="M13.4166 8.00004C13.4166 6.56345 12.8459 5.1857 11.8301 4.16988C10.8143 3.15406 9.43651 2.58337 7.99992 2.58337C6.56333 2.58337 5.18558 3.15406 4.16976 4.16988C3.15393 5.1857 2.58325 6.56345 2.58325 8.00004C2.58325 9.43663 3.15393 10.8144 4.16976 11.8302C5.18558 12.846 6.56333 13.4167 7.99992 13.4167C9.43651 13.4167 10.8143 12.846 11.8301 11.8302C12.8459 10.8144 13.4166 9.43663 13.4166 8.00004ZM1.33325 8.00004C1.33325 6.23193 2.03563 4.53624 3.28587 3.286C4.53612 2.03575 6.23181 1.33337 7.99992 1.33337C9.76803 1.33337 11.4637 2.03575 12.714 3.286C13.9642 4.53624 14.6666 6.23193 14.6666 8.00004C14.6666 9.76815 13.9642 11.4638 12.714 12.7141C11.4637 13.9643 9.76803 14.6667 7.99992 14.6667C6.23181 14.6667 4.53612 13.9643 3.28587 12.7141C2.03563 11.4638 1.33325 9.76815 1.33325 8.00004ZM7.16659 6.12504V9.87504C7.16659 10.2214 6.88794 10.5 6.54159 10.5C6.19523 10.5 5.91659 10.2214 5.91659 9.87504V6.12504C5.91659 5.77869 6.19523 5.50004 6.54159 5.50004C6.88794 5.50004 7.16659 5.77869 7.16659 6.12504ZM10.0833 6.12504V9.87504C10.0833 10.2214 9.80461 10.5 9.45825 10.5C9.1119 10.5 8.83325 10.2214 8.83325 9.87504V6.12504C8.83325 5.77869 9.1119 5.50004 9.45825 5.50004C9.80461 5.50004 10.0833 5.77869 10.0833 6.12504Z" fill="#08436A"/>
</svg>
