<svg width="24" height="24" viewBox="0 0 24 24" fill="none" xmlns="http://www.w3.org/2000/svg">
<path d="M12 20.125C12.2891 20.125 13.0547 19.8438 13.8594 18.2344C14.2031 17.543 14.5 16.7031 14.7188 15.75H9.28125C9.5 16.7031 9.79687 17.543 10.1406 18.2344C10.9453 19.8438 11.7109 20.125 12 20.125ZM8.97266 13.875H15.0273C15.0898 13.2773 15.125 12.6484 15.125 12C15.125 11.3516 15.0898 10.7227 15.0273 10.125H8.97266C8.91016 10.7227 8.875 11.3516 8.875 12C8.875 12.6484 8.91016 13.2773 8.97266 13.875ZM9.28125 8.25H14.7188C14.5 7.29688 14.2031 6.45703 13.8594 5.76562C13.0547 4.15625 12.2891 3.875 12 3.875C11.7109 3.875 10.9453 4.15625 10.1406 5.76562C9.79687 6.45703 9.5 7.29688 9.28125 8.25ZM16.9102 10.125C16.9688 10.7305 16.9961 11.3594 16.9961 12C16.9961 12.6406 16.9648 13.2695 16.9102 13.875H19.9062C20.0469 13.2734 20.125 12.6445 20.125 12C20.125 11.3555 20.0508 10.7266 19.9062 10.125H16.9141H16.9102ZM19.207 8.25C18.3711 6.64453 17.0156 5.35547 15.3633 4.60156C15.9141 5.60156 16.3516 6.84766 16.6367 8.25H19.2109H19.207ZM7.35938 8.25C7.64453 6.84766 8.08203 5.60547 8.63281 4.60156C6.98047 5.35547 5.625 6.64453 4.78906 8.25H7.36328H7.35938ZM4.09375 10.125C3.95312 10.7266 3.875 11.3555 3.875 12C3.875 12.6445 3.94922 13.2734 4.09375 13.875H7.08984C7.03125 13.2695 7.00391 12.6406 7.00391 12C7.00391 11.3594 7.03516 10.7305 7.08984 10.125H4.09375ZM15.3633 19.3984C17.0156 18.6445 18.3711 17.3555 19.207 15.75H16.6367C16.3516 17.1523 15.9141 18.3945 15.3633 19.3984ZM8.63672 19.3984C8.08594 18.3984 7.64844 17.1523 7.36328 15.75H4.78906C5.625 17.3555 6.98047 18.6445 8.63281 19.3984H8.63672ZM12 22C9.34784 22 6.8043 20.9464 4.92893 19.0711C3.05357 17.1957 2 14.6522 2 12C2 9.34784 3.05357 6.8043 4.92893 4.92893C6.8043 3.05357 9.34784 2 12 2C14.6522 2 17.1957 3.05357 19.0711 4.92893C20.9464 6.8043 22 9.34784 22 12C22 14.6522 20.9464 17.1957 19.0711 19.0711C17.1957 20.9464 14.6522 22 12 22Z" fill="black"/>
</svg>
