<svg width="24" height="24" viewBox="0 0 24 24" fill="none" xmlns="http://www.w3.org/2000/svg">
<path d="M12.5399 3.3092C12.2274 3.04531 11.7726 3.04531 11.4601 3.3092L2.29359 11.0868C1.9429 11.3854 1.90124 11.9097 2.19637 12.2604C2.4915 12.6111 3.01927 12.6528 3.36996 12.3576L4.22411 11.6354V18.111C4.22411 19.6457 5.46714 20.8887 7.00183 20.8887H17.0016C18.5363 20.8887 19.7794 19.6457 19.7794 18.111V11.6354L20.63 12.3576C20.9807 12.6562 21.5085 12.6111 21.8036 12.2604C22.0988 11.9097 22.0571 11.382 21.7064 11.0868L12.5399 3.3092ZM5.89074 18.111V10.2223L12.0017 5.03833L18.1127 10.2223V18.111C18.1127 18.7256 17.6162 19.2221 17.0016 19.2221H15.335V13.9444C15.335 13.1771 14.7135 12.5555 13.9461 12.5555H10.0573C9.28998 12.5555 8.66847 13.1771 8.66847 13.9444V19.2221H7.00183C6.38726 19.2221 5.89074 18.7256 5.89074 18.111ZM10.3351 19.2221V14.2222H13.6684V19.2221H10.3351Z" fill="black"/>
</svg>
