<svg width="24" height="24" viewBox="0 0 24 24" fill="none" xmlns="http://www.w3.org/2000/svg">
<path d="M17.0404 11.7596C16.6292 12.7309 16.0457 13.804 15.376 14.8888C14.2637 16.6982 12.9713 18.4488 12 19.6903C11.0288 18.4449 9.73638 16.6982 8.62413 14.8888C7.95442 13.804 7.37088 12.7309 6.95966 11.7596C6.53669 10.757 6.36046 10.0051 6.36046 9.51946C6.36046 6.40593 8.88652 3.87986 12 3.87986C15.1136 3.87986 17.6396 6.40593 17.6396 9.51946C17.6396 10.0051 17.4634 10.757 17.0404 11.7596ZM12.9282 21.5506C14.9373 19.0363 19.5195 12.9424 19.5195 9.51946C19.5195 5.36809 16.1514 2 12 2C7.84868 2 4.48059 5.36809 4.48059 9.51946C4.48059 12.9424 9.06276 19.0363 11.0719 21.5506C11.5536 22.1498 12.4465 22.1498 12.9282 21.5506Z" fill="black"/>
</svg>
