<svg width="24" height="24" viewBox="0 0 24 24" fill="none" xmlns="http://www.w3.org/2000/svg">
<path d="M10.1264 3.87482C11.7843 3.87482 13.3743 4.53323 14.5466 5.70522C15.7189 6.87721 16.3775 8.46677 16.3775 10.1242C16.3775 11.7816 15.7189 13.3712 14.5466 14.5432C13.3743 15.7152 11.7843 16.3736 10.1264 16.3736C8.4685 16.3736 6.87852 15.7152 5.70622 14.5432C4.53391 13.3712 3.87532 11.7816 3.87532 10.1242C3.87532 8.46677 4.53391 6.87721 5.70622 5.70522C6.87852 4.53323 8.4685 3.87482 10.1264 3.87482ZM10.1264 18.2484C12.033 18.2484 13.7872 17.5922 15.1702 16.4947L20.4016 21.7246C20.7688 22.0918 21.3627 22.0918 21.726 21.7246C22.0894 21.3575 22.0933 20.7638 21.726 20.4005L16.4986 15.1667C17.5964 13.784 18.2528 12.0303 18.2528 10.1242C18.2528 5.63636 14.6154 2 10.1264 2C5.63734 2 2 5.63636 2 10.1242C2 14.612 5.63734 18.2484 10.1264 18.2484ZM6.06319 10.4367V12.9364C6.06319 13.4559 6.48123 13.8738 7.00085 13.8738C7.52047 13.8738 7.93851 13.4559 7.93851 12.9364V10.4367C7.93851 9.9172 7.52047 9.49927 7.00085 9.49927C6.48123 9.49927 6.06319 9.9172 6.06319 10.4367ZM9.18873 6.68704V12.9364C9.18873 13.4559 9.60677 13.8738 10.1264 13.8738C10.646 13.8738 11.064 13.4559 11.064 12.9364V6.68704C11.064 6.16756 10.646 5.74963 10.1264 5.74963C9.60677 5.74963 9.18873 6.16756 9.18873 6.68704ZM12.3143 9.1868V12.9364C12.3143 13.4559 12.7323 13.8738 13.2519 13.8738C13.7715 13.8738 14.1896 13.4559 14.1896 12.9364V9.1868C14.1896 8.66732 13.7715 8.24939 13.2519 8.24939C12.7323 8.24939 12.3143 8.66732 12.3143 9.1868Z" fill="black"/>
</svg>
