<svg width="24" height="24" viewBox="0 0 24 24" fill="none" xmlns="http://www.w3.org/2000/svg">
<path d="M2.61672 12.1641C1.73332 12.668 1.81541 14.0118 2.75744 14.4024L8.24156 16.6875V20.7227C8.24156 21.4297 8.81225 22 9.51975 22C9.89891 22 10.2585 21.832 10.5009 21.5391L12.9244 18.6367L17.7674 20.6524C18.5062 20.9609 19.3622 20.4766 19.4834 19.6875L21.9851 3.43764C22.0593 2.96499 21.8522 2.48843 21.4574 2.2189C21.0626 1.94937 20.5466 1.92593 20.1284 2.16421L2.61672 12.1641ZM4.65324 13.1602L18.002 5.53919L9.41812 15.1251L9.46503 15.1641L4.65324 13.1602ZM17.7518 18.6172L11.2396 15.9024L19.6085 6.5548L17.7518 18.6172Z" fill="black"/>
</svg>
