<svg width="24" height="24" viewBox="0 0 24 24" fill="none" xmlns="http://www.w3.org/2000/svg">
<path d="M3.42377 16.0904L2.52443 19.1443L2.03956 20.7944C1.94181 21.1267 2.03174 21.4826 2.27418 21.725C2.51661 21.9674 2.87244 22.0574 3.20089 21.9635L4.85491 21.4747L7.90877 20.5754C8.39364 20.4346 8.83549 20.1883 9.21478 19.8559C9.26952 19.809 9.32035 19.7582 9.37119 19.7073L21.266 7.81642C22.1223 6.96009 22.2279 5.64235 21.5866 4.66871C21.4967 4.53185 21.3872 4.39891 21.266 4.27769L19.7254 2.73316C18.7478 1.75561 17.1642 1.75561 16.1867 2.73316L4.29184 14.628C3.88518 15.0346 3.588 15.5391 3.42377 16.0904ZM5.22247 16.6183C5.28894 16.3993 5.39842 16.196 5.55092 16.0239C5.57438 16.0005 5.59393 15.977 5.6174 15.9535L14.5522 7.02265L16.9765 9.44697L8.04563 18.3818C7.86185 18.5656 7.63115 18.7024 7.3809 18.7767L6.46591 19.0465L4.32312 19.6761L4.95266 17.5333L5.22247 16.6183Z" fill="black"/>
</svg>
