<svg width="24" height="24" viewBox="0 0 24 24" fill="none" xmlns="http://www.w3.org/2000/svg">
<path d="M16.6791 12.7477C16.0386 12.4743 15.2965 12.654 14.8552 13.1929L13.5585 14.7786C11.762 13.7358 10.2622 12.2361 9.21945 10.4395L10.8012 9.14676C11.3402 8.70543 11.5237 7.96337 11.2464 7.32286L9.37177 2.94861C9.07885 2.26123 8.3407 1.87849 7.61036 2.03471L3.23611 2.97205C2.51749 3.12437 2.00195 3.76097 2.00195 4.49913C2.00195 13.5288 8.84452 20.965 17.6281 21.8985C18.0109 21.9375 18.3936 21.9688 18.7842 21.9844H18.7881C19.0263 21.9922 19.2607 22 19.4989 22C20.2371 22 20.8737 21.4845 21.026 20.7658L21.9633 16.3916C22.1196 15.6613 21.7368 14.9231 21.0494 14.6302L16.6752 12.7555L16.6791 12.7477ZM19.2451 20.1214C10.8207 19.9847 4.01332 13.1773 3.88053 4.75299L7.75486 3.9211L9.43426 7.8423L8.03216 8.99054C7.32134 9.57247 7.13778 10.584 7.59864 11.3807C8.80546 13.4624 10.5395 15.1965 12.6212 16.4033C13.4179 16.8642 14.4295 16.6806 15.0114 15.9698L16.1597 14.5677L20.0808 16.2471L19.2451 20.1214Z" fill="black"/>
</svg>
