<svg width="24" height="24" viewBox="0 0 24 24" fill="none" xmlns="http://www.w3.org/2000/svg">
<path d="M11.0275 2.00229C11.8046 2.00229 12.5497 2.30854 13.0982 2.85705L21.143 10.9018C22.2857 12.0446 22.2857 13.8958 21.143 15.0385L15.0408 21.1407C13.8981 22.2834 12.0469 22.2834 10.9041 21.1407L2.85933 13.0959C2.30625 12.5474 2 11.8069 2 11.0298V4.19632C2 2.98503 2.98274 2.00229 4.19404 2.00229H11.0275ZM4.19404 11.0298C4.19404 11.2218 4.27174 11.4092 4.40887 11.5463L12.4537 19.5911C12.7371 19.8745 13.2033 19.8745 13.4867 19.5911L19.5888 13.489C19.8722 13.2056 19.8722 12.7393 19.5888 12.456L11.5441 4.41116C11.4069 4.27403 11.2195 4.19632 11.0275 4.19632H4.19404V11.0298ZM7.11941 5.65901C7.50734 5.65901 7.87938 5.81312 8.15369 6.08743C8.428 6.36173 8.58211 6.73377 8.58211 7.1217C8.58211 7.50963 8.428 7.88167 8.15369 8.15598C7.87938 8.43029 7.50734 8.58439 7.11941 8.58439C6.73149 8.58439 6.35944 8.43029 6.08514 8.15598C5.81083 7.88167 5.65672 7.50963 5.65672 7.1217C5.65672 6.73377 5.81083 6.36173 6.08514 6.08743C6.35944 5.81312 6.73149 5.65901 7.11941 5.65901Z" fill="black"/>
</svg>
