<svg width="24" height="24" viewBox="0 0 24 24" fill="none" xmlns="http://www.w3.org/2000/svg">
<path d="M4 7.5C3.725 7.5 3.5 7.725 3.5 8V16C3.5 16.275 3.725 16.5 4 16.5H20C20.275 16.5 20.5 16.275 20.5 16V14.9062C19.2062 14.5719 18.25 13.4 18.25 12C18.25 10.6 19.2062 9.42812 20.5 9.09375V8C20.5 7.725 20.275 7.5 20 7.5H4ZM2 8C2 6.89688 2.89688 6 4 6H20C21.1031 6 22 6.89688 22 8V9.91563C22 10.2656 21.6 10.5 21.25 10.5C20.4219 10.5 19.75 11.1719 19.75 12C19.75 12.8281 20.4219 13.5 21.25 13.5C21.6 13.5 22 13.7344 22 14.0844V16C22 17.1031 21.1031 18 20 18H4C2.89688 18 2 17.1031 2 16V8ZM14.5 8.5C14.6326 8.5 14.7598 8.55268 14.8536 8.64645C14.9473 8.74021 15 8.86739 15 9C15 9.13261 14.9473 9.25979 14.8536 9.35355C14.7598 9.44732 14.6326 9.5 14.5 9.5C14.3674 9.5 14.2402 9.44732 14.1464 9.35355C14.0527 9.25979 14 9.13261 14 9C14 8.86739 14.0527 8.74021 14.1464 8.64645C14.2402 8.55268 14.3674 8.5 14.5 8.5ZM14.5 10.5C14.6326 10.5 14.7598 10.5527 14.8536 10.6464C14.9473 10.7402 15 10.8674 15 11C15 11.1326 14.9473 11.2598 14.8536 11.3536C14.7598 11.4473 14.6326 11.5 14.5 11.5C14.3674 11.5 14.2402 11.4473 14.1464 11.3536C14.0527 11.2598 14 11.1326 14 11C14 10.8674 14.0527 10.7402 14.1464 10.6464C14.2402 10.5527 14.3674 10.5 14.5 10.5ZM14 13C14 12.8674 14.0527 12.7402 14.1464 12.6464C14.2402 12.5527 14.3674 12.5 14.5 12.5C14.6326 12.5 14.7598 12.5527 14.8536 12.6464C14.9473 12.7402 15 12.8674 15 13C15 13.1326 14.9473 13.2598 14.8536 13.3536C14.7598 13.4473 14.6326 13.5 14.5 13.5C14.3674 13.5 14.2402 13.4473 14.1464 13.3536C14.0527 13.2598 14 13.1326 14 13ZM14.5 14.5C14.6326 14.5 14.7598 14.5527 14.8536 14.6464C14.9473 14.7402 15 14.8674 15 15C15 15.1326 14.9473 15.2598 14.8536 15.3536C14.7598 15.4473 14.6326 15.5 14.5 15.5C14.3674 15.5 14.2402 15.4473 14.1464 15.3536C14.0527 15.2598 14 15.1326 14 15C14 14.8674 14.0527 14.7402 14.1464 14.6464C14.2402 14.5527 14.3674 14.5 14.5 14.5Z" fill="black"/>
</svg>
