<svg width="24" height="24" viewBox="0 0 24 24" fill="none" xmlns="http://www.w3.org/2000/svg">
<path d="M15.125 7C15.125 6.1712 14.7958 5.37634 14.2097 4.79029C13.6237 4.20424 12.8288 3.875 12 3.875C11.1712 3.875 10.3763 4.20424 9.79029 4.79029C9.20424 5.37634 8.875 6.1712 8.875 7C8.875 7.8288 9.20424 8.62366 9.79029 9.20971C10.3763 9.79576 11.1712 10.125 12 10.125C12.8288 10.125 13.6237 9.79576 14.2097 9.20971C14.7958 8.62366 15.125 7.8288 15.125 7ZM7 7C7 5.67392 7.52678 4.40215 8.46447 3.46447C9.40215 2.52678 10.6739 2 12 2C13.3261 2 14.5979 2.52678 15.5355 3.46447C16.4732 4.40215 17 5.67392 17 7C17 8.32608 16.4732 9.59785 15.5355 10.5355C14.5979 11.4732 13.3261 12 12 12C10.6739 12 9.40215 11.4732 8.46447 10.5355C7.52678 9.59785 7 8.32608 7 7ZM5.17578 20.125H18.8242C18.4766 17.6523 16.3516 15.75 13.7852 15.75H10.2148C7.64844 15.75 5.52344 17.6523 5.17578 20.125ZM3.25 20.8398C3.25 16.9922 6.36719 13.875 10.2148 13.875H13.7852C17.6328 13.875 20.75 16.9922 20.75 20.8398C20.75 21.4805 20.2305 22 19.5898 22H4.41016C3.76953 22 3.25 21.4805 3.25 20.8398Z" fill="black"/>
</svg>
