<svg width="24" height="24" viewBox="0 0 24 24" fill="none" xmlns="http://www.w3.org/2000/svg">
<path d="M17.8789 17.6094C17.1328 15.7852 15.3398 14.5 13.25 14.5H10.75C8.66016 14.5 6.86719 15.7852 6.12109 17.6094C4.73047 16.1484 3.875 14.1758 3.875 12C3.875 7.51172 7.51172 3.875 12 3.875C16.4883 3.875 20.125 7.51172 20.125 12C20.125 14.1758 19.2695 16.1484 17.8789 17.6094ZM16.3125 18.8867C15.0625 19.6719 13.5859 20.125 12 20.125C10.4141 20.125 8.9375 19.6719 7.68359 18.8867C7.96875 17.4531 9.23438 16.375 10.75 16.375H13.25C14.7656 16.375 16.0312 17.4531 16.3164 18.8867H16.3125ZM12 22C14.6522 22 17.1957 20.9464 19.0711 19.0711C20.9464 17.1957 22 14.6522 22 12C22 9.34784 20.9464 6.8043 19.0711 4.92893C17.1957 3.05357 14.6522 2 12 2C9.34784 2 6.8043 3.05357 4.92893 4.92893C3.05357 6.8043 2 9.34784 2 12C2 14.6522 3.05357 17.1957 4.92893 19.0711C6.8043 20.9464 9.34784 22 12 22ZM12 11.375C11.5856 11.375 11.1882 11.2104 10.8951 10.9174C10.6021 10.6243 10.4375 10.2269 10.4375 9.8125C10.4375 9.3981 10.6021 9.00067 10.8951 8.70765C11.1882 8.41462 11.5856 8.25 12 8.25C12.4144 8.25 12.8118 8.41462 13.1049 8.70765C13.3979 9.00067 13.5625 9.3981 13.5625 9.8125C13.5625 10.2269 13.3979 10.6243 13.1049 10.9174C12.8118 11.2104 12.4144 11.375 12 11.375ZM8.5625 9.8125C8.5625 10.7242 8.92466 11.5985 9.56932 12.2432C10.214 12.8878 11.0883 13.25 12 13.25C12.9117 13.25 13.786 12.8878 14.4307 12.2432C15.0753 11.5985 15.4375 10.7242 15.4375 9.8125C15.4375 8.90082 15.0753 8.02648 14.4307 7.38182C13.786 6.73716 12.9117 6.375 12 6.375C11.0883 6.375 10.214 6.73716 9.56932 7.38182C8.92466 8.02648 8.5625 8.90082 8.5625 9.8125Z" fill="black"/>
</svg>
