<svg width="24" height="24" viewBox="0 0 24 24" fill="none" xmlns="http://www.w3.org/2000/svg">
<path d="M11.7031 5.29297C11.7656 5.1875 11.8789 5.125 12 5.125C12.1211 5.125 12.2344 5.1875 12.2969 5.29297L20.043 18.0156C20.0977 18.1055 20.125 18.207 20.125 18.3086C20.125 18.6211 19.8711 18.875 19.5586 18.875H4.44141C4.12891 18.875 3.875 18.6211 3.875 18.3086C3.875 18.2031 3.90234 18.1016 3.95703 18.0156L11.7031 5.29297ZM10.1016 4.31641L2.35547 17.0391C2.12109 17.4219 2 17.8594 2 18.3086C2 19.6562 3.09375 20.75 4.44141 20.75H19.5586C20.9062 20.75 22 19.6562 22 18.3086C22 17.8594 21.875 17.4219 21.6445 17.0391L13.8984 4.31641C13.4961 3.65625 12.7773 3.25 12 3.25C11.2227 3.25 10.5039 3.65625 10.1016 4.31641ZM13.25 16.375C13.25 16.0435 13.1183 15.7255 12.8839 15.4911C12.6495 15.2567 12.3315 15.125 12 15.125C11.6685 15.125 11.3505 15.2567 11.1161 15.4911C10.8817 15.7255 10.75 16.0435 10.75 16.375C10.75 16.7065 10.8817 17.0245 11.1161 17.2589C11.3505 17.4933 11.6685 17.625 12 17.625C12.3315 17.625 12.6495 17.4933 12.8839 17.2589C13.1183 17.0245 13.25 16.7065 13.25 16.375ZM12.9375 9.1875C12.9375 8.66797 12.5195 8.25 12 8.25C11.4805 8.25 11.0625 8.66797 11.0625 9.1875V12.9375C11.0625 13.457 11.4805 13.875 12 13.875C12.5195 13.875 12.9375 13.457 12.9375 12.9375V9.1875Z" fill="black"/>
</svg>
