<svg width="104" height="50" viewBox="0 0 104 50" fill="none" xmlns="http://www.w3.org/2000/svg">
<path d="M10.5013 23.2767C10.6783 23.104 10.8553 22.9314 11.0357 22.7627C11.4674 22.3592 11.6613 21.853 11.6608 21.2541C11.6595 19.7663 11.66 18.2785 11.6605 16.7907L11.6608 15.9278C11.6608 15.43 11.7196 14.9388 11.9568 14.5007C12.0989 14.2384 12.27 13.9799 12.4746 13.7695C12.738 13.4994 13.0105 13.239 13.2831 12.9786C13.5555 12.7183 13.8281 12.4579 14.0914 12.1878C14.2934 11.9807 14.4943 11.969 14.7855 12.0376C14.7141 12.1062 14.6465 12.1731 14.5809 12.2381C14.4437 12.374 14.315 12.5014 14.178 12.6181C13.5694 13.1372 13.306 13.798 13.3161 14.6207C13.3272 15.5132 13.3252 16.4058 13.3231 17.2985C13.3213 18.0883 13.3195 18.8782 13.3268 19.6679C13.3354 20.6106 13.0137 21.3881 12.3565 22.0204C12.2758 22.098 12.1952 22.1758 12.1146 22.2535L12.1139 22.2542C11.6782 22.6744 11.2424 23.0947 10.7899 23.4939C10.7042 23.5697 10.5771 23.5945 10.45 23.6194C10.3917 23.6308 10.3334 23.6422 10.2791 23.6586L10.2358 23.5347C10.3245 23.449 10.413 23.3628 10.5013 23.2767Z" fill="#08436A"/>
<path fill-rule="evenodd" clip-rule="evenodd" d="M10.241 13.7271C9.81719 13.2529 9.51608 12.7272 9.43732 12C9.33251 12.111 9.22926 12.2157 9.12893 12.3175C8.89124 12.5585 8.66992 12.7829 8.48304 13.0356C8.36355 13.1969 8.33249 13.4781 8.35017 13.6966C8.385 14.1227 8.6229 14.4628 8.87847 14.786C8.94597 14.8708 9.00062 14.9965 9.00331 15.1046C9.01724 15.6608 9.01833 16.2171 9.0092 16.7734C9.0074 16.8666 8.9816 16.9595 8.95251 17.0643C8.93816 17.116 8.92299 17.1706 8.90953 17.2295C8.87481 17.2019 8.8454 17.1787 8.81955 17.1583C8.76921 17.1185 8.7324 17.0895 8.69629 17.0592C7.98958 16.4656 7.21483 16.087 6.282 16.1786C6.06982 16.199 5.85334 16.1911 5.63956 16.1798C4.74961 16.1317 4.08148 16.5742 3.52369 17.2499C3.12131 17.7377 3.07844 18.7049 3.60085 19.1808C3.77153 19.3358 3.92846 19.5076 4.08535 19.6794C4.16437 19.7659 4.24342 19.8525 4.32418 19.9368C4.35668 19.9704 4.39253 20.0005 4.43921 20.0396C4.46486 20.0611 4.49382 20.0854 4.52724 20.1145C4.5128 19.9742 4.50527 19.9 4.49832 19.8259C4.41687 18.9799 4.35632 18.1344 4.5208 17.2918C4.6296 16.7349 5.18253 16.4859 5.6069 16.8283C6.02141 17.1629 6.42267 17.5161 6.824 17.8692C6.95746 17.9867 7.09101 18.1042 7.22498 18.221C7.30654 18.2919 7.38348 18.3692 7.46268 18.4488C7.50101 18.4873 7.54005 18.5265 7.58022 18.5656L6.97469 19.2305L6.97416 19.231C6.23512 20.0427 5.50572 20.8437 4.77211 21.6408C4.67513 21.746 4.546 21.8264 4.41956 21.892C4.02039 22.0997 3.65925 22.038 3.34044 21.7132C3.3115 21.6838 3.29659 21.6388 3.28165 21.5937C3.27475 21.5728 3.26784 21.552 3.25953 21.5327L3.13255 21.5989C3.13255 21.7195 3.13383 21.8401 3.13511 21.9607C3.13797 22.2307 3.14083 22.5006 3.12935 22.7697C3.11058 23.2083 3.28848 23.5331 3.64318 23.7137C3.88428 23.8359 4.16559 23.9247 4.43026 23.9298C5.14196 23.9441 5.85406 23.9428 6.56618 23.9415C7.01474 23.9406 7.46341 23.9398 7.9119 23.9429C8.29122 23.9457 8.61163 23.8195 8.87793 23.5399C9.25783 23.141 9.63555 22.7398 10.0117 22.3368C10.2164 22.1178 10.308 21.8501 10.3069 21.5434C10.3065 21.4446 10.3057 21.3456 10.3049 21.2467C10.3025 20.9497 10.3001 20.6522 10.3085 20.3556C10.3348 19.4383 10.0438 18.6375 9.52787 17.916C9.47035 17.8363 9.4114 17.7578 9.35455 17.6822C9.32666 17.6451 9.29927 17.6086 9.27281 17.573C9.48746 17.134 9.47594 16.6743 9.46415 16.2038C9.4569 15.9145 9.44955 15.6211 9.49463 15.3258L9.94792 15.8929C10.0167 15.8187 10.0845 15.7449 10.1517 15.6717C10.3107 15.4985 10.4671 15.3283 10.6279 15.1628C10.8127 14.9727 10.8582 14.7463 10.7414 14.52C10.5979 14.2416 10.4446 13.9552 10.241 13.7271ZM7.97885 18.8724C8.51527 19.5715 9.02739 20.238 9.53883 20.9036L9.58304 20.9611C9.58642 20.9654 9.58916 20.9705 9.59193 20.9758C9.59355 20.9788 9.59519 20.9819 9.59697 20.9849C10.0015 21.6945 9.81398 22.1173 9.03866 22.1325C8.09463 22.1512 7.15032 22.1473 6.19275 22.1433C5.7874 22.1416 5.37929 22.1399 4.9682 22.1399C5.52671 21.5339 6.07721 20.9364 6.63451 20.3314L7.97885 18.8724Z" fill="#08436A"/>
<path fill-rule="evenodd" clip-rule="evenodd" d="M11.3539 26.7497H11.7244C11.7244 27.2038 11.7242 27.6541 11.7241 28.1016V28.1268C11.7236 29.2553 11.7232 30.3671 11.7255 31.4786C11.7267 32.1425 11.4967 32.6896 10.9933 33.1209C10.8117 33.2764 10.64 33.4445 10.4589 33.6218C10.3763 33.7027 10.2916 33.7856 10.2033 33.87C10.5127 33.9245 10.7327 33.8949 10.9372 33.6957C11.2413 33.3999 11.5521 33.1111 11.8629 32.8223C12.1 32.6021 12.337 32.3819 12.5711 32.1584C13.0989 31.6545 13.4312 31.0388 13.4528 30.2931C13.4695 29.722 13.4752 29.1505 13.481 28.579C13.4862 28.0637 13.4913 27.5478 13.5045 27.0329C13.5084 26.8728 13.5773 26.6753 13.6845 26.5653C14.1763 26.0629 14.6799 25.5735 15.1838 25.0839C15.3237 24.9479 15.4638 24.8118 15.6035 24.6755C15.62 24.6594 15.6434 24.6502 15.6619 24.6429L15.671 24.6393C15.6744 24.6379 15.6775 24.6366 15.6801 24.6352C15.6962 24.7159 15.7099 24.7959 15.7233 24.8749C15.7521 25.0439 15.7802 25.2088 15.8302 25.3661C16.1152 26.265 16.9213 26.4847 17.6052 25.8536C17.835 25.6417 18.0607 25.4251 18.2864 25.2085C18.4318 25.069 18.5771 24.9295 18.7236 24.7913C19.1847 24.356 19.3603 23.8044 19.332 23.1819C19.3047 22.5809 18.9241 22.2325 18.3347 22.2427C17.8274 22.2512 17.4452 22.5406 17.0885 22.859C16.9049 23.0226 16.7355 23.2027 16.555 23.3946L16.5544 23.3952C16.4697 23.4853 16.3824 23.578 16.2902 23.6728C16.0996 23.4628 15.9279 23.2732 15.7096 23.0321C15.7096 23.1366 15.7077 23.2346 15.7059 23.328C15.7021 23.5265 15.6987 23.7043 15.7146 23.8799C15.7363 24.1222 15.6246 24.2618 15.4557 24.4003C14.9851 24.7863 14.4562 24.7674 13.9203 24.7482C13.7843 24.7434 13.6478 24.7385 13.5117 24.7402C13.5117 24.587 13.5084 24.4367 13.5052 24.2885C13.4979 23.9587 13.4909 23.6393 13.5212 23.3237C13.5651 22.8715 13.7145 22.4498 14.0917 22.1383C14.3091 21.9585 14.5107 21.7589 14.7191 21.5524C14.8153 21.4571 14.9132 21.3601 15.0146 21.2632L15.0059 21.2619C14.5562 21.1939 14.5522 21.1933 14.274 21.4527C14.0795 21.6338 13.8862 21.8164 13.6929 21.9989L13.6923 21.9995C13.342 22.3303 12.9914 22.6615 12.6339 22.9838C12.1772 23.3964 11.9117 23.9168 11.785 24.5087C11.7367 24.7345 11.6555 24.7919 11.4411 24.7919C9.62646 24.7894 7.81155 24.7922 5.99677 24.7951H5.99411C5.29183 24.7962 4.58914 24.7973 3.88693 24.7981C2.77687 24.7998 2.00407 24.0144 2.00351 22.88C2.00329 22.6209 2.00762 22.3618 2.01196 22.1028C2.01854 21.7093 2.02512 21.3158 2.01574 20.9227C2.00462 20.4528 1.9824 19.9761 1.89407 19.5165C1.76684 18.8536 1.52238 18.7259 0.851801 18.8848C1.38738 19.3769 1.53405 20.0039 1.51794 20.7037C1.50706 21.1692 1.50948 21.635 1.5119 22.1009C1.51331 22.3726 1.51472 22.6445 1.51349 22.9163C1.51016 23.6183 1.65961 24.2868 1.94796 24.9195C2.49909 26.1288 3.39355 26.7735 4.74361 26.7571C6.29348 26.7379 7.84333 26.742 9.39319 26.7462C10.0467 26.7479 10.7003 26.7497 11.3539 26.7497ZM16.7581 24.1821C16.699 24.1089 16.6384 24.0337 16.5741 23.9571C16.968 23.7 17.3469 23.6625 17.7308 23.776C18.0552 23.8714 18.3169 24.5041 18.1869 24.8231C18.0852 25.0739 17.8719 25.0881 17.6774 25.0024C17.488 24.919 17.308 24.789 17.1585 24.6426C17.0174 24.5036 16.8919 24.3479 16.7581 24.1821Z" fill="#08436A"/>
<path d="M9.1025 27.7667C9.37391 28.0228 9.62785 28.2625 9.83781 28.538C10.0362 28.7983 10.185 29.1583 10.2092 29.4848C10.2566 30.1295 10.2417 30.786 10.1739 31.4295C10.1392 31.7583 9.99815 32.1217 9.79482 32.3752C9.36558 32.9107 8.88015 33.4025 8.38644 33.8785C7.96159 34.2882 7.42325 34.4461 6.84304 34.449C6.6336 34.4501 6.42397 34.4482 6.21434 34.4464C5.79041 34.4426 5.36616 34.4389 4.94371 34.4597C2.99531 34.5554 1.38139 33.1002 0.873359 31.331C0.758196 30.9303 0.707502 30.4991 0.697033 30.0802C0.672237 29.0626 0.675543 28.0439 0.693175 27.0262C0.705849 26.3029 0.618788 25.6328 0 25.1472C0.687664 24.9712 0.969783 25.128 1.07448 25.8009C1.14045 26.2253 1.15676 26.6587 1.173 27.0903C1.17588 27.1669 1.17877 27.2435 1.18192 27.32C1.19292 27.5852 1.19276 27.852 1.1926 28.1188C1.1923 28.6272 1.192 29.1352 1.26898 29.6309C1.51308 31.2054 3.02177 32.4873 4.57563 32.5094C5.72585 32.526 6.87643 32.5215 8.0271 32.5169C8.24382 32.516 8.46118 32.5152 8.6779 32.5145C9.19092 32.5128 9.60472 32.1936 9.78216 31.6916C9.9447 31.2308 9.85267 30.7747 9.43447 30.4543C8.8851 30.0333 8.63881 29.529 8.72751 28.817C8.76516 28.5158 8.75625 28.2081 8.74683 27.8823C8.74245 27.7312 8.73797 27.5762 8.73797 27.4162C8.86131 27.5391 8.98363 27.6545 9.1025 27.7667Z" fill="#08436A"/>
<path d="M16.2028 29.0929C16.2536 27.9229 15.5712 27.2039 14.6964 26.5019C14.6964 26.6358 14.7001 26.7633 14.7037 26.8861C14.7111 27.1411 14.718 27.3762 14.6897 27.6071C14.5954 28.3695 14.7857 28.9858 15.4173 29.4768C15.7803 29.7592 15.8906 30.1953 15.7941 30.6468C15.7356 30.9203 15.6506 31.1994 15.5194 31.4444C15.0395 32.3386 14.3499 33.0598 13.544 33.6679C12.935 34.1271 12.2455 34.3748 11.4677 34.3594C11.1245 34.3527 10.7811 34.3571 10.4377 34.3616H10.4368C10.2476 34.3641 10.0577 34.3665 9.8686 34.3671C9.49879 34.3686 9.12926 34.3683 8.74763 34.368L8.74457 34.368C8.58014 34.3678 8.41346 34.3677 8.24354 34.3677C8.25947 34.4009 8.27003 34.4257 8.27802 34.4445C8.29051 34.4738 8.29676 34.4885 8.30753 34.4978L8.46644 34.6362C9.02226 35.1201 9.57842 35.6043 10.1383 36.0831C10.1951 36.132 10.2851 36.1726 10.3579 36.1699C10.5679 36.1622 10.7789 36.1596 10.9899 36.157C11.5157 36.1506 12.042 36.1442 12.5544 36.0584C14.7366 35.6936 16.1681 34.0029 16.1918 31.8388C16.1956 31.4883 16.1923 31.1376 16.189 30.7871C16.1836 30.2219 16.1783 29.6566 16.2028 29.0929Z" fill="#08436A"/>
<path d="M2.80813 29.2645C3.19884 29.6801 3.60964 30.117 3.83682 30.7667C3.95997 30.6358 4.08042 30.5094 4.19839 30.3856C4.46678 30.1039 4.72267 29.8354 4.96814 29.5585C5.16422 29.3372 5.16153 29.049 4.98962 28.8362C4.74006 28.527 4.46792 28.236 4.21005 27.9602C4.1077 27.8507 4.00757 27.7437 3.91202 27.6388L2.55777 28.994C2.63887 29.0845 2.72302 29.174 2.80813 29.2645Z" fill="#08436A"/>
<path d="M6.70335 30.7667C6.63723 30.6646 6.57414 30.5635 6.51205 30.4639C6.37421 30.243 6.24125 30.0299 6.09078 29.8308C5.93505 29.6246 5.76086 29.4333 5.59705 29.2533C5.52965 29.1793 5.46371 29.1068 5.40184 29.0364L6.75804 27.6388C6.84981 27.7421 6.94611 27.8484 7.04493 27.9574C7.30476 28.2441 7.582 28.55 7.84017 28.872C7.98589 29.0531 8.00538 29.3097 7.86836 29.5263C7.5578 30.0138 7.13341 30.3878 6.73384 30.7399L6.70335 30.7667Z" fill="#08436A"/>
<path d="M52.023 33.4123C52.3203 33.4093 52.6223 33.4062 52.9304 33.4062C51.8437 32.1864 51.721 31.8496 51.7125 30.3013C51.7108 29.7355 51.7117 29.1697 51.7126 28.6038C51.715 27.063 51.7175 25.5222 51.6675 23.9829C51.6177 22.4438 50.7022 21.4852 49.1366 21.1262C47.4441 20.7378 46.1863 21.2231 45.4092 22.5684C45.3264 22.7121 45.25 22.8601 45.169 23.0171C45.131 23.0907 45.0918 23.1666 45.0506 23.2447C44.4385 21.785 43.2961 21.1041 41.8063 21.0183C40.2362 20.9278 39.1917 21.7601 38.5195 23.2143C38.337 22.2971 38.0696 21.4676 37.1992 21.2545C36.6205 21.1122 36.0119 21.0923 35.4032 21.0725C35.1353 21.0637 34.8675 21.055 34.6021 21.0358C35.3332 21.8828 35.5858 22.4835 35.5876 23.5972C35.5895 24.4251 35.5885 25.253 35.5876 26.0809C35.5856 27.7747 35.5837 29.4685 35.606 31.1622C35.6136 31.7177 35.7583 32.2842 35.9196 32.8212C36.0329 33.2004 36.3308 33.4625 36.7834 33.4597C37.2742 33.4562 37.7652 33.4562 38.2562 33.4562H38.257C38.6725 33.4563 39.0879 33.4563 39.5032 33.4542C39.5547 33.4535 39.6064 33.4344 39.6629 33.4136C39.6902 33.4035 39.7185 33.393 39.7485 33.384C38.7243 32.1652 38.6309 31.9059 38.6309 30.3051C38.6309 29.7868 38.632 29.2684 38.6331 28.75C38.6359 27.4081 38.6387 26.0654 38.6228 24.7238C38.6152 24.1249 38.8817 23.7171 39.3548 23.4357C39.9373 23.0888 40.5709 22.979 41.1951 23.3194C41.8405 23.671 42.1538 24.2274 42.1492 24.9812C42.1362 26.9797 42.1263 28.9792 42.1583 30.9777C42.1677 31.5525 42.2728 32.1403 42.4314 32.6939C42.6036 33.2954 42.907 33.456 43.5312 33.4569C44.3306 33.4588 45.1288 33.4587 45.9283 33.456C46.0126 33.456 46.0972 33.4467 46.1909 33.4364C46.2386 33.4311 46.2887 33.4256 46.3422 33.4209C45.2213 31.988 45.1971 31.9188 45.1971 30.1011L45.1969 28.3195C45.1967 27.1452 45.1965 25.9703 45.1971 24.7957C45.1971 24.0539 45.5733 23.5104 46.2658 23.2475C47.4486 22.7981 48.6867 23.6424 48.7024 24.947C48.7126 25.8032 48.7103 26.6597 48.7081 27.5163C48.7052 28.5973 48.7024 29.6785 48.7245 30.759C48.7384 31.4243 48.8592 32.1033 49.0417 32.7437C49.1172 33.0076 49.4741 33.3591 49.723 33.3767C50.4758 33.4283 51.2332 33.4205 52.023 33.4123Z" fill="#08436A"/>
<path d="M21.6121 17.9727C21.6702 17.9619 21.7167 17.9517 21.7559 17.9431C21.8234 17.9282 21.869 17.9182 21.9145 17.9182C22.6725 17.921 23.4305 17.9215 24.1885 17.9219C26.1952 17.923 28.2019 17.9241 30.2074 17.969C31.3581 17.9948 32.411 18.4184 33.1522 19.365C33.4268 19.7165 33.602 20.1465 33.7661 20.6116C32.5796 19.9435 31.3203 19.6852 30.0148 19.6566C29.1123 19.6366 28.2099 19.6414 27.3344 19.6461C26.9595 19.6481 26.5894 19.6501 26.2265 19.6501L26.2961 20.6763C26.3506 21.4794 26.4056 22.2905 26.4625 23.137C26.6246 23.137 26.7897 23.1358 26.9569 23.1347C27.3365 23.1321 27.7267 23.1295 28.1165 23.1397C29.4653 23.1748 30.5448 23.7201 31.301 24.8587C31.343 24.9222 31.3775 24.9915 31.426 25.0889C31.4529 25.1429 31.484 25.2054 31.5231 25.2803C30.3225 24.7217 29.1232 24.7548 27.9148 24.7882C27.4028 24.8023 26.8892 24.8165 26.373 24.7858V25.4888C26.373 25.8732 26.3723 26.2576 26.3715 26.642C26.3695 27.6564 26.3675 28.6708 26.3795 29.6852C26.3841 30.1124 26.4358 30.5433 26.5086 30.9659C26.5768 31.3599 26.8165 31.6856 27.2351 31.6884L27.5641 31.6909C29.0507 31.7025 30.5391 31.7142 32.0228 31.6394C32.7756 31.6014 32.9423 31.4798 33.6857 30.9375L33.6881 30.9358C33.7743 30.8729 33.8683 30.8044 33.9718 30.7297C34.2326 32.1451 33.4694 33.2108 32.0476 33.4082C31.8355 33.4377 31.6197 33.4553 31.4058 33.4553C30.6164 33.4565 29.8269 33.4558 29.0375 33.4551C27.4614 33.4536 25.8853 33.4522 24.3097 33.4664C23.7446 33.471 23.3767 33.2421 23.2292 32.7328C23.09 32.2521 22.9729 31.7465 22.9646 31.2491C22.9185 28.3593 22.8835 25.4695 22.8936 22.5796C22.9001 20.9299 22.8918 19.3087 21.6121 17.9727Z" fill="#08436A"/>
<path fill-rule="evenodd" clip-rule="evenodd" d="M75.9685 33.4504C76.2513 33.4466 76.534 33.4429 76.8164 33.4429C76.8348 33.4087 76.8533 33.3746 76.869 33.3395C75.8771 32.5405 75.6632 31.4785 75.6907 30.2808C75.7189 29.0598 75.7138 27.838 75.7086 26.6161C75.7053 25.8401 75.702 25.064 75.7073 24.288C75.7148 23.2869 75.3127 22.5082 74.5272 21.913C73.0697 20.8095 70.5454 20.7708 69.0592 21.83C68.978 21.8881 68.8674 21.9823 68.8656 22.0616C68.8529 22.5319 68.8543 23.0022 68.8557 23.4725C68.8561 23.6195 68.8565 23.7665 68.8565 23.9134C69.0325 23.7952 69.1306 23.6644 69.2267 23.5362L69.2602 23.4918C69.9526 22.5783 70.94 22.2083 72.028 22.5423C72.3461 22.6401 72.7065 22.8985 72.8558 23.1836C73.2413 23.918 72.876 24.9884 72.1552 25.3962C71.9023 25.5392 71.6359 25.6586 71.3693 25.778C71.1596 25.8719 70.9497 25.966 70.7463 26.0716C70.5404 26.1784 70.3323 26.2822 70.1241 26.3861C69.5084 26.6933 68.8919 27.0009 68.329 27.3864C67.2697 28.1116 66.7791 29.1745 66.8522 30.4811C66.961 32.4168 68.0535 33.4696 69.9819 33.4724C71.1095 33.4742 72.0455 33.0719 72.7232 32.1013C72.7497 32.1748 72.7703 32.2478 72.79 32.3178C72.8311 32.4637 72.8686 32.5967 72.9489 32.6946C72.9925 32.7476 73.0375 32.8062 73.0838 32.8664C73.275 33.1152 73.4869 33.3909 73.7069 33.4087C74.4569 33.4705 75.2128 33.4604 75.9685 33.4504ZM72.123 26.6091L72.1238 26.6087L72.125 26.6079L72.1257 26.6074L72.1279 26.606C72.3021 26.4947 72.4825 26.3793 72.6706 26.2561L72.6707 27.1513C72.671 28.5147 72.6712 29.8262 72.6658 31.1371C72.6658 31.233 72.6132 31.3456 72.5497 31.4194C72.1633 31.8623 71.0047 32.1308 70.4403 31.9195C69.8798 31.7101 69.5357 31.09 69.5469 30.2928C69.5644 29.0408 70.0735 28.0323 71.0874 27.2987C71.4143 27.0621 71.7551 26.8443 72.123 26.6091Z" fill="#08436A"/>
<path fill-rule="evenodd" clip-rule="evenodd" d="M93.4625 30.4886C93.4625 30.691 93.4653 30.8846 93.4679 31.0716C93.4748 31.55 93.481 31.9852 93.4386 32.4151C93.4229 32.5756 93.1389 32.7436 92.9462 32.8488C89.6327 34.6664 85.5624 32.8543 84.7666 29.1728C84.3001 27.0156 84.608 24.9469 85.8564 23.0905C87.1969 21.0975 89.9433 20.4239 92.0289 21.5275C93.5667 22.3422 94 23.9024 93.077 25.3834C92.4068 26.4574 91.4249 27.1761 90.3149 27.7491C89.6641 28.085 89.0354 28.4651 88.4103 28.8462C88.0783 29.0482 88.0441 29.3426 88.152 29.7227C88.6278 31.4029 89.8557 32.2518 91.4802 31.9787C92.1147 31.8716 92.6135 31.5312 93.0217 31.0458C93.0991 30.9528 93.174 30.8568 93.2683 30.736L93.2689 30.7353C93.325 30.6634 93.3881 30.5826 93.4625 30.4886ZM87.7906 27.6882C87.835 27.6993 87.8792 27.7094 87.9233 27.7205C88.0921 27.5954 88.2645 27.4744 88.4368 27.3534C88.8162 27.087 89.1955 26.8208 89.536 26.5118C90.5693 25.5734 91.0222 24.3823 90.8119 22.9909C90.6754 22.0866 89.6391 21.7138 88.9469 22.3164C88.6922 22.5378 88.471 22.8561 88.3604 23.1735C88.165 23.7336 88.0045 24.3204 87.9408 24.9082C87.871 25.5545 87.8475 26.2064 87.8241 26.8582C87.8141 27.1349 87.8041 27.412 87.7906 27.6882Z" fill="#08436A"/>
<path d="M101.42 23.723C101.463 23.7837 101.506 23.8444 101.55 23.9046C101.579 23.8963 101.609 23.8879 101.637 23.8787C101.637 23.7329 101.638 23.5869 101.639 23.441C101.64 23.0192 101.642 22.5973 101.63 22.1764C101.627 22.0749 101.551 21.9383 101.466 21.8821C99.9401 20.8616 97.5237 20.5414 95.8263 21.9365C95.1746 22.4726 94.7957 23.1563 94.8142 24.0144C94.8362 25.0395 95.171 25.9557 95.9453 26.6468C96.4256 27.0753 96.9574 27.4479 97.4857 27.8182L97.556 27.8675C97.7394 27.9965 97.9344 28.1098 98.1293 28.2229C98.3733 28.3646 98.6171 28.5062 98.8376 28.6785C99.9392 29.5403 99.8232 30.9889 98.618 31.7021C97.5264 32.3489 96.1858 32.1238 95.3719 31.1494C95.2583 31.0144 95.1548 30.8709 95.0281 30.6951C94.9635 30.6054 94.8927 30.5072 94.8114 30.3975C94.8114 30.5964 94.8105 30.7863 94.8095 30.9694C94.8069 31.4791 94.8046 31.9375 94.8241 32.3942C94.829 32.5067 94.9818 32.6507 95.1018 32.7143C96.4735 33.446 97.9092 33.6785 99.412 33.1914C101.216 32.6064 102.393 31.0932 102.367 29.3917C102.346 28.0197 101.653 27.002 100.575 26.2316C100.23 25.984 99.868 25.7585 99.5063 25.533C99.2037 25.3443 98.9006 25.1554 98.6071 24.9537C98.3083 24.7488 98.0059 24.5126 97.7929 24.2257C97.2656 23.5161 97.5439 22.7687 98.3932 22.5067C99.4727 22.1736 100.445 22.4717 101.152 23.3593C101.245 23.4772 101.333 23.6001 101.42 23.723Z" fill="#08436A"/>
<path d="M64.38 33.4494C64.0837 33.4494 63.7874 33.4511 63.4911 33.4528C62.7642 33.4569 62.0373 33.4611 61.311 33.4401C60.872 33.4272 60.614 33.0702 60.53 32.6928C60.388 32.0543 60.2653 31.3964 60.2572 30.745C60.2322 28.9333 60.2369 27.121 60.2417 25.3086C60.2431 24.7701 60.2444 24.2314 60.2451 23.6929C60.246 22.7241 60.0865 21.8217 59.2641 21.127C59.567 21.1353 59.8705 21.1178 60.1734 21.1003C60.8375 21.062 61.4994 21.0238 62.1488 21.2589C62.6956 21.4564 62.9168 21.9371 63.057 22.4565C63.1059 22.6378 63.1391 22.8235 63.1737 23.0172C63.1893 23.1045 63.2051 23.1934 63.2229 23.2842C63.2876 23.1637 63.3482 23.0429 63.4083 22.9232C63.5351 22.6708 63.6592 22.4236 63.8129 22.1963C64.4546 21.2497 65.548 20.8917 66.5568 21.2654C67.1847 21.4979 67.4252 21.8356 67.4297 22.5027C67.4324 22.8538 67.4319 23.2046 67.4314 23.5812V23.5859C67.4311 23.7472 67.4309 23.9132 67.4309 24.086C66.8103 23.5149 66.1475 23.1929 65.335 23.2307C64.0785 23.2897 63.283 24.098 63.2821 25.3482C63.2821 25.8266 63.2845 26.305 63.287 26.7834C63.2928 27.9029 63.2985 29.0226 63.2727 30.1416C63.2443 31.3715 63.4165 32.5027 64.4407 33.3507L64.4222 33.3808L64.4103 33.4C64.4002 33.4164 64.3901 33.4328 64.38 33.4494Z" fill="#08436A"/>
<path d="M81.7395 23.0962V22.3829L82.1494 22.4468C82.9644 22.5739 83.7159 22.6911 84.462 22.8083V21.0847H81.7679V18.4062L81.66 18.3619C80.4893 20.2386 78.7496 21.4289 76.797 22.3598L76.8329 22.4502L76.8492 22.4909H78.7366V23.1008C78.7366 23.7908 78.7356 24.4808 78.7347 25.1709C78.7318 27.1566 78.729 29.1424 78.7496 31.1281C78.7551 31.6706 78.8741 32.2252 79.0252 32.7493C79.1644 33.2337 79.5349 33.4772 80.0781 33.4616C80.6196 33.4453 81.162 33.4483 81.7044 33.4513C81.9921 33.4529 82.2798 33.4545 82.5673 33.4532C82.6371 33.4532 82.7068 33.4422 82.8031 33.427C82.857 33.4185 82.9191 33.4087 82.9942 33.3988C81.9274 32.5564 81.7171 31.4833 81.731 30.2931C81.7507 28.5921 81.7468 26.891 81.7428 25.19C81.7411 24.4921 81.7395 23.7941 81.7395 23.0962Z" fill="#08436A"/>
<path d="M53.3559 21.0975C53.6206 21.0975 53.8803 21.0934 54.1365 21.0894C54.719 21.0804 55.2828 21.0716 55.8433 21.1113C56.4572 21.1556 56.9062 21.5579 57.0841 22.1401C57.2428 22.6614 57.3561 23.2169 57.3645 23.7594C57.3956 25.9259 57.3938 28.0933 57.3718 30.2597C57.3597 31.4297 57.5745 32.4907 58.4921 33.3064C58.5017 33.315 58.5014 33.3345 58.5009 33.3672C58.5007 33.3868 58.5003 33.4113 58.502 33.4411C58.2157 33.4411 57.9292 33.4448 57.6429 33.4485C56.8749 33.4583 56.1081 33.4681 55.3472 33.407C55.0798 33.3857 54.7158 32.9825 54.6242 32.6854C54.4426 32.094 54.3514 31.4546 54.3432 30.8336C54.3231 29.2511 54.3255 27.6682 54.3278 26.0854V26.0807C54.329 25.2675 54.3303 24.4544 54.3284 23.6413C54.3266 22.4363 54.1644 22.0211 53.3559 21.0975Z" fill="#08436A"/>
<path d="M54.3355 18.6081C54.33 19.4127 55.0122 20.101 55.8244 20.1103C56.6365 20.1204 57.329 19.4588 57.3577 18.6469C57.3843 17.8626 56.6882 17.1383 55.8881 17.1189C55.06 17.0986 54.3409 17.7888 54.3355 18.6081Z" fill="#08436A"/>
</svg>
