<?xml version="1.0" encoding="UTF-8"?>
<!DOCTYPE svg PUBLIC "-//W3C//DTD SVG 1.1//EN" "http://www.w3.org/Graphics/SVG/1.1/DTD/svg11.dtd">
<!-- Creator: CorelDRAW 2017 -->
<svg xmlns="http://www.w3.org/2000/svg" xml:space="preserve" width="107px" height="50px" version="1.1" shape-rendering="geometricPrecision" text-rendering="geometricPrecision" image-rendering="optimizeQuality" fill-rule="evenodd" clip-rule="evenodd"
viewBox="0 0 4307 2015"
 xmlns:xlink="http://www.w3.org/1999/xlink">
 <defs>
   <clipPath id="id0">
    <path d="M0 2015l4307 0 0 -2015 -4307 0 0 2015z"/>
   </clipPath>
 </defs>
 <g id="Vrstva_x0020_1">
  <metadata id="CorelCorpID_0Corel-Layer"/>
  <g>
  </g>
  <g clip-path="url(#id0)">
   <g>
    <g id="_2724368454064">
     <g id="_2399220661504">
      <polygon fill="#08436A" points="1866,931 1866,780 2233,780 2234,642 1728,642 1728,1415 2233,1415 2233,1277 1866,1277 1866,1070 2206,1070 2206,931 "/>
      <polygon fill="#08436A" points="1265,642 1129,642 1129,1415 1612,1415 1612,1277 1265,1277 "/>
      <polygon fill="#08436A" points="2479,642 2330,642 2610,1415 2775,1415 3055,642 2906,642 2693,1188 "/>
      <polygon fill="#08436A" points="3960,642 3824,642 3824,1415 4307,1415 4307,1277 3960,1277 "/>
      <polygon fill="#08436A" points="3285,931 3285,780 3653,780 3653,642 3147,642 3147,1415 3653,1415 3653,1277 3285,1277 3285,1070 3625,1070 3625,931 "/>
      <polygon fill="#08436A" points="769,1027 0,1027 0,1415 769,1415 "/>
      <polygon fill="#08436A" points="0,1027 769,1027 769,642 0,642 "/>
     </g>
    </g>
   </g>
  </g>
  <polygon fill="none" points="0,2015 4307,2015 4307,0 0,0 "/>
 </g>
</svg>
