<svg width="116" height="50" viewBox="0 0 116 50" fill="none" xmlns="http://www.w3.org/2000/svg">
<path d="M114.977 25.5077C112.542 26.7816 110.855 28.7118 109.573 31.1207C108.148 33.8229 105.79 35.4752 102.879 36.3206C102.179 36.5239 101.465 36.6683 100.75 36.8124C100.448 36.8735 100.146 36.9345 99.8448 37C99.8446 37 99.8444 36.9999 99.8443 36.9999L99.7517 36.7953C99.9104 36.6621 100.082 36.5457 100.265 36.4479C102.273 35.5677 104.048 34.3594 105.315 32.5451C105.748 31.924 106.101 31.2482 106.456 30.5714C106.626 30.247 106.795 29.9224 106.974 29.6035C107.877 27.984 109.15 26.6006 110.688 25.5656C110.486 25.3846 110.283 25.2073 110.081 25.0309L110.081 25.0306L110.08 25.0298C109.627 24.6348 109.18 24.2445 108.758 23.8285C107.856 22.9345 107.132 21.8773 106.624 20.7132C105.334 17.7986 103.149 15.8182 100.254 14.5713C100.066 14.4661 99.8879 14.3446 99.7212 14.2085L99.8022 14C100.038 14.0413 100.274 14.0786 100.51 14.1159C101.046 14.2007 101.582 14.2855 102.119 14.4169C105.67 15.2701 108.365 17.2157 110.017 20.5471C110.98 22.4358 112.469 24.0047 114.306 25.0638L114.92 25.4305C114.92 25.4305 114.943 25.4498 114.977 25.5077Z" fill="white"/>
<path d="M44.6916 24.7512V25.2646C44.6916 25.705 44.689 26.1449 44.6864 26.5846C44.6813 27.4629 44.6761 28.3405 44.6916 29.2176C44.7109 29.4098 44.668 29.6031 44.5694 29.7692C44.4705 29.9352 44.3213 30.0653 44.1433 30.1402C42.761 30.8981 41.2387 31.3657 39.6693 31.5145C38.1582 31.741 36.6149 31.6088 35.1641 31.1285C33.992 30.7425 32.9754 29.9886 32.2661 28.9787C31.5566 27.9688 31.192 26.7569 31.2265 25.5233C31.1986 24.2963 31.5612 23.0923 32.2621 22.0848C32.9628 21.0774 33.9656 20.3186 35.1256 19.918C37.3144 19.0958 39.5341 19.2579 41.7344 19.8447C42.3362 20.0023 42.9219 20.2244 43.5329 20.4561C43.8194 20.5647 44.1117 20.6755 44.4136 20.7828L43.2863 22.9098C42.9311 22.8032 42.5835 22.6919 42.2403 22.582C41.4647 22.3337 40.7113 22.0925 39.9433 21.9293C38.6535 21.6084 37.2957 21.6989 36.0597 22.1879C34.6429 22.7824 33.8747 24.0563 33.925 25.7163C33.9262 26.4249 34.1565 27.1142 34.5817 27.6812C35.0066 28.2483 35.6037 28.6626 36.2837 28.8625C38.0981 29.4415 39.8932 29.2215 41.6651 28.627C41.7973 28.5948 41.9118 28.5122 41.9839 28.3968C42.0561 28.2814 42.0802 28.1423 42.0509 28.0093C42.0329 27.8292 42.0389 27.6456 42.0449 27.462C42.0479 27.3703 42.0509 27.2783 42.0509 27.1871C42.0368 27.1133 42.0161 27.041 41.9894 26.9709H40.53C39.9162 26.9709 39.7926 26.8628 39.7966 26.2683C39.7966 26.1288 39.7845 25.9757 39.7722 25.8211C39.7397 25.4113 39.7063 24.9916 39.897 24.7898C40.0908 24.5845 40.5204 24.613 40.934 24.6403C41.0805 24.65 41.225 24.6595 41.3563 24.6585H44.541C44.5493 24.6633 44.5577 24.6692 44.5681 24.6766C44.5914 24.6929 44.6249 24.7166 44.6916 24.7512Z" fill="white"/>
<path d="M79.4807 19.6938C79.2256 19.6977 78.9681 19.7016 78.7085 19.7016V31.2016H81.2834V23.2493C81.3714 23.3286 81.4482 23.3961 81.5175 23.457L81.5179 23.4573C81.6307 23.5564 81.7236 23.6381 81.8121 23.7241C84.2466 26.0918 86.6915 28.4531 89.1468 30.8079C89.3302 31.0069 89.5723 31.1421 89.8379 31.1939C90.3218 31.2326 90.8099 31.2258 91.3076 31.2188C91.5045 31.216 91.7028 31.2132 91.903 31.2132V19.6669H90.1427C89.4748 19.6669 89.3707 19.775 89.3707 20.439V27.3683L89.3431 27.3442L89.3427 27.3439C89.1517 27.1777 89.0415 27.0817 88.9383 26.9823C88.2562 26.3265 87.5746 25.6701 86.8932 25.0138C85.1837 23.3675 83.4749 21.7217 81.758 20.0877C81.541 19.8773 81.2624 19.742 80.9628 19.7016C80.4785 19.6786 79.9842 19.6861 79.4807 19.6938Z" fill="white"/>
<path d="M58.0176 24.3459H50.7913L50.795 21.9448H51.3933C52.2058 21.9448 53.0191 21.9474 53.8331 21.9499H53.8341C55.4639 21.9551 57.0959 21.9602 58.728 21.9448C58.9557 21.9448 59.3033 21.8019 59.3418 21.6591C59.4646 21.2184 59.5388 20.7596 59.6158 20.2842C59.6454 20.1015 59.6754 19.9164 59.7086 19.729C59.4924 19.7019 59.3418 19.7019 59.1911 19.7019H48.8225C48.1739 19.7019 48.1005 19.8023 48.1005 20.474V31.2251H58.8516C59.083 31.2212 59.4769 31.0938 59.5232 30.9394C59.6931 30.2791 59.8285 29.6104 59.9286 28.9359H50.7913V26.5888H58.0176V24.3459Z" fill="white"/>
<path d="M17.2356 31.2325H21.3238C22.0715 31.2325 22.8188 31.2347 23.566 31.2368C25.06 31.2411 26.5534 31.2454 28.0485 31.2325C28.2685 31.2325 28.6082 31.0859 28.6545 30.9392C28.7798 30.4953 28.861 30.0379 28.9466 29.5549C28.9824 29.3533 29.019 29.1471 29.0599 28.9356H19.8915C19.8915 28.7189 19.8951 28.5089 19.8986 28.3033C19.9054 27.9047 19.9119 27.5225 19.8915 27.1406C19.8723 26.7352 20.0035 26.6194 20.4127 26.6194H26.624C26.7104 26.6194 26.7959 26.6136 26.8872 26.6073C26.9918 26.6001 27.1041 26.5924 27.234 26.5924C27.234 26.3886 27.2304 26.1892 27.2269 25.9928C27.2201 25.6091 27.2135 25.2371 27.234 24.8668C27.2532 24.4653 27.1259 24.3418 26.7167 24.3418H19.88V22.7514C19.88 22.6563 19.8785 22.573 19.8773 22.4998C19.8729 22.2497 19.8707 22.1188 19.935 22.0507C20.0056 21.9758 20.1565 21.9767 20.4732 21.9786C20.5277 21.9789 20.5872 21.9793 20.652 21.9793C21.4561 21.9793 22.2607 21.9818 23.0653 21.9844C24.6751 21.9896 26.2855 21.9947 27.8941 21.9793C28.1103 21.9793 28.4538 21.8287 28.4963 21.6782C28.617 21.2316 28.6867 20.7708 28.7604 20.2837C28.7879 20.1014 28.8161 19.9151 28.8477 19.7248H18.0386C17.2781 19.7248 17.2356 19.7827 17.2356 20.5548V31.2325Z" fill="white"/>
<path fill-rule="evenodd" clip-rule="evenodd" d="M75.637 31.2344C75.8814 31.2316 76.1298 31.2288 76.3836 31.2288C76.3626 31.1404 76.3341 31.0539 76.2988 30.9701C74.4303 27.398 72.5618 23.822 70.6937 20.2422C70.6137 20.0709 70.4849 19.9271 70.3234 19.8289C70.1621 19.7306 69.9752 19.6824 69.7863 19.6902C69.5869 19.6902 69.387 19.6936 69.1872 19.697C68.7874 19.7039 68.3875 19.7108 67.9912 19.6902C67.8184 19.6666 67.6427 19.7021 67.4926 19.7912C67.3426 19.8802 67.2273 20.0174 67.1652 20.1804C65.6673 23.0641 64.1542 25.9517 62.633 28.8045C62.4776 29.1022 62.3227 29.3999 62.1657 29.7018C61.9092 30.1947 61.647 30.6988 61.3669 31.2326C61.6975 31.2326 62.016 31.2362 62.3267 31.2398L62.3272 31.2398C62.9266 31.2465 63.4972 31.253 64.0691 31.2326C64.2082 31.2288 64.3741 31.0358 64.4552 30.8929C64.7602 30.3602 65.042 29.812 65.316 29.26C65.3818 29.1025 65.4957 28.9697 65.6411 28.8803C65.7866 28.791 65.9565 28.7496 66.1267 28.762C66.7599 28.762 67.3932 28.7594 68.0263 28.7569C69.292 28.7517 70.5574 28.7466 71.8207 28.762C71.9196 28.7761 72.0139 28.8118 72.0972 28.8665C72.1806 28.9212 72.251 28.9936 72.3034 29.0786C72.4491 29.3245 72.5798 29.5809 72.7105 29.8374C72.867 30.1446 73.0237 30.4521 73.2067 30.7424C73.2791 30.8593 73.3743 30.9608 73.4861 31.041C73.5983 31.1211 73.7248 31.1784 73.859 31.2095C74.4407 31.2481 75.0264 31.2414 75.637 31.2344ZM68.8715 22.4658C69.5779 23.8208 70.2495 25.114 70.9444 26.4535H66.7791L68.8715 22.4658Z" fill="white"/>
<path fill-rule="evenodd" clip-rule="evenodd" d="M14.9936 31.2211C14.7524 31.2211 14.5143 31.2234 14.2786 31.2256C13.639 31.2316 13.0172 31.2375 12.3995 31.198C12.2734 31.1643 12.1556 31.1051 12.0534 31.0241C11.9511 30.9431 11.8666 30.842 11.805 30.727C11.6311 30.4439 11.4805 30.1492 11.3299 29.8545C11.193 29.5865 11.0561 29.3185 10.9017 29.0593C10.8463 28.9786 10.7749 28.9102 10.6918 28.8584C10.6088 28.8065 10.5159 28.7724 10.4191 28.7582C9.16316 28.7454 7.90895 28.7496 6.65531 28.7539H6.65368C6.02745 28.7561 5.40135 28.7582 4.77526 28.7582C4.59586 28.7446 4.41675 28.788 4.26351 28.8823C4.1103 28.9766 3.99082 29.117 3.92213 29.2832C3.82889 29.4558 3.73607 29.6309 3.64271 29.807C3.45003 30.1704 3.25511 30.538 3.04968 30.8969C2.96861 31.0397 2.7949 31.2134 2.66364 31.2173C2.10213 31.2376 1.54062 31.2312 0.949398 31.2244C0.64244 31.2209 0.327141 31.2173 0 31.2173C0.0817409 31.0583 0.161392 30.903 0.239536 30.7508L0.240253 30.7494C0.497675 30.2477 0.738764 29.7778 0.984391 29.3102C1.69753 27.9496 2.41376 26.5866 3.13066 25.2223C4.01649 23.5366 4.90335 21.8489 5.78668 20.1612C5.84384 20.008 5.95136 19.8786 6.09164 19.7945C6.23191 19.7103 6.39662 19.6763 6.55874 19.698C6.95507 19.7211 7.35483 19.7134 7.7546 19.7057C7.95447 19.7018 8.15435 19.698 8.3538 19.698C8.5426 19.688 8.73017 19.7335 8.89344 19.8289C9.05668 19.9242 9.18847 20.0653 9.27256 20.2346L14.8701 30.8969C14.9169 31.0027 14.9582 31.1109 14.9936 31.2211ZM7.4775 22.4774L5.40063 26.4343H9.54667L7.4775 22.4774Z" fill="white"/>
<path d="M101.219 21.9448C101.837 23.3963 102.609 24.7474 104.153 25.4886C102.894 26.2838 102.57 26.6004 101.937 27.6697C101.027 29.3168 100.33 31.0733 99.864 32.8966C99.8585 32.9884 99.8651 33.0806 99.8832 33.1707L99.8842 33.1703C101.512 32.4706 102.86 31.2481 103.714 29.6961C103.847 29.4625 103.97 29.2186 104.093 28.9739C104.263 28.6366 104.434 28.2975 104.633 27.9821C105.345 26.8958 106.35 26.0328 107.532 25.4922L107.53 25.4922C107.471 25.4354 107.406 25.3838 107.338 25.338C105.854 24.571 104.673 23.3267 103.983 21.8058C103.53 20.9485 102.974 20.1499 102.327 19.4278C101.638 18.6542 100.744 18.0909 99.7481 17.8026C100.188 19.2117 100.655 20.6014 101.219 21.9448Z" fill="white"/>
</svg>
