<?xml version="1.0" encoding="UTF-8"?>
<!DOCTYPE svg PUBLIC "-//W3C//DTD SVG 1.1//EN" "http://www.w3.org/Graphics/SVG/1.1/DTD/svg11.dtd">
<!-- Creator: CorelDRAW 2017 -->
<svg xmlns="http://www.w3.org/2000/svg" xml:space="preserve" width="142px" height="50px" version="1.1" shape-rendering="geometricPrecision" text-rendering="geometricPrecision" image-rendering="optimizeQuality" fill-rule="evenodd" clip-rule="evenodd"
viewBox="0 0 5716 2013"
 xmlns:xlink="http://www.w3.org/1999/xlink"
 enable-background="new 0 0 169 43">
 <defs>
   <clipPath id="id0">
    <path d="M0 2013l5716 0 0 -2013 -5716 0 0 2013z"/>
   </clipPath>
 </defs>
 <g id="Vrstva_x0020_1">
  <metadata id="CorelCorpID_0Corel-Layer"/>
  <g>
  </g>
  <g clip-path="url(#id0)">
   <g>
    <g id="_2724367931760">
     <g id="AM.svg">
      <g id="AM">
       <g>
        <path fill="#08436A" d="M486 548c118,-25 240,-40 361,-32 74,7 148,14 220,35 29,8 49,33 58,60 -7,9 -18,4 -27,4 -61,-8 -122,-12 -183,-2 8,10 22,12 33,17 25,11 47,26 67,45 62,-31 135,-51 204,-33 79,19 139,102 127,185 -7,-1 -15,-1 -22,-4 -136,-54 -288,-68 -431,-34 -38,9 -64,47 -63,86 0,119 0,238 0,357 -1,33 -9,65 -20,96 -184,-1 -368,0 -552,-1 -1,-17 -1,-35 -1,-52 160,-1 319,0 478,-1 13,2 15,-13 20,-21 -4,-4 -10,-12 -14,-16 -161,0 -322,0 -484,0 0,-18 0,-36 0,-54 159,0 319,1 478,0 18,0 20,-22 12,-34 -221,-3 -443,-1 -664,-1 -1,-19 -1,-38 -1,-57 167,0 335,1 502,0 20,1 18,-24 8,-34 -170,0 -340,0 -510,0 0,-18 0,-36 0,-54 170,0 340,0 509,0 3,-8 7,-15 11,-22 -3,-4 -9,-12 -13,-16 -169,0 -338,1 -507,0 19,-19 39,-37 59,-54 100,0 199,1 298,0 14,-13 9,-38 -12,-37 -81,-2 -163,1 -244,-1 20,-18 39,-36 59,-53 65,0 129,2 193,-1 18,-3 14,-26 2,-35 -52,0 -103,0 -155,0 72,-68 148,-132 220,-200 -7,-11 -22,-21 -16,-36l0 0z"/>
        <g>
         <path fill="#08436A" d="M1664 784c38,0 77,0 115,0 63,164 120,330 188,491 -46,1 -91,1 -136,0 -13,-47 -30,-92 -45,-139 -52,0 -104,0 -157,0 -17,46 -30,93 -46,139 -31,1 -62,1 -93,0 61,-162 117,-327 174,-491l0 0zm-11 281c36,0 73,0 109,0 -18,-55 -36,-109 -54,-164 -20,54 -37,109 -55,164l0 0z"/>
        </g>
        <path fill="#08436A" d="M3259 784c43,0 86,0 128,0 35,95 69,190 104,284 34,-95 69,-189 104,-284 42,0 84,0 125,0 17,164 32,328 48,491 -43,1 -86,1 -130,0 -8,-109 -16,-220 -24,-329 -37,109 -71,220 -108,330 -23,-1 -46,-1 -70,0 -32,-112 -68,-222 -102,-333 -9,111 -18,222 -27,332 -32,1 -65,0 -98,1 17,-164 32,-328 50,-492l0 0z"/>
        <path fill="#08436A" d="M871 895c0,-56 64,-96 115,-75 32,13 64,29 95,46 25,-14 45,-35 71,-46 20,-7 32,13 39,29 27,55 52,112 68,172 4,10 -1,19 -5,28 -17,4 -35,8 -52,8 -5,7 -11,14 -10,22 -1,43 1,85 0,127 -1,36 -32,70 -69,69 -51,1 -103,0 -155,0 -51,1 -97,-45 -97,-96 0,-95 0,-189 0,-284l0 0z"/>
        <g>
         <path fill="#08436A" d="M2896 842c56,-8 116,1 165,30 52,31 89,88 97,148 6,53 3,110 -23,158 -29,56 -88,92 -150,102 -64,9 -133,5 -188,-32 -51,-31 -83,-89 -89,-148 -6,-56 1,-117 33,-166 33,-53 94,-85 155,-92l0 0zm-12 77c-34,22 -49,64 -54,102 -7,54 -4,114 28,160 16,25 46,36 74,39 19,-3 40,-5 56,-18 38,-28 50,-78 52,-122 1,-50 -4,-104 -37,-143 -29,-34 -82,-41 -119,-18l0 0z"/>
        </g>
        <path fill="#08436A" d="M3837 846c90,0 180,0 271,0 0,22 0,44 0,66 -53,0 -106,0 -159,0 0,36 0,71 0,106 42,0 85,0 127,0 0,20 0,40 0,60 -43,5 -86,1 -130,4 5,42 2,84 3,126 57,0 113,2 170,-2 1,23 0,46 1,69 -95,1 -189,1 -284,0 3,-143 3,-286 1,-429z"/>
        <path fill="#08436A" d="M4890 851c66,-20 136,-15 201,2 2,22 4,45 5,68 -43,-10 -89,-24 -133,-10 -41,9 -72,44 -84,84 -20,65 -11,145 44,190 51,41 122,36 180,18 2,22 5,44 7,66 -49,18 -103,15 -154,14 -64,-3 -126,-33 -167,-82 -53,-63 -64,-157 -29,-232 24,-55 72,-100 130,-118l0 0z"/>
        <g>
         <path fill="#08436A" d="M5271 847c66,-16 140,-12 199,23 52,29 87,83 97,141 10,61 6,128 -29,181 -30,48 -83,77 -137,88 -66,11 -139,5 -196,-32 -49,-30 -80,-85 -87,-141 -7,-57 -2,-118 28,-167 27,-47 74,-79 125,-93l0 0zm39 64c-39,13 -59,54 -67,91 -11,54 -10,112 14,162 17,37 60,62 101,55 37,-5 66,-35 79,-69 15,-41 17,-86 11,-129 -4,-29 -13,-59 -32,-83 -25,-30 -70,-42 -106,-27l0 0z"/>
        </g>
        <path fill="#08436A" d="M1990 846c91,0 182,0 273,0 1,22 1,44 1,66 -53,0 -106,0 -159,0 -2,35 -2,71 -2,106 43,0 85,0 127,0 1,21 1,42 0,64 -43,-1 -85,-1 -127,-1 0,43 -1,85 2,127 56,0 112,2 168,-2 1,23 1,46 1,69 -95,0 -189,1 -284,0 4,-63 2,-126 2,-189 0,-80 2,-160 -2,-240z"/>
        <g>
         <path fill="#08436A" d="M2336 846c62,0 124,0 186,0 39,4 84,4 111,36 50,60 22,163 -50,192 41,69 87,135 132,202 -44,0 -88,-1 -133,0 -36,-55 -64,-115 -97,-172 -13,0 -25,0 -38,1 -3,56 -1,114 2,170 -37,1 -75,1 -113,0 5,-143 5,-286 0,-429l0 0zm112 73c-1,39 -2,78 0,117 11,13 33,5 49,5 50,-3 70,-72 40,-107 -25,-21 -60,-14 -89,-15z"/>
        </g>
        <path fill="#08436A" d="M4150 846c43,0 86,0 129,0 24,42 48,85 71,127 26,-42 51,-84 76,-127 29,0 58,0 87,0 -41,67 -83,133 -123,200 43,76 85,153 128,229 -43,1 -86,0 -129,0 -26,-44 -51,-90 -76,-135 -28,45 -55,90 -81,135 -29,1 -58,1 -87,0 43,-69 86,-138 128,-207 -42,-74 -82,-148 -123,-222l0 0z"/>
        <path fill="#08436A" d="M4564 846c38,0 75,0 113,0 -6,76 -3,151 -3,227 0,67 -3,135 3,202 -37,1 -75,0 -113,0 6,-100 3,-200 4,-301 0,-43 -2,-85 -4,-128l0 0z"/>
        <g>
         <path fill="#08436A" d="M5614 1143c47,-24 109,17 101,69 -1,57 -78,85 -118,47 -38,-31 -28,-98 17,-116l0 0zm15 8c-41,11 -53,71 -21,98 27,28 80,14 89,-24 16,-41 -26,-88 -68,-74l0 0z"/>
        </g>
        <g>
         <path fill="#08436A" d="M5618 1168c17,-2 34,-5 51,2 16,11 9,39 -10,42 8,13 15,25 22,38 -27,3 -24,-37 -49,-39 -1,13 -1,25 -1,37 -3,0 -10,0 -13,0 0,-27 0,-54 0,-80l0 0zm14 9c-1,8 -1,16 -1,24 8,1 15,1 23,1 5,-5 13,-11 8,-19 -9,-8 -21,-5 -30,-6z"/>
        </g>
        <path fill="#08436A" d="M432 1366c120,0 240,0 360,0 -13,18 -23,39 -41,53 -106,1 -212,0 -318,0 0,-17 0,-35 -1,-53z"/>
        <path fill="#08436A" d="M432 1455c93,1 187,-1 280,1 -48,32 -104,54 -162,53 -39,0 -78,0 -117,-1 0,-17 0,-35 -1,-53l0 0z"/>
       </g>
      </g>
     </g>
    </g>
   </g>
  </g>
  <polygon fill="none" points="0,2013 5716,2013 5716,0 0,0 "/>
 </g>
</svg>
