<?xml version="1.0" encoding="UTF-8"?>
<!DOCTYPE svg PUBLIC "-//W3C//DTD SVG 1.1//EN" "http://www.w3.org/Graphics/SVG/1.1/DTD/svg11.dtd">
<!-- Creator: CorelDRAW 2019 (64-Bit) -->
<svg xmlns="http://www.w3.org/2000/svg" xml:space="preserve" width="131px" height="50px" version="1.1" shape-rendering="geometricPrecision" text-rendering="geometricPrecision" image-rendering="optimizeQuality" fill-rule="evenodd" clip-rule="evenodd"
viewBox="0 0 13493 5143"
 xmlns:xlink="http://www.w3.org/1999/xlink"
 enable-background="new 0 0 169 43">
 <g id="Layer_x0020_1">
  <metadata id="CorelCorpID_0Corel-Layer"/>
  <rect fill="none" width="13493" height="5143"/>
  <g id="_2059871701696">
   <g id="EN.svg">
    <g id="EN">
     <g>
      <path fill="white" d="M0 2487c337,-386 675,-771 1012,-1157 388,0 776,0 1164,0 -338,385 -675,771 -1013,1157 -388,0 -775,0 -1163,0z"/>
      <path fill="white" d="M1267 2545c372,-210 744,-422 1116,-633 370,215 740,430 1110,644 -374,209 -748,419 -1122,628 -368,-213 -736,-425 -1104,-639z"/>
      <path fill="white" d="M1 2600c387,-1 774,0 1162,-1 338,385 675,770 1012,1156 -388,0 -776,0 -1164,0 -337,-385 -673,-771 -1010,-1155l0 0z"/>
     </g>
     <g>
      <path fill="white" d="M4910 2049c56,0 111,0 166,0 0,100 0,199 0,299 -55,0 -110,0 -166,0 0,-100 0,-199 0,-299z"/>
      <path fill="white" d="M6150 2061c259,-7 537,27 746,192 213,165 328,437 324,703 -9,243 -119,486 -308,641 -167,142 -390,195 -604,204 -186,3 -372,1 -558,1 -1,-53 -2,-106 -3,-158 269,-10 544,28 808,-42 313,-77 516,-412 489,-726 -19,-264 -194,-519 -448,-609 -141,-52 -294,-58 -442,-59 -1,-50 -2,-98 -4,-147l0 0z"/>
      <g>
       <path fill="white" d="M3371 3802c363,-564 725,-1128 1088,-1692 83,-1 167,-1 250,-1 0,564 0,1129 0,1693 -65,0 -129,0 -193,0 0,-196 0,-393 0,-589 -181,0 -364,0 -546,0 -125,196 -251,392 -376,589 -75,0 -148,0 -223,0l0 0zm1145 -1442c-148,231 -295,462 -442,693 147,0 294,0 442,0 0,-231 1,-462 0,-693z"/>
      </g>
      <path fill="white" d="M8694 3802c0,-564 0,-1128 0,-1692 54,0 108,0 162,0 0,564 0,1128 0,1692 -54,0 -108,0 -162,0z"/>
      <path fill="white" d="M12479 2110c55,0 109,0 163,0 0,80 0,159 0,238 -54,0 -108,0 -163,0 0,-79 0,-158 0,-238z"/>
      <path fill="white" d="M12853 2110c54,0 108,0 163,0 0,132 0,265 0,396 56,0 113,0 169,0 0,50 0,100 0,150 -56,0 -113,1 -169,0 0,382 0,764 0,1146 -55,0 -109,0 -163,0 -1,-563 -1,-1128 0,-1692z"/>
      <path fill="white" d="M13331 2110c53,0 107,0 162,0 0,80 0,159 0,238 -55,0 -109,0 -162,0 -1,-79 -1,-158 0,-238z"/>
      <g>
       <path fill="white" d="M7782 2472c318,-82 668,113 783,417 112,264 19,588 -202,767 -191,163 -475,205 -703,99 -260,-115 -435,-404 -398,-688 24,-282 244,-533 520,-595l0 0zm19 151c-161,46 -297,174 -348,334 -82,228 7,508 219,632 201,131 486,83 641,-97 132,-145 167,-366 102,-550 -86,-239 -368,-394 -614,-319l0 0z"/>
      </g>
      <g>
       <path fill="white" d="M9493 2465c325,-68 668,147 767,459 99,278 -20,605 -262,769 -201,144 -483,160 -699,40 -239,-127 -392,-405 -355,-676 30,-289 265,-539 549,-592l0 0zm-15 160c-210,61 -365,263 -371,480 -22,243 149,486 386,544 177,47 376,-16 498,-152 140,-151 174,-384 99,-574 -93,-231 -372,-375 -612,-298z"/>
      </g>
      <path fill="white" d="M5663 2518c63,-31 134,-38 203,-45 0,58 0,116 0,174 -105,13 -216,48 -283,134 -61,75 -89,172 -88,268 0,251 0,502 0,753 -55,0 -111,0 -165,0 0,-432 0,-864 0,-1296 54,0 110,0 165,0 0,65 0,130 -1,195 38,-76 90,-148 169,-183l0 0z"/>
      <path fill="white" d="M10564 2654c142,-215 465,-231 660,-82 54,39 94,93 130,149 66,-98 155,-183 268,-219 183,-61 405,-22 541,120 104,108 146,262 146,410 2,257 0,513 1,770 -56,0 -111,0 -167,0 0,-257 1,-514 0,-772 -2,-133 -43,-284 -164,-358 -120,-70 -284,-68 -397,14 -107,80 -142,219 -144,346 -1,257 0,513 0,770 -56,0 -112,0 -167,0 0,-257 0,-515 0,-773 -1,-138 -47,-295 -177,-365 -135,-69 -322,-55 -427,61 -79,87 -100,210 -102,324 0,251 1,502 0,753 -55,0 -111,0 -165,0 0,-432 0,-864 0,-1296 54,0 110,0 165,0 0,50 0,98 -1,148z"/>
      <path fill="white" d="M13330 2506c54,0 108,0 163,0 0,432 0,864 0,1296 -55,0 -109,0 -162,0 -1,-432 -1,-864 -1,-1296z"/>
      <path fill="white" d="M4910 2506c56,0 111,0 166,0 0,432 0,864 0,1296 -55,0 -110,0 -166,0 0,-432 0,-864 0,-1296z"/>
      <path fill="white" d="M12479 2506c55,0 109,0 163,0 0,432 0,864 0,1296 -54,0 -108,0 -163,0 0,-432 0,-864 0,-1296z"/>
     </g>
    </g>
   </g>
  </g>
 </g>
</svg>
