<svg width="139" height="50" viewBox="0 0 139 50" fill="none" xmlns="http://www.w3.org/2000/svg">
<g clip-path="url(#clip0_767_43595)">
<path d="M139.034 19H131.496C130.496 20.5384 129.457 22.0384 128.419 23.5384C127.381 25.0382 126.342 26.5384 125.342 28.0767C124.419 29.3074 123.035 30.2305 121.496 30.5381V30.8458H128.573C129.496 30.8458 130.419 30.3843 131.188 29.7689C131.957 29.1536 132.573 28.3844 133.188 27.4613C135.188 24.6922 137.188 21.7692 139.034 19Z" fill="#08436A"/>
<path d="M101.192 19.7705C99.0381 19.6167 96.8843 19.9244 95.1921 21.0013C93.9613 21.7705 93.0383 22.8474 92.7306 24.232C92.4229 25.4627 92.5768 27.0011 93.346 28.078C94.4229 29.6164 96.1151 30.3856 97.8074 30.6933C100.423 31.3087 103.346 31.001 105.653 29.7703V27.0011C103.807 28.2318 101.5 28.6934 99.3458 28.3857C98.2689 28.2318 97.192 27.7703 96.4228 26.8473C95.9613 25.9242 95.8074 24.8473 96.4228 23.9243C97.192 23.0012 98.2689 22.3859 99.4996 22.232C101.653 22.0782 103.653 22.5397 105.499 23.4627V20.6936C104.115 20.2321 102.73 19.9244 101.192 19.7705Z" fill="#08436A"/>
<path d="M16.7344 19.9238H19.8112V30.8466H16.7344V19.9238Z" fill="#08436A"/>
<path fill-rule="evenodd" clip-rule="evenodd" d="M29.5034 19.9238H22.7344V30.8466H25.9651V27.1544C26.3497 27.2313 26.7343 27.2313 27.0996 27.2313C27.465 27.2313 27.8112 27.2313 28.1188 27.3082C29.1957 28.2313 30.1187 29.1543 31.1956 30.2312C31.5033 30.5388 32.1187 30.8466 32.7341 30.8466C33.3495 30.7697 33.9264 30.7697 34.484 30.7697C35.0417 30.7697 35.5802 30.7697 36.1186 30.6928C35.4071 30.0603 34.6956 29.3872 33.9632 28.6944C33.2704 28.039 32.5589 27.3659 31.811 26.6929C32.8879 26.3852 33.9648 25.616 34.4264 24.5391C34.8879 23.3084 34.5802 21.9238 33.6572 21.1546C32.5803 20.2315 30.888 19.9238 29.5034 19.9238ZM25.9651 25.0006V22.3853H29.3496C29.9649 22.3853 30.5803 22.5391 30.888 23.0007C31.1957 23.3084 31.1957 24.0776 30.7342 24.3852C30.2726 24.8468 29.8111 25.0006 29.1957 25.0006H25.9651Z" fill="#08436A"/>
<path d="M37.3477 19.9238H47.8089V22.3853H40.4245V25.0006H47.6551V27.3082H40.4245V30.8466H37.3477V19.9238Z" fill="#08436A"/>
<path fill-rule="evenodd" clip-rule="evenodd" d="M56.5752 19.9238H49.6523V30.8466H52.883V27.1544H55.0368C55.4016 27.5192 55.7488 27.884 56.0903 28.2429C56.7567 28.9432 57.4016 29.6209 58.1136 30.2312C58.5752 30.6928 59.1905 30.8466 59.6521 30.8466H63.1904C62.4212 30.1543 61.6905 29.462 60.9597 28.7698C60.229 28.0775 59.4982 27.3852 58.729 26.6929C59.8059 26.3852 60.8828 25.616 61.3443 24.5391C61.8059 23.4622 61.652 22.0776 60.5751 21.1546C59.4982 20.2315 57.9598 19.9238 56.5752 19.9238ZM52.883 25.0006V22.3853H56.2675C56.7291 22.3853 57.3444 22.3853 57.6521 22.693C58.1136 23.1545 58.1136 24.0776 57.6521 24.3852C57.1906 24.8468 56.7291 25.0006 56.1137 25.0006H52.883Z" fill="#08436A"/>
<path d="M78.8789 19.9238C79.6481 19.9238 80.4173 19.9238 81.1865 20.0777C82.4172 21.0776 83.648 22.116 84.8787 23.1544C86.1094 24.1929 87.3402 25.2314 88.5709 26.2313V19.9238H91.3401V30.8466H89.1863C86.5711 28.6929 84.1097 26.5392 81.6483 24.3854L81.6481 30.8466H78.8789V19.9238Z" fill="#08436A"/>
<path d="M118.423 19.9238H107.5V30.8466H118.269V28.3851H110.577V26.539H118.269V24.0776H110.577V22.3853H118.423V19.9238Z" fill="#08436A"/>
<path fill-rule="evenodd" clip-rule="evenodd" d="M6.11702 20.0777C7.04007 20.0777 7.96312 20.0777 8.88617 19.9238C9.53051 20.9548 10.1748 21.9737 10.8158 22.9873C12.4705 25.604 14.1028 28.1853 15.6552 30.8466H11.8092C11.5784 30.462 11.3477 30.039 11.1169 29.6159C10.8861 29.1928 10.6554 28.7697 10.4246 28.3851H4.42476C4.12324 28.8877 3.88738 29.3902 3.63139 29.9356C3.49554 30.2251 3.35403 30.5266 3.19402 30.8466H0.117188C2.11712 27.1544 4.11709 23.616 6.11702 20.0777ZM7.34776 23.0007C6.9771 23.5566 6.66227 24.1684 6.33601 24.8024C6.1206 25.221 5.90021 25.6492 5.6555 26.0775H9.04002C8.7953 25.6493 8.57491 25.221 8.35951 24.8024C8.03325 24.1684 7.71841 23.5566 7.34776 23.0007Z" fill="#08436A"/>
<path fill-rule="evenodd" clip-rule="evenodd" d="M71.6527 20.0771H69.0374C67.0375 23.6155 65.0375 27.1539 63.1914 30.8461H66.1144C66.2744 30.5261 66.4159 30.2246 66.5518 29.9351C66.8078 29.3897 67.0436 28.8871 67.3451 28.3846H73.1911C73.4926 28.8871 73.7285 29.3897 73.9845 29.9351C74.1203 30.2245 74.2618 30.5261 74.4219 30.8461H78.2679C76.1141 27.1539 73.9603 23.6155 71.6527 20.0771ZM71.8065 26.077H68.5759C68.8066 25.5385 69.0758 25.0001 69.3451 24.4617C69.6143 23.9232 69.8835 23.3848 70.1143 22.8463C70.7297 23.9232 71.345 25.0001 71.8065 26.077Z" fill="#08436A"/>
</g>
<defs>
<clipPath id="clip0_767_43595">
<rect width="139" height="50" fill="#08436A"/>
</clipPath>
</defs>
</svg>
