<svg width="146" height="50" viewBox="0 0 146 50" fill="none" xmlns="http://www.w3.org/2000/svg">
<g clip-path="url(#clip0_767_43594)">
<path d="M133.377 20.0233C132.642 19.125 131.948 18.2267 131.253 17.3283C130.559 16.4302 129.865 15.5315 129.13 14.6333C128.477 13.8167 127.497 13 126.517 13H122.923C123.475 13.9188 124.026 14.7686 124.577 15.6184C125.496 17.0349 126.415 18.4513 127.333 20.1867C127.823 21.0034 128.477 21.82 129.457 21.9834C130.655 22.0922 131.852 22.0559 133.05 22.0197C133.649 22.0015 134.248 21.9834 134.847 21.9834L133.377 20.0233Z" fill="white"/>
<path d="M42.0745 19.5331H40.1145V21.4931H42.0745V19.5331Z" fill="white"/>
<path d="M92.8686 19.5331H90.9086V31.1298H92.8686V19.5331Z" fill="white"/>
<path d="M94.8274 19.5331H96.7874V21.4931H94.8274V19.5331Z" fill="white"/>
<path d="M82.7419 19.5331H80.6186V21.4931H82.7419V19.5331Z" fill="white"/>
<path fill-rule="evenodd" clip-rule="evenodd" d="M0.257812 31.1296C1.56448 27.5363 3.03449 23.6163 4.50449 20.0229H6.79116C7.44449 21.9013 8.13866 23.7388 8.83283 25.5763C9.527 27.4138 10.2212 29.2513 10.8745 31.1296H8.75116L7.77116 28.6796H3.19782C2.87115 29.4963 2.54448 30.313 2.38115 31.1296H0.257812ZM7.28116 27.0463C6.95449 26.2296 6.66866 25.413 6.38283 24.5963C6.09699 23.7796 5.81116 22.9629 5.48449 22.1463C4.99449 23.7796 4.34115 25.413 3.68782 27.0463H7.28116Z" fill="white"/>
<path fill-rule="evenodd" clip-rule="evenodd" d="M75.8844 20.0229H73.5977C72.1277 23.6163 70.6577 27.373 69.351 31.1296H71.311L72.291 28.6796H76.8644L77.8444 31.1296H79.9677C79.3144 29.2513 78.6202 27.4138 77.926 25.5763C77.2319 23.7388 76.5377 21.9013 75.8844 20.0229ZM76.3744 27.0463H72.781C73.1077 26.2296 73.3935 25.413 73.6794 24.5963C73.9652 23.7796 74.251 22.9629 74.5777 22.1463C74.9044 22.9629 75.1902 23.7796 75.476 24.5963C75.7619 25.413 76.0477 26.2296 76.3744 27.0463Z" fill="white"/>
<path d="M18.3897 23.9432C17.4097 21.9832 14.4697 21.9832 13.3263 23.7799V22.6365H11.5297C11.693 25.4132 11.693 28.1899 11.693 31.1299H13.653C13.653 30.5249 13.6345 29.9198 13.6162 29.321C13.5801 28.1417 13.5447 26.9865 13.653 25.9032C13.8163 24.9232 14.4697 23.9432 15.4497 23.9432C16.4297 24.1066 16.7564 24.9232 16.7564 25.7399V31.1299H18.7164V26.7199C18.7164 25.9032 18.8797 24.9232 19.6964 24.2699C20.1864 23.7799 21.003 23.9432 21.3297 24.4332C21.8197 24.9232 21.8197 25.5766 21.8197 26.2299V31.1299H23.7797V25.4132C23.7797 24.5966 23.6164 23.6166 22.963 23.1266C21.493 21.9832 19.2064 22.3099 18.3897 23.9432Z" fill="white"/>
<path fill-rule="evenodd" clip-rule="evenodd" d="M26.0649 23.7799C27.2083 22.3099 29.6583 22.1466 31.1283 22.9633C32.5983 23.9433 32.7616 25.74 32.5983 27.3733C30.8016 27.21 29.0049 27.21 27.0449 27.3733C27.2083 28.0266 27.5349 29.0066 28.1883 29.3333C29.4949 29.9866 30.8016 29.66 31.9449 29.17C32.1083 29.66 32.1083 30.3133 32.1083 30.8033C30.4749 31.2933 28.8416 31.4566 27.2083 30.8033C26.2283 30.4766 25.5749 29.4966 25.2482 28.5166C24.9216 26.8833 25.0849 25.0866 26.0649 23.7799ZM27.8616 24.2699C27.5063 24.6252 27.4086 25.0664 27.3195 25.4689C27.2857 25.6215 27.2531 25.7686 27.2083 25.9033H30.6383C30.6383 25.4133 30.6383 24.9233 30.3116 24.4333C29.6583 23.7799 28.5149 23.7799 27.8616 24.2699Z" fill="white"/>
<path d="M39.1329 22.6363C37.9895 22.3096 36.5195 22.473 35.8662 23.7796C35.8662 23.453 35.8662 22.963 35.7029 22.6363H33.9062C34.1503 24.7114 34.1208 26.7865 34.0903 28.9298C34.0799 29.6544 34.0695 30.3868 34.0695 31.1296H36.0295C36.0889 30.4169 36.0619 29.7042 36.0349 28.9914C35.9877 27.7442 35.9404 26.4969 36.3562 25.2496C36.6829 24.1063 37.9895 23.943 39.1329 24.2696V22.6363Z" fill="white"/>
<path d="M40.1145 22.6362H42.0745V31.1295H40.1145V22.6362Z" fill="white"/>
<path d="M50.077 22.9634C48.607 22.31 46.9737 22.31 45.667 22.8C44.3603 23.4534 43.707 24.9234 43.707 26.23C43.5437 27.7 43.707 29.4967 45.177 30.4767C46.4837 31.4567 48.4437 31.4567 50.077 30.8034C50.077 30.4533 50.0301 30.15 49.9866 29.8686C49.9489 29.6249 49.9137 29.3974 49.9137 29.17C49.7737 29.2167 49.6337 29.2667 49.4937 29.3167C48.6537 29.6167 47.8137 29.9167 46.9737 29.4967C45.9937 29.0067 45.667 27.8634 45.667 26.8834C45.667 25.9034 45.8303 24.76 46.8103 24.27C47.7903 23.78 48.9337 24.1067 49.9137 24.5967C49.9137 24.3517 49.9545 24.0659 49.9953 23.7801C50.0362 23.4943 50.077 23.2083 50.077 22.9634Z" fill="white"/>
<path fill-rule="evenodd" clip-rule="evenodd" d="M51.5464 22.9628C53.0164 22.4728 54.6497 22.1461 56.283 22.7995C57.263 23.1261 57.9164 24.1061 57.9164 25.2495C57.9164 25.7395 57.9062 26.2295 57.896 26.7195C57.8653 28.1895 57.8347 29.6595 58.0797 31.1295H56.1197V30.1495C54.9764 31.2928 53.1797 31.6195 51.873 30.8028C50.5664 29.8228 50.403 27.5361 51.7097 26.5561C52.853 25.5761 54.4864 25.5761 55.9564 25.5761C55.9564 25.0861 55.793 24.4328 55.303 24.1061C54.1597 23.6161 52.6897 24.1061 51.5464 24.5961V22.9628ZM53.0164 27.6995C52.363 28.6795 53.343 30.1495 54.4864 29.8228C55.793 29.4961 55.9564 27.8628 55.9564 26.7195C55.7328 26.7567 55.4922 26.777 55.2463 26.7977C54.4142 26.8678 53.5207 26.943 53.0164 27.6995Z" fill="white"/>
<path d="M66.2469 23.453C64.9402 21.983 62.3269 22.1464 61.3469 23.7797C61.3469 23.6164 61.306 23.4123 61.2652 23.2081C61.2244 23.004 61.1835 22.7997 61.1835 22.6364H59.3869C59.5502 25.4131 59.5502 28.1897 59.5502 31.1297H61.5102C61.5102 30.6733 61.4996 30.2274 61.4892 29.7893V29.7881C61.4588 28.5027 61.43 27.2842 61.6735 26.0664C61.6735 25.0864 62.4902 23.943 63.6335 23.943C64.2869 24.1064 64.7769 24.7597 64.7769 25.4131V31.1297H66.7369V25.4131C66.7369 24.7597 66.7369 23.943 66.2469 23.453Z" fill="white"/>
<path d="M80.7815 22.6362H82.5782V31.1295H80.7815V22.6362Z" fill="white"/>
<path d="M86.5013 22.6367H84.7046V31.1301H86.6646V26.7201C86.6646 25.7401 86.9913 24.5967 87.9713 24.2701C88.4613 23.9434 89.1146 24.1067 89.7679 24.2701V22.6367C88.6246 22.1467 86.9913 22.6367 86.5013 23.7801V22.6367Z" fill="white"/>
<path d="M94.8274 22.6362H96.7874V31.1295H94.8274V22.6362Z" fill="white"/>
<path d="M100.547 22.6371H98.7505C98.8321 24.0253 98.8321 25.4135 98.8321 26.8221C98.8321 28.2309 98.8321 29.6605 98.9138 31.1304H100.874C100.874 30.5256 100.855 29.9392 100.837 29.3589C100.801 28.2157 100.765 27.0954 100.874 25.9038C101.037 24.9238 102.017 23.7804 103.16 24.1071C103.814 24.1071 104.14 25.0871 104.14 25.7404V31.1304H106.1V25.2504C106.1 24.2704 105.774 23.4538 104.957 22.9638C103.487 21.9838 101.527 22.3104 100.547 23.7804V22.6371Z" fill="white"/>
<path fill-rule="evenodd" clip-rule="evenodd" d="M109.04 23.127C110.51 22.3103 112.307 22.147 113.614 23.127C114.92 24.107 115.084 25.9036 114.92 27.3736C113.124 27.2103 111.164 27.2103 109.367 27.3736C109.53 28.027 109.857 29.007 110.51 29.3336C111.654 29.987 113.124 29.6603 114.267 29.1703C114.43 29.6603 114.43 30.3136 114.43 30.8036C112.797 31.2936 110.837 31.6203 109.204 30.6403C108.06 29.987 107.407 28.517 107.407 27.2103C107.407 25.7403 107.734 23.9436 109.04 23.127ZM110.184 24.2703C109.753 24.7008 109.575 25.2575 109.427 25.7187C109.407 25.7821 109.387 25.8444 109.367 25.9036H112.96C112.96 25.4136 112.96 24.9236 112.47 24.4336C111.98 23.7803 110.837 23.7803 110.184 24.2703Z" fill="white"/>
<path d="M121.943 22.9638C120.31 22.4738 118.513 22.1471 117.043 23.1271C115.9 23.7805 115.737 25.5771 116.717 26.5572C117.173 27.0133 117.833 27.2147 118.498 27.4175C119.023 27.5777 119.551 27.7388 119.983 28.0272C120.473 28.3538 120.473 29.3338 119.82 29.4972C118.677 29.9872 117.37 29.6605 116.227 29.1705C116.227 29.6605 116.227 30.1505 116.063 30.8038C117.86 31.2938 119.657 31.4572 121.29 30.6405C122.597 29.9872 122.76 27.8638 121.617 26.8838C121.127 26.4918 120.46 26.2762 119.794 26.0606C119.35 25.9169 118.905 25.7732 118.513 25.5771C118.023 25.2505 118.023 24.4338 118.513 24.1071C119.525 23.8183 120.536 24.168 121.434 24.4787C121.551 24.5194 121.667 24.5594 121.78 24.5971C121.78 23.9438 121.78 23.4538 121.943 22.9638Z" fill="white"/>
<path d="M131.906 22.9633C133.376 22.4733 135.009 22.4733 136.642 22.4733C138.112 22.4733 139.909 22.7999 140.399 24.4333C139.256 24.2699 138.112 24.2699 137.132 24.5966C135.662 24.7599 134.192 25.4133 133.376 26.7199C132.886 27.3733 132.886 28.3533 132.886 29.1699C132.435 28.4933 132.061 27.8167 131.658 27.0864L131.658 27.0853C131.477 26.7581 131.291 26.4202 131.089 26.0666C130.599 25.5766 130.272 24.7599 130.272 24.1066C130.436 23.4533 131.252 23.1266 131.906 22.9633Z" fill="white"/>
<path d="M137.134 24.5966C135.664 24.76 134.194 25.4133 133.378 26.72C132.888 27.3733 132.888 28.3533 132.888 29.17C133.541 30.15 134.194 31.13 134.684 32.11C134.788 32.2824 134.891 32.4621 134.996 32.6444C135.388 33.3258 135.802 34.0446 136.318 34.56C137.134 35.2133 138.278 35.54 139.421 35.54H146.118C144.648 33.7433 143.137 31.9058 141.626 30.0683C140.115 28.2308 138.604 26.3933 137.134 24.5966Z" fill="white"/>
</g>
<defs>
<clipPath id="clip0_767_43594">
<rect width="146" height="50" fill="white"/>
</clipPath>
</defs>
</svg>
