<svg width="104" height="50" viewBox="0 0 104 50" fill="none" xmlns="http://www.w3.org/2000/svg">
<path fill-rule="evenodd" clip-rule="evenodd" d="M2.88799 29.6679C2.85686 29.7485 2.8263 29.8374 2.79437 29.9302C2.64806 30.3557 2.47307 30.8645 2.08429 31.0417C1.7381 31.1961 1.52453 31.1917 1.39297 31.189C1.32575 31.1877 1.27993 31.1867 1.24878 31.2076C1.1821 31.2524 1.18255 31.3971 1.18394 31.8517C1.18429 31.9652 1.1847 32.0981 1.18414 32.2536C1.57455 32.3437 4.93974 32.3437 5.29998 32.2477L5.27575 31.204L3.85397 31.0417L5.09609 27.7121H9.84785C10.0335 28.1021 11.0118 30.7477 11.0237 31.0357C10.7688 31.0663 10.5597 31.086 10.3884 31.1022C9.96743 31.1418 9.7744 31.16 9.6895 31.2654C9.61761 31.3546 9.62324 31.5062 9.63364 31.7864C9.63831 31.9122 9.64395 32.064 9.64395 32.2477C9.99185 32.3437 14.2037 32.3437 14.5575 32.2477L14.5338 31.2099C14.3959 31.1854 14.2761 31.1675 14.1708 31.1517C13.5517 31.0587 13.4342 31.0411 13.1056 30.2261L11.1498 24.934C10.9594 24.4157 10.7654 23.8997 10.5716 23.384C10.3256 22.7297 10.0797 22.0757 9.84145 21.4179C9.71428 21.0664 9.55819 20.6734 9.39669 20.2667C9.07051 19.4454 8.72228 18.5686 8.54585 17.8662H7.39973C6.64725 19.6854 5.89617 21.7541 5.17655 23.7361C4.35811 25.9903 3.58082 28.1324 2.88799 29.6679ZM5.60034 26.38C5.67806 25.9178 7.32202 21.4961 7.52591 21.2442L9.35 26.3859L5.60034 26.38Z" fill="white"/>
<path d="M64.169 23.6496C64.4063 23.7736 64.6091 23.8119 64.7771 23.8435C65.1782 23.9191 65.3809 23.9574 65.3809 25.0357V30.0275C65.373 31.003 65.1705 31.0196 64.7807 31.0515C64.5854 31.0674 64.3431 31.0873 64.0547 31.2335V32.3014H68.4709L68.411 31.1914C68.3503 31.1833 68.2872 31.1763 68.223 31.1693C67.957 31.14 67.674 31.1088 67.4807 30.988C67.1826 30.567 67.2471 27.2935 67.2812 25.5638C67.2889 25.1712 67.2951 24.8579 67.2951 24.6759C67.5811 24.5747 67.8105 24.4635 68.028 24.3582C68.4676 24.1452 68.8585 23.9558 69.569 23.9197C70.529 23.8722 71.159 24.2379 71.3387 25.198C71.4767 25.8997 71.5069 30.5258 71.2491 30.988C71.0479 31.1233 70.7508 31.1496 70.4585 31.1755C70.4015 31.1805 70.3445 31.1856 70.2886 31.1914L70.2707 32.3014H74.6805V31.1914C74.536 31.1735 74.4017 31.1637 74.2784 31.1547C73.7006 31.1127 73.3616 31.0881 73.3123 30.3214C73.2647 29.5685 73.2867 28.7581 73.3086 27.9514C73.3888 24.9978 73.4676 22.0935 70.1267 22.2397C68.8061 22.3008 68.0523 22.8778 67.5615 23.2535C67.3766 23.395 67.2291 23.508 67.1026 23.554L66.9705 22.444L64.1507 22.4381L64.169 23.6496Z" fill="white"/>
<path d="M21.4529 29.7445C21.4657 28.5038 21.504 24.8124 21.39 24.352C21.2541 23.8202 20.7806 23.7642 20.2834 23.7053C20.2304 23.6991 20.1772 23.6928 20.1241 23.6859V22.4378L23.3457 22.4438V30.0277C23.3685 31.0485 23.7202 31.0885 24.5647 31.1846C24.6184 31.1908 24.6741 31.1971 24.7318 31.2039V32.3016L21.8343 32.2956L21.6483 31.1738C21.4782 31.2449 21.3021 31.3763 21.0965 31.5297C20.5911 31.9068 19.9074 32.4169 18.6964 32.4936C15.3448 32.6973 15.4426 29.5718 15.5308 26.7533C15.5542 26.0045 15.577 25.2773 15.5342 24.64C15.4783 23.8499 15.0298 23.7923 14.3894 23.71C14.3439 23.7042 14.2974 23.6982 14.25 23.6918V22.4378C14.3933 22.4378 14.6082 22.434 14.861 22.4294C15.7412 22.4136 17.08 22.3895 17.4483 22.4918C17.4505 23.2601 17.4425 24.04 17.4345 24.8227C17.4202 26.2158 17.4059 27.6179 17.4483 28.978C17.478 29.9737 17.8438 30.766 18.9359 30.8135C19.7417 30.8505 20.268 30.6006 20.864 30.3175C21.049 30.2297 21.241 30.1385 21.4499 30.0519C21.4504 29.9827 21.4515 29.879 21.4529 29.7475L21.4529 29.7445Z" fill="white"/>
<path fill-rule="evenodd" clip-rule="evenodd" d="M55.2127 23.2421C55.2905 23.6083 55.4345 24.1121 55.6507 24.3823C55.9928 24.3046 56.2987 24.2031 56.595 24.1048C57.3069 23.8685 57.9642 23.6504 58.9386 23.8241C60.0346 24.0234 60.003 25.2034 59.9776 26.1507C59.974 26.2873 59.9704 26.4191 59.9704 26.5424C59.6575 26.5999 59.286 26.6356 58.8868 26.674C56.9598 26.8592 54.3862 27.1064 54.6248 30.1777C54.8406 32.998 58.6447 33.1059 60.1506 31.3961C60.2716 31.5315 60.354 31.6615 60.4307 31.7823C60.6089 32.0634 60.7561 32.2954 61.2848 32.4338C61.915 32.5944 62.3974 32.465 62.9879 32.3066L63.0728 32.2839L63.0307 31.1798C62.9712 31.1735 62.9107 31.1682 62.8499 31.1628C62.5612 31.1371 62.2634 31.1106 62.0108 30.9819C61.7875 30.6784 61.8188 29.5781 61.8558 28.2812C61.9073 26.4738 61.9697 24.2846 61.3689 23.3381C60.7266 22.3301 59.4246 22.1678 58.3027 22.2578C57.0412 22.3571 56.4954 22.6361 55.9712 22.9042C55.7352 23.0248 55.5035 23.1433 55.2127 23.2421ZM59.9796 28.3184C60.0042 29.1332 60.0323 30.0639 59.4068 30.5741C58.8001 31.066 57.5164 31.2516 56.9646 30.6399C56.3945 30.0099 56.5687 28.7921 57.2704 28.3477C57.9004 27.9518 59.2326 27.8439 59.9704 27.8741C59.9704 28.0156 59.975 28.1651 59.9796 28.3184Z" fill="white"/>
<path d="M25.9461 29.0798L27.2778 29.0917C27.3444 29.3482 27.3806 29.5861 27.4134 29.802C27.5257 30.5405 27.599 31.0224 28.7179 31.1196C29.5641 31.1919 30.776 31.1018 31.07 30.1601C31.5296 28.6626 30.0559 28.2599 28.676 27.8829C28.1096 27.7281 27.559 27.5777 27.1644 27.3576C25.4899 26.4159 25.76 23.8297 27.2001 22.9117C28.61 22.0239 31.2081 22.0061 32.6061 22.882V25.3534H31.2442L31.2296 25.2643C31.0423 24.1208 30.9582 23.6078 29.6478 23.602C28.7238 23.602 27.6079 23.9317 27.8122 25.102C27.9434 25.8528 28.9441 26.1445 30.0071 26.4543C30.8379 26.6964 31.7067 26.9496 32.228 27.4418C33.8057 28.9358 33.0856 32.7632 28.6516 32.4875C27.4883 32.4135 27.1334 32.2664 26.6853 32.0806C26.4796 31.9953 26.2542 31.9018 25.9219 31.8036L25.9461 29.0798Z" fill="white"/>
<path d="M34.0227 23.7885H35.3786C35.3786 24.0996 35.3707 24.557 35.3613 25.0947L35.3612 25.0965L35.3612 25.0992L35.3612 25.1002L35.3611 25.1035C35.3266 27.0766 35.2734 30.1221 35.5226 30.9884C35.8166 32.0206 36.5366 32.4883 37.6169 32.5007C38.6195 32.5145 39.0799 32.2842 39.7341 31.957C39.9256 31.8613 40.1337 31.7572 40.3768 31.6485L39.8666 30.5925C39.6987 30.6336 39.5228 30.6978 39.3423 30.7637C38.8391 30.9473 38.2999 31.144 37.7966 30.8924C37.2393 30.6139 37.2582 29.7456 37.2714 29.1391C37.2732 29.0536 37.275 28.9732 37.275 28.9005C37.275 28.3327 37.2743 27.7648 37.2736 27.1969V27.1943C37.2723 26.0591 37.271 24.9239 37.275 23.7885H39.6326L39.6508 22.439H37.2809L37.275 20.1289L36.1106 20.1408L35.487 22.439H33.9688L34.0227 23.7885Z" fill="white"/>
<path d="M41.9244 23.8323C41.7466 23.7954 41.5308 23.7507 41.2734 23.6384V22.4919C41.6282 22.3941 42.8094 22.4158 43.5994 22.4302C43.8256 22.4344 44.0196 22.4379 44.1531 22.4379L44.3273 23.5539C44.5264 23.4213 44.6685 23.2812 44.8125 23.139C45.0332 22.9213 45.2587 22.6988 45.7015 22.4919C46.4453 22.1499 46.9615 22.2103 47.7473 22.384V24.604C46.427 23.9681 45.6055 24.0522 44.5134 24.844C44.4614 25.797 44.4747 27.2735 44.4863 28.5611V28.5624C44.4908 29.0659 44.4951 29.5411 44.4951 29.9441C44.4951 31.0551 44.6251 31.0688 45.5174 31.1627C45.7094 31.1829 45.9366 31.2068 46.2053 31.2461V32.2724H41.3512L41.3635 31.2105C41.5388 31.1807 41.6905 31.1653 41.8215 31.152C42.457 31.0875 42.6056 31.0725 42.6056 29.7046V25.1142C42.6056 23.9734 42.4018 23.9312 41.9244 23.8323Z" fill="white"/>
<path d="M49.1933 23.65C49.4264 23.7915 49.6383 23.8295 49.8189 23.862C50.2055 23.9313 50.4492 23.9751 50.4533 24.9525C50.4533 25.3687 50.4518 25.7852 50.4503 26.201V26.2044C50.4488 26.62 50.4473 27.0348 50.4473 27.4481C50.4473 28.0479 50.4545 28.5481 50.4604 28.9656C50.4788 30.2485 50.486 30.7517 50.2403 30.9699C50.082 31.1105 49.8185 31.1329 49.3853 31.1697C49.307 31.1763 49.2232 31.1835 49.1334 31.1918L49.1211 32.3018H53.669V31.2042L52.559 31.0181C52.2544 30.569 52.3195 25.6487 52.3501 23.3433C52.3563 22.8772 52.361 22.518 52.361 22.3242L49.1814 22.6781L49.1933 23.65Z" fill="white"/>
<path d="M50.6787 18.3466C49.3109 18.8504 50.0671 21.0763 51.6927 20.4404C52.9047 19.9664 52.4068 17.7102 50.6787 18.3466Z" fill="white"/>
<path d="M84.2869 23.8839L84.2893 23.8843C85.8368 23.087 86.8233 22.7573 87.3402 22.7798C87.9328 22.8071 87.9044 23.3 87.3943 24.0826C87.3385 24.1728 87.2763 24.2631 87.2079 24.3559C87.2286 24.328 87.2488 24.3002 87.2686 24.2727C85.6071 26.6416 81.1292 29.9935 78.5316 31.9378C78.3845 32.0479 78.2435 32.1534 78.1094 32.254L82.4053 31.5939C89.0653 25.8821 94.5851 22.8164 102.517 19.8942C102.891 19.7596 103.23 19.6342 103.434 19.559C103.557 19.5136 103.631 19.4864 103.633 19.4864C103.934 19.3357 103.61 19.3472 103.42 19.354L103.399 19.3547C103.157 19.3586 102.802 19.38 102.367 19.4061C102.133 19.4203 101.875 19.4358 101.599 19.4507C96.3615 19.759 90.7589 20.4989 85.5119 21.6635C85.5035 21.6637 85.495 21.6639 85.4865 21.6642C83.5006 22.1085 81.5627 22.6123 79.7148 23.1765L84.2869 23.8839C84.2868 23.884 84.2871 23.8838 84.2869 23.8839Z" fill="white"/>
</svg>
