<?xml version="1.0" encoding="UTF-8"?>
<!DOCTYPE svg PUBLIC "-//W3C//DTD SVG 1.1//EN" "http://www.w3.org/Graphics/SVG/1.1/DTD/svg11.dtd">
<!-- Creator: CorelDRAW 2017 -->
<svg xmlns="http://www.w3.org/2000/svg" xml:space="preserve" width="109px" height="50px" version="1.1" shape-rendering="geometricPrecision" text-rendering="geometricPrecision" image-rendering="optimizeQuality" fill-rule="evenodd" clip-rule="evenodd"
viewBox="0 0 4388 2010"
 xmlns:xlink="http://www.w3.org/1999/xlink"
 enable-background="new 0 0 169 43">
 <defs>
   <clipPath id="id0">
    <path d="M0 2010l4388 0 0 -2010 -4388 0 0 2010z"/>
   </clipPath>
 </defs>
 <g id="Vrstva_x0020_1">
  <metadata id="CorelCorpID_0Corel-Layer"/>
  <g>
  </g>
  <g clip-path="url(#id0)">
   <g>
    <g id="_2724368483600">
     <g id="AV.svg">
      <g id="AV">
       <g>
        <path fill="#08436A" d="M3447 792c-4,-108 28,-222 106,-301 59,256 180,498 349,699 -119,-7 -244,-39 -336,-119 -79,-69 -121,-175 -119,-279l0 0z"/>
        <path fill="#08436A" d="M1151 605c55,-17 115,40 95,95 -14,56 -94,74 -132,31 -40,-39 -17,-115 37,-126z"/>
        <g>
         <path fill="#08436A" d="M0 1311c89,-232 180,-463 269,-696 33,0 67,0 100,1 92,232 186,463 278,695 -48,0 -96,0 -144,0 -23,-57 -44,-114 -68,-171 -78,0 -155,0 -233,0 -22,57 -43,114 -64,171 -46,0 -92,1 -138,0zm244 -285c48,1 98,0 147,0 -22,-71 -50,-140 -71,-211 -23,71 -50,140 -76,211z"/>
        </g>
        <path fill="#08436A" d="M2082 802c43,-4 90,-4 127,21 51,30 74,91 75,148 0,113 -1,226 0,339 -46,2 -91,1 -137,1 0,-99 1,-199 0,-297 -2,-35 -6,-81 -44,-93 -51,-13 -99,16 -139,43 -3,115 0,232 -1,347 -46,0 -91,0 -137,0 0,-166 0,-334 0,-501 28,2 57,-3 85,4 20,6 34,24 45,43 39,-25 79,-48 126,-55z"/>
        <g>
         <path fill="#08436A" d="M1337 856c79,-51 178,-67 269,-51 44,10 88,35 109,76 31,58 20,127 21,189 3,81 -7,162 10,241 -32,-1 -64,3 -96,-2 -20,-2 -29,-21 -39,-36 -59,48 -144,65 -216,33 -87,-37 -115,-160 -63,-236 30,-42 80,-63 128,-72 47,-6 93,-7 140,-10 -2,-28 -11,-60 -40,-72 -60,-23 -126,-2 -178,29 -14,-29 -31,-59 -45,-89l0 0zm130 248c-39,22 -29,86 11,100 39,14 87,7 119,-20 5,-31 0,-65 1,-97 -44,3 -92,-4 -131,17z"/>
        </g>
        <path fill="#08436A" d="M2430 862c87,-77 220,-81 318,-27 0,37 -3,75 -5,112 -42,-30 -94,-46 -146,-39 -39,5 -76,28 -95,63 -31,52 -29,121 -2,174 21,40 66,65 110,65 45,1 86,-15 124,-37 13,32 24,65 37,98 -73,43 -162,63 -246,44 -53,-12 -104,-43 -135,-89 -74,-110 -61,-276 40,-364l0 0z"/>
        <g>
         <path fill="#08436A" d="M2830 857c78,-52 177,-68 269,-52 47,10 93,39 113,85 25,54 15,116 17,173 2,83 -6,167 9,248 -31,0 -61,2 -92,-1 -21,-2 -32,-22 -42,-38 -73,65 -201,71 -268,-6 -46,-56 -51,-145 -5,-203 31,-40 81,-58 130,-66 43,-5 87,-7 132,-8 1,-32 -16,-66 -48,-76 -57,-15 -121,-2 -167,33 -18,-29 -33,-59 -48,-89l0 0zm129 248c-38,21 -28,85 11,99 40,16 86,6 121,-19 1,-32 0,-65 0,-98 -43,4 -92,-5 -132,18l0 0z"/>
        </g>
        <path fill="#08436A" d="M549 811c45,0 91,0 137,-1 38,104 75,207 114,311 2,16 12,0 13,-6 37,-101 75,-203 112,-304 46,0 91,-1 137,0 -68,167 -140,333 -208,500 -41,2 -94,6 -115,-38 -65,-154 -127,-309 -190,-462l0 0z"/>
        <path fill="#08436A" d="M1102 811c45,-1 91,0 136,-1 0,167 0,335 0,501 -45,0 -91,1 -136,0 0,-166 0,-334 0,-500z"/>
        <path fill="#08436A" d="M3904 1193c63,2 126,10 183,34 33,13 59,36 72,68 -53,-13 -108,-2 -162,-8 -34,-27 -62,-63 -93,-94z"/>
        <path fill="#08436A" d="M3615 1290c127,-4 255,0 381,-2 103,98 226,176 361,219 -113,13 -231,-1 -335,-49 -78,-35 -144,-90 -223,-121 -43,-16 -88,-24 -133,-27 -19,-1 -38,-6 -51,-20l0 0z"/>
       </g>
      </g>
     </g>
    </g>
   </g>
  </g>
  <polygon fill="none" points="0,2010 4388,2010 4388,0 0,0 "/>
 </g>
</svg>
