<svg width="157" height="50" viewBox="0 0 157 50" fill="none" xmlns="http://www.w3.org/2000/svg">
<g clip-path="url(#clip0_767_43599)">
<path d="M154.776 14.7641C155.554 15.9308 156.331 17.0974 156.85 18.3937C156.915 18.5881 156.947 18.7826 156.979 18.977C157.012 19.1715 157.044 19.3659 157.109 19.5603L157.103 19.5537L157.105 19.5603V19.6899C157.105 19.8196 157.105 20.0788 156.975 20.2084C156.975 20.5973 156.845 20.8566 156.586 21.1158C156.457 21.3751 156.197 21.6343 155.938 21.8935C155.884 21.9472 155.808 22.001 155.719 22.0639C155.594 22.1529 155.442 22.2602 155.29 22.4121C155.031 22.6714 154.642 22.9306 154.253 23.0603C153.734 23.4491 153.216 23.7084 152.697 23.9677C152.499 24.067 152.309 24.1663 152.123 24.2634C151.58 24.5466 151.073 24.8117 150.494 25.0047C149.986 25.3092 149.399 25.5342 148.857 25.742C148.707 25.7995 148.56 25.8559 148.42 25.9121C148.16 26.0417 147.933 26.1389 147.707 26.2362C147.48 26.3334 147.253 26.4306 146.994 26.5602C146.475 26.6899 145.827 26.5602 145.308 26.4306C144.271 26.301 143.234 26.1713 142.197 25.9121C139.994 25.3936 137.92 24.8751 135.716 24.2269C135.457 24.2269 135.068 24.0973 134.809 23.9677C135.846 23.7084 136.753 23.4491 137.79 23.0603C138 23.0077 138.231 22.934 138.475 22.8561C138.834 22.7418 139.219 22.6189 139.605 22.5417C139.994 22.4121 140.415 22.2825 140.836 22.1529C141.258 22.0232 141.679 21.8936 142.068 21.764C142.348 21.6519 142.628 21.5641 142.898 21.4795C143.252 21.3684 143.588 21.263 143.883 21.1158H144.012C144.19 21.0446 144.378 20.9733 144.573 20.8993C145.088 20.7042 145.652 20.4904 146.216 20.2084C146.54 20.0788 146.896 19.9492 147.253 19.8196C147.609 19.6899 147.966 19.5603 148.29 19.4307C148.679 19.1714 148.938 19.0418 149.327 18.9122C149.457 18.8473 149.554 18.7825 149.651 18.7177C149.748 18.6529 149.845 18.5881 149.975 18.5233C150.036 18.4927 150.105 18.4621 150.177 18.4298C150.411 18.3252 150.684 18.2028 150.883 18.0048C151.271 17.8751 151.531 17.6159 151.79 17.3566L151.92 17.4862C152.049 17.3566 152.179 17.227 152.179 17.0974C152.243 17.0331 152.339 16.905 152.436 16.7764C152.22 16.7498 152.006 16.7277 151.794 16.7085C150.04 16.5136 148.213 16.5385 146.423 16.5629C145.831 16.5709 145.244 16.5789 144.665 16.5789H143.369C142.332 16.5789 141.327 16.6113 140.322 16.6437C139.318 16.6761 138.313 16.7085 137.276 16.7085C136.848 16.6229 136.364 16.6504 135.86 16.6789C135.601 16.6936 135.337 16.7085 135.072 16.7085H123.017L123.147 16.5789C122.291 16.6644 121.436 16.6371 120.544 16.6086C120.084 16.5939 119.613 16.5789 119.128 16.5789C116.276 16.5789 113.424 16.4493 110.573 16.19C107.591 15.8011 104.61 15.4122 101.758 14.7641L100.202 14.3752H99.5542L99.4246 14.2456C98.3011 14.0727 97.1777 13.7847 96.0542 13.4966C95.4925 13.3526 94.9308 13.2086 94.3691 13.0789V12.9493C94.0613 12.9493 93.8348 12.8681 93.5609 12.77C93.4887 12.7442 93.4132 12.7171 93.332 12.69C94.6283 12.5604 95.9246 12.5604 97.2209 12.5604C100.72 12.4308 104.09 12.3012 107.459 12.1716L107.462 12.1715C114.855 11.7956 122.248 11.5408 129.524 11.2901L130.276 11.2641C133.128 11.1345 136.109 11.0049 138.961 11.0049H138.832C139.523 10.9185 140.214 10.9473 140.906 10.9761C141.251 10.9905 141.597 11.0049 141.943 11.0049C142.169 11.0049 142.38 10.989 142.58 10.974C142.953 10.9459 143.291 10.9206 143.628 11.0049C144.146 11.0049 144.665 11.0373 145.183 11.0697C145.702 11.1021 146.22 11.1345 146.739 11.1345C147.906 11.2641 149.072 11.5234 150.239 11.7826C150.332 11.8175 150.426 11.8524 150.521 11.8875L150.522 11.8881C151.484 12.2448 152.524 12.6305 153.35 13.3382C153.868 13.7271 154.387 14.2456 154.776 14.7641Z" fill="#08436A"/>
<path d="M40.5742 24.8752C41.352 24.227 42.389 23.9678 43.2964 23.9678C44.2038 23.9678 45.2408 23.9678 46.1482 24.3567C46.1482 25.0048 46.1482 25.6529 46.2779 26.3011C45.6297 25.2641 44.0742 24.4863 42.9075 25.0048C42.1297 25.2641 42.0001 26.1715 42.389 26.8196C42.6483 27.2517 43.138 27.5686 43.6277 27.8854C43.8725 28.0439 44.1174 28.2023 44.3334 28.3751C45.2408 28.8936 46.1482 29.5418 46.7964 30.4492C47.3149 31.4862 47.1852 32.7825 46.2779 33.6899C45.6297 34.4677 44.4631 34.7269 43.426 34.8565C42.2594 34.8565 41.0927 34.7269 40.0557 34.2084C39.9261 34.2084 39.7964 34.0788 39.7964 33.9491C39.6668 33.1714 39.6668 32.3936 39.7964 31.6158C40.1853 32.3936 40.7038 33.0417 41.4816 33.4306C42.1297 33.8195 43.1668 33.9491 43.9445 33.6899C44.7223 33.301 44.9816 32.1344 44.4631 31.4862C44.1501 30.9646 43.6692 30.6949 43.1556 30.4067C43.031 30.3368 42.9044 30.2659 42.7779 30.1899C42.6808 30.1206 42.5823 30.0513 42.4831 29.9815L42.482 29.9807L42.4809 29.9799C41.6532 29.3977 40.7775 28.7817 40.315 27.8566C39.7964 26.9492 39.7964 25.6529 40.5742 24.8752Z" fill="#08436A"/>
<path d="M110.828 23.9678C109.921 23.8382 108.884 23.9678 107.977 24.2271C108.884 24.3567 109.532 25.0049 110.051 25.7826C110.439 26.366 110.796 26.9169 111.152 27.4678C111.509 28.0187 111.865 28.5697 112.254 29.153C112.254 29.2067 112.299 29.2826 112.351 29.3716C112.425 29.4974 112.514 29.6492 112.514 29.8011V33.8196C112.514 34.0788 112.254 34.3381 111.995 34.5974H115.106C114.847 34.3381 114.717 34.0788 114.717 33.69V29.9307C114.717 29.8011 114.717 29.6715 114.847 29.4122C115.014 29.1114 115.181 28.8019 115.351 28.4882L115.352 28.4851L115.353 28.4832L115.354 28.482C115.84 27.5813 116.345 26.6465 116.921 25.7826C117.31 25.1345 117.699 24.4864 118.347 24.0975H116.014C116.143 24.2271 116.273 24.3567 116.273 24.4864C116.208 24.616 116.143 24.7132 116.078 24.8104C116.014 24.9076 115.949 25.0049 115.884 25.1345C115.512 25.8789 115.073 26.5564 114.615 27.2631L114.613 27.2656C114.434 27.5426 114.251 27.8242 114.069 28.116C113.87 27.8167 113.67 27.4982 113.463 27.168L113.463 27.1671C113.132 26.6393 112.782 26.0813 112.384 25.5234C112.349 25.4654 112.314 25.4063 112.279 25.3467L112.278 25.3455C111.922 24.7403 111.536 24.0858 110.828 23.9678Z" fill="#08436A"/>
<path d="M120.941 23.9676C122.107 23.8379 123.403 23.9676 124.44 24.3564C124.57 25.0045 124.57 25.6526 124.57 26.3008C124.052 25.3934 122.885 24.6157 121.589 24.875C121.07 25.0046 120.552 25.3935 120.552 26.0416C120.552 26.5601 120.941 27.0786 121.459 27.4675C121.913 27.8564 122.399 28.1805 122.885 28.5045C123.371 28.8286 123.857 29.1527 124.311 29.5416C124.829 29.9305 125.348 30.5786 125.348 31.2267C125.607 32.1341 125.348 33.0415 124.7 33.6897C123.922 34.4674 123.015 34.7267 121.978 34.8563C120.941 34.8563 119.903 34.7267 118.866 34.3378C118.607 34.3378 118.348 34.2082 118.218 34.0786C118.089 33.3008 118.089 32.3934 118.218 31.6156C118.607 32.3934 119.126 33.0415 119.774 33.4304C120.552 33.8193 121.589 33.9489 122.366 33.56C123.144 33.1712 123.403 32.0045 122.885 31.3564C122.366 30.8379 121.718 30.449 121.07 30.0601C120.96 29.9869 120.848 29.9137 120.735 29.8398C120.044 29.3902 119.312 28.9131 118.866 28.2453C118.218 27.4675 118.089 26.1712 118.737 25.2638C119.255 24.4861 120.163 24.0972 120.941 23.9676Z" fill="#08436A"/>
<path fill-rule="evenodd" clip-rule="evenodd" d="M4.53699 24.0967H0C0.259256 24.3559 0.518513 24.6152 0.518513 25.0041V33.6892C0.518513 34.0781 0.259256 34.3373 0 34.5966H4.66662C5.44439 34.5966 6.22216 34.4669 6.99993 34.2077C7.64807 33.9484 8.16658 33.5595 8.55546 32.9114C9.07398 32.004 8.94435 30.7077 8.16658 29.93C7.64807 29.4114 6.74067 29.1522 6.09253 29.1522C6.8703 28.8929 7.51844 28.2448 7.77769 27.467C8.03695 26.5596 7.77769 25.5226 6.99993 25.0041C6.35178 24.3559 5.44439 24.0967 4.53699 24.0967ZM2.72219 28.7633V25.0041C3.49996 25.0041 4.27773 25.0041 4.92587 25.393C5.44439 25.7818 5.70364 26.43 5.57401 26.9485C5.57401 27.467 5.31476 28.1152 4.79625 28.3744C4.27773 28.7633 3.37033 28.7633 2.72219 28.7633ZM2.72219 33.5595V29.6707C2.87093 29.6707 3.02315 29.6672 3.17771 29.6637C3.96593 29.6456 4.81552 29.6262 5.57401 30.0596C6.22216 30.4485 6.35178 31.3559 6.22216 32.004C6.22216 32.6521 5.83327 33.1707 5.31476 33.4299C4.53699 33.8188 3.49996 33.6892 2.72219 33.5595Z" fill="#08436A"/>
<path fill-rule="evenodd" clip-rule="evenodd" d="M9.72266 24.0967H14.0004C15.0374 24.2263 15.9448 24.3559 16.7226 25.0041C17.63 25.9115 17.63 27.7263 16.593 28.504C16.103 28.994 15.3815 29.1367 14.7567 29.2603L14.6485 29.2818C14.6907 29.2959 14.7343 29.3099 14.779 29.3243C15.1467 29.4425 15.5841 29.5833 15.8152 29.93C16.3241 30.4388 16.7589 31.0463 17.1951 31.6557C17.759 32.4434 18.325 33.2341 19.0559 33.8188C19.4448 34.2077 19.9633 34.3373 20.4818 34.4669C19.4448 34.7262 18.4077 34.7262 17.3707 34.5966C16.9818 34.5966 16.593 34.3373 16.3337 34.0781C15.8152 33.4299 15.2967 32.6521 14.7782 31.8744C14.6879 31.724 14.6047 31.5666 14.5203 31.4071C14.2411 30.8793 13.9495 30.3281 13.3522 29.93C13.093 29.8003 12.8337 29.6707 12.4448 29.6707V33.6892C12.4448 34.0781 12.5745 34.3373 12.9634 34.5966H9.72266C9.98191 34.3373 10.2412 34.0781 10.2412 33.6892V25.0041C10.2412 24.6152 9.98191 24.3559 9.72266 24.0967ZM12.4448 25.0041V28.6337C12.9634 28.7633 13.6115 28.7633 14.13 28.3744C15.0374 27.8559 15.2967 26.43 14.6485 25.6522C14.13 25.0041 13.2226 25.0041 12.4448 25.0041Z" fill="#08436A"/>
<path d="M23.854 24.0967H20.6133C20.8725 24.3559 21.1318 24.6152 21.1318 25.0041V33.6892C21.1318 34.0781 20.8725 34.4669 20.6133 34.5966H23.854C23.5947 34.3373 23.3355 34.0781 23.3355 33.6892V25.5226C23.2058 25.0041 23.3355 24.3559 23.854 24.0967Z" fill="#08436A"/>
<path d="M30.85 24.0974C32.1463 24.0974 33.4426 24.0974 34.7389 23.9678C34.35 24.6159 33.8315 25.2641 33.0537 25.3937C32.6 25.3937 32.1787 25.3613 31.7574 25.3289C31.3361 25.2965 30.9149 25.2641 30.4612 25.2641V33.6899C30.4612 34.0788 30.7204 34.338 30.9797 34.5973H27.739C27.9982 34.4677 28.2575 34.0788 28.2575 33.6899V25.3937C27.5622 25.3071 26.8088 25.3361 26.0754 25.3651C25.7157 25.3793 25.3608 25.3933 25.0199 25.3933L25.0168 25.3937C24.827 25.3937 24.6372 25.4632 24.3966 25.5512C24.3085 25.5835 24.2136 25.6182 24.1094 25.6529L24.8871 24.0974H30.85Z" fill="#08436A"/>
<path d="M38.3664 24.0967H34.9961C35.385 24.3559 35.6442 24.7448 35.6442 25.1337V33.5595C35.6442 33.9484 35.385 34.3373 34.9961 34.5966H38.3664C38.1072 34.4669 37.8479 34.0781 37.8479 33.8188V25.0041C37.8479 24.6152 38.1072 24.3559 38.3664 24.0967Z" fill="#08436A"/>
<path d="M55.0902 24.0967H58.2013C57.9421 24.3559 57.6828 24.7448 57.6828 25.1337V33.5595C57.6828 33.9484 57.9421 34.3373 58.2013 34.5966H55.0902C55.2199 34.4669 55.4791 34.2077 55.4791 33.9484L55.4844 33.9379V29.8008H55.7384L55.4791 29.8003C54.0532 29.6707 52.4977 29.6707 50.9421 29.8003C50.8557 30.2324 50.8845 30.6645 50.9133 31.0966C50.9277 31.3127 50.9421 31.5287 50.9421 31.7447C50.9421 32.0472 50.9277 32.3497 50.9133 32.6521C50.8845 33.2571 50.8557 33.862 50.9421 34.4669H50.9449C50.8584 33.862 50.8872 33.2571 50.916 32.6522C50.9304 32.3497 50.9449 32.0472 50.9449 31.7447C50.9449 31.5287 50.9304 31.3127 50.916 31.0966C50.8872 30.6645 50.8584 30.2324 50.9449 29.8003C51.0304 30.6554 51.0031 31.5105 50.9746 32.4028C50.9599 32.863 50.9449 33.3336 50.9449 33.8188C50.9449 34.0781 51.2041 34.4669 51.4634 34.5966H48.2227C48.4819 34.3373 48.7412 34.0781 48.7412 33.6892V25.1337C48.7412 24.7448 48.6115 24.3559 48.2227 24.0967H51.4634C51.3337 24.2263 51.2041 24.3559 51.0745 24.6152C50.9449 24.4856 50.9449 24.3559 50.9449 24.2263C50.6806 24.2263 50.4164 24.2113 50.1572 24.1967C49.9069 24.1825 49.6613 24.1686 49.425 24.1687C49.6604 24.1687 49.9051 24.1825 50.1545 24.1967C50.4136 24.2113 50.6779 24.2263 50.9421 24.2263C50.9421 24.3559 50.9421 24.4856 51.0718 24.6152C50.9421 25.9115 50.9421 27.2078 50.9421 28.6337H55.4791V25.0041C55.4791 24.6152 55.3495 24.2263 55.0902 24.0967Z" fill="#08436A"/>
<path d="M76.8696 24.0967H73.6289C73.8882 24.3559 74.1474 24.6152 74.1474 25.0041V33.6892C74.1474 34.0781 73.8882 34.3373 73.6289 34.5966H76.8696C76.4807 34.4669 76.3511 33.9484 76.3511 33.5595V25.1337C76.3511 24.7448 76.4807 24.3559 76.8696 24.0967Z" fill="#08436A"/>
<path d="M86.8516 24.0967H90.0923C89.833 24.2263 89.833 24.6152 89.9626 24.8745L92.296 31.0966C93.2033 28.7635 93.981 26.4304 94.7587 24.0972C95.5633 25.8069 96.29 27.5941 96.999 29.3388C97.2039 29.8429 97.4073 30.3434 97.6107 30.8373C97.9348 29.8003 98.2913 28.7633 98.6477 27.7263C99.0042 26.6892 99.3607 25.6522 99.6848 24.6152C99.7751 24.5248 99.7395 24.3714 99.7096 24.2429C99.6966 24.1871 99.6848 24.1359 99.6848 24.0967H101.629C101.208 24.4337 101.006 24.9349 100.809 25.4225C100.703 25.6851 100.599 25.9438 100.463 26.1707C99.5552 29.0224 98.6477 31.8745 97.6107 34.5966C97.3515 34.5966 96.9626 34.5966 96.8329 34.3373C96.3144 33.5595 96.0552 32.7818 95.7959 32.004C95.3869 31.1859 95.0585 30.2871 94.7471 29.435C94.6638 29.207 94.5817 28.9822 94.4996 28.7633C94.1755 29.6707 93.8515 30.6106 93.5274 31.5504C93.2033 32.4901 92.8792 33.43 92.5552 34.3373C92.4904 34.3373 92.458 34.4021 92.4256 34.4669C92.3932 34.5318 92.3608 34.5966 92.296 34.5966H91.3886C90.668 32.8351 89.9968 31.0736 89.314 29.2816C88.8914 28.1723 88.4643 27.0514 88.0182 25.9115C87.9959 25.8557 87.9736 25.7991 87.9511 25.7417C87.7115 25.1325 87.444 24.4521 86.8516 24.0967Z" fill="#08436A"/>
<path fill-rule="evenodd" clip-rule="evenodd" d="M68.7009 24.0967H65.9787C66.1083 24.2263 66.3676 24.6152 66.2379 24.8745C65.6549 26.3644 65.0719 27.822 64.4889 29.2795L64.4879 29.282C63.9046 30.7402 63.3213 32.1985 62.738 33.6892C62.6084 34.0781 62.3491 34.3373 62.0898 34.5966H64.1639C64.0343 34.4669 63.9046 34.3373 64.0343 34.2077C64.1973 33.5557 64.4628 32.9549 64.7341 32.3409C64.8943 31.9785 65.0566 31.6111 65.2009 31.2262H69.0898C69.2842 31.6799 69.4463 32.166 69.6083 32.6521C69.7703 33.1383 69.9324 33.6244 70.1268 34.0781C70.211 34.2464 70.1312 34.36 70.0649 34.4546C70.0291 34.5056 69.9972 34.5511 69.9972 34.5966H73.1082C72.7194 34.3373 72.4601 34.0781 72.3305 33.6892C71.0342 30.4485 69.8675 27.3374 68.7009 24.0967ZM68.7009 30.1892C67.6639 30.3188 66.6268 30.3188 65.5898 30.1892C65.8491 29.5411 66.1083 28.8606 66.3675 28.18L66.3681 28.1787C66.6272 27.4986 66.8863 26.8184 67.1453 26.1707C67.4045 26.8188 67.6638 27.4992 67.923 28.1796C68.1822 28.8602 68.4416 29.5411 68.7009 30.1892Z" fill="#08436A"/>
<path fill-rule="evenodd" clip-rule="evenodd" d="M78.6836 24.0967H82.9613L83.0464 24.1088C83.9329 24.2349 84.9259 24.3761 85.5539 25.0041C86.4613 25.7818 86.5909 27.3374 85.6835 28.2448C85.2946 28.8929 84.5169 29.1522 83.7391 29.2818C84.2576 29.4114 84.6465 29.5411 84.9057 29.8003C85.563 30.4576 86.0969 31.1972 86.6232 31.9263C87.0311 32.4914 87.4344 33.0502 87.8872 33.5595C88.0168 33.6892 88.1465 33.7864 88.2761 33.8836C88.4057 33.9808 88.5353 34.0781 88.665 34.2077C88.6651 34.2079 88.6648 34.2075 88.665 34.2077C88.8352 34.2644 88.9812 34.2968 89.1126 34.3256C89.2811 34.3626 89.4267 34.3945 89.5723 34.4673C88.7945 34.5969 88.0168 34.7265 87.1094 34.5969C87.3686 34.5321 87.6603 34.5321 87.952 34.5321C88.2436 34.5321 88.5353 34.5321 88.7945 34.4673C88.7945 34.4674 88.7945 34.4672 88.7945 34.4673C88.5353 34.5321 88.2436 34.5321 87.952 34.5321C87.6603 34.5321 87.3686 34.5321 87.1094 34.5969C86.7205 34.7265 86.202 34.5966 85.8131 34.3373C85.0802 33.7091 84.601 32.9117 84.1022 32.0818C83.9836 31.8843 83.8636 31.6848 83.7391 31.4855C83.2206 30.7077 82.4428 29.6707 81.4058 29.6707V33.8188C81.4058 34.0781 81.5354 34.4669 81.7947 34.5966H78.6836C78.9428 34.3373 79.0725 34.0781 79.0725 33.6892V25.1337C79.2021 24.7448 78.9428 24.3559 78.6836 24.0967ZM81.4058 25.0041V28.6337C81.9243 28.7633 82.5724 28.7633 83.091 28.3744C83.9983 27.8559 84.128 26.5596 83.6095 25.7818C83.2206 25.0041 82.1836 25.0041 81.4058 25.0041Z" fill="#08436A"/>
<path fill-rule="evenodd" clip-rule="evenodd" d="M106.299 24.0967H103.576C103.706 24.2263 103.836 24.3559 103.965 24.6152C103.836 25.004 103.706 25.2633 103.576 25.5225C102.669 27.9854 101.632 30.5781 100.595 33.041C100.465 33.5595 100.206 34.3373 99.6875 34.5966H101.762C101.632 34.4669 101.502 34.3373 101.632 34.2077C101.826 33.6892 102.021 33.2031 102.215 32.717C102.41 32.2309 102.604 31.7447 102.799 31.2262H106.687C106.842 31.6375 106.975 32.0284 107.105 32.407C107.302 32.9828 107.49 33.5306 107.724 34.0781C107.854 34.3373 107.724 34.4669 107.595 34.5966H110.706C110.317 34.4669 110.058 34.0781 109.928 33.8188C109.345 32.1985 108.729 30.5782 108.113 28.9579C107.498 27.3375 106.882 25.7171 106.299 24.0967ZM105.521 28.18L105.521 28.1812C105.78 28.8613 106.039 29.5415 106.299 30.1892C105.262 30.3188 104.224 30.3188 103.187 30.1892C103.447 29.5411 103.706 28.8606 103.965 28.18L103.966 28.1787C104.225 27.4986 104.484 26.8184 104.743 26.1707C105.002 26.8188 105.262 27.4995 105.521 28.18Z" fill="#08436A"/>
</g>
<defs>
<clipPath id="clip0_767_43599">
<rect width="157" height="50" fill="#08436A"/>
</clipPath>
</defs>
</svg>
