<svg width="117" height="50" viewBox="0 0 117 50" fill="none" xmlns="http://www.w3.org/2000/svg">
<path d="M116.237 14.8228C116.237 16.3818 114.973 17.6456 113.414 17.6456C111.855 17.6456 110.591 16.3818 110.591 14.8228C110.591 13.2638 111.855 12 113.414 12C114.973 12 116.237 13.2638 116.237 14.8228Z" fill="white"/>
<path fill-rule="evenodd" clip-rule="evenodd" d="M0 12.2073H2.38104V17.564C3.21286 16.6684 4.59518 16.1281 6.14816 16.1281C9.34414 16.1281 11.7908 18.4981 11.7908 21.8484C11.7908 25.1817 9.31223 27.5189 5.90337 27.5189C2.64175 27.5199 0 25.3462 0 21.1793V12.2073ZM5.83866 25.2156C7.92526 25.2156 9.36101 23.8266 9.36101 21.8164C9.36101 19.8552 8.00683 18.4333 5.96902 18.4333C3.94622 18.4333 2.46263 19.8223 2.46263 21.9104C2.46263 23.9281 3.83276 25.2156 5.83866 25.2156Z" fill="white"/>
<path d="M18.3628 16.2436C19.0927 16.244 19.822 16.2823 20.5479 16.3583V18.5479C19.928 18.4822 19.1618 18.454 18.7379 18.454C16.6504 18.454 16.0474 19.3853 16.0474 21.3137V27.3761H13.6664V20.1982C13.6664 18.3684 14.8893 16.2436 18.3628 16.2436Z" fill="white"/>
<path d="M27.2015 27.5039C23.5976 27.5039 22.0971 25.1996 22.0971 22.6829V16.2436H24.4763V22.2581C24.4763 23.5334 24.6395 25.2005 27.1959 25.2005C29.6257 25.2005 29.9154 23.603 29.9154 22.2581V16.2436H32.2966V22.6829C32.3059 25.1996 30.7895 27.5039 27.2015 27.5039Z" fill="white"/>
<path d="M38.7147 27.5528C37.231 27.5528 35.62 27.2915 34.4945 26.8498V24.7579C35.3386 25.1179 37.0389 25.4439 38.5271 25.4439C39.9779 25.4439 40.8912 25.0032 40.8912 24.1696C40.8912 23.5325 40.4017 23.1725 37.9074 22.6331C35.7871 22.1764 34.4373 21.3917 34.4373 19.4304C34.4373 17.2238 36.1657 16.0961 39.1339 16.0961C40.1291 16.0961 41.6124 16.2277 42.8035 16.5707V18.6457C41.7719 18.4004 40.3081 18.1758 39.2155 18.1758C37.894 18.1758 36.8833 18.4577 36.8833 19.3853C36.8833 20.0224 37.5687 20.3326 39.7537 20.7902C42.0534 21.2648 43.3417 22.2121 43.3417 24.0794C43.3306 26.2775 41.5038 27.5528 38.7147 27.5528Z" fill="white"/>
<path d="M49.413 27.5528C47.9284 27.5528 46.3184 27.2915 45.1929 26.8498V24.7579C46.0369 25.1179 47.7373 25.4439 49.2255 25.4439C50.6773 25.4439 51.5905 25.0032 51.5905 24.1696C51.5905 23.5325 51.1011 23.1725 48.6057 22.6331C46.4861 22.1764 45.1357 21.3917 45.1357 19.4304C45.1357 17.2238 46.865 16.0961 49.8332 16.0961C50.8271 16.0961 52.3117 16.2277 53.5018 16.5707V18.6457C52.4703 18.4004 51.0071 18.1758 49.9138 18.1758C48.5933 18.1758 47.5826 18.4577 47.5826 19.3853C47.5826 20.0224 48.2671 20.3326 50.452 20.7902C52.7514 21.2648 54.04 22.2121 54.04 24.0794C54.028 26.2775 52.2012 27.5528 49.413 27.5528Z" fill="white"/>
<path fill-rule="evenodd" clip-rule="evenodd" d="M65.2964 24.6799V26.8414C64.3022 27.2821 63.1283 27.5434 61.7412 27.5434C57.6648 27.5434 55.577 24.929 55.577 21.8728C55.577 18.4897 57.8279 16.0876 61.3174 16.0876C63.9431 16.0876 66.145 17.7548 66.145 20.1568C66.145 21.824 65.1014 22.7882 62.932 22.7882H58.1045C58.4795 24.4224 59.8169 25.3255 62.0029 25.3255C62.8017 25.3133 64.1063 25.1179 65.2964 24.6799ZM62.932 20.8363C63.5024 20.8363 63.8615 20.4923 63.8615 20.0187C63.8615 19.1522 62.9155 18.2209 61.3503 18.2209C59.7851 18.2209 58.4308 19.0056 58.0886 20.8363H62.932Z" fill="white"/>
<path d="M70.4178 12.1904V27.3404H68.0365V12.1904H70.4178Z" fill="white"/>
<path d="M76.8264 27.5528C75.3418 27.5528 73.7318 27.2915 72.6063 26.8498V24.7579C73.4503 25.1179 75.1498 25.4439 76.6344 25.4439C78.0858 25.4439 78.9984 25.0032 78.9984 24.1696C78.9984 23.5325 78.5099 23.1725 76.0143 22.6331C73.894 22.1764 72.5446 21.3917 72.5446 19.4304C72.5446 17.2238 74.2729 16.0961 77.2408 16.0961C78.236 16.0961 79.7206 16.2277 80.9104 16.5707V18.6457C79.8788 18.4004 78.415 18.1758 77.3227 18.1758C76.0022 18.1758 74.9912 18.4577 74.9912 19.3853C74.9912 20.0224 75.6759 20.3326 77.8609 20.7902C80.1603 21.2648 81.4489 22.2121 81.4489 24.0794C81.4414 26.2775 79.6182 27.5528 76.8264 27.5528Z" fill="white"/>
<path fill-rule="evenodd" clip-rule="evenodd" d="M45.9909 37.322H45.1943L44.7432 36.1081H42.6691L42.217 37.322H41.4497L43.2534 32.563H44.1794L45.9909 37.322ZM42.9385 35.3804H44.4712L43.701 33.3268L42.9385 35.3804Z" fill="white"/>
<path d="M48.016 37.322V32.563H48.7563V37.3239L48.016 37.322Z" fill="white"/>
<path fill-rule="evenodd" clip-rule="evenodd" d="M53.1962 32.563C54.2505 32.563 54.8199 33.0502 54.8199 33.9406C54.8199 34.7501 54.2241 35.2869 53.2907 35.321L54.8 37.3239H53.8835L52.4249 35.319H52.0499V37.322H51.3095V32.563H53.1962ZM52.0499 33.282V34.6225H53.1754C53.7711 34.6225 54.0496 34.3975 54.0496 33.9406C54.0496 33.4837 53.7552 33.284 53.1754 33.284L52.0499 33.282Z" fill="white"/>
<path d="M60.5119 37.322H57.2343V32.563H57.9746V36.5962H60.5119V37.322Z" fill="white"/>
<path d="M62.5653 37.322V32.563H63.3066V37.3239L62.5653 37.322Z" fill="white"/>
<path d="M69.0324 37.322L66.4753 33.8772V37.322H65.736V32.563H66.4022L68.9619 36.0078V32.563H69.7023V37.3239L69.0324 37.322Z" fill="white"/>
<path d="M75.7375 37.322H72.3942V32.563H75.6946V33.284H73.1346V34.566H75.6062V35.2869H73.1346V36.603H75.7375V37.322Z" fill="white"/>
<path d="M79.9758 34.5942L79.6577 34.5504C79.0623 34.4617 78.7048 34.3088 78.7048 33.9142C78.7048 33.4788 79.124 33.2041 79.7366 33.2041C80.2414 33.2296 80.7412 33.3223 81.2235 33.4798V32.7404C80.7445 32.5763 80.2446 32.4886 79.7402 32.4802C78.748 32.4802 77.9326 33.0102 77.9326 33.9659C77.9326 34.8504 78.6108 35.1836 79.2911 35.282L79.6482 35.3327C80.32 35.4301 80.6801 35.6016 80.6801 35.9757C80.6801 36.414 80.2111 36.679 79.6089 36.679C78.9729 36.679 78.2901 36.3809 77.9729 36.2221V36.9937C78.4789 37.2683 79.0418 37.4104 79.6128 37.4078C80.6044 37.4078 81.4494 36.8768 81.4494 35.9074C81.4523 35.0239 80.7188 34.7063 79.9758 34.5981V34.5942Z" fill="white"/>
<path d="M95.2295 34.8956C95.2295 35.9357 94.3862 36.7788 93.3462 36.7788C92.3062 36.7788 91.4631 35.9357 91.4631 34.8956C91.4631 33.8555 92.3062 33.0124 93.3462 33.0124C94.3862 33.0124 95.2295 33.8555 95.2295 34.8956Z" fill="white"/>
<path d="M113.415 36.7383C114.433 36.7383 115.257 35.9135 115.257 34.896C115.257 33.8784 114.433 33.0536 113.415 33.0536C112.397 33.0536 111.572 33.8784 111.572 34.896C111.572 35.9135 112.397 36.7383 113.415 36.7383Z" fill="white"/>
<path d="M106.488 34.8955C106.488 36.6101 105.098 38 103.383 38C101.668 38 100.279 36.6101 100.279 34.8955C100.279 33.181 101.668 31.7911 103.383 31.7911C105.098 31.7911 106.488 33.181 106.488 34.8955Z" fill="white"/>
<path d="M93.3456 27.4947C94.8013 27.4947 95.9817 26.3146 95.9817 24.8588C95.9817 23.403 94.8013 22.2228 93.3456 22.2228C91.8899 22.2228 90.7095 23.403 90.7095 24.8588C90.7095 26.3146 91.8899 27.4947 93.3456 27.4947Z" fill="white"/>
<path d="M116.502 24.8588C116.502 26.5617 115.122 27.9422 113.419 27.9422C111.716 27.9422 110.335 26.5617 110.335 24.8588C110.335 23.1559 111.716 21.7755 113.419 21.7755C115.122 21.7755 116.502 23.1559 116.502 24.8588Z" fill="white"/>
<path d="M103.383 28.4116C105.345 28.4116 106.936 26.8208 106.936 24.8584C106.936 22.896 105.345 21.3052 103.383 21.3052C101.421 21.3052 99.8298 22.896 99.8298 24.8584C99.8298 26.8208 101.421 28.4116 103.383 28.4116Z" fill="white"/>
<path d="M103.384 16.8758C104.518 16.8758 105.437 15.9566 105.437 14.8228C105.437 13.689 104.518 12.7698 103.384 12.7698C102.25 12.7698 101.331 13.689 101.331 14.8228C101.331 15.9566 102.25 16.8758 103.384 16.8758Z" fill="white"/>
<path d="M95.1886 14.823C95.1886 15.8405 94.3637 16.6654 93.3462 16.6654C92.3286 16.6654 91.5037 15.8405 91.5037 14.823C91.5037 13.8055 92.3286 12.9806 93.3462 12.9806C94.3637 12.9806 95.1886 13.8055 95.1886 14.823Z" fill="white"/>
</svg>
