<svg width="194" height="50" viewBox="0 0 194 50" fill="none" xmlns="http://www.w3.org/2000/svg">
<path fill-rule="evenodd" clip-rule="evenodd" d="M20.9799 23.6703C21.6758 23.6749 22.2822 23.6789 22.3609 23.9637C22.4797 24.4066 21.3833 25.2923 18.1319 26.837C14.9184 28.3655 9.66332 30.4556 2.42068 32.994C2.39368 33.0048 2.30186 33.0264 2.28026 32.9832C2.25521 32.9281 2.3138 32.8823 2.34397 32.8587C2.34633 32.8569 2.34851 32.8552 2.35047 32.8536L11.3538 27.08C11.4024 27.0422 11.4726 26.972 11.37 26.9288C11.37 26.9288 10.9379 26.783 10.1386 26.2807C8.62094 25.3139 6.82244 23.8449 5.07254 21.6197L5.04013 21.5765C5.00233 21.5171 4.96452 21.4577 4.92131 21.3983C4.90567 21.3774 4.88835 21.3554 4.87043 21.3327C4.83267 21.2848 4.79225 21.2335 4.75929 21.1822C4.73063 21.1417 4.70409 21.0979 4.67732 21.0538C4.64355 20.9981 4.60942 20.9418 4.57025 20.8906C4.52783 20.8349 4.45937 20.7259 4.38468 20.6069C4.30725 20.4835 4.22312 20.3495 4.15438 20.2533C4.13652 20.2275 4.11792 20.2017 4.09913 20.1756C4.0668 20.1307 4.0339 20.0851 4.00316 20.0373C3.97592 19.9918 3.95249 19.9464 3.92927 19.9014C3.89725 19.8394 3.86563 19.7781 3.82493 19.7186C3.8101 19.6964 3.79591 19.676 3.78214 19.6563C3.75578 19.6185 3.73094 19.5829 3.70611 19.5404C3.6683 19.481 3.6305 19.4162 3.60349 19.3513C3.58859 19.3156 3.56711 19.2831 3.5454 19.2503C3.52777 19.2236 3.51 19.1968 3.49547 19.1677C3.46307 19.1029 3.41446 19.0111 3.37664 18.9517C3.32263 18.8545 3.28483 18.795 3.22542 18.7032C3.20259 18.6706 3.18764 18.6321 3.17224 18.5924C3.16213 18.5664 3.15184 18.5399 3.139 18.5142C3.11779 18.4627 3.08809 18.418 3.05847 18.3734C3.03528 18.3385 3.01215 18.3037 2.99318 18.2658C2.98238 18.2388 2.97292 18.2117 2.96347 18.1847C2.95402 18.1577 2.94457 18.1307 2.93377 18.1037C2.91486 18.0632 2.89056 18.0254 2.86626 17.9876C2.84195 17.9498 2.81765 17.912 2.79874 17.8715C2.78739 17.8516 2.78051 17.8303 2.77341 17.8082C2.76699 17.7883 2.76039 17.7678 2.75014 17.7473C2.73273 17.7096 2.71065 17.6718 2.68808 17.6333C2.66863 17.6001 2.64882 17.5662 2.63132 17.5312C2.61331 17.4916 2.60011 17.452 2.58691 17.4124C2.58031 17.3926 2.57371 17.3728 2.56651 17.353C2.553 17.3233 2.5341 17.2963 2.5152 17.2693C2.49629 17.2423 2.47739 17.2153 2.46389 17.1856C2.45039 17.1586 2.44228 17.1302 2.43418 17.1019C2.42608 17.0735 2.41798 17.0451 2.40448 17.0181C2.38413 16.9724 2.35899 16.9278 2.33358 16.8827C2.30502 16.8321 2.27611 16.7808 2.25325 16.7265C2.21891 16.655 2.1967 16.5789 2.17457 16.503C2.15493 16.4358 2.13536 16.3687 2.10743 16.3052C2.09368 16.2731 2.0809 16.2391 2.06786 16.2044C2.05016 16.1572 2.03198 16.1088 2.01021 16.0622C1.9983 16.036 1.98429 16.0098 1.97003 15.9831C1.95196 15.9493 1.93349 15.9148 1.9184 15.8786C1.90759 15.8515 1.90084 15.8245 1.89409 15.7975C1.88734 15.7705 1.88059 15.7435 1.86979 15.7165C1.85651 15.6878 1.84051 15.6599 1.82439 15.6318C1.80117 15.5914 1.77771 15.5505 1.76177 15.5059C1.75367 15.4816 1.74962 15.4559 1.74557 15.4303C1.74152 15.4046 1.73747 15.379 1.72936 15.3547C1.71856 15.3259 1.70296 15.2971 1.68736 15.2683C1.67956 15.2538 1.67175 15.2394 1.66455 15.225C1.65375 15.2007 1.64835 15.1751 1.64295 15.1494C1.63755 15.1238 1.63215 15.0981 1.62135 15.0738C1.61324 15.0522 1.60244 15.0293 1.59164 15.0063C1.58084 14.9834 1.57004 14.9604 1.56194 14.9388C1.5552 14.9208 1.55127 14.9029 1.54742 14.8853C1.542 14.8606 1.53676 14.8367 1.52413 14.8146C1.51737 14.8027 1.50954 14.7904 1.50149 14.7776C1.48382 14.7497 1.46505 14.72 1.45392 14.6904C1.4368 14.6595 1.43054 14.6266 1.42412 14.5928C1.42041 14.5733 1.41665 14.5535 1.41071 14.5337C1.40366 14.5149 1.39456 14.4951 1.3852 14.4747C1.37305 14.4482 1.36045 14.4208 1.3513 14.3933C1.34038 14.366 1.33636 14.3332 1.33226 14.2997C1.32825 14.267 1.32417 14.2336 1.31349 14.2043C1.30539 14.1854 1.29459 14.1665 1.28379 14.1476C1.27299 14.1287 1.26219 14.1098 1.25408 14.0909C1.24328 14.0665 1.23653 14.0422 1.22978 14.0179C1.22303 13.9936 1.21628 13.9693 1.20548 13.945C1.19899 13.9299 1.19078 13.9148 1.18258 13.8997C1.17026 13.877 1.15795 13.8543 1.15147 13.8316C1.12716 13.7708 1.11197 13.7101 1.09678 13.6493C1.09172 13.6291 1.08666 13.6088 1.08125 13.5886C1.07326 13.5619 1.07053 13.5366 1.06786 13.512C1.06512 13.4866 1.06246 13.462 1.05425 13.4373C1.01914 13.3428 0.986739 13.2416 0.954334 13.1403C0.921928 13.039 0.889523 12.9378 0.854416 12.8432C0.835827 12.7901 0.825072 12.737 0.814447 12.6845C0.803464 12.6303 0.79262 12.5767 0.773403 12.5246C0.744951 12.4555 0.719559 12.3772 0.694923 12.3013C0.686823 12.2763 0.678804 12.2516 0.670785 12.2275C0.658952 12.195 0.655221 12.1608 0.651603 12.1277C0.648617 12.1004 0.645708 12.0737 0.63838 12.0493C0.628732 12.0204 0.620999 11.9876 0.6129 11.9533C0.607398 11.9299 0.601727 11.9059 0.595173 11.8819C0.589702 11.8627 0.588387 11.845 0.587019 11.8265C0.585686 11.8085 0.584302 11.7898 0.57897 11.7685C0.568168 11.7334 0.557366 11.6969 0.546565 11.6604C0.535763 11.624 0.524961 11.5875 0.514159 11.5524C0.508983 11.5317 0.506287 11.5135 0.503694 11.496C0.500877 11.4769 0.498181 11.4587 0.492555 11.439C0.49054 11.4309 0.488525 11.4228 0.4865 11.4146C0.472239 11.357 0.457463 11.2973 0.438546 11.25C0.423347 11.2074 0.416702 11.1631 0.409945 11.1181C0.404698 11.0832 0.399382 11.0477 0.389938 11.0123C0.384537 10.9934 0.377785 10.9718 0.371034 10.9502C0.364283 10.9286 0.357532 10.907 0.352132 10.8881C0.337016 10.8428 0.330361 10.8008 0.323642 10.7584C0.318358 10.7251 0.313035 10.6915 0.303524 10.6559C0.276519 10.5857 0.254916 10.5154 0.233312 10.4344C0.226212 10.4025 0.223779 10.3729 0.221411 10.3441C0.220177 10.329 0.21896 10.3142 0.217109 10.2994C0.215461 10.2895 0.212304 10.2751 0.208559 10.258C0.200032 10.2191 0.188457 10.1662 0.184704 10.1212C0.179303 10.051 0.244114 10.0294 0.271118 10.0888C0.278114 10.1121 0.282089 10.1364 0.286087 10.1609C0.291348 10.1931 0.296649 10.2255 0.308925 10.2562C0.346731 10.3642 0.389938 10.5046 0.416942 10.6235C0.425044 10.6451 0.427744 10.6694 0.430445 10.6937C0.433145 10.718 0.435846 10.7423 0.443947 10.7639C0.471013 10.8586 0.502317 10.9555 0.533877 11.0531C0.552699 11.1113 0.571612 11.1699 0.589772 11.2284C0.605632 11.2782 0.614839 11.33 0.624171 11.3824C0.637084 11.455 0.650236 11.5289 0.681587 11.601C0.692389 11.637 0.70319 11.6736 0.713992 11.7102C0.735596 11.7835 0.7572 11.8567 0.778804 11.9251C0.788142 11.95 0.790304 11.9767 0.792528 12.0041C0.794163 12.0243 0.795831 12.0449 0.800407 12.0655C0.841997 12.1972 0.892483 12.3289 0.941875 12.4578C0.969452 12.5297 0.996688 12.6007 1.02184 12.6704C1.03805 12.7136 1.04615 12.7609 1.05425 12.8081C1.06235 12.8554 1.07045 12.9027 1.08666 12.9459C1.10826 13.0107 1.13526 13.0863 1.16227 13.1511C1.17307 13.1781 1.17982 13.2038 1.18657 13.2294C1.19332 13.2551 1.20007 13.2807 1.21088 13.3077C1.22404 13.339 1.2382 13.3712 1.25261 13.404C1.28549 13.4789 1.31961 13.5567 1.3459 13.6318C1.35042 13.6476 1.35305 13.6643 1.35576 13.6817C1.35954 13.7057 1.36348 13.7309 1.3729 13.756C1.38101 13.7803 1.39181 13.806 1.40261 13.8316C1.41341 13.8573 1.42421 13.8829 1.43231 13.9072C1.45392 13.9666 1.47012 14.0247 1.48632 14.0828C1.50253 14.1408 1.51873 14.1989 1.54033 14.2583C1.57442 14.3605 1.62195 14.4628 1.66702 14.5598C1.67908 14.5857 1.69096 14.6113 1.70236 14.6363C1.7152 14.6672 1.72559 14.7016 1.73587 14.7357C1.74721 14.7733 1.7584 14.8104 1.77257 14.8416C1.77977 14.8542 1.78758 14.8662 1.79538 14.8782C1.81098 14.9022 1.82658 14.9262 1.83738 14.955C1.84973 14.9766 1.85502 14.9982 1.86031 15.0198C1.86428 15.036 1.86824 15.0522 1.87519 15.0684C1.913 15.171 1.9562 15.2791 2.00481 15.3709C2.02191 15.4051 2.0345 15.4408 2.04734 15.4772C2.05883 15.5098 2.07052 15.5429 2.08582 15.5761C2.09482 15.5941 2.10568 15.613 2.11685 15.6325C2.13253 15.6598 2.14882 15.6881 2.16144 15.7165C2.18034 15.7543 2.19249 15.7948 2.20464 15.8353C2.2168 15.8759 2.22895 15.9164 2.24785 15.9542C2.28046 16.0219 2.31656 16.0885 2.35292 16.1555C2.39484 16.2328 2.43709 16.3106 2.47469 16.3916C2.48972 16.4217 2.50113 16.4492 2.51181 16.4749C2.53566 16.5323 2.55581 16.5808 2.60431 16.6293C2.60769 16.6327 2.61154 16.6372 2.61576 16.6422C2.63177 16.6612 2.65315 16.6864 2.67452 16.6779C2.68533 16.6725 2.69073 16.6617 2.69073 16.6509C2.69073 16.5345 2.66667 16.4824 2.63238 16.408C2.62687 16.396 2.62109 16.3835 2.61511 16.37C2.60292 16.3408 2.59403 16.3104 2.58496 16.2794C2.57395 16.2418 2.56268 16.2033 2.5449 16.1648C2.53203 16.1313 2.51303 16.1003 2.49374 16.0689C2.47255 16.0343 2.45102 15.9991 2.43688 15.9596C2.42878 15.938 2.42338 15.9177 2.41798 15.8975C2.41258 15.8772 2.40718 15.8569 2.39908 15.8353C2.39615 15.8288 2.39321 15.8223 2.39024 15.8157C2.34401 15.713 2.29386 15.6017 2.25325 15.4951C2.24155 15.4623 2.23391 15.4296 2.22637 15.3973C2.2165 15.355 2.20681 15.3134 2.18844 15.2737C2.15604 15.225 2.11283 15.1548 2.10203 15.117C2.08042 15.0684 2.06422 15.0198 2.04802 14.9658C2.03452 14.9361 2.01966 14.9077 2.00481 14.8794C1.98996 14.851 1.97511 14.8227 1.9616 14.793C1.9436 14.754 1.93393 14.715 1.92426 14.676C1.91653 14.6447 1.90879 14.6135 1.89679 14.5823C1.87602 14.526 1.85199 14.4712 1.82828 14.4172C1.80883 14.3729 1.78961 14.3291 1.77257 14.2853C1.75411 14.2422 1.74441 14.1991 1.73449 14.155C1.727 14.1217 1.71938 14.0879 1.70776 14.053C1.69076 14.0049 1.66781 13.9612 1.64515 13.918C1.62463 13.8789 1.60434 13.8403 1.58894 13.7992C1.57206 13.7654 1.56573 13.7317 1.5594 13.6979C1.55561 13.6777 1.55181 13.6574 1.54573 13.6372C1.52152 13.568 1.49951 13.4944 1.47831 13.4234C1.46641 13.3836 1.45476 13.3446 1.44312 13.3077C1.43515 13.2838 1.43241 13.2625 1.42975 13.2419C1.427 13.2206 1.42435 13.2001 1.41611 13.1781C1.39898 13.1291 1.38517 13.078 1.37117 13.0261C1.35428 12.9635 1.33712 12.8999 1.31349 12.8378C1.29729 12.7919 1.27974 12.742 1.26219 12.692C1.24463 12.6421 1.22708 12.5921 1.21088 12.5462C1.19904 12.5107 1.19369 12.4752 1.18861 12.4414C1.18441 12.4136 1.1804 12.387 1.17307 12.3626C1.15147 12.3032 1.12986 12.2437 1.10826 12.1897C1.09176 12.143 1.08226 12.0935 1.07264 12.0432C1.06336 11.9948 1.05396 11.9458 1.03805 11.8981C1.03468 11.8905 1.03132 11.8831 1.028 11.8757C1.00998 11.8359 0.993158 11.7987 0.984038 11.7577C0.978637 11.7361 0.974587 11.7172 0.970536 11.6982C0.966485 11.6793 0.962435 11.6604 0.957034 11.6388C0.950217 11.6082 0.94125 11.5775 0.93149 11.5441C0.925783 11.5246 0.919805 11.5041 0.913826 11.4822C0.90421 11.4486 0.898875 11.4106 0.894009 11.376C0.893409 11.3718 0.892816 11.3675 0.892223 11.3634C0.886822 11.3418 0.87872 11.3175 0.869269 11.2891C0.859817 11.2608 0.849015 11.2284 0.838214 11.1906C0.832813 11.1582 0.827412 11.1312 0.811209 11.0987C0.784062 11.0083 0.756916 10.8988 0.732944 10.8022C0.728301 10.7835 0.723776 10.7652 0.719394 10.7477C0.716693 10.7342 0.715343 10.722 0.713993 10.7099C0.712642 10.6977 0.711292 10.6856 0.708592 10.6721C0.705702 10.6615 0.702813 10.6511 0.699954 10.6407C0.686782 10.5932 0.67426 10.5481 0.665384 10.4992C0.662684 10.4857 0.662684 10.4722 0.662684 10.4587C0.662684 10.4452 0.662684 10.4317 0.659983 10.4182C0.649732 10.3772 0.635832 10.3362 0.622323 10.2964C0.607364 10.2522 0.592885 10.2095 0.584371 10.1698C0.576269 10.1266 0.570868 10.0807 0.565468 10.0348C0.560067 9.98886 0.554666 9.94295 0.546564 9.89974C0.537092 9.83344 0.515161 9.76298 0.495338 9.6993C0.492555 9.69036 0.489814 9.68155 0.487154 9.67291C0.480384 9.64131 0.476442 9.61066 0.472571 9.58055C0.467179 9.53861 0.461924 9.49774 0.449348 9.45687C0.433185 9.40299 0.417023 9.34373 0.40086 9.28447C0.391542 9.2503 0.389249 9.21391 0.38703 9.1772C0.38539 9.15007 0.383726 9.12253 0.379136 9.095C0.368334 9.04099 0.357532 8.99238 0.34133 8.93837C0.333228 8.91136 0.333228 8.88571 0.333229 8.86073C0.333229 8.83575 0.333229 8.81145 0.325128 8.78714C0.302937 8.70393 0.285019 8.61501 0.266986 8.52552C0.249907 8.44077 0.232725 8.35549 0.211708 8.27406C0.199988 8.22483 0.194371 8.17357 0.188677 8.12159C0.181253 8.05382 0.173696 7.98484 0.152298 7.9176C0.146897 7.89869 0.145547 7.88114 0.144197 7.86359C0.142847 7.84603 0.141497 7.82848 0.136096 7.80958C0.133395 7.79878 0.130695 7.78932 0.127994 7.77987C0.125294 7.77042 0.122593 7.76097 0.119893 7.75017V7.72856C0.114492 7.68536 0.109091 7.64215 0.10369 7.59354V7.58814C0.088833 7.50395 0.078517 7.41068 0.068578 7.32081C0.0676779 7.31268 0.0667808 7.30456 0.0658838 7.29649C0.0631833 7.26949 0.0577824 7.24113 0.0523815 7.21278C0.0469806 7.18442 0.0415797 7.15607 0.0388792 7.12906C0.0298777 7.07205 0.0292109 7.01504 0.0285441 6.95803C0.0280107 6.91243 0.0274772 6.86682 0.0226764 6.82121C0.0118746 6.7618 -0.00432814 6.64838 0.00107279 6.55657C0.00214488 6.54906 0.00279135 6.54113 0.00343463 6.53324C0.00603202 6.50138 0.00857749 6.47015 0.0388792 6.47015C0.0766856 6.47015 0.0820865 6.52416 0.0820865 6.55657C0.0849217 6.58208 0.0862685 6.60909 0.0876896 6.63758C0.0889757 6.66337 0.0903226 6.69037 0.0928884 6.71859C0.099897 6.77817 0.111453 6.83092 0.123131 6.88423C0.129451 6.91308 0.135807 6.94209 0.141497 6.97244C0.143444 6.99386 0.146094 7.01458 0.148686 7.03485C0.153283 7.0708 0.157699 7.10533 0.157699 7.13987C0.1631 7.18037 0.167151 7.22223 0.171202 7.26409C0.175252 7.30594 0.179303 7.3478 0.184704 7.38831C0.190668 7.42707 0.20651 7.49712 0.222232 7.56663C0.234985 7.62302 0.247659 7.67906 0.254916 7.71776C0.260317 7.72316 0.260317 7.72856 0.260317 7.73397C0.267639 7.78156 0.269998 7.82915 0.27244 7.87843C0.2736 7.90185 0.27478 7.92564 0.276519 7.95C0.284563 7.98217 0.2956 8.01435 0.307403 8.04875C0.311451 8.06055 0.315589 8.07261 0.319727 8.08502C0.328448 8.11991 0.333649 8.15832 0.338172 8.19172C0.33925 8.19969 0.34029 8.20737 0.34133 8.21465C0.343059 8.2354 0.344234 8.25559 0.345388 8.27541C0.347838 8.3175 0.350189 8.35789 0.357532 8.39828C0.380199 8.49866 0.412572 8.61263 0.444176 8.72389C0.465286 8.79821 0.486054 8.87132 0.503357 8.93837C0.510558 8.96717 0.512959 8.99598 0.515359 9.02478C0.516559 9.03919 0.517759 9.05359 0.51956 9.06799C0.52226 9.07879 0.52226 9.08959 0.52226 9.10175C0.52226 9.1139 0.52226 9.1274 0.524961 9.1436C0.531871 9.18507 0.543203 9.22432 0.554713 9.26419C0.561195 9.28664 0.567732 9.30929 0.573569 9.33263C0.578969 9.35964 0.58167 9.38665 0.58437 9.41366C0.587071 9.44066 0.589771 9.46767 0.595173 9.49468C0.616776 9.59189 0.654583 9.69991 0.686988 9.79173C0.688723 9.80387 0.689901 9.81546 0.691058 9.82685C0.693504 9.85091 0.695859 9.87408 0.703191 9.89974C0.71362 9.93625 0.724608 9.9761 0.735976 10.0173C0.75993 10.1042 0.78557 10.1972 0.811209 10.2778C0.81553 10.2973 0.818122 10.3167 0.820715 10.3361C0.824603 10.3653 0.828492 10.3945 0.838214 10.4236C0.845742 10.4481 0.853926 10.4739 0.862309 10.5003C0.877982 10.5497 0.89435 10.6012 0.908426 10.6505C0.915627 10.6757 0.918027 10.7009 0.920428 10.7261C0.921628 10.7387 0.922828 10.7513 0.924628 10.7639C0.940458 10.8114 0.95072 10.8626 0.960854 10.9131C0.968008 10.9488 0.975098 10.9842 0.984038 11.0177C0.986739 11.0339 0.988089 11.0488 0.989439 11.0636C0.990789 11.0785 0.99214 11.0933 0.99484 11.1095C1.00421 11.1361 1.01358 11.1613 1.02268 11.1858C1.04508 11.246 1.0659 11.302 1.08125 11.3634C1.09448 11.4064 1.10164 11.4514 1.10891 11.4972C1.11352 11.5262 1.11818 11.5555 1.12446 11.5848C1.13487 11.616 1.15195 11.645 1.16857 11.6732C1.17783 11.6889 1.18694 11.7044 1.19467 11.7199C1.20306 11.7366 1.20711 11.7549 1.21131 11.7738C1.21522 11.7914 1.21927 11.8096 1.22708 11.8279L1.30809 12.0547C1.31349 12.0736 1.31619 12.0912 1.31889 12.1087C1.3216 12.1263 1.3243 12.1438 1.3297 12.1627C1.3369 12.1825 1.3447 12.2023 1.3525 12.2221C1.3681 12.2617 1.38371 12.3013 1.39451 12.341C1.4021 12.3739 1.40139 12.4056 1.40072 12.4356C1.39995 12.4696 1.39924 12.5013 1.41071 12.53C1.42151 12.5543 1.43636 12.5772 1.45122 12.6002C1.46607 12.6232 1.48092 12.6461 1.49172 12.6704C1.51023 12.7074 1.51641 12.7497 1.52233 12.7903C1.52677 12.8207 1.53107 12.8502 1.54033 12.8756C1.55826 12.9217 1.57983 12.9642 1.60102 13.0059C1.6245 13.0521 1.64751 13.0974 1.66455 13.1457C1.67622 13.1729 1.68229 13.2001 1.6888 13.2294C1.69134 13.2408 1.69394 13.2524 1.69696 13.2645C1.71316 13.3023 1.72936 13.3509 1.74557 13.3995C1.7568 13.4355 1.76429 13.4695 1.77155 13.5025C1.78173 13.5488 1.79145 13.593 1.81038 13.6372C1.82118 13.6642 1.83603 13.6885 1.85089 13.7128C1.86574 13.7371 1.88059 13.7614 1.89139 13.7884C1.90435 13.8176 1.91148 13.8467 1.91861 13.8759C1.92337 13.8953 1.92812 13.9148 1.9346 13.9342C1.95124 13.9808 1.97403 14.0233 1.99666 14.0655C2.01075 14.0918 2.02478 14.1179 2.03722 14.1449C2.05265 14.1757 2.06102 14.2066 2.0694 14.2374C2.07568 14.2606 2.08197 14.2837 2.09123 14.3069C2.10631 14.3461 2.12645 14.3803 2.14694 14.415C2.16313 14.4425 2.17954 14.4703 2.19384 14.5013C2.21276 14.5557 2.22547 14.6101 2.23786 14.6632C2.25376 14.7312 2.26914 14.7971 2.29646 14.8578C2.35802 15.0036 2.4293 15.1455 2.50097 15.2882C2.54877 15.3834 2.59674 15.4789 2.64212 15.5761C2.65562 15.6058 2.66372 15.6382 2.67182 15.6706C2.67993 15.703 2.68803 15.7354 2.70153 15.7651C2.73933 15.8515 2.78794 15.9272 2.83655 15.9866C2.84195 16.0001 2.846 16.0136 2.85005 16.0271C2.8541 16.0406 2.85815 16.0541 2.86356 16.0676C2.87976 16.1054 2.90136 16.1486 2.92297 16.181C2.95063 16.2321 2.96991 16.2907 2.98906 16.3489C3.01852 16.4385 3.04768 16.5272 3.1066 16.5861C3.139 16.6131 3.19301 16.6563 3.21462 16.6509C3.22542 16.6455 3.22542 16.6401 3.22542 16.6347C3.23622 16.6023 3.20921 16.5159 3.19841 16.4943C3.17951 16.4538 3.15655 16.4119 3.1336 16.37C3.11065 16.3282 3.08769 16.2863 3.06879 16.2458C3.05583 16.2199 3.0487 16.194 3.04157 16.168C3.03682 16.1508 3.03206 16.1335 3.02558 16.1162C3.00624 16.0659 2.98136 16.0184 2.95689 15.9717C2.94719 15.9531 2.93756 15.9348 2.92837 15.9164C2.91012 15.8746 2.8969 15.8317 2.88386 15.7893C2.86988 15.7438 2.85611 15.699 2.83655 15.6571C2.81501 15.614 2.79303 15.571 2.77099 15.5277C2.71566 15.4193 2.65992 15.31 2.60971 15.198C2.60161 15.1818 2.59756 15.1656 2.59351 15.1494C2.58946 15.1332 2.58541 15.117 2.57731 15.1008C2.56651 15.0738 2.55435 15.0441 2.5422 15.0144C2.53005 14.9847 2.5179 14.955 2.5071 14.928C2.49212 14.8951 2.48379 14.8638 2.47566 14.8332C2.46912 14.8087 2.46271 14.7846 2.45309 14.7606C2.43958 14.7309 2.42338 14.7012 2.40718 14.6715C2.39098 14.6417 2.37477 14.612 2.36127 14.5823C2.32887 14.5121 2.29646 14.4419 2.27486 14.3717C2.26676 14.3501 2.2627 14.3298 2.25865 14.3096C2.2546 14.2893 2.25055 14.2691 2.24245 14.2475C2.22919 14.2153 2.21394 14.1838 2.19857 14.152C2.17009 14.0931 2.14117 14.0333 2.12363 13.9666C2.12093 13.9504 2.11688 13.9342 2.11283 13.918C2.10878 13.9018 2.10473 13.8856 2.10203 13.8694C2.096 13.8483 2.0904 13.8268 2.08475 13.8051C2.07013 13.749 2.05519 13.6917 2.03182 13.6372C2.01949 13.6076 2.00267 13.5803 1.98596 13.5531C1.96607 13.5208 1.94634 13.4888 1.9346 13.4535C1.9238 13.4238 1.91975 13.3901 1.9157 13.3563C1.91165 13.3226 1.90759 13.2888 1.89679 13.2591C1.8851 13.231 1.87137 13.202 1.85738 13.1723C1.83906 13.1335 1.82028 13.0937 1.80498 13.0539C1.7917 13.0114 1.78495 12.9702 1.77831 12.9297C1.77144 12.8878 1.7647 12.8466 1.75097 12.8054C1.73814 12.7695 1.72043 12.736 1.70248 12.7021C1.68265 12.6646 1.66252 12.6265 1.64835 12.584C1.63021 12.5368 1.61938 12.4775 1.60932 12.4223C1.6044 12.3954 1.59966 12.3694 1.59434 12.3464C1.58624 12.3248 1.58624 12.3032 1.58624 12.2822C1.58624 12.2613 1.58624 12.241 1.57814 12.2221C1.57166 12.207 1.56518 12.1936 1.5587 12.1802C1.54897 12.1601 1.53925 12.14 1.52953 12.1141C1.51346 12.0756 1.50887 12.0389 1.50437 12.003C1.50131 11.9786 1.49829 11.9546 1.49172 11.9305C1.45392 11.8225 1.41071 11.6928 1.3783 11.574C1.37028 11.5446 1.36888 11.5165 1.36754 11.4898C1.36618 11.4625 1.36488 11.4365 1.3567 11.412C1.3351 11.358 1.31349 11.304 1.29729 11.2446C1.29174 11.2196 1.28904 11.1946 1.28626 11.1689C1.28364 11.1446 1.28094 11.1196 1.27569 11.0933C1.27029 11.0744 1.26219 11.0555 1.25408 11.0366C1.24598 11.0177 1.23788 10.9988 1.23248 10.9799C1.22551 10.9555 1.22304 10.9312 1.22071 10.9082C1.21943 10.8956 1.2182 10.8834 1.21628 10.8719C1.21252 10.8381 1.20093 10.8043 1.19059 10.7741C1.18605 10.7609 1.18176 10.7484 1.17847 10.7369C1.17585 10.716 1.17451 10.695 1.1732 10.6747C1.1718 10.6531 1.17045 10.6322 1.16767 10.6127C1.16198 10.587 1.15028 10.5644 1.13891 10.5424C1.12871 10.5227 1.11877 10.5035 1.11366 10.483C1.10286 10.447 1.09686 10.411 1.09086 10.375C1.08786 10.357 1.08486 10.339 1.08125 10.321C1.07359 10.2955 1.06109 10.2711 1.04833 10.2463C1.03412 10.2186 1.01958 10.1903 1.01104 10.159C0.999097 10.1052 0.988803 10.0515 0.978334 9.99681C0.96987 9.95261 0.961291 9.90781 0.951633 9.86194C0.949787 9.84718 0.948573 9.83178 0.947342 9.81619C0.944971 9.78615 0.942541 9.75536 0.93543 9.72692C0.928924 9.69438 0.918499 9.66185 0.907696 9.62814C0.900563 9.60588 0.893265 9.58311 0.886822 9.55949C0.884642 9.54423 0.884222 9.52985 0.883786 9.51493C0.883141 9.49288 0.882462 9.46966 0.87602 9.44067C0.869665 9.40253 0.8577 9.36627 0.845627 9.32967C0.83718 9.30407 0.82868 9.2783 0.822011 9.25162C0.815489 9.22553 0.814874 9.20535 0.814221 9.18394C0.813793 9.1699 0.813349 9.15532 0.811209 9.1382C0.807761 9.10717 0.793306 9.04091 0.781898 8.98863C0.775438 8.95901 0.769955 8.93388 0.768002 8.92217C0.765301 8.90596 0.763951 8.89246 0.762601 8.87896C0.761251 8.86546 0.7599 8.85195 0.7572 8.83575C0.754876 8.82181 0.74655 8.79086 0.737819 8.7584C0.726262 8.71544 0.713993 8.66983 0.713993 8.65752C0.711292 8.64132 0.711292 8.63052 0.711292 8.61904C0.711292 8.60756 0.711292 8.59541 0.708592 8.57651C0.703191 8.5387 0.692389 8.47389 0.681587 8.42528C0.675202 8.39016 0.672591 8.34561 0.670408 8.30835C0.668898 8.28258 0.667593 8.2603 0.665384 8.24705C0.662595 8.23032 0.648285 8.19486 0.632121 8.15481C0.616983 8.11731 0.60022 8.07577 0.589772 8.04182C0.58167 8.01481 0.58032 7.98916 0.57897 7.9635C0.57762 7.93785 0.576269 7.9122 0.568168 7.88519C0.551966 7.81498 0.535763 7.75017 0.519561 7.68536C0.51686 7.66106 0.516859 7.6354 0.516859 7.60974C0.516859 7.58409 0.516859 7.55844 0.514159 7.53413C0.512454 7.52816 0.510715 7.52216 0.508967 7.51613C0.488562 7.4457 0.466829 7.37069 0.481753 7.29109C0.494711 7.2263 0.473126 7.16497 0.455674 7.11537C0.451303 7.10295 0.447192 7.09127 0.443947 7.08045C0.438546 7.05345 0.433145 7.02645 0.433145 6.99944V6.92383C0.429807 6.9038 0.428532 6.89409 0.42677 6.88066C0.425681 6.87237 0.424406 6.86266 0.422343 6.84822C0.411542 6.81041 0.411542 6.80501 0.411542 6.7834V6.68079C0.411542 6.66428 0.405238 6.63517 0.399853 6.61031C0.39819 6.60262 0.396614 6.59535 0.395339 6.58897C0.389938 6.56737 0.379136 6.52416 0.379136 6.51336C0.376436 6.48906 0.375085 6.47555 0.373735 6.46205C0.372385 6.44855 0.371035 6.43505 0.368334 6.41074C0.368334 6.38374 0.362933 6.29732 0.357532 6.26492C0.349431 6.23251 0.34403 6.20416 0.338629 6.1758C0.333228 6.14745 0.327828 6.11909 0.319727 6.08669C0.303524 6.03268 0.314326 6.00567 0.346731 6.00027C0.389938 5.99487 0.411542 6.07048 0.427744 6.1569C0.433222 6.17059 0.434533 6.18568 0.435904 6.20145C0.437235 6.21677 0.438623 6.23274 0.443947 6.24871C0.454749 6.30272 0.470952 6.39454 0.481753 6.47555C0.481753 6.51123 0.488301 6.54855 0.494186 6.58209C0.498992 6.60948 0.503357 6.63436 0.503357 6.65378C0.503357 6.66571 0.50441 6.68816 0.505586 6.71323C0.507073 6.74496 0.508758 6.78088 0.508758 6.80501C0.509303 6.80773 0.509903 6.81079 0.510558 6.81413C0.516394 6.84384 0.526596 6.89578 0.541163 6.93463C0.545977 6.94907 0.551266 6.96351 0.556608 6.97809C0.569248 7.01259 0.582179 7.04789 0.589772 7.08586C0.6006 7.12105 0.60193 7.15896 0.603284 7.19754C0.604631 7.23593 0.606001 7.27498 0.616776 7.31269C0.621392 7.32962 0.626886 7.34874 0.632506 7.3683C0.646613 7.4174 0.661522 7.46929 0.665384 7.49633C0.672165 7.52006 0.674689 7.55869 0.676965 7.59351C0.678314 7.61416 0.679577 7.63348 0.681587 7.64755C0.6844 7.66724 0.694537 7.71183 0.705133 7.75844C0.714882 7.80133 0.725019 7.84592 0.730195 7.87439C0.741648 7.91638 0.745005 7.94488 0.747897 7.96943C0.749096 7.97961 0.750216 7.98911 0.751799 7.99861C0.755029 8.01476 0.769846 8.06181 0.782393 8.10165C0.790827 8.12843 0.798236 8.15195 0.800407 8.16064C0.800407 8.19304 0.800407 8.27946 0.811209 8.32807C0.817668 8.35713 0.847303 8.46345 0.872396 8.55347C0.889266 8.614 0.904083 8.66716 0.908426 8.68453C0.910487 8.70102 0.911762 8.72145 0.913151 8.74371C0.915401 8.77977 0.91795 8.82062 0.924628 8.85735C0.930973 8.89225 0.941046 8.91783 0.950467 8.94176C0.957084 8.95856 0.963379 8.97455 0.967836 8.99238C0.980047 9.03817 0.987082 9.08397 0.993817 9.12781C0.998997 9.16153 1.004 9.19409 1.01104 9.22462C1.02292 9.26321 1.02663 9.30181 1.03026 9.33951C1.03324 9.37039 1.03615 9.40067 1.04345 9.42986C1.08666 9.55409 1.12986 9.71071 1.15687 9.82413C1.16227 9.85114 1.16632 9.87814 1.17037 9.90515C1.17442 9.93215 1.17847 9.95915 1.18387 9.98616C1.20007 10.0402 1.21763 10.0928 1.23518 10.1455C1.25273 10.1981 1.27029 10.2508 1.28649 10.3048C1.30787 10.3797 1.32 10.4585 1.33203 10.5367C1.3443 10.6165 1.35648 10.6956 1.3783 10.7693C1.42151 10.9043 1.46472 11.0501 1.50253 11.1852C1.50704 11.2055 1.50966 11.2277 1.51238 11.2505C1.51615 11.2825 1.5201 11.3157 1.52953 11.3472C1.54109 11.3847 1.55728 11.4208 1.57314 11.456C1.58694 11.4867 1.6005 11.5169 1.61054 11.547C1.61825 11.5727 1.62351 11.5984 1.62866 11.6235C1.63433 11.6512 1.63985 11.6782 1.64835 11.7036C1.65915 11.7334 1.6713 11.7644 1.68346 11.7955C1.69561 11.8265 1.70776 11.8576 1.71856 11.8873C1.72666 11.9143 1.73206 11.9413 1.73747 11.9683C1.74287 11.9953 1.74827 12.0223 1.75637 12.0493C1.77797 12.1141 1.80498 12.1951 1.82658 12.2653C1.83468 12.2842 1.83873 12.3045 1.84278 12.3248C1.84683 12.345 1.85088 12.3653 1.85899 12.3842C1.87519 12.4328 1.89679 12.4814 1.9184 12.5246C1.9292 12.5516 1.94 12.5894 1.9454 12.6164C1.967 12.6542 1.98321 12.6974 1.99941 12.7406C2.00481 12.7568 2.00886 12.7717 2.01291 12.7865C2.01696 12.8014 2.02101 12.8162 2.02641 12.8324C2.03722 12.8594 2.05072 12.8864 2.06422 12.9135C2.07772 12.9405 2.09123 12.9675 2.10203 12.9945C2.12903 13.0485 2.14523 13.1025 2.16144 13.1619C2.16602 13.1802 2.16866 13.1986 2.17142 13.2177C2.17516 13.2437 2.17912 13.2712 2.18844 13.3023C2.19756 13.3206 2.20765 13.3378 2.21788 13.3554C2.23189 13.3794 2.24617 13.4039 2.25865 13.4319C2.26676 13.4508 2.27216 13.4697 2.27756 13.4886C2.28296 13.5076 2.28836 13.5265 2.29646 13.5454C2.30467 13.5597 2.31443 13.5733 2.32428 13.587C2.34035 13.6093 2.35662 13.632 2.36667 13.6588C2.37873 13.6859 2.38238 13.7181 2.38606 13.7506C2.38898 13.7764 2.39192 13.8023 2.39908 13.8262C2.40718 13.8451 2.41663 13.864 2.42608 13.8829C2.43553 13.9018 2.44499 13.9207 2.45309 13.9396C2.46173 13.9634 2.47037 13.9889 2.47901 14.0144C2.49197 14.0526 2.50494 14.0909 2.5179 14.1233C2.52403 14.1355 2.52842 14.1495 2.53305 14.1643C2.53657 14.1755 2.54023 14.1872 2.5449 14.1989C2.57191 14.2637 2.60971 14.3285 2.65292 14.3879C2.67452 14.4203 2.71773 14.4743 2.75014 14.4689C2.76634 14.4635 2.76634 14.4041 2.76094 14.3771C2.75248 14.3433 2.74733 14.3086 2.74225 14.2744C2.73437 14.2213 2.72665 14.1693 2.70693 14.1233C2.69973 14.1053 2.69313 14.0867 2.68653 14.068C2.67332 14.0308 2.66012 13.9936 2.64212 13.9612C2.63672 13.9477 2.62727 13.9329 2.61781 13.918C2.60836 13.9032 2.59891 13.8883 2.59351 13.8748C2.58541 13.8532 2.57731 13.8303 2.56921 13.8073C2.56111 13.7844 2.553 13.7614 2.5449 13.7398C2.53779 13.7232 2.52859 13.7066 2.51913 13.6895C2.50706 13.6677 2.49458 13.6452 2.48549 13.621C2.47739 13.594 2.47334 13.567 2.46929 13.54C2.46524 13.513 2.46119 13.4859 2.45309 13.4589C2.44559 13.4365 2.43464 13.414 2.42342 13.391C2.41038 13.3642 2.39699 13.3368 2.38828 13.3077C2.38093 13.2832 2.37913 13.2554 2.37735 13.2278C2.37521 13.1945 2.37308 13.1615 2.36127 13.1349C2.35107 13.1119 2.33725 13.0878 2.32437 13.0652C2.30998 13.0401 2.29676 13.017 2.29106 12.9999C2.28026 12.9747 2.27426 12.9495 2.26826 12.9243C2.26525 12.9117 2.26225 12.8991 2.25865 12.8864C2.23705 12.8378 2.21545 12.7892 2.19924 12.7406C2.18574 12.7055 2.17899 12.6691 2.17224 12.6326C2.16549 12.5961 2.15874 12.5597 2.14523 12.5246C2.11283 12.4382 2.07502 12.341 2.04262 12.2599C2.03027 12.2322 2.02498 12.2044 2.01969 12.1766C2.01572 12.1558 2.01175 12.135 2.00481 12.1141C1.99401 12.0844 1.98051 12.0561 1.967 12.0277C1.9535 11.9993 1.94 11.971 1.9292 11.9413C1.91868 11.9097 1.91271 11.8759 1.90687 11.8428C1.90371 11.8248 1.90058 11.8071 1.89679 11.7901C1.89355 11.7739 1.88448 11.7577 1.8754 11.7415C1.86936 11.7307 1.86331 11.7199 1.85899 11.709C1.85088 11.6847 1.84818 11.6618 1.84548 11.6388C1.84278 11.6159 1.84008 11.5929 1.83198 11.5686C1.83082 11.5657 1.8296 11.5627 1.82834 11.5596C1.81783 11.5336 1.8044 11.5003 1.79958 11.4714C1.79418 11.4282 1.78877 11.3904 1.77797 11.3472C1.76803 11.3174 1.75735 11.2875 1.74648 11.2572C1.72784 11.205 1.70862 11.1514 1.69156 11.0933C1.68423 11.0677 1.68187 11.0445 1.67942 11.0204C1.67827 11.0091 1.67709 10.9975 1.67536 10.9853C1.65915 10.9043 1.63755 10.8179 1.61595 10.7369C1.61414 10.7243 1.61294 10.7117 1.61174 10.6991C1.60934 10.6739 1.60694 10.6487 1.59974 10.6235C1.55814 10.4891 1.52223 10.3471 1.48638 10.2054C1.46173 10.1079 1.43712 10.0106 1.41071 9.91595C1.40531 9.89704 1.40261 9.87679 1.39991 9.85654C1.39721 9.83628 1.39451 9.81603 1.38911 9.79713C1.3446 9.65175 1.31803 9.48682 1.29148 9.32203C1.26969 9.18682 1.24792 9.05171 1.21628 8.92757C1.20982 8.89852 1.20915 8.85597 1.20851 8.8149C1.20807 8.78725 1.20765 8.76027 1.20548 8.73853C1.20175 8.70499 1.18774 8.67402 1.17408 8.64385C1.16795 8.6303 1.16189 8.6169 1.15687 8.60351C1.15207 8.58192 1.15153 8.5614 1.151 8.541C1.15033 8.51546 1.14967 8.49011 1.14066 8.46309C1.13256 8.43338 1.12446 8.40503 1.11636 8.37668C1.10826 8.34832 1.10016 8.31997 1.09206 8.29026C1.0894 8.25308 1.08805 8.2146 1.08672 8.17674C1.08535 8.13759 1.084 8.09911 1.08125 8.06342C1.07548 8.03744 1.06353 8.00837 1.05201 7.98033C1.04198 7.95593 1.03227 7.93231 1.02725 7.9122C1.02081 7.88644 1.02012 7.85876 1.01948 7.8326C1.01904 7.81487 1.01863 7.79784 1.01644 7.78257C1.01053 7.75103 1.00534 7.7123 0.99981 7.67109C0.990197 7.59941 0.979583 7.52025 0.962435 7.45852C0.952973 7.43644 0.950878 7.41252 0.948622 7.38676C0.947015 7.36841 0.945325 7.34912 0.940831 7.3289C0.930029 7.27489 0.919227 7.21548 0.919227 7.14527C0.919025 7.14365 0.918823 7.14205 0.918623 7.14046C0.913475 7.09967 0.909637 7.06925 0.940831 7.05885C0.967835 7.05345 0.99484 7.09666 1.01104 7.14527C1.01265 7.15494 1.01379 7.16365 1.01487 7.17197C1.01741 7.19153 1.01967 7.20895 1.02725 7.23168C1.04093 7.27272 1.05244 7.3116 1.06453 7.35242C1.07154 7.37607 1.07873 7.40036 1.08666 7.42611C1.09168 7.45627 1.08969 7.48876 1.08776 7.52033C1.08554 7.55661 1.08339 7.59167 1.09206 7.62055C1.14079 7.78108 1.17431 7.95684 1.20796 8.13327C1.2377 8.28923 1.26755 8.44573 1.30809 8.59271C1.31439 8.61788 1.31885 8.64489 1.32361 8.67372C1.32702 8.69439 1.33059 8.71599 1.3351 8.73853C1.35462 8.8142 1.36863 8.89317 1.38261 8.97196C1.39957 9.06752 1.41647 9.16282 1.44312 9.25162C1.45137 9.27639 1.45542 9.30678 1.45955 9.33777C1.46353 9.36759 1.46758 9.39797 1.47552 9.42446C1.49252 9.48275 1.50625 9.54322 1.52013 9.60441C1.53713 9.67928 1.55436 9.75523 1.57814 9.82953C1.58427 9.84587 1.59194 9.86298 1.59969 9.88028C1.61245 9.90873 1.62543 9.93769 1.63215 9.96456C1.63268 9.96883 1.63322 9.97317 1.63376 9.97754C1.63867 10.0173 1.64402 10.0607 1.65375 10.0996C1.66455 10.132 1.67671 10.1644 1.68886 10.1968C1.70101 10.2292 1.71316 10.2616 1.72396 10.294C1.72936 10.3129 1.73206 10.3359 1.73477 10.3588C1.73747 10.3818 1.74017 10.4047 1.74557 10.4236C1.7561 10.4637 1.76499 10.5029 1.77384 10.5419C1.78768 10.6029 1.80141 10.6635 1.82118 10.7261C1.85127 10.821 1.88136 10.9189 1.91145 11.0167C1.95157 11.1472 1.99169 11.2777 2.03182 11.4012C2.03764 11.4187 2.0419 11.4629 2.04628 11.5083C2.05001 11.5472 2.05384 11.587 2.05882 11.6118C2.06962 11.6469 2.08312 11.682 2.09663 11.7172C2.11013 11.7523 2.12363 11.7874 2.13443 11.8225C2.14523 11.8873 2.16144 11.9683 2.17764 12.0169C2.18479 12.0419 2.19905 12.0717 2.21257 12.0999C2.21947 12.1143 2.22617 12.1283 2.23165 12.1411C2.24245 12.1681 2.2492 12.1951 2.25595 12.2221C2.2627 12.2491 2.26946 12.2761 2.28026 12.3032C2.29376 12.3356 2.30861 12.3693 2.32346 12.4031C2.33832 12.4368 2.35317 12.4706 2.36667 12.503C2.38505 12.545 2.39705 12.587 2.40887 12.6284C2.42136 12.6721 2.43366 12.7152 2.45309 12.7568C2.48009 12.8162 2.5071 12.8756 2.5287 12.9351C2.53748 12.9585 2.54625 13.0025 2.55503 13.0465C2.56246 13.0837 2.56988 13.1209 2.57731 13.1457C2.58872 13.1754 2.60207 13.207 2.61572 13.2393C2.63435 13.2834 2.65354 13.3289 2.66912 13.3725C2.67507 13.3904 2.67955 13.4075 2.68392 13.4241C2.69147 13.4528 2.69865 13.4802 2.71233 13.5076C2.72439 13.5317 2.73794 13.5565 2.7516 13.5816C2.77465 13.6239 2.79799 13.6667 2.81495 13.7074C2.83193 13.747 2.84447 13.7881 2.85722 13.83C2.86879 13.8679 2.88054 13.9065 2.89596 13.945C2.95537 14.0855 3.03098 14.2259 3.1066 14.3555C3.12364 14.3867 3.1362 14.421 3.14899 14.4558C3.16052 14.4873 3.17225 14.5192 3.18761 14.5499C3.19542 14.5682 3.20826 14.5864 3.22067 14.604C3.23399 14.6229 3.24683 14.6412 3.25242 14.6579C3.27243 14.698 3.2879 14.7395 3.30363 14.7817C3.31763 14.8193 3.33184 14.8574 3.34964 14.8956C3.35672 14.9098 3.36691 14.925 3.37748 14.9407C3.39109 14.9611 3.40534 14.9823 3.41446 15.0036C3.43041 15.0382 3.43851 15.0766 3.44649 15.1145C3.45472 15.1536 3.46281 15.1921 3.47927 15.225C3.4945 15.2586 3.51317 15.2903 3.53139 15.3214C3.54548 15.3454 3.55931 15.3689 3.57109 15.3925C3.58009 15.4123 3.58849 15.4327 3.59689 15.4531C3.61369 15.4939 3.6305 15.5347 3.6521 15.5707C3.6629 15.5869 3.67506 15.6031 3.68721 15.6193C3.69936 15.6355 3.71151 15.6517 3.72231 15.6679C3.73983 15.6929 3.75735 15.7319 3.77703 15.7756C3.7998 15.8263 3.82546 15.8833 3.85733 15.9326V15.938C3.85897 15.9401 3.86082 15.9426 3.86285 15.9453C3.88089 15.9692 3.91243 16.0109 3.92214 16.0352C3.92755 16.0487 3.93025 16.0541 3.93362 16.0608C3.937 16.0676 3.94105 16.0757 3.94915 16.0946C3.95123 16.0988 3.95351 16.1031 3.95587 16.1076C3.96579 16.1266 3.97719 16.1484 3.98155 16.1702C3.99236 16.2026 4.00316 16.2296 4.01396 16.2458C4.03276 16.2787 4.0536 16.3096 4.07427 16.3402C4.1011 16.3799 4.12763 16.4191 4.14898 16.4619C4.15947 16.4868 4.16804 16.5167 4.17695 16.5479C4.20475 16.6451 4.23575 16.7535 4.33801 16.7535C4.37042 16.7481 4.35962 16.6185 4.33261 16.5645C4.31475 16.5228 4.28867 16.4877 4.26344 16.4537C4.24291 16.426 4.22293 16.3991 4.20839 16.37C4.19378 16.3384 4.18466 16.3034 4.17559 16.2687C4.16453 16.2263 4.15354 16.1842 4.13278 16.1486C4.12738 16.1378 4.12198 16.127 4.11118 16.1216C4.10308 16.1108 4.09227 16.1 4.08282 16.0905C4.07337 16.0811 4.06527 16.073 4.06257 16.0676C4.05867 16.0598 4.05266 16.0492 4.04607 16.0375C4.03439 16.0169 4.02086 15.993 4.01396 15.9758C4.01126 15.9677 4.00856 15.9569 4.00586 15.9461C4.00316 15.9353 4.00046 15.9245 3.99776 15.9164C3.99776 15.91 3.9959 15.9037 3.99437 15.8985C3.99328 15.8948 3.99236 15.8916 3.99236 15.8894L3.98696 15.884C3.97473 15.8564 3.95904 15.8307 3.94381 15.8056C3.93213 15.7864 3.92072 15.7677 3.91134 15.7489C3.90157 15.7261 3.89376 15.7033 3.88554 15.6793C3.88014 15.6635 3.87456 15.6473 3.86814 15.6301C3.84485 15.5702 3.81541 15.5144 3.78613 15.459C3.76789 15.4244 3.7497 15.3899 3.73311 15.3547C3.72104 15.3281 3.71436 15.3005 3.70778 15.2732C3.69963 15.2395 3.69162 15.2063 3.6737 15.1764C3.65884 15.1492 3.63943 15.1242 3.62016 15.0994C3.59743 15.0702 3.5749 15.0412 3.56028 15.009C3.54408 14.9793 3.53598 14.9455 3.52788 14.9118C3.51978 14.878 3.51168 14.8443 3.49547 14.8146C3.48737 14.7984 3.47522 14.7808 3.46307 14.7633C3.45092 14.7457 3.43876 14.7282 3.43066 14.712C3.40368 14.6634 3.38748 14.6148 3.37129 14.5663C3.35096 14.5111 3.32904 14.4636 3.30727 14.4165C3.28855 14.376 3.26991 14.3356 3.25242 14.2907C3.2423 14.2603 3.23445 14.2299 3.2266 14.1995C3.21352 14.1489 3.20044 14.0983 3.17681 14.0476C3.16439 14.0178 3.14968 13.9903 3.13479 13.9624C3.11731 13.9297 3.09958 13.8965 3.08499 13.8586C3.07689 13.8262 3.06744 13.7924 3.05799 13.7587C3.04854 13.7249 3.03909 13.6912 3.03098 13.6588C2.92297 13.3563 2.80955 13.0539 2.69613 12.7514C2.68263 12.7136 2.67317 12.6758 2.66372 12.638C2.65427 12.6002 2.64482 12.5624 2.63132 12.5246C2.60701 12.4544 2.58136 12.3815 2.55571 12.3086C2.53005 12.2357 2.5044 12.1627 2.48009 12.0925C2.46621 12.0439 2.45679 11.9976 2.44753 11.952C2.44238 11.9267 2.43728 11.9016 2.43148 11.8765C2.42608 11.8603 2.42473 11.8454 2.42338 11.8306C2.42203 11.8157 2.42068 11.8009 2.41528 11.7847C2.40358 11.7566 2.38986 11.7275 2.37587 11.6978C2.35755 11.659 2.33877 11.6192 2.32346 11.5794C2.30078 11.5179 2.28393 11.4563 2.26708 11.3947C2.25585 11.3537 2.24461 11.3126 2.23165 11.2716C2.22355 11.2527 2.22085 11.2351 2.21815 11.2176C2.21545 11.2 2.21275 11.1825 2.20464 11.1636C2.19833 11.1446 2.18955 11.1265 2.18055 11.1079C2.16646 11.0788 2.15183 11.0486 2.14523 11.0123C2.13983 10.9799 2.13578 10.9489 2.13173 10.9178C2.12768 10.8868 2.12363 10.8557 2.11823 10.8233C2.10362 10.769 2.09304 10.7115 2.08244 10.6539C2.06562 10.5625 2.04875 10.4707 2.01561 10.3912C1.97495 10.2914 1.94694 10.1714 1.91946 10.0536C1.90679 9.99931 1.89423 9.94548 1.88059 9.89434C1.87162 9.86445 1.87093 9.82794 1.87026 9.79305C1.86973 9.76491 1.86921 9.73782 1.86439 9.71611C1.83917 9.62532 1.80453 9.51569 1.77366 9.41801C1.77148 9.4111 1.76931 9.40424 1.76717 9.39746C1.76033 9.37692 1.75782 9.35422 1.75553 9.33348C1.7542 9.32148 1.75295 9.31013 1.75097 9.30023C1.74827 9.28403 1.74692 9.26647 1.74557 9.24892C1.74422 9.23137 1.74287 9.21382 1.74017 9.19761C1.7358 9.17144 1.72792 9.14526 1.71971 9.11802C1.70759 9.07781 1.69478 9.03527 1.69156 8.98698C1.68616 8.95997 1.68076 8.92217 1.71316 8.91677C1.74017 8.91136 1.76177 8.94377 1.77257 8.97077C1.81516 9.06905 1.84185 9.18323 1.86831 9.29643C1.88548 9.36986 1.90255 9.44288 1.9238 9.51088C1.92893 9.5314 1.93162 9.55437 1.93419 9.5763C1.93704 9.60053 1.93973 9.62349 1.9454 9.6405C1.9643 9.69991 1.98186 9.76472 1.99941 9.82953C2.01696 9.89434 2.03452 9.95915 2.05342 10.0186C2.05765 10.0334 2.06023 10.0474 2.06277 10.0612C2.06671 10.0826 2.07057 10.1036 2.08042 10.1266C2.09123 10.1536 2.10203 10.186 2.11283 10.2184C2.12194 10.2457 2.12593 10.2799 2.12959 10.3113C2.13245 10.3357 2.1351 10.3585 2.13983 10.375C2.16182 10.4432 2.1829 10.5104 2.20383 10.5771C2.23431 10.6744 2.26443 10.7704 2.29646 10.8665C2.29977 10.8847 2.30258 10.9035 2.30534 10.9219C2.31159 10.9636 2.31763 11.004 2.32887 11.0339C2.33967 11.0609 2.35047 11.0893 2.36127 11.1176C2.37207 11.146 2.38287 11.1744 2.39368 11.2014C2.40857 11.2423 2.41576 11.2833 2.42234 11.3207C2.42529 11.3376 2.42813 11.3537 2.43148 11.3688C2.46819 11.4676 2.50047 11.5694 2.53295 11.6718C2.5626 11.7653 2.59241 11.8593 2.62592 11.9521C2.64752 12.0142 2.66372 12.0777 2.67992 12.1411C2.69613 12.2046 2.71233 12.268 2.73393 12.3302C2.74968 12.3743 2.77095 12.4165 2.79236 12.4591C2.80767 12.4895 2.82305 12.5201 2.83655 12.5516C2.87116 12.6295 2.89498 12.7119 2.91872 12.7941C2.93944 12.8658 2.96009 12.9373 2.98778 13.0053C3.02018 13.0647 3.04719 13.1187 3.07419 13.1727C3.09262 13.2065 3.10231 13.242 3.11221 13.2783C3.11972 13.3058 3.12735 13.3338 3.139 13.3617C3.20921 13.5292 3.28483 13.6966 3.36044 13.8586C3.37665 13.8937 3.38746 13.9302 3.39826 13.9667C3.40906 14.0031 3.41986 14.0396 3.43606 14.0746C3.44686 14.099 3.46172 14.1233 3.47657 14.1476C3.49142 14.1719 3.50627 14.1962 3.51708 14.2205C3.53598 14.261 3.54948 14.3015 3.56298 14.342C3.57649 14.3825 3.58999 14.423 3.60889 14.4635C3.62464 14.495 3.64423 14.5227 3.6633 14.5496C3.68345 14.5781 3.70303 14.6058 3.71691 14.6363C3.74604 14.6975 3.76888 14.7602 3.79137 14.822C3.81058 14.8748 3.82954 14.9268 3.85193 14.9766C3.87507 15.0255 3.90433 15.0719 3.93388 15.1187C3.96641 15.1703 3.99929 15.2225 4.02476 15.2791C4.03826 15.3061 4.04772 15.3317 4.05717 15.3574C4.06662 15.383 4.07607 15.4087 4.08957 15.4357C4.09587 15.4467 4.10263 15.4582 4.10958 15.47C4.12646 15.4987 4.14448 15.5293 4.15978 15.5599C4.18205 15.6017 4.19715 15.6463 4.21246 15.6915C4.22686 15.7341 4.24146 15.7773 4.2624 15.8191C4.28206 15.8613 4.31048 15.8946 4.33854 15.9276C4.36446 15.958 4.39008 15.9881 4.40823 16.0244C4.42443 16.0535 4.4348 16.0885 4.44517 16.1235C4.45208 16.1469 4.459 16.1702 4.46764 16.1918C4.49011 16.2367 4.52037 16.2765 4.54941 16.3146C4.56226 16.3315 4.57487 16.3481 4.58646 16.3646C4.62426 16.4294 4.68367 16.5483 4.71608 16.6185C4.75966 16.7144 4.79973 16.7716 4.85047 16.844C4.86261 16.8613 4.87536 16.8795 4.88891 16.8993C4.91591 16.9398 4.93823 16.985 4.96055 17.0302C4.99179 17.0935 5.02303 17.1568 5.06714 17.2072C5.09414 17.245 5.19136 17.3314 5.22376 17.3206C5.23997 17.3152 5.20216 17.164 5.17516 17.1154C5.15594 17.0865 5.13482 17.0615 5.11405 17.0369C5.0998 17.02 5.08572 17.0033 5.07254 16.9857C5.05063 16.9507 5.03228 16.9085 5.0146 16.8679C5.01049 16.8585 5.00641 16.8491 5.00233 16.8399C4.97532 16.7697 4.93752 16.6995 4.89971 16.6401C4.8565 16.5753 4.8241 16.5267 4.78629 16.4619C4.76875 16.4338 4.75805 16.4057 4.74678 16.3762C4.7407 16.3602 4.73445 16.3439 4.72688 16.3268C4.69448 16.2674 4.66207 16.2026 4.62966 16.1378C4.61644 16.1113 4.59802 16.0875 4.58014 16.0643C4.56151 16.0402 4.54347 16.0168 4.53245 15.992C4.50545 15.9326 4.47843 15.8731 4.45143 15.8083C4.42983 15.7678 4.40418 15.7287 4.37852 15.6895C4.35287 15.6504 4.32721 15.6112 4.30561 15.5707C4.28113 15.5217 4.26705 15.4693 4.25257 15.4154C4.24149 15.3741 4.23018 15.332 4.21379 15.2899C4.18977 15.2247 4.15921 15.1616 4.12904 15.0994C4.11172 15.0637 4.09453 15.0283 4.07877 14.9928C4.06766 14.9639 4.05929 14.935 4.05103 14.9065C4.03922 14.8657 4.02763 14.8257 4.00856 14.7876C3.99046 14.7544 3.969 14.7246 3.94793 14.6953C3.93126 14.6722 3.91485 14.6494 3.90054 14.6255C3.87561 14.5881 3.85967 14.5436 3.84339 14.498C3.83145 14.4646 3.81932 14.4307 3.80332 14.3987C3.79436 14.3785 3.7826 14.3574 3.77075 14.3362C3.75406 14.3062 3.73719 14.2759 3.72771 14.2475C3.72231 14.2259 3.71691 14.2056 3.71151 14.1854C3.70611 14.1651 3.70071 14.1449 3.69531 14.1233C3.68721 14.099 3.6764 14.0733 3.6656 14.0476C3.6548 14.022 3.644 13.9963 3.6359 13.972C3.6319 13.9561 3.63012 13.9401 3.62837 13.9244C3.6254 13.8976 3.62251 13.8716 3.60889 13.8478C3.59539 13.8181 3.57379 13.7938 3.55218 13.7695C3.53058 13.7452 3.50898 13.7209 3.49547 13.6912C3.46656 13.6276 3.45158 13.5516 3.43644 13.4748C3.4233 13.4082 3.41004 13.341 3.38745 13.2807C3.36501 13.2209 3.3391 13.1599 3.31294 13.0982C3.28244 13.0264 3.25158 12.9537 3.22542 12.881C3.20704 12.829 3.19041 12.7752 3.17354 12.7207C3.16065 12.679 3.14763 12.6369 3.1336 12.5948C3.12354 12.568 3.11764 12.5411 3.11203 12.5156C3.1086 12.5 3.10529 12.4849 3.1012 12.4706C3.08335 12.426 3.06458 12.3813 3.04564 12.3363C3.01875 12.2724 2.99153 12.2077 2.96617 12.1411C2.95089 12.1014 2.94425 12.0616 2.93746 12.0209C2.93225 11.9897 2.92694 11.9579 2.91757 11.9251C2.9043 11.8765 2.88381 11.8315 2.86496 11.7901C2.86078 11.7809 2.85668 11.7719 2.85275 11.7631C2.83979 11.7339 2.83266 11.7047 2.82553 11.6756C2.82078 11.6561 2.81603 11.6367 2.80955 11.6172C2.79875 11.5875 2.78794 11.5565 2.77714 11.5254C2.76634 11.4944 2.75554 11.4633 2.74474 11.4336C2.73608 11.4076 2.7305 11.3755 2.72472 11.3421C2.71968 11.313 2.71447 11.283 2.70693 11.2554C2.68533 11.1906 2.66372 11.1187 2.64212 11.0468C2.62592 10.9929 2.60971 10.939 2.59351 10.8881C2.58532 10.8663 2.58403 10.8417 2.58267 10.8157C2.58133 10.7903 2.57992 10.7636 2.57191 10.7369L2.5233 10.5749C2.5161 10.5497 2.5137 10.5244 2.5113 10.4992C2.5101 10.4866 2.5089 10.474 2.5071 10.4614C2.50133 10.4403 2.49625 10.4185 2.49113 10.3965C2.48184 10.3566 2.47241 10.3161 2.45849 10.2778C2.45577 10.2703 2.45296 10.2628 2.45013 10.2551C2.43043 10.202 2.4092 10.1448 2.40448 10.0834C2.40448 10.0564 2.40448 10.024 2.43148 10.0186C2.45657 10.0085 2.46768 10.0311 2.47779 10.0517C2.47856 10.0533 2.47933 10.0548 2.48009 10.0564C2.48549 10.0726 2.49089 10.0888 2.50169 10.105C2.51627 10.1463 2.52647 10.1897 2.53673 10.2334C2.54928 10.2869 2.5619 10.3407 2.58271 10.3912C2.59081 10.4182 2.60026 10.4452 2.60971 10.4722C2.61917 10.4992 2.62862 10.5263 2.63672 10.5533C2.65172 10.5923 2.65839 10.6313 2.66506 10.6703C2.67039 10.7015 2.67572 10.7327 2.68533 10.7639C2.69613 10.7963 2.70828 10.8314 2.72043 10.8665C2.73258 10.9016 2.74474 10.9367 2.75554 10.9691C2.7668 10.9973 2.77365 11.0254 2.7807 11.0543C2.78717 11.0809 2.7938 11.1081 2.80415 11.1366C2.83163 11.219 2.86687 11.3092 2.90001 11.394C2.90595 11.4092 2.91182 11.4242 2.91757 11.439C2.93222 11.4771 2.93733 11.52 2.94239 11.5624C2.94666 11.5982 2.95089 11.6337 2.96077 11.6658C2.96725 11.6885 2.97957 11.7112 2.99188 11.7339C3.00009 11.749 3.0083 11.7641 3.01478 11.7793C3.03098 11.8144 3.04314 11.8508 3.05529 11.8873C3.06744 11.9237 3.07959 11.9602 3.0958 11.9953C3.10484 12.0134 3.1101 12.0353 3.11475 12.0546C3.11565 12.0584 3.11652 12.062 3.1174 12.0655C3.1309 12.1006 3.14575 12.1371 3.16061 12.1735C3.17546 12.21 3.19031 12.2464 3.20381 12.2815C3.21191 12.3059 3.21732 12.3288 3.22272 12.3518C3.22812 12.3747 3.23352 12.3977 3.24162 12.422C3.25875 12.4709 3.27809 12.5176 3.29715 12.5636C3.32015 12.6192 3.34272 12.6737 3.36044 12.7298C3.36854 12.7514 3.37259 12.773 3.37664 12.7946C3.38069 12.8162 3.38475 12.8378 3.39286 12.8594C3.45578 13.0223 3.53139 13.1877 3.60578 13.3504C3.63993 13.4251 3.67382 13.4993 3.70611 13.5724C3.72501 13.6156 3.73581 13.6628 3.74662 13.7101C3.75742 13.7573 3.76822 13.8046 3.78712 13.8478C3.80062 13.8748 3.81818 13.9005 3.83573 13.9261C3.85328 13.9518 3.87084 13.9774 3.88434 14.0044C3.9171 14.07 3.94164 14.1371 3.96613 14.2041C3.98605 14.2586 4.00593 14.313 4.03016 14.3663C4.04251 14.3889 4.05564 14.4108 4.06866 14.4324C4.08981 14.4676 4.11066 14.5024 4.12738 14.5391C4.13562 14.5577 4.1415 14.5754 4.14712 14.5924C4.15624 14.6199 4.16468 14.6454 4.18139 14.6687C4.18402 14.6723 4.18679 14.6759 4.18964 14.6797C4.20432 14.699 4.22095 14.7209 4.23 14.739C4.2489 14.7768 4.2624 14.8159 4.2759 14.8551C4.28941 14.8942 4.30291 14.9334 4.32181 14.9712C4.35111 15.033 4.38825 15.0968 4.42377 15.1579C4.4472 15.1981 4.46993 15.2372 4.48924 15.2737C4.50274 15.2953 4.51354 15.3182 4.52435 15.3412C4.53515 15.3641 4.54595 15.3871 4.55945 15.4087C4.56683 15.4205 4.57462 15.4323 4.58247 15.4442C4.60336 15.4759 4.62477 15.5084 4.64047 15.5437C4.69446 15.6571 4.7485 15.7706 4.80249 15.8786C4.8115 15.8984 4.8193 15.9188 4.8271 15.9392C4.8427 15.98 4.8583 16.0208 4.88351 16.0568C4.90425 16.0888 4.92762 16.1209 4.95133 16.1534C4.99553 16.214 5.0409 16.2762 5.07254 16.343C5.08334 16.3646 5.09819 16.393 5.11305 16.4213C5.1279 16.4497 5.14275 16.4781 5.15355 16.4997C5.18414 16.5696 5.22887 16.6183 5.26199 16.6543C5.26981 16.6629 5.27699 16.6707 5.28317 16.6779C5.31018 16.7049 5.38579 16.7535 5.40199 16.7427C5.4128 16.7427 5.36959 16.5861 5.35879 16.5591C5.34504 16.5296 5.33701 16.5087 5.33027 16.4912C5.31848 16.4606 5.31067 16.4402 5.28317 16.4024C5.25196 16.3587 5.23157 16.3168 5.21054 16.2736C5.19518 16.2421 5.17947 16.2098 5.15895 16.1756C5.15417 16.1644 5.14986 16.1533 5.1456 16.1423C5.13543 16.1159 5.12557 16.0904 5.11035 16.0676C5.09829 16.0469 5.08514 16.0263 5.07177 16.0052C5.04319 15.9603 5.0136 15.9139 4.99153 15.8624C4.97169 15.8144 4.95388 15.765 4.93608 15.7156C4.89572 15.6035 4.85541 15.4916 4.79169 15.3979C4.70895 15.2738 4.64577 15.1418 4.57884 15.0021C4.56714 14.9776 4.55531 14.9529 4.54325 14.928C4.52975 14.8983 4.51085 14.8713 4.49194 14.8443C4.47304 14.8173 4.45413 14.7903 4.44063 14.7606L4.40823 14.6796C4.39742 14.6507 4.38182 14.6219 4.36622 14.5931C4.35842 14.5787 4.35062 14.5643 4.34342 14.5499C4.32781 14.5187 4.31942 14.4893 4.31095 14.4596C4.30476 14.4379 4.29853 14.4161 4.28941 14.3933C4.19759 14.1881 4.11118 13.9666 4.03556 13.7506C4.02554 13.7272 4.02171 13.7079 4.0177 13.6877C4.01522 13.6752 4.01268 13.6624 4.00856 13.648C3.98155 13.5778 3.94915 13.5076 3.91674 13.4427C3.89334 13.3892 3.87407 13.3378 3.8551 13.2872C3.84343 13.256 3.83187 13.2252 3.81953 13.1943C3.81143 13.1754 3.80603 13.1592 3.80062 13.143C3.79522 13.1268 3.78982 13.1106 3.78172 13.0917C3.76919 13.0625 3.75021 13.03 3.73225 12.9993C3.72699 12.9903 3.72181 12.9814 3.71691 12.9729C3.70976 12.9419 3.70155 12.9109 3.69322 12.8794C3.68268 12.8396 3.67195 12.7991 3.6629 12.7568C3.61969 12.6272 3.57109 12.5084 3.51708 12.3788C3.49547 12.3356 3.47927 12.2869 3.46307 12.2383C3.45767 12.2113 3.45227 12.1857 3.44686 12.16C3.44146 12.1344 3.43606 12.1087 3.43066 12.0817C3.39826 11.9791 3.36584 11.8819 3.32803 11.7793C3.31692 11.7431 3.31009 11.7056 3.30313 11.6673C3.29658 11.6312 3.28991 11.5945 3.27943 11.5578C3.27461 11.541 3.26764 11.523 3.26043 11.5045C3.2515 11.4815 3.2422 11.4575 3.23622 11.4336C3.23555 11.4296 3.23489 11.4255 3.23421 11.4214C3.22941 11.392 3.22409 11.3594 3.21462 11.331C3.19841 11.2608 3.19301 11.2392 3.17141 11.1528C3.15521 11.088 3.22002 11.0663 3.24162 11.1312C3.24469 11.139 3.24777 11.1469 3.25085 11.1548C3.29648 11.2717 3.34362 11.3925 3.41446 11.5038C3.42455 11.5307 3.43045 11.5639 3.43608 11.5956C3.43949 11.6148 3.44279 11.6333 3.44686 11.6496C3.47592 11.7314 3.50498 11.8155 3.53424 11.9003C3.592 12.0676 3.65057 12.2372 3.71151 12.395C3.73342 12.4519 3.75177 12.5124 3.76945 12.5707C3.77356 12.5843 3.77764 12.5977 3.78172 12.611C3.79522 12.6407 3.81143 12.6718 3.82763 12.7028C3.84383 12.7339 3.86003 12.7649 3.87354 12.7946C3.88074 12.809 3.88314 12.8234 3.88554 12.8378C3.88674 12.845 3.88794 12.8522 3.88974 12.8594C3.90324 12.8945 3.91539 12.9297 3.92755 12.9648C3.9397 12.9999 3.95185 13.035 3.96535 13.0701C3.99506 13.1376 4.02881 13.2065 4.06257 13.2753C4.09632 13.3442 4.13008 13.413 4.15978 13.4805C4.17659 13.5142 4.18712 13.5499 4.19788 13.5863C4.20442 13.6085 4.21104 13.6309 4.2192 13.6534C4.2624 13.7614 4.30561 13.8694 4.35422 13.972C4.38662 14.0449 4.42848 14.1165 4.47034 14.1881C4.51219 14.2596 4.55405 14.3312 4.58646 14.4041C4.60233 14.4327 4.61074 14.4631 4.61936 14.4943C4.62541 14.5162 4.63156 14.5385 4.64047 14.5607C4.6516 14.5904 4.67037 14.6201 4.68804 14.648C4.69609 14.6607 4.70391 14.6731 4.71068 14.685C4.71825 14.7039 4.72552 14.7225 4.7327 14.7409C4.75629 14.8013 4.77892 14.8592 4.80789 14.9172C4.82604 14.9565 4.85097 14.9941 4.87603 15.032C4.89571 15.0617 4.91548 15.0915 4.93212 15.1224C4.94998 15.1559 4.96508 15.1903 4.98008 15.2245C5.00135 15.2731 5.02243 15.3211 5.05094 15.3655C5.07254 15.4006 5.09684 15.4343 5.12115 15.4681C5.14545 15.5018 5.16976 15.5356 5.19136 15.5707C5.22873 15.6253 5.25691 15.6876 5.28488 15.7493C5.30946 15.8036 5.33387 15.8576 5.36419 15.9056C5.39771 15.9626 5.43748 16.0154 5.47704 16.0679C5.5012 16.1 5.52529 16.132 5.54782 16.1648C5.56298 16.1875 5.5746 16.2127 5.58654 16.2385C5.60012 16.2678 5.61412 16.2981 5.63423 16.3268C5.67204 16.3862 5.70984 16.4483 5.74765 16.5105C5.78546 16.5726 5.82326 16.6347 5.86107 16.6941C5.87312 16.7152 5.8818 16.7362 5.89087 16.7583C5.89808 16.7757 5.90552 16.7938 5.91508 16.8129C5.92896 16.8499 5.95868 16.8909 5.98389 16.9256C5.98812 16.9315 5.99222 16.9371 5.9961 16.9425C6.00313 16.9543 6.00812 16.965 6.01285 16.9751C6.01902 16.9883 6.02473 17.0005 6.0339 17.0127C6.05636 17.0448 6.08072 17.0731 6.10472 17.1009C6.12113 17.12 6.13737 17.1388 6.15272 17.1586C6.19333 17.2108 6.22615 17.2692 6.25871 17.3272C6.28678 17.3772 6.31465 17.4268 6.34715 17.4718C6.37686 17.5114 6.4111 17.5499 6.44572 17.5888C6.48663 17.6348 6.52808 17.6813 6.56319 17.7311C6.58318 17.7586 6.59971 17.7872 6.61597 17.8154C6.63486 17.8481 6.65339 17.8803 6.67661 17.9093C6.68741 17.9228 6.70226 17.9363 6.71712 17.9498C6.73197 17.9633 6.74682 17.9768 6.75762 17.9903C6.7902 18.0288 6.81303 18.0754 6.83592 18.1222C6.85477 18.1606 6.87365 18.1992 6.89805 18.2334C6.91113 18.2552 6.92774 18.277 6.94218 18.2959C6.94562 18.3004 6.94894 18.3048 6.95206 18.309C6.95834 18.3215 7.02503 18.3872 7.08286 18.4441C7.12437 18.485 7.16132 18.5214 7.16809 18.5304C7.18605 18.5539 7.204 18.5784 7.22213 18.6032C7.27492 18.6753 7.32923 18.7496 7.38953 18.8058C7.3939 18.8102 7.40112 18.8178 7.41045 18.8277C7.47027 18.8907 7.6168 19.0452 7.65418 19.0219C7.66972 19.0063 7.63214 18.9461 7.60179 18.8974C7.58996 18.8784 7.57922 18.8612 7.57316 18.8491C7.51551 18.7379 7.41391 18.6173 7.33059 18.5184C7.30463 18.4876 7.28044 18.4588 7.25991 18.4332C7.2059 18.3576 7.01147 18.1037 6.95206 18.0281C6.93466 18.002 6.91105 17.9806 6.88705 17.9588C6.86634 17.9401 6.84535 17.921 6.82784 17.8985C6.79824 17.863 6.77514 17.8226 6.7523 17.7827C6.73345 17.7498 6.71479 17.7172 6.69281 17.6879C6.67248 17.6559 6.64589 17.6286 6.61978 17.6019C6.59735 17.5788 6.57526 17.5562 6.55779 17.5312C6.5356 17.5027 6.52085 17.4704 6.5059 17.4377C6.49538 17.4147 6.48476 17.3915 6.47138 17.3692C6.45978 17.3489 6.44506 17.3286 6.42974 17.3075C6.41653 17.2892 6.40287 17.2704 6.39036 17.2504C6.37789 17.2348 6.37082 17.2156 6.36395 17.197C6.35892 17.1833 6.354 17.17 6.34715 17.1586C6.32001 17.1156 6.29003 17.0745 6.25998 17.0333C6.21828 16.9762 6.17645 16.9189 6.14192 16.8561C6.12077 16.8217 6.10738 16.7809 6.09416 16.7406C6.08037 16.6985 6.06676 16.657 6.0447 16.6239C6.01903 16.5782 5.98582 16.5401 5.95223 16.5016C5.92224 16.4672 5.89195 16.4324 5.86647 16.3916C5.83947 16.3511 5.82057 16.3066 5.80166 16.262C5.78276 16.2175 5.76386 16.1729 5.73685 16.1324C5.55322 15.8407 5.40199 15.5329 5.24537 15.2034C5.23056 15.1763 5.21238 15.1503 5.1939 15.1239C5.17193 15.0924 5.14955 15.0604 5.13195 15.0252C5.11788 14.9943 5.10822 14.9604 5.09836 14.9259C5.0893 14.8941 5.08008 14.8618 5.06714 14.8308C5.05929 14.8072 5.04575 14.7865 5.03271 14.7666C5.0278 14.7591 5.02296 14.7518 5.01853 14.7444C4.98612 14.6958 4.96452 14.6417 4.94292 14.5877C4.89431 14.4959 4.8511 14.3987 4.8079 14.3015C4.79742 14.2779 4.78313 14.2531 4.76811 14.227C4.75216 14.1992 4.73539 14.1701 4.72148 14.1395C4.69988 14.0882 4.68232 14.0368 4.66477 13.9855C4.64722 13.9342 4.62966 13.8829 4.60806 13.8316C4.60177 13.8159 4.5932 13.7965 4.58354 13.7747C4.56 13.7215 4.52999 13.6537 4.51084 13.5886C4.49464 13.54 4.50004 13.513 4.52165 13.5022C4.53785 13.4914 4.57025 13.5184 4.58646 13.5454C4.59635 13.5676 4.60512 13.591 4.61431 13.6156C4.62517 13.6446 4.63664 13.6752 4.65127 13.7074C4.67017 13.7506 4.69583 13.7898 4.72148 13.8289C4.74713 13.8681 4.77279 13.9072 4.79169 13.9504C4.80249 13.9774 4.81195 14.0044 4.8214 14.0314C4.83085 14.0584 4.8403 14.0855 4.8511 14.1125L4.96452 14.3555C4.98072 14.3906 5.00233 14.4257 5.02393 14.4608C5.04553 14.4959 5.06714 14.531 5.08334 14.5661C5.14815 14.7066 5.21296 14.8416 5.29398 14.9658C5.30932 14.985 5.31922 15.0069 5.32947 15.0296C5.33365 15.0388 5.33789 15.0482 5.34259 15.0576C5.35609 15.0846 5.37094 15.1116 5.38579 15.1386C5.40064 15.1656 5.4155 15.1926 5.429 15.2196C5.43295 15.2302 5.43658 15.2404 5.44012 15.2504C5.45111 15.2813 5.46127 15.3099 5.47761 15.3385C5.49381 15.3628 5.51271 15.383 5.53162 15.4033C5.55052 15.4235 5.56942 15.4438 5.58563 15.4681C5.59913 15.487 5.60723 15.5086 5.61533 15.5302C5.62343 15.5518 5.63153 15.5734 5.64504 15.5923C5.68374 15.6489 5.71916 15.7087 5.75492 15.7691C5.78403 15.8183 5.81336 15.8679 5.84487 15.9164C5.85085 15.9283 5.8561 15.941 5.86143 15.9539C5.87052 15.976 5.87985 15.9985 5.89348 16.019C5.94748 16.1054 6.00629 16.1918 6.0651 16.2782C6.09451 16.3214 6.12391 16.3646 6.15272 16.4078C6.16893 16.4321 6.17973 16.4619 6.19053 16.4916C6.20133 16.5213 6.21213 16.551 6.22833 16.5753C6.25185 16.6156 6.28164 16.6517 6.3112 16.6876C6.32915 16.7094 6.34703 16.731 6.36336 16.7535C6.37416 16.7697 6.38361 16.7873 6.39306 16.8048C6.40251 16.8224 6.41197 16.8399 6.42277 16.8561C6.4342 16.8714 6.44697 16.8873 6.4599 16.9034C6.48363 16.9329 6.5079 16.9632 6.52538 16.9911C6.53398 17.0062 6.54171 17.0212 6.54928 17.0359C6.56073 17.0582 6.57178 17.0796 6.58479 17.0992C6.59594 17.1122 6.60773 17.1252 6.61972 17.1384C6.64258 17.1636 6.66616 17.1896 6.68741 17.218C6.72971 17.2716 6.76759 17.3266 6.80489 17.3808C6.83904 17.4304 6.87271 17.4794 6.90885 17.5258C6.91949 17.54 6.93246 17.5519 6.94624 17.5645C6.95343 17.571 6.96085 17.5778 6.96826 17.5852C7.00151 17.6185 7.03223 17.6593 7.06215 17.6991C7.07598 17.7175 7.08963 17.7356 7.10328 17.7527C7.1139 17.7659 7.12714 17.7779 7.14105 17.7905C7.15544 17.8035 7.17057 17.8172 7.1843 17.8337C7.22318 17.8823 7.25624 17.9367 7.28929 17.9912C7.31133 18.0275 7.33336 18.0638 7.35713 18.0983C7.38828 18.1329 7.42609 18.1653 7.46629 18.1998C7.48881 18.2191 7.51208 18.239 7.53536 18.2604C7.54689 18.2719 7.56061 18.2862 7.57594 18.3021C7.66832 18.3982 7.81924 18.5551 7.90262 18.5412C7.93502 18.5412 7.76219 18.3036 7.69738 18.2225C7.68495 18.207 7.67475 18.1933 7.66512 18.1803C7.64127 18.1481 7.62088 18.1206 7.57856 18.0821C7.54475 18.0517 7.51941 18.0107 7.49326 17.9684C7.47763 17.9431 7.46172 17.9173 7.44354 17.8931C7.42557 17.8661 7.40262 17.8425 7.38022 17.8194C7.36221 17.8009 7.34456 17.7827 7.33012 17.7635C7.30041 17.7203 7.27206 17.677 7.2437 17.6338C7.21535 17.5906 7.18699 17.5474 7.15729 17.5042C7.14017 17.4785 7.12002 17.4528 7.09925 17.4264C7.08072 17.4027 7.0617 17.3785 7.04387 17.353C7.02227 17.3206 7.00607 17.2855 6.98986 17.2504C6.97366 17.2153 6.95746 17.1802 6.93585 17.1478C6.91695 17.1208 6.89535 17.0951 6.87375 17.0695C6.85214 17.0438 6.83054 17.0181 6.81163 16.9911C6.79273 16.9587 6.77383 16.925 6.75493 16.8912C6.73602 16.8575 6.71712 16.8237 6.69821 16.7913C6.65861 16.7265 6.6142 16.6665 6.56979 16.6065C6.54759 16.5765 6.52539 16.5465 6.50378 16.5159C6.48429 16.4834 6.46675 16.4489 6.44882 16.4137C6.43694 16.3904 6.42488 16.3667 6.41197 16.343C6.40021 16.326 6.38813 16.3091 6.37589 16.2918C6.33754 16.2379 6.29759 16.1817 6.26074 16.1162C6.23914 16.073 6.20673 16.0136 6.18513 15.9812C6.16483 15.9575 6.14454 15.9084 6.1269 15.8657C6.11637 15.8403 6.10679 15.8171 6.09871 15.8029C6.09049 15.7906 6.08149 15.7752 6.07171 15.7584C6.05578 15.731 6.03777 15.7001 6.0177 15.6733C6.0009 15.6464 5.97993 15.607 5.96128 15.572C5.94994 15.5507 5.93945 15.531 5.93128 15.5167C5.89735 15.4677 5.87921 15.4345 5.85664 15.3931C5.84689 15.3753 5.83631 15.3559 5.82327 15.3331C5.81396 15.3121 5.80866 15.3022 5.80349 15.2925C5.79665 15.2797 5.79003 15.2673 5.77466 15.2304C5.76926 15.2088 5.76386 15.1818 5.78546 15.1656C5.81246 15.1494 5.85027 15.1926 5.88268 15.2358C5.91349 15.2759 5.93024 15.3054 5.94897 15.3384C5.96307 15.3633 5.9783 15.3901 6.0015 15.4249C6.00635 15.4346 6.01775 15.4508 6.03031 15.4687C6.04568 15.4907 6.06279 15.5151 6.07171 15.5329C6.08277 15.5495 6.09241 15.5675 6.10281 15.5869C6.11273 15.6054 6.12334 15.6252 6.13652 15.6463C6.14832 15.6652 6.15909 15.6841 6.17062 15.7043C6.18549 15.7304 6.20164 15.7587 6.22293 15.7921C6.26074 15.8569 6.29315 15.9056 6.32555 15.9488C6.34965 15.9763 6.36497 16.0104 6.37571 16.0344C6.38182 16.048 6.38645 16.0583 6.39036 16.0622C6.41161 16.0983 6.43119 16.1344 6.4504 16.1699C6.48004 16.2246 6.50883 16.2777 6.54159 16.3268C6.55071 16.3394 6.56008 16.3522 6.56958 16.3651C6.60508 16.4136 6.64253 16.4647 6.67661 16.5159C6.68741 16.5294 6.69551 16.5456 6.70362 16.5618C6.71172 16.578 6.71982 16.5942 6.73062 16.6077C6.74682 16.632 6.76843 16.6536 6.7907 16.6759C6.81298 16.6981 6.83594 16.7211 6.85484 16.7481C6.89284 16.8038 6.9237 16.8631 6.95469 16.9226C6.98976 16.99 7.02499 17.0577 7.07088 17.1208C7.11126 17.1746 7.16237 17.2217 7.21419 17.2695C7.26633 17.3176 7.31918 17.3663 7.36253 17.4232C7.39964 17.4738 7.43464 17.5265 7.47017 17.58C7.49152 17.6122 7.51306 17.6446 7.53536 17.6771C7.54886 17.696 7.56641 17.7135 7.58396 17.7311C7.60152 17.7486 7.61907 17.7662 7.63257 17.7851C7.65826 17.8178 7.68396 17.8515 7.71009 17.8858C7.74438 17.9308 7.77942 17.9767 7.8162 18.0227C7.83241 18.0497 7.86481 18.0713 7.89182 18.0875L7.94582 18.1415C7.97932 18.165 8.00658 18.1884 8.03535 18.2132C8.05296 18.2283 8.07114 18.2439 8.09165 18.2604C8.12381 18.2854 8.16069 18.3387 8.19448 18.3876C8.21177 18.4127 8.22825 18.4365 8.24288 18.4548C8.25576 18.4677 8.26988 18.4806 8.28464 18.494C8.30081 18.5088 8.31775 18.5243 8.33469 18.5412C8.34819 18.5547 8.3617 18.5696 8.3752 18.5844C8.3887 18.5993 8.4022 18.6141 8.4157 18.6276C8.45078 18.6586 8.48901 18.6895 8.52798 18.7211C8.59103 18.7721 8.65602 18.8247 8.71275 18.8815C8.75384 18.9208 8.78516 18.9488 8.81239 18.9731C8.87106 19.0256 8.91074 19.061 8.9882 19.1569C9.00981 19.1839 9.08542 19.2595 9.11242 19.2865C9.14483 19.3297 9.24204 19.3999 9.25825 19.4107C9.27805 19.427 9.29245 19.4396 9.30526 19.4508C9.33086 19.4732 9.35006 19.49 9.39327 19.5188C9.41337 19.5322 9.4368 19.5496 9.4615 19.5679C9.53631 19.6234 9.62271 19.6876 9.66332 19.6754C9.67412 19.67 9.64171 19.5782 9.5607 19.4756C9.54155 19.45 9.50356 19.4113 9.4701 19.3772C9.44692 19.3536 9.42592 19.3322 9.41487 19.3189C9.36627 19.2595 9.32306 19.2217 9.26365 19.1785C9.16643 19.1083 9.11782 19.0543 9.04221 18.9625C9.00982 18.9247 8.95046 18.8653 8.91804 18.8329C8.90935 18.8217 8.90061 18.8099 8.89179 18.798C8.86223 18.7581 8.8312 18.7161 8.79377 18.687C8.78166 18.6779 8.76742 18.6684 8.75238 18.6584C8.71375 18.6326 8.66975 18.6032 8.64254 18.5682C8.58359 18.4945 8.51123 18.4119 8.44172 18.3325C8.43482 18.3246 8.42794 18.3168 8.42111 18.309C8.39411 18.282 8.36169 18.2495 8.33469 18.2279C8.29688 18.1955 8.25908 18.1577 8.22127 18.1199L8.15646 18.0551C8.14026 18.0389 8.12405 18.0227 8.11325 18.0065C8.10245 17.9957 8.09165 17.9795 8.08085 17.9633C8.04844 17.9363 8.02684 17.9039 8.00524 17.8715C7.98903 17.8445 7.96743 17.8121 7.94042 17.7851C7.937 17.7817 7.93358 17.7777 7.92999 17.7735C7.92224 17.7646 7.91369 17.7546 7.90262 17.7473C7.86481 17.7095 7.82701 17.6663 7.7892 17.6176C7.7811 17.6068 7.77435 17.5947 7.76759 17.5825C7.76084 17.5704 7.75409 17.5582 7.74599 17.5474C7.74059 17.5393 7.73654 17.5326 7.73249 17.5258C7.72844 17.5191 7.72439 17.5123 7.71899 17.5042C7.71899 17.5042 7.71359 17.4934 7.70818 17.488C7.70423 17.4821 7.69972 17.4754 7.69484 17.4682C7.67309 17.436 7.64383 17.3927 7.62177 17.353C7.60557 17.3098 7.61097 17.2774 7.62717 17.2666C7.63797 17.2612 7.65958 17.2504 7.68658 17.2828L7.73519 17.3476C7.75139 17.3746 7.76759 17.3962 7.7838 17.4178C7.8162 17.4502 7.84321 17.4772 7.86481 17.5042C7.88301 17.5255 7.90121 17.545 7.92228 17.5676C7.93872 17.5852 7.95692 17.6048 7.97823 17.6284C7.98314 17.635 7.98903 17.6425 7.99547 17.6507C8.01029 17.6697 8.02798 17.6923 8.04304 17.7149C8.05961 17.7342 8.07477 17.7549 8.0878 17.7728C8.10024 17.7898 8.11074 17.8042 8.11865 17.8121C8.17265 17.8607 8.19426 17.8823 8.21046 17.8985C8.21523 17.9033 8.22002 17.9076 8.22535 17.9124C8.2381 17.9239 8.25402 17.9382 8.28068 17.9687C8.31848 18.0119 8.33469 18.0335 8.35089 18.0551C8.35983 18.0641 8.36786 18.073 8.37726 18.0835C8.39055 18.0983 8.4066 18.1162 8.43191 18.1415C8.51292 18.2009 8.60474 18.2874 8.66415 18.363C8.68305 18.3819 8.71005 18.4035 8.73706 18.4251C8.76406 18.4467 8.79107 18.4683 8.80997 18.4872C8.82937 18.5087 8.8479 18.5277 8.86627 18.5465C8.89392 18.5748 8.92118 18.6027 8.95039 18.6384C8.9828 18.6762 9.03681 18.7194 9.08542 18.7518C9.12052 18.7788 9.15563 18.8072 9.19074 18.8356C9.22584 18.8639 9.26095 18.8923 9.29605 18.9193C9.32544 18.9413 9.3526 18.9667 9.37956 18.9919C9.41206 19.0222 9.44426 19.0523 9.47968 19.0759C9.5087 19.0985 9.53483 19.1191 9.5598 19.1388C9.61848 19.1852 9.67073 19.2265 9.73893 19.2757C9.76442 19.2917 9.79743 19.3189 9.82798 19.3441C9.84921 19.3616 9.86925 19.3781 9.88475 19.3891C9.91642 19.4129 9.94681 19.4392 9.97653 19.465C10.0076 19.4919 10.038 19.5183 10.0684 19.5404C10.1386 19.5944 10.2034 19.6484 10.2682 19.7132C10.2847 19.733 10.3092 19.7487 10.3331 19.7641C10.3485 19.7739 10.3636 19.7837 10.3762 19.7942C10.3798 19.7971 10.3834 19.8 10.387 19.8029C10.4381 19.8438 10.4939 19.8885 10.5545 19.9238C10.5822 19.9423 10.6049 19.9568 10.6261 19.9704C10.6546 19.9885 10.6802 20.0048 10.7111 20.0265C10.763 20.06 10.8027 20.0901 10.8431 20.1207C10.8743 20.1442 10.9057 20.168 10.9433 20.1939C10.9865 20.2209 11.073 20.2695 11.1216 20.2965C11.2026 20.3451 11.2296 20.3613 11.289 20.4045C11.3302 20.432 11.3647 20.4566 11.3985 20.4807C11.4444 20.5135 11.4891 20.5454 11.5482 20.5827C11.5842 20.6068 11.6286 20.6308 11.6729 20.6548C11.7084 20.674 11.7439 20.6932 11.7751 20.7124C11.7805 20.716 11.7859 20.7196 11.7912 20.7232C11.8491 20.7619 11.9003 20.7961 11.9695 20.8258C12.0289 20.8528 12.1099 20.9014 12.1639 20.9338C12.2098 20.9608 12.2504 20.9851 12.2909 21.0094C12.3314 21.0337 12.3719 21.058 12.4178 21.085C12.4664 21.112 12.9147 21.3443 12.9147 21.3443C14.011 21.9384 15.2749 22.4569 16.5819 22.9105C17.9753 23.3966 19.1365 23.5586 20.0439 23.6397C20.3482 23.6661 20.6728 23.6683 20.9799 23.6703ZM3.07883 15.3975C3.08481 15.4089 3.09058 15.4198 3.0958 15.4303C3.10221 15.4431 3.1084 15.4578 3.11489 15.4732C3.14121 15.5357 3.1723 15.6096 3.24162 15.6139C3.25782 15.6085 3.25782 15.5869 3.25782 15.5545C3.25782 15.5329 3.25782 15.4897 3.25242 15.4627C3.24162 15.4249 3.23082 15.3871 3.21462 15.3493C3.19841 15.3169 3.17816 15.2858 3.15791 15.2548C3.13765 15.2237 3.1174 15.1926 3.1012 15.1602C3.07689 15.1089 3.06204 15.0549 3.04719 15.0009C3.03233 14.9469 3.01748 14.8929 2.99318 14.8416C2.97914 14.81 2.95825 14.7807 2.93794 14.7522C2.927 14.7368 2.91622 14.7217 2.90676 14.7066C2.90136 14.6985 2.89731 14.689 2.89326 14.6796C2.88921 14.6701 2.88516 14.6606 2.87976 14.6525C2.86356 14.6309 2.85275 14.6201 2.83115 14.6039C2.82035 14.5931 2.80415 14.5877 2.79874 14.5985C2.77714 14.6633 2.80955 14.7606 2.83115 14.8146C2.86086 14.8767 2.89056 14.9428 2.92027 15.009C2.94997 15.0752 2.97968 15.1413 3.00938 15.2034C3.01777 15.223 3.02182 15.2426 3.02602 15.2629C3.02993 15.2818 3.03397 15.3014 3.04179 15.3223C3.05277 15.3479 3.06625 15.3735 3.07883 15.3975ZM3.44686 18.2171C3.46307 18.2171 3.46847 18.2063 3.47387 18.1955C3.47927 18.1631 3.47387 18.1091 3.46307 18.0713C3.4485 18.0305 3.42608 17.9945 3.40343 17.958C3.38408 17.9269 3.36457 17.8955 3.34964 17.8607C3.34408 17.8473 3.33852 17.8333 3.33281 17.8189C3.31082 17.7634 3.28673 17.7026 3.25242 17.6555C3.23892 17.6311 3.22002 17.6095 3.20111 17.5879C3.18221 17.5663 3.16331 17.5447 3.1498 17.5204C3.1336 17.488 3.1228 17.4502 3.112 17.4124C3.1012 17.3746 3.09039 17.3368 3.07419 17.3044C3.05623 17.2625 3.02832 17.2272 3.00057 17.1922C2.97825 17.1639 2.95602 17.1359 2.93917 17.1046C2.93103 17.0906 2.9214 17.0714 2.91053 17.0498C2.8709 16.9708 2.81488 16.8592 2.75554 16.8507C2.74796 16.8469 2.7457 16.8511 2.74316 16.8558C2.74208 16.8578 2.74095 16.8599 2.73933 16.8615C2.73393 16.8831 2.73933 16.9425 2.75014 16.9695C2.76634 17.0289 2.78794 17.0884 2.80955 17.1424C2.81225 17.1586 2.8163 17.1748 2.82035 17.191C2.8244 17.2072 2.82845 17.2234 2.83115 17.2396C2.86896 17.326 2.91216 17.4016 2.96617 17.4718C2.97478 17.4826 2.98423 17.4925 2.99353 17.5022C3.00757 17.5169 3.02123 17.5312 3.03098 17.5474C3.04991 17.5758 3.06147 17.6079 3.07319 17.6405C3.08154 17.6636 3.08997 17.687 3.1012 17.7095C3.11799 17.7472 3.14131 17.7785 3.16355 17.8083C3.16992 17.8168 3.1762 17.8253 3.18221 17.8337C3.21461 17.8931 3.24703 17.9525 3.27943 18.0065C3.29141 18.0245 3.30214 18.0483 3.31348 18.0734C3.34301 18.1388 3.3766 18.2132 3.44686 18.2171ZM5.42317 17.7445C5.44391 17.7626 5.46465 17.7808 5.49921 17.7851C5.51001 17.7851 5.52082 17.7743 5.52082 17.7473C5.52622 17.7095 5.50461 17.6555 5.49381 17.6393C5.456 17.5744 5.36419 17.4394 5.27777 17.4394C5.27237 17.4394 5.26697 17.4448 5.26697 17.4556C5.26697 17.5852 5.33178 17.6771 5.4074 17.7311C5.4128 17.7354 5.41798 17.7399 5.42317 17.7445ZM5.86107 17.6068C5.90428 17.6663 6.0501 17.8337 6.10951 17.8121C6.12093 17.8045 6.11089 17.7539 6.10397 17.7191C6.10107 17.7045 6.09871 17.6926 6.09871 17.6879C6.08757 17.6507 6.06367 17.6238 6.04105 17.5983C6.03076 17.5867 6.02074 17.5755 6.0123 17.5636C5.98931 17.5337 5.96436 17.5048 5.93954 17.4761C5.90605 17.4373 5.87279 17.3987 5.84487 17.3584C5.8207 17.3282 5.80497 17.2912 5.78919 17.2541C5.77677 17.2249 5.76431 17.1955 5.74765 17.1694C5.73778 17.1562 5.72791 17.1435 5.71819 17.1311C5.69601 17.1026 5.67462 17.0752 5.65584 17.0452C5.64793 17.0343 5.63895 17.0207 5.62904 17.0057C5.58479 16.9389 5.5222 16.8443 5.456 16.8399C5.44506 16.8399 5.4489 16.8621 5.45255 16.8831C5.4543 16.8933 5.456 16.9031 5.456 16.9101C5.46974 17.0612 5.53005 17.1347 5.59416 17.2128C5.60568 17.2268 5.61732 17.241 5.62883 17.2558C5.68151 17.326 5.73189 17.4054 5.78148 17.4835C5.80817 17.5255 5.83462 17.5672 5.86107 17.6068ZM8.01064 18.8112C8.05384 18.8707 8.15106 19.0003 8.23747 18.9895C8.24288 18.9895 8.25908 18.9841 8.25908 18.9679C8.22667 18.8437 8.17266 18.7734 8.10785 18.7194C8.08085 18.6978 7.97823 18.66 7.96203 18.6762C7.95123 18.6924 7.99983 18.795 8.01064 18.8112Z" fill="white"/>
<path fill-rule="evenodd" clip-rule="evenodd" d="M51.0772 18.7354L56.9642 30.9793C57.7798 32.6859 58.8005 32.6859 58.7951 32.6859L58.8924 32.7778H53.378L53.4644 32.6859C53.4644 32.6859 54.5824 32.4699 53.8749 30.9793L52.8595 28.8189H47.8475L46.7997 30.9793C46.0868 32.4645 47.2048 32.6859 47.2048 32.6859L47.302 32.7778H43.2999L43.3863 32.6859C43.3863 32.6859 44.3531 32.6535 45.228 30.9793L51.0772 18.7354ZM50.4669 23.3424L48.3984 27.6847H52.3519L50.4669 23.3424Z" fill="white"/>
<path d="M33.3622 26.1832C33.3622 29.629 35.3444 31.5139 38.2231 31.5139C41.2863 31.5139 42.9785 28.8931 43.084 28.7296C43.0875 28.7242 43.0893 28.7215 43.0893 28.7217L43.2081 28.6461L42.1549 32.2269C42.1549 32.2269 39.8757 33.0046 37.9152 33.0046C32.7249 33.0046 30.2081 29.44 30.2135 26.194C30.2135 22.1812 33.2596 19.1891 38.115 19.1891C40.8047 19.1891 42.695 20.1126 42.695 20.1126V23.0075L42.6194 22.9427C42.6194 22.9427 41.4852 20.4907 38.3311 20.4907C35.2958 20.4907 33.3622 22.7429 33.3622 26.1832Z" fill="white"/>
<path d="M108.646 19.5023L108.554 19.4105H112.75L112.658 19.5023C112.658 19.5023 111.47 19.6427 110.433 21.2198C110.268 21.4697 109.852 22.0597 109.333 22.7959C108.462 24.0325 107.3 25.6817 106.545 26.826C106.545 27.9629 106.547 29.039 106.548 29.8509C106.549 30.3426 106.55 30.7374 106.55 30.9901C106.55 32.5671 107.441 32.7021 107.441 32.7021L107.533 32.794H102.748L102.84 32.7021C102.84 32.7021 103.736 32.5671 103.736 30.9901V26.826C102.989 25.6935 101.843 24.0601 100.976 22.8246C100.445 22.0684 100.019 21.4612 99.8529 21.209C98.8051 19.6373 98.0058 19.5023 98.0058 19.5023L97.9193 19.4105H103.428L103.342 19.5023C103.342 19.5023 102.154 19.821 103.045 21.209C103.239 21.507 103.604 22.0489 104.055 22.719C104.618 23.5547 105.314 24.5898 105.983 25.5999C106.674 24.5507 107.405 23.4799 107.984 22.6318C108.409 22.0087 108.752 21.5057 108.937 21.2198C109.828 19.8372 108.646 19.5023 108.646 19.5023Z" fill="white"/>
<path fill-rule="evenodd" clip-rule="evenodd" d="M93.2206 18.7354L99.1076 30.9793C99.9285 32.6859 100.944 32.6859 100.944 32.6859L101.036 32.7778H95.5268L95.6186 32.6859C95.6186 32.6859 96.7366 32.4699 96.0236 30.9793L95.0083 28.8189H89.9908L88.943 30.9793C88.2355 32.4645 89.3535 32.6859 89.3535 32.6859L89.4399 32.7778H85.4378L85.5297 32.6859C85.5297 32.6859 86.4964 32.6535 87.3714 30.9793L93.2206 18.7354ZM92.6103 23.3424L90.5417 27.6847H94.4952L92.6103 23.3424Z" fill="white"/>
<path d="M57.0831 19.2593C57.0831 19.2593 57.3045 19.4105 58.8816 19.4105H67.3502C68.9327 19.4105 69.1541 19.2593 69.1541 19.2593L69.1487 21.9219L69.0569 21.8517C69.0569 21.8517 68.3007 20.6959 66.7237 20.6959H64.5309L64.5201 30.9847C64.5201 32.5617 65.4167 32.6967 65.4167 32.6967L65.5085 32.7886H60.7233L60.8151 32.6967C60.8151 32.6967 61.7062 32.5617 61.7062 30.9847V20.6959H59.4595C57.8878 20.6959 57.1695 21.8517 57.1695 21.8517L57.0776 21.9219L57.0831 19.2593Z" fill="white"/>
<path d="M83.9877 26.0833C83.9891 28.1397 83.9904 30.1961 83.9904 30.9847C83.9904 32.5671 84.887 32.7021 84.887 32.6967L84.9788 32.7886H80.1882L80.28 32.6967C80.28 32.6967 81.1711 32.5617 81.1711 30.9847V26.3453H74.5874V30.9847C74.5874 32.5617 75.484 32.6967 75.484 32.6967L75.5704 32.7886H70.7906L70.8824 32.6967C70.8824 32.6967 71.7735 32.5617 71.7735 30.9847V21.182C71.7735 19.6049 70.8824 19.4969 70.8824 19.4969L70.7906 19.4051H75.5704L75.484 19.4969C75.484 19.4969 74.5874 19.6049 74.5874 21.182V25.0275H81.1711C81.1711 25.0275 81.1657 22.7591 81.1657 21.182C81.1657 19.6049 80.2692 19.4915 80.2692 19.4915L80.1828 19.4051H84.968L84.8761 19.4915C84.8761 19.4915 83.985 19.6049 83.985 21.182C83.985 21.9705 83.9864 24.0269 83.9877 26.0833Z" fill="white"/>
<path fill-rule="evenodd" clip-rule="evenodd" d="M134.068 18.7354L139.949 30.9793C140.776 32.6859 141.786 32.6859 141.791 32.6859L141.883 32.7778H136.368L136.46 32.6859C136.46 32.6859 137.573 32.4699 136.865 30.9793L135.85 28.8189H130.843L129.79 30.9793C129.077 32.4645 130.201 32.6859 130.201 32.6859L130.282 32.7778H126.285L126.377 32.6859C126.377 32.6859 127.344 32.6535 128.218 30.9793L134.068 18.7354ZM133.452 23.3424L131.389 27.6847H135.337L133.452 23.3424Z" fill="white"/>
<path d="M178.145 31.0063V21.2036C178.145 19.6265 179.041 19.4969 179.041 19.4969L179.133 19.4105H174.348L174.439 19.4969C174.439 19.4969 175.336 19.6265 175.336 21.2036V31.0063C175.336 32.5833 174.439 32.7129 174.439 32.7129L174.348 32.8048H179.133L179.041 32.7129C179.041 32.7129 178.145 32.5833 178.145 31.0063Z" fill="white"/>
<path d="M154.208 28.6407L154.094 28.7163C154.094 28.7163 152.388 31.5139 149.223 31.5247C146.349 31.5247 144.362 29.6344 144.362 26.194C144.362 22.7537 146.29 20.5015 149.336 20.5015C152.485 20.5015 153.619 22.9535 153.619 22.9535L153.695 23.0183V20.1234C153.695 20.1234 151.804 19.1999 149.12 19.1999C144.259 19.1999 141.213 22.1866 141.213 26.2049C141.213 29.4346 143.73 33.0046 148.92 33.0046C150.881 33.0046 153.16 32.2269 153.16 32.2269L154.208 28.6407Z" fill="white"/>
<path d="M172.717 19.2593C172.717 19.2593 172.49 19.4105 170.913 19.4105H163.2L163.287 19.5023C163.287 19.5023 164.178 19.6319 164.178 21.209V31.0117C164.178 32.5887 163.287 32.7183 163.287 32.7183L163.2 32.8102H167.98L167.888 32.7183C167.888 32.7183 166.997 32.5887 166.997 31.0117V26.2697H169.816C171.388 26.2697 171.523 26.961 171.523 26.961L171.615 27.0528V24.1741L171.523 24.2659C171.523 24.2659 171.393 24.9572 169.816 24.9572H166.997V20.6743H170.389C171.966 20.6743 172.625 21.5817 172.625 21.5817L172.717 21.6519V19.2593Z" fill="white"/>
<path d="M159.733 31.0063V21.2036C159.733 19.6265 160.629 19.4969 160.629 19.4969L160.721 19.4105H155.936L156.028 19.4969C156.028 19.4969 156.919 19.6265 156.919 21.2036V31.0063C156.919 32.5833 156.028 32.7129 156.028 32.7129L155.936 32.8048H160.721L160.629 32.7129C160.629 32.7129 159.733 32.5833 159.733 31.0063Z" fill="white"/>
<path d="M192.43 32.2323L193.483 28.6461L193.364 28.7271C193.364 28.7271 191.668 31.5247 188.493 31.5247C185.619 31.5247 183.632 29.6344 183.632 26.194C183.632 22.7537 185.565 20.5015 188.606 20.5015C191.76 20.5015 192.894 22.9535 192.894 22.9535L192.97 23.0183V20.1234C192.97 20.1234 191.074 19.1999 188.39 19.1999C183.535 19.1999 180.483 22.192 180.483 26.2103C180.483 29.44 183 33.01 188.196 33.01C190.151 33.01 192.43 32.2323 192.43 32.2323Z" fill="white"/>
<path fill-rule="evenodd" clip-rule="evenodd" d="M128.483 23.6664C128.483 25.8214 126.728 28.0574 123.774 28.0574C122.488 28.0574 121.646 27.7711 121.23 27.5929V31.0063C121.23 32.5833 122.121 32.7129 122.121 32.7129L122.207 32.8048H117.427L117.514 32.7129C117.514 32.7129 118.41 32.5833 118.41 31.0063V21.2036C118.41 19.6319 117.514 19.4969 117.514 19.4969L117.427 19.4105L122.677 19.4159C123.649 19.4159 124.395 19.4213 125.059 19.5941C128.046 20.3503 128.483 22.4728 128.483 23.6664ZM121.23 20.6905V26.3777C121.554 26.5289 122.213 26.7773 122.839 26.7773C125.016 26.7773 125.804 24.9356 125.804 23.6988C125.804 22.1812 125.167 21.2198 123.903 20.8471C123.422 20.6905 122.629 20.6905 121.856 20.6905H121.23Z" fill="white"/>
</svg>
