<?xml version="1.0" encoding="UTF-8"?>
<!DOCTYPE svg PUBLIC "-//W3C//DTD SVG 1.1//EN" "http://www.w3.org/Graphics/SVG/1.1/DTD/svg11.dtd">
<!-- Creator: CorelDRAW 2017 -->
<svg xmlns="http://www.w3.org/2000/svg" xml:space="preserve" width="152px" height="50px" version="1.1" shape-rendering="geometricPrecision" text-rendering="geometricPrecision" image-rendering="optimizeQuality" fill-rule="evenodd" clip-rule="evenodd"
viewBox="0 0 6119 2008"
 xmlns:xlink="http://www.w3.org/1999/xlink">
 <defs>
   <clipPath id="id0">
    <path d="M0 2008l6119 0 0 -2008 -6119 0 0 2008z"/>
   </clipPath>
 </defs>
 <g id="Vrstva_x0020_1">
  <metadata id="CorelCorpID_0Corel-Layer"/>
  <g>
  </g>
  <g clip-path="url(#id0)">
   <g>
    <g id="_2724378856688">
     <path fill="#08436A" d="M5364 964c36,-4 37,-3 59,15 17,14 23,18 38,38l-97 -53 0 0zm-515 -168c0,22 4,14 42,20 14,2 31,4 41,9 -34,16 -76,-3 -82,21 14,9 180,-18 207,-24 70,-14 141,-22 213,-27 113,-8 235,-4 347,11 34,5 73,15 103,18 -35,-12 -194,-16 -244,-16 -116,0 -229,11 -340,31 -66,13 -238,54 -286,84l0 21c27,-3 87,-24 122,-31 93,-19 195,-25 288,-5 51,11 105,3 162,3 92,0 294,14 368,42 -81,-2 -151,-13 -243,-13 -236,0 -461,44 -675,134 -21,9 -23,6 -22,28 15,-2 64,-26 86,-35 154,-57 381,-97 534,-19 32,17 42,11 81,12 122,2 209,18 322,37l0 -561 -1024 0 0 260 0 0z"/>
     <path fill="#08436A" d="M5656 1239c-16,-9 -19,-19 -33,-36 -19,-24 -43,-48 -68,-65 -13,-8 -28,-15 -41,-24 51,-9 54,-6 91,41 15,19 43,54 51,84zm-806 51l-1 21c14,-1 91,-44 114,-54 134,-58 281,-98 433,-89 105,7 199,44 254,96 48,46 103,148 104,244 -32,-61 -24,-129 -128,-200 -157,-108 -363,-88 -541,-41 -59,15 -191,63 -235,93l-1 189c17,2 70,-38 101,-55 91,-52 256,-109 362,-126 165,-26 400,-4 443,183l118 0 0 -446c-292,-27 -541,-10 -813,87 -61,21 -162,64 -210,98l0 0z"/>
     <path fill="#08436A" d="M2140 1028c2,-16 59,-138 68,-148l66 148 -134 0zm-205 185l118 0 46 -104 213 0 49 104 117 0 -155 -333c-9,-20 -17,-37 -26,-57 -32,-69 -7,-54 -139,-54 -14,0 -12,-1 -19,8l-204 436z"/>
     <path fill="#08436A" d="M498 1130c-19,-11 -77,-32 -102,-40 -24,18 -31,35 -73,45 -243,56 -263,-247 -111,-290 32,-10 74,-11 108,-3 40,10 57,25 76,46 22,-4 84,-29 102,-39 -48,-79 -186,-108 -310,-86 -111,20 -188,98 -188,224 -1,298 411,274 498,143l0 0z"/>
     <path fill="#08436A" d="M1206 941c68,-16 118,7 126,72 9,69 -4,127 -64,138 -67,12 -119,-16 -130,-73 -11,-62 2,-121 68,-137zm-73 -38l-8 -27 -98 0c21,124 7,310 9,445l99 -1 0 -130c36,14 51,28 98,30 129,6 201,-37 200,-178 0,-84 -24,-137 -91,-160 -84,-28 -143,-13 -209,21z"/>
     <path fill="#08436A" d="M4007 1009c8,-51 36,-69 91,-72 56,-3 87,21 93,73l-184 -1zm260 130c-90,8 -245,51 -260,-60l285 -1c8,-119 -33,-192 -141,-206 -50,-6 -113,-2 -157,16 -40,16 -71,46 -83,92 -13,45 -11,108 7,150 18,39 50,64 97,78 57,17 205,13 236,-1 14,-7 15,-49 16,-68l0 0z"/>
     <path fill="#08436A" d="M1760 1073c1,43 -12,62 -48,73 -26,7 -84,14 -104,-4 -11,-9 -17,-30 -8,-46 19,-34 133,-27 160,-23l0 0zm-239 -107c54,-12 159,-47 215,-19 25,13 24,28 24,61 -35,4 -281,-38 -264,116 12,104 196,122 266,65l8 24 99 0c-37,-148 39,-266 -70,-321 -74,-37 -174,-25 -253,0 -22,7 -17,6 -21,30 -2,15 -5,28 -4,44l0 0z"/>
     <path fill="#08436A" d="M724 940c72,-13 126,10 136,74 11,73 -10,127 -75,137 -71,12 -125,-10 -136,-75 -11,-72 9,-125 75,-136l0 0zm-17 -68c-110,16 -184,92 -154,221 24,104 131,142 252,124 108,-15 178,-91 152,-216 -21,-105 -126,-146 -250,-129l0 0z"/>
     <path fill="#08436A" d="M3552 905c-6,-38 6,-30 -105,-30 14,86 9,244 9,338l100 0c0,-60 0,-120 0,-180 0,-64 21,-89 84,-95 78,-8 89,19 89,91 1,61 0,121 0,182l100 3c0,-222 35,-338 -147,-345 -26,-1 -51,0 -74,8 -29,8 -35,18 -56,28l0 0z"/>
     <path fill="#08436A" d="M4361 1124l1 74c94,32 281,44 311,-48 53,-163 -200,-127 -217,-179 -1,-43 56,-41 92,-38 46,3 67,17 103,28l0 -73c-55,-23 -172,-27 -229,-5 -92,35 -79,129 -27,161 31,19 64,24 102,31 33,7 89,13 80,53 -7,32 -72,30 -108,26 -44,-5 -75,-24 -108,-30l0 0z"/>
     <path fill="#08436A" d="M4938 1550l769 1c-23,-44 -86,-83 -151,-102 -139,-41 -303,-19 -440,23 -43,14 -155,54 -178,78l0 0z"/>
     <path fill="#08436A" d="M2824 904l-8 -28 -98 -1c19,104 9,229 9,338l100 0c0,-42 -6,-199 5,-226 23,-63 109,-49 177,-43l-10 -65c-24,-13 -70,-13 -100,-8 -39,7 -49,20 -75,33l0 0z"/>
     <polygon fill="#08436A" points="3059,1150 3068,1213 3086,1213 3153,1213 3168,1212 3157,1150 3159,769 3059,769 "/>
     <path fill="#08436A" d="M2545 1213l92 0c-5,-32 -9,-39 -9,-76l0 -261 -99 -1c-1,59 -1,117 -1,175 0,35 -9,146 17,163l0 0z"/>
     <path fill="#08436A" d="M3268 1213l99 0c-21,-93 -8,-235 -10,-338l-99 0c-1,95 -9,256 10,338l0 0z"/>
     <path fill="#08436A" d="M4850 1147l0 59c64,-21 118,-55 236,-88 141,-40 177,-31 280,-54 -45,-1 -90,-10 -144,-7 -48,2 -92,8 -139,17 -59,11 -192,46 -233,73l0 0z"/>
     <path fill="#08436A" d="M3274 774c-14,6 -19,8 -21,27 -9,68 80,48 90,44 44,-18 21,-105 -69,-71z"/>
     <path fill="#08436A" d="M2547 773c-43,12 -39,99 61,73 26,-7 35,-40 20,-62 -13,-19 -59,-18 -81,-11z"/>
     <path fill="#08436A" d="M4850 982l0 28 149 -46c52,-13 110,-26 164,-33 -84,-10 -240,22 -313,51l0 0z"/>
     <path fill="#08436A" d="M6034 1448c61,-15 80,78 24,92 -65,17 -88,-77 -24,-92zm-2 -7c-78,18 -46,129 30,107 64,-18 45,-125 -30,-107z"/>
     <path fill="#08436A" d="M6032 1473c7,-1 16,-3 22,-1 11,4 6,2 9,13l-31 1 0 -13 0 0zm28 23c24,-17 10,-36 -21,-34l-16 2 0 60 9 1 1 -27c25,-1 6,19 37,27l-15 -25 5 -4z"/>
    </g>
   </g>
  </g>
  <polygon fill="none" points="0,2008 6119,2008 6119,0 0,0 "/>
 </g>
</svg>
