<svg width="118" height="50" viewBox="0 0 118 50" fill="none" xmlns="http://www.w3.org/2000/svg">
<path d="M17.9414 26.2778C19.2243 28.2583 20.5072 30.2389 21.7955 32.2161C20.1195 31.4163 18.4462 30.61 16.7729 29.8037C14.9595 28.9299 13.1462 28.0562 11.3298 27.1909V27.1454C11.3014 25.6237 11.3094 24.1015 11.3174 22.5795C11.3287 20.4405 11.3399 18.3018 11.2502 16.1649L11.2445 16C13.495 19.4136 15.7182 22.8458 17.9414 26.2778Z" fill="white"/>
<path d="M16.0015 31.3218C18.2125 32.2548 20.4238 33.188 22.6331 34.127C18.8541 34.1327 15.0779 34.1298 11.3018 34.127L11.3018 34.1287C9.56305 34.1221 7.82494 34.1228 6.08688 34.1235H6.08552C4.05725 34.1243 2.02904 34.1252 0 34.1144C2.78594 32.934 5.575 31.7567 8.36486 30.579L8.37568 30.5744C9.35287 30.1619 10.3302 29.7494 11.3075 29.3366L11.3075 29.3386C12.87 30.0003 14.4335 30.6601 15.9972 31.32L16.0015 31.3218Z" fill="white"/>
<path d="M11.3104 22.5781C11.3216 20.4392 11.3329 18.3004 11.2432 16.1636C8.6095 20.1804 5.99843 24.2102 3.38686 28.2407L3.38613 28.2418C2.52924 29.5643 1.67229 30.8868 0.814468 32.209C2.10296 31.5873 3.39298 30.9675 4.68313 30.3476C6.89817 29.2833 9.1142 28.2186 11.3228 27.144C11.2944 25.6223 11.3024 24.1002 11.3104 22.5781Z" fill="white"/>
<path fill-rule="evenodd" clip-rule="evenodd" d="M33.5835 17.8072C32.8567 17.8079 32.1298 17.8086 31.4028 17.8075C31.4047 21.0073 31.4041 24.2059 31.4034 27.4049V27.4061C31.4031 29.006 31.4028 30.606 31.4028 32.2063C32.1387 32.2029 32.8738 32.2044 33.6083 32.2059H33.6094C34.7449 32.2081 35.8796 32.2104 37.0139 32.1949C39.2975 32.1266 41.7376 31.4356 43.2705 29.6439C44.5787 28.1423 44.9797 26.052 44.7948 24.1153C44.647 22.4288 43.8962 20.7708 42.5823 19.6816C41.001 18.3421 38.8795 17.8558 36.8518 17.8103C35.7632 17.8052 34.6735 17.8062 33.5835 17.8072ZM34.6306 29.6809V20.33C34.8846 20.3316 35.1425 20.3288 35.4026 20.326C36.9658 20.3088 38.6061 20.2908 39.9204 21.2344C41.3565 22.244 41.7092 24.1693 41.513 25.8103C41.3964 27.1185 40.6996 28.4153 39.5051 29.0324C38.2737 29.7105 36.861 29.6966 35.4833 29.6831C35.197 29.6802 34.9119 29.6774 34.6306 29.6809Z" fill="white"/>
<path d="M52.5023 17.8073H62.6438V20.3299C60.343 20.3299 58.0423 20.3299 55.7416 20.327C55.7416 21.3679 55.7416 22.4088 55.7444 23.4497C56.7625 23.4483 57.7807 23.4483 58.7991 23.4483C59.8176 23.4483 60.8365 23.4483 61.856 23.4468C61.8532 24.2875 61.8532 25.1282 61.8532 25.9689V25.9722H55.7444C55.743 26.5893 55.743 27.2065 55.743 27.8236V27.8285C55.743 28.4469 55.743 29.0652 55.7416 29.6836C56.931 29.6821 58.1196 29.6821 59.308 29.6821H59.3103C60.4995 29.6821 61.6882 29.6821 62.877 29.6807C62.8784 30.1015 62.8784 30.5222 62.8784 30.9434C62.8784 31.3648 62.8784 31.7865 62.8798 32.209C59.4216 32.2033 55.9634 32.2061 52.5052 32.209C52.5052 31.0083 52.5054 29.808 52.5055 28.6079V28.6066C52.5061 25.0062 52.5066 21.4072 52.5023 17.8073Z" fill="white"/>
<path d="M71.7349 17.8083V32.21C74.8746 32.2043 78.0171 32.2071 81.1596 32.21C81.1568 31.3676 81.1568 30.528 81.1568 29.6884V29.6817C79.7822 29.6836 78.4077 29.683 77.0331 29.6823C76.3458 29.682 75.6585 29.6817 74.9713 29.6817C74.9727 27.7023 74.9727 25.7237 74.9727 23.7447V23.7132C74.9727 21.7447 74.9727 19.7758 74.9741 17.8055C73.8906 17.8083 72.8155 17.8083 71.7349 17.8083Z" fill="white"/>
<path d="M85.5808 17.8109C88.81 17.8066 92.0409 17.8071 95.2721 17.8077C96.3493 17.8079 97.4264 17.808 98.5036 17.808C98.5008 18.6498 98.5008 19.4888 98.5036 20.3306H93.6689C93.6689 24.2893 93.6689 28.2481 93.6661 32.2068C92.5825 32.204 91.4962 32.204 90.4126 32.2068C90.4145 29.5677 90.4139 26.9285 90.4133 24.2893C90.4129 22.9698 90.4126 21.6502 90.4126 20.3306H85.5808V17.8109Z" fill="white"/>
<path fill-rule="evenodd" clip-rule="evenodd" d="M104.753 25.505C103.823 27.7377 102.894 29.9702 101.962 32.2009C103.02 32.2009 104.078 32.2009 105.136 32.2037C105.292 31.803 105.448 31.4019 105.604 31.0008C105.916 30.198 106.228 29.3951 106.543 28.5948C107.838 28.5967 109.132 28.5961 110.426 28.5954C111.073 28.5951 111.72 28.5948 112.368 28.5948L112.369 28.5996C112.838 29.801 113.307 31.0024 113.781 32.2037C114.91 32.2009 116.039 32.2009 117.168 32.2037C116.14 29.6844 115.109 27.1666 114.078 24.6491C113.135 22.3469 112.193 20.045 111.253 17.7424C110.708 17.7409 110.164 17.7409 109.621 17.7409C109.077 17.7409 108.534 17.7409 107.991 17.7395C106.908 20.3264 105.83 22.9158 104.753 25.505ZM110.118 26.1639C109.234 26.1645 108.35 26.1651 107.465 26.1632C107.857 25.1774 108.246 24.1906 108.635 23.2039C108.909 22.5084 109.183 21.813 109.458 21.1181C109.702 21.7365 109.946 22.3554 110.189 22.9743C110.607 24.0374 111.026 25.1009 111.446 26.1632C111.003 26.1632 110.561 26.1636 110.118 26.1639Z" fill="white"/>
</svg>
