<?xml version="1.0" encoding="UTF-8"?>
<!DOCTYPE svg PUBLIC "-//W3C//DTD SVG 1.1//EN" "http://www.w3.org/Graphics/SVG/1.1/DTD/svg11.dtd">
<!-- Creator: CorelDRAW 2017 -->
<svg xmlns="http://www.w3.org/2000/svg" xml:space="preserve" width="90px" height="50px" version="1.1" shape-rendering="geometricPrecision" text-rendering="geometricPrecision" image-rendering="optimizeQuality" fill-rule="evenodd" clip-rule="evenodd"
viewBox="0 0 3623 2008"
 xmlns:xlink="http://www.w3.org/1999/xlink">
 <defs>
   <clipPath id="id0">
    <path d="M0 2008l3623 0 0 -2008 -3623 0 0 2008z"/>
   </clipPath>
 </defs>
 <g id="Vrstva_x0020_1">
  <metadata id="CorelCorpID_0Corel-Layer"/>
  <g>
  </g>
  <g clip-path="url(#id0)">
   <g>
    <g id="_2724483839296">
     <g id="_4Y.svg">
      <g>
       <g>
        <polygon fill="white" points="692,1616 552,1616 552,1155 692,1155 "/>
       </g>
       <path fill="white" d="M733 1473l136 0c4,33 26,48 79,48 53,0 76,-11 76,-37 0,-23 -19,-34 -65,-42l-48 -7c-103,-15 -163,-53 -163,-144 0,-90 57,-155 200,-155 129,0 197,49 200,151l-128 0c-4,-26 -19,-41 -68,-41 -45,0 -64,15 -64,34 0,19 11,30 49,37l49 8c117,15 177,53 177,148 0,98 -64,154 -215,154 -155,4 -211,-60 -215,-154z"/>
       <path fill="white" d="M1670 1321l-140 0c-7,-37 -34,-56 -91,-56 -64,0 -102,41 -102,120 0,80 38,121 102,121 53,0 80,-18 91,-56l140 0c-15,113 -79,181 -231,181 -173,0 -241,-110 -241,-246 0,-136 68,-245 241,-245 148,0 216,68 231,181l0 0z"/>
       <path fill="white" d="M1950 1140c177,0 249,98 249,245 0,148 -72,246 -249,246 -178,0 -250,-98 -250,-246 0,-147 72,-245 250,-245zm0 366c75,0 109,-45 109,-121 0,-75 -34,-120 -109,-120 -76,0 -110,45 -110,120 0,76 34,121 110,121z"/>
       <polygon fill="white" points="2331,1155 2437,1473 2543,1155 2694,1155 2520,1620 2354,1620 2180,1155 "/>
       <path fill="white" d="M3147 1423l-333 0c8,68 35,98 106,98 53,0 72,-15 83,-45l136 0c-7,91 -79,155 -219,155 -174,0 -242,-98 -242,-246 0,-124 57,-245 235,-245 166,0 234,98 234,245 0,8 0,23 0,38zm-140 -98c-4,-49 -26,-79 -94,-79 -61,0 -87,26 -95,79l189 0 0 0z"/>
       <path fill="white" d="M3415 1272c-49,0 -87,27 -87,83l0 261 -139 0 0 -461 132 0 0 53 0 0c19,-34 57,-68 128,-68 4,0 19,0 27,0l0 132c-23,0 -42,0 -61,0l0 0z"/>
       <path fill="white" d="M491 974l0 642 -128 0 0 -42c-31,35 -76,57 -144,57 -162,0 -219,-98 -219,-246 0,-147 57,-245 219,-245 61,0 106,19 136,49l0 -215 136 0zm-132 411c0,-75 -34,-120 -110,-120 -75,0 -109,45 -109,120 0,76 34,121 109,121 76,0 110,-45 110,-121z"/>
       <circle fill="white" cx="3540" cy="1544" r="83"/>
      </g>
      <g>
       <polygon fill="white" points="238,558 231,604 110,604 110,668 227,668 216,717 110,717 110,789 238,789 227,834 57,834 57,558 "/>
       <path fill="white" d="M1825 713c11,0 22,4 30,8 8,4 12,7 19,15 4,4 8,11 8,19 0,7 3,11 3,18l0 4c0,12 -3,23 -7,31 -4,7 -11,15 -19,18 -8,4 -23,8 -34,12 -12,3 -23,3 -34,3 -12,0 -23,0 -34,-3 -12,0 -27,-4 -38,-8l8 -37c11,3 22,3 33,7 12,0 19,4 31,4 7,0 15,0 22,0 8,0 12,-4 12,-4 3,-4 7,-4 7,-7 0,-4 0,-4 0,-8 0,-8 0,-12 -4,-15 -3,-4 -7,-8 -18,-8l-31 -4c-19,-3 -41,-7 -49,-18 -11,-12 -15,-23 -15,-38l0 -12c0,-18 8,-33 23,-45 19,-11 45,-15 72,-15 15,0 26,0 37,4 12,3 20,3 27,7l-7 38c-8,-4 -20,-4 -27,-4 -12,0 -19,0 -27,0 -18,0 -30,0 -34,4 -7,4 -7,8 -7,15 0,8 3,11 7,15 4,4 12,4 19,8l27 -4z"/>
       <path fill="white" d="M1639 634c-15,-4 -26,-8 -45,-8 -15,0 -34,4 -49,8 -11,3 -22,11 -30,19 -8,7 -15,19 -19,30 -4,11 -8,26 -8,45l0 15c0,34 8,57 19,72 16,15 38,26 64,26 27,0 46,-7 61,-22l0 7c0,23 -4,35 -11,46 -8,11 -27,15 -46,15 -15,0 -22,0 -34,-4 -11,0 -22,-4 -30,-7l-8 41c12,4 27,8 38,12 15,3 27,3 46,3 34,0 60,-7 75,-26 19,-19 27,-45 27,-76l0 -181c-15,-8 -34,-12 -50,-15l0 0zm-7 109c0,19 -4,30 -11,42 -8,8 -19,11 -34,11 -8,0 -16,0 -23,-3 -4,-4 -11,-8 -11,-12 -4,-4 -4,-11 -8,-19 0,-7 0,-15 0,-26l0 -15c0,-19 4,-34 11,-46 8,-7 19,-15 38,-15 8,0 15,0 19,4 8,0 11,4 19,8l0 71z"/>
       <path fill="white" d="M1266 834l0 -200 49 0 4 23c7,-8 15,-16 26,-20 11,-3 22,-7 34,-7 11,0 23,0 34,4 7,3 15,7 22,11 8,8 12,12 16,23 4,7 4,19 4,30l0 136 -53 0 0 -125c0,-15 -4,-26 -8,-34 -7,-7 -15,-7 -30,-7 -15,0 -27,7 -34,19 -8,7 -8,26 -8,45l0 106 -56 0 0 -4 0 0z"/>
       <path fill="white" d="M627 679c-3,0 -7,0 -11,-4 -4,0 -8,0 -15,0 -19,0 -30,4 -38,15 -7,8 -11,19 -11,38l0 110 -57 0 0 -204 53 0 4 23c7,-8 15,-16 22,-20 12,-3 23,-7 34,-7 4,0 12,0 16,0 3,0 7,0 11,4l-8 45 0 0z"/>
       <path fill="white" d="M461 634l0 200 -49 0 -4 -23c-8,8 -15,15 -26,19 -12,4 -23,8 -34,8 -12,0 -23,0 -34,-4 -8,-4 -15,-8 -23,-11 -7,-8 -11,-12 -15,-23 -4,-7 -4,-19 -4,-30l0 -136 53 0 0 124c0,15 4,27 7,35 8,7 16,11 31,11 15,0 26,-8 34,-19 7,-12 7,-30 7,-45l0 -106 57 0 0 0z"/>
       <path fill="white" d="M1201 551c12,0 19,3 23,7 4,4 7,11 7,19 0,8 -3,15 -7,19 -4,4 -11,8 -23,8 -11,0 -18,-4 -22,-8 -8,-4 -8,-11 -8,-19 0,-8 4,-15 8,-19 4,-4 11,-7 22,-7zm-26 83l56 0 0 200 -56 0 0 -200z"/>
       <polygon fill="white" points="1062,758 1092,634 1145,634 1084,834 1035,834 1001,713 967,834 914,834 854,634 911,634 941,758 975,641 1027,641 "/>
       <path fill="white" d="M839 687c-4,-12 -8,-23 -15,-30 -8,-8 -16,-16 -31,-20 -11,-3 -30,-7 -49,-7 -19,0 -37,4 -49,7 -11,4 -23,12 -30,20 -8,7 -11,18 -15,30 -4,11 -4,22 -4,38l0 18c0,15 4,27 4,38 4,12 7,23 15,30 7,8 15,15 30,19 12,4 34,8 49,8 19,0 38,-4 49,-8 12,-4 23,-11 31,-22 7,-8 11,-19 15,-31 4,-11 4,-22 4,-37l0 -15c3,-12 0,-27 -4,-38zm-49 56c0,23 -4,34 -12,46 -7,7 -18,11 -34,11 -7,0 -15,0 -19,-4 -7,0 -11,-3 -15,-7 -3,-4 -7,-12 -7,-19 0,-8 -4,-15 -4,-27l0 -22c0,-19 4,-34 11,-46 8,-7 19,-11 38,-11 15,0 27,4 34,11 8,8 11,23 11,46l0 22 -3 0z"/>
       <g>
        <path fill="white" d="M2078 328c-45,-8 -68,18 -98,41l-106 83 0 0 19 12 0 0c26,11 64,7 87,-12l45 -34 23 -15 83 -68 -53 -7z"/>
        <path fill="white" d="M1878 452l19 12 0 0c26,11 64,7 86,-12l46 -34 19 -15 -170 49 0 0z"/>
        <path fill="white" d="M2259 381l-56 -12c0,0 -38,-7 -72,15 0,0 -23,19 -42,30l-41 31 -91 72 0 0 0 0 26 15c27,11 65,7 88,-11l83 -57 68 -53 37 -30z"/>
        <path fill="white" d="M2089 418c19,-15 42,-30 42,-30 8,-4 11,-7 19,-11l-102 26 0 0 -19 15 -46 34c-26,19 -60,23 -86,12 22,15 56,15 109,0l38 -12 4 -3 41 -31 0 0z"/>
        <path fill="white" d="M2233 449c19,-15 30,-23 42,-31l-114 38 -7 8 -83 64c-27,19 -61,23 -88,11 42,23 103,8 156,-11l0 0 3 -4c0,0 87,-72 91,-75l0 0z"/>
        <path fill="white" d="M2369 524c-46,-15 -61,-3 -114,12l0 0 -3 3 0 0 0 0 0 0 0 0 -87 68c-26,19 -64,23 -91,8 34,19 68,11 125,-4l230 -72 -60 -15 0 0z"/>
        <path fill="white" d="M2384 426l-61 -12c-37,-7 -52,4 -90,35 -4,3 -91,72 -91,72l0 0 -98 79 27 15c26,11 64,11 90,-8l87 -68 0 0 0 0 136 -113 0 0z"/>
        <polygon fill="white" points="2044,452 2237,396 2161,456 1953,524 "/>
        <polygon fill="white" points="2139,524 2350,452 2255,536 2044,604 "/>
       </g>
      </g>
     </g>
    </g>
   </g>
  </g>
  <polygon fill="none" points="0,2008 3623,2008 3623,0 0,0 "/>
 </g>
</svg>
