<?xml version="1.0" encoding="UTF-8"?>
<!DOCTYPE svg PUBLIC "-//W3C//DTD SVG 1.1//EN" "http://www.w3.org/Graphics/SVG/1.1/DTD/svg11.dtd">
<!-- Creator: CorelDRAW 2017 -->
<svg xmlns="http://www.w3.org/2000/svg" xml:space="preserve" width="125px" height="50px" version="1.1" shape-rendering="geometricPrecision" text-rendering="geometricPrecision" image-rendering="optimizeQuality" fill-rule="evenodd" clip-rule="evenodd"
viewBox="0 0 5586 2236"
 xmlns:xlink="http://www.w3.org/1999/xlink">
 <g id="Vrstva_x0020_1">
  <metadata id="CorelCorpID_0Corel-Layer"/>
  <rect fill="none" width="5586" height="2236"/>
  <g id="_2724483816576">
   <g id="_2251463368176">
    <g id="Page-1">
     <g id="logo_hawaiian_airlines_logoroll">
      <g id="hawaiian_airlines_logo">
       <g id="g556">
        <g id="Group">
         <g id="g558">
          <g id="g564">
           <path id="path566" fill="white" d="M4042 1791c0,-4 -2,-5 -5,-5l-8 0c-1,0 -1,0 -1,1l0 8c0,1 0,1 1,1l8 0c3,0 5,-2 5,-5l0 0zm-20 25c0,0 0,-1 0,-1l0 -33c0,-1 0,-1 0,-1l15 0c8,0 12,3 12,11 0,6 -3,9 -7,10l7 14c1,1 0,1 0,1l-4 0c-1,0 -1,-1 -2,-1l-8 -13 -6 0c-1,0 -1,0 -1,1l0 13c0,1 -1,1 -1,1l-5 0 0 -2zm39 -18c0,-15 -12,-26 -27,-26 -15,0 -26,11 -26,26 0,16 12,27 26,27 15,0 27,-12 27,-27l0 0zm-60 0c0,-18 14,-32 33,-32 18,0 32,14 32,32 0,19 -14,34 -32,34 -19,-1 -33,-15 -33,-34l0 0z"/>
          </g>
          <g id="g568">
           <path id="path570" fill="white" d="M476 824l0 498c0,22 0,54 -31,54l-84 0 0 -225 -246 0 0 171c0,22 2,54 -29,54l-86 0 0 -498c0,-23 0,-54 31,-54l84 0 0 237 247 0 0 -183c0,-21 -2,-54 28,-54l86 0z"/>
          </g>
          <g id="g572">
           <path id="path574" fill="white" d="M891 1136l-79 -232 -112 306 5 0c15,-27 52,-76 117,-76l69 2 0 0 0 0 0 0zm183 240l-101 0 -53 -154 -220 0 -38 113c-6,18 -14,41 -43,41l-83 0 179 -506c7,-18 15,-46 46,-46l136 0 190 534c3,10 -2,18 -13,18l0 0z"/>
          </g>
          <g id="g576">
           <path id="path578" fill="white" d="M1861 824l-184 511c-3,11 -11,41 -40,41l-70 0 -105 -294 -93 254c-3,11 -11,41 -40,41l-76 0 -191 -534c-3,-11 2,-18 14,-18l100 0 138 411 99 -293 -36 -100c-4,-11 2,-18 13,-18l102 0 127 400 110 -360c6,-18 15,-40 44,-40l88 0 0 -1 0 0z"/>
          </g>
          <g id="g580">
           <path id="path582" fill="white" d="M2180 1136l-78 -232 -113 306 5 0c15,-27 52,-76 117,-76l69 2 0 0 0 0 0 0zm183 240l-101 0 -53 -154 -218 0 -38 113c-7,18 -15,41 -44,41l-84 0 180 -506c7,-18 15,-46 45,-46l137 0 190 534c3,10 -3,18 -14,18l0 0z"/>
          </g>
          <g id="g584">
           <path id="path586" fill="white" d="M2441 877c0,-22 0,-53 27,-53l88 0 0 424 0 74c0,22 0,53 -27,53l-88 0 0 -498z"/>
          </g>
          <g id="g588">
           <path id="path590" fill="white" d="M2675 877c0,-22 0,-53 26,-53l88 0 0 415 0 83c0,22 0,53 -26,53l-88 0 0 -498 0 0z"/>
          </g>
          <g id="g592">
           <path id="path594" fill="white" d="M3204 1136l-79 -232 -112 306 4 0c15,-27 53,-76 117,-76l70 2 0 0 0 0zm183 240l-101 0 -53 -154 -220 0 -38 113c-7,18 -15,41 -43,41l-84 0 180 -506c6,-18 15,-46 45,-46l137 0 190 534c3,10 -2,18 -13,18l0 0 0 0z"/>
          </g>
          <g id="g596">
           <path id="path598" fill="white" d="M3948 824l0 498c0,22 0,54 -27,54l-72 0 -273 -365 0 311c0,22 0,54 -29,54l-82 0 0 -498c0,-23 0,-54 27,-54l75 0 270 372 0 -318c0,-23 -5,-54 26,-54l85 0z"/>
          </g>
          <g id="g600">
           <path id="path602" fill="white" d="M2117 1733l-43 -125 -1 0 -45 125 89 0 0 0zm-62 -174c1,-2 2,-4 5,-4l27 0c2,0 4,2 5,4l96 268c1,2 -1,4 -3,4l-29 0c-3,0 -4,-1 -5,-4l-22 -60 -113 0 -21 60c-1,3 -3,4 -6,4l-29 0c-2,0 -3,-2 -2,-4l97 -268z"/>
          </g>
          <g id="g604">
           <path id="path606" fill="white" d="M2275 1559c0,-2 2,-4 4,-4l28 0c3,0 3,2 3,4l0 212 0 56c0,1 -1,3 -3,3l-28 0c-3,0 -4,-2 -4,-3l0 -268z"/>
          </g>
          <g id="g608">
           <path id="path610" fill="white" d="M2594 1634c0,-29 -19,-46 -52,-46l-66 0c-2,0 -3,1 -3,2l0 87c0,2 1,2 3,2l66 0c33,1 52,-16 52,-45l0 0 0 0zm6 196c-2,0 -3,-1 -5,-3l-56 -114 -62 0c-2,0 -3,2 -3,2l0 111c0,1 -2,3 -4,3l-27 0c-3,0 -4,-2 -4,-3l0 -268c0,-2 2,-4 4,-4l101 0c52,0 87,32 87,79 0,38 -21,65 -55,75l60 116c1,2 0,4 -3,4l-33 2 0 0 0 0z"/>
          </g>
          <g id="g612">
           <path id="path614" fill="white" d="M2741 1559c0,-2 2,-4 4,-4l28 0c2,0 4,2 4,4l0 235c0,2 0,2 2,2l134 0c2,0 3,2 3,4l0 25c0,2 -1,3 -3,3l-168 0c-3,0 -4,-1 -4,-3l0 -266 0 0z"/>
          </g>
          <g id="g616">
           <path id="path618" fill="white" d="M2999 1559c0,-2 2,-4 4,-4l27 0c3,0 4,2 4,4l0 195 0 72c0,1 -2,3 -4,3l-27 0c-3,0 -4,-2 -4,-3l0 -267z"/>
          </g>
          <g id="g620">
           <path id="path622" fill="white" d="M3163 1559c0,-2 1,-4 3,-4l26 0c4,0 6,1 7,4l126 206 2 0 0 -206c0,-2 2,-4 4,-4l26 0c3,0 4,2 4,4l0 268c0,1 -2,3 -4,3l-26 0c-3,0 -6,-1 -7,-3l-127 -206 -1 0 0 206c0,1 -2,3 -4,3l-26 0c-3,0 -3,-2 -3,-3l0 -268 0 0z"/>
          </g>
          <g id="g624">
           <path id="path626" fill="white" d="M3488 1559c0,-2 2,-4 3,-4l168 0c3,0 4,2 4,4l0 25c0,2 -2,3 -4,3l-132 0c-2,0 -3,1 -3,2l0 81c0,2 1,2 3,2l113 0c3,0 4,2 4,3l0 26c0,1 -2,3 -4,3l-113 0c-2,0 -3,1 -3,2l0 83c0,2 1,2 3,2l132 0c3,0 4,2 4,4l0 25c0,2 -2,4 -4,4l-168 0c-2,0 -3,-2 -3,-4l0 -261z"/>
          </g>
          <g id="g628">
           <path id="path630" fill="white" d="M3757 1800c-2,-2 -3,-4 -1,-6l19 -21c2,-1 3,-1 5,-1 19,15 47,29 78,29 39,0 61,-19 61,-47 0,-24 -14,-39 -58,-46l-14 -1c-55,-8 -82,-34 -82,-76 0,-49 36,-81 91,-81 33,0 64,10 86,25 2,2 2,4 0,5l-14 23c-1,2 -3,2 -5,1 -23,-14 -43,-21 -68,-21 -34,0 -53,19 -53,45 0,23 16,39 59,43l14 2c55,8 81,32 81,77 0,48 -34,84 -102,84 -39,1 -77,-15 -97,-34l0 0z"/>
          </g>
         </g>
        </g>
       </g>
       <g id="Group_1_">
        <g id="g638">
         <g id="g644">
          <g id="g646">
           <g>
            <path id="path656" fill="white" d="M4151 961c0,325 237,595 548,648l0 0c-2,23 -5,46 -9,63l0 0c-21,104 -93,200 -134,223l0 0c105,-9 189,-40 239,-88l0 0 0 0c-4,0 -37,-1 -39,-1l0 0c19,-7 40,-17 58,-28l0 0 0 0 0 0 0 0 0 0 0 0 0 0c8,-60 5,-132 -11,-222l0 0c-21,-115 -65,-153 -72,-161l0 0c-1,-1 -1,-1 -1,-1l0 0c0,0 1,0 2,0l0 0c37,-24 69,-51 84,-64l0 0c11,-9 7,-14 -5,-9l0 0c-31,14 -82,32 -148,40l0 0c-57,7 -126,6 -200,-8l0 0c0,0 -52,-8 -45,-60l0 0c2,-15 9,-29 16,-44l0 0c2,-5 7,-19 5,-30l0 0c-1,-3 -5,-8 -7,-11l0 0c-3,-6 -5,-14 -1,-23l0 0c4,-8 17,-20 37,-22l0 0c9,0 19,0 30,0l0 0c14,0 28,0 39,-2l0 0c30,-6 48,-25 45,-32l0 0c-3,-4 -30,1 -38,3l0 0c-14,3 -38,-8 -52,-12l0 0c-19,-7 -30,-11 -47,-4l0 0c-11,5 -19,26 -22,16l0 0c-1,-5 1,-9 4,-15l0 0c4,-5 12,-15 12,-20l0 0c1,-6 3,-15 -15,-27l0 0c-13,-10 -21,-15 -26,-21l0 0c-17,-16 -20,-33 13,-60l0 0c23,-18 73,-69 88,-101l0 0c3,-4 15,-24 1,-44l0 0c-10,-15 -12,-18 -15,-24l0 0c-8,-13 -3,-26 10,-45l0 0c6,-9 11,-20 23,-58l0 0c15,-44 37,-82 68,-114l0 0 0 0c3,-7 6,-57 35,-103l0 0c10,-19 23,-38 40,-57l0 0c12,-12 31,-27 55,-40l0 0c25,-14 54,-29 91,-38l0 0c42,-13 92,-21 148,-21l0 0c42,1 81,4 128,16l0 0 0 0 0 0c0,0 3,1 6,2l0 0c-85,-39 -178,-61 -277,-61l0 0c-364,2 -661,297 -661,660l0 0zm265 81c-1,3 0,4 3,5l0 0c12,5 18,8 40,21l0 0c26,15 37,3 43,-8l0 0c2,-2 4,-13 1,-16l0 0c-3,-4 -8,-1 -12,4l0 0c-6,5 -20,3 -24,1l0 0c-5,-1 -26,-5 -40,-8l0 0c-2,-1 -4,-1 -6,-1l0 0c-3,0 -5,0 -5,2z"/>
           </g>
          </g>
         </g>
        </g>
        <g id="g660">
         <g id="g666">
          <path id="path668" fill="white" d="M4717 738c-4,-1 -91,-20 -120,-18 -30,2 -54,18 -70,36 -9,9 -12,18 -14,27 -1,14 9,20 20,16 9,-2 15,-9 25,-21 5,-8 9,-18 17,-23 14,-9 38,-10 77,-10 30,1 55,3 60,3 12,-2 10,-9 5,-10l0 0z"/>
         </g>
         <g id="g670">
          <path id="path672" fill="white" d="M4666 817c-16,-9 -38,-9 -43,-10 -4,-1 -5,-5 1,-8 10,-4 26,-1 26,-4 1,-3 -3,-8 -15,-13 -7,-3 -20,-3 -30,-3 -27,2 -42,19 -44,22 -3,2 -8,7 -10,14 -2,10 5,17 10,26 3,4 6,8 7,11 1,4 1,7 -4,10 -5,3 -2,10 7,7 11,-2 17,-5 26,-13 11,-9 11,-15 19,-23 7,-7 33,-7 46,-5 17,3 21,0 4,-11l0 0z"/>
         </g>
         <g id="g674">
          <path id="path676" fill="white" d="M5484 941c0,-30 -9,-88 -10,-100 -4,-36 -12,-84 -40,-153 -30,-74 -55,-126 -129,-199 -87,-84 -190,-119 -214,-126 -4,-1 -6,-1 -6,-1l0 0c-46,-12 -86,-15 -128,-16 -147,-3 -256,58 -294,99 -17,19 -30,38 -39,57 -30,46 -34,97 -35,103l0 0c2,-2 38,-41 77,-52 10,15 31,37 72,57 42,21 88,33 88,33 0,0 57,17 116,36 46,17 94,76 94,88 0,26 -25,50 -50,126 -27,81 -36,159 -27,250 0,0 0,0 0,1l0 1c5,54 17,113 35,181l0 0c15,54 19,109 17,161 -13,134 -96,235 -196,292l0 0 0 0c-20,10 -38,20 -59,28 3,0 36,1 39,1 85,-1 203,-17 305,-121 35,-37 63,-75 81,-111 7,-15 37,-68 54,-173 3,-14 10,-60 10,-60 0,0 4,33 5,62 1,39 3,89 -21,164 8,-2 48,-31 95,-94 17,-23 33,-46 47,-72 67,-104 115,-228 113,-462l0 0z"/>
         </g>
         <g id="g678">
          <g>
           <path id="path680" fill="white" d="M5119 710c-1,5 1,6 6,3 18,-15 48,-36 89,-44 50,-9 77,-33 91,-59 8,-17 14,-46 38,-63 8,-5 0,-7 -6,-6 -6,1 -39,10 -60,32 -15,-15 -14,-35 -11,-47 0,-4 -3,-6 -7,-3 -16,13 -27,30 -31,42 0,0 -13,-10 -5,-31 1,-4 -2,-3 -3,-2 -23,17 -21,42 -21,45 0,0 -24,-13 -59,-18 -6,-23 -45,-29 -52,-5 -5,21 32,38 48,20 0,0 51,6 95,49 5,5 6,9 3,11 -2,1 -9,-2 -17,-8 -9,-6 -70,-45 -123,-18 -3,0 -3,3 -1,3 10,3 32,11 38,25 -15,4 -37,12 -54,46 -4,9 1,10 6,6 5,-4 39,-21 51,-20 1,3 -11,18 -15,42l0 0 0 0zm423 -247c-1,17 3,64 16,106 14,46 -11,88 -52,111 -14,-20 -40,-30 -64,-32 -14,0 -11,6 -3,8 98,40 64,153 51,177 -13,24 -10,56 -10,56 -30,-9 -58,-3 -83,1 -48,8 -81,-1 -107,-12 -20,-9 -51,-30 -56,-68 -1,-8 -6,-12 -9,0 -4,24 0,52 15,69 -17,88 -193,82 -193,82 -12,-38 -92,-49 -110,-105 -8,-26 -2,-54 -2,-54 47,10 73,-10 88,-28 8,-11 1,-12 -5,-8 -59,36 -112,0 -124,-51 -14,-55 -70,-74 -70,-74 40,-25 29,-68 50,-104 55,-95 134,-67 134,-67 7,23 30,40 53,46 13,3 12,-3 6,-8 -56,-39 -42,-102 2,-130 77,-52 90,-73 90,-73 14,10 52,19 90,23 89,7 109,51 111,69 -10,6 -28,21 -36,47 -5,13 3,11 7,6 35,-45 76,-37 116,-19 23,11 59,39 95,32l0 0z"/>
          </g>
         </g>
        </g>
       </g>
      </g>
     </g>
    </g>
   </g>
  </g>
 </g>
</svg>
