<svg width="109" height="50" viewBox="0 0 109 50" fill="none" xmlns="http://www.w3.org/2000/svg">
<g clip-path="url(#clip0_767_43600)">
<path d="M108.999 15.7461C107.418 15.7461 105.93 15.8391 104.349 16.0251C102.675 16.2111 101.094 16.5831 99.6061 17.5132C98.3041 18.2572 97.281 19.2802 96.258 20.3963L92.3519 24.3024C91.8868 24.8139 91.3986 25.3022 90.9103 25.7905C90.422 26.2787 89.9338 26.767 89.4688 27.2785C90.0513 26.9144 90.6339 26.4933 91.1719 26.1044C91.3209 25.9966 91.4666 25.8914 91.6078 25.7905C96.444 22.7213 101.745 20.3033 107.418 19.6522C107.538 19.6522 107.58 19.5376 107.62 19.4307C107.643 19.3709 107.664 19.3136 107.697 19.2802C107.883 18.6757 108.116 18.0944 108.348 17.5132C108.581 16.9319 108.813 16.3506 108.999 15.7461Z" fill="white"/>
<path d="M3.53413 18.1641H0.27901C-0.0930034 22.1632 -0.0930034 26.2554 0.27901 30.2545H3.53413C3.90614 26.2554 3.90614 22.1632 3.53413 18.1641Z" fill="white"/>
<path fill-rule="evenodd" clip-rule="evenodd" d="M7.62472 21.2337C7.65572 20.8927 7.67639 20.5517 7.69706 20.2107C7.73839 19.5287 7.77973 18.8467 7.90373 18.1646H13.6699C13.9146 18.1646 14.1643 18.1621 14.4173 18.1596C15.7034 18.1466 17.0767 18.1328 18.3201 18.4436C19.1571 18.7227 19.9012 19.1877 20.2732 19.9317C20.7382 20.9547 20.6452 22.0708 19.9942 23.0008C19.8322 23.2438 19.5997 23.4162 19.2966 23.641C19.2517 23.6743 19.2052 23.7088 19.1571 23.7448C19.8082 24.0238 20.5522 24.4889 20.8312 25.2329C21.3892 26.2559 21.2962 27.651 20.5522 28.674C19.9942 29.511 19.0641 29.7901 18.1341 29.9761C17.1111 30.1621 16.181 30.2551 15.158 30.2551H7.90373C7.62472 27.279 7.53172 24.2099 7.62472 21.2337ZM11.4379 20.4897C11.3449 21.3267 11.3449 22.1638 11.3449 23.0008C13.0189 23.0938 14.693 23.0938 16.367 23.0008C16.8321 22.6288 17.0181 22.0708 16.8321 21.5128C16.8321 21.0477 16.46 20.6757 15.995 20.5827C15.53 20.4897 14.972 20.4897 14.414 20.4897H11.4379ZM11.3449 25.2329C11.3449 26.0699 11.3449 26.907 11.4379 27.744C11.3616 27.9726 11.6602 27.9514 11.8728 27.9363C11.9196 27.933 11.9623 27.93 11.9959 27.93C12.3417 27.93 12.6933 27.9357 13.0478 27.9415C14.123 27.959 15.2249 27.9769 16.274 27.837C17.0181 27.744 17.5761 27.093 17.4831 26.4419C17.4831 25.6979 16.7391 25.2329 16.088 25.2329H11.3449Z" fill="white"/>
<path d="M24.2747 18.1641C23.8097 22.1632 23.9027 26.2554 24.1817 30.2545H35.7141C35.6676 29.836 35.6444 29.4407 35.6211 29.0455C35.5979 28.6502 35.5746 28.2549 35.5281 27.8364H27.8089C27.7159 26.9994 27.7159 26.1624 27.7159 25.3253C28.4841 25.3253 29.2625 25.3152 30.0477 25.3049C31.6389 25.2842 33.258 25.2631 34.8771 25.3253V23.0002H27.6229C27.6694 22.5817 27.6926 22.1865 27.7159 21.7912C27.7391 21.3959 27.7624 21.0007 27.8089 20.5822H35.5281C35.5746 20.1636 35.5979 19.7684 35.6211 19.3731C35.6444 18.9778 35.6676 18.5826 35.7141 18.1641H24.2747Z" fill="white"/>
<path fill-rule="evenodd" clip-rule="evenodd" d="M39.0603 18.1641H47.5236L47.5988 18.1703C48.6978 18.2616 49.9646 18.3667 50.9647 19.0941C52.4528 20.3961 52.4528 22.9072 51.1507 24.3023C50.6857 24.7673 50.2207 25.0463 49.6627 25.2323C50.2207 25.8833 50.7787 26.5344 51.2437 27.2784C51.8947 28.2084 52.5458 29.2315 53.0108 30.2545H48.9186C48.1746 28.6734 47.4306 27.0924 46.2215 25.7903C45.4221 25.7288 44.6227 25.7487 43.7964 25.7692C43.373 25.7797 42.9425 25.7903 42.5014 25.7903L42.7804 30.2545H39.0603C38.6882 26.2554 38.6882 22.1632 39.0603 18.1641ZM42.5014 23.4653C43.0629 23.4653 43.6244 23.4757 44.1824 23.4861C45.288 23.5067 46.3798 23.5271 47.4306 23.4653C48.2676 23.0932 48.7326 21.8842 48.1746 21.1402C47.8026 20.5822 47.0586 20.4891 46.4075 20.4891C45.543 20.4274 44.7195 20.4476 43.8825 20.4682C43.4589 20.4786 43.0319 20.4891 42.5944 20.4891C42.5944 21.0007 42.5711 21.4889 42.5479 21.9772C42.5246 22.4655 42.5014 22.9537 42.5014 23.4653Z" fill="white"/>
<path d="M55.7087 18.1641C55.3367 22.1632 55.3367 26.2554 55.7087 30.2545H58.9638C59.3358 26.2554 59.3358 22.1632 58.9638 18.1641H55.7087Z" fill="white"/>
<path fill-rule="evenodd" clip-rule="evenodd" d="M67.1468 18.1641H70.9599C72.2619 20.0241 73.285 21.9771 74.308 23.9301C75.331 25.9762 76.2611 28.1154 77.0981 30.2545H73.099C73.006 30.0065 72.9233 29.7585 72.8407 29.5105C72.6753 29.0145 72.51 28.5184 72.262 28.0224H65.8447C65.7517 28.2704 65.6587 28.5081 65.5657 28.7458C65.3798 29.221 65.1937 29.6966 65.0077 30.2545H61.1016C61.8456 28.1154 62.8686 25.9763 63.8917 23.9303C64.8217 21.9772 65.9377 20.0241 67.1468 18.1641ZM69.0069 21.1402C68.1698 22.6282 67.4258 24.2093 66.7748 25.7903H71.3319C70.7739 24.3023 70.0299 22.9073 69.2859 21.5123C69.2655 21.4715 69.2495 21.4351 69.2352 21.4023C69.1839 21.2854 69.1521 21.2128 69.0069 21.1402Z" fill="white"/>
<path d="M103.327 23.3283C103.045 23.3758 102.766 23.4228 102.492 23.465C100.445 23.837 98.3993 24.4881 96.4463 25.2321C92.3541 26.8131 88.541 29.0452 85.1929 31.8353C83.7978 32.9514 82.4958 34.2534 81.2867 35.5555C79.8917 36.9505 78.4036 38.4386 77.1016 39.8336C78.9616 39.8336 80.8217 39.8336 82.7748 39.7406C85.5649 39.5546 88.448 39.2756 91.2381 38.6246C94.6792 37.8805 98.2133 36.5785 100.724 34.0674C102.212 32.5794 103.236 30.7193 104.073 28.7662C104.817 26.9061 105.561 24.9531 106.212 23C105.277 23 104.287 23.1667 103.327 23.3283Z" fill="white"/>
</g>
<defs>
<clipPath id="clip0_767_43600">
<rect width="109" height="50" fill="white"/>
</clipPath>
</defs>
</svg>
