<?xml version="1.0" encoding="UTF-8"?>
<!DOCTYPE svg PUBLIC "-//W3C//DTD SVG 1.1//EN" "http://www.w3.org/Graphics/SVG/1.1/DTD/svg11.dtd">
<!-- Creator: CorelDRAW 2017 -->
<svg xmlns="http://www.w3.org/2000/svg" xml:space="preserve" width="92px" height="50px" version="1.1" shape-rendering="geometricPrecision" text-rendering="geometricPrecision" image-rendering="optimizeQuality" fill-rule="evenodd" clip-rule="evenodd"
viewBox="0 0 3703 2017"
 xmlns:xlink="http://www.w3.org/1999/xlink">
 <defs>
   <clipPath id="id0">
    <path d="M0 2017l3703 0 0 -2017 -3703 0 0 2017z"/>
   </clipPath>
 </defs>
 <g id="Vrstva_x0020_1">
  <metadata id="CorelCorpID_0Corel-Layer"/>
  <g>
  </g>
  <g clip-path="url(#id0)">
   <g>
    <g id="_2858794223968">
     <g id="JQ.svg">
      <g id="JQ">
       <g>
        <path fill="#08436A" d="M3103 373l1 0c8,126 15,253 22,379 23,3 47,2 70,2 154,0 307,0 460,1l0 2c-59,36 -116,76 -174,114 -59,40 -119,78 -178,118 -53,35 -107,69 -159,106 26,183 49,367 75,551l-1 0c-25,-19 -45,-43 -68,-64 -75,-71 -149,-143 -224,-213 -33,-32 -65,-65 -99,-94 -18,4 -34,15 -50,24 -148,76 -295,152 -443,228 -29,14 -56,31 -86,43 20,-34 44,-66 66,-99 82,-123 165,-245 247,-368 7,-12 18,-21 22,-35 -1,-6 -7,-10 -12,-15 -47,-45 -94,-90 -140,-137 -55,-53 -111,-106 -164,-161 36,-2 72,-1 107,-1 128,0 256,0 385,0 12,0 24,1 37,-1 13,-13 23,-29 35,-43 90,-112 180,-224 271,-337l0 0 0 0z"/>
       </g>
       <g>
        <path fill="#08436A" d="M1768 754c1,-82 0,-163 1,-245 89,0 178,0 267,0 0,82 0,163 0,245 55,0 109,0 164,0 -1,58 0,116 -1,173 -54,-1 -109,0 -164,0 0,148 -1,297 -1,445 55,1 110,0 165,1 -1,65 0,130 -1,195 -53,2 -105,9 -157,8 -40,-2 -80,-3 -119,-12 -1,2 -2,4 -4,6 0,-3 -2,-9 -3,-11l-1 4c-32,-9 -63,-22 -87,-45 -43,-43 -53,-106 -58,-165 -4,-70 -1,-141 -2,-212 2,-72 1,-143 2,-215 -45,1 -90,1 -136,1 0,-58 1,-115 0,-173 45,0 90,0 135,0l0 0 0 0z"/>
        <path fill="#08436A" d="M489 513c98,0 195,0 293,0 0,127 0,254 0,381 -2,98 0,197 -1,296 1,69 -5,140 -32,205 -25,62 -72,115 -131,146 -73,38 -157,47 -238,47 -77,-1 -156,-11 -225,-48 -42,-23 -77,-58 -101,-100 -39,-68 -49,-148 -54,-226l0 -95c91,0 182,0 273,0 0,34 0,68 0,102 0,30 7,62 29,85 21,23 52,31 82,31 27,0 58,-8 75,-30 27,-33 29,-77 30,-117 0,-226 1,-451 0,-677l0 0 0 0z"/>
        <g>
         <path fill="#08436A" d="M976 817c78,-58 174,-89 271,-87 99,-1 202,28 278,94 34,28 60,64 82,101 36,65 56,138 62,212 3,29 1,59 2,88 -199,0 -398,0 -597,0 2,49 17,100 52,135 35,36 87,51 136,49 58,-1 120,-33 144,-88 83,-1 166,-1 250,-1 -17,66 -53,127 -105,171 -67,59 -155,88 -243,96 -93,9 -189,-2 -274,-41 -44,-20 -83,-49 -118,-83 -51,-56 -86,-126 -99,-201 -15,-80 -15,-165 12,-243 26,-81 79,-152 147,-202l0 0 0 0zm167 129c-40,31 -60,80 -69,129 110,0 220,0 330,0 -3,-21 -6,-42 -14,-62 -6,-15 -15,-28 -22,-42 -2,2 -4,4 -5,7 0,-3 0,-9 0,-12 -23,-25 -51,-45 -84,-52 -47,-10 -99,1 -136,32l0 0z"/>
        </g>
       </g>
      </g>
     </g>
    </g>
   </g>
  </g>
  <polygon fill="none" points="0,2017 3703,2017 3703,0 0,0 "/>
 </g>
</svg>
