<svg width="55" height="50" viewBox="0 0 55 50" fill="none" xmlns="http://www.w3.org/2000/svg">
<path d="M26.7285 6H28.4421C28.4576 6.57637 28.4576 7.15273 28.4576 7.74468H30.1712C30.1712 8.32105 30.1712 8.88184 30.1556 9.4582C29.5948 9.4582 29.0184 9.4582 28.4576 9.4582V11.1406C27.8969 11.1717 27.3361 11.1717 26.7597 11.1717C26.7597 10.5954 26.7597 10.0346 26.7597 9.4582C26.1833 9.4582 25.607 9.4582 25.0462 9.4582C25.0306 8.89741 25.0306 8.32105 25.0306 7.74468H26.7597C26.7441 7.16831 26.8064 6.57637 26.7285 6V6ZM16.8213 10.8134C18.5504 10.3929 20.4352 11.826 20.4041 13.6174C20.5287 15.1907 19.1735 16.655 17.6001 16.6862C16.1982 16.8108 14.8273 15.7827 14.5469 14.4118C14.1108 12.8541 15.2479 11.1094 16.8213 10.8134V10.8134ZM23.6754 10.8134C25.4045 10.4084 27.2893 11.8416 27.2426 13.633C27.3828 15.2375 25.9185 16.7329 24.314 16.7017C22.8965 16.764 21.5724 15.658 21.3543 14.2561C21.0428 12.7295 22.1488 11.0938 23.6754 10.8134ZM30.5294 10.8134C32.1962 10.424 34.0188 11.7481 34.0811 13.4772C34.2213 14.6455 33.5515 15.8294 32.5078 16.359C31.4174 16.951 29.9687 16.7329 29.0652 15.8761C28.0682 14.9415 27.8501 13.2903 28.6134 12.1375C29.034 11.4677 29.735 10.9692 30.5294 10.8134V10.8134ZM37.3991 10.8134C38.8946 10.4707 40.5146 11.4989 40.8573 12.9943C41.1533 14.147 40.7015 15.44 39.7357 16.1409C38.8323 16.8108 37.5393 16.9042 36.5579 16.3435C35.4831 15.7827 34.8444 14.5209 35.0313 13.337C35.1715 12.1064 36.1685 11.0315 37.3991 10.8134V10.8134ZM17.382 21.0167C17.3353 19.8328 17.3509 18.6333 17.3665 17.4495C24.2206 17.465 31.0591 17.4495 37.9132 17.465V21.0167C31.0747 21.0011 24.2206 20.9855 17.382 21.0167V21.0167ZM0.480469 24.0387H5.66777V29.008C7.3813 27.3723 9.06367 25.6899 10.7772 24.0387H16.0112C14.0017 26.0794 11.9299 28.0733 9.93601 30.1295C12.444 32.5596 14.8741 35.0988 17.4132 37.4977C17.4288 33.0114 17.4132 28.5251 17.4288 24.0387H22.7407V34.2576C25.5602 34.242 28.3798 34.2731 31.2149 34.242C31.246 35.3947 31.2149 36.5475 31.2304 37.7002C24.3608 37.7002 17.5067 37.7002 10.637 37.7002C9.01693 36.049 7.36572 34.4289 5.73008 32.7933C5.69893 34.4289 5.73008 36.0646 5.71451 37.7002C3.96983 37.6846 2.22515 37.7002 0.480469 37.6846L0.480469 24.0387ZM32.6636 24.0387C35.5142 24.0232 38.3649 24.0543 41.2 24.0232C42.1035 26.4688 42.8824 28.9456 43.7392 31.4225C43.817 31.3134 43.9105 31.22 43.9417 31.0953C44.7517 28.7431 45.5773 26.4065 46.4029 24.0543H54.9861V37.7158C53.2414 37.7313 51.4812 37.7313 49.7209 37.7313C49.7209 34.5847 49.7365 31.438 49.7053 28.2914C49.4561 28.4316 49.4405 28.7431 49.3315 28.9768C48.3189 31.9054 47.2752 34.8028 46.2471 37.7313C44.5959 37.7313 42.9447 37.7469 41.3091 37.7158C40.281 34.7249 39.2061 31.7652 38.1624 28.7743C38.1313 28.6029 38.0378 28.4783 37.882 28.4004V37.7158C36.1373 37.7158 34.3771 37.7158 32.6324 37.7158C32.6636 33.136 32.6636 28.5874 32.6636 24.0387V24.0387Z" fill="white"/>
</svg>
