<?xml version="1.0" encoding="UTF-8"?>
<!DOCTYPE svg PUBLIC "-//W3C//DTD SVG 1.1//EN" "http://www.w3.org/Graphics/SVG/1.1/DTD/svg11.dtd">
<!-- Creator: CorelDRAW 2019 (64-Bit) -->
<svg xmlns="http://www.w3.org/2000/svg" xml:space="preserve" width="79px" height="50px" version="1.1" shape-rendering="geometricPrecision" text-rendering="geometricPrecision" image-rendering="optimizeQuality" fill-rule="evenodd" clip-rule="evenodd"
viewBox="0 0 130937 83419"
 xmlns:xlink="http://www.w3.org/1999/xlink">
 <g id="Layer_x0020_1">
  <metadata id="CorelCorpID_0Corel-Layer"/>
  <rect fill="none" width="130937" height="83419"/>
  <path fill="white" d="M35710 49453l-14895 0 8494 -29960 -15921 0 -12364 43789 60139 10c2877,0 5724,-566 8382,-1666 2657,-1101 5072,-2714 7106,-4747 2034,-2034 3647,-4449 4748,-7106 1100,-2658 1667,-5505 1667,-8382 5,-2839 -765,-5626 -2226,-8061l14939 0 -8489 29952 15926 0 8490 -29952 14792 0 3871 -13839 -74983 0c-2876,0 -5723,566 -8381,1667 -2657,1101 -5072,2714 -7106,4747 -2033,2034 -3646,4448 -4748,7105 -1100,2657 -1667,5505 -1668,8381 -4,2840 766,5627 2227,8062zm15001 -13115c-1000,1497 -1533,3256 -1533,5055 0,873 126,1741 372,2575l6602 -1015 0 -5 5065 -10166c-380,-129 -770,-235 -1167,-314 -1765,-351 -3595,-170 -5257,518 -1662,690 -3083,1856 -4082,3352zm10562 -3536c294,160 540,395 715,681 185,302 281,650 279,1005 2,338 -90,672 -262,963l-4360 7267 1474 -229c77,-11 154,-17 233,-17 395,2 774,159 1053,439 279,280 436,658 436,1053l4108 0 -370 -464 -750 0 -167 -227 2181 0c119,200 284,367 483,488 199,121 424,191 656,205 -10,34 -20,66 -30,99 -13,41 -26,83 -40,129l-9229 0 3818 2932c217,167 391,382 511,628 120,245 182,515 180,789 2,478 -185,938 -522,1277l-5732 -5621 -6316 0c74,228 157,452 249,675 456,1104 1127,2107 1971,2951 845,845 1849,1515 2952,1972 1104,457 2287,692 3481,692 1800,0 3559,-534 5055,-1534 1497,-999 2662,-2420 3351,-4083 688,-1662 869,-3491 517,-5256 -351,-1765 -1217,-3386 -2490,-4658 -972,-972 -2147,-1707 -3435,-2156z"/>
 </g>
</svg>
