<svg width="112" height="50" viewBox="0 0 112 50" fill="none" xmlns="http://www.w3.org/2000/svg">
<path d="M16.0433 22.6753H16.2305C17.6038 22.6753 19.6637 22.8626 20.9121 23.1123L21.3491 22.6129C19.414 22.2384 17.6662 22.0511 15.856 22.0511C14.9821 22.0511 14.2955 22.1135 13.6089 22.176C12.735 24.111 11.2993 25.297 9.73875 25.297C9.05212 25.297 8.24065 25.0473 7.24191 24.4855L6.05591 23.7989L6.3056 23.6741L8.61517 24.6728L8.9897 24.3607L4.49538 22.3008L3.93359 22.7378L2.56033 22.1135V22.7378C4.55781 23.6117 5.49412 24.1734 8.11581 25.9212C10.7999 27.7939 14.0458 29.1047 17.1044 29.6665L17.7911 28.855H17.6038C15.4815 28.855 13.2968 27.9811 11.9859 26.5454C13.4216 25.6715 14.7324 25.5467 16.4802 25.5467C17.1044 25.5467 17.8535 25.6091 18.4777 25.6715L18.9771 25.1722C18.1032 25.0473 17.1669 24.9849 16.2305 24.9849C15.5439 24.9849 14.9821 24.9849 14.4203 25.0473L14.8573 24.6104H16.0433C17.1044 24.6104 18.2904 24.6728 19.2892 24.8601L19.7885 24.2983C18.4777 24.111 17.2917 23.9862 15.9809 23.9862C15.6063 23.9862 15.3566 23.9862 15.2318 24.0486C15.2865 23.9665 15.3413 23.8964 15.3908 23.833C15.4541 23.7519 15.5089 23.6818 15.5439 23.6117H15.856C17.4165 23.6117 18.6025 23.7365 20.1006 23.9862L20.5376 23.4868C18.9146 23.1747 17.479 23.0499 15.856 23.0499C15.8855 22.9614 15.9289 22.9008 15.9665 22.8483C16.0085 22.7897 16.0433 22.7412 16.0433 22.6753Z" fill="#08436A"/>
<path fill-rule="evenodd" clip-rule="evenodd" d="M23.7824 24.86C23.7824 18.3058 18.4766 13 11.86 13C5.30579 13 0 18.3058 0 24.86C0 31.4142 5.30579 36.72 11.86 36.72C18.4766 36.72 23.7824 31.4142 23.7824 24.86ZM22.5964 24.86C22.5964 18.93 17.79 14.1236 11.86 14.1236C5.99242 14.1236 1.186 18.93 1.186 24.86C1.186 30.79 5.99242 35.5964 11.86 35.5964C17.79 35.5964 22.5964 30.79 22.5964 24.86Z" fill="#08436A"/>
<path d="M46.6911 22.1137H46.6287V27.2947C46.6287 27.8789 46.4902 28.2816 46.2406 28.5386C45.9913 28.7952 45.6203 28.9176 45.1306 28.9176C44.5765 28.9176 44.191 28.7943 43.9425 28.5386C43.6937 28.2824 43.57 27.8807 43.57 27.2947V22.0513H40.7611V27.4195C40.7611 28.8928 41.0585 29.9106 41.6594 30.5595C42.2614 31.2097 43.1559 31.4769 44.3191 31.4769C45.5863 31.4769 46.39 30.9523 46.8159 30.3254V31.1648H49.5V22.0513H46.6911V22.1137Z" fill="#08436A"/>
<path d="M56.1962 18.4957L56.2415 18.5086V20.8141L56.1688 20.802L56.1679 20.8019L56.1648 20.8014L56.1527 20.7994C56.142 20.7977 56.1264 20.7953 56.1067 20.7925C56.0671 20.7867 56.0112 20.7789 55.9455 20.7712C55.8139 20.7557 55.645 20.7404 55.4925 20.7404C55.0608 20.7404 54.7501 20.8179 54.5479 20.9768C54.349 21.1331 54.244 21.3772 54.244 21.7392V22.0513H56.2415V24.3609H54.244V31.1648H51.4351V24.3609H50.0618V22.0513H51.4351V21.8016C51.4351 20.6957 51.7831 19.8349 52.4149 19.2511C53.046 18.668 53.9523 18.3684 55.0555 18.3684C55.4026 18.3684 55.6868 18.4 55.8847 18.4316C55.9836 18.4475 56.061 18.4633 56.1139 18.4753C56.1403 18.4813 56.1607 18.4863 56.1745 18.4899L56.1904 18.4941L56.1946 18.4952L56.1962 18.4957Z" fill="#08436A"/>
<path d="M62.9952 31.226L63.0454 31.2159V28.908L62.9741 28.9182L62.9694 28.9189L62.9552 28.9209L62.9019 28.9279C62.8565 28.9337 62.7925 28.9414 62.719 28.9492C62.5713 28.9647 62.3867 28.98 62.2339 28.98C61.8318 28.98 61.5229 28.9175 61.314 28.7447C61.1079 28.5741 60.9855 28.284 60.9855 27.794V24.3609H63.0454V22.0513H60.9855V19.4296H58.1766V22.0513H56.8033V24.3609H58.1766V28.1061C58.1766 29.2113 58.5086 30.0263 59.1184 30.564C59.7269 31.1004 60.6023 31.352 61.6721 31.352C62.019 31.352 62.3495 31.3205 62.593 31.2891C62.7149 31.2734 62.8152 31.2576 62.8851 31.2458C62.9201 31.2399 62.9475 31.235 62.9662 31.2315L62.9876 31.2275L62.9932 31.2264L62.9952 31.226Z" fill="#08436A"/>
<path d="M31.8349 18.5557V31.1648H40.2617V28.5431H34.8935V18.5557H31.8349Z" fill="#08436A"/>
<path d="M63.732 18.5557V31.1648H66.541V25.9838C66.541 25.4013 66.6942 24.9822 66.9603 24.7087C67.2261 24.4355 67.6136 24.2984 68.1015 24.2984C68.6537 24.2984 69.0559 24.4364 69.3208 24.7087C69.586 24.9813 69.7245 25.3996 69.7245 25.9838V31.1648H72.5334V25.859C72.5334 24.3549 72.2361 23.3366 71.6348 22.6952C71.0325 22.0527 70.1377 21.8016 68.9754 21.8016C67.799 21.8016 67.0519 22.1856 66.541 22.8051V18.5557H63.732Z" fill="#08436A"/>
<path fill-rule="evenodd" clip-rule="evenodd" d="M77.8392 21.8016C76.491 21.8016 75.4922 22.0521 74.8136 22.5551C74.1322 23.0602 73.7828 23.8127 73.7195 24.7938L73.7153 24.8602H76.4586L76.4655 24.8056C76.4956 24.5641 76.5693 24.3654 76.7606 24.2238C76.9552 24.0796 77.2821 23.9863 77.8392 23.9863C78.3339 23.9863 78.6795 24.064 78.8995 24.1959C79.1149 24.3252 79.2125 24.5078 79.2125 24.7354C79.2125 24.9058 79.1573 25.0252 79.029 25.113C78.8945 25.205 78.6739 25.2664 78.3329 25.2974L78.3317 25.2976L76.6465 25.4848C75.4852 25.6104 74.6276 25.9251 74.0599 26.4368C73.4901 26.9505 73.22 27.6556 73.22 28.5431C73.22 29.3673 73.4738 30.1024 74.003 30.6315C74.5323 31.1609 75.33 31.4769 76.4035 31.4769C77.1288 31.4769 77.716 31.3507 78.2179 31.1037C78.671 30.8807 79.0514 30.5609 79.3997 30.1524V31.1648H81.959V25.2348C81.959 23.9741 81.596 23.1098 80.8892 22.5637C80.186 22.0203 79.1546 21.8016 77.8392 21.8016ZM78.86 27.2462C78.9262 27.2306 78.9931 27.2149 79.056 27.1992C79.1355 27.1793 79.2119 27.1587 79.2749 27.1372V27.6068C79.2749 28.0847 79.0515 28.5039 78.6521 28.8054C78.2517 29.1075 77.6728 29.2921 76.9653 29.2921C76.6303 29.2921 76.3821 29.2159 76.2182 29.0734C76.0559 28.9322 75.9666 28.7175 75.9666 28.4182C75.9666 28.1795 76.0258 27.9798 76.1892 27.8235C76.3548 27.6651 76.6358 27.5431 77.098 27.4814L78.6581 27.2942L78.6658 27.2928C78.7277 27.2773 78.7937 27.2618 78.86 27.2462Z" fill="#08436A"/>
<path d="M88.1387 21.8016C87.4128 21.8016 86.8554 21.9436 86.4304 22.1842C86.0844 22.38 85.8287 22.6397 85.6418 22.9365V22.0513H82.9577V31.1648H85.7667V25.9838C85.7667 25.4013 85.9199 24.9826 86.1931 24.7093C86.4665 24.436 86.8695 24.2984 87.3896 24.2984C87.9418 24.2984 88.3274 24.4364 88.5765 24.7074C88.8265 24.9795 88.9501 25.3979 88.9501 25.9838V31.1648H91.7591V25.859C91.7591 24.3549 91.4618 23.3364 90.8524 22.6949C90.2422 22.0525 89.3317 21.8016 88.1387 21.8016Z" fill="#08436A"/>
<path d="M97.448 25.4226L96.4509 25.298L96.4497 25.2978C96.0767 25.2356 95.8579 25.1595 95.7316 25.0542C95.6112 24.9538 95.5668 24.8197 95.5668 24.6105C95.5668 24.4433 95.6351 24.2915 95.8043 24.1787C95.977 24.0636 96.2592 23.9863 96.6904 23.9863C97.1536 23.9863 97.4497 24.064 97.6367 24.2006C97.8205 24.335 97.9091 24.5341 97.9392 24.8047L97.9453 24.8602H100.689L100.685 24.7939C100.622 23.7812 100.257 23.0287 99.5832 22.5316C98.9125 22.0366 97.945 21.8016 96.6904 21.8016C95.3704 21.8016 94.3717 22.1158 93.7017 22.6582C93.0302 23.2018 92.6954 23.9695 92.6954 24.8602C92.6954 25.7501 92.9983 26.4084 93.5526 26.8743C94.104 27.3378 94.8979 27.6055 95.8709 27.7311L96.8694 27.8559C97.3375 27.9183 97.6371 27.9953 97.8193 28.1119C97.9086 28.169 97.9684 28.2349 98.0066 28.313C98.0451 28.3917 98.0636 28.487 98.0636 28.6055C98.0636 28.721 98.0385 28.8186 97.9887 28.9009C97.939 28.9833 97.8623 29.0541 97.7534 29.1122C97.5331 29.2297 97.1868 29.2921 96.6904 29.2921C96.1639 29.2921 95.7877 29.2143 95.5372 29.0596C95.2911 28.9076 95.1593 28.6771 95.1296 28.3502L95.1244 28.2934H92.3833V28.3558C92.3833 29.2746 92.6691 30.0595 93.3586 30.6126C94.0454 31.1637 95.1232 31.4769 96.6904 31.4769C98.1017 31.4769 99.1627 31.1948 99.8724 30.6606C100.585 30.1242 100.935 29.3397 100.935 28.3558C100.935 27.4043 100.633 26.7444 100.037 26.2855C99.4459 25.8303 98.5738 25.579 97.448 25.4226Z" fill="#08436A"/>
<path fill-rule="evenodd" clip-rule="evenodd" d="M106.116 21.8016C104.768 21.8016 103.754 22.0521 103.067 22.5549C102.378 23.06 102.028 23.8132 101.996 24.7958L101.994 24.8602H104.743V24.7978C104.743 24.5627 104.815 24.3658 105.013 24.2244C105.216 24.0796 105.559 23.9863 106.116 23.9863C106.611 23.9863 106.956 24.064 107.176 24.1959C107.392 24.3252 107.489 24.5078 107.489 24.7354C107.489 24.9058 107.434 25.0252 107.306 25.113C107.171 25.205 106.951 25.2664 106.61 25.2974L106.608 25.2976L104.923 25.4848C103.731 25.6103 102.858 25.9249 102.282 26.4365C101.704 26.9503 101.434 27.6555 101.434 28.5431C101.434 29.3683 101.704 30.1034 102.249 30.6322C102.794 31.1609 103.607 31.4769 104.68 31.4769C105.406 31.4769 105.993 31.3507 106.495 31.1037C106.948 30.8807 107.328 30.5609 107.676 30.1524V31.1648H110.236V25.2348C110.236 23.9741 109.873 23.1098 109.166 22.5637C108.463 22.0203 107.431 21.8016 106.116 21.8016ZM106.877 27.2934C107.147 27.2394 107.372 27.1851 107.552 27.1304V27.6068C107.552 28.0847 107.328 28.5039 106.929 28.8054C106.528 29.1075 105.95 29.2921 105.242 29.2921C104.907 29.2921 104.642 29.2159 104.462 29.0717C104.284 28.9293 104.181 28.7144 104.181 28.4182C104.181 28.1828 104.254 27.9823 104.426 27.8244C104.6 27.6647 104.882 27.5429 105.313 27.4814L106.872 27.2942L106.877 27.2934Z" fill="#08436A"/>
</svg>
