<?xml version="1.0" encoding="UTF-8"?>
<!DOCTYPE svg PUBLIC "-//W3C//DTD SVG 1.1//EN" "http://www.w3.org/Graphics/SVG/1.1/DTD/svg11.dtd">
<!-- Creator: CorelDRAW 2017 -->
<svg xmlns="http://www.w3.org/2000/svg" xml:space="preserve" width="125px" height="50px" version="1.1" shape-rendering="geometricPrecision" text-rendering="geometricPrecision" image-rendering="optimizeQuality" fill-rule="evenodd" clip-rule="evenodd"
viewBox="0 0 5032 2014"
 xmlns:xlink="http://www.w3.org/1999/xlink">
 <defs>
   <clipPath id="id0">
    <path d="M0 2014l5032 0 0 -2014 -5032 0 0 2014z"/>
   </clipPath>
 </defs>
 <g id="Vrstva_x0020_1">
  <metadata id="CorelCorpID_0Corel-Layer"/>
  <g>
  </g>
  <g clip-path="url(#id0)">
   <g>
    <g id="_2724483819456">
     <g id="_2197212423136">
      <path fill="white" d="M222 403c-82,0 -148,66 -148,148 0,82 66,148 148,148 81,0 148,-66 148,-148 0,-82 -67,-148 -148,-148zm0 -72c121,0 219,99 219,220 0,121 -98,219 -219,219 -122,0 -220,-98 -220,-219 0,-121 98,-220 220,-220z"/>
      <path fill="white" d="M434 1411c-19,102 -108,180 -215,180 -121,0 -219,-98 -219,-219 0,-73 36,-137 90,-177l48 52c-41,26 -68,72 -68,125 0,82 67,149 149,149 77,0 140,-59 148,-135l67 25 0 0z"/>
      <path fill="white" d="M149 952c-35,19 -62,51 -73,92 -19,70 15,142 78,172 5,2 23,11 27,12 -24,5 -58,27 -72,44 -84,-49 -128,-148 -101,-246 14,-53 46,-95 88,-124l1 4 14 16 19 20 19 10 0 0 0 0z"/>
      <path fill="white" d="M324 1180c-20,55 -7,120 39,162 61,55 155,51 210,-10 15,-16 26,-35 32,-55l70 12c-9,33 -26,64 -50,91 -81,89 -220,96 -309,14 -61,-55 -83,-136 -66,-211l74 -3 0 0 0 0z"/>
      <path fill="white" d="M342 734l0 0 0 0c-35,23 -76,36 -120,36 -44,0 -85,-13 -119,-35 15,-21 36,-38 60,-48 18,8 38,12 59,12 22,0 41,-5 59,-13 24,13 43,27 61,48l0 0 0 0z"/>
      <path fill="white" d="M222 604c44,0 85,13 119,35 -6,10 -21,23 -35,34 -9,6 -18,11 -25,13l0 0c-18,-7 -38,-12 -59,-12 -82,0 -148,67 -148,149 0,82 66,148 148,148 78,0 141,-59 148,-134 20,-10 48,-32 70,-36 1,7 1,14 1,22 0,121 -98,219 -219,219 -121,0 -219,-98 -219,-219 0,-121 98,-219 219,-219l0 0z"/>
      <path fill="white" d="M345 906c0,0 2,-2 2,-2 12,-20 21,-42 23,-67 6,-3 11,-9 18,-13 17,-10 37,-20 52,-23 1,7 1,14 1,22 0,49 -15,95 -45,134 -13,-17 -29,-35 -51,-51l0 0z"/>
      <path fill="white" d="M615 1111c-50,49 -117,70 -182,62 -3,-20 -2,-49 4,-71 45,8 93,-6 128,-41 58,-58 58,-152 0,-210 -58,-58 -152,-58 -210,0 -12,11 -21,25 -28,38 0,1 -1,3 -2,4l-29 -15 -28 -9 -8 -2c10,-24 26,-46 45,-66 86,-86 225,-86 310,0 85,85 85,224 0,310l0 0 0 0z"/>
      <path fill="white" d="M368 1083c0,-66 -44,-126 -110,-144 -38,-10 -77,-4 -109,13 -11,-6 -35,-21 -53,-50 51,-35 104,-51 180,-31 75,20 148,97 160,181l-68 31z"/>
      <path fill="white" d="M599 1292c24,-54 12,-117 -31,-164 -58,-57 -151,-58 -209,0 -15,16 -28,34 -35,54l-69 -16c10,-32 28,-62 54,-88 45,-45 109,-68 169,-64 56,3 108,30 140,64 68,72 74,159 56,214l-75 0 0 0z"/>
      <path fill="white" d="M364 1343c-5,-30 -18,-54 -40,-76 -39,-40 -93,-53 -143,-39l0 0c-26,-10 -52,-23 -72,-46 11,-7 24,-12 36,-17 77,-28 167,-11 229,52 44,44 66,103 64,162 -24,-4 -50,-15 -74,-36l0 0 0 0z"/>
      <path fill="white" d="M4415 1094c-34,21 -62,45 -82,74 -20,28 -30,56 -29,82 2,38 24,70 67,94 37,22 84,35 141,39 35,2 70,2 106,-3 55,-8 105,-31 144,-61l-30 -42c-23,13 -54,23 -86,26 -240,22 -133,-198 31,-204 7,-1 14,-2 21,-2 36,0 69,12 93,31l44 -33c-21,-30 -60,-53 -120,-61 -21,-2 -56,-2 -67,-2l-263 0 0 18 44 0c20,0 17,16 10,25 -5,6 -14,13 -24,19l0 0z"/>
      <path fill="white" d="M1576 1031l308 0 -91 241 166 0 -38 97 -165 0 -213 0 107 -282c5,-14 -5,-38 -30,-38l-44 0 0 -18 0 0z"/>
      <path fill="white" d="M3972 1032l308 0 -127 337 -213 0 106 -283c9,-22 -11,-37 -30,-37l-44 0 0 -17 0 0 0 0z"/>
      <path fill="white" d="M3708 1102l-48 0 -36 96 61 0c6,-1 9,-1 14,-4 29,-16 53,-66 23,-88 -5,-4 -8,-4 -14,-4l0 0zm-331 -71l426 0c160,0 201,170 39,228 -40,15 -143,12 -152,12l-95 0 -38 98 -213 0 107 -283c6,-22 -14,-37 -30,-37l-44 0 0 -18 0 0 0 0z"/>
      <path fill="white" d="M2998 1031l309 0 -128 338 -213 0 47 -125 -128 105 -29 -123 -54 143 -213 0 107 -282c6,-23 -9,-38 -30,-38l-45 0 0 -18 307 0 1 4 31 137 100 -91c11,-11 4,-32 -18,-32l-44 0 0 -18 0 0 0 0z"/>
      <path fill="white" fill-rule="nonzero" d="M4897 1516l36 0c6,0 10,0 12,-1 3,-1 5,-3 6,-6l5 -13c1,-2 1,-3 1,-4 0,-3 -3,-5 -11,-5l-37 0 -12 29 0 0 0 0zm11 21l-19 0 -15 37c-1,4 -2,7 -2,10 0,2 1,4 2,7l-87 0c6,-6 11,-13 15,-21l35 -87c0,-3 1,-6 1,-10 0,-2 -1,-4 -1,-6l143 0c12,0 20,0 24,1 4,0 8,1 12,3 10,5 16,11 16,18 0,3 -1,6 -2,8l-8 21c-2,6 -4,9 -5,11 -1,1 -3,3 -6,4 -6,3 -14,5 -24,5 -2,0 -4,0 -6,-1l12 39c2,6 6,11 12,15l-81 0 -16 -54 0 0zm-717 -70l87 0c-6,5 -11,13 -14,21l-35 86c-1,4 -2,7 -2,10 0,2 1,4 2,7l-87 0c6,-6 11,-13 14,-22l35 -86c2,-3 2,-6 2,-10 0,-2 0,-4 -2,-6l0 0zm-687 71l-15 -47 -49 47 64 0zm51 -71l34 103c3,10 8,17 14,21l-91 0c3,-4 5,-7 5,-10 0,-2 -1,-6 -2,-11l-5 -13 -90 0 -22 21c-4,4 -6,7 -6,9 0,2 0,3 0,4l-51 0c8,-5 17,-11 24,-18l104 -99c-4,-3 -9,-6 -16,-7l102 0 0 0 0 0z"/>
      <path fill="white" fill-rule="nonzero" d="M2553 1049l26 0 0 -18 -209 0 0 18 44 0c19,0 21,11 9,21l-113 104 -67 -141 -1 -2 -269 0 0 18 44 0c16,0 22,12 32,28l81 169 -45 123 214 0 48 -130 206 -190 0 0z"/>
      <path fill="white" d="M1302 1207c-28,74 -76,105 -124,105 -49,0 -79,-33 -50,-105 27,-69 76,-105 124,-105 49,0 81,26 50,105l0 0zm155 -131c-33,-23 -77,-37 -132,-42 -21,-3 -43,-3 -66,-3l-263 0 0 18 44 0c19,1 16,16 9,25 -5,7 -13,13 -24,19 -34,21 -61,46 -82,74 -20,29 -29,56 -28,82 2,38 24,69 67,94 36,22 83,34 140,38 35,3 71,2 106,-2 46,-6 90,-17 132,-34 50,-20 89,-46 117,-78 27,-31 40,-63 38,-96 -1,-39 -21,-70 -58,-95l0 0z"/>
     </g>
    </g>
   </g>
  </g>
  <polygon fill="none" points="0,2014 5032,2014 5032,0 0,0 "/>
 </g>
</svg>
