<?xml version="1.0" encoding="UTF-8"?>
<!DOCTYPE svg PUBLIC "-//W3C//DTD SVG 1.1//EN" "http://www.w3.org/Graphics/SVG/1.1/DTD/svg11.dtd">
<!-- Creator: CorelDRAW 2017 -->
<svg xmlns="http://www.w3.org/2000/svg" xml:space="preserve" width="125px" height="50px" version="1.1" shape-rendering="geometricPrecision" text-rendering="geometricPrecision" image-rendering="optimizeQuality" fill-rule="evenodd" clip-rule="evenodd"
viewBox="0 0 5032 2014"
 xmlns:xlink="http://www.w3.org/1999/xlink">
 <defs>
   <clipPath id="id0">
    <path d="M0 2014l5032 0 0 -2014 -5032 0 0 2014z"/>
   </clipPath>
 </defs>
 <g id="Vrstva_x0020_1">
  <metadata id="CorelCorpID_0Corel-Layer"/>
  <g>
  </g>
  <g clip-path="url(#id0)">
   <g>
    <g id="_2724476097504">
     <path fill="white" d="M1708 1021c-17,114 -226,152 -344,81 -28,-18 -67,-53 -59,-106 16,-112 228,-151 343,-80 28,17 67,53 60,105l0 0zm177 127l-116 0c4,-9 42,-28 62,-87 15,-42 13,-87 -4,-126 -82,-198 -483,-218 -617,-41 -50,68 -52,156 -4,226 36,54 100,94 186,114 71,16 210,11 288,11 25,0 50,0 75,0 43,0 77,-2 102,-48l28 -49 0 0 0 0z"/>
     <path fill="white" d="M2724 959c9,5 86,72 102,85 35,28 68,57 103,85l128 107c15,13 12,9 37,9 29,0 63,2 93,0l-1 -433 -116 0c-5,11 -1,248 -1,284 -6,-3 -95,-78 -103,-84 -65,-53 -139,-115 -204,-170 -18,-14 -32,-26 -63,-30 -18,-2 -72,-2 -92,0l0 433 116 0 1 -286 0 0 0 0z"/>
     <path fill="white" d="M2118 1070c2,-7 66,-119 75,-135 6,-11 19,-36 25,-43 12,-1 13,8 19,18 4,7 8,14 13,23l51 92c8,15 18,30 25,45l-208 0 0 0 0 0zm-55 96l317 0c8,14 16,28 24,41 4,7 8,14 12,21 9,16 7,17 16,17l127 0c-3,-8 -28,-49 -34,-60 -11,-20 -23,-39 -34,-59l-137 -237c-28,-49 -43,-77 -110,-77 -49,0 -78,-5 -113,22 -21,16 -57,88 -73,115 -45,75 -92,159 -137,236l-33 60 131 0 44 -79 0 0 0 0z"/>
     <path fill="white" d="M3246 909l240 0c0,37 -2,326 1,336l116 0 1 -336 240 0c2,-7 2,-87 0,-97l-598 0 0 97 0 0 0 0z"/>
     <path fill="white" d="M745 870c18,11 58,34 69,48 -6,17 -22,23 -42,28 -59,17 -182,22 -193,85 -4,22 6,39 17,50 12,11 31,16 47,23 17,6 33,13 48,20 85,39 149,79 216,132 12,10 26,20 37,31 18,17 35,31 53,49 5,5 15,12 13,20 -3,1 -5,2 -9,0l-36 -29c-8,-3 -20,-14 -28,-19 -53,-35 -90,-55 -148,-82 -8,-4 -61,-25 -65,-29 -5,0 -36,-11 -45,-14 -21,-7 -41,-11 -46,-15l-11 -2 -34 24c-13,6 -67,50 -85,58 -6,3 -12,9 -17,12l-43 30c0,0 -1,0 -1,1 0,0 0,0 -1,0l-1 2c-1,0 -1,0 -1,0l-12 9c-4,2 -6,3 -9,5l-33 22c-6,5 -28,22 -36,23l29 76 1017 0c-2,-5 -292,-294 -296,-299 0,0 -280,-283 -298,-298l-21 16c-5,3 -14,6 -35,23l0 0 0 0z"/>
     <path fill="white" d="M5014 844c-131,-29 -183,-35 -315,-37 -80,-1 -122,3 -194,38 -29,14 -47,29 -58,60 -11,33 -4,66 15,91 17,23 40,32 74,42 83,26 111,28 196,40 33,5 67,11 99,17 15,4 33,7 48,11 19,6 24,20 7,30 -34,22 -166,20 -214,17 -49,-3 -105,-11 -152,-24 -11,-3 -36,-11 -46,-12l-29 94c11,6 77,19 95,23 122,23 412,44 479,-70 31,-54 3,-124 -66,-144 -63,-19 -123,-34 -193,-42 -51,-6 -102,-14 -151,-26 -13,-3 -37,-7 -32,-24 8,-31 172,-24 208,-22 36,2 72,6 107,11 30,5 78,17 97,19l25 -92 0 0z"/>
     <path fill="white" d="M32 515c3,2 10,16 12,20 4,8 8,15 13,21 10,15 20,27 31,39 106,116 305,93 500,260l27 24c6,4 5,6 9,10 29,27 65,6 48,-22 -6,-9 -8,-16 -8,-29 28,5 58,22 81,32 21,-17 30,-20 35,-23l21 -16 -75 -75c-65,-64 -160,-170 -231,-218 -104,-71 -213,-104 -345,-104 -32,0 -125,-1 -150,1 1,7 11,31 15,40 5,13 13,28 17,40l0 0 0 0z"/>
     <path fill="white" d="M3974 1070c7,-15 16,-30 25,-46 9,-15 16,-29 25,-45 8,-15 17,-31 25,-46 5,-7 20,-41 28,-41 8,0 13,14 16,20 12,20 87,151 89,158l-6 0c-49,0 -160,2 -202,0l0 0 0 0zm-55 96l317 0c6,9 44,78 49,79l131 0c-4,-10 -63,-110 -70,-123 -22,-40 -48,-82 -71,-122 -23,-41 -46,-82 -70,-122 -37,-62 -53,-66 -126,-66 -69,0 -90,4 -126,67 -23,42 -47,81 -70,122 -23,41 -47,81 -70,122l-53 92c-5,8 -15,23 -17,30l131 0 45 -79 0 0 0 0z"/>
     <path fill="white" d="M349 1352c8,-1 30,-18 36,-23l33 -22c4,-2 5,-3 9,-5l12 -9c0,0 0,0 1,0l1 -2c1,0 1,0 1,0 0,-1 1,-1 1,-1l43 -30c5,-3 11,-9 17,-12 18,-8 72,-52 85,-58l34 -24c-18,-6 -55,-12 -77,-16 -14,-3 -26,-3 -34,-12 -6,-8 -10,-26 -8,-38l-14 -54c-26,-83 -68,-118 -72,-129l-70 -65c-6,-2 -13,-9 -18,-13 -42,-31 -86,-59 -129,-89 -36,-26 -70,-55 -99,-88 -6,-8 -24,-28 -26,-37 -4,3 -2,-1 -1,5 0,0 1,4 2,6 22,54 43,115 65,170 70,179 138,365 208,546l0 0 0 0z"/>
    </g>
   </g>
  </g>
  <polygon fill="none" points="0,2014 5032,2014 5032,0 0,0 "/>
 </g>
</svg>
