<svg width="97" height="50" viewBox="0 0 97 50" fill="none" xmlns="http://www.w3.org/2000/svg">
<path fill-rule="evenodd" clip-rule="evenodd" d="M43.4379 19.5845C43.385 19.7108 43.3323 19.8369 43.2799 19.9626C42.3078 22.2162 41.292 24.4697 40.2804 26.7137L40.2799 26.7149C39.7577 27.8735 39.2366 29.0295 38.7233 30.1816C39.3264 30.0141 39.9964 30.0476 40.633 30.1816C41.001 28.8325 41.5373 27.5115 42.0622 26.2185L42.2078 25.8595C43.8495 25.7589 45.4912 25.7589 47.133 25.8259C47.7026 27.2667 48.2721 28.7409 48.8082 30.1816C49.8469 30.0141 50.852 30.0476 51.8907 30.1816C49.8134 25.5916 47.736 21.0011 45.9938 16.2436C45.5918 16.4111 45.1227 16.3776 44.6871 16.2771C44.357 17.3876 43.8924 18.4981 43.4379 19.5845ZM46.5299 24.5863C45.2567 24.7203 43.95 24.6868 42.6768 24.5863C43.0119 23.7821 43.3469 22.9696 43.682 22.1571C44.017 21.3448 44.3521 20.532 44.6871 19.7281C45.0372 20.6811 45.3986 21.6228 45.7581 22.5597L45.7586 22.5608C46.0183 23.2376 46.277 23.9119 46.5299 24.5863Z" fill="#08436A"/>
<path fill-rule="evenodd" clip-rule="evenodd" d="M20.2867 21.7129C21.0824 19.9293 21.8792 18.143 22.4755 16.2765C22.8527 16.3926 23.2551 16.3578 23.6391 16.3247C23.6985 16.3196 23.7574 16.3145 23.8157 16.31C25.0095 19.7125 26.4693 23.0087 27.9343 26.3169L27.9355 26.3195L27.9362 26.3211C28.1152 26.7252 28.2942 27.1295 28.4728 27.5341C28.8414 28.4387 29.2434 29.3098 29.6455 30.1809C28.6403 30.0469 27.6017 30.0135 26.5966 30.181C26.3118 29.4606 26.0353 28.7319 25.7589 28.0032C25.4825 27.2744 25.2061 26.5457 24.9213 25.8254C23.2796 25.7584 21.6378 25.7584 19.9961 25.8589C19.393 27.2661 18.8569 28.6733 18.3879 30.1475C18.3041 30.1894 18.2203 30.1658 18.1366 30.1423C18.0863 30.1281 18.0361 30.114 17.9858 30.114C17.4832 30.0135 16.9807 30.0805 16.5116 30.181C17.2785 28.4172 18.0648 26.6729 18.8558 24.9184C19.1016 24.3732 19.3478 23.827 19.594 23.279C19.8213 22.7562 20.0542 22.2342 20.2867 21.7129ZM20.4652 24.5857C21.7383 24.6527 23.045 24.7197 24.3182 24.5857C24.0652 23.911 23.8063 23.2364 23.5465 22.5593C23.1869 21.6223 22.8256 20.6805 22.4755 19.7275C22.1404 20.5316 21.8054 21.3441 21.4703 22.1566C21.1353 22.9691 20.8002 23.7816 20.4652 24.5857Z" fill="#08436A"/>
<path fill-rule="evenodd" clip-rule="evenodd" d="M2.5059 17.9527C3.9131 16.78 5.75587 16.311 7.56513 16.311C9.4414 16.2775 11.3847 16.78 12.8589 18.0197C14.0316 18.9914 14.7687 20.4656 14.9697 21.9733C15.2042 23.7826 14.9362 25.6923 13.9646 27.2671C13.1939 28.5402 11.9543 29.4784 10.5806 29.9809C11.0934 30.3029 11.6146 30.6249 12.1384 30.9484C13.0861 31.5338 14.0418 32.1241 14.9697 32.7283V32.7954C14.2326 33.1639 13.4955 33.566 12.8254 34.035C12.1386 33.499 11.4519 32.9546 10.7651 32.4102C10.0783 31.8658 9.39107 31.3211 8.70429 30.7851C8.62053 30.7348 8.54515 30.6762 8.46976 30.6175C8.39437 30.5589 8.31899 30.5003 8.23522 30.45C6.79452 30.517 5.3203 30.4165 4.01361 29.8134C2.40538 29.1098 1.1322 27.7026 0.562614 26.0944C0.0265368 24.6537 0.0265368 23.1125 0.32808 21.6382C0.629624 20.1975 1.36673 18.8573 2.5059 17.9527ZM6.86153 17.4166C5.78937 17.5842 4.81773 18.1872 4.14763 19.0584C3.34352 20.1305 3.00847 21.4707 2.90795 22.8109C2.80744 24.0841 2.94146 25.3908 3.44403 26.5635C3.84609 27.5016 4.48268 28.3392 5.35381 28.8418C6.62699 29.5789 8.26873 29.6124 9.57542 28.9423C10.5136 28.4397 11.2507 27.6356 11.6862 26.664C12.2558 25.2903 12.3228 23.7826 12.2558 22.3418C12.1553 20.9011 11.6862 19.3934 10.5806 18.4218C9.60892 17.5171 8.16821 17.2156 6.86153 17.4166Z" fill="#08436A"/>
<path d="M28.807 16.4784C32.3585 16.6459 35.9101 16.6124 39.4951 16.4784C39.3611 16.9475 39.3611 17.4836 39.4951 17.9526C38.1549 17.8521 36.8482 17.8186 35.508 17.8186C35.4577 19.6027 35.464 21.3869 35.4703 23.171C35.4724 23.7657 35.4745 24.3604 35.4745 24.9551C35.4848 25.4912 35.4824 26.0273 35.48 26.5634C35.4747 27.7695 35.4693 28.9757 35.6085 30.1819C34.6704 30.0479 33.6987 30.0144 32.7606 30.1819C32.7829 29.7463 32.809 29.3108 32.835 28.8752C32.8872 28.0041 32.9393 27.133 32.9616 26.2618C32.9616 25.5582 32.9637 24.8546 32.9658 24.151C32.9721 22.0402 32.9784 19.9294 32.9281 17.8186C31.5544 17.8186 30.1807 17.8521 28.807 17.9526C28.9075 17.4836 28.9075 16.9475 28.807 16.4784Z" fill="#08436A"/>
<path fill-rule="evenodd" clip-rule="evenodd" d="M57.5861 16.518C56.3936 16.5605 55.2043 16.6028 54.0021 16.4785C54.1483 18.3789 54.1527 20.297 54.1571 22.2199V22.2211C54.1588 22.9421 54.1604 23.6639 54.1696 24.3856C54.1361 26.3289 54.0691 28.2722 53.9685 30.1819C54.8732 30.0144 55.8113 30.0479 56.7159 30.1819C56.7075 29.6323 56.6969 29.0847 56.6863 28.5382C56.655 26.9195 56.6239 25.3101 56.6489 23.682H57.0845C58.6257 25.7928 60.0999 27.9371 61.4736 30.1819C62.6128 29.9809 63.752 30.0479 64.8911 30.1819C63.1154 28.0041 61.5071 25.6923 59.9324 23.3805C60.9041 23.2129 61.8757 22.7774 62.5458 22.0403C63.2494 21.2361 63.5174 20.1305 63.3164 19.0918C63.1824 18.2877 62.7133 17.5841 62.0767 17.115C61.4066 16.646 60.6025 16.4785 59.7984 16.4785C59.0573 16.4657 58.3211 16.4919 57.5861 16.518ZM56.6415 21.0041C56.6341 19.8612 56.6266 18.7134 56.6489 17.5506C56.7736 17.5423 56.8998 17.5324 57.027 17.5225C57.9253 17.4523 58.872 17.3784 59.6644 17.8186C60.301 18.1537 60.6695 18.8573 60.703 19.5609C60.837 20.6331 60.4685 21.8392 59.4968 22.4088C58.7673 22.8297 57.9203 22.7806 57.1133 22.7339C56.9566 22.7248 56.8014 22.7158 56.6489 22.7104C56.6489 22.1426 56.6452 21.5748 56.6415 21.0058L56.6415 21.0041Z" fill="#08436A"/>
<path d="M44.3204 32.5269C44.4879 32.4934 44.7559 32.4599 44.8899 32.6274C45.091 32.795 44.9905 33.1635 44.7224 33.197C44.6815 33.197 44.6387 33.201 44.5948 33.2051C44.4588 33.2177 44.313 33.2313 44.1863 33.13C44.0858 32.929 44.0858 32.6274 44.3204 32.5269Z" fill="#08436A"/>
<path d="M45.9925 32.8624C46.026 32.4938 45.5904 32.4603 45.3224 32.5273C45.0879 32.5943 45.0544 33.0299 45.2554 33.1639C45.5234 33.2644 46.026 33.2309 45.9925 32.8624Z" fill="#08436A"/>
<path d="M59.7291 32.4933C59.9971 32.3258 60.5332 32.4598 60.4997 32.8618C60.3992 33.1969 59.8966 33.2304 59.6621 33.0294C59.595 32.8618 59.595 32.6273 59.7291 32.4933Z" fill="#08436A"/>
<path d="M61.5383 32.8622C61.5718 32.4602 61.0022 32.3261 60.7677 32.5272C60.6337 32.6947 60.6337 32.9292 60.7677 33.0968C61.0022 33.2308 61.5048 33.1973 61.5383 32.8622Z" fill="#08436A"/>
<path fill-rule="evenodd" clip-rule="evenodd" d="M52.1244 33.2641C52.3254 33.0379 52.583 32.8683 52.8406 32.6987C52.9264 32.6422 53.0123 32.5856 53.096 32.527V34.6378C53.3641 34.4703 53.6991 34.4033 54.0342 34.4033H56.9156C57.4182 34.4033 57.9542 34.6713 58.1553 35.1404C58.3158 35.408 58.3054 35.7183 58.2947 36.0372C58.292 36.1175 58.2893 36.1987 58.2893 36.2795H60.8357C60.8357 36.112 60.8357 35.9445 60.8022 35.777H59.7635C59.7735 35.6667 59.7655 35.5503 59.7575 35.4334C59.7387 35.1597 59.7197 34.8826 59.931 34.6713C60.3806 34.2218 60.984 33.9876 61.5644 33.7625L61.6398 33.7332V36.2795H62.6449V33.5656L62.6323 33.5573C62.5313 33.4904 62.3837 33.3926 62.5444 33.2641C62.7103 33.0982 62.9019 32.9708 63.0954 32.8421C63.2144 32.763 63.3342 32.6834 63.449 32.594V37.0166H51.2868C51.3538 37.8543 50.2816 38.5244 49.578 38.0553C49.5527 38.03 49.5167 38.0046 49.4792 37.9782C49.3679 37.8999 49.2432 37.812 49.3435 37.6867C49.412 37.6867 49.484 37.6919 49.5571 37.6972C49.8056 37.7151 50.0669 37.734 50.2481 37.5527C50.5224 37.3089 50.5195 36.9819 50.5167 36.6727L50.5163 36.6214L50.5162 36.5811C50.4993 36.2949 50.5079 36.0087 50.5163 35.7267C50.5246 35.4475 50.5328 35.1725 50.5162 34.9058C50.4961 34.8857 50.4398 34.8656 50.3835 34.8455C50.346 34.8321 50.3084 34.8187 50.2816 34.8053C50.3151 34.6713 50.3821 34.5708 50.4827 34.5038L51.2868 33.9007C51.2868 34.3028 51.2952 34.6964 51.3035 35.0901C51.3119 35.4838 51.3203 35.8775 51.3203 36.2795H52.2584C52.2584 35.9781 52.2622 35.6767 52.2659 35.3766V35.3732C52.2733 34.7738 52.2807 34.1787 52.2584 33.5991C52.2432 33.5764 52.2246 33.5536 52.2057 33.5305C52.141 33.4514 52.0726 33.3677 52.1244 33.2641ZM60.2996 35.1739C60.4671 35.2074 60.6681 35.2074 60.8357 35.2074V34.7718C60.6346 34.8723 60.4336 35.0064 60.2996 35.1739ZM53.096 35.5424C53.0735 35.7 53.0813 35.8727 53.0888 36.0402C53.0924 36.122 53.096 36.2026 53.096 36.2795H57.4852C57.4852 36.1902 57.4889 36.1008 57.4926 36.0115C57.5001 35.8328 57.5075 35.6541 57.4852 35.4754C57.4182 35.2409 57.1166 35.2074 56.9156 35.2074H53.5651C53.3641 35.1739 53.1295 35.3079 53.096 35.5424Z" fill="#08436A"/>
<path d="M64.6039 32.7656C64.3463 32.9353 64.0887 33.1049 63.8877 33.331C63.8729 33.3903 63.917 33.4299 63.9651 33.473C64.0257 33.5274 64.0926 33.5875 64.0552 33.6996V37.0501H64.8593V32.5939C64.7756 32.6526 64.6897 32.7091 64.6039 32.7656Z" fill="#08436A"/>
<path fill-rule="evenodd" clip-rule="evenodd" d="M45.2899 33.9672C45.625 33.6322 45.96 33.2971 46.3286 32.9956V36.2791H48.6739C48.7074 35.9775 48.7074 35.7095 48.7074 35.4079C48.6851 35.3744 48.6441 35.3447 48.6032 35.3149C48.5213 35.2553 48.4394 35.1957 48.5064 35.1064C48.6802 34.8581 48.9275 34.7019 49.1803 34.5422C49.2687 34.4863 49.3577 34.4301 49.4445 34.3693C49.4669 34.951 49.4594 35.5477 49.4519 36.1393C49.4482 36.4334 49.4445 36.727 49.4445 37.0162H43.9162C43.9497 36.7816 43.9665 36.5471 43.9832 36.3126C44 36.078 44.0167 35.8435 44.0502 35.609C44.3085 35.1212 44.8124 34.83 45.2675 34.5671C45.3437 34.523 45.4189 34.4796 45.491 34.4363C45.5077 34.4028 45.5161 34.3525 45.5245 34.3023C45.5328 34.252 45.5412 34.2018 45.558 34.1683C45.5245 34.1348 45.4742 34.1013 45.4239 34.0677C45.3737 34.0342 45.3234 34.0007 45.2899 33.9672ZM44.8544 35.676C44.7102 35.7913 44.7149 36.006 44.719 36.1918C44.7197 36.2218 44.7203 36.2511 44.7203 36.2791H45.5245V35.2739C45.458 35.3119 45.3916 35.3471 45.326 35.382C45.1598 35.4702 44.9985 35.5559 44.8544 35.676Z" fill="#08436A"/>
<path d="M47.5353 37.5862C47.5018 37.2512 47.0662 37.2512 46.7982 37.3182C46.6977 37.4187 46.6642 37.5527 46.6642 37.6868C46.6642 38.1893 47.6693 38.0888 47.5353 37.5862Z" fill="#08436A"/>
<path d="M47.8381 37.3519C48.1061 37.1844 48.6422 37.2849 48.6087 37.687C48.5794 38.0094 48.2425 37.9985 48.0015 37.9907C47.9671 37.9896 47.9345 37.9885 47.9051 37.9885C47.7041 37.8545 47.6706 37.5195 47.8381 37.3519Z" fill="#08436A"/>
<path fill-rule="evenodd" clip-rule="evenodd" d="M17.6477 32.3931H17.1786C16.7989 33.4429 16.3299 34.463 15.8608 35.483C15.6263 35.993 15.3917 36.503 15.1684 37.0168H15.8385C15.8603 36.9555 15.8822 36.8936 15.9043 36.8313C16.0509 36.4169 16.2042 35.9838 16.408 35.5761C16.9106 35.5426 17.4467 35.5091 17.9828 35.6096C18.1235 35.891 18.228 36.1725 18.3326 36.4539C18.4022 36.6415 18.4719 36.8292 18.5523 37.0168H19.6245C18.9209 35.5091 18.2173 33.9678 17.6477 32.3931ZM16.9962 34.041C17.0582 33.8932 17.1199 33.7463 17.1786 33.5993C17.3273 33.9179 17.4491 34.2499 17.5695 34.5784C17.639 34.7681 17.7081 34.9565 17.7817 35.1405C17.3797 35.174 16.9776 35.174 16.5756 35.1405C16.6941 34.7612 16.8462 34.3987 16.9962 34.041Z" fill="#08436A"/>
<path fill-rule="evenodd" clip-rule="evenodd" d="M33.6662 32.3931H34.1353C34.6001 33.6782 35.1542 34.941 35.7064 36.1996L35.7073 36.2015L35.7089 36.2053C35.8326 36.4871 35.9561 36.7687 36.0786 37.0503C35.7435 37.0168 35.375 37.0168 35.0065 37.0168C34.895 36.6266 34.7371 36.2365 34.5715 35.8271C34.538 35.7443 34.5041 35.6606 34.4703 35.5761C33.9342 35.5426 33.3982 35.5426 32.8621 35.5761C32.6611 36.0451 32.4935 36.5142 32.326 37.0168H31.6559C31.8793 36.503 32.1138 35.993 32.3484 35.483C32.8174 34.463 33.2865 33.4429 33.6662 32.3931ZM33.6662 33.5993C33.5657 33.8506 33.4568 34.1103 33.3479 34.3699C33.239 34.6296 33.1301 34.8892 33.0296 35.1405C33.4317 35.174 33.8337 35.174 34.2693 35.1405C34.1688 34.8892 34.0683 34.6296 33.9677 34.3699C33.8672 34.1102 33.7667 33.8506 33.6662 33.5993Z" fill="#08436A"/>
<path d="M42.4436 32.6605C41.874 32.3589 41.1369 32.2919 40.5003 32.5265C39.7632 32.7945 39.4951 33.8332 39.9642 34.4697C40.1995 34.7693 40.5442 34.9049 40.8934 35.0423C41.0911 35.12 41.2903 35.1984 41.4719 35.3074C41.8405 35.5084 41.9075 36.0445 41.7064 36.3795C41.4384 36.8151 40.8018 36.8821 40.3998 36.6141C40.2851 36.5321 40.2105 36.4182 40.1328 36.2996C40.0516 36.1757 39.9672 36.0467 39.8302 35.944C39.7967 36.2455 39.7632 36.5135 39.6627 36.7816C40.3663 37.1836 41.3044 37.2842 42.0415 36.8486C42.7451 36.3795 42.8456 35.2739 42.276 34.7043C42.0216 34.4862 41.718 34.3766 41.4184 34.2684C41.1657 34.1772 40.916 34.087 40.7013 33.9337C40.3998 33.6656 40.4333 33.1631 40.7348 32.9285C40.9693 32.694 41.3379 32.7275 41.6394 32.7945C41.8164 32.8609 41.9204 33.0003 42.0284 33.1452C42.084 33.2198 42.1407 33.2958 42.209 33.3641C42.2425 33.2469 42.2844 33.1297 42.3262 33.0125C42.3681 32.8953 42.4101 32.7777 42.4436 32.6605Z" fill="#08436A"/>
<path d="M20.0963 32.426C20.3979 32.493 20.7329 32.493 21.068 32.426C20.9675 33.9673 21.001 35.5085 21.0345 37.0497C20.7329 37.0162 20.3979 37.0162 20.0629 37.0162C20.1634 35.475 20.1968 33.9673 20.0963 32.426Z" fill="#08436A"/>
<path fill-rule="evenodd" clip-rule="evenodd" d="M23.258 32.4491C22.8901 32.4612 22.5184 32.4734 22.1391 32.426C22.2233 33.7159 22.19 35.0058 22.1573 36.2761C22.151 36.5236 22.1446 36.7703 22.1391 37.0162C22.4407 36.9827 22.7757 36.9827 23.0773 37.0162C23.0922 36.6883 23.0806 36.367 23.069 36.0464C23.0545 35.6464 23.0401 35.2476 23.0773 34.8384C23.1443 34.8719 23.2448 34.9389 23.3118 35.0394C23.5295 35.3576 23.7473 35.6842 23.965 36.0108C24.1827 36.3373 24.4008 36.6646 24.6185 36.9827C24.8028 37.0162 25.0038 37.0078 25.2048 36.9994C25.4059 36.9911 25.6069 36.9827 25.7912 37.0162C25.6478 36.8191 25.5021 36.622 25.3559 36.4243C24.9553 35.8826 24.5511 35.3359 24.1829 34.7714C24.652 34.6709 25.1211 34.4028 25.2551 33.9002C25.4561 33.3307 25.1211 32.5936 24.4845 32.493C24.0773 32.4222 23.6701 32.4356 23.258 32.4491ZM23.0438 34.5033V32.8281L23.1297 32.82C23.4786 32.7863 23.8736 32.7481 24.1829 32.9956C24.5515 33.4312 24.4175 34.2353 23.8814 34.4698C23.6133 34.5703 23.3118 34.5368 23.0438 34.5033Z" fill="#08436A"/>
<path d="M25.6245 32.426C25.9596 32.493 26.3281 32.493 26.6632 32.426C26.9311 33.4384 27.252 34.3978 27.5788 35.3748L27.7018 35.743C28.1374 34.6709 28.5059 33.5652 28.841 32.4595H29.4776C29.7791 33.5652 30.1477 34.6709 30.5497 35.7765C30.9853 34.6709 31.3539 33.5652 31.6554 32.4595C31.7046 32.4595 31.7559 32.4615 31.8082 32.4636C31.9693 32.4699 32.1402 32.4766 32.292 32.426C31.6889 33.9338 31.1528 35.475 30.6502 37.0162H30.0472C29.7121 35.9105 29.3436 34.7714 28.908 33.6992C28.7851 34.0678 28.6586 34.4363 28.532 34.8049C28.2789 35.542 28.0257 36.2791 27.8023 37.0162H27.2328C26.7302 35.475 26.1941 33.9338 25.6245 32.426Z" fill="#08436A"/>
<path d="M36.478 32.426C36.1094 32.493 35.7409 32.493 35.3388 32.426C35.5533 32.8013 35.7784 33.1658 36.0036 33.5303C36.3413 34.0771 36.679 34.6239 36.9806 35.2069C37.0252 35.609 37.0104 36.0111 36.9955 36.4131C36.988 36.6141 36.9806 36.8152 36.9806 37.0162H37.9187C37.8852 36.4131 37.8517 35.81 37.8852 35.1734C38.2937 34.3564 38.7784 33.5903 39.273 32.8085C39.3463 32.6926 39.4199 32.5764 39.4934 32.4595C39.2589 32.493 39.0244 32.4595 38.7898 32.426C38.7512 32.5068 38.7129 32.5872 38.6748 32.6673C38.3496 33.3508 38.0371 34.0075 37.6172 34.6374C37.2151 33.9338 36.8466 33.1966 36.478 32.426Z" fill="#08436A"/>
<path fill-rule="evenodd" clip-rule="evenodd" d="M94.7771 11.0503C93.0014 11.6533 91.2926 12.4575 89.6174 13.3286C87.6741 14.3672 85.8313 15.5064 83.9886 16.7126C80.3365 16.5115 76.651 16.478 72.999 16.4445C72.4294 16.4445 71.8263 16.3775 71.3237 16.6791C71.1562 16.8131 71.2232 17.0811 71.4242 17.1481C72.0273 17.4497 72.7309 17.3492 73.3675 17.3492C76.3494 17.3157 79.3314 17.2487 82.3133 17.1481C82.6484 17.1481 82.9834 17.0811 83.285 17.1816C82.5813 17.6507 81.8778 18.1533 81.1741 18.6559C77.6896 18.5888 74.1716 18.4883 70.6871 18.4883C70.2181 18.4883 69.749 18.5553 69.3804 18.8234C69.2129 18.9239 69.1794 19.1919 69.3804 19.2924C69.682 19.5605 70.084 19.594 70.4861 19.6275C72.2619 19.6275 74.0376 19.6275 75.7799 19.594C77.1871 19.594 78.5943 19.4935 80.0015 19.527C79.5324 19.8955 79.0298 20.2976 78.5608 20.6997C75.7129 20.6661 72.8649 20.5991 70.017 20.5991C69.4139 20.5991 68.7438 20.5991 68.2413 20.9342C68.0067 21.0347 67.9732 21.3697 68.1743 21.5038C68.6098 21.8053 69.1459 21.8723 69.6485 21.8723C72.1948 21.9058 74.7747 21.8388 77.3211 21.8053C76.9525 22.1404 76.584 22.4754 76.2154 22.844C75.6794 22.777 75.1098 22.8105 74.5737 22.777C72.7644 22.777 70.9217 22.7099 69.1124 22.7434C68.5428 22.7434 67.9397 22.8105 67.5042 23.179C67.3031 23.3465 67.3701 23.6481 67.6047 23.7486C68.2748 24.1507 69.0789 24.1171 69.8495 24.1171C71.5918 24.0836 73.334 24.0836 75.0763 24.0501C74.7747 24.3517 74.5402 24.6532 74.2721 24.9548C73.267 24.9213 72.2954 24.8878 71.3237 24.9213C70.3856 24.8878 69.4474 24.8543 68.4758 24.9213C68.0402 24.9883 67.5377 25.0553 67.2361 25.4238C67.0351 25.6919 67.3031 25.9264 67.5712 26.0269C68.4088 26.429 69.3804 26.2615 70.3186 26.295C71.2902 26.2615 72.2283 26.3285 73.2 26.2615C72.999 26.5295 72.7979 26.7975 72.5969 27.0991C72.0608 27.0991 71.5583 27.0991 71.0557 27.0991C70.151 27.0991 69.2799 26.9986 68.4088 27.1326C68.0402 27.2331 67.6717 27.3001 67.4372 27.6016C67.3031 27.7692 67.4372 28.0037 67.6047 28.1042C68.0067 28.3388 68.4758 28.4058 68.9114 28.4393C69.8495 28.4728 70.7876 28.4393 71.7258 28.4393C71.5248 28.7073 71.8933 29.0089 72.1613 28.9753C72.5634 28.9083 72.8649 28.5733 73.2 28.3723C73.133 28.8748 72.6974 29.2099 72.2619 29.3104C71.5247 29.2769 70.7541 29.3104 70.017 29.3104C69.4139 29.3104 68.7438 29.3104 68.2078 29.6454C68.0402 29.746 67.9732 30.0475 68.1408 30.1815C68.5093 30.4831 69.0119 30.5501 69.481 30.5836C70.9552 30.6171 72.4629 30.5836 73.9371 30.5501C73.9706 30.5501 74.0376 30.5166 74.0376 30.5166C74.4732 30.5836 74.9087 30.5501 75.3108 30.5501C76.986 30.4831 78.6613 30.5166 80.303 30.4161C80.5711 30.8181 80.8391 31.1867 81.1071 31.5887L81.1741 31.7227C77.6896 31.6222 74.2386 31.5552 70.7876 31.5552C70.3186 31.5552 69.816 31.5887 69.4139 31.8568C69.2464 31.9573 69.1794 32.1918 69.3469 32.3258C69.7155 32.6609 70.2851 32.6944 70.7541 32.6944C74.4397 32.6944 78.0917 32.6274 81.7437 32.4934C82.1123 33.0294 82.5143 33.532 82.9499 34.0346C82.6148 34.0681 82.2798 34.0346 81.9112 34.0346C79.0298 33.9341 76.1484 33.8671 73.267 33.8336C72.6639 33.8336 72.0273 33.7665 71.4577 34.0346C71.2902 34.0681 71.1897 34.2356 71.2567 34.4031C71.4912 34.6712 71.8598 34.7047 72.1613 34.7382C73.0995 34.8052 74.0376 34.7047 74.9422 34.7382C77.7901 34.6712 80.6046 34.6377 83.419 34.5036C83.7205 34.8052 84.0221 35.0732 84.3236 35.3748C85.1612 34.8722 85.9653 34.3026 86.6354 33.599C85.9988 33.532 85.2952 33.532 84.6586 33.2975C84.8932 33.1299 85.1947 33.1299 85.4628 33.0964C86.0659 32.9959 86.6689 32.9624 87.3055 32.8954C87.6406 32.4934 87.9756 32.0243 88.2437 31.5552C86.803 31.4547 85.2952 31.4547 83.8545 31.1532C83.9885 30.9856 84.2566 30.9856 84.4576 30.9521C85.8983 30.7511 87.339 30.7176 88.7797 30.6171C88.9473 30.215 89.1148 29.8465 89.2823 29.4444C88.3442 29.3774 87.406 29.3439 86.5014 29.2769C85.4293 29.2099 84.3236 29.2099 83.2514 28.9418C83.5195 28.7408 83.8545 28.7743 84.1561 28.7073C85.9653 28.5063 87.7746 28.4393 89.5839 28.3723C89.6844 27.9702 89.7514 27.6016 89.8184 27.1996C88.8133 27.1661 87.7746 27.1326 86.7695 27.0656C85.6303 26.9651 84.4576 26.9651 83.352 26.697C83.5865 26.5295 83.888 26.5295 84.1226 26.496C86.0658 26.2615 88.0091 26.228 89.9524 26.0939C89.9524 25.7589 89.9524 25.4238 89.9524 25.0553C88.3777 24.8878 86.803 24.5527 85.3958 23.7821C86.87 23.6816 88.3442 23.7151 89.7849 23.447C89.5839 23.313 89.3158 23.313 89.0813 23.2795C87.9421 23.179 86.803 23.112 85.6303 23.0785C85.2282 23.045 84.7927 23.0115 84.3571 23.045C84.0891 22.8105 83.821 22.5424 83.62 22.2409C83.7875 22.0063 84.0891 22.1069 84.3571 22.1069C85.0942 22.1069 85.8313 21.9393 86.4344 21.5038C87.339 21.4703 88.2437 21.4368 89.1148 21.2692C88.9808 21.1352 88.8132 21.1352 88.6457 21.1017C88.0426 21.0682 87.4396 21.0012 86.8365 20.9677C85.3958 20.9007 83.955 20.8337 82.4808 20.8002C82.4473 20.7667 82.3468 20.7332 82.2798 20.6997C82.4138 20.5656 82.5143 20.4316 82.6819 20.3311C83.1844 19.9961 83.687 19.661 84.2231 19.3595C85.2617 19.326 86.3004 19.2924 87.3055 19.1919C87.5066 19.1584 87.7411 19.1584 87.9086 19.0244C87.0375 18.8569 86.1329 18.8569 85.2282 18.7899C88.7462 16.8801 92.4988 15.4059 96.2513 13.9987C96.5194 13.9317 96.5194 13.6971 96.4188 13.4626C96.2513 13.4626 96.0503 13.4961 95.8828 13.5296C92.6328 14.4678 89.4498 15.5399 86.3674 16.9471C84.3571 17.8517 82.4138 18.9239 80.5376 20.1301C80.5376 20.0966 80.5376 19.996 80.5376 19.929C82.2128 18.7229 84.0221 17.6507 85.8648 16.7126C88.8468 14.8028 91.8622 12.96 95.0787 11.5193C95.2462 11.4858 95.3467 11.3183 95.2797 11.1508C95.2127 10.9162 94.9446 11.0168 94.7771 11.0503Z" fill="#08436A"/>
<path fill-rule="evenodd" clip-rule="evenodd" d="M74.4062 15.0373C74.3056 15.3724 74.7077 15.4729 74.9422 15.4729C77.0195 15.4729 79.0968 15.4059 81.1741 15.3389C81.7102 15.3054 82.2798 15.3054 82.8159 15.1714C82.5813 15.1043 82.3468 15.0373 82.1123 15.0373C79.8674 14.9033 77.5891 14.8698 75.3108 14.8363C75.0092 14.8363 74.6407 14.8028 74.4062 15.0373Z" fill="#08436A"/>
<path fill-rule="evenodd" clip-rule="evenodd" d="M74.4062 36.1119C74.5402 36.3464 74.8752 36.3464 75.1433 36.3799C76.8185 36.3464 78.4937 36.3129 80.169 36.2459C81.0401 36.1789 81.9112 36.2124 82.7824 36.0449C82.4473 35.9109 82.0788 35.9444 81.7437 35.9109C79.4989 35.7768 77.2876 35.7098 75.0427 35.7098C74.8082 35.7098 74.3391 35.7768 74.4062 36.1119Z" fill="#08436A"/>
<path d="M78.2934 22.0061C78.863 22.7767 78.93 23.7818 78.796 24.72C79.2651 24.3179 79.5331 23.7483 79.6671 23.1788C80.0357 24.5189 80.1362 26.1272 79.2651 27.2998C78.662 28.171 77.7239 28.7071 76.7857 29.1761C77.4893 29.3771 78.1929 28.9751 78.863 28.8746C79.2316 28.8411 79.4326 29.1761 79.6336 29.4442C78.2264 29.4442 76.8192 29.3771 75.412 29.3771C76.4507 27.8694 77.0873 26.1272 77.5563 24.3849C77.3218 24.5525 77.0538 24.653 76.7522 24.653C76.9198 24.0499 77.3888 23.5473 77.9919 23.3128C78.0924 22.8772 78.1929 22.4416 78.2934 22.0061Z" fill="#08436A"/>
<path fill-rule="evenodd" clip-rule="evenodd" d="M84.2231 19.3595C84.5581 19.1584 84.8932 18.9909 85.2282 18.7899C86.1329 18.8904 87.0375 18.8569 87.9086 19.0244C87.7411 19.1919 87.5066 19.1584 87.3055 19.1919C86.3004 19.2924 85.2617 19.326 84.2231 19.3595Z" fill="#08436A"/>
<path fill-rule="evenodd" clip-rule="evenodd" d="M74.0376 30.5166C74.5737 30.2485 75.077 29.8797 75.412 29.3771C76.8192 29.3771 78.2264 29.4442 79.6336 29.4442C79.8682 29.7792 80.0685 30.081 80.303 30.4161C78.6613 30.5166 76.986 30.4831 75.3108 30.5501C74.9087 30.5501 74.4732 30.5836 74.0376 30.5166Z" fill="#08436A"/>
<path d="M94.8487 11.0342C94.8234 11.0402 94.7996 11.0458 94.7771 11.0503C93.0014 11.6533 91.2926 12.4575 89.6174 13.3286C87.6741 14.3672 85.8313 15.5064 83.9886 16.7126C83.754 16.8466 83.5195 17.0141 83.285 17.1816C82.5813 17.6507 81.8778 18.1533 81.1741 18.6559C80.8056 18.9574 80.4035 19.2589 80.0015 19.527C79.5324 19.8955 79.0298 20.2976 78.5608 20.6997C77.6118 20.6885 76.6623 20.6737 75.7133 20.6588C73.8146 20.629 71.9157 20.5991 70.017 20.5991C69.4139 20.5991 68.7438 20.5991 68.2413 20.9342C68.0067 21.0347 67.9732 21.3697 68.1743 21.5038C68.6098 21.8053 69.1459 21.8723 69.6485 21.8723C71.5635 21.8975 73.4969 21.8659 75.4213 21.8344C76.0558 21.824 76.6897 21.8136 77.3211 21.8053C76.9525 22.1404 76.584 22.4754 76.2154 22.844C76.0144 23.045 75.8212 23.2461 75.6286 23.4472C75.4359 23.6482 75.2433 23.8492 75.0423 24.0503C74.7743 24.3517 74.5066 24.6533 74.2721 24.9548C74.1447 25.1054 74.0167 25.2562 73.8906 25.4069C74.015 25.2573 74.1407 25.1081 74.2706 24.9546L74.221 24.953C73.2335 24.92 72.2778 24.8881 71.3221 24.9211C70.384 24.8876 69.4459 24.8541 68.4742 24.9211L68.4349 24.9271C68.0087 24.9924 67.527 25.0662 67.2345 25.4237C67.0335 25.6917 67.3016 25.9262 67.5361 26.0268C68.1799 26.3239 68.8787 26.3099 69.5782 26.2959C69.8252 26.291 70.0722 26.2861 70.317 26.2948C70.7336 26.2804 71.1441 26.2845 71.5536 26.2886C72.0992 26.2941 72.6434 26.2996 73.1984 26.2613L73.2728 26.167C73.2482 26.1985 73.2242 26.2299 73.2 26.2615C73.0995 26.3955 72.9985 26.538 72.8979 26.6804C72.7974 26.8228 72.6974 26.9651 72.5969 27.0991H71.0557C70.7822 27.0991 70.5126 27.09 70.2443 27.0808C69.6252 27.0598 69.0165 27.0391 68.4088 27.1326C68.3681 27.1437 68.3282 27.1545 68.2877 27.1651C67.9613 27.2508 67.6458 27.3334 67.4372 27.6016C67.3031 27.7692 67.4372 28.0037 67.6047 28.1042C68.0067 28.3388 68.4758 28.4058 68.9114 28.4393C69.5368 28.4616 70.1631 28.4542 70.7885 28.4468C71.1008 28.4431 71.4135 28.4393 71.7258 28.4393C71.5248 28.7073 71.8933 29.0089 72.1613 28.9753C72.4361 28.9296 72.6634 28.7587 72.887 28.5909C72.9907 28.5131 73.0939 28.4359 73.2 28.3723C73.133 28.8748 72.6969 29.21 72.2614 29.344C72.5964 29.7461 72.9314 30.1481 73.367 30.4497L73.3705 30.4531L73.3656 30.4492C72.93 30.1477 72.595 29.7456 72.2599 29.3436C71.7061 29.2932 71.1333 29.2996 70.5701 29.3059C70.3837 29.308 70.1983 29.3101 70.0151 29.3101C69.412 29.3101 68.7419 29.3101 68.2058 29.6451C68.0383 29.7456 67.9713 30.0472 68.1388 30.1812C68.5074 30.4827 69.01 30.5498 69.479 30.5833C70.4631 30.6056 71.462 30.5981 72.456 30.5907C72.9507 30.587 73.4442 30.5833 73.9339 30.5833L73.9366 30.5837C73.9701 30.5502 74.0376 30.5166 74.0376 30.5166C74.5737 30.2485 75.0757 29.8801 75.4108 29.3775C76.4494 27.8698 77.0861 26.1276 77.5551 24.3853C77.3206 24.5528 77.0525 24.6868 76.751 24.6533C76.9185 24.0503 77.3876 23.5477 77.9907 23.3131C78.0242 23.168 78.054 23.0229 78.0837 22.8777C78.1433 22.5873 78.2029 22.2968 78.2922 22.0065C78.8618 22.7771 78.9288 23.7822 78.7948 24.7203C79.2639 24.3183 79.5319 23.7487 79.6659 23.1791C80.0345 24.5193 80.135 26.1276 79.2639 27.3002C78.6608 28.1713 77.7226 28.7074 76.7845 29.1765C77.2587 29.312 77.7329 29.1735 78.1968 29.0381C78.4213 28.9726 78.6433 28.9077 78.8618 28.8749C79.1932 28.8448 79.3891 29.1127 79.5714 29.3619C79.5919 29.3898 79.6122 29.4175 79.6324 29.4445C79.7205 29.5704 79.8039 29.6962 79.8861 29.8203C80.0227 30.0265 80.1566 30.2278 80.303 30.4161C80.437 30.6171 80.5706 30.8099 80.7046 31.0025C80.8386 31.1952 80.9731 31.3877 81.1071 31.5887L81.1741 31.7227C77.6896 31.6222 74.2386 31.5552 70.7876 31.5552C70.3186 31.5552 69.816 31.5887 69.4139 31.8568C69.2464 31.9573 69.1794 32.1918 69.3469 32.3258C69.7155 32.6609 70.2851 32.6944 70.7541 32.6944C74.4396 32.6944 78.0907 32.6268 81.7427 32.4928C82.1112 33.0288 82.5144 33.5656 82.9499 34.0346C82.7297 34.0564 82.5088 34.0493 82.279 34.0419C82.16 34.0381 82.0384 34.0343 81.913 34.0343C79.0316 33.9337 76.1502 33.8667 73.2687 33.8667C73.2165 33.8638 73.1639 33.8607 73.1112 33.8575C72.5559 33.8241 71.9796 33.7895 71.4595 34.0343C71.292 34.1013 71.1914 34.2353 71.2584 34.4028C71.4862 34.6631 71.8404 34.7022 72.1369 34.735L72.1631 34.7379C72.6859 34.7752 73.2087 34.7605 73.7257 34.746C74.1364 34.7345 74.5435 34.723 74.944 34.7379C75.6448 34.7214 76.3437 34.7069 77.041 34.6925C79.1761 34.6483 81.2981 34.6046 83.419 34.5036C83.7203 34.8049 84.0223 35.107 84.3236 35.3748C85.1612 34.8722 85.9648 34.3027 86.6349 33.6326C86.4389 33.6017 86.2364 33.5803 86.0316 33.5586C85.5714 33.5099 85.0991 33.4597 84.6586 33.2975C84.8522 33.1592 85.0909 33.1352 85.3193 33.1121C85.3676 33.1072 85.4159 33.1023 85.4628 33.0964C85.8773 33.0274 86.2913 32.99 86.7167 32.9516C86.9102 32.9342 87.1065 32.9164 87.3055 32.8954C87.6406 32.4934 87.9421 32.0243 88.2437 31.5552C87.8767 31.5302 87.5092 31.5115 87.1427 31.4928C86.037 31.4361 84.9366 31.3796 83.8545 31.1532C83.9637 31.0167 84.1612 30.9915 84.3396 30.9687C84.3802 30.9635 84.4203 30.9583 84.4576 30.9521C85.4867 30.8085 86.5153 30.7505 87.5443 30.6924C87.956 30.6692 88.3681 30.6458 88.7797 30.6171C88.9473 30.2485 89.1148 29.8465 89.2823 29.4444C88.3776 29.3798 87.4725 29.3465 86.5978 29.3141L86.5009 29.3105C86.2057 29.2828 85.9079 29.2628 85.6089 29.2426C84.8224 29.1897 84.0282 29.136 83.2514 28.9418C83.4388 28.8014 83.6583 28.7755 83.8768 28.7498C83.9709 28.7387 84.0653 28.7275 84.1561 28.7073C85.9653 28.5063 87.7746 28.4393 89.5839 28.3723C89.6844 27.9702 89.7514 27.6016 89.8184 27.1996L89.7236 27.1966C88.7479 27.1641 87.7432 27.1305 86.7695 27.0656C86.4576 27.0381 86.1427 27.0182 85.8279 26.9982C84.9927 26.9451 84.1549 26.8917 83.352 26.697C83.5421 26.5612 83.7757 26.5356 83.9825 26.5129C84.0308 26.5076 84.0781 26.5023 84.1226 26.496C85.4181 26.3396 86.7131 26.2727 88.0086 26.2057C88.6564 26.1722 89.3046 26.1386 89.9524 26.0939L89.9519 25.0889C88.3772 24.8879 86.803 24.5527 85.3958 23.7821C85.0272 23.5811 84.6922 23.3465 84.3571 23.045C84.0891 22.8105 83.821 22.5424 83.62 22.2409C83.7496 22.0594 83.959 22.0786 84.1559 22.0966C84.2135 22.1018 84.27 22.107 84.3231 22.107C85.0602 22.107 85.8313 21.9393 86.4344 21.5038C86.5684 21.3362 86.7024 21.1687 86.8365 20.9677C85.3958 20.9007 83.955 20.8337 82.4808 20.8002C82.467 20.8002 82.4411 20.7888 82.4113 20.7753C82.3693 20.7563 82.3186 20.7333 82.2793 20.7333L82.3061 20.6997C82.4272 20.5478 82.5257 20.4248 82.6819 20.3311C83.1844 19.9961 83.687 19.661 84.2231 19.3595C84.3906 19.2589 84.5576 19.1669 84.7251 19.0748C84.8926 18.9827 85.0607 18.8904 85.2282 18.7899C88.7462 16.8801 92.4988 15.4059 96.2513 13.9987C96.5194 13.9317 96.5189 13.6973 96.4183 13.4962C96.2508 13.4627 96.0503 13.4961 95.8828 13.5296C92.6328 14.4678 89.4498 15.5399 86.3674 16.9471C84.3571 17.8517 82.4138 18.9239 80.5376 20.1301L80.537 19.9627C82.2123 18.723 84.0221 17.6507 85.8648 16.7126C88.8468 14.8028 91.8287 12.96 95.0787 11.5193C95.2462 11.4858 95.3462 11.3184 95.2457 11.1509C95.2167 10.9478 95.0119 10.9959 94.8487 11.0342Z" fill="#08436A"/>
<path d="M75.2086 14.8353C74.9292 14.832 74.615 14.8284 74.4062 15.0373C74.3056 15.3724 74.7077 15.4729 74.9422 15.4729C77.0195 15.4729 79.0968 15.4059 81.1741 15.3389C81.2844 15.332 81.3949 15.3263 81.5074 15.3208C81.9419 15.2995 82.3901 15.2778 82.8159 15.1714C82.5813 15.1043 82.3468 15.0373 82.1123 15.0373C79.8674 14.9033 77.5891 14.8698 75.3108 14.8363C75.2778 14.8363 75.2429 14.8357 75.2086 14.8353Z" fill="#08436A"/>
<path d="M71.3237 16.6791C71.7492 16.4238 72.2467 16.4323 72.735 16.441C72.8234 16.4426 72.9116 16.4445 72.999 16.4445L73.0189 16.4443C76.6644 16.4778 80.3432 16.5119 83.9886 16.7126C83.754 16.8466 83.5195 17.0141 83.285 17.1816C83.0703 17.1101 82.8385 17.123 82.602 17.1367C82.5063 17.1422 82.4098 17.1481 82.3133 17.1481C79.3314 17.2487 76.3494 17.3157 73.3675 17.3492C73.2415 17.3492 73.1128 17.3527 72.9828 17.3567C72.4562 17.3728 71.9079 17.39 71.4242 17.1481C71.2232 17.0811 71.1562 16.8131 71.3237 16.6791Z" fill="#08436A"/>
<path d="M70.6853 18.4889C70.2163 18.4889 69.7472 18.5559 69.3787 18.8239C69.2111 18.9244 69.1776 19.1925 69.3787 19.293C69.6802 19.561 70.0823 19.5945 70.4843 19.628C72.2601 19.628 74.0358 19.628 75.8116 19.5945C76.3968 19.5945 76.9882 19.5763 77.583 19.5579C78.3843 19.5332 79.192 19.5083 79.9997 19.5275C80.1475 19.4166 80.2954 19.3103 80.4416 19.2051C80.6929 19.0243 80.9394 18.847 81.1724 18.6564C80.3107 18.6398 79.4471 18.6212 78.5824 18.6026C75.9501 18.5458 73.3082 18.4889 70.6853 18.4889Z" fill="#08436A"/>
<path d="M88.6457 21.1354C88.0427 21.0684 87.4395 21.0012 86.8365 20.9677C86.7024 21.1687 86.5684 21.3362 86.4344 21.5038C87.339 21.4703 88.2437 21.4368 89.1148 21.2692C88.9808 21.1352 88.8132 21.1354 88.6457 21.1354Z" fill="#08436A"/>
<path d="M67.5024 23.1786C67.9379 22.8101 68.541 22.7431 69.1106 22.7431C70.1972 22.7229 71.2959 22.7391 72.3922 22.7552C73.1213 22.7659 73.8493 22.7766 74.5719 22.7766C74.7866 22.79 75.0067 22.7926 75.2278 22.7953C75.5588 22.7993 75.8922 22.8034 76.2136 22.8436C75.9735 23.0637 75.7453 23.3077 75.5148 23.5543C75.3594 23.7205 75.2029 23.8878 75.041 24.0497C74.1825 24.0666 73.3156 24.0749 72.4444 24.0834C71.5818 24.0917 70.7145 24.1001 69.8477 24.1168C69.7935 24.1168 69.7392 24.1169 69.6848 24.1171H69.6834C68.9641 24.1193 68.2252 24.1216 67.6029 23.7482C67.3683 23.6477 67.3014 23.3461 67.5024 23.1786Z" fill="#08436A"/>
<path d="M85.6303 23.0785C85.2282 23.045 84.7927 23.0115 84.3571 23.045C84.6922 23.3465 85.0272 23.5811 85.3958 23.7821C85.8478 23.7513 86.301 23.733 86.7521 23.7148C87.7719 23.6737 88.7861 23.6329 89.7849 23.447C89.6257 23.3409 89.4256 23.3188 89.2323 23.2976C89.1815 23.292 89.1301 23.2865 89.0813 23.2795C87.9421 23.179 86.803 23.112 85.6303 23.0785Z" fill="#08436A"/>
<path d="M75.0411 35.7095C74.8066 35.7095 74.3375 35.7765 74.4045 36.1116C74.5202 36.314 74.7856 36.3417 75.0285 36.367C75.067 36.3711 75.1049 36.375 75.1416 36.3796C76.8167 36.3461 78.4922 36.3126 80.1673 36.2456C80.4577 36.2232 80.7481 36.2121 81.0385 36.2009C81.6192 36.1786 82.2 36.1562 82.7807 36.0445C82.5422 35.9492 82.2868 35.9386 82.0385 35.9284C81.938 35.9243 81.8386 35.9202 81.7421 35.9105C79.4972 35.7765 77.2859 35.7095 75.0411 35.7095Z" fill="#08436A"/>
</svg>
