<svg width="120" height="50" viewBox="0 0 120 50" fill="none" xmlns="http://www.w3.org/2000/svg">
<g clip-path="url(#clip0_767_43660)">
<path d="M9.32224 18.7538C10.1973 19.0455 11.1599 19.2789 12.1225 19.3956H12.7934L12.8226 19.3664C13.0867 19.3664 13.302 19.2932 13.5237 19.2178C13.6448 19.1766 13.7679 19.1348 13.9018 19.1039C13.9075 19.1039 13.9164 19.1028 13.9273 19.1014C13.9729 19.0959 14.0533 19.086 14.0768 19.133C14.106 19.2206 14.0768 19.2789 13.9893 19.3372C13.5226 19.6873 12.9392 19.979 12.4142 20.154C12.3102 20.1713 12.2061 20.2093 12.096 20.2494C12.0208 20.2769 11.9428 20.3053 11.86 20.329C11.1891 20.5332 10.4598 20.6498 9.73061 20.5915C9.09767 20.5646 8.51446 20.4444 7.95229 20.3285C7.2968 20.1934 6.66991 20.0642 6.02612 20.0956C4.85935 20.0373 3.72175 20.4748 3.10919 21.3791C2.78833 21.8458 2.52581 22.3417 2.4383 22.8667C2.45538 23.157 2.70238 23.3373 2.95107 23.5189C3.12719 23.6475 3.30414 23.7767 3.40089 23.946C3.51638 24.1308 3.59529 24.3521 3.66659 24.5522C3.68533 24.6047 3.70354 24.6558 3.72175 24.7044C3.80188 24.8406 3.87981 24.979 3.95796 25.1178C4.16428 25.4843 4.37213 25.8535 4.626 26.192C4.83018 26.5129 5.15104 26.8046 5.53024 26.9796C6.02612 27.3296 6.46366 27.7963 6.72618 28.263C6.9272 28.5846 7.07281 28.9201 7.22028 29.2599C7.2868 29.4132 7.35371 29.5673 7.42624 29.7215C7.54292 30.0132 7.63043 30.2757 7.71794 30.5674C7.73596 30.5854 7.74285 30.6034 7.75237 30.6284C7.75825 30.6438 7.76513 30.6618 7.77627 30.6841C7.80544 30.7618 7.83136 30.8396 7.85729 30.9174C7.90914 31.0729 7.96101 31.2286 8.0388 31.3841C8.0213 31.4016 8.0353 31.4191 8.0493 31.4366C8.05863 31.4483 8.06797 31.46 8.06797 31.4716C8.06797 31.506 8.08064 31.548 8.09404 31.5924C8.12607 31.6986 8.16221 31.8183 8.0388 31.88C7.82611 31.6939 7.68612 31.4109 7.57465 31.1855C7.56382 31.1636 7.55326 31.1423 7.54292 31.1216C7.25123 30.6257 6.93037 30.1298 6.55117 29.634C6.31781 29.3423 6.08446 29.0506 5.82193 28.7589C5.25477 28.1287 4.53444 27.6262 3.81261 27.1226C3.19798 26.6938 2.58227 26.2642 2.0591 25.7545C2.01535 25.7107 1.97889 25.6597 1.94242 25.6086C1.90596 25.5576 1.8695 25.5065 1.82575 25.4628C1.74573 25.3667 1.68327 25.2532 1.6191 25.1365C1.56631 25.0405 1.51237 24.9424 1.44655 24.8502C1.09652 24.3252 0.746486 23.771 0.513132 23.2167C0.499499 23.1622 0.484273 23.1077 0.468943 23.0528C0.418673 22.8727 0.367286 22.6887 0.367286 22.4875V22.3708C0.378076 22.2737 0.297067 22.1926 0.208413 22.1038C0.0574022 21.9525 -0.115789 21.779 0.104763 21.4666C0.185877 21.3739 0.368264 21.272 0.576948 21.1554C0.893573 20.9785 1.27073 20.7677 1.44655 20.504C1.44655 20.4902 1.44817 20.4748 1.44989 20.4586C1.45544 20.406 1.46195 20.3444 1.41738 20.2998C1.41738 20.2645 1.39599 20.2399 1.37263 20.213C1.35742 20.1955 1.34138 20.177 1.32987 20.154C1.25546 20.0671 1.13358 20.0489 1.0203 20.0319C0.867155 20.009 0.729719 19.9884 0.746486 19.8039C0.77849 19.8039 0.77538 19.7952 0.770866 19.7824C0.767152 19.7719 0.762488 19.7588 0.775655 19.7456C0.746486 19.5998 0.746486 19.5122 0.775655 19.3664C0.863163 19.133 0.950671 18.8705 0.950671 18.608C0.950671 18.5205 1.03818 18.4622 1.15486 18.433C1.27153 18.3941 1.38821 18.3811 1.50489 18.3682C1.56322 18.3617 1.62156 18.3552 1.6799 18.3455L1.70907 18.3746C2.11744 18.3455 2.61332 18.3746 2.87584 18.6955C2.97358 18.891 2.90756 19.1274 2.84927 19.3362C2.83797 19.3766 2.82697 19.416 2.8175 19.4539C2.80553 19.5137 2.77392 19.5687 2.74281 19.6227C2.69811 19.7004 2.65446 19.7763 2.67166 19.8623C2.72999 19.9206 2.84667 19.9206 2.90501 19.8914C3.51756 19.5122 4.07178 18.9872 4.50932 18.4622C4.91769 18.083 5.53024 17.9371 6.11363 18.0246C6.9304 18.0859 7.64712 18.2901 8.37385 18.4971C8.68526 18.5858 8.9985 18.6751 9.32224 18.7538Z" fill="white"/>
<path fill-rule="evenodd" clip-rule="evenodd" d="M25.7734 31.8216L22.0105 27.0379H20.6104V31.8216H16.3225V19.1914H22.7106C27.3777 19.1914 30.3529 20.504 30.3529 23.1292C30.3529 24.9085 28.632 25.9878 26.2984 26.5712L30.4113 31.8216H25.7734ZM22.5064 21.4082H20.6104V24.9377H22.7398C24.9275 24.9377 26.0651 24.3543 26.0651 23.1875C26.0651 22.0208 25.0733 21.4082 22.5064 21.4082Z" fill="white"/>
<path d="M41.0872 27.0671V31.8216H36.7994V27.0962L30.6446 19.1914H35.3701L37.2077 21.7583C37.9953 22.8667 38.7829 24.0918 38.987 24.7043C39.2204 24.121 40.008 22.8083 40.7664 21.7583L42.604 19.1914H47.2711L41.0872 27.0671Z" fill="white"/>
<path fill-rule="evenodd" clip-rule="evenodd" d="M57.3053 31.8216L56.1677 29.1964H50.7714L49.6338 31.8216H45.2584L51.384 19.1914H55.5552L61.6807 31.8216H57.3053ZM54.5926 25.5794C54.1842 24.6168 53.63 23.1292 53.455 22.5167C53.28 23.1584 52.8133 24.5293 52.3466 25.5503L51.7048 27.0962H55.2343L54.5926 25.5794Z" fill="white"/>
<path d="M73.3776 31.8216L68.9439 26.192C68.3313 25.4044 67.5729 24.3835 67.1354 23.6251C67.1645 24.5877 67.1937 25.5503 67.1937 26.4837V31.7925H63.285V19.1914H67.6021L71.8316 24.7335C72.415 25.4919 73.2609 26.6587 73.7276 27.3587C73.7163 27.0523 73.6917 26.6576 73.6659 26.2433C73.6253 25.5927 73.5818 24.8938 73.5818 24.4127V19.1914H77.4904V31.8216H73.3776Z" fill="white"/>
<path fill-rule="evenodd" clip-rule="evenodd" d="M91.3458 31.8216L90.2082 29.1964H84.8119L83.6743 31.8216H79.2989L85.4245 19.1914H89.5957L95.7212 31.8216H91.3458ZM88.6331 25.5794C88.2247 24.6168 87.6705 23.1292 87.4955 22.5167C87.3205 23.1584 86.8538 24.5293 86.3871 25.5503L85.7453 27.0962H89.2748L88.6331 25.5794Z" fill="white"/>
<path d="M97.4422 19.1914H101.73V31.8216H97.4422V19.1914Z" fill="white"/>
<path fill-rule="evenodd" clip-rule="evenodd" d="M114.856 31.8216L111.123 27.0379H109.722V31.8216H105.435V19.1914H111.823C116.49 19.1914 119.465 20.504 119.465 23.1292C119.465 24.9085 117.744 25.9878 115.41 26.5712L119.523 31.8216H114.856ZM111.589 21.4082H109.693V24.9377H111.823C114.01 24.9377 115.148 24.3543 115.148 23.1875C115.177 22.0208 114.185 21.4082 111.589 21.4082Z" fill="white"/>
<path d="M6.33697 21.2555C6.41671 21.1192 6.50285 20.972 6.37665 20.8247C6.30543 20.7535 6.23421 20.7209 6.17872 20.6955C6.16602 20.6897 6.15415 20.6843 6.1433 20.6789C5.88077 20.6497 5.67659 20.8247 5.55991 20.9997C5.06403 22.0498 4.74317 23.1583 4.65566 24.325C4.65566 24.4417 4.65566 24.5876 4.77234 24.6751C4.83068 24.7042 4.88902 24.6751 4.91819 24.6459C5.05797 24.3011 5.1769 23.9504 5.29593 23.5994C5.54948 22.8517 5.80341 22.1029 6.25997 21.4081C6.27624 21.3593 6.30613 21.3082 6.33697 21.2555Z" fill="white"/>
<path d="M7.95205 21.8395C8.06948 21.6071 8.18656 21.3754 8.1268 21.1164C8.01013 20.9706 7.80594 20.9414 7.57259 20.9706C7.50334 20.9706 7.47063 21.0071 7.43108 21.0513C7.42065 21.0629 7.40975 21.0751 7.39757 21.0872C6.75585 22.1665 6.31831 23.3624 5.93911 24.5292C5.79326 25.0543 5.64742 25.6377 5.7641 26.1919C5.79326 26.2502 5.82243 26.2794 5.88077 26.2502C5.90994 26.2502 5.93911 26.1919 5.96828 26.1335C6.26266 25.1242 6.7541 24.1907 7.24591 23.2565C7.43634 22.8947 7.62682 22.5329 7.80594 22.1665C7.84294 22.0555 7.89753 21.9475 7.95205 21.8395Z" fill="white"/>
<path d="M10.052 21.6998C10.1103 21.554 10.1978 21.3206 10.0228 21.1748C9.90613 21.1164 9.73111 21.0872 9.5561 21.0581C9.35191 21.1164 9.1769 21.2623 9.08939 21.4373C8.76853 22.0207 8.44767 22.604 8.1268 23.2166C7.42674 24.4417 7.10588 25.8418 6.93086 27.2711C6.93086 27.4461 6.93086 27.6503 6.9892 27.8253C7.07671 27.8253 7.16422 27.8253 7.19339 27.767C7.23228 27.6406 7.26793 27.5142 7.30358 27.3878C7.37489 27.135 7.44619 26.8822 7.54342 26.6294C7.84058 25.5631 8.41011 24.612 8.98206 23.6569C9.36452 23.0182 9.74806 22.3778 10.052 21.6998Z" fill="white"/>
<path d="M12.0999 21.7919C12.1573 21.6172 12.2188 21.4299 12.123 21.2623C11.9771 21.1164 11.8021 21.0289 11.5104 21.1164C11.2771 21.1748 11.1312 21.4081 11.0437 21.5831C10.7032 22.4345 10.2831 23.2362 9.8647 24.0347C9.56641 24.6039 9.26898 25.1716 9.00188 25.7543C8.96498 25.8477 8.92792 25.9408 8.89089 26.0339C8.43029 27.1919 7.97445 28.3379 7.89345 29.6338C7.90216 29.66 7.90567 29.6913 7.90941 29.7247C7.9182 29.8032 7.92829 29.8933 8.01013 29.9547C8.02471 29.9401 8.04659 29.9401 8.06482 29.9401C8.08305 29.9401 8.09763 29.9401 8.09763 29.9255C8.19576 29.7456 8.25721 29.5474 8.31797 29.3514C8.36558 29.1978 8.41276 29.0456 8.47683 28.9046C8.8852 27.7962 9.32274 26.6586 9.9353 25.6377C10.1671 25.239 10.4166 24.855 10.665 24.4727C11.1981 23.6522 11.7264 22.8392 12.0647 21.904C12.0751 21.8675 12.0874 21.83 12.0999 21.7919Z" fill="white"/>
</g>
<defs>
<clipPath id="clip0_767_43660">
<rect width="120" height="50" fill="white"/>
</clipPath>
</defs>
</svg>
