<svg width="96" height="50" viewBox="0 0 96 50" fill="none" xmlns="http://www.w3.org/2000/svg">
<path d="M77.2012 6.24513C76.9182 6.66021 76.6352 7.0753 76.3711 7.49038C75.9937 8.01864 75.9183 8.62237 76.0692 9.15063C76.1966 9.66035 76.4317 10.0625 76.6834 10.4933C76.7298 10.5726 76.777 10.6533 76.8239 10.7354L83.8422 21.8289L84.5214 22.9609C85.2006 24.3193 85.0497 26.055 84.2195 27.2625C82.8115 29.459 81.3614 31.6556 79.932 33.8208C79.4462 34.5568 78.9627 35.2891 78.4841 36.0165H81.9556C82.092 36.0165 82.2285 36.0196 82.3643 36.0226C82.9046 36.0347 83.4352 36.0465 83.9177 35.8656C84.3139 35.6958 84.5827 35.3987 84.8516 35.1015C84.9412 35.0025 85.0308 34.9034 85.1251 34.8091C85.3488 34.4735 85.5829 34.1379 85.8197 33.7985L85.8204 33.7975C86.2223 33.2213 86.632 32.634 87.0118 32.0168C87.186 31.7845 87.3491 31.5411 87.5138 31.295C87.7773 30.9016 88.0452 30.5016 88.3702 30.1302C88.7475 29.7529 89.2003 29.3755 89.7286 29.3755C90.1813 29.4133 90.6341 29.4133 91.0775 29.4133C91.5208 29.4133 91.9548 29.4133 92.3699 29.451C92.1435 29.5265 91.9171 29.6019 91.6152 29.7529C91.2379 29.9038 90.936 30.2811 90.7096 30.583C90.1059 31.4508 89.5211 32.3186 88.9363 33.1864C88.3514 34.0543 87.7665 34.9222 87.1627 35.7901C86.7854 36.3939 86.1062 36.7712 85.3515 36.7712H73.8052C75.1137 34.8939 76.3792 33.0166 77.6665 31.1069L77.6676 31.1053L77.6682 31.1045L77.6748 31.0947C78.0925 30.4751 78.5124 29.8521 78.9369 29.2246C79.0232 29.0521 79.1313 28.8906 79.2405 28.7275C79.4179 28.4625 79.5981 28.1933 79.6916 27.8662C79.8425 27.187 79.767 26.4324 79.3897 25.8286L71.9186 14.0559C71.6546 14.4707 71.3907 14.8667 71.1267 15.2626L71.1261 15.2634C70.862 15.6596 70.5979 16.0558 70.3338 16.4708C70.0319 16.8482 69.8055 17.3764 69.8055 17.9047C69.881 18.5084 70.1829 19.0367 70.4847 19.5649C71.994 21.9044 73.5034 24.2438 75.0127 26.6588C75.1391 26.9116 75.2891 27.1409 75.4494 27.3861L75.45 27.387C75.5765 27.5805 75.7098 27.7844 75.8428 28.0171C76.1447 28.8473 76.0692 29.9038 75.5409 30.6585C73.6543 33.3752 71.7676 36.1675 69.881 38.9597H85.6534C86.3326 38.8843 87.0118 38.7333 87.6155 38.356C87.9928 38.0541 88.2947 37.6768 88.5966 37.224C89.8795 35.4883 91.0869 33.6771 92.2944 31.866C92.6717 31.4886 93.1245 31.1867 93.5773 31.0358C93.8741 30.9863 94.1708 31.0017 94.4888 31.0182C94.656 31.0268 94.8291 31.0358 95.0112 31.0358C94.1811 29.8283 93.3509 28.6209 92.5963 27.4134H88.7475C87.9174 27.4889 87.2382 28.0926 86.7099 28.7718C85.8044 30.1301 84.8987 31.4887 83.9177 32.847C83.6913 33.2243 83.4649 33.6016 83.163 33.979C82.8612 34.2054 82.4838 34.2054 82.182 34.2054C83.7667 31.715 85.427 29.3001 87.0872 26.8851C87.1515 26.7727 87.2158 26.6636 87.2793 26.5558C87.5142 26.1573 87.7392 25.7756 87.9174 25.3004C88.5966 23.791 88.5211 21.9799 87.7664 20.4705C87.4646 19.8668 87.1627 19.3385 86.7854 18.8103C83.9177 14.2069 80.9745 9.60343 78.0313 5C77.7672 5.41504 77.4842 5.83008 77.2012 6.24513Z" fill="white"/>
<path d="M75.0846 9.4524C74.4054 10.358 73.8016 11.2636 73.1979 12.1692C72.9715 12.5465 72.8206 13.0748 72.896 13.5276C72.9715 14.1313 73.1979 14.6596 73.5752 15.1878C75.0144 17.5126 76.4941 19.8373 77.9549 22.1323L77.9556 22.1334L77.9737 22.1619C78.4982 22.9859 79.0203 23.8061 79.5371 24.6211C79.8389 25.0739 80.1408 25.5267 80.3672 25.9795C80.7445 26.8851 80.5936 28.017 80.0653 28.7717C79.2729 29.9792 78.4616 31.1867 77.6503 32.3943C76.8391 33.6017 76.0279 34.809 75.2355 36.0164H77.6504C78.556 34.6203 79.4805 33.2242 80.4049 31.8281C81.3294 30.432 82.2538 29.0358 83.1594 27.6397C83.5368 27.1115 83.8386 26.5832 84.065 25.9795C84.2914 25.0739 84.216 24.0928 83.8386 23.2627C83.6122 22.8099 83.3104 22.3571 83.0085 21.9798C80.3672 17.7537 77.7259 13.603 75.0846 9.4524Z" fill="white"/>
<path d="M0 37.4507H66.4856C66.2969 37.7148 66.1271 37.9601 65.9573 38.2053C65.7875 38.4506 65.6177 38.6959 65.4291 38.96H0V37.4507Z" fill="white"/>
<path fill-rule="evenodd" clip-rule="evenodd" d="M47.5419 19.3385C46.7872 18.7347 45.7307 18.4329 44.7496 18.5838C43.7686 18.7347 42.863 19.3385 42.3347 20.1686C41.8819 20.7723 41.6555 21.527 41.731 22.2816C41.731 23.4136 42.3347 24.5456 43.2403 25.2248C43.995 25.7531 45.0515 25.9795 46.0326 25.8285C46.9381 25.6021 47.8437 25.0739 48.372 24.2438C48.8248 23.5646 49.0512 22.7344 48.9757 21.9043C48.9003 20.8478 48.372 19.8667 47.5419 19.3385ZM43.0894 21.8288C43.2403 20.9233 43.995 20.1686 44.9006 20.0177C46.0326 19.7158 47.24 20.4705 47.5419 21.6025C47.8437 22.659 47.3155 23.791 46.4099 24.2438C45.6552 24.6211 44.7496 24.5456 44.0704 24.0928C43.3158 23.64 42.9384 22.659 43.0894 21.8288Z" fill="white"/>
<path d="M0.676814 19.3382C1.12961 18.9609 1.73334 18.8854 2.2616 18.8854H6.18583V20.1684H2.0352C1.8088 20.1684 1.58241 20.3193 1.50694 20.5457C1.28054 20.923 1.50694 21.5268 1.95974 21.5268H4.14825C4.67651 21.6022 5.20478 21.7531 5.58211 22.055C6.11037 22.5078 6.41223 23.2625 6.18583 24.0171C6.11037 24.6209 5.65757 25.0737 5.12931 25.3755C4.82745 25.5265 4.45012 25.6019 3.99732 25.6019H0.0730862V24.319H4.14825C4.37465 24.319 4.67651 24.2435 4.75198 23.9417C4.90291 23.7153 4.90291 23.4134 4.75198 23.187C4.60105 22.9606 4.37465 22.8851 4.07279 22.8851H2.11067C1.50694 22.8851 0.903213 22.6587 0.525882 22.2059C-0.228778 21.4513 -0.153312 20.0174 0.676814 19.3382Z" fill="white"/>
<path d="M9.28114 18.8854H7.77182V25.6019H9.28114V18.8854Z" fill="white"/>
<path d="M11.0158 18.8854H12.5251V19.942C12.7162 19.7508 12.8771 19.5294 13.0461 19.2969C13.1439 19.1622 13.2445 19.0238 13.3552 18.8854H15.3173C15.8456 18.8854 16.3739 19.0364 16.7512 19.4137C17.204 19.791 17.3549 20.3193 17.4304 20.923V25.6019H15.9211V21.1494C15.9211 20.6966 15.5437 20.1684 15.0155 20.0929H12.5251V25.6019H11.0158V18.8854Z" fill="white"/>
<path d="M22.2601 18.8854C21.3545 18.8854 20.3734 19.1873 19.6942 19.8665C19.015 20.4702 18.6377 21.3004 18.5622 22.1305C18.5622 23.187 19.0905 24.2435 19.9206 24.8473C20.5998 25.3001 21.4299 25.6019 22.1846 25.6019H25.3542V21.2249H23.8448V24.2435H22.7128C22.1846 24.319 21.6563 24.319 21.1281 24.0926C20.5998 23.8662 20.2225 23.3379 20.147 22.7342C19.9961 22.1305 20.0715 21.3758 20.4489 20.8476C20.8262 20.3948 21.4299 20.0929 22.0337 20.0929H25.3542V18.8854H22.2601Z" fill="white"/>
<path fill-rule="evenodd" clip-rule="evenodd" d="M29.3537 18.8854H30.9385C31.2959 19.6257 31.6619 20.3747 32.0307 21.1293C32.7522 22.6055 33.4844 24.1038 34.1835 25.6019H32.5987C32.4478 25.2623 32.2969 24.9416 32.1459 24.6209C31.995 24.3001 31.8441 23.9794 31.6931 23.6398H28.599C28.4481 23.9793 28.3161 24.3 28.184 24.6207C28.052 24.9414 27.9198 25.2623 27.7689 25.6019H26.1087C26.6369 24.4699 27.1841 23.3568 27.7312 22.2436C28.2783 21.1306 28.8255 20.0173 29.3537 18.8854ZM29.1273 22.4323H31.2403C30.863 21.6777 30.4857 20.8476 30.1838 20.0929C29.9952 20.4702 29.8254 20.8664 29.6556 21.2626C29.4858 21.6588 29.316 22.055 29.1273 22.4323Z" fill="white"/>
<path fill-rule="evenodd" clip-rule="evenodd" d="M38.2595 18.8854H34.939V25.6019H36.4483V22.3569C36.6747 22.7342 36.9766 23.1115 37.2784 23.4889C37.6277 23.439 37.944 23.4551 38.2709 23.4717C38.4384 23.4802 38.6088 23.4889 38.7878 23.4889C39.5424 23.4134 40.2216 23.0361 40.5989 22.4323C40.9763 21.6777 41.0517 20.7721 40.6744 20.0174C40.3725 19.4892 39.8443 19.0364 39.2405 18.9609C38.9387 18.8854 38.5614 18.8854 38.2595 18.8854ZM36.4483 22.2059V20.0929C36.8256 20.1306 37.2218 20.1306 37.6275 20.1306C38.0331 20.1306 38.4482 20.1306 38.8632 20.1684C39.316 20.2438 39.5424 20.6966 39.5424 21.1494C39.5424 21.6777 39.2405 22.2059 38.7123 22.2059H36.4483Z" fill="white"/>
<path d="M50.0319 18.8854H53.7297C54.3334 18.8854 54.9371 19.0364 55.3899 19.4137C56.2201 20.1684 56.2955 21.4513 55.6918 22.2814C55.4654 22.6587 55.0881 22.9606 54.6353 23.1115L56.6729 25.6019H54.9371C54.4469 24.9986 53.9567 24.4141 53.4665 23.8296L53.4649 23.8277C52.9747 23.2432 52.4842 22.6584 51.994 22.055H53.8806C54.4089 22.055 54.7107 21.5268 54.7107 21.074C54.7107 20.6212 54.3334 20.1684 53.8806 20.0929H51.5412V25.6019H50.0319C50.0319 24.8447 50.0403 24.0959 50.0487 23.3499C50.0654 21.8658 50.0821 20.3919 50.0319 18.8854Z" fill="white"/>
<path d="M63.1648 18.8854H57.7312V25.6019H63.1648C63.115 25.303 63.1309 25.0369 63.1475 24.7603C63.1561 24.618 63.1648 24.4728 63.1648 24.319H59.1651C59.2028 24.0549 59.2028 23.7719 59.2028 23.4889C59.2028 23.2059 59.2028 22.9229 59.2405 22.6587H62.6365V21.3758H59.2405C59.1651 20.9985 59.1651 20.5457 59.2405 20.0929H63.1648V18.8854Z" fill="white"/>
<path fill-rule="evenodd" clip-rule="evenodd" d="M16.072 27.263H17.6568C18.0142 28.0034 18.3803 28.7524 18.7491 29.5072C19.4704 30.9831 20.2028 32.4817 20.9018 33.9795H19.2415C19.0692 33.4624 18.8531 32.989 18.6265 32.4928C18.5555 32.3373 18.4835 32.1794 18.4114 32.0173H15.3173C15.1664 32.3569 15.0155 32.6776 14.8646 32.9983C14.7136 33.319 14.5626 33.6399 14.4117 33.9795H12.8269C13.526 32.4814 14.2582 30.9834 14.9796 29.5072C15.3485 28.7524 15.7145 28.0034 16.072 27.263ZM15.8456 30.8099H17.8832C17.5813 30.0552 17.204 29.2251 16.8266 28.4704C16.6757 28.8478 16.5059 29.244 16.3361 29.6402C16.1663 30.0364 15.9965 30.4326 15.8456 30.8099Z" fill="white"/>
<path d="M23.392 27.263H21.8826V33.9795H23.392V27.263Z" fill="white"/>
<path d="M25.356 27.2632H29.2048C29.9594 27.1877 30.7141 27.6405 31.0914 28.2442C31.4688 28.9234 31.5442 29.7535 31.1669 30.4327C30.9405 30.8855 30.4877 31.2629 29.9594 31.4893L31.997 33.9796H30.2613C29.7708 33.376 29.2803 32.7912 28.7899 32.2063C28.2993 31.6215 27.8087 31.0365 27.3181 30.4327H29.2048C29.6576 30.4327 30.0349 29.9799 30.0349 29.5271C30.0349 28.9989 29.6576 28.5461 29.2048 28.4706H26.8653V33.9796H25.356V27.2632Z" fill="white"/>
<path d="M34.4842 27.263H32.9749V33.9795H37.8802C37.8802 33.8256 37.8889 33.6805 37.8974 33.5382C37.914 33.2616 37.93 32.9955 37.8802 32.6965H34.4842V27.263Z" fill="white"/>
<path d="M38.9356 27.263H40.4449V33.9795H38.9356V27.263Z" fill="white"/>
<path d="M43.6929 27.263H42.1836V33.9795H43.6929V28.4704H46.1078C46.7115 28.4704 47.0889 29.0742 47.0889 29.527V33.9795H48.5982V29.376C48.5982 28.7723 48.3718 28.244 47.9944 27.8667C47.6171 27.4139 47.0134 27.263 46.4097 27.263H44.523C44.4123 27.4014 44.3117 27.5398 44.2139 27.6744C44.0449 27.9069 43.884 28.1284 43.6929 28.3195V27.263Z" fill="white"/>
<path d="M50.1808 27.263H55.5389V28.4704H51.6146V29.7534H55.0861V31.0363H51.6146V32.6965H55.5389V33.9795H50.1808V27.263Z" fill="white"/>
<path d="M59.0875 27.263C58.5592 27.263 58.1064 27.4139 57.6536 27.7158C56.6725 28.4704 56.748 30.1307 57.7291 30.8099C58.1064 31.1872 58.7101 31.2627 59.2384 31.2627H60.9741C61.125 31.2627 61.276 31.2627 61.4269 31.3382C61.8797 31.4891 61.9552 32.2437 61.5024 32.5456C61.3514 32.6965 61.0496 32.6965 60.8232 32.6965H57.0499V33.9795H60.8232C61.4269 33.9795 62.0306 33.8285 62.5589 33.4512C63.3135 32.8475 63.4645 31.64 62.9362 30.8854C62.5589 30.2816 61.8797 29.9798 61.276 29.9043C60.9964 29.9043 60.7254 29.9129 60.4572 29.9213C59.929 29.938 59.4116 29.9543 58.8611 29.9043C58.2573 29.8288 58.1819 28.9232 58.6347 28.6214C58.8611 28.5459 59.012 28.5459 59.2384 28.5459H63.1626V27.263H59.0875Z" fill="white"/>
</svg>
