<svg width="85" height="50" viewBox="0 0 85 50" fill="none" xmlns="http://www.w3.org/2000/svg">
<path fill-rule="evenodd" clip-rule="evenodd" d="M15.4748 15H25.9319C24.8762 19.1326 23.8592 23.2846 22.8436 27.431C22.2804 29.7305 21.7176 32.0282 21.1488 34.32H0C5.15825 27.8487 10.3165 21.4244 15.4748 15ZM14.2993 18.7047V22.8781H10.1758L10.1727 22.8782V26.4421H14.2993V30.6156H17.9101L17.9132 30.6154V26.4421H22.0836L22.0867 26.4419V22.8781H17.9132V18.7046L14.2993 18.7047Z" fill="white"/>
<path d="M33.338 18.1416C31.9312 18.0947 30.4306 18.3761 29.3052 19.314C27.7577 20.627 27.8515 23.4406 29.5397 24.6129C30.3094 25.1902 31.2082 25.4613 32.0941 25.7286C32.7193 25.9171 33.3381 26.1038 33.9007 26.3948C34.3228 26.6293 34.7448 27.0044 34.7448 27.4734C34.7917 28.1768 34.1821 28.8333 33.5256 28.9271C32.8222 29.0209 32.0719 28.974 31.5561 28.4581C31.2278 28.1299 31.134 27.7078 31.0402 27.2858H27.9922C27.9922 28.1768 28.2267 29.1146 28.8832 29.7711C29.821 30.7559 31.1809 31.131 32.4939 31.1779C33.9007 31.2717 35.4013 31.0842 36.5268 30.1932C38.1211 28.974 38.3556 26.3948 37.0895 24.8943C36.2325 24.0373 35.1149 23.6645 34.0065 23.2948C33.3559 23.0778 32.7085 22.8618 32.1188 22.5496C31.5092 22.3151 31.1809 21.5648 31.5092 21.0021C31.9781 20.2518 33.0098 20.2518 33.7601 20.4394C34.3228 20.627 34.6041 21.1897 34.651 21.7524H37.746C37.6522 21.0021 37.4646 20.158 36.9488 19.5484C36.0578 18.5637 34.651 18.1885 33.338 18.1416Z" fill="white"/>
<path d="M67.5254 18.1426C66.1655 18.1426 64.7118 18.377 63.6802 19.3149C62.4141 20.4403 62.2734 22.5505 63.2582 23.9104C63.9616 24.9421 65.2277 25.3641 66.3531 25.6924C66.5174 25.7472 66.6836 25.7984 66.8494 25.8495C67.5352 26.061 68.216 26.2709 68.7447 26.724C69.4481 27.3805 69.026 28.5529 68.2288 28.8342C67.4785 29.1156 66.4938 29.0218 65.9311 28.4591C65.6028 28.1308 65.509 27.7088 65.4152 27.2868H62.3672C62.3672 28.1777 62.6017 29.1156 63.2582 29.7721C64.196 30.8037 65.6966 31.132 67.0096 31.2258C68.4633 31.2727 70.0577 30.9913 71.1831 30.0066C72.7306 28.5998 72.7775 25.7393 71.0424 24.4732C70.2218 23.8479 69.2383 23.5483 68.2549 23.2487C68.0582 23.1888 67.8615 23.1289 67.6661 23.0664C67.5894 23.0408 67.5117 23.0161 67.4339 22.9913L67.4327 22.9909C66.9401 22.8341 66.4358 22.6737 66.0717 22.2692C65.6497 21.8471 65.6497 21.0968 66.1186 20.7217C66.6814 20.2528 67.5254 20.2528 68.1819 20.4872C68.7447 20.6748 68.9791 21.2375 69.026 21.7534C69.7138 21.7846 70.4016 21.7742 71.0893 21.7638C71.4332 21.7586 71.7771 21.7534 72.121 21.7534C72.0741 20.9093 71.8396 20.0652 71.23 19.4556C70.2921 18.4708 68.8384 18.1895 67.5254 18.1426Z" fill="white"/>
<path d="M74.7901 19.2671C76.0562 18.2355 77.7444 18.0479 79.2918 18.1886C80.4642 18.3293 81.7303 18.7513 82.4806 19.736C82.9495 20.2988 83.0902 21.0491 83.1371 21.7525H80.089C80.072 21.6929 80.0565 21.6303 80.0406 21.5659C79.9689 21.2757 79.8888 20.9511 79.6201 20.7208C79.0574 20.2519 78.2133 20.2519 77.5568 20.4863C76.9941 20.6739 76.6658 21.2835 76.8534 21.8462C76.9941 22.409 77.6037 22.6903 78.1664 22.8779C78.5003 22.9972 78.8403 23.1043 79.181 23.2116C80.1798 23.5263 81.1843 23.8429 82.0585 24.4723C83.7936 25.6915 83.7936 28.5989 82.1992 30.0057C81.1207 30.9904 79.6201 31.2718 78.2133 31.2249C76.8534 31.178 75.4466 30.8966 74.4149 29.9119C73.7115 29.2554 73.3833 28.2706 73.4302 27.2859H76.4782C76.5251 27.9424 76.9003 28.5989 77.5568 28.8333C78.3071 29.0678 79.3387 29.0678 79.9014 28.3644C80.3235 27.8017 80.2297 26.9576 79.6201 26.5825C78.9429 26.1592 78.1799 25.927 77.4213 25.6962C76.4989 25.4154 75.5832 25.1367 74.837 24.5192C73.2426 23.253 73.2426 20.5332 74.7901 19.2671Z" fill="white"/>
<path d="M41.3098 18.4229H38.1211C38.6016 20.1142 39.0663 21.8134 39.5314 23.514C40.2011 25.9626 40.8717 28.4143 41.5912 30.8496H44.8737C45.5654 28.5438 46.2257 26.2066 46.8802 23.8895L46.8887 23.8593C47.0301 23.359 47.1711 22.8597 47.3122 22.3619C48.1093 25.2224 48.9534 28.036 49.7975 30.8496H53.08C54.2524 26.7229 55.3778 22.5963 56.5032 18.4229C55.4716 18.4229 54.393 18.4229 53.3614 18.4697C53.1064 19.526 52.8373 20.5893 52.5678 21.6542L52.5672 21.6568C52.143 23.3329 51.7176 25.0135 51.345 26.6761C50.662 24.5912 50.0617 22.4788 49.4596 20.3599L49.4591 20.3584C49.2759 19.7136 49.0925 19.0682 48.9065 18.4229H45.7647L43.3731 26.7229C42.6697 23.9563 41.9663 21.1896 41.3098 18.4229Z" fill="white"/>
<path d="M57.7708 30.8496C57.7396 28.1019 57.75 25.3543 57.7604 22.5929L57.7604 22.5912C57.7656 21.2058 57.7708 19.8169 57.7708 18.4229H60.9596V30.8496H57.7708Z" fill="white"/>
</svg>
