<svg width="166" height="50" viewBox="0 0 166 50" fill="none" xmlns="http://www.w3.org/2000/svg">
<path fill-rule="evenodd" clip-rule="evenodd" d="M6.41733 14.623C9.37729 16.8863 10.6147 21.1574 9.52928 25.2331C8.54519 28.9361 5.77253 30.598 2.62067 31.4754C1.77782 30.1447 1.17754 28.6256 0.901191 26.9729C0.0614111 21.9737 2.38731 17.1749 6.41733 14.623ZM24.9938 22.9271C26.1115 29.5782 21.624 35.8781 14.9717 36.995C13.8525 37.1846 12.7441 37.2134 11.6694 37.1005C8.19669 36.7374 5.06939 34.8928 3.05668 32.1198L22.8353 26.449C22.9581 26.4133 23.0134 26.3411 23.018 26.2724C23.0226 26.1838 22.9427 26.1012 22.8107 26.1105L14.5188 26.6892C15.6856 25.5616 16.5745 24.1783 16.4671 22.2658C16.2491 19.1677 13.0957 16.1444 7.23255 14.1555C8.35942 13.5575 9.5953 13.1261 10.9233 12.9035C12.0425 12.7166 13.1525 12.6859 14.2271 12.7987C19.5498 13.356 24.0635 17.3906 24.9938 22.9271ZM25.8996 24.946C25.8981 18.2534 20.818 12.7492 14.3039 12.0706C14.0383 12.0438 13.7696 12.0238 13.4994 12.0123C13.3152 12.0042 13.131 12 12.9452 12C5.79249 12.0023 -0.00306927 17.8025 1.2195e-06 24.9548C0.00307171 32.1067 5.8017 37.9023 12.9544 37.9C20.1056 37.8973 25.9027 32.0972 25.8996 24.946ZM92.9715 25.7704V30.0284H95.3327V19.8866H92.9715V23.9269H88.702V19.8866H86.3592V30.0284H88.702V25.7704H92.9715ZM42.468 19.8862V26.236C42.468 26.9376 42.5709 27.5451 42.7751 28.0387C42.9777 28.5285 43.2709 28.9357 43.6486 29.2485C44.0278 29.5644 44.4869 29.7977 45.0104 29.9413C45.5431 30.0883 46.1434 30.1631 46.7959 30.1631C47.2027 30.1631 47.5865 30.134 47.9442 30.0764C48.1607 30.0418 48.368 29.9965 48.5645 29.9413C49.0772 29.7977 49.5148 29.5655 49.8664 29.2516C50.2164 28.9388 50.4912 28.5312 50.6831 28.0406C50.8765 27.5486 50.9733 26.9414 50.9733 26.2356V19.8858H48.7809V26.1676C48.7809 26.8071 48.6213 27.3241 48.3096 27.7033C48.2436 27.7816 48.1714 27.8522 48.0901 27.9148C48.0409 27.9535 47.9872 27.9892 47.9335 28.0218L47.8675 28.0587C47.5804 28.2095 47.2227 28.2859 46.7974 28.2859C46.125 28.2859 45.6199 28.0905 45.2944 27.7048C45.1854 27.5751 45.0948 27.4288 45.0227 27.2669C44.8829 26.9571 44.8123 26.5895 44.8123 26.1676V19.8858L42.468 19.8862ZM35.7083 21.7803V30.0299H38.0511V21.7803H39.8381C40.3816 21.7803 40.8238 21.3381 40.8238 20.7943V19.8862H32.9525V21.7803H35.7083ZM73.3741 19.8854H75.7184V30.0276H73.3741V19.8854ZM65.6472 25.3996L65.5689 25.2987V25.4795V30.0253H63.2245V19.8823H65.5689V24.1764V24.3595L65.6502 24.254L68.885 19.8823H71.323L67.7965 24.4148L67.7336 24.4946L67.7965 24.5752L72.086 30.0311H70.2191C69.78 30.0311 69.364 29.8898 69.0232 29.6335C68.8819 29.5275 68.7545 29.4016 68.6424 29.2577L65.6472 25.3996ZM55.4808 24.528H56.8471C56.9531 24.528 57.0528 24.5219 57.148 24.5096C57.2923 24.4904 57.4244 24.457 57.5426 24.409C57.7084 24.3426 57.8481 24.2486 57.9617 24.1273C58.0861 23.993 58.1797 23.8375 58.2411 23.6633C58.2872 23.5309 58.3164 23.3877 58.3256 23.2334L58.3302 23.1117C58.3302 22.6907 58.2089 22.3445 57.9709 22.0816C57.8619 21.9599 57.7238 21.8655 57.5579 21.7991C57.3599 21.7193 57.1219 21.679 56.8471 21.679H55.4808V24.528ZM60.1679 30.0269C59.4739 30.0269 58.8199 29.6584 58.4607 29.0647L56.6368 26.054H55.4823V30.0273H53.1395V19.8869H57.3154C58.3885 19.8869 59.2283 20.1667 59.8132 20.7194C60.3951 21.2702 60.6914 22.0255 60.6914 22.9624C60.6914 23.1129 60.6776 23.2641 60.6515 23.4157L60.6346 23.5067C60.6116 23.626 60.5808 23.7458 60.5409 23.8652C60.5102 23.9588 60.4749 24.0521 60.4335 24.1453C60.3966 24.229 60.3567 24.3123 60.3137 24.3956C60.1986 24.6136 60.042 24.8132 59.8455 24.9928C59.6198 25.1985 59.3419 25.3785 59.0134 25.5317L58.8783 25.5946L61.7231 30.0273L60.1679 30.0269ZM77.642 27.653V29.5978C78.1763 29.8284 78.815 30.0069 79.5672 30.0998C79.9372 30.1455 80.3333 30.1704 80.7586 30.1704C82.8634 30.1704 84.4386 29.0919 84.4386 27.1149C84.4386 25.169 83.3102 24.665 82.1465 24.1457L81.8532 24.0137L81.537 23.8632C81.0595 23.6836 80.6772 23.5416 80.4055 23.3743C80.2612 23.2856 80.146 23.1896 80.0647 23.0776C80.0033 22.9935 79.9603 22.8999 79.9357 22.7932L79.9234 22.7256C79.9157 22.6773 79.9127 22.6262 79.9127 22.5721C79.9127 21.9185 80.3932 21.5427 81.4218 21.5427C82.1326 21.5427 82.8435 21.7093 83.3777 21.8962C83.5543 21.958 83.7109 22.0217 83.8414 22.0824V20.1867C83.3117 19.9906 82.366 19.7292 81.256 19.7292C79.1681 19.7292 77.6589 20.6611 77.6589 22.6381C77.6589 24.3365 78.6707 25.0719 79.73 25.5455C80.0309 25.6748 80.3026 25.7831 80.5452 25.8798C81.5615 26.2828 82.0682 26.4839 82.0682 27.1959C82.0682 27.5187 81.9607 27.775 81.7488 27.9623C81.4663 28.2118 80.9966 28.3396 80.3441 28.3396C79.6762 28.3396 79.0207 28.1842 78.4373 27.9777C78.1533 27.8775 77.8861 27.7655 77.642 27.653ZM150.04 30.0276V19.8846H156.391V20.805C156.391 21.3424 155.953 21.7788 155.418 21.7788H152.384V23.9603H155.791V25.6533H152.384V28.1347H156.391V30.0276H150.04ZM126.868 19.8846V30.0269L132.952 30.0265V28.1999H129.211V21.089C129.211 20.4251 128.671 19.8846 128.007 19.8846H126.868ZM112.359 30.025V19.8893H114.703L114.701 30.025H112.359ZM120.56 24.5265H119.194V21.6774H120.56C121.063 21.6774 121.443 21.8133 121.684 22.08L121.757 22.1679C121.788 22.209 121.816 22.2516 121.842 22.2961L121.882 22.3664C121.899 22.4013 121.915 22.4374 121.929 22.4742C122.005 22.6619 122.043 22.8745 122.043 23.1102C122.043 23.5216 121.919 23.8629 121.674 24.1265C121.427 24.3917 121.053 24.5265 120.56 24.5265ZM122.172 29.0635C122.531 29.6565 123.187 30.025 123.881 30.025H125.436L122.589 25.5931L122.726 25.5301C123.342 25.2427 123.779 24.8604 124.026 24.394C124.277 23.9189 124.404 23.4368 124.404 22.9609C124.404 22.5886 124.357 22.2451 124.264 21.9315C124.209 21.7469 124.139 21.573 124.053 21.4095C123.916 21.152 123.741 20.9209 123.526 20.7179C122.941 20.1652 122.101 19.8854 121.028 19.8854H116.852V30.025H119.195V26.0529H120.35L122.172 29.0635ZM104.303 26.3319L105.224 23.7684C105.428 23.192 105.633 22.5828 105.769 22.1342H105.803C105.852 22.3272 105.917 22.5395 105.989 22.764C106.073 23.0231 106.168 23.2987 106.267 23.58L106.331 23.7684L107.217 26.3319H104.303ZM107.2 19.8839H104.507L100.683 30.0269H102.372C102.8 30.0269 103.179 29.7536 103.313 29.3471L103.704 28.1566H107.819L108.421 30.0269H110.96L107.2 19.8839ZM158.273 27.6538V29.5978C158.609 29.7428 158.989 29.8676 159.411 29.9632C159.528 29.9896 159.647 30.0138 159.77 30.0353L160.069 30.0825C160.475 30.1386 160.914 30.1696 161.39 30.1696C163.493 30.1696 165.068 29.0911 165.068 27.1141C165.068 25.1678 163.94 24.6643 162.776 24.1446C162.572 24.0536 162.368 23.9623 162.168 23.8625L162.15 23.8544C161.855 23.7443 161.599 23.6479 161.382 23.5508C160.837 23.3075 160.544 23.0588 160.544 22.5721C160.544 21.9185 161.024 21.5427 162.053 21.5427C162.412 21.5427 162.771 21.5853 163.108 21.6513C163.656 21.7592 164.142 21.93 164.473 22.0816V20.1859C163.941 19.9898 162.997 19.7284 161.886 19.7284C161.092 19.7284 160.383 19.8632 159.807 20.1387C158.869 20.5882 158.29 21.4122 158.29 22.6373C158.29 24.3369 159.302 25.0715 160.361 25.5459C160.524 25.6161 160.679 25.6798 160.825 25.7389L161.176 25.8794C162.191 26.2824 162.698 26.4835 162.698 27.1955C162.698 27.5087 162.598 27.7593 162.398 27.9451C162.117 28.2057 161.642 28.3392 160.974 28.3392C159.98 28.3392 159.018 27.9965 158.273 27.6538ZM138.949 19.8862H140.401C141.091 19.8862 141.732 20.242 142.096 20.8273L144.926 25.372C145.125 25.6886 145.345 26.0686 145.537 26.4244C145.62 26.5799 145.698 26.7311 145.766 26.87L145.835 27.0159H145.884C145.852 26.5603 145.835 25.9255 145.835 25.4699V19.8866H147.889V30.028H145.319L141.878 24.5414C141.557 24.0371 141.223 23.4349 140.986 22.9793H140.953L140.969 23.3769C140.986 23.7166 141.003 24.0805 141.003 24.4278V30.028H138.949V19.8862ZM136.803 19.8893H134.46V30.025H136.803V19.8893Z" fill="white"/>
</svg>
