<svg width="120" height="50" viewBox="0 0 120 50" fill="none" xmlns="http://www.w3.org/2000/svg">
<path d="M119.963 13.793V35.4405H115.749C116.515 33.1416 116.707 29.8849 116.132 27.2029C115.366 23.7547 113.258 20.4979 110.193 18.5822C107.128 16.6665 103.488 15.9002 99.8483 16.6665L99.082 16.8581V13.793H119.963Z" fill="#08436A"/>
<path d="M104.829 17.2412C103.68 16.6665 102.147 16.475 100.806 16.6665L101.381 16.8581C101.956 16.6665 102.722 16.6665 103.297 16.8581C103.105 16.8581 102.722 17.0497 102.53 17.2412C102.53 17.2412 102.722 17.2412 102.913 17.4328C103.105 17.2412 103.68 17.0497 103.871 17.0497C103.999 17.1774 104.297 17.3051 104.595 17.4328C104.744 17.4967 104.893 17.5605 105.021 17.6244C104.638 17.6244 104.063 17.816 103.68 18.0075L103.871 18.1991C104.446 18.1991 105.021 18.1991 105.595 18.0075C105.691 18.1991 105.787 18.3428 105.883 18.4864C105.979 18.6301 106.074 18.7738 106.17 18.9654H104.254C104.446 19.157 104.446 19.3485 104.446 19.3485C105.021 19.3485 106.17 19.3485 106.553 19.5401C106.553 19.7317 106.601 19.9232 106.649 20.1148C106.697 20.3064 106.745 20.4979 106.745 20.6895C105.979 20.4979 105.212 20.3064 104.638 20.3064V21.0727C105.272 21.0727 105.776 21.2041 106.365 21.3582C106.488 21.3901 106.613 21.4229 106.745 21.4558C106.745 21.8389 106.745 22.2221 106.553 22.6052C105.979 22.4137 105.212 22.2221 104.446 22.0305C104.338 22.1381 104.291 22.3061 104.237 22.5005C104.194 22.6524 104.147 22.8204 104.063 22.9884C104.829 23.1799 105.595 23.5631 106.362 23.9462C106.17 24.3294 105.979 24.7125 105.787 24.9041C105.532 24.7764 105.297 24.6487 105.063 24.5209C104.595 24.2655 104.127 24.0101 103.488 23.7547C103.488 24.3294 103.105 24.7125 102.722 25.0956C103.307 25.3883 103.893 25.7928 104.393 26.1383C104.547 26.2451 104.693 26.3462 104.829 26.4366C104.638 26.8198 104.446 27.2029 104.254 27.3945C103.488 26.8198 102.339 25.8619 102.339 25.8619C102.051 26.0535 101.86 26.2451 101.668 26.4367C101.477 26.6282 101.285 26.8198 100.998 27.0114C101.572 27.5861 102.339 28.3524 102.722 28.9271C102.53 29.3102 102.339 29.5018 101.956 29.6933C101.715 29.2123 101.324 28.7313 100.971 28.2977C100.761 28.0405 100.566 27.8 100.423 27.5861C100.136 27.7776 99.9441 27.9213 99.7525 28.065C99.561 28.2087 99.3694 28.3523 99.082 28.5439V29.3102L99.8483 31.0343C99.6567 31.2259 99.6567 31.2259 99.2736 31.4175L99.082 30.8428V31.8006C102.339 30.2681 105.787 27.0114 106.745 23.1799C107.128 22.0305 107.128 20.3064 106.553 19.157C106.17 18.3907 105.595 17.6244 104.829 17.2412Z" fill="#08436A"/>
<path d="M104.254 16.6665C104.446 16.8581 104.638 16.8581 104.638 16.8581H104.829C105.595 17.0497 106.17 17.2412 106.745 17.6244H105.787C105.86 17.6976 105.933 17.7428 105.996 17.7814C106.097 17.8439 106.17 17.8891 106.17 18.0075H107.511C107.604 18.1005 107.708 18.1935 107.816 18.2892C108.151 18.5879 108.515 18.9133 108.661 19.3485C108.349 19.2448 108.038 19.1972 107.697 19.145C107.407 19.1008 107.096 19.0532 106.745 18.9654C106.841 19.0612 106.889 19.157 106.936 19.2527C106.984 19.3485 107.032 19.4443 107.128 19.5401C107.415 19.6359 107.751 19.6838 108.086 19.7317C108.421 19.7796 108.756 19.8275 109.044 19.9232C109.084 20.0432 109.124 20.1548 109.162 20.2615C109.307 20.6662 109.427 21.001 109.427 21.4558C109.213 21.3845 108.972 21.2866 108.715 21.182C108.282 21.0055 107.801 20.8098 107.32 20.6895V21.4558C107.703 21.6474 108.086 21.7911 108.469 21.9347C108.852 22.0784 109.235 22.2221 109.618 22.4137C109.618 22.9883 109.618 23.3715 109.427 23.9462C108.916 23.5631 108.405 23.3502 107.894 23.1374C107.639 23.0309 107.383 22.9245 107.128 22.7968C107.128 23.3715 106.936 23.7547 106.745 24.1378C107.511 24.5209 108.277 24.9041 109.044 25.4788L108.469 26.6282C107.884 26.3355 107.298 25.931 106.798 25.5856C106.644 25.4788 106.497 25.3777 106.362 25.2872C106.17 25.5746 106.026 25.814 105.883 26.0535C105.739 26.293 105.595 26.5324 105.404 26.8198C105.691 27.1071 106.026 27.3945 106.362 27.6818C106.697 27.9692 107.032 28.2566 107.32 28.5439C107.128 28.9271 106.745 29.3102 106.553 29.5018C105.979 29.1186 105.212 28.3524 104.638 27.7776C104.254 28.3524 103.68 28.9271 103.105 29.5018C103.488 29.8849 104.638 31.4175 104.638 31.4175C104.58 31.4755 104.522 31.5511 104.458 31.6336C104.312 31.8235 104.138 32.0502 103.871 32.1838C103.871 32.1838 102.53 30.4596 102.339 30.0765C102.102 30.2544 101.883 30.4323 101.671 30.6046C101.198 30.9887 100.761 31.3445 100.231 31.6091C100.423 32.1838 101.381 33.9079 101.381 33.9079C101.285 33.9079 101.141 33.9558 100.998 34.0037C100.854 34.0516 100.71 34.0995 100.615 34.0995C100.423 33.8121 100.231 33.429 100.04 33.0458C99.8483 32.6627 99.6567 32.2796 99.4652 31.9922C99.2736 31.9922 99.082 32.1838 99.082 32.1838V35.0573C101.572 34.2911 104.063 32.7585 105.979 30.4596C107.894 28.3524 109.427 26.2451 109.81 23.5631C110.193 21.4558 109.427 19.3485 107.703 18.0075C106.745 17.2412 105.595 16.8581 104.254 16.6665Z" fill="#08436A"/>
<path d="M103.488 18.1991C102.339 17.0497 100.615 16.8581 99.082 17.2412V17.4328C99.2736 17.2412 99.6567 17.2412 100.231 17.2412C99.8483 17.4328 99.6567 17.6244 99.4652 17.816H99.6567C100.04 17.6244 100.423 17.4328 100.615 17.2412C100.998 17.2412 101.572 17.2412 101.764 17.4328C101.648 17.4908 101.497 17.5488 101.332 17.6121C100.952 17.758 100.499 17.932 100.231 18.1991C100.327 18.1991 100.375 18.247 100.423 18.2949C100.471 18.3428 100.519 18.3907 100.615 18.3907C100.998 18.0075 101.572 17.816 102.339 17.6244C102.53 17.6244 102.722 17.8159 102.913 18.0075C102.778 18.0527 102.631 18.098 102.477 18.1457C101.977 18.3002 101.392 18.4811 100.806 18.7738C100.998 18.7738 100.998 18.9654 100.998 18.9654C101.381 18.8377 101.934 18.71 102.488 18.5822C102.764 18.5184 103.041 18.4545 103.297 18.3907C103.488 18.5822 103.68 18.7738 103.68 18.9654C102.913 19.157 101.956 19.3485 101.189 19.3485C101.189 19.5401 101.381 19.7317 101.381 19.7317C102.147 19.5401 103.105 19.5401 103.871 19.5401C104.063 19.7317 104.063 20.1148 104.063 20.3064H101.381V20.8811H104.063C103.871 21.2642 103.871 21.4558 103.871 21.8389C103.732 21.8112 103.597 21.7834 103.465 21.7562L103.463 21.7557C102.686 21.5956 102.007 21.4558 101.189 21.4558C101.189 21.5516 101.141 21.6474 101.094 21.7432C101.046 21.8389 100.998 21.9347 100.998 22.0305C101.121 22.0613 101.249 22.092 101.38 22.1236L101.384 22.1245C102.07 22.2892 102.846 22.4758 103.488 22.7968C103.488 22.9884 103.297 23.3715 103.105 23.5631C102.883 23.4891 102.576 23.3581 102.238 23.2141C101.7 22.9849 101.085 22.7229 100.615 22.6052C100.615 22.9884 100.423 23.1799 100.231 23.3715C100.615 23.7547 101.572 24.3294 102.339 24.7125C102.147 25.0956 101.956 25.2872 101.764 25.4788C101.189 24.9041 100.615 24.3294 99.8483 23.9462C99.7147 24.2134 99.4881 24.3874 99.2981 24.5332C99.2156 24.5965 99.14 24.6545 99.082 24.7125V24.9041L100.615 26.6282L100.04 27.2029L99.082 25.6704V28.1608C100.615 27.2029 102.339 25.4788 103.297 23.7547C104.063 22.4137 104.638 20.4979 103.871 18.7738C103.871 18.5822 103.68 18.3907 103.488 18.1991Z" fill="#08436A"/>
<path d="M108.277 18.1991H108.852C109.235 18.3907 109.81 18.7738 110.193 19.3485C110.385 19.3485 110.576 19.5401 110.576 19.7317C110.193 19.7317 109.81 19.5401 109.427 19.3485C109.427 19.573 109.493 19.7317 109.547 19.8631C109.586 19.9561 109.618 20.0355 109.618 20.1148C109.906 20.2106 110.145 20.3064 110.385 20.4022C110.624 20.4979 110.864 20.5937 111.151 20.6895L111.726 22.4137C111.325 22.2801 110.924 22.0534 110.589 21.8634C110.443 21.7809 110.309 21.7054 110.193 21.6474V22.6052C110.768 22.9884 111.343 23.3715 111.726 23.5631C111.726 23.9462 111.726 24.7125 111.534 25.2872C111.151 24.9042 110.576 24.5211 110.002 24.138C109.906 24.3295 109.81 24.6166 109.714 24.9039C109.618 25.1912 109.523 25.4788 109.427 25.6704C109.714 25.9577 110.002 26.1493 110.289 26.3409C110.576 26.5324 110.864 26.724 111.151 27.0114C111.055 27.2029 110.959 27.4424 110.864 27.6819C110.768 27.9213 110.672 28.1608 110.576 28.3524C110.289 28.1608 110.002 27.9213 109.714 27.6819C109.427 27.4424 109.14 27.2029 108.852 27.0114C108.697 27.2442 108.573 27.477 108.443 27.7225C108.251 28.0831 108.045 28.4713 107.703 28.9271C108.277 29.3102 108.852 29.8849 109.235 30.4596C109.139 30.6512 108.996 30.8428 108.852 31.0343C108.708 31.2259 108.565 31.4175 108.469 31.6091C108.182 31.3217 107.942 31.0343 107.703 30.747C107.463 30.4596 107.224 30.1723 106.936 29.8849C106.362 30.6512 105.787 31.2259 105.021 31.8006C105.193 31.9728 105.404 32.2225 105.636 32.4973C105.921 32.8339 106.237 33.2084 106.553 33.5248C106.329 33.7492 106.104 33.9079 105.918 34.0394C105.787 34.1323 105.675 34.2118 105.595 34.291L104.254 32.5669C103.488 33.1416 102.53 33.7163 101.572 34.291L102.339 35.4405H104.446C107.894 33.1416 110.959 29.6934 111.726 25.6704C112.3 23.3715 111.917 20.8811 110.193 19.157C109.427 18.1991 108.469 17.816 107.703 17.6244L108.277 18.1991Z" fill="#08436A"/>
<path d="M99.082 18.3907L99.2736 18.1991C99.3694 18.1991 99.4652 18.247 99.561 18.2949C99.6567 18.3428 99.7525 18.3907 99.8483 18.3907C99.7525 18.4865 99.6088 18.5822 99.4652 18.678C99.3215 18.7738 99.1778 18.8696 99.082 18.9654V19.157C99.2736 18.9654 99.6567 18.7738 100.04 18.5822C100.158 18.5822 100.204 18.6554 100.266 18.7565C100.305 18.819 100.35 18.8922 100.423 18.9654C99.8483 19.157 99.2736 19.3485 99.082 19.5401V19.7317C99.4652 19.5401 100.04 19.3485 100.615 19.157L100.615 19.5401C100.231 19.7317 99.6567 19.9232 99.082 20.1148V20.3064C99.6567 20.1148 100.231 19.9232 100.806 19.9232V20.3064C100.47 20.3904 100.208 20.4375 99.9708 20.4802C99.6671 20.5348 99.4048 20.5819 99.082 20.6895V21.0727C99.6567 20.8811 100.423 20.8811 100.806 20.8811C100.806 20.9769 100.758 21.0727 100.71 21.1684C100.662 21.2642 100.615 21.36 100.615 21.4558C100.231 21.2642 99.4652 21.2642 99.082 21.2642V21.6474C99.2736 21.7432 99.5131 21.7911 99.7525 21.8389C99.992 21.8868 100.231 21.9347 100.423 22.0305C100.423 22.1263 100.375 22.1742 100.327 22.2221C100.279 22.27 100.231 22.3179 100.231 22.4137C100.04 22.4137 99.8483 22.3658 99.6567 22.3179C99.4652 22.27 99.2736 22.2221 99.082 22.2221V22.7968C99.2736 22.9884 99.6567 23.1799 99.6567 23.1799C99.6567 23.3715 99.4652 23.5631 99.4652 23.5631C99.2736 23.5631 99.082 23.3715 99.082 23.3715V24.3294C99.2736 24.1378 99.4173 23.9462 99.561 23.7547C99.7046 23.5631 99.8483 23.3715 100.04 23.1799C100.806 22.0305 101.381 20.6895 100.806 19.3485C100.615 18.5822 99.6567 18.0075 99.082 18.0075V18.3907Z" fill="#08436A"/>
<path d="M111.343 20.1148C111.461 20.2332 111.506 20.3516 111.569 20.5152C111.607 20.6163 111.653 20.7347 111.726 20.8811L112.3 21.0727C112.684 21.8389 113.067 22.6052 113.258 23.3715C112.875 23.1799 112.492 22.9884 112.3 22.7968V23.7547C112.492 23.9462 112.684 24.0899 112.875 24.2336C113.067 24.3773 113.258 24.5209 113.45 24.7125C113.45 25.2872 113.45 26.0535 113.258 26.6282C112.875 26.2451 112.492 25.8619 112.109 25.6704C112.109 26.0535 111.939 26.4366 111.768 26.8198C111.683 27.0114 111.598 27.2029 111.534 27.3945C111.726 27.5861 111.965 27.7776 112.205 27.9692C112.444 28.1608 112.684 28.3524 112.875 28.5439C112.684 29.1185 112.492 29.6934 112.3 30.0765C111.726 29.6934 111.343 29.3102 110.959 28.7355C110.828 28.9322 110.697 29.1739 110.558 29.4297C110.292 29.9211 109.996 30.4648 109.618 30.8428C109.906 31.0343 110.097 31.2738 110.289 31.5133C110.48 31.7527 110.672 31.9922 110.959 32.1838C110.892 32.2856 110.83 32.3814 110.772 32.4711C110.502 32.8882 110.317 33.1756 110.002 33.3332C109.88 33.2119 109.759 33.0715 109.632 32.924C109.357 32.6056 109.053 32.254 108.661 31.9922C108.086 32.7585 107.511 33.3332 106.745 34.0995C107.32 34.4826 107.894 35.4405 107.894 35.4405H108.277C109.044 34.8658 109.81 34.0995 110.385 33.3332C111.917 31.4175 113.067 29.3102 113.45 27.0114C114.025 24.5209 113.45 22.0305 111.726 20.3064L111.343 20.1148Z" fill="#08436A"/>
<path d="M112.875 21.2642C113.45 22.2221 114.025 23.1799 114.408 24.3294L113.833 23.7547C113.833 24.3294 113.833 24.7125 114.025 25.0956C114.216 25.2872 114.408 25.4788 114.599 25.8619C114.791 26.6282 114.791 27.3945 114.599 27.9692C114.52 27.8899 114.441 27.7777 114.348 27.6463C114.216 27.4604 114.057 27.2358 113.833 27.0114C113.641 27.5861 113.45 28.3524 113.258 29.1186C113.641 29.3102 114.025 29.8849 114.216 30.2681C114.158 30.3841 114.1 30.5176 114.037 30.6635C113.891 30.9992 113.717 31.3999 113.45 31.8006C113.258 31.2259 113.067 31.0343 112.492 30.4596C112.364 30.9705 112.066 31.4813 111.768 31.9922C111.619 32.2476 111.47 32.5031 111.343 32.7585C111.45 32.9736 111.618 33.1888 111.813 33.4379C111.964 33.6323 112.132 33.8475 112.3 34.0995C111.917 34.4826 111.534 34.8658 111.343 35.2489C110.959 34.8658 110.576 34.2911 110.385 33.9079C110.186 34.1071 110.009 34.3063 109.84 34.4976C109.521 34.858 109.228 35.1902 108.852 35.4405H111.343C113.067 33.5248 114.216 31.2259 114.791 28.9271C115.366 26.2451 114.791 23.7547 113.258 21.8389C113.162 21.7432 113.115 21.6474 113.067 21.5516C113.019 21.4558 112.971 21.36 112.875 21.2642Z" fill="#08436A"/>
<path d="M115.174 26.2451C115.366 26.4366 115.557 26.8198 115.557 26.8198C115.557 27.5861 115.557 28.3524 115.366 29.1186L115.174 28.5439C115.078 28.927 114.982 29.2623 114.887 29.5975C114.791 29.9327 114.695 30.2681 114.599 30.6512L114.982 31.4175L114.408 33.1416C114.216 32.7585 114.025 32.3753 113.833 32.1838C113.45 32.9501 113.067 33.7163 112.492 34.4826L113.067 35.4405H113.258C114.791 33.3332 115.749 30.8428 115.749 27.9692C115.94 26.8198 115.557 25.8619 115.174 24.9041L114.982 24.7125C115.174 25.2872 115.174 25.6704 115.174 26.2451Z" fill="#08436A"/>
<path d="M116.132 29.8849L115.94 29.6933L115.366 31.9922L115.557 32.3753L114.982 34.0995C114.982 33.9079 114.791 33.7163 114.599 33.5248C114.408 34.0995 114.025 34.8658 113.641 35.4405H114.599C115.174 34.4826 115.557 33.3332 115.749 32.1838C116.132 31.2259 116.323 30.0765 116.132 28.7355V29.8849Z" fill="#08436A"/>
<path d="M116.323 31.6091C115.94 32.5669 115.557 34.0995 115.366 35.0573V34.6742C115.174 35.0573 114.791 35.4405 114.791 35.4405H115.366C115.749 34.4826 116.132 32.9501 116.323 31.6091Z" fill="#08436A"/>
<path d="M100.806 34.6742C100.231 35.0573 99.6567 35.2489 99.082 35.4405H101.381L100.806 34.6742Z" fill="#08436A"/>
<path d="M105.979 34.8658C105.787 34.9615 105.643 35.0573 105.5 35.1531C105.356 35.2489 105.212 35.3447 105.021 35.4405H106.362C106.362 35.4405 105.979 35.0573 105.979 34.8658Z" fill="#08436A"/>
<path fill-rule="evenodd" clip-rule="evenodd" d="M78.7734 19.7314V31.0341H84.329C88.9267 31.0341 91.2255 28.9268 91.2255 25.287C91.2255 22.0303 89.1183 19.7314 84.329 19.7314H78.7734ZM81.8386 22.2219H84.329C86.8194 22.2219 87.9688 23.3713 87.9688 25.287C87.9688 27.3943 86.8194 28.5437 84.329 28.5437H81.8386V22.2219Z" fill="#08436A"/>
<path d="M72.837 22.2219V19.7314H62.4922V31.0341H72.837V28.5437H65.5573V26.4364H71.6876V24.1376H65.5573V22.2219H72.837Z" fill="#08436A"/>
<path d="M56.9353 19.7314V22.2219H52.9123V31.0341H49.8472V22.2219H45.8242V19.7314H56.9353Z" fill="#08436A"/>
<path d="M40.2684 19.7314H37.0117V31.0341H40.2684V19.7314Z" fill="#08436A"/>
<path d="M20.9204 23.946L27.817 31.0341H30.1158V19.7314H27.2423V26.4364L20.7289 19.7314H18.0469V31.0341H20.9204V23.946Z" fill="#08436A"/>
<path d="M6.16933 31.2257C10.0007 31.2257 12.108 29.5016 12.108 26.0533V19.7314H9.04289V26.0533C8.85132 27.7774 8.08504 28.7353 6.16933 28.7353C4.06205 28.7353 3.1042 27.7774 3.1042 26.0533V19.7314H0.0390625V26.0533C0.0390625 29.5016 2.14634 31.2257 6.16933 31.2257Z" fill="#08436A"/>
</svg>
