<svg width="90" height="50" viewBox="0 0 90 50" fill="none" xmlns="http://www.w3.org/2000/svg">
<path d="M46.2963 11.4665C45.7989 11.0181 45.062 10.897 44.4294 11.0857C43.9052 11.2418 43.4825 11.6703 43.302 12.1828C43.1599 12.5665 43.1661 12.9758 43.1722 13.3813C43.1739 13.494 43.1755 13.6063 43.1741 13.7178C43.1736 16.179 43.1737 18.6405 43.1739 21.1019C43.174 24.3839 43.1742 27.6659 43.173 30.9476C43.1646 31.6452 43.5094 32.3836 44.1535 32.7039C44.9431 33.0975 46.0193 32.9007 46.5316 32.1542C46.9283 31.5968 46.9148 30.9149 46.9017 30.2508C46.8978 30.0532 46.894 29.8572 46.901 29.6665L46.9011 25.8229C46.9013 21.5522 46.9015 17.2815 46.8995 13.0109C46.8973 12.446 46.7179 11.859 46.2963 11.4665Z" fill="white"/>
<path fill-rule="evenodd" clip-rule="evenodd" d="M33.7831 19.2191C32.1572 19.3763 30.5815 20.2079 29.6358 21.5565C28.4455 23.229 28.1683 25.394 28.4141 27.3926C28.6272 29.1465 29.4937 30.8877 31.0066 31.866C32.5334 32.8885 34.4609 33.0271 36.2405 32.8199C37.1802 32.7092 38.1365 32.524 38.9728 32.0605C39.4281 31.7973 39.8848 31.3989 39.9544 30.8458C40.0371 30.119 39.5223 29.3422 38.7981 29.1862C38.3331 29.1215 37.8785 29.2594 37.4366 29.3934C37.3848 29.4091 37.3331 29.4248 37.2817 29.44C36.0448 29.8104 34.6496 30.1202 33.4127 29.5938C32.5264 29.2187 32.1083 28.2626 31.9558 27.3704C33.2553 27.3667 34.5553 27.3673 35.8552 27.368H35.8566C36.9559 27.3685 38.0554 27.3691 39.1544 27.367C39.6365 27.3635 40.2038 27.2435 40.4612 26.7893C40.7536 26.2804 40.7145 25.6778 40.6775 25.107C40.6727 25.0324 40.6679 24.9583 40.6639 24.8851C40.5508 23.2744 39.9965 21.6008 38.7538 20.5084C37.4155 19.3216 35.5103 19.0281 33.7831 19.2191ZM31.9569 24.8641C32.0466 23.9464 32.2679 22.8575 33.1623 22.3869C34.0207 21.9863 35.084 21.9816 35.9365 22.4009C36.8275 22.8703 37.1396 23.9289 37.2059 24.8653C36.1569 24.8632 35.1073 24.8636 34.0579 24.864H34.0565C33.3567 24.8643 32.6566 24.8646 31.9569 24.8641Z" fill="white"/>
<path d="M15.1867 19.3181C15.8284 19.1376 16.5878 19.2459 17.0688 19.7339C17.4764 20.1345 17.6395 20.718 17.6372 21.2759C17.639 22.3859 17.6386 23.4956 17.6381 24.6052V24.6074C17.6377 25.5575 17.6373 26.5078 17.6383 27.4578C17.6336 28.2009 17.9376 28.9928 18.5863 29.4028C19.157 29.7731 19.8686 29.8069 20.5266 29.73C21.0915 29.659 21.6552 29.3946 21.9836 28.9148C22.354 28.3907 22.4064 27.7269 22.4134 27.1049C22.4139 26.0951 22.4137 25.0853 22.4134 24.0757C22.4131 23.0664 22.4128 22.0565 22.4134 21.0476C22.4192 20.3441 22.8431 19.6384 23.5105 19.3798C24.236 19.0875 25.1724 19.2261 25.6802 19.8562C26.0762 20.3116 26.1531 20.9393 26.1426 21.5216C26.1371 22.3116 26.1388 23.1019 26.1405 23.8923C26.1428 24.9612 26.1452 26.0311 26.1298 27.1003C26.0913 28.6912 25.6604 30.3927 24.4492 31.5038C23.1506 32.7011 21.2883 32.991 19.5845 32.9247C18.0145 32.8711 16.3456 32.3994 15.2764 31.1835C14.2958 30.0748 13.9278 28.5537 13.9115 27.1049C13.9124 26.2743 13.912 25.4436 13.9116 24.613C13.9109 23.4243 13.9103 22.2357 13.9138 21.0476C13.9231 20.2824 14.4402 19.5324 15.1867 19.3181Z" fill="white"/>
<path d="M66.1534 20.1458C64.6113 19.1989 62.7049 19.1185 60.9554 19.3387C60.0832 19.4691 59.2238 19.7544 58.49 20.2529C57.5048 20.9319 56.8363 22.0034 56.5564 23.1575C56.2891 24.1244 56.2964 25.1245 56.3038 26.1195C56.3056 26.3723 56.3075 26.6248 56.3049 26.8763C56.3056 27.5853 56.3053 28.2941 56.305 29.0028V29.0114C56.3047 29.6584 56.3044 30.3053 56.3049 30.9525C56.3016 31.465 56.4647 31.9961 56.8316 32.3664C57.5653 33.1386 58.9885 33.0675 59.629 32.2115C59.9306 31.8237 60.0354 31.324 60.0343 30.8419C60.0318 29.7705 60.032 28.6988 60.0321 27.6269V27.6215C60.0323 26.6713 60.0324 25.7209 60.0307 24.7706C60.0285 24.13 60.1902 23.4475 60.656 22.9828C61.157 22.5042 61.8871 22.3761 62.5555 22.3959C63.2323 22.4203 63.9417 22.6859 64.3329 23.2647C64.7887 23.9054 64.784 24.7192 64.7797 25.4751L64.7791 25.5893C64.7775 26.3901 64.7778 27.1908 64.778 27.9916C64.7784 28.9774 64.7787 29.9632 64.7755 30.949C64.7581 31.529 64.9955 32.1242 65.4498 32.4933C66.1429 33.0524 67.234 33.0384 67.9014 32.4421C68.3534 32.0415 68.5455 31.4195 68.535 30.8291L68.5347 30.383C68.5337 28.7475 68.5327 27.1119 68.535 25.4764C68.5339 24.6658 68.4629 23.8482 68.2486 23.0644C67.9362 21.8799 67.2144 20.7817 66.1534 20.1458Z" fill="white"/>
<path fill-rule="evenodd" clip-rule="evenodd" d="M73.0325 20.8044C74.3041 19.6863 76.0362 19.2006 77.7073 19.2414C79.3447 19.2437 81.0148 19.5791 82.4499 20.3909C83.1101 20.7496 83.6052 21.4449 83.5889 22.2159C83.5889 23.1621 83.5888 24.1083 83.5887 25.0546L83.5887 25.2916C83.5884 28.1113 83.5882 30.9315 83.59 33.7517C83.5654 35.4917 83.0075 37.3377 81.6474 38.5012C80.2811 39.6775 78.4095 40.0222 76.6557 39.9989C75.3072 39.9418 73.9478 39.6018 72.7867 38.8995C72.3673 38.6305 71.9714 38.295 71.7282 37.8548C71.283 37.0337 71.8003 35.8621 72.7156 35.6559C73.2951 35.5657 73.8434 35.7974 74.3711 36.0203C74.4564 36.0564 74.5415 36.0923 74.6257 36.1265C75.4478 36.4887 76.3446 36.6936 77.2462 36.661C78.0147 36.6599 78.8394 36.4677 79.3973 35.9063C79.9157 35.3671 80.0737 34.5891 80.0679 33.8647L80.0669 33.5642V33.5599C80.0649 32.991 80.0628 32.4226 80.0668 31.8534C79.0141 32.7793 77.5362 33.0017 76.1804 32.9143C74.7609 32.827 73.3678 32.1934 72.4383 31.1034C71.1308 29.6044 70.744 27.5185 70.8498 25.5829C70.9408 23.7952 71.6513 21.9841 73.0325 20.8044ZM76.9551 22.4256C76.3856 22.5234 75.831 22.7749 75.4293 23.1966C74.6945 23.9932 74.5278 25.131 74.5289 26.1734C74.5441 27.1109 74.6177 28.13 75.1988 28.908C75.7494 29.6242 76.7278 29.7873 77.5779 29.7209C78.391 29.6813 79.1936 29.2387 79.5673 28.498C80.0995 27.4888 80.0825 26.3525 80.0657 25.2333C80.0604 24.8828 80.0552 24.5339 80.0668 24.1912C80.0608 24.0909 80.0647 23.9837 80.0686 23.8749C80.0814 23.5198 80.0948 23.1466 79.7674 22.9345C78.971 22.3475 77.902 22.2846 76.9551 22.4256Z" fill="white"/>
<path d="M2.36326 19.4085C1.55849 19.2443 0.584846 19.5424 0.190029 20.3076C-0.0813336 20.8154 -0.0347475 21.428 0.158584 21.9544C0.80711 23.7765 1.45066 25.6009 2.0943 27.4256L2.09486 27.4272C2.48323 28.5282 2.87164 29.6293 3.2612 30.73C3.48016 31.3182 3.72241 31.9319 4.18478 32.3757C4.68906 32.8485 5.42045 32.9091 6.0773 32.9056C6.66895 32.9009 7.33048 32.8579 7.78234 32.4281C8.1866 32.0249 8.39628 31.483 8.59887 30.9595C8.61508 30.9176 8.63145 30.8753 8.64767 30.8337C9.11942 29.5153 9.58783 28.1958 10.0562 26.8763L10.0567 26.8749C10.6243 25.276 11.1919 23.6771 11.7655 22.0802C11.9902 21.5072 12.0694 20.8247 11.7585 20.2668C11.2705 19.426 10.086 19.1476 9.22536 19.5401C8.68962 19.7963 8.4264 20.3705 8.28434 20.9167C8.11519 21.4884 7.9464 22.0601 7.77761 22.6318L7.77715 22.6333C7.19303 24.6117 6.60895 26.59 6.01093 28.5638C5.93172 28.4357 5.86303 28.2982 5.82341 28.1527C5.27519 26.2889 4.72304 24.4271 4.17089 22.5652C3.9864 21.9432 3.80192 21.3211 3.61758 20.6989C3.45803 20.0945 3.00265 19.5273 2.36326 19.4085Z" fill="white"/>
<path d="M50.9644 19.4966C51.7482 19.1856 52.744 19.422 53.2214 20.1394C53.5056 20.5366 53.5708 21.0409 53.5686 21.5172C53.5646 24.1975 53.5656 26.8786 53.5667 29.5591L53.5672 30.8367C53.5661 31.3561 53.4371 31.8989 53.0829 32.2937C52.4119 33.0857 51.0402 33.1078 50.3413 32.3426C50.006 31.9664 49.8349 31.4598 49.8381 30.959L49.8384 30.1535C49.8394 27.1969 49.8404 24.2396 49.8381 21.2831C49.8185 20.5378 50.2503 19.7656 50.9644 19.4966Z" fill="white"/>
<path d="M87.9725 12.4049C87.383 12.2162 86.7331 12.2162 86.144 12.4026C84.4366 12.9034 84.1557 15.4632 85.5241 16.4823C86.5888 17.2265 88.2835 17.0775 89.0636 15.985C89.4642 15.4318 89.4935 14.7097 89.4131 14.0564C89.2851 13.2959 88.7051 12.6402 87.9725 12.4049Z" fill="white"/>
</svg>
