<?xml version="1.0" encoding="UTF-8"?>
<!DOCTYPE svg PUBLIC "-//W3C//DTD SVG 1.1//EN" "http://www.w3.org/Graphics/SVG/1.1/DTD/svg11.dtd">
<!-- Creator: CorelDRAW 2017 -->
<svg xmlns="http://www.w3.org/2000/svg" xml:space="preserve" width="182px" height="50px" version="1.1" shape-rendering="geometricPrecision" text-rendering="geometricPrecision" image-rendering="optimizeQuality" fill-rule="evenodd" clip-rule="evenodd"
viewBox="0 0 7326 2016"
 xmlns:xlink="http://www.w3.org/1999/xlink"
 enable-background="new 0 0 169 43">
 <defs>
   <clipPath id="id0">
    <path d="M0 2016l7326 0 0 -2016 -7326 0 0 2016z"/>
   </clipPath>
 </defs>
 <g id="Vrstva_x0020_1">
  <metadata id="CorelCorpID_0Corel-Layer"/>
  <g>
  </g>
  <g clip-path="url(#id0)">
   <g>
    <g id="_2689753474960">
     <g>
      <path fill="white" d="M1361 709c-110,123 -220,245 -330,367 1,-49 -1,-99 1,-148 0,-45 -1,-91 1,-136 -145,0 -290,0 -434,0 -84,90 -168,180 -251,270 0,-90 0,-180 1,-270 -116,0 -232,0 -349,0 33,147 66,293 99,440 118,0 236,0 353,0 104,-113 208,-226 312,-339 4,16 5,33 7,49 11,97 23,193 34,290 111,0 222,0 333,0 6,0 11,1 17,-1 137,-132 273,-265 411,-397 -56,133 -112,265 -168,398 308,0 615,0 923,0 12,-29 23,-58 35,-87 -194,-1 -387,0 -581,-1 14,-31 28,-63 42,-95 177,0 353,0 530,0 12,-28 23,-56 35,-84 -177,0 -353,0 -529,0 12,-28 25,-57 38,-85 186,0 373,0 560,0 11,-30 24,-59 35,-88 -293,0 -585,0 -878,0 29,-27 58,-55 86,-83 -111,0 -222,0 -333,0l0 0zm1388 95c-68,10 -136,22 -198,49 -28,13 -56,29 -73,55 -10,16 -16,39 -5,56 13,22 37,34 60,42 55,20 114,28 172,36 68,9 138,14 206,25 25,4 50,8 72,19 8,4 18,12 14,22 -5,12 -18,19 -30,24 -29,10 -60,13 -91,16 -62,5 -125,4 -188,2 -87,-3 -174,-11 -259,-27 -24,33 -48,65 -71,98 162,17 324,21 486,17 100,-4 200,-11 298,-30 54,-11 108,-25 156,-53 27,-16 53,-39 62,-71 5,-20 -5,-41 -21,-53 -31,-23 -68,-32 -104,-41 -107,-22 -217,-26 -326,-41 -22,-4 -45,-7 -66,-16 -7,-3 -15,-7 -17,-15 5,-19 25,-25 41,-30 63,-16 128,-15 192,-16 97,0 195,4 290,20 3,-4 6,-8 9,-12 70,0 141,0 212,0 -50,117 -99,235 -149,352 115,0 229,0 343,0 49,-118 98,-235 148,-352 105,0 210,-1 315,0 12,-29 24,-59 37,-88 -281,0 -563,0 -844,0 -46,0 -92,2 -138,-2 -178,-9 -357,-9 -533,14l0 0zm3917 -10c-26,63 -53,127 -80,190 246,-63 491,-127 737,-189 -25,-2 -51,-1 -77,-1 -193,0 -387,0 -580,0l0 0zm-2307 2c-51,115 -102,230 -153,346 -14,29 -37,53 -62,73 -51,40 -115,67 -180,66 -46,-1 -93,-3 -138,-11 -14,32 -27,64 -40,96 131,12 263,18 393,-3 73,-11 146,-30 212,-64 53,-27 105,-64 133,-119 56,-128 113,-256 169,-384 -111,0 -222,0 -334,0l0 0zm431 0c-60,143 -120,286 -180,430 300,0 601,0 901,0 12,-28 23,-55 35,-82 -189,0 -379,0 -568,0 14,-33 27,-65 41,-97 172,0 345,0 517,0 12,-27 23,-54 35,-82 -173,0 -345,0 -518,0 13,-28 25,-56 38,-84 261,0 522,0 784,0 -49,115 -97,230 -145,345 111,0 223,0 334,-1 48,-114 97,-229 145,-344 103,0 205,0 308,0 12,-28 24,-57 36,-85 -588,0 -1175,0 -1763,0zm2068 431c96,0 192,0 288,0 60,-144 121,-287 180,-430 -156,143 -312,286 -468,430l0 0zm-273 -240c-34,80 -67,160 -101,240 123,0 247,0 370,0 86,-106 172,-212 259,-317 -176,25 -352,51 -528,77l0 0z"/>
     </g>
    </g>
    <g id="_2689753475312">
     <path fill="white" d="M1361 709c111,0 222,0 333,0 -28,28 -57,56 -86,83 293,0 585,0 878,0 -12,29 -24,58 -35,88 -187,0 -374,0 -561,0 -12,28 -25,57 -38,85 177,0 353,0 530,0 -12,28 -24,56 -35,84 -177,0 -353,0 -530,0 -14,32 -28,64 -42,95 193,1 387,0 581,1 -12,29 -23,58 -35,87 -308,0 -615,0 -923,0 56,-133 111,-265 168,-398 -138,132 -274,265 -411,397 -6,2 -12,1 -17,1 -111,0 -222,0 -333,0 -12,-97 -23,-193 -34,-290 -3,-16 -4,-33 -7,-49 -104,113 -208,226 -312,339 -117,0 -235,0 -353,0 -33,-147 -66,-293 -99,-440 116,0 233,0 349,0 -1,90 -1,180 -1,270 83,-90 167,-180 250,-270 145,0 290,0 435,0 -2,45 -1,91 -1,136 -2,49 -1,99 -1,148 110,-122 220,-244 330,-367l0 0z"/>
     <path fill="white" d="M2749 804c176,-23 355,-23 533,-14 46,4 92,2 138,2 281,0 562,0 844,0 -13,29 -25,59 -37,88 -105,-1 -210,0 -315,0 -50,117 -99,234 -148,352 -115,0 -228,0 -343,0 50,-118 99,-235 148,-352 -70,-1 -141,-1 -211,0 -3,4 -6,8 -9,12 -95,-16 -193,-20 -290,-20 -64,1 -129,0 -192,16 -16,6 -36,11 -41,30 2,8 10,12 17,15 21,9 44,12 66,16 109,15 219,18 326,41 36,9 73,18 104,41 16,12 26,33 21,53 -9,32 -35,55 -62,71 -48,28 -102,42 -156,53 -98,19 -198,26 -298,30 -162,4 -324,0 -486,-17 23,-33 47,-65 70,-98 86,16 173,24 260,27 63,2 126,3 188,-2 31,-3 62,-6 91,-16 12,-5 25,-12 30,-24 4,-10 -6,-18 -14,-22 -22,-11 -47,-15 -72,-19 -68,-11 -138,-16 -206,-25 -58,-8 -117,-16 -172,-36 -23,-8 -47,-20 -60,-42 -11,-17 -6,-40 5,-56 17,-26 45,-42 73,-55 62,-27 130,-39 198,-49l0 0z"/>
     <path fill="white" d="M6585 987c176,-26 352,-52 528,-77 -87,105 -173,211 -259,317 -123,0 -247,0 -370,0 34,-80 67,-160 101,-240l0 0z"/>
    </g>
    <g id="_2689753476944">
     <path fill="white" d="M6666 794c193,0 387,0 580,0 26,0 51,-1 77,1 -246,62 -491,126 -737,189 27,-63 53,-127 80,-190l0 0z"/>
     <path fill="white" d="M4359 796c112,0 223,0 334,0 -56,128 -113,256 -169,384 -28,55 -80,92 -133,119 -66,34 -139,53 -212,64 -130,21 -262,15 -393,3 13,-32 26,-64 40,-96 45,8 92,10 138,11 65,1 129,-26 180,-66 25,-20 48,-44 62,-73 51,-116 102,-231 153,-346l0 0z"/>
     <path fill="white" d="M4790 796c588,0 1175,0 1763,0 -12,28 -24,57 -36,85 -103,0 -205,0 -308,0 -48,115 -97,230 -145,344 -111,1 -223,1 -334,1 48,-115 96,-230 145,-345 -262,0 -523,0 -784,0 -13,28 -25,56 -38,84 173,0 345,0 518,0 -12,28 -23,55 -35,82 -172,0 -345,0 -517,0 -14,32 -27,64 -41,97 189,0 379,0 568,0 -12,27 -23,54 -35,82 -300,0 -601,0 -901,0 60,-144 120,-287 180,-430z"/>
     <path fill="white" d="M6858 1227c156,-144 312,-287 468,-430 -59,143 -120,287 -180,430 -96,0 -192,0 -288,0l0 0z"/>
    </g>
   </g>
  </g>
  <polygon fill="none" points="0,2016 7326,2016 7326,0 0,0 "/>
 </g>
</svg>
