<svg width="210" height="28" viewBox="0 0 210 28" fill="none" xmlns="http://www.w3.org/2000/svg">
<g clip-path="url(#clip0_1170_3775)">
<path d="M113.935 0.158203V27.8418H113.97V27.6287V0.158203H113.935Z" stroke="#363436" stroke-width="0.9" stroke-miterlimit="10"/>
<path d="M155.412 27.8418H141.666H127.771V13.8145V0.158203H141.735H155.412V13.9848V27.8418Z" fill="white"/>
<path d="M145.237 19.4468L144.682 18.7616V19.4468H142.863V18.2771C142.628 18.3851 142.369 18.4418 142.099 18.4418H141.456V19.4468H138.71L138.207 18.7879L137.706 19.4468H133.15V15.0991H137.727L138.227 15.7524L138.728 15.0991H155.414V0.158203H127.774V11.8338L128.815 9.399H130.604L131.185 10.7569V9.399H133.424L133.769 10.3831L134.113 9.399H144.112V9.90145C144.476 9.58171 144.968 9.399 145.547 9.399H148.729L149.31 10.7583V9.399H151.195L151.694 10.1728V9.399H153.576V13.7467H151.704L151.202 12.9605V13.7467H148.468L148.197 13.0809H147.448L147.182 13.7467H145.483C144.928 13.7467 144.459 13.5778 144.111 13.2775V13.7467H141.304L140.748 13.0615V13.7467H130.342L130.071 13.0809H129.322L129.055 13.7467H127.772V27.8432H155.413V19.127C155.134 19.3305 154.774 19.4481 154.363 19.4481H145.237V19.4468Z" fill="#0C79BF"/>
<path d="M155.107 16.374L155.432 15.6418H153.712C153.003 15.6418 152.585 16.075 152.585 16.6674C152.585 17.2599 152.981 17.6364 153.601 17.6364H154.373C154.544 17.6364 154.666 17.743 154.666 17.9063C154.666 18.0696 154.544 18.172 154.373 18.172H152.684V18.9043H154.363C155.072 18.9043 155.491 18.4752 155.491 17.8468C155.491 17.2557 155.121 16.9097 154.475 16.9097H153.704C153.533 16.9097 153.411 16.8031 153.411 16.6398C153.411 16.4764 153.533 16.374 153.704 16.374H155.108H155.107ZM150.426 16.6398C150.426 16.4764 150.548 16.374 150.719 16.374H152.123L152.448 15.6418H150.729C150.02 15.6418 149.601 16.075 149.601 16.6674C149.601 17.2599 149.998 17.6364 150.617 17.6364H151.389C151.561 17.6364 151.682 17.743 151.682 17.9063C151.682 18.0696 151.561 18.172 151.389 18.172H149.7V18.9043H151.38C152.089 18.9043 152.507 18.4752 152.507 17.8468C152.507 17.2557 152.137 16.9097 151.492 16.9097H150.72C150.549 16.9097 150.427 16.8031 150.427 16.6398H150.426ZM146.675 18.9043H149.329V18.172H147.5V17.617H149.283V16.9041H147.5V16.3726H149.329V15.6404H146.675V18.9015V18.9043ZM146.544 18.9043L145.488 17.7167C146.02 17.6045 146.341 17.2045 146.341 16.6965C146.341 16.0722 145.907 15.6431 145.213 15.6431H143.403V18.9043H144.229V17.7485H144.55L145.524 18.9043H146.544ZM145.126 17.0398H144.228V16.374H145.126C145.379 16.374 145.51 16.5276 145.51 16.709C145.51 16.8903 145.379 17.0398 145.126 17.0398ZM143.046 16.7422C143.046 16.0902 142.612 15.6431 141.918 15.6431H140.086V18.9043H140.912V17.8412H141.892C142.605 17.8412 143.047 17.3706 143.047 16.7422H143.046ZM142.215 16.7463C142.215 16.947 142.084 17.1104 141.831 17.1104H140.911V16.374H141.831C142.084 16.374 142.215 16.5415 142.215 16.7463ZM140.012 18.9043L138.704 17.2599L140.004 15.6431H138.993L138.226 16.6453L137.458 15.6431H136.421L137.725 17.2793L136.425 18.9057H137.436L138.203 17.8952L138.975 18.9057H140.012V18.9043ZM133.702 18.9043H136.356V18.172H134.527V17.617H136.31V16.9041H134.527V16.3726H136.356V15.6404H133.702V18.9015V18.9043Z" fill="#0C79BF"/>
<path d="M153.019 13.2026V9.94149H152.199V11.9638L150.898 9.94149H149.85V13.2026H150.677V11.1056L152.017 13.2026H153.019ZM148.831 13.2026H149.765L148.37 9.94149H147.296L145.902 13.2026H146.814L147.081 12.5368H148.561L148.832 13.2026H148.831ZM148.271 11.8281H147.368L147.82 10.7097L148.272 11.8281H148.271ZM145.606 10.6959H146.482V9.94149H145.544C144.52 9.94149 143.969 10.6211 143.969 11.5485V11.5956C143.969 12.5977 144.546 13.2026 145.48 13.2026H145.548L145.887 12.4704H145.62C145.1 12.4704 144.794 12.1534 144.794 11.5942V11.5471C144.794 11.0585 145.065 10.6945 145.606 10.6945V10.6959ZM142.741 13.2026H143.568V9.94149H142.741V13.2026ZM142.61 13.2026L141.554 12.015C142.086 11.9029 142.407 11.5028 142.407 10.9949C142.407 10.3706 141.973 9.94149 141.279 9.94149H139.469V13.2026H140.295V12.0468H140.616L141.59 13.2026H142.61ZM141.192 11.3381H140.294V10.6723H141.192C141.445 10.6723 141.576 10.826 141.576 11.0073C141.576 11.1886 141.445 11.3381 141.192 11.3381ZM136.345 13.2026H138.999V12.4704H137.17V11.9153H138.953V11.2025H137.17V10.671H138.999V9.93872H136.345V13.1998V13.2026ZM134.978 13.2026H135.795V9.94149H134.495L133.768 12.0247L133.037 9.94149H131.724V13.2026H132.541V10.7886L133.399 13.2026H134.122L134.98 10.7886V13.2026H134.978ZM130.704 13.2026H131.638L130.244 9.94149H129.17L127.775 13.2026H128.688L128.954 12.5368H130.434L130.705 13.2026H130.704ZM130.144 11.8281H129.242L129.694 10.7097L130.146 11.8281H130.144Z" fill="#0C79BF"/>
<path d="M165.506 8.7001C166.532 8.7001 167.126 8.03984 167.272 7.63705H167.29V8.57276H168.49V5.17182H165.89V6.28055H167.071C166.934 7.03216 166.421 7.50001 165.679 7.50001C164.937 7.50001 164.04 7.02386 164.04 5.12614C164.04 3.22843 165.065 2.899 165.614 2.899C166.282 2.899 166.713 3.26581 166.996 4.20982L168.36 3.83332C167.93 2.17369 166.905 1.66016 165.624 1.66016C163.719 1.66016 162.539 3.02634 162.539 5.15244C162.539 7.27855 163.454 8.7001 165.505 8.7001H165.506Z" fill="#283272"/>
<path d="M174.212 8.57122V7.36145H171.227V1.78735H169.735V8.57122H174.212Z" fill="#283272"/>
<path d="M177.423 8.7001C179.053 8.7001 180.609 7.56369 180.609 5.18013C180.609 2.79657 179.053 1.66016 177.423 1.66016C175.794 1.66016 174.229 2.79657 174.229 5.18013C174.229 7.56369 175.786 8.7001 177.423 8.7001ZM177.423 7.49863C176.37 7.49863 175.721 6.6003 175.721 5.17874C175.721 3.75719 176.37 2.89623 177.423 2.89623C178.476 2.89623 179.126 3.75857 179.126 5.17874C179.126 6.59891 178.467 7.49863 177.423 7.49863Z" fill="#283272"/>
<path d="M184.444 8.57122C185.707 8.57122 186.907 8.06738 186.907 6.7012C186.907 5.61877 186.257 5.18828 185.434 5.04156V5.02357C186.121 4.88653 186.725 4.42837 186.725 3.46498C186.725 2.09049 185.553 1.78735 184.307 1.78735H181.599V8.57122H184.446H184.444ZM183.062 2.94176H184.179C184.975 2.94176 185.296 3.23521 185.296 3.76673C185.296 4.29826 184.939 4.58201 184.161 4.58201H183.062V2.94038V2.94176ZM183.062 5.63676H184.197C185.021 5.63676 185.45 5.93021 185.45 6.5254C185.45 7.1206 185.084 7.43343 184.26 7.43343H183.061V5.63676H183.062Z" fill="#283272"/>
<path d="M190.275 3.66717H190.293L191.071 5.97736H189.479L190.275 3.66717ZM188.59 8.57132L189.113 7.05841H191.419L191.922 8.57132H193.433L191.035 1.75977H189.616L187.218 8.57132H188.59Z" fill="#283272"/>
<path d="M198.651 8.57122V7.36145H195.666V1.78735H194.175V8.57122H198.651Z" fill="#283272"/>
<path d="M166.047 17.3928C167.31 17.3928 168.51 16.8889 168.51 15.5227C168.51 14.4403 167.86 14.0098 167.036 13.8631V13.8451C167.723 13.7081 168.327 13.2499 168.327 12.2865C168.327 10.9106 167.155 10.6089 165.91 10.6089H163.201V17.3928H166.048H166.047ZM164.665 11.7633H165.781C166.577 11.7633 166.898 12.0567 166.898 12.5883C166.898 13.1198 166.542 13.4035 165.763 13.4035H164.665V11.7619V11.7633ZM164.665 14.4583H165.799C166.623 14.4583 167.053 14.7517 167.053 15.3469C167.053 15.9421 166.687 16.255 165.863 16.255H164.663V14.4583H164.665Z" fill="#283272"/>
<path d="M172.17 17.5021C174.055 17.5021 174.899 16.4571 174.899 14.7891V10.6089H173.434V14.7614C173.434 15.7511 173.067 16.2923 172.188 16.2923C171.309 16.2923 170.925 15.7428 170.925 14.7614V10.6089H169.433V14.7988C169.433 16.4584 170.284 17.5035 172.169 17.5035L172.17 17.5021Z" fill="#283272"/>
<path d="M178.486 17.52C180.371 17.52 181.195 16.5483 181.195 15.4576C181.195 14.0554 179.932 13.6789 178.742 13.3578C177.855 13.11 177.35 12.9176 177.35 12.3764C177.35 11.9736 177.698 11.6981 178.33 11.6981C178.962 11.6981 179.639 12.0829 179.995 12.6602L181.029 11.8712C180.554 11.1472 179.729 10.4773 178.338 10.4773C176.948 10.4773 175.895 11.2386 175.895 12.5037C175.895 13.9253 177.158 14.2367 178.366 14.5759C179.253 14.8236 179.738 15.0437 179.738 15.5572C179.738 16.0708 179.244 16.3365 178.558 16.3365C177.78 16.3365 177.103 15.924 176.727 15.1807L175.601 15.8493C176.104 16.821 177.02 17.5172 178.483 17.5172L178.486 17.52Z" fill="#283272"/>
<path d="M183.741 17.3927V14.0001V10.6074H182.999H182.258V14.0001V17.3927H182.866H183.741Z" fill="#283272"/>
<path d="M186.486 17.3927V13.0284H186.504L189.461 17.3927H190.833V10.6074H189.461V14.9358H189.442L186.604 10.6074H185.113V17.3927H186.486Z" fill="#283272"/>
<path d="M196.984 17.3927V16.1815H193.698V14.4956H195.959V13.3121H193.698V11.8546H196.818V10.6074H192.205V17.3927H196.984Z" fill="#283272"/>
<path d="M200.307 17.52C202.192 17.52 203.016 16.5483 203.016 15.4576C203.016 14.0554 201.753 13.6789 200.563 13.3578C199.674 13.11 199.171 12.9176 199.171 12.3764C199.171 11.9736 199.519 11.6981 200.151 11.6981C200.783 11.6981 201.46 12.0829 201.816 12.6602L202.85 11.8712C202.373 11.1472 201.551 10.4773 200.159 10.4773C198.768 10.4773 197.716 11.2386 197.716 12.5037C197.716 13.9253 198.979 14.2367 200.187 14.5759C201.076 14.8236 201.561 15.0437 201.561 15.5572C201.561 16.0708 201.066 16.3365 200.379 16.3365C199.601 16.3365 198.924 15.924 198.549 15.1807L197.423 15.8493C197.926 16.821 198.842 17.5172 200.307 17.5172V17.52Z" fill="#283272"/>
<path d="M206.458 17.52C208.345 17.52 209.168 16.5483 209.168 15.4576C209.168 14.0554 207.905 13.6789 206.715 13.3578C205.828 13.11 205.325 12.9176 205.325 12.3764C205.325 11.9736 205.673 11.6981 206.303 11.6981C206.934 11.6981 207.612 12.0829 207.969 12.6602L209.004 11.8712C208.527 11.1472 207.703 10.4773 206.312 10.4773C204.92 10.4773 203.868 11.2386 203.868 12.5037C203.868 13.9253 205.131 14.2367 206.339 14.5759C207.227 14.8236 207.712 15.0437 207.712 15.5572C207.712 16.0708 207.217 16.3365 206.531 16.3365C205.753 16.3365 205.076 15.924 204.7 15.1807L203.575 15.8493C204.078 16.821 204.995 17.5172 206.458 17.5172V17.52Z" fill="#283272"/>
<path d="M166.567 26.2126V20.6759H168.591V19.4287H163.062V20.6759H165.076V26.2126H166.567Z" fill="#283272"/>
<path d="M170.86 20.6482H171.876C172.737 20.6482 173.149 20.8959 173.149 21.5645C173.149 22.2331 172.737 22.5002 171.876 22.5002H170.86V20.6482ZM170.86 26.2126V23.6546H171.721L173.131 26.2126H174.705L173.194 23.4622C174.101 23.1868 174.604 22.5999 174.604 21.5285C174.604 20.0253 173.606 19.4287 171.941 19.4287H169.396V26.2126H170.861H170.86Z" fill="#283272"/>
<path d="M178.128 21.3085H178.146L178.924 23.6187H177.332L178.128 21.3085ZM176.444 26.2127L176.966 24.6998H179.273L179.776 26.2127H181.286L178.888 19.4011H177.469L175.071 26.2127H176.444Z" fill="#283272"/>
<path d="M184.517 26.2403L186.852 19.4287H185.45L183.848 24.2775H183.83L182.284 19.4287H180.773L183.108 26.2403H184.517Z" fill="#283272"/>
<path d="M192.37 26.2126V25.0028H189.085V23.3155H191.346V22.1334H189.085V20.6759H192.206V19.4287H187.593V26.2126H192.37Z" fill="#283272"/>
<path d="M198.027 26.2126V25.0028H195.043V19.4287H193.552V26.2126H198.027Z" fill="#283272"/>
<path d="M71.6377 5.09269C72.7309 5.09269 73.6596 5.25187 74.4266 5.57024C75.1937 5.8886 75.8169 6.30939 76.2979 6.83261C76.7788 7.35583 77.1299 7.95241 77.3496 8.62097C77.5707 9.29092 77.6799 9.98577 77.6799 10.7042C77.6799 11.4226 77.5707 12.0966 77.3496 12.7749C77.1299 13.4531 76.7788 14.0539 76.2979 14.5757C75.8169 15.0989 75.1937 15.5197 74.4266 15.8381C73.6596 16.1564 72.7295 16.3156 71.6377 16.3156H67.6008V22.5887H63.7588V5.09131H71.6377V5.09269ZM70.586 13.3272C71.0269 13.3272 71.4497 13.294 71.8588 13.2289C72.2665 13.1638 72.6259 13.0365 72.9354 12.8496C73.245 12.6628 73.4938 12.3956 73.6817 12.0537C73.8697 11.7105 73.9637 11.2606 73.9637 10.7055C73.9637 10.1505 73.8697 9.70063 73.6817 9.35735C73.4938 9.01408 73.245 8.7497 72.9354 8.56145C72.6259 8.3732 72.2665 8.24724 71.8588 8.18218C71.4511 8.11713 71.0269 8.08391 70.586 8.08391H67.6008V13.3286H70.586V13.3272Z" fill="#0A436A"/>
<path d="M82.4424 10.7236V12.93H82.488C82.6414 12.5618 82.8473 12.2213 83.1086 11.9071C83.3684 11.5929 83.6669 11.3244 84.0041 11.1029C84.3399 10.8814 84.7006 10.7084 85.0835 10.5852C85.4663 10.4634 85.8643 10.4011 86.2775 10.4011C86.4917 10.4011 86.7295 10.4399 86.9893 10.516V13.5515C86.8359 13.5211 86.6521 13.4934 86.4378 13.4712C86.2236 13.4477 86.0163 13.4366 85.8173 13.4366C85.2203 13.4366 84.7158 13.5363 84.3026 13.7356C83.8894 13.9349 83.5563 14.2062 83.3048 14.5523C83.0519 14.8969 82.8722 15.2997 82.7658 15.7593C82.6594 16.2188 82.6055 16.7171 82.6055 17.2542V22.611H79.3467V10.7264H82.4452L82.4424 10.7236Z" fill="#0A436A"/>
<path d="M88.341 14.0912C88.6312 13.3174 89.0445 12.6586 89.5807 12.1146C90.1169 11.5706 90.7582 11.1484 91.5086 10.8508C92.259 10.5518 93.1007 10.4023 94.0336 10.4023C94.9664 10.4023 95.8122 10.5518 96.5696 10.8508C97.3269 11.1498 97.9737 11.572 98.5086 12.1146C99.0448 12.6586 99.458 13.3188 99.7482 14.0912C100.038 14.8649 100.132 15.7273 100.132 16.6768C100.132 17.6264 100.04 18.486 99.7482 19.2514C99.458 20.0182 99.0448 20.673 98.5086 21.2169C97.9737 21.7609 97.3269 22.179 96.5696 22.4696C95.8122 22.7603 94.9664 22.9056 94.0336 22.9056C93.1007 22.9056 92.259 22.7603 91.5086 22.4696C90.7582 22.179 90.1169 21.7609 89.5807 21.2169C89.0445 20.673 88.6312 20.0182 88.341 19.2514C88.0494 18.486 87.9043 17.6278 87.9043 16.6768C87.9043 15.7259 88.0494 14.8649 88.341 14.0912ZM91.3013 18.0679C91.3925 18.5206 91.5501 18.9261 91.7726 19.286C91.9937 19.6459 92.2895 19.9338 92.6557 20.1484C93.0233 20.3629 93.4821 20.4709 94.0336 20.4709C94.585 20.4709 95.048 20.3643 95.4225 20.1484C95.797 19.9338 96.0956 19.6473 96.3181 19.286C96.5392 18.9261 96.6967 18.5206 96.7879 18.0679C96.8792 17.6153 96.9261 17.153 96.9261 16.6768C96.9261 16.2007 96.8805 15.7342 96.7879 15.2747C96.6967 14.8151 96.5392 14.4095 96.3181 14.0566C96.0956 13.705 95.7984 13.4171 95.4225 13.1942C95.048 12.9728 94.585 12.8606 94.0336 12.8606C93.4821 12.8606 93.0233 12.9728 92.6557 13.1942C92.2881 13.4171 91.9937 13.705 91.7726 14.0566C91.5501 14.4095 91.3939 14.8151 91.3013 15.2747C91.2101 15.7342 91.1631 16.2021 91.1631 16.6768C91.1631 17.1516 91.2087 17.6153 91.3013 18.0679Z" fill="#0A436A"/>
<path d="M8.08845 10.6447H5.5939V8.00088C5.5939 7.51642 5.32717 7.24927 4.84346 7.24927H3.09935C2.61564 7.24927 2.37379 7.51642 2.37379 8.00088V10.6447H0.921281C0.437573 10.6447 0.194336 10.9104 0.194336 11.3963V12.5604C0.194336 13.0448 0.436191 13.2871 0.921281 13.2871H2.37379V18.8902C2.37379 21.7513 3.41445 22.5763 5.76389 22.5763C6.68432 22.5763 7.43476 22.4794 7.99171 22.359C8.42843 22.2621 8.62191 21.9465 8.59703 21.5091L8.5003 20.2481C8.47542 19.7636 8.18519 19.5685 7.74986 19.6654C7.45963 19.7387 7.14453 19.7623 6.78106 19.7623C5.95737 19.7623 5.5939 19.4467 5.5939 18.4764V13.2871H8.08845C8.57216 13.2871 8.83889 13.0448 8.83889 12.5604V11.3963C8.83889 10.9118 8.57216 10.6447 8.08845 10.6447Z" fill="#1AB258"/>
<path d="M17.7919 10.4508C17.6219 10.4259 17.4284 10.4023 17.1865 10.4023C15.9994 10.4023 15.0555 11.154 14.4018 12.3665C13.965 11.154 13.0709 10.4259 11.9072 10.4259C11.4719 10.4259 11.1319 10.4508 10.8666 10.5228C10.4312 10.6197 10.2377 10.9103 10.2129 11.3464V12.4371C10.188 12.9216 10.4063 13.1652 10.7947 13.1887C11.0849 13.2136 11.3268 13.2371 11.5216 13.3091V21.5298C11.5216 22.0156 11.7635 22.2814 12.2472 22.2814H13.9913C14.475 22.2814 14.7417 22.0156 14.7417 21.5298V16.7779C14.7417 14.5715 15.904 13.4558 17.1382 13.4558H17.4533C17.9619 13.4808 18.2286 13.334 18.2521 12.8247L18.3488 11.2481C18.3723 10.8121 18.2037 10.4965 17.7919 10.448" fill="#1AB258"/>
<path d="M30.5382 19.8355C30.3199 19.8106 30.1264 19.7871 29.9329 19.7386V14.9854C29.9329 11.9056 28.1418 10.4023 24.5817 10.4023C21.4584 10.4023 20.1745 11.518 19.6175 13.0697C19.4724 13.5541 19.6894 13.8697 20.1993 13.9666L21.7237 14.2338C22.1839 14.3057 22.3774 14.0884 22.6193 13.7493C22.9344 13.1666 23.5148 12.851 24.5569 12.851C26.0094 12.851 26.8096 13.5306 26.8096 14.9605V15.5667C26.1075 15.4214 25.2838 15.3245 24.315 15.3245C20.7314 15.3245 19.0605 16.8042 19.0605 19.0106C19.0605 21.2169 20.5379 22.5748 23.0795 22.5748C24.8954 22.5748 26.1793 22.0184 27.0749 21.0481C27.4384 21.9699 28.2372 22.5028 29.6178 22.5028C30.0532 22.5028 30.4166 22.4793 30.6834 22.4544C31.1187 22.381 31.3371 22.1139 31.3606 21.653V20.6107C31.3854 20.1262 31.0938 19.9075 30.5369 19.8355M26.8082 17.5793C26.8082 19.3012 25.4524 20.2716 23.9267 20.2716C22.8127 20.2716 22.159 19.8591 22.159 18.8417C22.159 17.8243 22.886 17.2167 24.5803 17.2167C25.3557 17.2167 26.1296 17.29 26.8082 17.4105V17.5807V17.5793Z" fill="#1AB258"/>
<path d="M60.2543 5.14535L57.7846 5.13013C57.276 5.13013 57.0342 5.39727 57.0342 5.88174V19.8509C57.0342 22.0337 58.0997 22.5667 59.9641 22.5667C60.0719 22.5667 60.1714 22.5653 60.2709 22.5625L60.2557 5.14397L60.2543 5.14535Z" fill="#1AB258"/>
<path d="M49.7962 10.4661C46.3343 10.4661 44.1064 12.9147 44.1064 16.3834C44.1064 20.2384 46.1643 22.6399 50.2813 22.6399C52.194 22.6399 53.7433 22.0835 54.5905 21.6212C54.9291 21.4274 55.0023 21.0883 54.8807 20.7242L54.4937 19.5352C54.3237 19.0992 54.0335 19.0023 53.5982 19.221C52.8961 19.585 51.8057 19.9726 50.5232 19.9726C48.5621 19.9726 47.4966 19.0743 47.2547 17.3053H54.6154C55.0521 17.3053 55.2939 17.0382 55.2939 16.6021V16.2146C55.2939 12.941 53.4531 10.4674 49.7976 10.4674M47.2796 15.4145C47.5463 13.6691 48.5386 12.9894 49.7976 12.9894C51.0566 12.9894 51.9287 13.6926 52.0489 15.4145H47.2796Z" fill="#1AB258"/>
<path d="M42.2835 14.5009V18.3489L36.5605 15.6027L33.2686 14.0247V10.4023L42.2835 14.5009Z" fill="#1AB258"/>
<path d="M42.2835 18.3449V14.4968L33.2686 18.821V22.4434L42.2835 18.3449Z" fill="#0A436A"/>
</g>
<defs>
<clipPath id="clip0_1170_3775">
<rect width="209.222" height="28" fill="white"/>
</clipPath>
</defs>
</svg>
