<svg width="180" height="24" viewBox="0 0 180 24" fill="none" xmlns="http://www.w3.org/2000/svg">
<g clip-path="url(#clip0_1283_3658)">
<path fill-rule="evenodd" clip-rule="evenodd" d="M97.8666 0.0622559H98.0039V23.9379H97.8666V0.0622559Z" fill="white"/>
<path d="M133.626 23.8813H121.789H109.832V11.8456V0.118896H121.848H133.626V11.9882V23.8813Z" fill="white"/>
<path d="M124.87 16.6694L124.394 16.0753V16.6694H122.824V15.6595C122.621 15.7545 122.395 15.8021 122.169 15.8021H121.61V16.6694H119.243L118.814 16.0991L118.386 16.6694H114.46V12.9387H118.398L118.826 13.4971L119.254 12.9387H133.614V0.118896H109.82V10.1347L110.713 8.04365H112.247L112.747 9.208V8.04365H114.674L114.972 8.88721L115.269 8.04365H123.87V8.47137C124.18 8.1981 124.608 8.04365 125.108 8.04365H127.844L128.344 9.208V8.04365H129.962L130.39 8.70899V8.04365H132.008V11.7743H130.402L129.974 11.0971V11.7743H127.618L127.38 11.204H126.738L126.512 11.7743H125.048C124.572 11.7743 124.168 11.6318 123.87 11.3704V11.7743H121.455L120.98 11.1803V11.7743H112.021L111.783 11.204H111.141L110.915 11.7743H109.808V23.8813H133.602V16.3961C133.364 16.5743 133.055 16.6694 132.698 16.6694H124.87Z" fill="#0C79BF"/>
<path d="M133.364 14.0318L133.65 13.4021H132.175C131.568 13.4021 131.199 13.7704 131.199 14.2813C131.199 14.8041 131.544 15.113 132.067 15.113H132.734C132.876 15.113 132.984 15.208 132.984 15.3506C132.984 15.4932 132.876 15.5764 132.734 15.5764H131.282V16.2061H132.734C133.34 16.2061 133.709 15.8377 133.709 15.3031C133.709 14.7922 133.388 14.4952 132.841 14.4952H132.175C132.032 14.4952 131.925 14.4001 131.925 14.2575C131.925 14.115 132.032 14.0318 132.175 14.0318H133.364ZM129.331 14.2694C129.331 14.1269 129.438 14.0437 129.581 14.0437H130.794L131.08 13.414H129.605C128.998 13.414 128.629 13.7823 128.629 14.2932C128.629 14.816 128.974 15.1249 129.498 15.1249H130.164C130.307 15.1249 130.414 15.2199 130.414 15.3625C130.414 15.5051 130.307 15.5882 130.164 15.5882H128.713V16.2179H130.164C130.771 16.2179 131.139 15.8496 131.139 15.315C131.139 14.8041 130.818 14.5071 130.271 14.5071H129.605C129.438 14.4952 129.331 14.4001 129.331 14.2694ZM126.107 16.2061H128.391V15.5764H126.821V15.1011H128.356V14.4952H126.821V14.0437H128.391V13.414H126.107V16.2061ZM125.988 16.2061L125.084 15.1843C125.548 15.0892 125.822 14.7447 125.822 14.3051C125.822 13.7704 125.453 13.4021 124.846 13.4021H123.288V16.2061H124.001V15.2199H124.275L125.12 16.2061H125.988ZM124.775 14.614H124.001V14.0437H124.775C124.989 14.0437 125.108 14.1744 125.108 14.3288C125.096 14.4833 124.989 14.614 124.775 14.614ZM122.978 14.3526C122.978 13.7942 122.609 13.414 122.003 13.414H120.42V16.2179H121.134V15.3031H121.979C122.598 15.3031 122.978 14.8991 122.978 14.3526ZM122.264 14.3526C122.264 14.5189 122.157 14.6615 121.931 14.6615H121.134V14.0318H121.931C122.157 14.0318 122.264 14.1863 122.264 14.3526ZM120.373 16.2061L119.243 14.7922L120.361 13.4021H119.492L118.826 14.2575L118.16 13.4021H117.268L118.386 14.8041L117.268 16.1942H118.136L118.802 15.3269L119.469 16.1942H120.373V16.2061ZM114.936 16.2061H117.22V15.5764H115.65V15.1011H117.184V14.4952H115.65V14.0437H117.22V13.414H114.936V16.2061Z" fill="#0C79BF"/>
<path d="M131.568 11.311V8.50708H130.866V10.2417L129.748 8.50708H128.843V11.311H129.557V9.51698L130.711 11.311H131.568ZM127.963 11.311H128.772L127.57 8.50708H126.642L125.441 11.311H126.226L126.452 10.7407H127.725L127.963 11.311ZM127.475 10.1348H126.702L127.095 9.17243L127.475 10.1348ZM125.179 9.16055H125.929V8.50708H125.12C124.239 8.50708 123.763 9.08926 123.763 9.8853V9.92094C123.763 10.7764 124.263 11.2992 125.06 11.2992H125.12L125.405 10.6695H125.179C124.727 10.6695 124.465 10.3962 124.465 9.92094V9.8853C124.489 9.48134 124.715 9.16055 125.179 9.16055ZM122.716 11.311H123.43V9.9447V8.51896H122.716V9.9447V11.311ZM122.609 11.311L121.705 10.2893C122.169 10.1942 122.443 9.84966 122.443 9.41005C122.443 8.8754 122.074 8.50708 121.467 8.50708H119.909V11.311H120.623V10.3249H120.896L121.741 11.311H122.609ZM121.384 9.71896H120.611V9.14866H121.384C121.598 9.14866 121.717 9.27936 121.717 9.43381C121.717 9.58827 121.598 9.71896 121.384 9.71896ZM117.208 11.311H119.492V10.6932H117.922V10.218H119.457V9.60015H117.922V9.14866H119.492V8.51896H117.208V11.311ZM116.03 11.311H116.732V8.50708H115.614L114.984 10.2893L114.353 8.50708H113.223V11.311H113.925V9.24371L114.662 11.311H115.281L116.019 9.24371V11.311H116.03ZM112.354 11.311H113.163L111.962 8.50708H111.034L109.832 11.311H110.617L110.843 10.7407H112.116L112.354 11.311ZM111.878 10.1348H111.105L111.498 9.17243L111.878 10.1348Z" fill="#0C79BF"/>
<path d="M142.311 7.44963C143.191 7.44963 143.703 6.87933 143.833 6.53477H143.845V7.34269H144.88V4.41992H142.644V5.37042H143.655C143.536 6.012 143.096 6.41596 142.453 6.41596C141.835 6.41596 141.038 6.012 141.038 4.3724C141.038 2.73279 141.918 2.45952 142.394 2.45952C142.965 2.45952 143.334 2.76844 143.584 3.58824L144.761 3.26745C144.393 1.8417 143.512 1.4021 142.406 1.4021C140.764 1.4021 139.753 2.57834 139.753 4.39616C139.765 6.15457 140.55 7.44963 142.311 7.44963Z" fill="white"/>
<path d="M149.806 7.34278V6.29723H147.236V1.521H145.951V7.34278H149.806Z" fill="white"/>
<path d="M152.578 7.44971C153.981 7.44971 155.314 6.47545 155.314 4.43189C155.314 2.38832 153.97 1.41406 152.578 1.41406C151.162 1.41406 149.829 2.38832 149.829 4.43189C149.818 6.47545 151.162 7.44971 152.578 7.44971ZM152.578 6.41604C151.674 6.41604 151.114 5.64377 151.114 4.42C151.114 3.19624 151.674 2.45961 152.578 2.45961C153.482 2.45961 154.041 3.19624 154.041 4.42C154.041 5.64377 153.47 6.41604 152.578 6.41604Z" fill="white"/>
<path d="M158.621 7.34278C159.704 7.34278 160.739 6.91506 160.739 5.73882C160.739 4.81209 160.18 4.44377 159.466 4.31308V4.30119C160.061 4.18238 160.572 3.7903 160.572 2.95862C160.572 1.78238 159.561 1.521 158.49 1.521H156.159V7.34278H158.621ZM157.432 2.50714H158.395C159.085 2.50714 159.359 2.75664 159.359 3.22001C159.359 3.67149 159.05 3.921 158.383 3.921H157.444V2.50714H157.432ZM157.432 4.82397H158.407C159.121 4.82397 159.49 5.07347 159.49 5.58436C159.49 6.08337 159.18 6.36852 158.467 6.36852H157.432V4.82397Z" fill="white"/>
<path d="M163.63 3.12479H163.642L164.308 5.10895H162.94L163.63 3.12479ZM162.19 7.34261L162.642 6.04756H164.629L165.058 7.34261H166.354L164.284 1.49707H163.059L160.989 7.34261H162.19Z" fill="white"/>
<path d="M170.839 7.34278V6.29723H168.282V1.521H166.997V7.34278H170.839Z" fill="white"/>
<path d="M142.775 14.9109C143.857 14.9109 144.892 14.4832 144.892 13.3069C144.892 12.3802 144.333 12.0119 143.619 11.8812V11.8693C144.214 11.7505 144.726 11.3584 144.726 10.5267C144.726 9.3505 143.715 9.08911 142.644 9.08911H140.312V14.9109H142.775ZM141.585 10.0752H142.549C143.239 10.0752 143.512 10.3248 143.512 10.7881C143.512 11.2396 143.203 11.4891 142.537 11.4891H141.597V10.0752H141.585ZM141.585 12.3921H142.561C143.274 12.3921 143.643 12.6416 143.643 13.1525C143.643 13.6515 143.334 13.9366 142.62 13.9366H141.585V12.3921Z" fill="white"/>
<path d="M148.045 15.0059C149.663 15.0059 150.389 14.103 150.389 12.6772V9.08911H149.128V12.6535C149.128 13.5089 148.818 13.9723 148.057 13.9723C147.295 13.9723 146.974 13.497 146.974 12.6535V9.08911H145.689V12.6891C145.689 14.1149 146.427 15.0059 148.045 15.0059Z" fill="white"/>
<path d="M153.482 15.018C155.1 15.018 155.814 14.1863 155.814 13.2477C155.814 12.0477 154.731 11.7269 153.708 11.4417C152.946 11.2279 152.506 11.0615 152.506 10.5982C152.506 10.2536 152.804 10.016 153.351 10.016C153.922 10.016 154.481 10.3487 154.79 10.8477L155.683 10.1705C155.278 9.55264 154.564 8.97046 153.363 8.97046C152.114 8.97046 151.257 9.62393 151.257 10.7051C151.257 11.9289 152.34 12.1903 153.387 12.4873C154.148 12.7012 154.564 12.8913 154.564 13.3309C154.564 13.7823 154.136 13.9962 153.553 13.9962C152.887 13.9962 152.304 13.6398 151.983 13.0101L151.019 13.5804C151.436 14.4239 152.221 15.018 153.482 15.018Z" fill="white"/>
<path d="M158.015 14.9109V12V9.08911H157.372H156.73V12V14.9109H157.253H158.015Z" fill="white"/>
<path d="M160.37 14.9109V11.1683H160.394L162.928 14.9109H164.118V9.08911H162.928V12.8079H162.916L160.477 9.08911H159.192V14.9109H160.37Z" fill="white"/>
<path d="M169.412 14.9109V13.8772H166.58V12.4277H168.531V11.4059H166.58V10.1584H169.269V9.08911H165.295V14.9109H169.412Z" fill="white"/>
<path d="M172.267 15.018C173.885 15.018 174.599 14.1863 174.599 13.2477C174.599 12.0477 173.516 11.7269 172.493 11.4417C171.732 11.2279 171.291 11.0615 171.291 10.5982C171.291 10.2536 171.589 10.016 172.136 10.016C172.707 10.016 173.266 10.3487 173.576 10.8477L174.468 10.1705C174.063 9.55264 173.35 8.97046 172.148 8.97046C170.899 8.97046 170.042 9.62393 170.042 10.7051C170.042 11.9289 171.125 12.1903 172.172 12.4873C172.933 12.7012 173.35 12.8913 173.35 13.3309C173.35 13.7823 172.921 13.9962 172.338 13.9962C171.672 13.9962 171.089 13.6398 170.768 13.0101L169.804 13.5804C170.221 14.4239 171.006 15.018 172.267 15.018Z" fill="white"/>
<path d="M177.561 15.018C179.179 15.018 179.893 14.1863 179.893 13.2477C179.893 12.0477 178.81 11.7269 177.775 11.4417C177.014 11.2279 176.574 11.0615 176.574 10.5982C176.574 10.2536 176.871 10.016 177.418 10.016C177.989 10.016 178.549 10.3487 178.858 10.8477L179.75 10.1705C179.346 9.55264 178.632 8.97046 177.43 8.97046C176.181 8.97046 175.325 9.62393 175.325 10.7051C175.325 11.9289 176.407 12.1903 177.454 12.4873C178.215 12.7012 178.632 12.8913 178.632 13.3309C178.632 13.7823 178.204 13.9962 177.621 13.9962C176.954 13.9962 176.371 13.6398 176.05 13.0101L175.087 13.5804C175.515 14.4239 176.3 15.018 177.561 15.018Z" fill="white"/>
<path d="M143.227 22.4793V17.7268H144.964V16.6575H140.205V17.7268H141.942V22.4793H143.227Z" fill="white"/>
<path d="M146.927 17.7029H147.807C148.545 17.7029 148.902 17.9168 148.902 18.4871C148.902 19.0812 148.545 19.295 147.807 19.295H146.927V17.7029ZM146.927 22.4792V20.2812H147.664L148.878 22.4792H150.234L148.937 20.1148C149.722 19.8772 150.151 19.3782 150.151 18.4514C150.151 17.1564 149.294 16.6455 147.855 16.6455H145.666V22.4673H146.927V22.4792Z" fill="white"/>
<path d="M153.173 18.2734H153.184L153.851 20.2576H152.483L153.173 18.2734ZM151.733 22.4793L152.185 21.1843H154.172L154.6 22.4793H155.897L153.827 16.6338H152.601L150.531 22.4793H151.733Z" fill="white"/>
<path d="M158.681 22.503L160.691 16.6575H159.478L158.098 20.8278H158.086L156.753 16.6575H155.457L157.467 22.503H158.681Z" fill="white"/>
<path d="M165.438 22.4793V21.4456H162.607V19.9961H164.558V18.9862H162.607V17.7268H165.295V16.6575H161.322V22.4793H165.438Z" fill="white"/>
<path d="M170.304 22.4793V21.4456H167.734V16.6575H166.449V22.4793H170.304Z" fill="white"/>
<path d="M32.1692 18.012V18.4159C32.1692 18.5466 32.0978 18.6179 31.9551 18.6179H30.7535V22.3842C30.7535 22.5149 30.6821 22.5981 30.5393 22.5981H30.0278C29.8969 22.5981 29.8136 22.5268 29.8136 22.3842V18.6179H28.612C28.4812 18.6179 28.3979 18.5466 28.3979 18.4159V18.0595C28.3979 17.9288 28.4693 17.8456 28.6001 17.8337C28.8857 17.8219 29.2545 17.7981 29.5757 17.7981H30.7416H31.9432C32.0978 17.81 32.1692 17.8813 32.1692 18.012Z" fill="white"/>
<path d="M34.7984 19.5327L34.7746 19.9723C34.7627 20.1149 34.6914 20.1505 34.5486 20.1505H34.4653C34.1203 20.1505 33.7991 20.4594 33.7991 21.0773V22.3961C33.7991 22.5268 33.7277 22.6099 33.5849 22.6099H33.0972C32.9663 22.6099 32.8949 22.5387 32.8949 22.3961V20.103C32.8354 20.0792 32.776 20.0792 32.6927 20.0674C32.5856 20.0555 32.5261 19.9961 32.5261 19.8535V19.5446C32.538 19.4258 32.5856 19.3426 32.7046 19.3188C32.776 19.2951 32.8711 19.2951 32.9901 19.2951C33.3113 19.2951 33.5612 19.4971 33.692 19.8297C33.8705 19.4971 34.1441 19.2832 34.4653 19.2832C34.5367 19.2832 34.5843 19.2951 34.6319 19.2951C34.7627 19.3188 34.8103 19.402 34.7984 19.5327Z" fill="white"/>
<path d="M38.7244 22.1348V22.4199C38.7125 22.5506 38.653 22.6219 38.534 22.6457C38.4627 22.6575 38.3556 22.6575 38.2366 22.6575C37.8559 22.6575 37.6299 22.515 37.5228 22.2536C37.273 22.5268 36.9161 22.6813 36.4045 22.6813C35.6907 22.6813 35.2862 22.3011 35.2862 21.6833C35.2862 21.0655 35.7502 20.6615 36.7495 20.6615C37.0231 20.6615 37.2492 20.6853 37.4514 20.7328V20.5546C37.4514 20.1506 37.2254 19.9724 36.8209 19.9724C36.5354 19.9724 36.3688 20.0556 36.2855 20.2219C36.2142 20.317 36.1666 20.3764 36.0357 20.3526L35.6074 20.2813C35.4646 20.2575 35.4052 20.1625 35.4409 20.0318C35.5955 19.6041 35.9524 19.2952 36.8209 19.2952C37.8202 19.2952 38.3199 19.711 38.3199 20.5665V21.8853C38.3794 21.8971 38.427 21.909 38.4865 21.909C38.653 21.9328 38.7363 21.9922 38.7244 22.1348ZM37.4514 21.2912V21.2437C37.2611 21.208 37.0469 21.1843 36.8328 21.1843C36.3569 21.1843 36.1547 21.3506 36.1547 21.6358C36.1547 21.9209 36.3331 22.0397 36.6424 22.0397C37.0707 22.0397 37.4514 21.7665 37.4514 21.2912Z" fill="white"/>
<path d="M42.4957 19.6042L41.2941 22.4319C41.2584 22.5507 41.1751 22.5982 41.0562 22.5982H40.6398C40.5208 22.5982 40.4375 22.5507 40.4018 22.4319L39.4144 20.0913C39.3549 20.0794 39.2954 20.0675 39.224 20.0675C39.1051 20.0556 39.0456 19.9962 39.0456 19.8537L39.0575 19.5566C39.0694 19.4378 39.117 19.3547 39.2359 19.3309C39.3073 19.319 39.3906 19.3071 39.4977 19.3071C39.8665 19.3071 40.0568 19.4378 40.1996 19.8061L40.8539 21.5764L41.6629 19.4735C41.6986 19.3547 41.7819 19.3071 41.9127 19.319L42.3529 19.3547C42.4957 19.3665 42.5552 19.4616 42.4957 19.6042Z" fill="white"/>
<path d="M46.2789 20.8873V20.9943C46.2789 21.1131 46.2075 21.1844 46.0886 21.1844H45.3747H44.0304C44.1018 21.6834 44.3992 21.9329 44.9465 21.9329C45.3034 21.9329 45.6127 21.8259 45.803 21.719C45.922 21.6596 46.0053 21.6834 46.0529 21.8022L46.1599 22.1348C46.1956 22.2418 46.1718 22.3249 46.0767 22.3844C45.8387 22.515 45.4104 22.6695 44.8751 22.6695C43.7211 22.6695 43.15 22.0042 43.15 20.923C43.15 19.9606 43.7687 19.2715 44.7442 19.2715C45.7673 19.2952 46.2789 19.9844 46.2789 20.8873ZM44.0423 20.6735H45.3747C45.3391 20.1982 45.1011 19.9962 44.7442 19.9962C44.3873 19.9962 44.1137 20.1863 44.0423 20.6735Z" fill="white"/>
<path d="M47.2188 21.9091V18.0239C47.2188 17.8932 47.2901 17.8101 47.4329 17.8101H47.9088C48.0396 17.8101 48.1229 17.8813 48.1229 18.0239V21.8972C48.1943 21.9209 48.3014 21.9328 48.4322 21.9328C48.5631 21.9328 48.6226 22.0041 48.6226 22.1348V22.4318C48.6226 22.5625 48.5512 22.6338 48.4322 22.6457C48.3133 22.6576 48.2062 22.6695 48.0515 22.6695C47.5162 22.6576 47.2188 22.515 47.2188 21.9091Z" fill="white"/>
<path d="M55.8916 22.0279L55.8797 22.4318C55.8797 22.5506 55.8202 22.6219 55.7131 22.6338C55.6179 22.6457 55.5109 22.6457 55.4038 22.6457C54.9755 22.6457 54.7495 22.5625 54.6067 22.1823L54.345 21.4813H52.382L52.0489 22.4437C52.0132 22.5388 51.9418 22.5982 51.8228 22.5982H51.2518C51.109 22.5982 51.0495 22.515 51.0971 22.3724L52.7746 18.012C52.8103 17.9051 52.8936 17.8457 53.0006 17.8338L53.6312 17.7388C53.7382 17.7269 53.8096 17.7625 53.8572 17.8694L55.4038 21.7902C55.4633 21.814 55.5704 21.8259 55.6893 21.8378C55.8321 21.8378 55.8916 21.9091 55.8916 22.0279ZM54.0714 20.7328L53.3575 18.7843L52.6556 20.7328H54.0714Z" fill="white"/>
<path d="M58.4256 19.5327L58.4018 19.9723C58.3899 20.1149 58.3186 20.1505 58.1758 20.1505H58.0925C57.7475 20.1505 57.4263 20.4594 57.4263 21.0773V22.3961C57.4263 22.5268 57.3549 22.6099 57.2121 22.6099H56.7244C56.5935 22.6099 56.5221 22.5387 56.5221 22.3961V20.103C56.4626 20.0792 56.4032 20.0792 56.3199 20.0674C56.2128 20.0555 56.1533 19.9961 56.1533 19.8535V19.5446C56.1652 19.4258 56.2128 19.3426 56.3318 19.3188C56.4032 19.2951 56.4983 19.2951 56.6173 19.2951C56.9385 19.2951 57.1883 19.4971 57.3192 19.8297C57.4977 19.4971 57.7713 19.2832 58.0925 19.2832C58.1639 19.2832 58.2115 19.2951 58.2591 19.2951C58.378 19.3188 58.4256 19.402 58.4256 19.5327Z" fill="white"/>
<path d="M61.0905 19.5327L61.0667 19.9723C61.0548 20.1149 60.9835 20.1505 60.8407 20.1505H60.7574C60.4124 20.1505 60.0912 20.4594 60.0912 21.0773V22.3961C60.0912 22.5268 60.0198 22.6099 59.8771 22.6099H59.3893C59.2584 22.6099 59.187 22.5387 59.187 22.3961V20.103C59.1276 20.0792 59.0681 20.0792 58.9848 20.0674C58.8777 20.0555 58.8182 19.9961 58.8182 19.8535V19.5446C58.8301 19.4258 58.8777 19.3426 58.9967 19.3188C59.0681 19.2951 59.1632 19.2951 59.2822 19.2951C59.6034 19.2951 59.8533 19.4971 59.9841 19.8297C60.1626 19.4971 60.4362 19.2832 60.7574 19.2832C60.8288 19.2832 60.8764 19.2951 60.924 19.2951C61.0548 19.3188 61.1024 19.402 61.0905 19.5327Z" fill="white"/>
<path d="M61.9471 19.1287L61.9947 17.9287C62.0066 17.798 62.0779 17.7386 62.2088 17.7505L62.6371 17.798C62.768 17.8099 62.8274 17.8931 62.8156 18.0119L62.6609 19.1406C62.6371 19.2594 62.5776 19.3188 62.4468 19.3188H62.1493C62.0066 19.3188 61.9352 19.2594 61.9471 19.1287Z" fill="white"/>
<path d="M67.039 22.1348V22.4199C67.0271 22.5506 66.9676 22.6219 66.8486 22.6457C66.7772 22.6575 66.6702 22.6575 66.5512 22.6575C66.1705 22.6575 65.9445 22.515 65.8374 22.2536C65.5876 22.5268 65.2306 22.6813 64.7191 22.6813C64.0053 22.6813 63.6008 22.3011 63.6008 21.6833C63.6008 21.0655 64.0648 20.6615 65.0641 20.6615C65.3377 20.6615 65.5638 20.6853 65.766 20.7328V20.5546C65.766 20.1506 65.54 19.9724 65.1355 19.9724C64.8499 19.9724 64.6834 20.0556 64.6001 20.2219C64.5287 20.317 64.4811 20.3764 64.3503 20.3526L63.922 20.2813C63.7792 20.2575 63.7197 20.1625 63.7554 20.0318C63.9101 19.6041 64.267 19.2952 65.1355 19.2952C66.1348 19.2952 66.6345 19.711 66.6345 20.5665V21.8853C66.694 21.8971 66.7416 21.909 66.801 21.909C66.9676 21.9328 67.0509 21.9922 67.039 22.1348ZM65.766 21.2912V21.2437C65.5757 21.208 65.3615 21.1843 65.1474 21.1843C64.6715 21.1843 64.4692 21.3506 64.4692 21.6358C64.4692 21.9209 64.6477 22.0397 64.957 22.0397C65.3853 22.0397 65.766 21.7665 65.766 21.2912Z" fill="white"/>
<path d="M71.4527 22.1229V22.4199C71.4527 22.5506 71.3813 22.6219 71.2624 22.6457C71.1672 22.6575 71.072 22.6575 70.9055 22.6575C70.4177 22.6575 70.144 22.515 70.144 21.9684V20.816C70.144 20.3051 69.9299 20.0674 69.5135 20.0674C69.0971 20.0674 68.7878 20.3882 68.7878 20.8041V22.3843C68.7878 22.515 68.7164 22.5981 68.5737 22.5981H68.0859C67.955 22.5981 67.8836 22.5268 67.8836 22.3843V20.0912C67.8242 20.0793 67.7647 20.0674 67.6933 20.0556C67.5862 20.0437 67.5267 19.9843 67.5267 19.8417V19.5328C67.5386 19.414 67.5862 19.3308 67.7052 19.307C67.7766 19.2833 67.8836 19.2714 67.9788 19.2714C68.3476 19.2714 68.6094 19.414 68.7283 19.7585C68.9663 19.4615 69.3232 19.2595 69.8109 19.2595C70.6437 19.2595 71.0363 19.7704 71.0363 20.6377V21.8496C71.0839 21.8615 71.1434 21.8734 71.2029 21.8734C71.3813 21.9328 71.4646 21.9922 71.4527 22.1229Z" fill="white"/>
<path d="M75.3668 22.7289C75.3668 23.3586 74.8315 23.8814 73.618 23.8814C72.4402 23.8814 72 23.5249 72 23.0021C72 22.6576 72.1547 22.4318 72.3569 22.2893C72.226 22.1705 72.1547 22.0041 72.1547 21.814C72.1547 21.5408 72.2855 21.315 72.5948 21.1012C72.3688 20.9229 72.2379 20.6734 72.2379 20.3645C72.2379 19.7467 72.7376 19.3071 73.618 19.3071C73.8202 19.3071 73.9987 19.319 74.1533 19.3665C74.2842 18.9507 74.5697 18.7487 74.9861 18.6893C75.117 18.6774 75.2003 18.7487 75.2122 18.8794L75.2479 19.2002C75.2716 19.3309 75.2003 19.4021 75.0694 19.4259C74.9028 19.4615 74.7958 19.5447 74.7244 19.6516C74.9028 19.8299 74.998 20.0556 74.998 20.3289C74.998 20.9705 74.5102 21.3625 73.618 21.3625C73.4157 21.3625 73.2373 21.3388 73.0707 21.3031C72.9518 21.3863 72.9161 21.4695 72.9161 21.5645C72.9161 21.7309 73.0231 21.814 73.2254 21.814H74.3437C75.0575 21.814 75.3668 22.1823 75.3668 22.7289ZM74.534 22.8239C74.534 22.6219 74.4151 22.5031 74.1058 22.5031H72.9755H72.9518C72.8447 22.5863 72.7852 22.6932 72.7852 22.8477C72.7852 23.0853 73.0112 23.2516 73.6418 23.2516C74.2485 23.2398 74.534 23.0734 74.534 22.8239ZM73.0945 20.3645C73.0945 20.6734 73.2849 20.8398 73.618 20.8398C73.963 20.8398 74.1414 20.6734 74.1414 20.3645C74.1414 20.0556 73.963 19.8655 73.618 19.8655C73.2849 19.8655 73.0945 20.0556 73.0945 20.3645Z" fill="white"/>
<path d="M79.1262 20.8873V20.9943C79.1262 21.1131 79.0548 21.1844 78.9358 21.1844H78.222H76.8777C76.9491 21.6834 77.2465 21.9329 77.7937 21.9329C78.1507 21.9329 78.46 21.8259 78.6503 21.719C78.7693 21.6596 78.8526 21.6834 78.9002 21.8022L79.0072 22.1348C79.0429 22.2418 79.0191 22.3249 78.924 22.3844C78.686 22.515 78.2577 22.6695 77.7224 22.6695C76.5684 22.6695 75.9973 22.0042 75.9973 20.923C75.9973 19.9606 76.616 19.2715 77.5915 19.2715C78.6146 19.2952 79.1262 19.9844 79.1262 20.8873ZM76.8896 20.6735H78.222C78.1863 20.1982 77.9484 19.9962 77.5915 19.9962C77.2465 19.9962 76.961 20.1863 76.8896 20.6735Z" fill="white"/>
<path d="M80.0661 21.9091V18.0239C80.0661 17.8932 80.1375 17.8101 80.2802 17.8101H80.7561C80.887 17.8101 80.9703 17.8813 80.9703 18.0239V21.8972C81.0416 21.9209 81.1487 21.9328 81.2796 21.9328C81.4105 21.9328 81.4699 22.0041 81.4699 22.1348V22.4318C81.4699 22.5625 81.3986 22.6338 81.2796 22.6457C81.1606 22.6576 81.0535 22.6695 80.8989 22.6695C80.3635 22.6576 80.0661 22.515 80.0661 21.9091Z" fill="white"/>
<path d="M82.2313 22.4317C82.1242 22.3723 82.0886 22.2891 82.1123 22.1703L82.1718 21.8614C82.1956 21.707 82.2908 21.6713 82.4336 21.7307C82.6953 21.8495 83.0641 21.9684 83.4924 21.9684C83.9564 21.9684 84.0991 21.8614 84.0991 21.6594C84.0991 21.0654 82.0648 21.5763 82.0648 20.305C82.0648 19.6872 82.4931 19.2832 83.4448 19.2832C84.2538 19.2832 84.7891 19.5327 84.9081 20.0198C84.9319 20.1268 84.8605 20.1981 84.7297 20.2218L84.2895 20.2812C84.1467 20.2931 84.0753 20.2456 84.0159 20.1387C83.9326 19.9961 83.7541 19.9129 83.4924 19.9129C83.1355 19.9129 82.957 20.0436 82.957 20.2456C82.957 20.9228 85.0152 20.3169 85.0152 21.6594C85.0152 22.2535 84.5869 22.6575 83.5281 22.6575C82.957 22.6812 82.5525 22.5862 82.2313 22.4317Z" fill="white"/>
<path d="M61.5069 0.118896C62.4468 0.118896 63.2439 0.24959 63.9101 0.534738C64.5644 0.808005 65.1117 1.16444 65.5162 1.61593C65.9326 2.06741 66.23 2.5783 66.4204 3.1486C66.6107 3.7189 66.7059 4.32484 66.7059 4.94266C66.7059 5.5486 66.6107 6.14266 66.4204 6.72484C66.23 7.30702 65.9326 7.81791 65.5162 8.26939C65.0998 8.72088 64.5644 9.07731 63.9101 9.35058C63.2558 9.62385 62.4468 9.76642 61.5069 9.76642H58.033V15.1486H54.7257V0.118896H61.5069ZM60.6028 7.1882C60.9835 7.1882 61.3523 7.16444 61.6973 7.10503C62.0423 7.04563 62.3516 6.9387 62.6252 6.78424C62.887 6.61791 63.1011 6.39216 63.2677 6.09513C63.4342 5.7981 63.5056 5.41791 63.5056 4.94266C63.5056 4.46741 63.4223 4.07533 63.2677 3.79018C63.1011 3.49315 62.887 3.26741 62.6252 3.10108C62.3635 2.93474 62.0542 2.82781 61.6973 2.78028C61.3404 2.72088 60.9835 2.69711 60.6028 2.69711H58.033V7.20009H60.6028V7.1882Z" fill="white"/>
<path d="M70.8103 4.95442V6.84353H70.846C70.9768 6.52274 71.1553 6.23759 71.3813 5.96432C71.6074 5.69105 71.8572 5.46531 72.1546 5.27521C72.4402 5.08511 72.7495 4.94254 73.0826 4.83561C73.4157 4.72868 73.7488 4.68115 74.1057 4.68115C74.2961 4.68115 74.4983 4.7168 74.7125 4.7762V7.37818C74.5816 7.35442 74.4269 7.33066 74.2366 7.3069C74.0462 7.28313 73.8797 7.27125 73.7012 7.27125C73.1897 7.27125 72.7495 7.35442 72.3926 7.53264C72.0357 7.69897 71.7501 7.9366 71.536 8.23363C71.3218 8.53066 71.1672 8.87521 71.072 9.26729C70.9768 9.65937 70.9293 10.0871 70.9293 10.5505V15.1485H68.1216V4.94254H70.8103V4.95442Z" fill="white"/>
<path d="M75.8903 7.84155C76.1401 7.1762 76.497 6.61779 76.961 6.14254C77.425 5.67917 77.9722 5.31086 78.6147 5.06135C79.2571 4.79997 79.9828 4.68115 80.7918 4.68115C81.6008 4.68115 82.3265 4.81185 82.9808 5.06135C83.6352 5.32274 84.1943 5.67917 84.6464 6.14254C85.1104 6.60591 85.4673 7.1762 85.7171 7.84155C85.967 8.5069 86.0502 9.24353 86.0502 10.0633C86.0502 10.8831 85.967 11.6198 85.7171 12.2732C85.4673 12.9267 85.1104 13.497 84.6464 13.9604C84.1824 14.4237 83.6233 14.7802 82.9808 15.0297C82.3265 15.2792 81.6008 15.4099 80.7918 15.4099C79.9828 15.4099 79.269 15.2792 78.6147 15.0297C77.9722 14.7802 77.4131 14.4237 76.961 13.9604C76.497 13.497 76.1401 12.9267 75.8903 12.2732C75.6404 11.6198 75.5096 10.8831 75.5096 10.0633C75.5096 9.24353 75.6404 8.5069 75.8903 7.84155ZM78.4362 11.2515C78.5195 11.6435 78.6504 11.9881 78.8407 12.297C79.0311 12.6059 79.2809 12.8554 79.6021 13.0336C79.9233 13.2237 80.3159 13.3069 80.7918 13.3069C81.2677 13.3069 81.6603 13.2118 81.9815 13.0336C82.3027 12.8554 82.5644 12.6059 82.7548 12.297C82.9451 11.9881 83.076 11.6435 83.1593 11.2515C83.2426 10.8594 83.2783 10.4673 83.2783 10.0633C83.2783 9.65937 83.2426 9.25541 83.1593 8.86333C83.076 8.47125 82.9451 8.11482 82.7548 7.81779C82.5644 7.52076 82.3027 7.27125 81.9815 7.08115C81.6603 6.89105 81.2558 6.79601 80.7918 6.79601C80.3159 6.79601 79.9233 6.89105 79.6021 7.08115C79.2809 7.27125 79.0311 7.52076 78.8407 7.81779C78.6504 8.11482 78.5195 8.47125 78.4362 8.86333C78.3529 9.25541 78.3172 9.65937 78.3172 10.0633C78.3172 10.4673 78.3529 10.8713 78.4362 11.2515Z" fill="white"/>
<path d="M6.80503 4.8833H4.66359V2.614C4.66359 2.19815 4.43755 1.97241 4.02115 1.97241H2.52215C2.10575 1.97241 1.89161 2.19815 1.89161 2.614V4.8833H0.642436C0.226044 4.8833 0.0119019 5.10905 0.0119019 5.52489V6.52291C0.0119019 6.93875 0.226044 7.15261 0.642436 7.15261H1.89161V11.9645C1.89161 14.4239 2.78388 15.1249 4.80635 15.1249C5.60344 15.1249 6.24587 15.0417 6.72175 14.9348C7.10245 14.8516 7.26901 14.5784 7.24521 14.21L7.16194 13.1288C7.13814 12.713 6.88831 12.5467 6.5195 12.6298C6.26967 12.6892 5.99604 12.713 5.68672 12.713C4.97291 12.713 4.66359 12.4397 4.66359 11.6081V7.15261H6.80503C7.22142 7.15261 7.44746 6.95063 7.44746 6.52291V5.52489C7.44746 5.10905 7.22142 4.8833 6.80503 4.8833Z" fill="#1AB258"/>
<path d="M15.1566 4.7168C15.0139 4.69303 14.8473 4.68115 14.6332 4.68115C13.61 4.68115 12.801 5.32274 12.2419 6.36828C11.8612 5.32274 11.0998 4.70492 10.1004 4.70492C9.71975 4.70492 9.43422 4.72868 9.20818 4.78808C8.82748 4.87125 8.66093 5.12076 8.64903 5.50096V6.43957C8.62524 6.85541 8.81558 7.06927 9.1487 7.08115C9.39853 7.10492 9.61268 7.1168 9.77923 7.18808V14.2455C9.77923 14.6614 9.99338 14.8871 10.4098 14.8871H11.9088C12.3252 14.8871 12.5512 14.6614 12.5512 14.2455V10.1703C12.5512 8.28115 13.5505 7.31878 14.6094 7.31878H14.883C15.3232 7.34254 15.5492 7.21185 15.573 6.77224L15.6563 5.41779C15.6563 5.02571 15.5135 4.76432 15.1566 4.7168Z" fill="#1AB258"/>
<path d="M26.1256 12.7722C25.9352 12.7485 25.7687 12.7247 25.6021 12.6891V8.61383C25.6021 5.96432 24.0555 4.68115 20.998 4.68115C18.3093 4.68115 17.2029 5.64353 16.727 6.97422C16.5962 7.39007 16.7865 7.66333 17.2267 7.7465L18.5354 7.97224C18.928 8.03165 19.0945 7.84155 19.3087 7.5564C19.5823 7.05739 20.082 6.78412 20.9742 6.78412C22.2234 6.78412 22.9134 7.3663 22.9134 8.59006V9.11284C22.3067 8.98214 21.6048 8.89897 20.772 8.89897C17.6907 8.89897 16.2512 10.1703 16.2512 12.0594C16.2512 13.9366 17.5241 15.1247 19.7132 15.1247C21.2716 15.1247 22.3781 14.6495 23.1514 13.8178C23.4607 14.6138 24.1507 15.0653 25.3404 15.0653C25.7211 15.0653 26.0304 15.0415 26.2564 15.0297C26.6371 14.9703 26.8156 14.7326 26.8394 14.3406V13.4495C26.8632 13.0217 26.6134 12.8316 26.1256 12.7722ZM22.9134 10.8356C22.9134 12.3089 21.7475 13.1406 20.4389 13.1406C19.4752 13.1406 18.9161 12.7841 18.9161 11.9168C18.9161 11.0257 19.5466 10.5267 20.998 10.5267C21.6642 10.5267 22.3305 10.5861 22.9134 10.693V10.8356Z" fill="#1AB258"/>
<path d="M51.7039 0.166421L49.5743 0.154541C49.1341 0.154541 48.9319 0.380283 48.9319 0.796124V12.7842C48.9319 14.6615 49.8479 15.113 51.454 15.113C51.5492 15.113 51.6325 15.113 51.7158 15.113L51.7039 0.166421Z" fill="#1AB258"/>
<path d="M42.7098 4.72876C39.7237 4.72876 37.8083 6.83173 37.8083 9.81391C37.8083 13.1288 39.5809 15.1842 43.1262 15.1842C44.768 15.1842 46.1123 14.709 46.838 14.305C47.1355 14.1387 47.1949 13.8416 47.0879 13.5327L46.7548 12.5109C46.612 12.1307 46.3622 12.0476 45.9815 12.2377C45.3747 12.5466 44.4349 12.8793 43.3285 12.8793C41.6391 12.8793 40.723 12.107 40.5208 10.5862H44.6728H46.8618C47.2425 10.5862 47.4448 10.3604 47.4448 9.98024V9.64757C47.4329 6.85549 45.8506 4.72876 42.7098 4.72876ZM40.5446 8.98223C40.7706 7.4852 41.6272 6.90302 42.7098 6.90302C43.8162 6.90302 44.5419 7.50896 44.649 8.98223H40.5446Z" fill="#1AB258"/>
<path d="M36.2379 8.19798V11.501L31.3126 9.1366L28.4811 7.78214V4.68115L36.2379 8.19798Z" fill="#1AB258"/>
<path d="M36.2379 11.4893V8.18628L28.4811 11.9051V15.018L36.2379 11.4893Z" fill="white"/>
</g>
<defs>
<clipPath id="clip0_1283_3658">
<rect width="180" height="24" fill="white"/>
</clipPath>
</defs>
</svg>
