<svg width="210" height="28" viewBox="0 0 210 28" fill="none" xmlns="http://www.w3.org/2000/svg">
<g clip-path="url(#clip0_1283_2053)">
<path fill-rule="evenodd" clip-rule="evenodd" d="M114.178 0.0725098H114.338V27.9274H114.178V0.0725098Z" fill="#363436"/>
<path d="M155.897 27.8614H142.087H128.138V13.8199V0.138672H142.156H155.897V13.9862V27.8614Z" fill="white"/>
<path d="M145.681 19.4476L145.126 18.7545V19.4476H143.294V18.2694C143.058 18.3803 142.794 18.4357 142.531 18.4357H141.878V19.4476H139.116L138.617 18.7822L138.117 19.4476H133.537V15.0951H138.131L138.631 15.7466L139.13 15.0951H155.883V0.138672H128.124V11.8238L129.165 9.38422H130.955L131.538 10.7426V9.38422H133.787L134.134 10.3684L134.481 9.38422H144.516V9.88322C144.876 9.56441 145.376 9.38422 145.959 9.38422H149.151L149.734 10.7426V9.38422H151.622L152.122 10.1605V9.38422H154.009V13.7367H152.136L151.636 12.9466V13.7367H148.888L148.61 13.0713H147.861L147.597 13.7367H145.89C145.334 13.7367 144.863 13.5704 144.516 13.2654V13.7367H141.698L141.143 13.0436V13.7367H130.691L130.414 13.0713H129.664L129.401 13.7367H128.11V27.8614H155.869V19.1288C155.592 19.3367 155.231 19.4476 154.814 19.4476H145.681Z" fill="#0C79BF"/>
<path d="M155.592 16.3704L155.925 15.6357H154.204C153.496 15.6357 153.065 16.0654 153.065 16.6615C153.065 17.2714 153.468 17.6318 154.079 17.6318H154.856C155.023 17.6318 155.147 17.7427 155.147 17.909C155.147 18.0753 155.023 18.1724 154.856 18.1724H153.163V18.907H154.856C155.564 18.907 155.994 18.4773 155.994 17.8536C155.994 17.2575 155.619 16.911 154.981 16.911H154.204C154.037 16.911 153.912 16.8001 153.912 16.6338C153.912 16.4674 154.037 16.3704 154.204 16.3704H155.592ZM150.886 16.6476C150.886 16.4813 151.011 16.3843 151.178 16.3843H152.594L152.927 15.6496H151.206C150.498 15.6496 150.067 16.0793 150.067 16.6753C150.067 17.2852 150.47 17.6456 151.081 17.6456H151.858C152.025 17.6456 152.149 17.7565 152.149 17.9229C152.149 18.0892 152.025 18.1862 151.858 18.1862H150.165V18.9209H151.858C152.566 18.9209 152.996 18.4912 152.996 17.8674C152.996 17.2714 152.621 16.9249 151.983 16.9249H151.206C151.011 16.911 150.886 16.8001 150.886 16.6476ZM147.125 18.907H149.79V18.1724H147.958V17.6179H149.748V16.911H147.958V16.3843H149.79V15.6496H147.125V18.907ZM146.986 18.907L145.931 17.7149C146.473 17.6041 146.792 17.2021 146.792 16.6892C146.792 16.0654 146.362 15.6357 145.654 15.6357H143.835V18.907H144.668V17.7565H144.987L145.973 18.907H146.986ZM145.57 17.0496H144.668V16.3843H145.57C145.82 16.3843 145.959 16.5367 145.959 16.7169C145.945 16.8971 145.82 17.0496 145.57 17.0496ZM143.475 16.7447C143.475 16.0932 143.044 15.6496 142.336 15.6496H140.49V18.9209H141.323V17.8536H142.309C143.03 17.8536 143.475 17.3823 143.475 16.7447ZM142.642 16.7447C142.642 16.9387 142.517 17.105 142.253 17.105H141.323V16.3704H142.253C142.517 16.3704 142.642 16.5506 142.642 16.7447ZM140.435 18.907L139.116 17.2575L140.421 15.6357H139.408L138.631 16.6338L137.853 15.6357H136.812L138.117 17.2714L136.812 18.8932H137.826L138.603 17.8813L139.38 18.8932H140.435V18.907ZM134.092 18.907H136.757V18.1724H134.925V17.6179H136.715V16.911H134.925V16.3843H136.757V15.6496H134.092V18.907Z" fill="#0C79BF"/>
<path d="M153.496 13.1961V9.9248H152.677V11.9486L151.372 9.9248H150.317V13.1961H151.15V11.103L152.496 13.1961H153.496ZM149.29 13.1961H150.234L148.832 9.9248H147.75L146.348 13.1961H147.264L147.527 12.5307H149.013L149.29 13.1961ZM148.721 11.8238H147.819L148.277 10.701L148.721 11.8238ZM146.042 10.6872H146.917V9.9248H145.973C144.946 9.9248 144.391 10.604 144.391 11.5327V11.5743C144.391 12.5723 144.974 13.1822 145.904 13.1822H145.973L146.306 12.4476H146.042C145.515 12.4476 145.21 12.1288 145.21 11.5743V11.5327C145.237 11.0614 145.501 10.6872 146.042 10.6872ZM143.169 13.1961H144.002V11.602V9.93867H143.169V11.602V13.1961ZM143.044 13.1961L141.989 12.004C142.531 11.8931 142.85 11.4911 142.85 10.9783C142.85 10.3545 142.42 9.9248 141.712 9.9248H139.894V13.1961H140.726V12.0456H141.046L142.031 13.1961H143.044ZM141.615 11.3387H140.713V10.6733H141.615C141.865 10.6733 142.003 10.8258 142.003 11.006C142.003 11.1862 141.865 11.3387 141.615 11.3387ZM136.743 13.1961H139.408V12.4753H137.576V11.9208H139.366V11.2H137.576V10.6733H139.408V9.93867H136.743V13.1961ZM135.369 13.1961H136.188V9.9248H134.883L134.147 12.004L133.412 9.9248H132.093V13.1961H132.912V10.7842L133.773 13.1961H134.494L135.355 10.7842V13.1961H135.369ZM131.08 13.1961H132.024L130.622 9.9248H129.539L128.138 13.1961H129.054L129.317 12.5307H130.802L131.08 13.1961ZM130.525 11.8238H129.623L130.081 10.701L130.525 11.8238Z" fill="#0C79BF"/>
<path d="M166.029 8.69119C167.056 8.69119 167.653 8.02584 167.806 7.62386H167.82V8.56643H169.027V5.15653H166.418V6.26544H167.598C167.459 7.01396 166.945 7.48525 166.196 7.48525C165.474 7.48525 164.544 7.01396 164.544 5.10109C164.544 3.18822 165.571 2.8694 166.126 2.8694C166.793 2.8694 167.223 3.2298 167.514 4.18624L168.888 3.81198C168.458 2.14861 167.431 1.63574 166.14 1.63574C164.225 1.63574 163.045 3.00802 163.045 5.12881C163.059 7.1803 163.975 8.69119 166.029 8.69119Z" fill="#283272"/>
<path d="M174.773 8.56649V7.34669H171.775V1.77441H170.276V8.56649H174.773Z" fill="#283272"/>
<path d="M178.007 8.69125C179.645 8.69125 181.2 7.55461 181.2 5.17045C181.2 2.78629 179.631 1.64966 178.007 1.64966C176.356 1.64966 174.801 2.78629 174.801 5.17045C174.787 7.55461 176.356 8.69125 178.007 8.69125ZM178.007 7.4853C176.952 7.4853 176.3 6.58431 176.3 5.15659C176.3 3.72887 176.952 2.86946 178.007 2.86946C179.062 2.86946 179.715 3.72887 179.715 5.15659C179.715 6.58431 179.048 7.4853 178.007 7.4853Z" fill="#283272"/>
<path d="M185.058 8.56649C186.321 8.56649 187.529 8.06748 187.529 6.69521C187.529 5.61402 186.876 5.18432 186.044 5.03184V5.01798C186.738 4.87936 187.334 4.42194 187.334 3.45164C187.334 2.07936 186.155 1.77441 184.906 1.77441H182.185V8.56649H185.058ZM183.67 2.92491H184.795C185.6 2.92491 185.919 3.216 185.919 3.75659C185.919 4.28333 185.558 4.57441 184.781 4.57441H183.684V2.92491H183.67ZM183.67 5.62788H184.808C185.641 5.62788 186.071 5.91897 186.071 6.51501C186.071 7.09719 185.711 7.42986 184.878 7.42986H183.67V5.62788Z" fill="#283272"/>
<path d="M190.902 3.64559H190.915L191.693 5.96044H190.097L190.902 3.64559ZM189.222 8.56638L189.75 7.05549H192.067L192.567 8.56638H194.08L191.665 1.74658H190.235L187.82 8.56638H189.222Z" fill="#283272"/>
<path d="M199.313 8.56649V7.34669H196.329V1.77441H194.83V8.56649H199.313Z" fill="#283272"/>
<path d="M166.57 17.3961C167.833 17.3961 169.041 16.8971 169.041 15.5248C169.041 14.4436 168.389 14.0139 167.556 13.8614V13.8476C168.25 13.709 168.847 13.2515 168.847 12.2812C168.847 10.909 167.667 10.604 166.418 10.604H163.697V17.3961H166.57ZM165.182 11.7545H166.307C167.112 11.7545 167.431 12.0456 167.431 12.5862C167.431 13.1129 167.07 13.404 166.293 13.404H165.196V11.7545H165.182ZM165.182 14.4575H166.321C167.153 14.4575 167.584 14.7486 167.584 15.3446C167.584 15.9268 167.223 16.2594 166.39 16.2594H165.182V14.4575Z" fill="#283272"/>
<path d="M172.719 17.507C174.607 17.507 175.453 16.4535 175.453 14.7901V10.604H173.982V14.7624C173.982 15.7604 173.621 16.301 172.733 16.301C171.845 16.301 171.47 15.7466 171.47 14.7624V10.604H169.971V14.804C169.971 16.4674 170.831 17.507 172.719 17.507Z" fill="#283272"/>
<path d="M179.062 17.5208C180.95 17.5208 181.783 16.5505 181.783 15.4554C181.783 14.0554 180.52 13.6812 179.326 13.3485C178.438 13.099 177.924 12.9049 177.924 12.3643C177.924 11.9624 178.271 11.6851 178.91 11.6851C179.576 11.6851 180.228 12.0733 180.589 12.6554L181.63 11.8653C181.158 11.1445 180.325 10.4653 178.923 10.4653C177.466 10.4653 176.467 11.2277 176.467 12.4891C176.467 13.9168 177.73 14.2218 178.951 14.5683C179.839 14.8178 180.325 15.0396 180.325 15.5525C180.325 16.0792 179.826 16.3287 179.145 16.3287C178.368 16.3287 177.688 15.9129 177.313 15.1782L176.189 15.8435C176.675 16.8277 177.591 17.5208 179.062 17.5208Z" fill="#283272"/>
<path d="M184.35 17.3961V14V10.604H183.601H182.851V14V17.3961H183.462H184.35Z" fill="#283272"/>
<path d="M187.099 17.3961V13.0297H187.126L190.083 17.3961H191.471V10.604H190.083V14.9426H190.069L187.223 10.604H185.724V17.3961H187.099Z" fill="#283272"/>
<path d="M197.647 17.3961V16.1901H194.344V14.4991H196.62V13.307H194.344V11.8515H197.481V10.604H192.845V17.3961H197.647Z" fill="#283272"/>
<path d="M200.978 17.5208C202.866 17.5208 203.699 16.5505 203.699 15.4554C203.699 14.0554 202.436 13.6812 201.242 13.3485C200.354 13.099 199.84 12.9049 199.84 12.3643C199.84 11.9624 200.187 11.6851 200.826 11.6851C201.492 11.6851 202.144 12.0733 202.505 12.6554L203.546 11.8653C203.074 11.1445 202.241 10.4653 200.839 10.4653C199.382 10.4653 198.383 11.2277 198.383 12.4891C198.383 13.9168 199.646 14.2218 200.867 14.5683C201.755 14.8178 202.241 15.0396 202.241 15.5525C202.241 16.0792 201.742 16.3287 201.061 16.3287C200.284 16.3287 199.604 15.9129 199.229 15.1782L198.105 15.8435C198.591 16.8277 199.507 17.5208 200.978 17.5208Z" fill="#283272"/>
<path d="M207.155 17.5208C209.042 17.5208 209.875 16.5505 209.875 15.4554C209.875 14.0554 208.612 13.6812 207.405 13.3485C206.516 13.099 206.003 12.9049 206.003 12.3643C206.003 11.9624 206.35 11.6851 206.988 11.6851C207.654 11.6851 208.307 12.0733 208.668 12.6554L209.709 11.8653C209.237 11.1445 208.404 10.4653 207.002 10.4653C205.545 10.4653 204.545 11.2277 204.545 12.4891C204.545 13.9168 205.808 14.2218 207.03 14.5683C207.918 14.8178 208.404 15.0396 208.404 15.5525C208.404 16.0792 207.904 16.3287 207.224 16.3287C206.447 16.3287 205.767 15.9129 205.392 15.1782L204.268 15.8435C204.767 16.8277 205.683 17.5208 207.155 17.5208Z" fill="#283272"/>
<path d="M167.098 26.2259V20.6814H169.124V19.4338H163.572V20.6814H165.599V26.2259H167.098Z" fill="#283272"/>
<path d="M171.414 20.6536H172.442C173.302 20.6536 173.718 20.9031 173.718 21.5684C173.718 22.2615 173.302 22.511 172.442 22.511H171.414V20.6536ZM171.414 26.2259V23.6615H172.275L173.691 26.2259H175.273L173.76 23.4674C174.676 23.1902 175.176 22.608 175.176 21.5268C175.176 20.016 174.176 19.4199 172.497 19.4199H169.943V26.212H171.414V26.2259Z" fill="#283272"/>
<path d="M178.701 21.3189H178.715L179.492 23.6337H177.896L178.701 21.3189ZM177.022 26.2258L177.549 24.7149H179.867L180.367 26.2258H181.88L179.465 19.406H178.035L175.62 26.2258H177.022Z" fill="#283272"/>
<path d="M185.128 26.2536L187.473 19.4338H186.058L184.448 24.2992H184.434L182.879 19.4338H181.366L183.712 26.2536H185.128Z" fill="#283272"/>
<path d="M193.011 26.2259V25.02H189.708V23.3289H191.984V22.1507H189.708V20.6814H192.845V19.4338H188.209V26.2259H193.011Z" fill="#283272"/>
<path d="M198.688 26.2259V25.02H195.69V19.4338H194.191V26.2259H198.688Z" fill="#283272"/>
<path d="M37.5307 21.0139V21.4852C37.5307 21.6377 37.4474 21.7208 37.2809 21.7208H35.879V26.1149C35.879 26.2674 35.7958 26.3644 35.6292 26.3644H35.0324C34.8797 26.3644 34.7825 26.2812 34.7825 26.1149V21.7208H33.3807C33.228 21.7208 33.1309 21.6377 33.1309 21.4852V21.0694C33.1309 20.9169 33.2141 20.8199 33.3668 20.806C33.6999 20.7921 34.1302 20.7644 34.5049 20.7644H35.8652H37.267C37.4474 20.7783 37.5307 20.8614 37.5307 21.0139Z" fill="#0A436A"/>
<path d="M40.5982 22.7882L40.5704 23.301C40.5565 23.4674 40.4733 23.509 40.3067 23.509H40.2095C39.807 23.509 39.4323 23.8693 39.4323 24.5901V26.1288C39.4323 26.2812 39.349 26.3783 39.1824 26.3783H38.6134C38.4607 26.3783 38.3774 26.2951 38.3774 26.1288V23.4535C38.308 23.4258 38.2386 23.4258 38.1415 23.4119C38.0165 23.3981 37.9471 23.3288 37.9471 23.1624V22.802C37.961 22.6634 38.0165 22.5664 38.1553 22.5387C38.2386 22.5109 38.3497 22.5109 38.4885 22.5109C38.8632 22.5109 39.1547 22.7466 39.3074 23.1347C39.5156 22.7466 39.8348 22.4971 40.2095 22.4971C40.2928 22.4971 40.3483 22.5109 40.4039 22.5109C40.5565 22.5387 40.612 22.6357 40.5982 22.7882Z" fill="#0A436A"/>
<path d="M45.1785 25.8239V26.1565C45.1646 26.309 45.0952 26.3922 44.9564 26.4199C44.8731 26.4338 44.7482 26.4338 44.6094 26.4338C44.1653 26.4338 43.9015 26.2674 43.7766 25.9625C43.4852 26.2813 43.0688 26.4615 42.4719 26.4615C41.6391 26.4615 41.1672 26.0179 41.1672 25.2971C41.1672 24.5763 41.7085 24.105 42.8744 24.105C43.1937 24.105 43.4574 24.1328 43.6933 24.1882V23.9803C43.6933 23.509 43.4296 23.3011 42.9577 23.3011C42.6246 23.3011 42.4303 23.3981 42.3331 23.5922C42.2499 23.7031 42.1943 23.7724 42.0417 23.7446L41.542 23.6615C41.3754 23.6338 41.306 23.5229 41.3477 23.3704C41.5281 22.8714 41.9445 22.511 42.9577 22.511C44.1236 22.511 44.7066 22.9961 44.7066 23.9942V25.5328C44.776 25.5466 44.8315 25.5605 44.9009 25.5605C45.0952 25.5882 45.1924 25.6575 45.1785 25.8239ZM43.6933 24.8397V24.7843C43.4713 24.7427 43.2214 24.7149 42.9716 24.7149C42.4164 24.7149 42.1805 24.909 42.1805 25.2417C42.1805 25.5744 42.3886 25.713 42.7495 25.713C43.2492 25.713 43.6933 25.3942 43.6933 24.8397Z" fill="#0A436A"/>
<path d="M49.5783 22.8714L48.1765 26.1704C48.1348 26.3091 48.0377 26.3645 47.8989 26.3645H47.4131C47.2743 26.3645 47.1771 26.3091 47.1355 26.1704L45.9835 23.4398C45.9141 23.4259 45.8447 23.412 45.7614 23.412C45.6226 23.3982 45.5532 23.3289 45.5532 23.1625L45.5671 22.816C45.581 22.6774 45.6365 22.5803 45.7753 22.5526C45.8586 22.5388 45.9557 22.5249 46.0806 22.5249C46.5109 22.5249 46.733 22.6774 46.8996 23.1071L47.6629 25.1724L48.6068 22.719C48.6484 22.5803 48.7456 22.5249 48.8982 22.5388L49.4118 22.5803C49.5783 22.5942 49.6477 22.7051 49.5783 22.8714Z" fill="#0A436A"/>
<path d="M53.9921 24.3683V24.4931C53.9921 24.6317 53.9088 24.7148 53.77 24.7148H52.9372H51.3688C51.4521 25.297 51.7991 25.5881 52.4376 25.5881C52.854 25.5881 53.2148 25.4633 53.4369 25.3386C53.5757 25.2693 53.6729 25.297 53.7284 25.4356L53.8533 25.8237C53.8949 25.9485 53.8672 26.0455 53.7561 26.1148C53.4785 26.2673 52.9789 26.4475 52.3543 26.4475C51.008 26.4475 50.3417 25.6713 50.3417 24.4099C50.3417 23.2871 51.0635 22.4832 52.2016 22.4832C53.3953 22.5109 53.9921 23.3148 53.9921 24.3683ZM51.3827 24.1188H52.9372C52.8956 23.5643 52.618 23.3287 52.2016 23.3287C51.7852 23.3287 51.466 23.5505 51.3827 24.1188Z" fill="#0A436A"/>
<path d="M55.0886 25.5605V21.0278C55.0886 20.8754 55.1718 20.7783 55.3384 20.7783H55.8936C56.0463 20.7783 56.1434 20.8615 56.1434 21.0278V25.5466C56.2267 25.5744 56.3516 25.5882 56.5043 25.5882C56.657 25.5882 56.7264 25.6714 56.7264 25.8239V26.1704C56.7264 26.3229 56.6431 26.406 56.5043 26.4199C56.3655 26.4338 56.2406 26.4476 56.0601 26.4476C55.4356 26.4338 55.0886 26.2674 55.0886 25.5605Z" fill="#0A436A"/>
<path d="M65.2069 25.6991L65.193 26.1704C65.193 26.309 65.1236 26.3922 64.9987 26.4061C64.8877 26.4199 64.7627 26.4199 64.6378 26.4199C64.1382 26.4199 63.8744 26.3229 63.7079 25.8793L63.4025 25.0615H61.1124L60.7237 26.1843C60.6821 26.2952 60.5988 26.3645 60.46 26.3645H59.7938C59.6272 26.3645 59.5578 26.2675 59.6134 26.1011L61.5704 21.014C61.612 20.8892 61.7092 20.8199 61.8341 20.8061L62.5697 20.6952C62.6947 20.6813 62.7779 20.7229 62.8335 20.8477L64.6378 25.4219C64.7072 25.4496 64.8321 25.4635 64.9709 25.4774C65.1375 25.4774 65.2069 25.5605 65.2069 25.6991ZM63.0833 24.1882L62.2505 21.915L61.4316 24.1882H63.0833Z" fill="#0A436A"/>
<path d="M68.1633 22.7882L68.1355 23.301C68.1217 23.4674 68.0384 23.509 67.8718 23.509H67.7747C67.3721 23.509 66.9974 23.8693 66.9974 24.5901V26.1288C66.9974 26.2812 66.9141 26.3783 66.7476 26.3783H66.1785C66.0258 26.3783 65.9425 26.2951 65.9425 26.1288V23.4535C65.8731 23.4258 65.8037 23.4258 65.7066 23.4119C65.5817 23.3981 65.5123 23.3288 65.5123 23.1624V22.802C65.5261 22.6634 65.5817 22.5664 65.7205 22.5387C65.8037 22.5109 65.9148 22.5109 66.0536 22.5109C66.4283 22.5109 66.7198 22.7466 66.8725 23.1347C67.0807 22.7466 67.3999 22.4971 67.7747 22.4971C67.8579 22.4971 67.9135 22.5109 67.969 22.5109C68.1078 22.5387 68.1633 22.6357 68.1633 22.7882Z" fill="#0A436A"/>
<path d="M71.2723 22.7882L71.2445 23.301C71.2307 23.4674 71.1474 23.509 70.9808 23.509H70.8837C70.4812 23.509 70.1064 23.8693 70.1064 24.5901V26.1288C70.1064 26.2812 70.0231 26.3783 69.8566 26.3783H69.2875C69.1348 26.3783 69.0515 26.2951 69.0515 26.1288V23.4535C68.9821 23.4258 68.9127 23.4258 68.8156 23.4119C68.6907 23.3981 68.6213 23.3288 68.6213 23.1624V22.802C68.6352 22.6634 68.6907 22.5664 68.8295 22.5387C68.9128 22.5109 69.0238 22.5109 69.1626 22.5109C69.5373 22.5109 69.8288 22.7466 69.9815 23.1347C70.1897 22.7466 70.5089 22.4971 70.8837 22.4971C70.9669 22.4971 71.0225 22.5109 71.078 22.5109C71.2307 22.5387 71.2862 22.6357 71.2723 22.7882Z" fill="#0A436A"/>
<path d="M72.2716 22.3169L72.3271 20.9169C72.341 20.7645 72.4243 20.6951 72.577 20.709L73.0767 20.7645C73.2293 20.7783 73.2987 20.8753 73.2849 21.014L73.1044 22.3308C73.0767 22.4694 73.0073 22.5387 72.8546 22.5387H72.5076C72.341 22.5387 72.2578 22.4694 72.2716 22.3169Z" fill="#0A436A"/>
<path d="M78.2122 25.8239V26.1565C78.1983 26.309 78.1289 26.3922 77.9901 26.4199C77.9068 26.4338 77.7819 26.4338 77.6431 26.4338C77.199 26.4338 76.9352 26.2674 76.8103 25.9625C76.5188 26.2813 76.1025 26.4615 75.5056 26.4615C74.6728 26.4615 74.2009 26.0179 74.2009 25.2971C74.2009 24.5763 74.7422 24.105 75.9081 24.105C76.2274 24.105 76.4911 24.1328 76.727 24.1882V23.9803C76.727 23.509 76.4633 23.3011 75.9914 23.3011C75.6583 23.3011 75.464 23.3981 75.3668 23.5922C75.2835 23.7031 75.228 23.7724 75.0754 23.7446L74.5757 23.6615C74.4091 23.6338 74.3397 23.5229 74.3814 23.3704C74.5618 22.8714 74.9782 22.511 75.9914 22.511C77.1573 22.511 77.7403 22.9961 77.7403 23.9942V25.5328C77.8097 25.5466 77.8652 25.5605 77.9346 25.5605C78.1289 25.5882 78.226 25.6575 78.2122 25.8239ZM76.727 24.8397V24.7843C76.505 24.7427 76.2551 24.7149 76.0053 24.7149C75.4501 24.7149 75.2142 24.909 75.2142 25.2417C75.2142 25.5744 75.4223 25.713 75.7832 25.713C76.2829 25.713 76.727 25.3942 76.727 24.8397Z" fill="#0A436A"/>
<path d="M83.3616 25.8101V26.1566C83.3616 26.3091 83.2783 26.3923 83.1395 26.42C83.0284 26.4338 82.9174 26.4338 82.7231 26.4338C82.154 26.4338 81.8348 26.2675 81.8348 25.6299V24.2853C81.8348 23.6893 81.585 23.4121 81.0992 23.4121C80.6134 23.4121 80.2525 23.7863 80.2525 24.2715V26.115C80.2525 26.2675 80.1692 26.3645 80.0027 26.3645H79.4336C79.2809 26.3645 79.1976 26.2814 79.1976 26.115V23.4398C79.1282 23.4259 79.0588 23.4121 78.9756 23.3982C78.8507 23.3843 78.7812 23.315 78.7812 23.1487V22.7883C78.7951 22.6497 78.8506 22.5526 78.9894 22.5249C79.0727 22.4972 79.1976 22.4833 79.3087 22.4833C79.739 22.4833 80.0443 22.6497 80.1831 23.0517C80.4607 22.7051 80.8771 22.4695 81.4462 22.4695C82.4177 22.4695 82.8758 23.0655 82.8758 24.0774V25.4913C82.9313 25.5051 83.0007 25.519 83.0701 25.519C83.2783 25.5883 83.3754 25.6576 83.3616 25.8101Z" fill="#0A436A"/>
<path d="M87.928 26.5169C87.928 27.2515 87.3034 27.8614 85.8876 27.8614C84.5135 27.8614 84 27.4456 84 26.8357C84 26.4337 84.1804 26.1703 84.4164 26.004C84.2637 25.8654 84.1804 25.6713 84.1804 25.4495C84.1804 25.1307 84.3331 24.8674 84.694 24.6178C84.4303 24.4099 84.2776 24.1188 84.2776 23.7584C84.2776 23.0376 84.8605 22.5248 85.8876 22.5248C86.1236 22.5248 86.3318 22.5386 86.5122 22.5941C86.6649 22.1089 86.998 21.8733 87.4838 21.804C87.6365 21.7901 87.7336 21.8733 87.7475 22.0258L87.7892 22.4C87.8169 22.5525 87.7336 22.6357 87.581 22.6634C87.3866 22.705 87.2617 22.802 87.1784 22.9268C87.3866 23.1347 87.4977 23.398 87.4977 23.7169C87.4977 24.4654 86.9286 24.9228 85.8876 24.9228C85.6517 24.9228 85.4435 24.8951 85.2492 24.8535C85.1104 24.9505 85.0687 25.0476 85.0687 25.1584C85.0687 25.3525 85.1937 25.4495 85.4296 25.4495H86.7343C87.5671 25.4495 87.928 25.8792 87.928 26.5169ZM86.9564 26.6278C86.9564 26.3921 86.8176 26.2535 86.4567 26.2535H85.1381H85.1104C84.9855 26.3505 84.9161 26.4753 84.9161 26.6555C84.9161 26.9327 85.1798 27.1268 85.9154 27.1268C86.6233 27.1129 86.9564 26.9188 86.9564 26.6278ZM85.2769 23.7584C85.2769 24.1188 85.499 24.3129 85.8876 24.3129C86.2901 24.3129 86.4983 24.1188 86.4983 23.7584C86.4983 23.398 86.2901 23.1763 85.8876 23.1763C85.499 23.1763 85.2769 23.398 85.2769 23.7584Z" fill="#0A436A"/>
<path d="M92.3139 24.3683V24.4931C92.3139 24.6317 92.2307 24.7148 92.0919 24.7148H91.2591H89.6907C89.774 25.297 90.1209 25.5881 90.7594 25.5881C91.1758 25.5881 91.5367 25.4633 91.7587 25.3386C91.8975 25.2693 91.9947 25.297 92.0502 25.4356L92.1751 25.8237C92.2168 25.9485 92.189 26.0455 92.078 26.1148C91.8004 26.2673 91.3007 26.4475 90.6761 26.4475C89.3298 26.4475 88.6636 25.6713 88.6636 24.4099C88.6636 23.2871 89.3853 22.4832 90.5235 22.4832C91.7171 22.5109 92.3139 23.3148 92.3139 24.3683ZM89.7046 24.1188H91.2591C91.2174 23.5643 90.9399 23.3287 90.5235 23.3287C90.1209 23.3287 89.7878 23.5505 89.7046 24.1188Z" fill="#0A436A"/>
<path d="M93.4105 25.5605V21.0278C93.4105 20.8754 93.4937 20.7783 93.6603 20.7783H94.2155C94.3682 20.7783 94.4653 20.8615 94.4653 21.0278V25.5466C94.5486 25.5744 94.6735 25.5882 94.8262 25.5882C94.9789 25.5882 95.0483 25.6714 95.0483 25.8239V26.1704C95.0483 26.3229 94.965 26.406 94.8262 26.4199C94.6874 26.4338 94.5625 26.4476 94.382 26.4476C93.7575 26.4338 93.4105 26.2674 93.4105 25.5605Z" fill="#0A436A"/>
<path d="M95.9366 26.1703C95.8117 26.101 95.77 26.004 95.7978 25.8654L95.8672 25.505C95.8949 25.3248 96.006 25.2832 96.1725 25.3525C96.4779 25.4911 96.9081 25.6297 97.4078 25.6297C97.9491 25.6297 98.1157 25.505 98.1157 25.2693C98.1157 24.5763 95.7422 25.1723 95.7422 23.6892C95.7422 22.9684 96.2419 22.4971 97.3523 22.4971C98.2961 22.4971 98.9207 22.7882 99.0595 23.3565C99.0873 23.4812 99.004 23.5644 98.8513 23.5921L98.3378 23.6614C98.1712 23.6753 98.0879 23.6198 98.0185 23.4951C97.9214 23.3288 97.7132 23.2317 97.4078 23.2317C96.9914 23.2317 96.7832 23.3842 96.7832 23.6198C96.7832 24.4099 99.1844 23.703 99.1844 25.2693C99.1844 25.9624 98.6847 26.4337 97.4495 26.4337C96.7832 26.4614 96.3113 26.3505 95.9366 26.1703Z" fill="#0A436A"/>
<path d="M71.7581 0.138672C72.8546 0.138672 73.7846 0.291147 74.5618 0.62382C75.3252 0.942632 75.9637 1.35847 76.4356 1.88521C76.9214 2.41194 77.2684 3.00798 77.4904 3.67333C77.7125 4.33867 77.8236 5.0456 77.8236 5.7664C77.8236 6.47333 77.7125 7.1664 77.4904 7.8456C77.2684 8.52481 76.9214 9.12085 76.4356 9.64758C75.9498 10.1743 75.3252 10.5902 74.5618 10.909C73.7984 11.2278 72.8546 11.3941 71.7581 11.3941H67.7052V17.6733H63.8467V0.138672H71.7581ZM70.7033 8.3862C71.1474 8.3862 71.5777 8.35847 71.9802 8.28917C72.3827 8.21986 72.7436 8.09511 73.0628 7.91491C73.3682 7.72085 73.618 7.45748 73.8123 7.11095C74.0066 6.76442 74.0899 6.32085 74.0899 5.7664C74.0899 5.21194 73.9927 4.75451 73.8123 4.42184C73.618 4.0753 73.3682 3.81194 73.0628 3.61788C72.7575 3.42382 72.3966 3.29907 71.9802 3.24362C71.5638 3.17431 71.1474 3.14659 70.7033 3.14659H67.7052V8.40006H70.7033V8.3862Z" fill="#0A436A"/>
<path d="M82.612 5.78024V7.9842H82.6537C82.8064 7.60994 83.0145 7.27727 83.2783 6.95846C83.542 6.63964 83.8335 6.37628 84.1804 6.15449C84.5136 5.93271 84.8744 5.76638 85.2631 5.64162C85.6517 5.51687 86.0403 5.46143 86.4567 5.46143C86.6788 5.46143 86.9147 5.50301 87.1646 5.57232V8.60796C87.0119 8.58024 86.8315 8.55252 86.6094 8.52479C86.3873 8.49707 86.193 8.48321 85.9848 8.48321C85.388 8.48321 84.8744 8.58024 84.458 8.78816C84.0416 8.98222 83.7085 9.25944 83.4587 9.60598C83.2089 9.95251 83.0284 10.3545 82.9174 10.8119C82.8064 11.2693 82.7508 11.7684 82.7508 12.3089V17.6733H79.4752V5.76638H82.612V5.78024Z" fill="#0A436A"/>
<path d="M88.5387 9.14856C88.8302 8.37232 89.2466 7.72083 89.7879 7.16638C90.3292 6.62578 90.9676 6.19608 91.7171 5.90499C92.4666 5.60004 93.3133 5.46143 94.2571 5.46143C95.201 5.46143 96.0476 5.6139 96.811 5.90499C97.5744 6.20994 98.2267 6.62578 98.7542 7.16638C99.2955 7.70697 99.7119 8.37232 100.003 9.14856C100.295 9.92479 100.392 10.7842 100.392 11.7406C100.392 12.6971 100.295 13.5565 100.003 14.3189C99.7119 15.0812 99.2955 15.7466 98.7542 16.2872C98.2129 16.8278 97.5605 17.2436 96.811 17.5347C96.0476 17.8258 95.201 17.9783 94.2571 17.9783C93.3133 17.9783 92.4805 17.8258 91.7171 17.5347C90.9676 17.2436 90.3153 16.8278 89.7879 16.2872C89.2466 15.7466 88.8302 15.0812 88.5387 14.3189C88.2472 13.5565 88.0945 12.6971 88.0945 11.7406C88.0945 10.7842 88.2472 9.92479 88.5387 9.14856ZM91.5089 13.1268C91.6061 13.5842 91.7588 13.9862 91.9809 14.3466C92.2029 14.707 92.4944 14.9981 92.8692 15.206C93.2439 15.4278 93.7019 15.5248 94.2571 15.5248C94.8123 15.5248 95.2703 15.4139 95.6451 15.206C96.0199 14.9981 96.3252 14.707 96.5473 14.3466C96.7694 13.9862 96.922 13.5842 97.0192 13.1268C97.1164 12.6694 97.158 12.2119 97.158 11.7406C97.158 11.2694 97.1164 10.7981 97.0192 10.3406C96.922 9.88321 96.7694 9.46737 96.5473 9.12083C96.3252 8.7743 96.0199 8.48321 95.6451 8.26143C95.2703 8.03965 94.7984 7.92876 94.2571 7.92876C93.7019 7.92876 93.2439 8.03965 92.8692 8.26143C92.4944 8.48321 92.2029 8.7743 91.9809 9.12083C91.7588 9.46737 91.6061 9.88321 91.5089 10.3406C91.4118 10.7981 91.3702 11.2694 91.3702 11.7406C91.3702 12.2119 91.4118 12.6832 91.5089 13.1268Z" fill="#0A436A"/>
<path d="M7.93923 5.69706H5.44088V3.04954C5.44088 2.56439 5.17717 2.30103 4.69138 2.30103H2.94253C2.45674 2.30103 2.20691 2.56439 2.20691 3.04954V5.69706H0.749539C0.263749 5.69706 0.013916 5.96043 0.013916 6.44558V7.60993C0.013916 8.09508 0.263749 8.34459 0.749539 8.34459H2.20691V13.9585C2.20691 16.8278 3.24789 17.6456 5.60744 17.6456C6.53738 17.6456 7.28688 17.5485 7.84207 17.4238C8.28622 17.3268 8.48054 17.008 8.45278 16.5783L8.35562 15.3169C8.32786 14.8317 8.03639 14.6377 7.60612 14.7347C7.31464 14.804 6.99541 14.8317 6.63454 14.8317C5.80175 14.8317 5.44088 14.5129 5.44088 13.5426V8.34459H7.93923C8.42502 8.34459 8.68874 8.10894 8.68874 7.60993V6.44558C8.68874 5.96043 8.42502 5.69706 7.93923 5.69706Z" fill="#1AB258"/>
<path d="M17.6828 5.50301C17.5162 5.47529 17.3219 5.46143 17.0721 5.46143C15.8784 5.46143 14.9346 6.20994 14.2823 7.42974C13.8381 6.20994 12.9498 5.48915 11.7839 5.48915C11.3398 5.48915 11.0066 5.51687 10.7429 5.58618C10.2988 5.68321 10.1045 5.9743 10.0906 6.41786V7.51291C10.0628 7.99806 10.2849 8.24757 10.6735 8.26143C10.965 8.28915 11.2148 8.30301 11.4092 8.38618V16.6198C11.4092 17.105 11.659 17.3684 12.1448 17.3684H13.8936C14.3794 17.3684 14.6431 17.105 14.6431 16.6198V11.8654C14.6431 9.66143 15.809 8.53866 17.0443 8.53866H17.3636C17.8771 8.56638 18.1408 8.4139 18.1686 7.90103L18.2657 6.32083C18.2657 5.86341 18.0992 5.55846 17.6828 5.50301Z" fill="#1AB258"/>
<path d="M30.4799 14.901C30.2578 14.8733 30.0635 14.8456 29.8692 14.804V10.0495C29.8692 6.95846 28.0648 5.46143 24.4977 5.46143C21.3609 5.46143 20.0701 6.5842 19.5149 8.13668C19.3622 8.62182 19.5843 8.94064 20.0979 9.03767L21.6246 9.30103C22.0826 9.37034 22.277 9.14856 22.5268 8.81588C22.846 8.2337 23.429 7.91489 24.47 7.91489C25.9273 7.91489 26.7324 8.5941 26.7324 10.0218V10.6317C26.0245 10.4792 25.2056 10.3822 24.234 10.3822C20.6392 10.3822 18.9597 11.8654 18.9597 14.0693C18.9597 16.2594 20.4448 17.6456 22.9987 17.6456C24.817 17.6456 26.1078 17.0911 27.0099 16.1208C27.3708 17.0495 28.1758 17.5763 29.5638 17.5763C30.008 17.5763 30.3688 17.5486 30.6326 17.5347C31.0767 17.4654 31.2849 17.1882 31.3127 16.7307V15.6911C31.3404 15.1921 31.0489 14.9703 30.4799 14.901ZM26.7324 12.6416C26.7324 14.3604 25.3721 15.3307 23.8454 15.3307C22.7211 15.3307 22.0688 14.9149 22.0688 13.903C22.0688 12.8634 22.8044 12.2812 24.4977 12.2812C25.275 12.2812 26.0522 12.3505 26.7324 12.4753V12.6416Z" fill="#1AB258"/>
<path d="M60.3213 0.194036L57.8368 0.180176C57.3232 0.180176 57.0873 0.443541 57.0873 0.92869V14.9148C57.0873 17.1049 58.156 17.6317 60.0298 17.6317C60.1408 17.6317 60.238 17.6317 60.3351 17.6317L60.3213 0.194036Z" fill="#1AB258"/>
<path d="M49.8282 5.51685C46.3444 5.51685 44.1097 7.97031 44.1097 11.4495C44.1097 15.3168 46.1778 17.7149 50.314 17.7149C52.2294 17.7149 53.7978 17.1604 54.6444 16.6891C54.9914 16.4951 55.0608 16.1485 54.9359 15.7881L54.5473 14.5961C54.3807 14.1525 54.0893 14.0555 53.6451 14.2772C52.9372 14.6376 51.8407 15.0258 50.5499 15.0258C48.579 15.0258 47.5103 14.1248 47.2743 12.3505H52.1183H54.6722C55.1164 12.3505 55.3523 12.0871 55.3523 11.6436V11.2555C55.3384 7.99803 53.4924 5.51685 49.8282 5.51685ZM47.3021 10.4792C47.5658 8.73269 48.5651 8.05348 49.8282 8.05348C51.119 8.05348 51.9657 8.76041 52.0906 10.4792H47.3021Z" fill="#1AB258"/>
<path d="M42.2776 9.5644V13.4179L36.5314 10.6594L33.228 9.07925V5.46143L42.2776 9.5644Z" fill="#1AB258"/>
<path d="M42.2776 13.404V9.55054L33.228 13.8892V17.5208L42.2776 13.404Z" fill="#0A436A"/>
</g>
<defs>
<clipPath id="clip0_1283_2053">
<rect width="210" height="28" fill="white"/>
</clipPath>
</defs>
</svg>
