<svg width="314" height="56" viewBox="0 0 314 56" fill="none" xmlns="http://www.w3.org/2000/svg">
<path d="M224.412 0.0043387C227.846 0.0043387 230.763 0.503562 233.173 1.50201C235.582 2.50046 237.54 3.82016 239.05 5.46109C240.561 7.10202 241.664 8.97302 242.354 11.0698C243.049 13.1709 243.392 15.3501 243.392 17.6031C243.392 19.8561 243.049 21.9702 242.354 24.0974C241.664 26.2245 240.561 28.1085 239.05 29.7451C237.54 31.386 235.582 32.7057 233.173 33.7042C230.763 34.7026 227.842 35.2019 224.412 35.2019H211.732V54.8757H199.664V0H224.412V0.0043387ZM221.109 25.8295C222.494 25.8295 223.822 25.7253 225.107 25.5212C226.388 25.3172 227.516 24.9178 228.489 24.3318C229.461 23.7457 230.242 22.9079 230.833 21.8357C231.423 20.7591 231.718 19.3482 231.718 17.6074C231.718 15.8667 231.423 14.4558 230.833 13.3792C230.242 12.3026 229.461 11.4735 228.489 10.8831C227.516 10.2927 226.388 9.89768 225.107 9.69364C223.826 9.48961 222.494 9.38542 221.109 9.38542H211.732V25.8338H221.109V25.8295Z" fill="#0A436A"/>
<path d="M258.351 17.6682V24.5879H258.494C258.976 23.4332 259.623 22.3653 260.443 21.3798C261.26 20.3944 262.197 19.5522 263.256 18.8577C264.311 18.1631 265.444 17.6205 266.647 17.2341C267.849 16.8521 269.1 16.6567 270.398 16.6567C271.07 16.6567 271.817 16.7783 272.633 17.017V26.537C272.151 26.4415 271.574 26.3547 270.901 26.2853C270.228 26.2115 269.577 26.1767 268.952 26.1767C267.077 26.1767 265.492 26.4893 264.194 27.1144C262.896 27.7395 261.85 28.5904 261.06 29.6757C260.265 30.7566 259.701 32.0198 259.367 33.4611C259.033 34.9023 258.863 36.4651 258.863 38.1494V54.9495H248.627V17.6769H258.36L258.351 17.6682Z" fill="#0A436A"/>
<path d="M276.879 28.2301C277.79 25.8034 279.088 23.7371 280.773 22.031C282.457 20.325 284.471 19.0009 286.828 18.0676C289.186 17.1299 291.829 16.6611 294.76 16.6611C297.69 16.6611 300.347 17.1299 302.726 18.0676C305.104 19.0053 307.136 20.3293 308.816 22.031C310.5 23.7371 311.798 25.8078 312.71 28.2301C313.622 30.6567 313.917 33.3612 313.917 36.3392C313.917 39.3172 313.626 42.013 312.71 44.4136C311.798 46.8186 310.5 48.8719 308.816 50.578C307.136 52.284 305.104 53.595 302.726 54.5067C300.347 55.4183 297.69 55.8741 294.76 55.8741C291.829 55.8741 289.186 55.4183 286.828 54.5067C284.471 53.595 282.457 52.284 280.773 50.578C279.088 48.8719 277.79 46.8186 276.879 44.4136C275.963 42.013 275.507 39.3216 275.507 36.3392C275.507 33.3569 275.963 30.6567 276.879 28.2301ZM286.177 40.702C286.464 42.1216 286.959 43.3935 287.658 44.5222C288.352 45.6508 289.281 46.5538 290.432 47.2267C291.586 47.8995 293.028 48.2381 294.76 48.2381C296.492 48.2381 297.946 47.9039 299.122 47.2267C300.299 46.5538 301.237 45.6552 301.935 44.5222C302.63 43.3935 303.125 42.1216 303.411 40.702C303.698 39.2825 303.846 37.8326 303.846 36.3392C303.846 34.8459 303.702 33.383 303.411 31.9417C303.125 30.5005 302.63 29.2285 301.935 28.1215C301.237 27.0189 300.303 26.116 299.122 25.4171C297.946 24.7225 296.492 24.3709 294.76 24.3709C293.028 24.3709 291.586 24.7225 290.432 25.4171C289.277 26.116 288.352 27.0189 287.658 28.1215C286.959 29.2285 286.468 30.5005 286.177 31.9417C285.891 33.383 285.743 34.8502 285.743 36.3392C285.743 37.8282 285.886 39.2825 286.177 40.702Z" fill="#0A436A"/>
<path d="M24.7963 17.4208H16.9606V9.12931C16.9606 7.60993 16.1228 6.77209 14.6034 6.77209H9.12496C7.60558 6.77209 6.84589 7.60993 6.84589 9.12931V17.4208H2.28342C0.764035 17.4208 0 18.2543 0 19.778V23.4288C0 24.9482 0.759694 25.7079 2.28342 25.7079H6.84589V43.2806C6.84589 52.2537 10.1147 54.8409 17.4946 54.8409C20.3857 54.8409 22.743 54.5371 24.4924 54.1594C25.8642 53.8555 26.4719 52.8657 26.3938 51.494L26.0899 47.5392C26.0118 46.0199 25.1002 45.4078 23.7327 45.7116C22.8211 45.9417 21.8313 46.0155 20.6896 46.0155C18.1023 46.0155 16.9606 45.0257 16.9606 41.9826V25.7079H24.7963C26.3157 25.7079 27.1535 24.9482 27.1535 23.4288V19.778C27.1535 18.2586 26.3157 17.4208 24.7963 17.4208Z" fill="#1AB258"/>
<path d="M55.2751 16.8087C54.7411 16.7305 54.1334 16.6567 53.3737 16.6567C49.6447 16.6567 46.6797 19.0139 44.6264 22.8167C43.2546 19.0139 40.4459 16.7305 36.7907 16.7305C35.4233 16.7305 34.3554 16.8087 33.5219 17.0344C32.1544 17.3383 31.5467 18.2499 31.4685 19.6174V23.0381C31.3904 24.5575 32.0763 25.3215 33.2962 25.3953C34.2078 25.4735 34.9675 25.5473 35.5796 25.773V51.5547C35.5796 53.0784 36.3392 53.9119 37.8586 53.9119H43.3371C44.8565 53.9119 45.6943 53.0784 45.6943 51.5547V36.6518C45.6943 29.7321 49.3451 26.2332 53.2217 26.2332H54.2115C55.809 26.3113 56.6469 25.8512 56.7206 24.2536L57.0245 19.3091C57.0983 17.9417 56.5687 16.9519 55.2751 16.8" fill="#1AB258"/>
<path d="M95.3128 46.2456C94.6269 46.1674 94.0192 46.0936 93.4114 45.9417V31.0344C93.4114 21.3755 87.7854 16.6611 76.6028 16.6611C66.7919 16.6611 62.759 20.16 61.0096 25.0264C60.5538 26.5457 61.2353 27.5355 62.8372 27.8394L67.6254 28.6772C69.071 28.9029 69.6787 28.2214 70.4384 27.1578C71.4282 25.3302 73.2514 24.3405 76.5246 24.3405C81.0871 24.3405 83.6006 26.4719 83.6006 30.9563V32.8577C81.3953 32.4019 78.808 32.098 75.7649 32.098C64.5085 32.098 59.2601 36.7386 59.2601 43.6583C59.2601 50.578 63.9007 54.8366 71.884 54.8366C77.5882 54.8366 81.6211 53.0915 84.4341 50.0484C85.5758 52.9395 88.0849 54.6109 92.4217 54.6109C93.7891 54.6109 94.9308 54.5371 95.7687 54.4589C97.1361 54.2288 97.822 53.391 97.8958 51.9454V48.6766C97.9739 47.1572 97.0579 46.4713 95.3085 46.2456M83.5963 39.1696C83.5963 44.5699 79.3376 47.613 74.5451 47.613C71.0462 47.613 68.9928 46.3194 68.9928 43.1287C68.9928 39.938 71.2763 38.0323 76.5984 38.0323C79.0338 38.0323 81.4648 38.2623 83.5963 38.64V39.174V39.1696Z" fill="#1AB258"/>
<path d="M188.655 0.173637L180.897 0.125885C179.3 0.125885 178.54 0.963718 178.54 2.4831V46.2933C178.54 53.1392 181.887 54.8105 187.743 54.8105C188.082 54.8105 188.394 54.8062 188.707 54.7975L188.659 0.169299L188.655 0.173637Z" fill="#1AB258"/>
<path d="M155.806 16.8608C144.931 16.8608 137.934 24.5402 137.934 35.4189C137.934 47.5088 144.397 55.0406 157.33 55.0406C163.338 55.0406 168.204 53.2955 170.865 51.8456C171.929 51.2378 172.159 50.1743 171.777 49.0326L170.561 45.3036C170.027 43.9361 169.116 43.6322 167.748 44.3181C165.543 45.4598 162.118 46.6754 158.089 46.6754C151.929 46.6754 148.582 43.858 147.823 38.3101H170.943C172.315 38.3101 173.075 37.4723 173.075 36.1048V34.8893C173.075 24.6226 167.292 16.8651 155.81 16.8651M147.901 32.3802C148.739 26.906 151.855 24.7746 155.81 24.7746C159.765 24.7746 162.504 26.9798 162.882 32.3802H147.901Z" fill="#1AB258"/>
<path d="M132.208 29.5107V41.5789L114.231 32.9705L103.891 28.0174V16.6567L132.208 29.5107Z" fill="#1AB258"/>
<path d="M132.208 41.5659V29.4977L103.891 43.0592V54.4199L132.208 41.5659Z" fill="#0A436A"/>
</svg>
