<svg width="360" height="230" viewBox="0 0 360 230" fill="none" xmlns="http://www.w3.org/2000/svg">
<g clip-path="url(#clip0_692_14660)">
<mask id="mask0_692_14660" style="mask-type:alpha" maskUnits="userSpaceOnUse" x="-45" y="-126" width="405" height="366">
<path d="M353.563 8.01956C380.81 107.374 314.408 213.056 217.429 233.987C18.364 264.058 -56.1973 167.414 -43.0966 41.6242C-32.2743 -62.2883 61.3355 -128.441 165.77 -125.54C255.729 -123.041 329.762 -78.7699 353.563 8.01956Z" fill="#D9D9D9"/>
</mask>
<g mask="url(#mask0_692_14660)">
<g opacity="0.7" filter="url(#filter0_f_692_14660)">
<circle cx="344" cy="200" r="119" fill="#FCFDFF"/>
</g>
<g clip-path="url(#clip1_692_14660)">
<path d="M132.089 112.566C132.089 112.566 130.017 108.398 128.347 108.064C126.689 107.741 109.382 105.749 107.689 104.471C105.996 103.193 98.9258 101.293 97.0488 97.5851C97.0488 97.5851 94.4579 97.0209 93.8015 95.9845C93.1452 94.9481 92.6731 93.8772 94.17 93.1633C94.17 93.1633 93.9167 90.4457 97.8549 90.7912C97.8549 90.7912 97.6822 89.3978 100.872 89.6972C104.062 90.0081 118.352 91.4475 118.352 91.4475C118.352 91.4475 113.757 88.6839 113.055 87.59C112.352 86.496 111.915 84.2391 115.669 85.5978C119.423 86.9682 122.359 88.0736 124.915 88.2003C127.472 88.3154 133.621 90.5954 141.025 100.418C148.429 110.252 144.019 107.73 144.019 107.73" fill="#08436A"/>
<path d="M299.417 21.193C298.783 18.7979 297.309 16.5409 295.029 15.5045C294.097 15.0785 293.175 14.9633 292.266 15.0209C293.175 11.2324 291.966 7.38635 288.27 4.6918C283.744 1.39847 276.985 0.580894 271.884 3.01059C269.823 4.00089 268.199 5.61302 267.163 7.58211C263.639 5.39423 259.286 7.58211 257.306 11.2324C256.615 10.3573 255.82 9.60877 254.841 9.10211C252.884 8.07726 250.707 8.54938 249.176 10.0924C246.286 13.0288 245.837 18.13 247.092 22.0682C245.077 22.2064 243.131 23.0124 241.507 24.8203C237.062 29.7603 238.536 37.7863 241.461 43.256C243.015 46.1579 245.054 48.7257 247.368 51.0403C247.506 53.7694 247.955 56.4639 248.681 58.9627C250.247 64.4094 253.229 69.5682 257.824 72.9997C259.735 74.4276 261.843 75.4064 264.031 75.9821C263.927 77.6864 263.858 79.4021 263.604 81.0948C263.34 82.8221 262.902 84.5264 262.303 86.1615C261.532 88.2227 260.3 89.8924 259.148 91.7348C257.432 94.487 261.555 95.4082 263.374 95.9264C265.792 96.6288 268.349 97.3082 270.882 97.2506C273.415 97.193 276.006 96.9512 278.275 96.007C279.254 95.5924 280.232 94.9476 280.532 93.8651C280.716 93.1973 280.566 92.6215 280.313 92.0112C279.852 90.8942 279.369 89.8003 278.92 88.6833C277.307 84.6185 275.684 80.2197 275.085 75.8555C275.212 75.8209 275.327 75.7633 275.431 75.7057C284.366 71.8136 288.454 62.2215 288.765 52.9518C288.811 51.5124 288.765 50.0385 288.65 48.553C291.794 46.4573 294.361 43.7051 295.375 40.0779C296.25 36.9457 295.582 33.7906 294.2 30.9464C295.847 30.6815 297.367 29.9445 298.449 28.4245C299.923 26.3633 300.061 23.5882 299.428 21.193H299.417Z" fill="#08436A"/>
<path d="M309.573 125.175C309.365 123.92 308.179 123.068 306.924 123.287C305.669 123.494 304.828 124.691 305.036 125.935C305.116 126.419 305.22 127.018 305.347 127.731C311.922 165.202 312.348 200.242 306.625 231.817C306.59 231.932 303.228 243.205 265.642 238.254C264.399 238.081 263.224 238.968 263.063 240.234C262.902 241.49 263.788 242.653 265.044 242.814C271.907 243.724 277.745 244.104 282.719 244.104C308.202 244.104 310.897 234.062 311.15 232.715C316.977 200.53 316.551 164.937 309.884 126.937C309.757 126.234 309.653 125.647 309.573 125.175Z" fill="#A0D5F8"/>
<path d="M216.979 131.048C215.736 130.944 214.642 131.842 214.504 133.086C213.156 144.808 212.016 157.383 212.696 170.05C205.326 189.096 193.742 203.098 190.886 206.069C188.963 205.885 185.888 205.205 184.702 204.917C183.459 204.618 182.215 205.378 181.927 206.61C181.628 207.842 182.388 209.086 183.62 209.397C184.184 209.535 189.182 210.721 191.727 210.721C192.728 210.721 193.189 210.56 196.102 207.117C197.461 205.505 199.626 202.822 202.217 199.125C205.245 194.807 209.161 188.658 212.799 181.254C212.799 181.76 212.799 182.267 212.788 182.785C212.673 194.704 212.523 211.02 214.504 223.63C214.676 224.77 215.655 225.576 216.772 225.576C216.887 225.576 217.014 225.576 217.129 225.553C218.384 225.357 219.248 224.182 219.052 222.916C217.141 210.687 217.29 194.577 217.394 182.82C217.44 177.684 217.486 173.251 217.336 170.395L219.098 133.443C219.156 132.199 218.223 131.14 216.979 131.036V131.048Z" fill="#A0D5F8"/>
<path d="M351.649 132.119C350.141 116.838 345.696 89.6393 332.776 79.149C323.875 71.929 309.181 68.6472 294.615 81.0836C294.131 81.4981 293.486 82.0854 292.726 82.7763C287.844 87.2327 276.409 97.6539 268.107 96.3987C259.056 95.0284 254.116 91.0212 250.155 87.7969C247.932 86.0006 246.021 84.4345 243.775 83.5593C227.688 77.226 217.601 79.5175 205.625 85.6206C189.712 93.7387 178.277 115.111 173.061 134.767C168.19 124.173 162.478 114.316 152.621 101.788C152.23 101.293 151.654 100.982 151.032 100.924C150.41 100.867 149.777 101.062 149.305 101.477C143.282 106.716 137.536 108.858 129.672 110.781C129.407 110.85 129.096 110.908 128.773 110.965C126.701 111.38 123.868 111.944 122.808 114.305C122.21 115.583 122.371 116.884 122.475 117.759C123.879 128.722 130.996 148.033 131.295 148.85C131.733 150.048 133.068 150.647 134.255 150.209C135.452 149.771 136.051 148.447 135.613 147.25C135.544 147.054 128.37 127.616 127.035 117.184C127 116.93 126.954 116.481 126.965 116.285C127.415 115.94 128.923 115.641 129.66 115.491C130.04 115.41 130.408 115.341 130.731 115.261C138.308 113.418 144.365 111.242 150.433 106.509C164.482 124.749 169.525 137.416 177.033 156.278C178.565 160.135 180.2 164.246 182.042 168.714C182.411 169.601 183.263 170.142 184.173 170.142C184.461 170.142 184.76 170.084 185.048 169.969C186.222 169.485 186.787 168.138 186.303 166.964C184.472 162.507 182.848 158.408 181.317 154.562C179.498 150.002 177.828 145.799 176.135 141.791C181.743 114.098 195.999 95.6963 207.71 89.7199C218.776 84.0775 227.527 82.1084 242.082 87.8315C243.672 88.4533 245.33 89.8006 247.253 91.3666C251.421 94.7521 257.133 99.3927 267.427 100.947C277.918 102.536 290.02 91.4818 295.835 86.1733C296.561 85.5169 297.159 84.9642 297.608 84.5727C305.75 77.6175 318.497 73.4836 329.874 82.7072C348.459 97.7806 352.709 162.265 343.024 202.511C338.199 222.547 330.657 234.627 321.779 236.515C320.535 236.78 319.741 238.001 320.005 239.244C320.236 240.327 321.192 241.064 322.251 241.064C322.412 241.064 322.573 241.052 322.735 241.018C336.461 238.104 343.773 219.058 347.504 203.593C352.478 182.935 354.021 156.208 351.649 132.107V132.119Z" fill="#A0D5F8"/>
<path d="M242.658 232.473C241.714 229.295 238.225 222.8 234.068 221.453C232.398 220.912 219.455 220.854 185.094 221.303C191.968 207.416 165.219 159.053 159.715 149.38C159.335 148.7 158.621 148.263 157.849 148.217C125.837 146.351 90.4855 146.478 55.6291 148.585C54.5236 148.654 53.5794 149.219 52.9691 150.186C51.9327 151.833 49.7564 155.276 62.5612 191.099C67.8352 205.873 73.5582 220.21 75.1242 224.102C75.0897 224.251 75.0782 224.401 75.0782 224.551C75.0782 224.689 75.0897 224.827 75.1127 224.965L76.7133 233.659C76.8976 234.661 77.7152 235.421 78.717 235.525C82.943 236.008 90.2436 235.813 97.3255 235.628C102.358 235.502 107.113 235.375 109.912 235.536C116.084 235.859 149.535 236.043 179.382 236.043H180.626C196.552 236.043 211.015 235.997 221.447 235.905C234.697 235.79 241.629 235.344 242.244 234.569C242.704 233.982 242.865 233.187 242.647 232.473H242.658ZM56.7691 153.122C90.7158 151.107 125.088 150.969 156.329 152.731C179.348 193.425 183.632 214.947 180.868 219.496C180.465 220.164 179.705 220.912 177.667 220.843C177.621 220.843 177.575 220.843 177.54 220.843C166.589 221.016 156.041 221.384 145.85 221.741C145.321 221.764 144.802 221.776 144.273 221.799C136.062 221.81 127.852 221.983 119.861 222.156C110.752 222.351 101.448 222.547 92.1206 222.513C87.8945 222.409 83.6224 222.271 79.2697 222.052C64.0812 184.536 56.1242 158.293 56.7691 153.134V153.122ZM110.176 230.93C109.163 230.873 107.931 230.85 106.538 230.85C103.855 230.85 100.596 230.93 97.2218 231.022C91.4873 231.172 85.0849 231.333 80.9394 231.08L80.1679 226.923C83.8412 227.027 87.5145 227.084 91.1764 227.096C95.9091 227.222 100.561 227.268 105.179 227.268C118.329 227.268 131.134 226.842 144.33 226.393C146.046 226.393 147.75 226.393 149.466 226.393C150.479 226.393 155.224 226.324 162.421 226.22C182.342 225.921 228.852 225.219 232.721 225.852C234.033 226.347 235.853 228.685 237.096 231.057C218.845 231.587 121.841 231.552 110.176 230.93Z" fill="#A0D5F8"/>
<path d="M117.811 199.747C116.015 199.747 114.207 199.217 112.664 198.193C109.727 196.235 108.242 192.873 108.576 188.957C108.921 184.962 111.466 182.359 115.22 182.163C119.642 181.945 125.48 185.365 126.401 190.12C126.436 190.282 126.447 190.443 126.447 190.604C126.367 194.312 124.685 197.306 121.841 198.791C120.609 199.436 119.227 199.747 117.834 199.747H117.811ZM113.159 189.36C112.963 191.571 113.7 193.356 115.208 194.37C116.556 195.268 118.352 195.406 119.688 194.715C120.978 194.036 121.715 192.688 121.818 190.788C121.231 188.75 117.984 186.654 115.45 186.77C114.425 186.827 113.355 187.173 113.159 189.36Z" fill="#FBC063"/>
</g>
</g>
</g>
<defs>
<filter id="filter0_f_692_14660" x="157" y="13" width="374" height="374" filterUnits="userSpaceOnUse" color-interpolation-filters="sRGB">
<feFlood flood-opacity="0" result="BackgroundImageFix"/>
<feBlend mode="normal" in="SourceGraphic" in2="BackgroundImageFix" result="shape"/>
<feGaussianBlur stdDeviation="34" result="effect1_foregroundBlur_692_14660"/>
</filter>
<clipPath id="clip0_692_14660">
<rect width="360" height="244" fill="white"/>
</clipPath>
<clipPath id="clip1_692_14660">
<rect width="300.592" height="242.509" fill="white" transform="translate(52.1515 1.60596)"/>
</clipPath>
</defs>
</svg>
